999
dxfrw 0.5.10
0
SECTION
2
HEADER
9
$ACADVER
1
AC1021
9
$HANDSEED
5
20000
9
$DWGCODEPAGE
3
ANSI_1252
9
$INSBASE
10
0
20
0
30
0
9
$EXTMIN
10
-0.876096001679
20
-8.881784197e-16
30
0
9
$EXTMAX
10
7.49824034491
20
7.32882234698
30
0
9
$LIMMIN
10
0
20
0
9
$LIMMAX
10
420
20
297
9
$ORTHOMODE
70
0
9
$LTSCALE
40
1
9
$TEXTSTYLE
7
STANDARD
9
$CLAYER
8
cutout
9
$DIMASZ
40
0.1
9
$DIMLFAC
40
1
9
$DIMSCALE
40
1
9
$DIMEXO
40
0.025
9
$DIMEXE
40
0.05
9
$DIMTXT
40
0.1
9
$DIMTSZ
40
0
9
$DIMAUNIT
70
0
9
$DIMADEC
70
0
9
$DIMLUNIT
70
2
9
$DIMSTYLE
2
Standard
9
$DIMGAP
40
0.025
9
$DIMTIH
70
0
9
$LUNITS
70
2
9
$LUPREC
70
4
9
$AUNITS
70
0
9
$AUPREC
70
2
9
$SPLINESEGS
70
8
9
$GRIDMODE
70
1
9
$SNAPSTYLE
70
0
9
$PINSBASE
10
0
20
0
30
0
9
$PLIMMIN
10
0
20
0
9
$PLIMMAX
10
8.26771653543
20
11.6929133858
9
$INSUNITS
70
1
9
$PSVPSCALE
40
1
0
ENDSEC
0
SECTION
2
CLASSES
0
ENDSEC
0
SECTION
2
TABLES
0
TABLE
2
VPORT
5
8
330
0
100
AcDbSymbolTable
70
1
0
VPORT
5
31
330
2
100
AcDbSymbolTableRecord
100
AcDbViewportTableRecord
2
*ACTIVE
70
0
10
0
20
0
11
1
21
1
12
4.61059541496
22
3.96324919003
13
0
23
0
14
10
24
10
15
10
25
10
16
0
26
0
36
1
17
0
27
0
37
0
40
8.28044307859
41
1.76602924634
42
50
43
0
44
0
50
0
51
0
71
0
72
100
73
1
74
3
75
0
76
1
77
0
78
0
281
0
65
1
110
0
120
0
130
0
111
1
121
0
131
0
112
0
122
1
132
0
79
0
146
0
348
10020
60
7
61
5
292
1
282
1
141
0
142
0
63
250
421
3358443
0
ENDTAB
0
TABLE
2
LTYPE
5
5
330
0
100
AcDbSymbolTable
70
4
0
LTYPE
5
14
330
5
100
AcDbSymbolTableRecord
100
AcDbLinetypeTableRecord
2
ByBlock
70
0
3

72
65
73
0
40
0
0
LTYPE
5
15
330
5
100
AcDbSymbolTableRecord
100
AcDbLinetypeTableRecord
2
ByLayer
70
0
3

72
65
73
0
40
0
0
LTYPE
5
16
330
5
100
AcDbSymbolTableRecord
100
AcDbLinetypeTableRecord
2
Continuous
70
0
3
Solid line
72
65
73
0
40
0
0
LTYPE
5
32
330
5
100
AcDbSymbolTableRecord
100
AcDbLinetypeTableRecord
2
DOT
70
0
3
Dot . . . . . . . . . . . . . . . . . . . . . .
72
65
73
2
40
6.35
49
0
74
0
49
-6.35
74
0
0
LTYPE
5
33
330
5
100
AcDbSymbolTableRecord
100
AcDbLinetypeTableRecord
2
DOT2
70
0
3
Dot (.5x) .....................................
72
65
73
2
40
3.175
49
0
74
0
49
-3.175
74
0
0
LTYPE
5
34
330
5
100
AcDbSymbolTableRecord
100
AcDbLinetypeTableRecord
2
DOTX2
70
0
3
Dot (2x) .  .  .  .  .  .  .  .  .  .  .  .  .
72
65
73
2
40
12.7
49
0
74
0
49
-12.7
74
0
0
LTYPE
5
35
330
5
100
AcDbSymbolTableRecord
100
AcDbLinetypeTableRecord
2
DASHED
70
0
3
Dot . . . . . . . . . . . . . . . . . . . . . .
72
65
73
2
40
19.05
49
12.7
74
0
49
-6.35
74
0
0
LTYPE
5
36
330
5
100
AcDbSymbolTableRecord
100
AcDbLinetypeTableRecord
2
DASHED2
70
0
3
Dashed (.5x) _ _ _ _ _ _ _ _ _ _ _ _ _ _ _ _ _
72
65
73
2
40
9.525
49
6.35
74
0
49
-3.175
74
0
0
LTYPE
5
37
330
5
100
AcDbSymbolTableRecord
100
AcDbLinetypeTableRecord
2
DASHEDX2
70
0
3
Dashed (2x) ____  ____  ____  ____  ____  ___
72
65
73
2
40
38.1
49
25.4
74
0
49
-12.7
74
0
0
LTYPE
5
38
330
5
100
AcDbSymbolTableRecord
100
AcDbLinetypeTableRecord
2
DASHDOT
70
0
3
Dash dot __ . __ . __ . __ . __ . __ . __ . __
72
65
73
4
40
25.4
49
12.7
74
0
49
-6.35
74
0
49
0
74
0
49
-6.35
74
0
0
LTYPE
5
39
330
5
100
AcDbSymbolTableRecord
100
AcDbLinetypeTableRecord
2
DASHDOT2
70
0
3
Dash dot (.5x) _._._._._._._._._._._._._._._.
72
65
73
4
40
12.7
49
6.35
74
0
49
-3.175
74
0
49
0
74
0
49
-3.175
74
0
0
LTYPE
5
3A
330
5
100
AcDbSymbolTableRecord
100
AcDbLinetypeTableRecord
2
DASHDOTX2
70
0
3
Dash dot (2x) ____  .  ____  .  ____  .  ___
72
65
73
4
40
50.8
49
25.4
74
0
49
-12.7
74
0
49
0
74
0
49
-12.7
74
0
0
LTYPE
5
3B
330
5
100
AcDbSymbolTableRecord
100
AcDbLinetypeTableRecord
2
DIVIDE
70
0
3
Divide ____ . . ____ . . ____ . . ____ . . ____
72
65
73
6
40
31.75
49
12.7
74
0
49
-6.35
74
0
49
0
74
0
49
-6.35
74
0
49
0
74
0
49
-6.35
74
0
0
LTYPE
5
3C
330
5
100
AcDbSymbolTableRecord
100
AcDbLinetypeTableRecord
2
DIVIDE2
70
0
3
Divide (.5x) __..__..__..__..__..__..__..__.._
72
65
73
6
40
15.875
49
6.35
74
0
49
-3.175
74
0
49
0
74
0
49
-3.175
74
0
49
0
74
0
49
-3.175
74
0
0
LTYPE
5
3D
330
5
100
AcDbSymbolTableRecord
100
AcDbLinetypeTableRecord
2
DIVIDEX2
70
0
3
Divide (2x) ________  .  .  ________  .  .  _
72
65
73
6
40
63.5
49
25.4
74
0
49
-12.7
74
0
49
0
74
0
49
-12.7
74
0
49
0
74
0
49
-12.7
74
0
0
LTYPE
5
3E
330
5
100
AcDbSymbolTableRecord
100
AcDbLinetypeTableRecord
2
BORDER
70
0
3
Border __ __ . __ __ . __ __ . __ __ . __ __ .
72
65
73
6
40
44.45
49
12.7
74
0
49
-6.35
74
0
49
12.7
74
0
49
-6.35
74
0
49
0
74
0
49
-6.35
74
0
0
LTYPE
5
3F
330
5
100
AcDbSymbolTableRecord
100
AcDbLinetypeTableRecord
2
BORDER2
70
0
3
Border (.5x) __.__.__.__.__.__.__.__.__.__.__.
72
65
73
6
40
22.225
49
6.35
74
0
49
-3.175
74
0
49
6.35
74
0
49
-3.175
74
0
49
0
74
0
49
-3.175
74
0
0
LTYPE
5
40
330
5
100
AcDbSymbolTableRecord
100
AcDbLinetypeTableRecord
2
BORDERX2
70
0
3
Border (2x) ____  ____  .  ____  ____  .  ___
72
65
73
6
40
88.9
49
25.4
74
0
49
-12.7
74
0
49
25.4
74
0
49
-12.7
74
0
49
0
74
0
49
-12.7
74
0
0
LTYPE
5
41
330
5
100
AcDbSymbolTableRecord
100
AcDbLinetypeTableRecord
2
CENTER
70
0
3
Center ____ _ ____ _ ____ _ ____ _ ____ _ ____
72
65
73
4
40
50.8
49
31.75
74
0
49
-6.35
74
0
49
6.35
74
0
49
-6.35
74
0
0
LTYPE
5
42
330
5
100
AcDbSymbolTableRecord
100
AcDbLinetypeTableRecord
2
CENTER2
70
0
3
Center (.5x) ___ _ ___ _ ___ _ ___ _ ___ _ ___
72
65
73
4
40
28.575
49
19.05
74
0
49
-3.175
74
0
49
3.175
74
0
49
-3.175
74
0
0
LTYPE
5
43
330
5
100
AcDbSymbolTableRecord
100
AcDbLinetypeTableRecord
2
CENTERX2
70
0
3
Center (2x) ________  __  ________  __  _____
72
65
73
4
40
101.6
49
63.5
74
0
49
-12.7
74
0
49
12.7
74
0
49
-12.7
74
0
0
ENDTAB
0
TABLE
2
LAYER
5
2
330
0
100
AcDbSymbolTable
70
1
0
LAYER
5
10
330
2
100
AcDbSymbolTableRecord
100
AcDbLayerTableRecord
2
0
70
0
62
7
6
CONTINUOUS
370
0
390
F
0
LAYER
5
44
330
2
100
AcDbSymbolTableRecord
100
AcDbLayerTableRecord
2
outline
70
0
62
7
6
CONTINUOUS
370
0
390
F
0
LAYER
5
45
330
2
100
AcDbSymbolTableRecord
100
AcDbLayerTableRecord
2
drills
70
0
62
7
6
CONTINUOUS
370
0
390
F
0
LAYER
5
46
330
2
100
AcDbSymbolTableRecord
100
AcDbLayerTableRecord
2
bend
70
0
62
7
6
CONTINUOUS
370
0
390
F
0
LAYER
5
47
330
2
100
AcDbSymbolTableRecord
100
AcDbLayerTableRecord
2
cutout
70
0
62
7
6
CONTINUOUS
370
0
390
F
0
ENDTAB
0
TABLE
2
STYLE
5
3
330
0
100
AcDbSymbolTable
70
3
0
STYLE
5
48
330
2
100
AcDbSymbolTableRecord
100
AcDbTextStyleTableRecord
2
Standard
70
0
40
0
41
1
50
0
71
0
42
1
3
txt
4

0
ENDTAB
0
TABLE
2
VIEW
5
6
330
0
100
AcDbSymbolTable
70
0
0
ENDTAB
0
TABLE
2
UCS
5
7
330
0
100
AcDbSymbolTable
70
0
0
ENDTAB
0
TABLE
2
APPID
5
9
330
0
100
AcDbSymbolTable
70
1
0
APPID
5
12
330
9
100
AcDbSymbolTableRecord
100
AcDbRegAppTableRecord
2
ACAD
70
0
0
ENDTAB
0
TABLE
2
DIMSTYLE
5
A
330
0
100
AcDbSymbolTable
70
1
100
AcDbDimStyleTable
71
1
0
DIMSTYLE
105
49
330
A
100
AcDbSymbolTableRecord
100
AcDbDimStyleTableRecord
2
Standard
70
0
40
1
41
0.1
42
0.025
43
0.38
44
0.05
45
0
46
0
47
0
48
0
140
0.1
141
0.09
142
0
143
25.4
144
1
145
0
146
1
147
0.025
148
0
71
0
72
0
73
0
74
1
75
0
76
0
77
0
78
0
79
0
170
0
171
2
172
0
173
0
174
0
175
0
176
0
177
0
178
0
179
0
271
4
272
4
273
2
274
2
275
0
276
0
277
2
278
46
279
0
280
0
281
0
282
0
283
1
284
0
285
0
286
0
288
0
289
3
340
Standard
341

371
-2
372
-2
0
ENDTAB
0
TABLE
2
BLOCK_RECORD
5
1
330
0
100
AcDbSymbolTable
70
2
0
BLOCK_RECORD
5
1F
330
1
100
AcDbSymbolTableRecord
100
AcDbBlockTableRecord
2
*Model_Space
70
0
280
1
281
0
0
BLOCK_RECORD
5
1E
330
1
100
AcDbSymbolTableRecord
100
AcDbBlockTableRecord
2
*Paper_Space
70
0
280
1
281
0
0
ENDTAB
0
ENDSEC
0
SECTION
2
BLOCKS
0
BLOCK
5
20
330
1F
100
AcDbEntity
8
0
100
AcDbBlockBegin
2
*Model_Space
70
0
10
0
20
0
30
0
3
*Model_Space
1

0
ENDBLK
5
21
330
1F
100
AcDbEntity
8
0
100
AcDbBlockEnd
0
BLOCK
5
1C
330
1B
100
AcDbEntity
8
0
100
AcDbBlockBegin
2
*Paper_Space
70
0
10
0
20
0
30
0
3
*Paper_Space
1

0
ENDBLK
5
1D
330
1F
100
AcDbEntity
8
0
100
AcDbBlockEnd
0
ENDSEC
0
SECTION
2
ENTITIES
0
LINE
5
4A
100
AcDbEntity
8
outline
6
ByLayer
62
256
370
-1
100
AcDbLine
10
2.30437556469
20
-8.881784197e-16
11
2.30437556469
21
1.09620639901
0
CIRCLE
5
4B
100
AcDbEntity
8
drills
6
ByLayer
62
256
370
-1
100
AcDbCircle
10
0.55437562078
20
0.894205252565
40
0.0669296453486
0
CIRCLE
5
4C
100
AcDbEntity
8
drills
6
ByLayer
62
256
370
-1
100
AcDbCircle
10
0.554375564693
20
0.500505029782
40
0.0669291338583
0
CIRCLE
5
4D
100
AcDbEntity
8
drills
6
ByLayer
62
256
370
-1
100
AcDbCircle
10
1.92937556469
20
0.822154799256
40
0.0644439159893
0
CIRCLE
5
4E
100
AcDbEntity
8
drills
6
ByLayer
62
256
370
-1
100
AcDbCircle
10
1.92937556469
20
0.274051599752
40
0.065
0
LINE
5
4F
100
AcDbEntity
8
outline
6
ByLayer
62
256
370
-1
100
AcDbLine
10
0.25
20
0
11
2.30437556469
21
-8.881784197e-16
0
LINE
5
50
100
AcDbEntity
8
outline
6
ByLayer
62
256
370
-1
100
AcDbLine
10
0.12395093275
20
0.971051418715
11
0.125000096076
21
0.124845019708
0
LINE
5
51
100
AcDbEntity
8
outline
6
ByLayer
62
256
370
-1
100
AcDbLine
10
2.30437556469
20
1.09620639901
11
0.248950836675
21
1.09620639901
0
ARC
5
52
100
AcDbEntity
8
outline
6
ByLayer
62
256
370
-1
100
AcDbCircle
10
0.25
20
0.125
40
0.125
100
AcDbArc
50
180.071037751
51
270
0
ARC
5
53
100
AcDbEntity
8
outline
6
ByLayer
62
256
370
-1
100
AcDbCircle
10
0.248950836675
20
0.971206399007
40
0.125
100
AcDbArc
50
90
51
180.071037751
0
LINE
5
54
100
AcDbEntity
8
outline
6
ByLayer
62
256
370
-1
100
AcDbLine
10
7.49824034491
20
2.51314450647
11
7.49824034491
21
1.72124564332
0
ARC
5
55
100
AcDbEntity
8
outline
6
ByLayer
62
256
370
-1
100
AcDbCircle
10
7.37324034491
20
2.51314450647
40
0.125
100
AcDbArc
50
360
51
90.0003226986
0
ARC
5
56
100
AcDbEntity
8
outline
6
ByLayer
62
256
370
-1
100
AcDbCircle
10
7.37324034491
20
1.72124564332
40
0.125
100
AcDbArc
50
270.000307743
51
360
0
LINE
5
57
100
AcDbEntity
8
outline
6
ByLayer
62
256
370
-1
100
AcDbLine
10
7.49822845931
20
4.05504248879
11
7.49822845931
21
3.26314362564
0
ARC
5
58
100
AcDbEntity
8
outline
6
ByLayer
62
256
370
-1
100
AcDbCircle
10
7.37322845931
20
4.05504248879
40
0.125
100
AcDbArc
50
360
51
90.0003226986
0
ARC
5
59
100
AcDbEntity
8
outline
6
ByLayer
62
256
370
-1
100
AcDbCircle
10
7.37322845931
20
3.26314362564
40
0.125
100
AcDbArc
50
270.000307743
51
360
0
LINE
5
5A
100
AcDbEntity
8
outline
6
ByLayer
62
256
370
-1
100
AcDbLine
10
7.49821657371
20
5.59694047111
11
7.49821657371
21
4.80504160796
0
ARC
5
5B
100
AcDbEntity
8
outline
6
ByLayer
62
256
370
-1
100
AcDbCircle
10
7.37321657371
20
5.59694047111
40
0.125
100
AcDbArc
50
360
51
90.0003226986
0
ARC
5
5C
100
AcDbEntity
8
outline
6
ByLayer
62
256
370
-1
100
AcDbCircle
10
7.37321657371
20
4.80504160796
40
0.125
100
AcDbArc
50
270.000307743
51
360
0
LINE
5
5D
100
AcDbEntity
8
outline
6
ByLayer
62
256
370
-1
100
AcDbLine
10
7.49820468811
20
7.13883845342
11
7.49820468811
21
6.34693959027
0
ARC
5
5E
100
AcDbEntity
8
outline
6
ByLayer
62
256
370
-1
100
AcDbCircle
10
7.37320468811
20
7.13883845342
40
0.125
100
AcDbArc
50
360
51
90.0003226986
0
ARC
5
5F
100
AcDbEntity
8
outline
6
ByLayer
62
256
370
-1
100
AcDbCircle
10
7.37320468811
20
6.34693959027
40
0.125
100
AcDbArc
50
270.000307743
51
360
0
CIRCLE
5
60
100
AcDbEntity
8
cutout
6
ByLayer
62
256
370
-1
100
AcDbCircle
10
6.74824034491
20
2.1171950749
40
0.156
0
CIRCLE
5
61
100
AcDbEntity
8
cutout
6
ByLayer
62
256
370
-1
100
AcDbCircle
10
6.74822845931
20
3.65909305722
40
0.156
0
CIRCLE
5
62
100
AcDbEntity
8
cutout
6
ByLayer
62
256
370
-1
100
AcDbCircle
10
6.74821657371
20
5.20099103953
40
0.156
0
CIRCLE
5
63
100
AcDbEntity
8
cutout
6
ByLayer
62
256
370
-1
100
AcDbCircle
10
6.74820468811
20
6.74288902185
40
0.156
0
LINE
5
64
100
AcDbEntity
8
outline
6
ByLayer
62
256
370
-1
100
AcDbLine
10
0.248903294282
20
7.26379832828
11
7.37320398409
21
7.26383845342
0
LINE
5
65
100
AcDbEntity
8
outline
6
ByLayer
62
256
370
-1
100
AcDbLine
10
7.3732053595
20
6.22193959027
11
0.248915179874
21
6.2219013248
0
LINE
5
66
100
AcDbEntity
8
outline
6
ByLayer
62
256
370
-1
100
AcDbLine
10
0.24891517988
20
5.72190034596
11
7.37321586969
21
5.72194047111
0
LINE
5
67
100
AcDbEntity
8
outline
6
ByLayer
62
256
370
-1
100
AcDbLine
10
7.3732172451
20
4.68004160796
11
0.248927065472
21
4.68000334247
0
LINE
5
68
100
AcDbEntity
8
outline
6
ByLayer
62
256
370
-1
100
AcDbLine
10
0.248927065478
20
4.18000236364
11
7.37322775529
21
4.18004248879
0
LINE
5
69
100
AcDbEntity
8
outline
6
ByLayer
62
256
370
-1
100
AcDbLine
10
7.3732291307
20
3.13814362564
11
0.248938951071
21
3.13810536017
0
LINE
5
6A
100
AcDbEntity
8
outline
6
ByLayer
62
256
370
-1
100
AcDbLine
10
0.248938951077
20
2.63810438133
11
7.37323964089
21
2.63814450647
0
LINE
5
6B
100
AcDbEntity
8
outline
6
ByLayer
62
256
370
-1
100
AcDbLine
10
7.3732410163
20
1.59624564332
11
0.248950836669
21
1.59620737785
0
CIRCLE
5
6C
100
AcDbEntity
8
drills
6
ByLayer
62
256
370
-1
100
AcDbCircle
10
1.30426309278
20
2.43604347211
40
0.0669410805188
0
CIRCLE
5
6D
100
AcDbEntity
8
drills
6
ByLayer
62
256
370
-1
100
AcDbCircle
10
1.30426827243
20
2.04234273608
40
0.0669171428215
0
CIRCLE
5
6E
100
AcDbEntity
8
drills
6
ByLayer
62
256
370
-1
100
AcDbCircle
10
2.48975598879
20
2.63812840003
40
0.065
0
CIRCLE
5
6F
100
AcDbEntity
8
drills
6
ByLayer
62
256
370
-1
100
AcDbCircle
10
2.48976981704
20
1.59622874687
40
0.065
0
CIRCLE
5
70
100
AcDbEntity
8
drills
6
ByLayer
62
256
370
-1
100
AcDbCircle
10
2.48974410319
20
4.18002638235
40
0.065
0
CIRCLE
5
71
100
AcDbEntity
8
drills
6
ByLayer
62
256
370
-1
100
AcDbCircle
10
2.48975793144
20
3.13812672919
40
0.065
0
CIRCLE
5
72
100
AcDbEntity
8
drills
6
ByLayer
62
256
370
-1
100
AcDbCircle
10
2.48973221759
20
5.72192436466
40
0.065
0
CIRCLE
5
73
100
AcDbEntity
8
drills
6
ByLayer
62
256
370
-1
100
AcDbCircle
10
2.48974604584
20
4.6800247115
40
0.065
0
CIRCLE
5
74
100
AcDbEntity
8
drills
6
ByLayer
62
256
370
-1
100
AcDbCircle
10
2.489720332
20
7.26382234698
40
0.065
0
CIRCLE
5
75
100
AcDbEntity
8
drills
6
ByLayer
62
256
370
-1
100
AcDbCircle
10
2.48973416024
20
6.22192269382
40
0.065
0
LINE
5
76
100
AcDbEntity
8
outline
6
ByLayer
62
256
370
-1
100
AcDbLine
10
0.123950165295
20
1.72120473999
11
0.123939655107
21
2.51310272231
0
ARC
5
77
100
AcDbEntity
8
outline
6
ByLayer
62
256
370
-1
100
AcDbCircle
10
0.248950165284
20
1.72120639901
40
0.125
100
AcDbArc
50
180.000760438
51
270.000307743
0
ARC
5
78
100
AcDbEntity
8
outline
6
ByLayer
62
256
370
-1
100
AcDbCircle
10
0.248939655096
20
2.51310438133
40
0.125
100
AcDbArc
50
90.0003226986
51
180.000760438
0
LINE
5
79
100
AcDbEntity
8
outline
6
ByLayer
62
256
370
-1
100
AcDbLine
10
0.123938279697
20
3.2631027223
11
0.123927769509
21
4.05500070463
0
ARC
5
7A
100
AcDbEntity
8
outline
6
ByLayer
62
256
370
-1
100
AcDbCircle
10
0.248938279686
20
3.26310438132
40
0.125
100
AcDbArc
50
180.000760438
51
270.000307743
0
ARC
5
7B
100
AcDbEntity
8
outline
6
ByLayer
62
256
370
-1
100
AcDbCircle
10
0.248927769498
20
4.05500236364
40
0.125
100
AcDbArc
50
90.0003226986
51
180.000760438
0
LINE
5
7C
100
AcDbEntity
8
outline
6
ByLayer
62
256
370
-1
100
AcDbLine
10
0.123926394098
20
4.80500070462
11
0.12391588391
21
5.59689868694
0
ARC
5
7D
100
AcDbEntity
8
outline
6
ByLayer
62
256
370
-1
100
AcDbCircle
10
0.248926394087
20
4.80500236364
40
0.125
100
AcDbArc
50
180.000760438
51
270.000307743
0
ARC
5
7E
100
AcDbEntity
8
outline
6
ByLayer
62
256
370
-1
100
AcDbCircle
10
0.248915883899
20
5.59690034596
40
0.125
100
AcDbArc
50
90.0003226986
51
180.000760438
0
LINE
5
7F
100
AcDbEntity
8
outline
6
ByLayer
62
256
370
-1
100
AcDbLine
10
0.1239145085
20
6.34689868694
11
0.123903998312
21
7.13879666926
0
ARC
5
80
100
AcDbEntity
8
outline
6
ByLayer
62
256
370
-1
100
AcDbCircle
10
0.248914508489
20
6.34690034596
40
0.125
100
AcDbArc
50
180.000760438
51
270.000307743
0
ARC
5
81
100
AcDbEntity
8
outline
6
ByLayer
62
256
370
-1
100
AcDbCircle
10
0.248903998301
20
7.13879832828
40
0.125
100
AcDbArc
50
90.0003226986
51
180.000760438
0
ENDSEC
0
SECTION
2
OBJECTS
0
DICTIONARY
5
C
330
0
100
AcDbDictionary
281
1
3
ACAD_GROUP
350
D
0
DICTIONARY
5
D
330
C
100
AcDbDictionary
281
1
0
ENDSEC
0
EOF
