 0
SECTION
 2
ENTITIES
  0
LINE
 8
Layer0
10
0.28757728680924277
20
0.5771821251391156
30
-5.551115123125783e-17
11
0.28757728680924277
21
0.5771821251391156
31
0.03199999999999997
  0
LINE
 8
Layer0
10
0.8785477272147322
20
0.6839522727853158
30
5.551115123125783e-17
11
0.8885596004384002
21
0.6970000000000667
31
5.551115123125783e-17
  0
LINE
 8
Layer0
10
0.33910576032966844
20
0.7422786864793824
30
0.0
11
0.33910576032966855
21
0.7422786864793824
31
0.032000000000000084
  0
LINE
 8
Layer0
10
0.8948533270561398
20
0.16119440015860675
30
5.551115123125783e-17
11
0.8969999999999305
21
0.17750000000006594
31
5.551115123125783e-17
  0
LINE
 8
Layer0
10
0.3068127539458274
20
0.13347682552671003
30
-5.551115123125783e-17
11
0.32895307548846653
21
0.15135073605875782
31
0.0
  0
LINE
 8
Layer0
10
0.2808007371092947
20
0.12194229060695072
30
-5.551115123125783e-17
11
0.2808007371092944
21
0.12194229060695072
31
0.03199999999999986
  0
LINE
 8
Layer0
10
0.29577850882934875
20
0.7784208174722043
30
0.03199999999999997
11
0.2686160524483635
21
0.7868985222954592
31
0.032000000000000084
  0
LINE
 8
Layer0
10
0.8024999999999363
20
0.23205960043849672
30
5.551115123125783e-17
11
0.7894522727851823
21
0.22204772721483046
31
5.551115123125783e-17
  0
LINE
 8
Layer0
10
0.8176944001585296
20
0.7893533270562845
30
5.551115123125783e-17
11
0.8024999999999878
21
0.7830596004384933
31
5.551115123125783e-17
  0
LINE
 8
Layer0
10
0.8948533270561936
20
0.7121944001586069
30
5.551115123125783e-17
11
0.8969999999999834
21
0.7285000000000661
31
5.551115123125783e-17
  0
LINE
 8
Layer0
10
0.21242271319075706
20
0.7818178748609643
30
0.03199999999999997
11
0.1872213135206564
21
0.7686057603297076
31
0.03199999999999997
  0
LINE
 8
Layer0
10
0.8176944001585194
20
0.6676466729438619
30
5.551115123125783e-17
11
0.8339999999999783
21
0.6655000000000708
31
5.551115123125783e-17
  0
LINE
 8
Layer0
10
0.2499999999999999
20
0.3351800270025507
30
0.03199999999999986
11
0.24731029906061142
21
0.33546680920748173
31
0.03199999999999997
  0
LINE
 8
Layer0
10
0.2808007371092947
20
0.12194229060695072
30
-5.551115123125783e-17
11
0.3068127539458274
21
0.13347682552671003
31
-5.551115123125783e-17
  0
LINE
 8
Layer0
10
0.878547727214678
20
0.13295227278531563
30
0.032000000000000084
11
0.878547727214678
21
0.13295227278531563
31
5.551115123125783e-17
  0
LINE
 8
Layer0
10
0.8654999999999364
20
0.2320596004384896
30
5.551115123125783e-17
11
0.8503055998413962
21
0.23835332705628254
31
5.551115123125783e-17
  0
LINE
 8
Layer0
10
0.850305599841437
20
0.6676466729438584
30
0.032000000000000084
11
0.8654999999999791
21
0.6739403995616495
31
0.032000000000000084
  0
LINE
 8
Layer0
10
0.2500000000000009
20
0.7876571953791327
30
0.03199999999999997
11
0.2401849428575042
21
0.7880571953087312
31
0.03199999999999997
  0
LINE
 8
Layer0
10
1.26899999999989
20
0.9060000000000539
30
0.032000000000000084
11
1.26899999999989
21
0.9060000000000539
31
5.551115123125783e-17
  0
LINE
 8
Layer0
10
0.865499999999924
20
0.12294039956164937
30
0.032000000000000084
11
0.878547727214678
21
0.13295227278531563
31
0.032000000000000084
  0
LINE
 8
Layer0
10
0.865499999999924
20
0.12294039956164937
30
5.551115123125783e-17
11
0.878547727214678
21
0.13295227278531563
31
5.551115123125783e-17
  0
LINE
 8
Layer0
10
0.865499999999924
20
0.12294039956164937
30
0.032000000000000084
11
0.865499999999924
21
0.12294039956164937
31
5.551115123125783e-17
  0
LINE
 8
Layer0
10
0.8785477272147397
20
0.77304772721482
30
5.551115123125783e-17
11
0.8654999999999884
21
0.783059600438488
31
5.551115123125783e-17
  0
LINE
 8
Layer0
10
0.25268970093938836
20
0.1175331907925461
30
0.03199999999999997
11
0.2808007371092944
21
0.12194229060695072
31
0.03199999999999986
  0
LINE
 8
Layer0
10
0.8024999999999238
20
0.12294039956165648
30
0.032000000000000084
11
0.8024999999999238
21
0.12294039956165648
31
5.551115123125783e-17
  0
LINE
 8
Layer0
10
0.1748507360587448
20
0.1475469245115466
30
0.032000000000000084
11
0.19784594473835948
21
0.13078712458732156
31
0.03199999999999997
  0
LINE
 8
Layer0
10
0.14260147770458076
20
0.6981160524484036
30
0.032000000000000084
11
0.14144280469130788
21
0.6696849428575451
31
0.032000000000000084
  0
LINE
 8
Layer0
10
0.8339999999999375
20
0.24050000000007365
30
0.032000000000000084
11
0.8339999999999375
21
0.24050000000007365
31
5.551115123125783e-17
  0
LINE
 8
Layer0
10
0.7894522727851823
20
0.22204772721483046
30
5.551115123125783e-17
11
0.7794403995615138
21
0.20900000000007957
31
5.551115123125783e-17
  0
LINE
 8
Layer0
10
0.850305599841437
20
0.6676466729438584
30
5.551115123125783e-17
11
0.8654999999999791
21
0.6739403995616495
31
5.551115123125783e-17
  0
LINE
 8
Layer0
10
0.35595000105054986
20
0.20089536609541803
30
0.0
11
0.35595000105054986
21
0.20089536609541803
31
0.032000000000000084
  0
LINE
 8
Layer0
10
0.833999999999989
20
0.791500000000072
30
0.032000000000000084
11
0.8176944001585296
21
0.7893533270562845
31
0.032000000000000084
  0
LINE
 8
Layer0
10
0.25981505714249575
20
0.5709428046913487
30
-5.551115123125783e-17
11
0.25981505714249553
21
0.5709428046913487
31
0.03199999999999997
  0
LINE
 8
Layer0
10
0.25981505714249553
20
0.5709428046913487
30
0.03199999999999997
11
0.28757728680924277
21
0.5771821251391156
31
0.03199999999999997
  0
LINE
 8
Layer0
10
0.33910576032966844
20
0.7422786864793824
30
0.0
11
0.31982123548617636
21
0.7632018224126007
31
0.0
  0
LINE
 8
Layer0
10
0.7894522727851723
20
0.1329522727853263
30
0.032000000000000084
11
0.7894522727851723
21
0.1329522727853263
31
5.551115123125783e-17
  0
LINE
 8
Layer0
10
0.8948533270561398
20
0.16119440015860675
30
0.032000000000000084
11
0.8969999999999305
21
0.17750000000006594
31
0.032000000000000084
  0
LINE
 8
Layer0
10
0.8948533270561936
20
0.7121944001586069
30
0.032000000000000084
11
0.8969999999999834
21
0.7285000000000661
31
0.032000000000000084
  0
LINE
 8
Layer0
10
0.8969999999999834
20
0.7285000000000661
30
0.032000000000000084
11
0.8969999999999834
21
0.7285000000000661
31
5.551115123125783e-17
  0
LINE
 8
Layer0
10
0.8948533270561936
20
0.7121944001586069
30
0.032000000000000084
11
0.8948533270561936
21
0.7121944001586069
31
5.551115123125783e-17
  0
LINE
 8
Layer0
10
0.773146672943773
20
0.7448055998415359
30
0.032000000000000084
11
0.773146672943773
21
0.7448055998415359
31
5.551115123125783e-17
  0
LINE
 8
Layer0
10
0.8885596004383536
20
0.20900000000006713
30
0.032000000000000084
11
0.8785477272146878
21
0.2220477272148198
31
0.032000000000000084
  0
LINE
 8
Layer0
10
0.8785477272146878
20
0.2220477272148198
30
0.032000000000000084
11
0.8785477272146878
21
0.2220477272148198
31
5.551115123125783e-17
  0
LINE
 8
Layer0
10
0.8885596004383536
20
0.20900000000006713
30
5.551115123125783e-17
11
0.8785477272146878
21
0.2220477272148198
31
5.551115123125783e-17
  0
LINE
 8
Layer0
10
0.8885596004383536
20
0.20900000000006713
30
0.032000000000000084
11
0.8885596004383536
21
0.20900000000006713
31
5.551115123125783e-17
  0
LINE
 8
Layer0
10
0.35855719530869223
20
0.6893150571425348
30
5.551115123125783e-17
11
0.358557195308692
21
0.6893150571425348
31
0.03199999999999997
  0
LINE
 8
Layer0
10
0.14144280469130793
20
0.6696849428575451
30
5.551115123125783e-17
11
0.14768212513907564
21
0.6419227131907963
31
-5.551115123125783e-17
  0
LINE
 8
Layer0
10
0.3545577093930623
20
0.25730073710930945
30
0.0
11
0.3545577093930623
21
0.25730073710930945
31
0.03199999999999997
  0
LINE
 8
Layer0
10
0.8969999999999305
20
0.17750000000006594
30
0.032000000000000084
11
0.8948533270561434
21
0.19380559984152512
31
0.032000000000000084
  0
LINE
 8
Layer0
10
0.14404999894945014
20
0.2521046339046098
30
0.032000000000000084
11
0.14103319079253207
21
0.22381029906062544
31
0.032000000000000084
  0
LINE
 8
Layer0
10
0.8885596004383465
20
0.14600000000006652
30
0.032000000000000084
11
0.8948533270561398
21
0.16119440015860675
31
0.032000000000000084
  0
LINE
 8
Layer0
10
0.8176944001585296
20
0.7893533270562845
30
0.032000000000000084
11
0.8176944001585296
21
0.7893533270562845
31
5.551115123125783e-17
  0
LINE
 8
Layer0
10
0.833999999999989
20
0.791500000000072
30
5.551115123125783e-17
11
0.8176944001585296
21
0.7893533270562845
31
5.551115123125783e-17
  0
LINE
 8
Layer0
10
0.833999999999989
20
0.791500000000072
30
0.032000000000000084
11
0.833999999999989
21
0.791500000000072
31
5.551115123125783e-17
  0
LINE
 8
Layer0
10
0.817694400158478
20
0.2383533270562861
30
0.032000000000000084
11
0.8024999999999363
21
0.23205960043849672
31
0.032000000000000084
  0
LINE
 8
Layer0
10
0.3068127539458274
20
0.13347682552671003
30
-5.551115123125783e-17
11
0.3068127539458274
21
0.13347682552671003
31
0.03199999999999997
  0
LINE
 8
Layer0
10
0.3068127539458274
20
0.13347682552671003
30
0.03199999999999997
11
0.3289530754884664
21
0.15135073605875782
31
0.032000000000000084
  0
LINE
 8
Layer0
10
0.32895307548846653
20
0.15135073605875782
30
0.0
11
0.3289530754884664
21
0.15135073605875782
31
0.032000000000000084
  0
LINE
 8
Layer0
10
0.29577850882934875
20
0.7784208174722043
30
-5.551115123125783e-17
11
0.29577850882934875
21
0.7784208174722043
31
0.03199999999999997
  0
LINE
 8
Layer0
10
0.8969999999999305
20
0.17750000000006594
30
0.032000000000000084
11
0.8969999999999305
21
0.17750000000006594
31
5.551115123125783e-17
  0
LINE
 8
Layer0
10
0.8176944001584643
20
0.11664667294386355
30
5.551115123125783e-17
11
0.8339999999999232
21
0.11450000000007243
31
5.551115123125783e-17
  0
LINE
 8
Layer0
10
0.8885596004384055
20
0.7600000000000673
30
5.551115123125783e-17
11
0.8785477272147397
21
0.77304772721482
31
5.551115123125783e-17
  0
LINE
 8
Layer0
10
0.7794403995615067
20
0.14600000000007896
30
5.551115123125783e-17
11
0.7894522727851723
21
0.1329522727853263
31
5.551115123125783e-17
  0
LINE
 8
Layer0
10
0.21242271319075723
20
0.7818178748609643
30
-5.551115123125783e-17
11
0.18722131352065663
21
0.7686057603297076
31
0.0
  0
LINE
 8
Layer0
10
0.19318724605417248
20
0.3195231744733178
30
-5.551115123125783e-17
11
0.17104692451153358
21
0.30164926394127
31
-5.551115123125783e-17
  0
LINE
 8
Layer0
10
0.8176944001584643
20
0.11664667294386355
30
0.032000000000000084
11
0.8339999999999232
21
0.11450000000007243
31
0.032000000000000084
  0
LINE
 8
Layer0
10
0.8339999999999232
20
0.11450000000007243
30
0.032000000000000084
11
0.8339999999999232
21
0.11450000000007243
31
5.551115123125783e-17
  0
LINE
 8
Layer0
10
0.8176944001584643
20
0.11664667294386355
30
0.032000000000000084
11
0.8176944001584643
21
0.11664667294386355
31
5.551115123125783e-17
  0
LINE
 8
Layer0
10
0.8785477272147322
20
0.6839522727853158
30
0.032000000000000084
11
0.8885596004384002
21
0.6970000000000667
31
0.032000000000000084
  0
LINE
 8
Layer0
10
0.8885596004384002
20
0.6970000000000667
30
0.032000000000000084
11
0.8885596004384002
21
0.6970000000000667
31
5.551115123125783e-17
  0
LINE
 8
Layer0
10
0.8785477272147322
20
0.6839522727853158
30
0.032000000000000084
11
0.8785477272147322
21
0.6839522727853158
31
5.551115123125783e-17
  0
LINE
 8
Layer0
10
0.19318724605417242
20
0.3195231744733178
30
0.03199999999999986
11
0.1710469245115337
21
0.30164926394127
31
0.032000000000000084
  0
LINE
 8
Layer0
10
0.14103319079253218
20
0.22381029906062544
30
5.551115123125783e-17
11
0.14103319079253207
21
0.22381029906062544
31
0.032000000000000084
  0
LINE
 8
Layer0
10
0.770999999999983
20
0.7285000000000785
30
0.032000000000000084
11
0.770999999999983
21
0.7285000000000785
31
5.551115123125783e-17
  0
LINE
 8
Layer0
10
0.8339999999999783
20
0.6655000000000708
30
5.551115123125783e-17
11
0.850305599841437
21
0.6676466729438584
31
5.551115123125783e-17
  0
LINE
 8
Layer0
10
0.3251492639412551
20
0.3054530754884812
30
-5.551115123125783e-17
11
0.325149263941255
21
0.3054530754884812
31
0.03199999999999986
  0
LINE
 8
Layer0
10
0.31982123548617636
20
0.7632018224126007
30
0.0
11
0.29577850882934875
21
0.7784208174722043
31
-5.551115123125783e-17
  0
LINE
 8
Layer0
10
0.2499999999999999
20
0.11781997299747715
30
0.03199999999999986
11
0.25268970093938836
21
0.1175331907925461
31
0.03199999999999997
  0
LINE
 8
Layer0
10
0.7794403995615138
20
0.20900000000007957
30
0.032000000000000084
11
0.7794403995615138
21
0.20900000000007957
31
5.551115123125783e-17
  0
LINE
 8
Layer0
10
0.25
20
0.11781997299747715
30
0.0
11
0.2499999999999999
21
0.11781997299747715
31
0.03199999999999986
  0
LINE
 8
Layer0
10
0.14144280469130788
20
0.6696849428575451
30
0.032000000000000084
11
0.14768212513907575
21
0.6419227131907963
31
0.032000000000000084
  0
LINE
 8
Layer0
10
0.8885596004384002
20
0.6970000000000667
30
0.032000000000000084
11
0.8948533270561936
21
0.7121944001586069
31
0.032000000000000084
  0
LINE
 8
Layer0
10
0.7894522727852342
20
0.7730477272148271
30
5.551115123125783e-17
11
0.7794403995615662
21
0.7600000000000762
31
5.551115123125783e-17
  0
LINE
 8
Layer0
10
0.24018494285750414
20
0.7880571953087312
30
-5.551115123125783e-17
11
0.2401849428575042
21
0.7880571953087312
31
0.03199999999999997
  0
LINE
 8
Layer0
10
0.325149263941255
20
0.3054530754884812
30
0.03199999999999986
11
0.3021540552616403
21
0.32221287541270627
31
0.03199999999999997
  0
LINE
 8
Layer0
10
0.8024999999999363
20
0.23205960043849672
30
0.032000000000000084
11
0.7894522727851823
21
0.22204772721483046
31
0.032000000000000084
  0
LINE
 8
Layer0
10
0.1454422906069378
20
0.19569926289072015
30
0.03199999999999997
11
0.15697682552669523
21
0.1696872460541865
31
0.032000000000000084
  0
LINE
 8
Layer0
10
0.7894522727852342
20
0.7730477272148271
30
0.032000000000000084
11
0.7894522727852342
21
0.7730477272148271
31
5.551115123125783e-17
  0
LINE
 8
Layer0
10
0.878547727214678
20
0.13295227278531563
30
0.032000000000000084
11
0.8885596004383465
21
0.14600000000006652
31
0.032000000000000084
  0
LINE
 8
Layer0
10
0.8885596004383465
20
0.14600000000006652
30
0.032000000000000084
11
0.8885596004383465
21
0.14600000000006652
31
5.551115123125783e-17
  0
LINE
 8
Layer0
10
0.878547727214678
20
0.13295227278531563
30
5.551115123125783e-17
11
0.8885596004383465
21
0.14600000000006652
31
5.551115123125783e-17
  0
LINE
 8
Layer0
10
0.7794403995615609
20
0.6970000000000756
30
5.551115123125783e-17
11
0.7894522727852267
21
0.6839522727853229
31
5.551115123125783e-17
  0
LINE
 8
Layer0
10
0.3489208174721642
20
0.6337214911706912
30
-5.551115123125783e-17
11
0.35739852229541913
21
0.6608839475516763
31
0.0
  0
LINE
 8
Layer0
10
0.8024999999999785
20
0.6739403995616549
30
5.551115123125783e-17
11
0.8176944001585194
21
0.6676466729438619
31
5.551115123125783e-17
  0
LINE
 8
Layer0
10
0.35595000105054986
20
0.20089536609541803
30
0.0
11
0.3589668092074678
21
0.22918970093940239
31
5.551115123125783e-17
  0
LINE
 8
Layer0
10
0.35595000105054986
20
0.20089536609541803
30
0.032000000000000084
11
0.3589668092074678
21
0.22918970093940239
31
0.032000000000000084
  0
LINE
 8
Layer0
10
0.3589668092074678
20
0.22918970093940239
30
5.551115123125783e-17
11
0.3589668092074678
21
0.22918970093940239
31
0.032000000000000084
  0
LINE
 8
Layer0
10
0.2756046339045958
20
0.33245000105056377
30
0.03199999999999997
11
0.2499999999999999
21
0.3351800270025507
31
0.03199999999999986
  0
LINE
 8
Layer0
10
0.14768212513907575
20
0.6419227131907963
30
0.032000000000000084
11
0.16089423967033145
21
0.6167213135206975
31
0.032000000000000084
  0
LINE
 8
Layer0
10
0.8948533270561434
20
0.19380559984152512
30
5.551115123125783e-17
11
0.8885596004383536
21
0.20900000000006713
31
5.551115123125783e-17
  0
LINE
 8
Layer0
10
0.25
20
0.3351800270025507
30
0.0
11
0.24731029906061147
21
0.33546680920748173
31
0.0
  0
LINE
 8
Layer0
10
0.8885596004383465
20
0.14600000000006652
30
5.551115123125783e-17
11
0.8948533270561398
21
0.16119440015860675
31
5.551115123125783e-17
  0
LINE
 8
Layer0
10
0.25981505714249575
20
0.5709428046913487
30
-5.551115123125783e-17
11
0.28757728680924277
21
0.5771821251391156
31
-5.551115123125783e-17
  0
LINE
 8
Layer0
10
0.19784594473835948
20
0.13078712458732156
30
0.03199999999999997
11
0.224395366095404
21
0.12054999894946405
31
0.032000000000000084
  0
LINE
 8
Layer0
10
0.2401849428575042
20
0.7880571953087312
30
0.03199999999999997
11
0.21242271319075706
21
0.7818178748609643
31
0.03199999999999997
  0
LINE
 8
Layer0
10
0.5000000000000011
20
0.9060000000000539
30
5.551115123125783e-17
11
7.771561172376096e-16
21
0.9060000000000539
31
0.0
  0
LINE
 8
Layer0
10
0.8885596004384055
20
0.7600000000000673
30
0.032000000000000084
11
0.8785477272147397
21
0.77304772721482
31
0.032000000000000084
  0
LINE
 8
Layer0
10
0.1662981775874393
20
0.7493212354862173
30
0.03199999999999997
11
0.1510791825278357
21
0.7252785088293887
31
0.03199999999999997
  0
LINE
 8
Layer0
10
0.8176944001585296
20
0.7893533270562845
30
0.032000000000000084
11
0.8024999999999878
21
0.7830596004384933
31
0.032000000000000084
  0
LINE
 8
Layer0
10
0.3589668092074678
20
0.22918970093940239
30
0.032000000000000084
11
0.3545577093930623
21
0.25730073710930945
31
0.03199999999999997
  0
LINE
 8
Layer0
10
0.8024999999999363
20
0.23205960043849672
30
0.032000000000000084
11
0.8024999999999363
21
0.23205960043849672
31
5.551115123125783e-17
  0
LINE
 8
Layer0
10
0.18017876451382336
20
0.5957981775874792
30
0.032000000000000084
11
0.20422149117065125
21
0.5805791825278757
31
0.032000000000000084
  0
LINE
 8
Layer0
10
0.14144280469130793
20
0.6696849428575451
30
5.551115123125783e-17
11
0.14144280469130788
21
0.6696849428575451
31
0.032000000000000084
  0
LINE
 8
Layer0
10
0.14768212513907564
20
0.6419227131907963
30
-5.551115123125783e-17
11
0.14768212513907575
21
0.6419227131907963
31
0.032000000000000084
  0
LINE
 8
Layer0
10
0.8024999999999785
20
0.6739403995616549
30
0.032000000000000084
11
0.8176944001585194
21
0.6676466729438619
31
0.032000000000000084
  0
LINE
 8
Layer0
10
0.8176944001585194
20
0.6676466729438619
30
0.032000000000000084
11
0.8176944001585194
21
0.6676466729438619
31
5.551115123125783e-17
  0
LINE
 8
Layer0
10
0.8024999999999785
20
0.6739403995616549
30
0.032000000000000084
11
0.8024999999999785
21
0.6739403995616549
31
5.551115123125783e-17
  0
LINE
 8
Layer0
10
0.8176944001585194
20
0.6676466729438619
30
0.032000000000000084
11
0.8339999999999783
21
0.6655000000000708
31
0.032000000000000084
  0
LINE
 8
Layer0
10
0.8339999999999783
20
0.6655000000000708
30
0.032000000000000084
11
0.8339999999999783
21
0.6655000000000708
31
5.551115123125783e-17
  0
LINE
 8
Layer0
10
0.15697682552669523
20
0.1696872460541865
30
0.032000000000000084
11
0.1748507360587448
21
0.1475469245115466
31
0.032000000000000084
  0
LINE
 8
Layer0
10
0.3545577093930623
20
0.25730073710930945
30
0.03199999999999997
11
0.34302317447330477
21
0.2833127539458413
31
0.032000000000000084
  0
LINE
 8
Layer0
10
0.21242271319075723
20
0.7818178748609643
30
-5.551115123125783e-17
11
0.21242271319075706
21
0.7818178748609643
31
0.03199999999999997
  0
LINE
 8
Layer0
10
0.8654999999999364
20
0.2320596004384896
30
0.032000000000000084
11
0.8503055998413962
21
0.23835332705628254
31
0.032000000000000084
  0
LINE
 8
Layer0
10
0.24018494285750414
20
0.7880571953087312
30
-5.551115123125783e-17
11
0.21242271319075723
21
0.7818178748609643
31
-5.551115123125783e-17
  0
LINE
 8
Layer0
10
0.2500000000000008
20
0.7876571953791327
30
-5.551115123125783e-17
11
0.24018494285750414
21
0.7880571953087312
31
-5.551115123125783e-17
  0
LINE
 8
Layer0
10
0.2500000000000008
20
0.7876571953791327
30
-5.551115123125783e-17
11
0.2500000000000009
21
0.7876571953791327
31
0.03199999999999997
  0
LINE
 8
Layer0
10
0.2686160524483635
20
0.7868985222954592
30
0.0
11
0.2500000000000008
21
0.7876571953791327
31
-5.551115123125783e-17
  0
LINE
 8
Layer0
10
0.2686160524483635
20
0.7868985222954592
30
0.0
11
0.2686160524483635
21
0.7868985222954592
31
0.032000000000000084
  0
LINE
 8
Layer0
10
0.2686160524483635
20
0.7868985222954592
30
0.032000000000000084
11
0.2500000000000009
21
0.7876571953791327
31
0.03199999999999997
  0
LINE
 8
Layer0
10
0.8654999999999791
20
0.6739403995616495
30
0.032000000000000084
11
0.8785477272147322
21
0.6839522727853158
31
0.032000000000000084
  0
LINE
 8
Layer0
10
1.26899999999989
20
0.0
30
0.032000000000000084
11
0.5
21
0.0
31
0.032000000000000084
  0
LINE
 8
Layer0
10
1.26899999999989
20
0.9060000000000539
30
0.032000000000000084
11
1.26899999999989
21
0.0
31
0.032000000000000084
  0
LINE
 8
Layer0
10
0.770999999999983
20
0.7285000000000785
30
0.032000000000000084
11
0.7731466729437704
21
0.7121944001586176
31
0.032000000000000084
  0
LINE
 8
Layer0
10
0.773146672943773
20
0.7448055998415359
30
0.032000000000000084
11
0.770999999999983
21
0.7285000000000785
31
0.032000000000000084
  0
LINE
 8
Layer0
10
0.7794403995615662
20
0.7600000000000762
30
0.032000000000000084
11
0.773146672943773
21
0.7448055998415359
31
0.032000000000000084
  0
LINE
 8
Layer0
10
0.7894522727852342
20
0.7730477272148271
30
0.032000000000000084
11
0.7794403995615662
21
0.7600000000000762
31
0.032000000000000084
  0
LINE
 8
Layer0
10
0.8024999999999878
20
0.7830596004384933
30
0.032000000000000084
11
0.7894522727852342
21
0.7730477272148271
31
0.032000000000000084
  0
LINE
 8
Layer0
10
0.8503055998414477
20
0.7893533270562809
30
0.032000000000000084
11
0.833999999999989
21
0.791500000000072
31
0.032000000000000084
  0
LINE
 8
Layer0
10
0.8654999999999884
20
0.783059600438488
30
0.032000000000000084
11
0.8503055998414477
21
0.7893533270562809
31
0.032000000000000084
  0
LINE
 8
Layer0
10
0.8785477272147397
20
0.77304772721482
30
0.032000000000000084
11
0.8654999999999884
21
0.783059600438488
31
0.032000000000000084
  0
LINE
 8
Layer0
10
0.8948533270561962
20
0.7448055998415253
30
0.032000000000000084
11
0.8885596004384055
21
0.7600000000000673
31
0.032000000000000084
  0
LINE
 8
Layer0
10
0.8969999999999834
20
0.7285000000000661
30
0.032000000000000084
11
0.8948533270561962
21
0.7448055998415253
31
0.032000000000000084
  0
LINE
 8
Layer0
10
0.8339999999999783
20
0.6655000000000708
30
0.032000000000000084
11
0.850305599841437
21
0.6676466729438584
31
0.032000000000000084
  0
LINE
 8
Layer0
10
0.7894522727852267
20
0.6839522727853229
30
0.032000000000000084
11
0.8024999999999785
21
0.6739403995616549
31
0.032000000000000084
  0
LINE
 8
Layer0
10
0.7794403995615609
20
0.6970000000000756
30
0.032000000000000084
11
0.7894522727852267
21
0.6839522727853229
31
0.032000000000000084
  0
LINE
 8
Layer0
10
0.7731466729437704
20
0.7121944001586176
30
0.032000000000000084
11
0.7794403995615609
21
0.6970000000000756
31
0.032000000000000084
  0
LINE
 8
Layer0
10
0.7709999999999297
20
0.17750000000007837
30
0.032000000000000084
11
0.7731466729437166
21
0.16119440015862097
31
0.032000000000000084
  0
LINE
 8
Layer0
10
0.7731466729437204
20
0.19380559984153933
30
0.032000000000000084
11
0.7709999999999297
21
0.17750000000007837
31
0.032000000000000084
  0
LINE
 8
Layer0
10
0.7794403995615138
20
0.20900000000007957
30
0.032000000000000084
11
0.7731466729437204
21
0.19380559984153933
31
0.032000000000000084
  0
LINE
 8
Layer0
10
0.7894522727851823
20
0.22204772721483046
30
0.032000000000000084
11
0.7794403995615138
21
0.20900000000007957
31
0.032000000000000084
  0
LINE
 8
Layer0
10
0.8339999999999375
20
0.24050000000007365
30
0.032000000000000084
11
0.817694400158478
21
0.2383533270562861
31
0.032000000000000084
  0
LINE
 8
Layer0
10
0.8503055998413962
20
0.23835332705628254
30
0.032000000000000084
11
0.8339999999999375
21
0.24050000000007365
31
0.032000000000000084
  0
LINE
 8
Layer0
10
0.8785477272146878
20
0.2220477272148198
30
0.032000000000000084
11
0.8654999999999364
21
0.2320596004384896
31
0.032000000000000084
  0
LINE
 8
Layer0
10
0.8948533270561434
20
0.19380559984152512
30
0.032000000000000084
11
0.8885596004383536
21
0.20900000000006713
31
0.032000000000000084
  0
LINE
 8
Layer0
10
0.8503055998413824
20
0.11664667294386
30
0.032000000000000084
11
0.865499999999924
21
0.12294039956164937
31
0.032000000000000084
  0
LINE
 8
Layer0
10
0.8339999999999232
20
0.11450000000007243
30
0.032000000000000084
11
0.8503055998413824
21
0.11664667294386
31
0.032000000000000084
  0
LINE
 8
Layer0
10
0.8024999999999238
20
0.12294039956165648
30
0.032000000000000084
11
0.8176944001584643
21
0.11664667294386355
31
0.032000000000000084
  0
LINE
 8
Layer0
10
0.7894522727851723
20
0.1329522727853263
30
0.032000000000000084
11
0.8024999999999238
21
0.12294039956165648
31
0.032000000000000084
  0
LINE
 8
Layer0
10
0.7794403995615067
20
0.14600000000007896
30
0.032000000000000084
11
0.7894522727851723
21
0.1329522727853263
31
0.032000000000000084
  0
LINE
 8
Layer0
10
0.7731466729437166
20
0.16119440015862097
30
0.032000000000000084
11
0.7794403995615067
21
0.14600000000007896
31
0.032000000000000084
  0
LINE
 8
Layer0
10
0.8969999999999305
20
0.17750000000006594
30
5.551115123125783e-17
11
0.8948533270561434
21
0.19380559984152512
31
5.551115123125783e-17
  0
LINE
 8
Layer0
10
0.23138394755163622
20
0.5721014777046207
30
0.03199999999999997
11
0.2499999999999999
21
0.5713428046209472
31
0.03199999999999986
  0
LINE
 8
Layer0
10
0.2526897009393885
20
0.1175331907925461
30
5.551115123125783e-17
11
0.2808007371092947
21
0.12194229060695072
31
-5.551115123125783e-17
  0
LINE
 8
Layer0
10
0.2526897009393885
20
0.1175331907925461
30
5.551115123125783e-17
11
0.25268970093938836
21
0.1175331907925461
31
0.03199999999999997
  0
LINE
 8
Layer0
10
0.358557195308692
20
0.6893150571425348
30
0.03199999999999997
11
0.35231787486092436
21
0.7170772868092836
31
0.032000000000000084
  0
LINE
 8
Layer0
10
0.3589668092074678
20
0.22918970093940239
30
5.551115123125783e-17
11
0.3545577093930623
21
0.25730073710930945
31
0.0
  0
LINE
 8
Layer0
10
0.3021540552616403
20
0.32221287541270627
30
-5.551115123125783e-17
11
0.3021540552616403
21
0.32221287541270627
31
0.03199999999999997
  0
LINE
 8
Layer0
10
0.7794403995615067
20
0.14600000000007896
30
0.032000000000000084
11
0.7794403995615067
21
0.14600000000007896
31
5.551115123125783e-17
  0
LINE
 8
Layer0
10
0.8948533270561962
20
0.7448055998415253
30
0.032000000000000084
11
0.8948533270561962
21
0.7448055998415253
31
5.551115123125783e-17
  0
LINE
 8
Layer0
10
0.8654999999999884
20
0.783059600438488
30
0.032000000000000084
11
0.8654999999999884
21
0.783059600438488
31
5.551115123125783e-17
  0
LINE
 8
Layer0
10
0.34302317447330477
20
0.2833127539458413
30
5.551115123125783e-17
11
0.34302317447330477
21
0.2833127539458413
31
0.032000000000000084
  0
LINE
 8
Layer0
10
0.7709999999999297
20
0.17750000000007837
30
5.551115123125783e-17
11
0.7731466729437166
21
0.16119440015862097
31
5.551115123125783e-17
  0
LINE
 8
Layer0
10
0.31982123548617636
20
0.7632018224126007
30
0.0
11
0.31982123548617636
21
0.7632018224126007
31
0.032000000000000084
  0
LINE
 8
Layer0
10
0.23138394755163627
20
0.5721014777046207
30
-5.551115123125783e-17
11
0.23138394755163622
21
0.5721014777046207
31
0.03199999999999997
  0
LINE
 8
Layer0
10
0.1662981775874392
20
0.7493212354862173
30
-5.551115123125783e-17
11
0.1662981775874393
21
0.7493212354862173
31
0.03199999999999997
  0
LINE
 8
Layer0
10
0.31277868647934337
20
0.5903942396703723
30
-5.551115123125783e-17
11
0.33370182241256074
21
0.6096787645138626
31
0.0
  0
LINE
 8
Layer0
10
0.7731466729437204
20
0.19380559984153933
30
0.032000000000000084
11
0.7731466729437204
21
0.19380559984153933
31
5.551115123125783e-17
  0
LINE
 8
Layer0
10
0.7894522727851823
20
0.22204772721483046
30
0.032000000000000084
11
0.7894522727851823
21
0.22204772721483046
31
5.551115123125783e-17
  0
LINE
 8
Layer0
10
0.7894522727851723
20
0.1329522727853263
30
5.551115123125783e-17
11
0.8024999999999238
21
0.12294039956165648
31
5.551115123125783e-17
  0
LINE
 8
Layer0
10
0.3489208174721642
20
0.6337214911706912
30
-5.551115123125783e-17
11
0.3489208174721642
21
0.6337214911706912
31
0.03199999999999997
  0
LINE
 8
Layer0
10
0.3489208174721642
20
0.6337214911706912
30
0.03199999999999997
11
0.35739852229541924
21
0.6608839475516763
31
0.032000000000000084
  0
LINE
 8
Layer0
10
0.35739852229541913
20
0.6608839475516763
30
0.0
11
0.35739852229541924
21
0.6608839475516763
31
0.032000000000000084
  0
LINE
 8
Layer0
10
0.8503055998413824
20
0.11664667294386
30
0.032000000000000084
11
0.8503055998413824
21
0.11664667294386
31
5.551115123125783e-17
  0
LINE
 8
Layer0
10
0.8339999999999232
20
0.11450000000007243
30
5.551115123125783e-17
11
0.8503055998413824
21
0.11664667294386
31
5.551115123125783e-17
  0
LINE
 8
Layer0
10
0.7794403995615662
20
0.7600000000000762
30
5.551115123125783e-17
11
0.773146672943773
21
0.7448055998415359
31
5.551115123125783e-17
  0
LINE
 8
Layer0
10
0.7794403995615662
20
0.7600000000000762
30
0.032000000000000084
11
0.7794403995615662
21
0.7600000000000762
31
5.551115123125783e-17
  0
LINE
 8
Layer0
10
0.8024999999999878
20
0.7830596004384933
30
5.551115123125783e-17
11
0.7894522727852342
21
0.7730477272148271
31
5.551115123125783e-17
  0
LINE
 8
Layer0
10
0.7731466729437204
20
0.19380559984153933
30
5.551115123125783e-17
11
0.7709999999999297
21
0.17750000000007837
31
5.551115123125783e-17
  0
LINE
 8
Layer0
10
0.17104692451153358
20
0.30164926394127
30
-5.551115123125783e-17
11
0.15428712458730676
21
0.2786540552616543
31
-5.551115123125783e-17
  0
LINE
 8
Layer0
10
0.17104692451153358
20
0.30164926394127
30
-5.551115123125783e-17
11
0.1710469245115337
21
0.30164926394127
31
0.032000000000000084
  0
LINE
 8
Layer0
10
0.1710469245115337
20
0.30164926394127
30
0.032000000000000084
11
0.1542871245873067
21
0.2786540552616543
31
0.03199999999999997
  0
LINE
 8
Layer0
10
0.15428712458730676
20
0.2786540552616543
30
-5.551115123125783e-17
11
0.1542871245873067
21
0.2786540552616543
31
0.03199999999999997
  0
LINE
 8
Layer0
10
0.14103319079253218
20
0.22381029906062544
30
5.551115123125783e-17
11
0.1454422906069377
21
0.19569926289072015
31
5.551115123125783e-17
  0
LINE
 8
Layer0
10
0.14103319079253207
20
0.22381029906062544
30
0.032000000000000084
11
0.1454422906069378
21
0.19569926289072015
31
0.03199999999999997
  0
LINE
 8
Layer0
10
0.1454422906069377
20
0.19569926289072015
30
5.551115123125783e-17
11
0.1454422906069378
21
0.19569926289072015
31
0.03199999999999997
  0
LINE
 8
Layer0
10
0.7894522727852267
20
0.6839522727853229
30
5.551115123125783e-17
11
0.8024999999999785
21
0.6739403995616549
31
5.551115123125783e-17
  0
LINE
 8
Layer0
10
0.7894522727852267
20
0.6839522727853229
30
0.032000000000000084
11
0.7894522727852267
21
0.6839522727853229
31
5.551115123125783e-17
  0
LINE
 8
Layer0
10
0.34571287541269313
20
0.1743459447383735
30
-5.551115123125783e-17
11
0.34571287541269313
21
0.1743459447383735
31
0.03199999999999986
  0
LINE
 8
Layer0
10
0.8948533270561434
20
0.19380559984152512
30
0.032000000000000084
11
0.8948533270561434
21
0.19380559984152512
31
5.551115123125783e-17
  0
LINE
 8
Layer0
10
-1.1102230246251565e-16
20
0.0
30
0.032000000000000084
11
8.326672684688674e-16
21
0.9060000000000539
31
0.03199999999999997
  0
LINE
 8
Layer0
10
0.8503055998413962
20
0.23835332705628254
30
0.032000000000000084
11
0.8503055998413962
21
0.23835332705628254
31
5.551115123125783e-17
  0
LINE
 8
Layer0
10
0.8654999999999364
20
0.2320596004384896
30
0.032000000000000084
11
0.8654999999999364
21
0.2320596004384896
31
5.551115123125783e-17
  0
LINE
 8
Layer0
10
0.19318724605417248
20
0.3195231744733178
30
-5.551115123125783e-17
11
0.19318724605417242
21
0.3195231744733178
31
0.03199999999999986
  0
LINE
 8
Layer0
10
0.32895307548846653
20
0.15135073605875782
30
0.0
11
0.34571287541269313
21
0.1743459447383735
31
-5.551115123125783e-17
  0
LINE
 8
Layer0
10
0.770999999999983
20
0.7285000000000785
30
5.551115123125783e-17
11
0.7731466729437704
21
0.7121944001586176
31
5.551115123125783e-17
  0
LINE
 8
Layer0
10
0.33910576032966855
20
0.7422786864793824
30
0.032000000000000084
11
0.31982123548617636
21
0.7632018224126007
31
0.032000000000000084
  0
LINE
 8
Layer0
10
0.0
20
0.0
30
0.0
11
-1.1102230246251565e-16
21
0.0
31
0.032000000000000084
  0
LINE
 8
Layer0
10
0.5
20
0.0
30
5.551115123125783e-17
11
0.0
21
0.0
31
0.0
  0
LINE
 8
Layer0
10
1.26899999999989
20
0.0
30
5.551115123125783e-17
11
0.5
21
0.0
31
5.551115123125783e-17
  0
LINE
 8
Layer0
10
1.26899999999989
20
0.0
30
0.032000000000000084
11
1.26899999999989
21
0.0
31
5.551115123125783e-17
  0
LINE
 8
Layer0
10
0.29577850882934875
20
0.7784208174722043
30
-5.551115123125783e-17
11
0.2686160524483635
21
0.7868985222954592
31
0.0
  0
LINE
 8
Layer0
10
0.34302317447330477
20
0.2833127539458413
30
5.551115123125783e-17
11
0.3251492639412551
21
0.3054530754884812
31
-5.551115123125783e-17
  0
LINE
 8
Layer0
10
0.5000000000000011
20
0.9060000000000539
30
5.551115123125783e-17
11
1.26899999999989
21
0.9060000000000539
31
5.551115123125783e-17
  0
LINE
 8
Layer0
10
8.326672684688674e-16
20
0.9060000000000539
30
0.03199999999999997
11
7.771561172376096e-16
21
0.9060000000000539
31
0.0
  0
LINE
 8
Layer0
10
0.21919926289070518
20
0.3310577093930771
30
-1.1102230246251565e-16
11
0.21919926289070518
21
0.3310577093930771
31
0.03199999999999997
  0
LINE
 8
Layer0
10
0.23138394755163627
20
0.5721014777046207
30
-5.551115123125783e-17
11
0.25
21
0.5713428046209472
31
0.0
  0
LINE
 8
Layer0
10
0.25
20
0.5713428046209472
30
0.0
11
0.2499999999999999
21
0.5713428046209472
31
0.03199999999999986
  0
LINE
 8
Layer0
10
0.16089423967033134
20
0.6167213135206975
30
0.0
11
0.16089423967033145
21
0.6167213135206975
31
0.032000000000000084
  0
LINE
 8
Layer0
10
0.3289530754884664
20
0.15135073605875782
30
0.032000000000000084
11
0.34571287541269313
21
0.1743459447383735
31
0.03199999999999986
  0
LINE
 8
Layer0
10
0.14260147770458076
20
0.6981160524484036
30
5.551115123125783e-17
11
0.14144280469130793
21
0.6696849428575451
31
5.551115123125783e-17
  0
LINE
 8
Layer0
10
0.8969999999999834
20
0.7285000000000661
30
5.551115123125783e-17
11
0.8948533270561962
21
0.7448055998415253
31
5.551115123125783e-17
  0
LINE
 8
Layer0
10
0.35231787486092425
20
0.7170772868092836
30
0.0
11
0.33910576032966844
21
0.7422786864793824
31
0.0
  0
LINE
 8
Layer0
10
0.31982123548617636
20
0.7632018224126007
30
0.032000000000000084
11
0.29577850882934875
21
0.7784208174722043
31
0.03199999999999997
  0
LINE
 8
Layer0
10
0.3251492639412551
20
0.3054530754884812
30
-5.551115123125783e-17
11
0.3021540552616403
21
0.32221287541270627
31
-5.551115123125783e-17
  0
LINE
 8
Layer0
10
0.7731466729437166
20
0.16119440015862097
30
0.032000000000000084
11
0.7731466729437166
21
0.16119440015862097
31
5.551115123125783e-17
  0
LINE
 8
Layer0
10
0.33370182241256074
20
0.6096787645138626
30
0.0
11
0.33370182241256063
21
0.6096787645138626
31
0.032000000000000084
  0
LINE
 8
Layer0
10
0.17485073605874468
20
0.1475469245115466
30
-5.551115123125783e-17
11
0.1748507360587448
21
0.1475469245115466
31
0.032000000000000084
  0
LINE
 8
Layer0
10
0.35855719530869223
20
0.6893150571425348
30
5.551115123125783e-17
11
0.35231787486092425
21
0.7170772868092836
31
0.0
  0
LINE
 8
Layer0
10
0.28757728680924277
20
0.5771821251391156
30
0.03199999999999997
11
0.31277868647934337
21
0.5903942396703723
31
0.03199999999999997
  0
LINE
 8
Layer0
10
0.8503055998413824
20
0.11664667294386
30
5.551115123125783e-17
11
0.865499999999924
21
0.12294039956164937
31
5.551115123125783e-17
  0
LINE
 8
Layer0
10
0.7794403995615609
20
0.6970000000000756
30
0.032000000000000084
11
0.7794403995615609
21
0.6970000000000756
31
5.551115123125783e-17
  0
LINE
 8
Layer0
10
0.1510791825278357
20
0.7252785088293887
30
0.03199999999999997
11
0.14260147770458076
21
0.6981160524484036
31
0.032000000000000084
  0
LINE
 8
Layer0
10
0.14404999894945025
20
0.2521046339046098
30
-5.551115123125783e-17
11
0.14103319079253218
21
0.22381029906062544
31
5.551115123125783e-17
  0
LINE
 8
Layer0
10
0.14404999894945025
20
0.2521046339046098
30
-5.551115123125783e-17
11
0.14404999894945014
21
0.2521046339046098
31
0.032000000000000084
  0
LINE
 8
Layer0
10
0.33370182241256063
20
0.6096787645138626
30
0.032000000000000084
11
0.3489208174721642
21
0.6337214911706912
31
0.03199999999999997
  0
LINE
 8
Layer0
10
0.8948533270561398
20
0.16119440015860675
30
0.032000000000000084
11
0.8948533270561398
21
0.16119440015860675
31
5.551115123125783e-17
  0
LINE
 8
Layer0
10
0.15428712458730676
20
0.2786540552616543
30
-5.551115123125783e-17
11
0.14404999894945025
21
0.2521046339046098
31
-5.551115123125783e-17
  0
LINE
 8
Layer0
10
0.17485073605874468
20
0.1475469245115466
30
-5.551115123125783e-17
11
0.1978459447383596
21
0.13078712458732156
31
-1.1102230246251565e-16
  0
LINE
 8
Layer0
10
0.1978459447383596
20
0.13078712458732156
30
-1.1102230246251565e-16
11
0.19784594473835948
21
0.13078712458732156
31
0.03199999999999997
  0
LINE
 8
Layer0
10
0.8503055998413962
20
0.23835332705628254
30
5.551115123125783e-17
11
0.8339999999999375
21
0.24050000000007365
31
5.551115123125783e-17
  0
LINE
 8
Layer0
10
0.18017876451382342
20
0.5957981775874792
30
5.551115123125783e-17
11
0.2042214911706512
21
0.5805791825278757
31
-5.551115123125783e-17
  0
LINE
 8
Layer0
10
0.2042214911706512
20
0.5805791825278757
30
-5.551115123125783e-17
11
0.23138394755163627
21
0.5721014777046207
31
-5.551115123125783e-17
  0
LINE
 8
Layer0
10
0.1542871245873067
20
0.2786540552616543
30
0.03199999999999997
11
0.14404999894945014
21
0.2521046339046098
31
0.032000000000000084
  0
LINE
 8
Layer0
10
0.8503055998414477
20
0.7893533270562809
30
5.551115123125783e-17
11
0.833999999999989
21
0.791500000000072
31
5.551115123125783e-17
  0
LINE
 8
Layer0
10
0.1510791825278358
20
0.7252785088293887
30
0.0
11
0.14260147770458076
21
0.6981160524484036
31
5.551115123125783e-17
  0
LINE
 8
Layer0
10
0.18722131352065663
20
0.7686057603297076
30
0.0
11
0.1662981775874392
21
0.7493212354862173
31
-5.551115123125783e-17
  0
LINE
 8
Layer0
10
0.8503055998414477
20
0.7893533270562809
30
0.032000000000000084
11
0.8503055998414477
21
0.7893533270562809
31
5.551115123125783e-17
  0
LINE
 8
Layer0
10
0.8654999999999884
20
0.783059600438488
30
5.551115123125783e-17
11
0.8503055998414477
21
0.7893533270562809
31
5.551115123125783e-17
  0
LINE
 8
Layer0
10
0.22439536609540411
20
0.12054999894946405
30
-5.551115123125783e-17
11
0.224395366095404
21
0.12054999894946405
31
0.032000000000000084
  0
LINE
 8
Layer0
10
0.35739852229541913
20
0.6608839475516763
30
0.0
11
0.35855719530869223
21
0.6893150571425348
31
5.551115123125783e-17
  0
LINE
 8
Layer0
10
0.3545577093930623
20
0.25730073710930945
30
0.0
11
0.34302317447330477
21
0.2833127539458413
31
5.551115123125783e-17
  0
LINE
 8
Layer0
10
0.817694400158478
20
0.2383533270562861
30
0.032000000000000084
11
0.817694400158478
21
0.2383533270562861
31
5.551115123125783e-17
  0
LINE
 8
Layer0
10
0.18722131352065663
20
0.7686057603297076
30
0.0
11
0.1872213135206564
21
0.7686057603297076
31
0.03199999999999997
  0
LINE
 8
Layer0
10
0.25
20
0.3351800270025507
30
0.0
11
0.2499999999999999
21
0.3351800270025507
31
0.03199999999999986
  0
LINE
 8
Layer0
10
0.24731029906061147
20
0.33546680920748173
30
0.0
11
0.24731029906061142
21
0.33546680920748173
31
0.03199999999999997
  0
LINE
 8
Layer0
10
0.7731466729437166
20
0.16119440015862097
30
5.551115123125783e-17
11
0.7794403995615067
21
0.14600000000007896
31
5.551115123125783e-17
  0
LINE
 8
Layer0
10
0.8885596004384055
20
0.7600000000000673
30
0.032000000000000084
11
0.8885596004384055
21
0.7600000000000673
31
5.551115123125783e-17
  0
LINE
 8
Layer0
10
0.15697682552669534
20
0.1696872460541865
30
5.551115123125783e-17
11
0.15697682552669523
21
0.1696872460541865
31
0.032000000000000084
  0
LINE
 8
Layer0
10
0.8024999999999878
20
0.7830596004384933
30
0.032000000000000084
11
0.8024999999999878
21
0.7830596004384933
31
5.551115123125783e-17
  0
LINE
 8
Layer0
10
7.771561172376096e-16
20
0.9060000000000539
30
0.0
11
0.0
21
0.0
31
0.0
  0
LINE
 8
Layer0
10
0.22439536609540411
20
0.12054999894946405
30
-5.551115123125783e-17
11
0.25
21
0.11781997299747715
31
0.0
  0
LINE
 8
Layer0
10
0.25
20
0.11781997299747715
30
0.0
11
0.2526897009393885
21
0.1175331907925461
31
5.551115123125783e-17
  0
LINE
 8
Layer0
10
0.34571287541269313
20
0.1743459447383735
30
-5.551115123125783e-17
11
0.35595000105054986
21
0.20089536609541803
31
0.0
  0
LINE
 8
Layer0
10
0.3021540552616403
20
0.32221287541270627
30
-5.551115123125783e-17
11
0.2756046339045958
21
0.33245000105056377
31
-1.1102230246251565e-16
  0
LINE
 8
Layer0
10
0.2756046339045958
20
0.33245000105056377
30
-1.1102230246251565e-16
11
0.25
21
0.3351800270025507
31
0.0
  0
LINE
 8
Layer0
10
0.24731029906061147
20
0.33546680920748173
30
0.0
11
0.21919926289070518
21
0.3310577093930771
31
-1.1102230246251565e-16
  0
LINE
 8
Layer0
10
0.21919926289070518
20
0.3310577093930771
30
-1.1102230246251565e-16
11
0.19318724605417248
21
0.3195231744733178
31
-5.551115123125783e-17
  0
LINE
 8
Layer0
10
0.1454422906069377
20
0.19569926289072015
30
5.551115123125783e-17
11
0.15697682552669534
21
0.1696872460541865
31
5.551115123125783e-17
  0
LINE
 8
Layer0
10
0.15697682552669534
20
0.1696872460541865
30
5.551115123125783e-17
11
0.17485073605874468
21
0.1475469245115466
31
-5.551115123125783e-17
  0
LINE
 8
Layer0
10
0.1978459447383596
20
0.13078712458732156
30
-1.1102230246251565e-16
11
0.22439536609540411
21
0.12054999894946405
31
-5.551115123125783e-17
  0
LINE
 8
Layer0
10
0.1662981775874392
20
0.7493212354862173
30
-5.551115123125783e-17
11
0.1510791825278358
21
0.7252785088293887
31
0.0
  0
LINE
 8
Layer0
10
0.14768212513907564
20
0.6419227131907963
30
-5.551115123125783e-17
11
0.16089423967033134
21
0.6167213135206975
31
0.0
  0
LINE
 8
Layer0
10
0.16089423967033134
20
0.6167213135206975
30
0.0
11
0.18017876451382342
21
0.5957981775874792
31
5.551115123125783e-17
  0
LINE
 8
Layer0
10
0.25
20
0.5713428046209472
30
0.0
11
0.25981505714249575
21
0.5709428046913487
31
-5.551115123125783e-17
  0
LINE
 8
Layer0
10
0.28757728680924277
20
0.5771821251391156
30
-5.551115123125783e-17
11
0.31277868647934337
21
0.5903942396703723
31
-5.551115123125783e-17
  0
LINE
 8
Layer0
10
0.33370182241256074
20
0.6096787645138626
30
0.0
11
0.3489208174721642
21
0.6337214911706912
31
-5.551115123125783e-17
  0
LINE
 8
Layer0
10
0.21919926289070518
20
0.3310577093930771
30
0.03199999999999997
11
0.19318724605417242
21
0.3195231744733178
31
0.03199999999999986
  0
LINE
 8
Layer0
10
0.7731466729437704
20
0.7121944001586176
30
5.551115123125783e-17
11
0.7794403995615609
21
0.6970000000000756
31
5.551115123125783e-17
  0
LINE
 8
Layer0
10
0.2808007371092944
20
0.12194229060695072
30
0.03199999999999986
11
0.3068127539458274
21
0.13347682552671003
31
0.03199999999999997
  0
LINE
 8
Layer0
10
0.18017876451382342
20
0.5957981775874792
30
5.551115123125783e-17
11
0.18017876451382336
21
0.5957981775874792
31
0.032000000000000084
  0
LINE
 8
Layer0
10
0.8339999999999375
20
0.24050000000007365
30
5.551115123125783e-17
11
0.817694400158478
21
0.2383533270562861
31
5.551115123125783e-17
  0
LINE
 8
Layer0
10
0.8885596004384002
20
0.6970000000000667
30
5.551115123125783e-17
11
0.8948533270561936
21
0.7121944001586069
31
5.551115123125783e-17
  0
LINE
 8
Layer0
10
0.8785477272147397
20
0.77304772721482
30
0.032000000000000084
11
0.8785477272147397
21
0.77304772721482
31
5.551115123125783e-17
  0
LINE
 8
Layer0
10
0.2042214911706512
20
0.5805791825278757
30
-5.551115123125783e-17
11
0.20422149117065125
21
0.5805791825278757
31
0.032000000000000084
  0
LINE
 8
Layer0
10
0.20422149117065125
20
0.5805791825278757
30
0.032000000000000084
11
0.23138394755163622
21
0.5721014777046207
31
0.03199999999999997
  0
LINE
 8
Layer0
10
0.8654999999999791
20
0.6739403995616495
30
0.032000000000000084
11
0.8654999999999791
21
0.6739403995616495
31
5.551115123125783e-17
  0
LINE
 8
Layer0
10
0.1510791825278358
20
0.7252785088293887
30
0.0
11
0.1510791825278357
21
0.7252785088293887
31
0.03199999999999997
  0
LINE
 8
Layer0
10
0.34302317447330477
20
0.2833127539458413
30
0.032000000000000084
11
0.325149263941255
21
0.3054530754884812
31
0.03199999999999986
  0
LINE
 8
Layer0
10
0.224395366095404
20
0.12054999894946405
30
0.032000000000000084
11
0.2499999999999999
21
0.11781997299747715
31
0.03199999999999986
  0
LINE
 8
Layer0
10
0.24731029906061142
20
0.33546680920748173
30
0.03199999999999997
11
0.21919926289070518
21
0.3310577093930771
31
0.03199999999999997
  0
LINE
 8
Layer0
10
0.3021540552616403
20
0.32221287541270627
30
0.03199999999999997
11
0.2756046339045958
21
0.33245000105056377
31
0.03199999999999997
  0
LINE
 8
Layer0
10
0.34571287541269313
20
0.1743459447383735
30
0.03199999999999986
11
0.35595000105054986
21
0.20089536609541803
31
0.032000000000000084
  0
LINE
 8
Layer0
10
0.2499999999999999
20
0.5713428046209472
30
0.03199999999999986
11
0.25981505714249553
21
0.5709428046913487
31
0.03199999999999997
  0
LINE
 8
Layer0
10
0.16089423967033145
20
0.6167213135206975
30
0.032000000000000084
11
0.18017876451382336
21
0.5957981775874792
31
0.032000000000000084
  0
LINE
 8
Layer0
10
0.1872213135206564
20
0.7686057603297076
30
0.03199999999999997
11
0.1662981775874393
21
0.7493212354862173
31
0.03199999999999997
  0
LINE
 8
Layer0
10
0.35231787486092436
20
0.7170772868092836
30
0.032000000000000084
11
0.33910576032966855
21
0.7422786864793824
31
0.032000000000000084
  0
LINE
 8
Layer0
10
0.35739852229541924
20
0.6608839475516763
30
0.032000000000000084
11
0.358557195308692
21
0.6893150571425348
31
0.03199999999999997
  0
LINE
 8
Layer0
10
0.31277868647934337
20
0.5903942396703723
30
0.03199999999999997
11
0.33370182241256063
21
0.6096787645138626
31
0.032000000000000084
  0
LINE
 8
Layer0
10
0.31277868647934337
20
0.5903942396703723
30
-5.551115123125783e-17
11
0.31277868647934337
21
0.5903942396703723
31
0.03199999999999997
  0
LINE
 8
Layer0
10
0.817694400158478
20
0.2383533270562861
30
5.551115123125783e-17
11
0.8024999999999363
21
0.23205960043849672
31
5.551115123125783e-17
  0
LINE
 8
Layer0
10
0.8024999999999238
20
0.12294039956165648
30
5.551115123125783e-17
11
0.8176944001584643
21
0.11664667294386355
31
5.551115123125783e-17
  0
LINE
 8
Layer0
10
0.850305599841437
20
0.6676466729438584
30
0.032000000000000084
11
0.850305599841437
21
0.6676466729438584
31
5.551115123125783e-17
  0
LINE
 8
Layer0
10
0.8654999999999791
20
0.6739403995616495
30
5.551115123125783e-17
11
0.8785477272147322
21
0.6839522727853158
31
5.551115123125783e-17
  0
LINE
 8
Layer0
10
0.14260147770458076
20
0.6981160524484036
30
5.551115123125783e-17
11
0.14260147770458076
21
0.6981160524484036
31
0.032000000000000084
  0
LINE
 8
Layer0
10
0.7709999999999297
20
0.17750000000007837
30
0.032000000000000084
11
0.7709999999999297
21
0.17750000000007837
31
5.551115123125783e-17
  0
LINE
 8
Layer0
10
0.7731466729437704
20
0.7121944001586176
30
0.032000000000000084
11
0.7731466729437704
21
0.7121944001586176
31
5.551115123125783e-17
  0
LINE
 8
Layer0
10
0.2756046339045958
20
0.33245000105056377
30
-1.1102230246251565e-16
11
0.2756046339045958
21
0.33245000105056377
31
0.03199999999999997
  0
LINE
 8
Layer0
10
0.8785477272146878
20
0.2220477272148198
30
5.551115123125783e-17
11
0.8654999999999364
21
0.2320596004384896
31
5.551115123125783e-17
  0
LINE
 8
Layer0
10
0.8948533270561962
20
0.7448055998415253
30
5.551115123125783e-17
11
0.8885596004384055
21
0.7600000000000673
31
5.551115123125783e-17
  0
LINE
 8
Layer0
10
1.26899999999989
20
0.9060000000000539
30
5.551115123125783e-17
11
1.26899999999989
21
0.0
31
5.551115123125783e-17
  0
LINE
 8
Layer0
10
0.773146672943773
20
0.7448055998415359
30
5.551115123125783e-17
11
0.770999999999983
21
0.7285000000000785
31
5.551115123125783e-17
  0
LINE
 8
Layer0
10
0.7794403995615138
20
0.20900000000007957
30
5.551115123125783e-17
11
0.7731466729437204
21
0.19380559984153933
31
5.551115123125783e-17
  0
LINE
 8
Layer0
10
0.35231787486092425
20
0.7170772868092836
30
0.0
11
0.35231787486092436
21
0.7170772868092836
31
0.032000000000000084
  0
LINE
 8
Layer0
10
0.5
20
0.0
30
0.032000000000000084
11
-1.1102230246251565e-16
21
0.0
31
0.032000000000000084
  0
LINE
 8
Layer0
10
0.5
20
0.0
30
5.551115123125783e-17
11
0.5
21
0.0
31
0.032000000000000084
  0
LINE
 8
Layer0
10
0.5000000000000011
20
0.9060000000000539
30
5.551115123125783e-17
11
0.5
21
0.9060000000000539
31
0.032000000000000195
  0
LINE
 8
Layer0
10
0.5
20
0.0
30
5.551115123125783e-17
11
0.5000000000000011
21
0.9060000000000539
31
5.551115123125783e-17
  0
LINE
 8
Layer0
10
0.5
20
0.0
30
0.032000000000000084
11
0.5
21
0.9060000000000539
31
0.032000000000000195
  0
LINE
 8
Layer0
10
0.5
20
0.9060000000000539
30
0.032000000000000195
11
8.326672684688674e-16
21
0.9060000000000539
31
0.03199999999999997
  0
LINE
 8
Layer0
10
0.5
20
0.9060000000000539
30
0.032000000000000195
11
1.26899999999989
21
0.9060000000000539
31
0.032000000000000084
 0
ENDSEC
 0
EOF
