 0
SECTION
 2
ENTITIES
  0
LINE
 8
Layer0
10
0.40350000000016084
20
0.6739403995614841
30
0.03200000000000014
11
0.41869440015870285
21
0.6676466729436885
31
0.03200000000000358
  0
LINE
 8
Layer0
10
0.3904522727854135
20
0.6839522727851539
30
1.1102230246251565e-16
11
0.39045227278541356
21
0.6839522727851539
31
0.03200000000000003
  0
LINE
 8
Layer0
10
0.4035000000000577
20
0.23205960043832446
30
3.885780586188048e-15
11
0.39045227278530337
21
0.22204772721465998
31
1.1102230246251565e-16
  0
LINE
 8
Layer0
10
0.4035000000000577
20
0.23205960043832446
30
3.885780586188048e-15
11
0.4035000000000578
21
0.23205960043832446
31
0.03200000000000358
  0
LINE
 8
Layer0
10
0.4513055998416213
20
0.6676466729436805
30
0.0320000000000038
11
0.4665000000001631
21
0.673940399561469
31
0.03200000000000369
  0
LINE
 8
Layer0
10
0.4350000000001904
20
0.7914999999998968
30
0.03200000000000369
11
0.4186944001587313
21
0.7893533270561119
31
0.0320000000000038
  0
LINE
 8
Layer0
10
0.4795477272148074
20
0.22204772721463867
30
7.327471962526033e-15
11
0.46650000000006003
21
0.23205960043830937
31
7.216449660063518e-15
  0
LINE
 8
Layer0
10
0.46650000000018804
20
0.7830596004383092
30
0.032000000000007356
11
0.4513055998416497
21
0.7893533270561048
31
0.03200000000000358
  0
LINE
 8
Layer0
10
0.4895596004386033
20
0.7599999999998841
30
0.032000000000007356
11
0.4795477272149389
21
0.7730477272146385
31
0.032000000000007245
  0
LINE
 8
Layer0
10
0.4895596004384576
20
0.1459999999998836
30
7.216449660063518e-15
11
0.4958533270562525
21
0.16119440015842296
31
7.216449660063518e-15
  0
LINE
 8
Layer0
10
0.39045227278543476
20
0.7730477272146599
30
2.220446049250313e-16
11
0.39045227278543126
21
0.7730477272146599
31
0.03200000000000025
  0
LINE
 8
Layer0
10
0.0
20
5.551115123125783e-17
30
0.0
11
0.5510000000002184
21
5.551115123125783e-17
31
0.0
  0
LINE
 8
Layer0
10
0.5510000000002185
20
5.551115123125783e-17
30
0.03200000000000003
11
0.7388575307355509
21
-8.326672684688674e-16
31
0.03200000000000003
  0
LINE
 8
Layer0
10
-1.1102230246251565e-16
20
5.551115123125783e-17
30
0.03200000000000025
11
0.5510000000002185
21
5.551115123125783e-17
31
0.03200000000000003
  0
LINE
 8
Layer0
10
0.0
20
5.551115123125783e-17
30
0.0
11
-1.1102230246251565e-16
21
5.551115123125783e-17
31
0.03200000000000025
  0
LINE
 8
Layer0
10
0.43500000000016187
20
0.6654999999998965
30
3.6637359812630166e-15
11
0.43500000000016215
21
0.6654999999998956
31
0.03200000000000369
  0
LINE
 8
Layer0
10
0.4958533270562525
20
0.16119440015842296
30
7.216449660063518e-15
11
0.49800000000004696
21
0.17749999999988214
31
3.774758283725532e-15
  0
LINE
 8
Layer0
10
0.3741466729438371
20
0.19380559984137063
30
1.1102230246251565e-16
11
0.37414667294383697
21
0.19380559984136975
31
0.03200000000000014
  0
LINE
 8
Layer0
10
0.38044039956163156
20
0.20899999999990998
30
2.220446049250313e-16
11
0.3741466729438371
21
0.19380559984137063
31
1.1102230246251565e-16
  0
LINE
 8
Layer0
10
0.38044039956163156
20
0.20899999999990998
30
2.220446049250313e-16
11
0.3804403995616315
21
0.20899999999990998
31
0.03200000000000014
  0
LINE
 8
Layer0
10
0.3804403995616315
20
0.20899999999990998
30
0.03200000000000014
11
0.37414667294383697
21
0.19380559984136975
31
0.03200000000000014
  0
LINE
 8
Layer0
10
0.3904522727852819
20
0.13295227278515404
30
2.220446049250313e-16
11
0.4035000000000327
21
0.12294039956148423
31
2.220446049250313e-16
  0
LINE
 8
Layer0
10
0.4665000000000566
20
0.23205960043830937
30
0.032000000000007245
11
0.45130559984151813
21
0.23835332705610496
31
0.03200000000000369
  0
LINE
 8
Layer0
10
0.4186944001585998
20
0.23835332705611206
30
0.0320000000000038
11
0.4035000000000578
21
0.23205960043832446
31
0.03200000000000358
  0
LINE
 8
Layer0
10
0.5510000000002184
20
0.9059999999998689
30
0.032000000000007356
11
0.7388575139997378
21
0.9059999999998671
31
0.0320000167358212
  0
LINE
 8
Layer0
10
0.4513055998415181
20
0.23835332705610496
30
3.774758283725532e-15
11
0.4350000000000589
21
0.24049999999989785
31
3.552713678800501e-15
  0
LINE
 8
Layer0
10
0.39045227278530337
20
0.22204772721465998
30
0.03200000000000025
11
0.3804403995616315
21
0.20899999999990998
31
0.03200000000000014
  0
LINE
 8
Layer0
10
0.39045227278530337
20
0.22204772721465998
30
1.1102230246251565e-16
11
0.38044039956163156
21
0.20899999999990998
31
2.220446049250313e-16
  0
LINE
 8
Layer0
10
0.39045227278530337
20
0.22204772721465998
30
1.1102230246251565e-16
11
0.39045227278530337
21
0.22204772721465998
31
0.03200000000000025
  0
LINE
 8
Layer0
10
0.4958533270563946
20
0.7448055998413412
30
7.216449660063518e-15
11
0.48955960043860325
21
0.7599999999998841
31
7.438494264988549e-15
  0
LINE
 8
Layer0
10
0.4958533270563946
20
0.7448055998413412
30
7.216449660063518e-15
11
0.49585332705639096
21
0.7448055998413412
31
0.032000000000007356
  0
LINE
 8
Layer0
10
0.49585332705639096
20
0.7448055998413412
30
0.032000000000007356
11
0.4895596004386033
21
0.7599999999998841
31
0.032000000000007356
  0
LINE
 8
Layer0
10
0.48955960043860325
20
0.7599999999998841
30
7.438494264988549e-15
11
0.4895596004386033
21
0.7599999999998841
31
0.032000000000007356
  0
LINE
 8
Layer0
10
0.41869440015857157
20
0.11664667294368863
30
0.03200000000000358
11
0.4350000000000305
21
0.11449999999989574
31
0.0320000000000038
  0
LINE
 8
Layer0
10
0.40350000000002917
20
0.12294039956148423
30
0.03200000000000025
11
0.41869440015857157
21
0.11664667294368863
31
0.03200000000000358
  0
LINE
 8
Layer0
10
0.39045227278528194
20
0.13295227278515404
30
0.03200000000000025
11
0.40350000000002917
21
0.12294039956148423
31
0.03200000000000025
  0
LINE
 8
Layer0
10
0.41869440015859954
20
0.23835332705611295
30
3.774758283725532e-15
11
0.4035000000000577
21
0.23205960043832446
31
3.885780586188048e-15
  0
LINE
 8
Layer0
10
0.41869440015859954
20
0.23835332705611295
30
3.774758283725532e-15
11
0.4186944001585998
21
0.23835332705611206
31
0.0320000000000038
  0
LINE
 8
Layer0
10
0.39045227278541356
20
0.6839522727851539
30
0.03200000000000003
11
0.40350000000016084
21
0.6739403995614841
31
0.03200000000000014
  0
LINE
 8
Layer0
10
0.38044039956161746
20
0.14599999999990937
30
2.220446049250313e-16
11
0.3904522727852819
21
0.13295227278515404
31
2.220446049250313e-16
  0
LINE
 8
Layer0
10
0.38044039956161746
20
0.14599999999990937
30
2.220446049250313e-16
11
0.38044039956161757
21
0.14599999999990937
31
0.03200000000000003
  0
LINE
 8
Layer0
10
0.38044039956161757
20
0.14599999999990937
30
0.03200000000000003
11
0.39045227278528194
21
0.13295227278515404
31
0.03200000000000025
  0
LINE
 8
Layer0
10
0.3904522727852819
20
0.13295227278515404
30
2.220446049250313e-16
11
0.39045227278528194
21
0.13295227278515404
31
0.03200000000000025
  0
LINE
 8
Layer0
10
0.4035000000001891
20
0.7830596004383243
30
3.6637359812630166e-15
11
0.40350000000018926
21
0.7830596004383243
31
0.0320000000000038
  0
LINE
 8
Layer0
10
0.37414667294382997
20
0.16119440015845227
30
2.220446049250313e-16
11
0.38044039956161746
21
0.14599999999990937
31
2.220446049250313e-16
  0
LINE
 8
Layer0
10
0.37414667294382997
20
0.16119440015845227
30
2.220446049250313e-16
11
0.3741466729438263
21
0.16119440015845227
31
0.03200000000000025
  0
LINE
 8
Layer0
10
0.3741466729438263
20
0.16119440015845227
30
0.03200000000000025
11
0.38044039956161757
21
0.14599999999990937
31
0.03200000000000003
  0
LINE
 8
Layer0
10
0.49800000000004696
20
0.17749999999988214
30
3.774758283725532e-15
11
0.49585332705626317
21
0.19380559984134133
31
7.105427357601002e-15
  0
LINE
 8
Layer0
10
0.49800000000004696
20
0.17749999999988214
30
3.774758283725532e-15
11
0.4980000000000435
21
0.17749999999988125
31
0.03200000000000369
  0
LINE
 8
Layer0
10
0.4980000000000435
20
0.17749999999988125
30
0.03200000000000369
11
0.4958533270562596
21
0.19380559984134133
31
0.032000000000007356
  0
LINE
 8
Layer0
10
0.49585332705626317
20
0.19380559984134133
30
7.105427357601002e-15
11
0.4958533270562596
21
0.19380559984134133
31
0.032000000000007356
  0
LINE
 8
Layer0
10
0.3720000000001773
20
0.7284999999999114
30
3.6637359812630166e-15
11
0.3741466729439614
21
0.7121944001584523
31
1.1102230246251565e-16
  0
LINE
 8
Layer0
10
0.3720000000001773
20
0.7284999999999114
30
3.6637359812630166e-15
11
0.37200000000017386
21
0.7284999999999114
31
0.03200000000000369
  0
LINE
 8
Layer0
10
0.37200000000017386
20
0.7284999999999114
30
0.03200000000000369
11
0.37414667294395787
21
0.7121944001584523
31
0.03200000000000003
  0
LINE
 8
Layer0
10
0.3741466729439614
20
0.7121944001584523
30
1.1102230246251565e-16
11
0.37414667294395787
21
0.7121944001584523
31
0.03200000000000003
  0
LINE
 8
Layer0
10
0.4665000000000315
20
0.12294039956146913
30
3.774758283725532e-15
11
0.47954772721478983
21
0.1329522727851336
31
7.216449660063518e-15
  0
LINE
 8
Layer0
10
0.38044039956176323
20
0.7599999999999099
30
2.220446049250313e-16
11
0.3804403995617632
21
0.7599999999999099
31
0.03200000000000003
  0
LINE
 8
Layer0
10
0.489559600438472
20
0.20899999999988422
30
7.105427357601002e-15
11
0.4895596004384719
21
0.20899999999988422
31
0.032000000000007245
  0
LINE
 8
Layer0
10
0.4958533270562525
20
0.16119440015842296
30
7.216449660063518e-15
11
0.49585332705625246
21
0.16119440015842296
31
0.032000000000007245
  0
LINE
 8
Layer0
10
0.49585332705625246
20
0.16119440015842296
30
0.032000000000007245
11
0.4980000000000435
21
0.17749999999988125
31
0.03200000000000369
  0
LINE
 8
Layer0
10
0.479547727214786
20
0.13295227278513272
30
0.03200000000000747
11
0.4895596004384576
21
0.1459999999998836
31
0.032000000000007245
  0
LINE
 8
Layer0
10
0.5510000000002185
20
5.551115123125783e-17
30
0.03200000000000003
11
0.5510000000002184
21
0.9059999999998689
31
0.032000000000007356
  0
LINE
 8
Layer0
10
0.5510000000002184
20
0.9059999999998689
30
0.032000000000007356
11
-1.1102230246251565e-16
21
0.9059999999998689
31
0.03200000000000025
  0
LINE
 8
Layer0
10
-1.1102230246251565e-16
20
0.9059999999998689
30
0.03200000000000025
11
-1.1102230246251565e-16
21
5.551115123125783e-17
31
0.03200000000000025
  0
LINE
 8
Layer0
10
0.3741466729439684
20
0.7448055998413696
30
0.03200000000000036
11
0.37200000000017386
21
0.7284999999999114
31
0.03200000000000369
  0
LINE
 8
Layer0
10
0.3804403995617632
20
0.7599999999999099
30
0.03200000000000003
11
0.3741466729439684
21
0.7448055998413696
31
0.03200000000000036
  0
LINE
 8
Layer0
10
0.39045227278543126
20
0.7730477272146599
30
0.03200000000000025
11
0.3804403995617632
21
0.7599999999999099
31
0.03200000000000003
  0
LINE
 8
Layer0
10
0.40350000000018926
20
0.7830596004383243
30
0.0320000000000038
11
0.39045227278543126
21
0.7730477272146599
31
0.03200000000000025
  0
LINE
 8
Layer0
10
0.4186944001587313
20
0.7893533270561119
30
0.0320000000000038
11
0.40350000000018926
21
0.7830596004383243
31
0.0320000000000038
  0
LINE
 8
Layer0
10
0.4513055998416497
20
0.7893533270561048
30
0.03200000000000358
11
0.4350000000001904
21
0.7914999999998968
31
0.03200000000000369
  0
LINE
 8
Layer0
10
0.4795477272149389
20
0.7730477272146385
30
0.032000000000007245
11
0.46650000000018804
21
0.7830596004383092
31
0.032000000000007356
  0
LINE
 8
Layer0
10
0.4980000000001751
20
0.7284999999998812
30
0.032000000000007245
11
0.49585332705639096
21
0.7448055998413412
31
0.032000000000007356
  0
LINE
 8
Layer0
10
0.49585332705638396
20
0.712194400158423
30
0.032000000000007134
11
0.4980000000001751
21
0.7284999999998812
31
0.032000000000007245
  0
LINE
 8
Layer0
10
0.48955960043858915
20
0.6969999999998835
30
0.032000000000007245
11
0.49585332705638396
21
0.712194400158423
31
0.032000000000007134
  0
LINE
 8
Layer0
10
0.47954772721491756
20
0.6839522727851326
30
0.03200000000000747
11
0.48955960043858915
21
0.6969999999998835
31
0.032000000000007245
  0
LINE
 8
Layer0
10
0.4665000000001631
20
0.673940399561469
30
0.03200000000000369
11
0.47954772721491756
21
0.6839522727851326
31
0.03200000000000747
  0
LINE
 8
Layer0
10
0.43500000000016215
20
0.6654999999998956
30
0.03200000000000369
11
0.4513055998416213
21
0.6676466729436805
31
0.0320000000000038
  0
LINE
 8
Layer0
10
0.41869440015870285
20
0.6676466729436885
30
0.03200000000000358
11
0.43500000000016215
21
0.6654999999998956
31
0.03200000000000369
  0
LINE
 8
Layer0
10
0.380440399561749
20
0.6969999999999092
30
0.03200000000000014
11
0.39045227278541356
21
0.6839522727851539
31
0.03200000000000003
  0
LINE
 8
Layer0
10
0.37414667294395787
20
0.7121944001584523
30
0.03200000000000003
11
0.380440399561749
21
0.6969999999999092
31
0.03200000000000014
  0
LINE
 8
Layer0
10
0.4895596004384576
20
0.1459999999998836
30
0.032000000000007245
11
0.49585332705625246
21
0.16119440015842296
31
0.032000000000007245
  0
LINE
 8
Layer0
10
0.4665000000000317
20
0.12294039956146913
30
0.03200000000000369
11
0.479547727214786
21
0.13295227278513272
31
0.03200000000000747
  0
LINE
 8
Layer0
10
0.45130559984148994
20
0.11664667294368064
30
0.03200000000000358
11
0.4665000000000317
21
0.12294039956146913
31
0.03200000000000369
  0
LINE
 8
Layer0
10
0.4350000000000305
20
0.11449999999989574
30
0.0320000000000038
11
0.45130559984148994
21
0.11664667294368064
31
0.03200000000000358
  0
LINE
 8
Layer0
10
0.37200000000004246
20
0.17749999999991145
30
0.03200000000000369
11
0.3741466729438263
21
0.16119440015845227
31
0.03200000000000025
  0
LINE
 8
Layer0
10
0.37414667294383697
20
0.19380559984136975
30
0.03200000000000014
11
0.37200000000004246
21
0.17749999999991145
31
0.03200000000000369
  0
LINE
 8
Layer0
10
0.4035000000000578
20
0.23205960043832446
30
0.03200000000000358
11
0.39045227278530337
21
0.22204772721465998
31
0.03200000000000025
  0
LINE
 8
Layer0
10
0.4350000000000588
20
0.24049999999989696
30
0.03200000000000369
11
0.4186944001585998
21
0.23835332705611206
31
0.0320000000000038
  0
LINE
 8
Layer0
10
0.45130559984151813
20
0.23835332705610496
30
0.03200000000000369
11
0.4350000000000588
21
0.24049999999989696
31
0.03200000000000369
  0
LINE
 8
Layer0
10
0.4795477272148077
20
0.22204772721463867
30
0.03200000000000702
11
0.4665000000000566
21
0.23205960043830937
31
0.032000000000007245
  0
LINE
 8
Layer0
10
0.4895596004384719
20
0.20899999999988422
30
0.032000000000007245
11
0.4795477272148077
21
0.22204772721463867
31
0.03200000000000702
  0
LINE
 8
Layer0
10
0.4958533270562596
20
0.19380559984134133
30
0.032000000000007356
11
0.4895596004384719
21
0.20899999999988422
31
0.032000000000007245
  0
LINE
 8
Layer0
10
0.3741466729438371
20
0.19380559984137063
30
1.1102230246251565e-16
11
0.37200000000004574
21
0.17749999999991145
31
3.552713678800501e-15
  0
LINE
 8
Layer0
10
0.37200000000004574
20
0.17749999999991145
30
3.552713678800501e-15
11
0.37200000000004246
21
0.17749999999991145
31
0.03200000000000369
  0
LINE
 8
Layer0
10
0.0
20
0.9059999999998689
30
0.0
11
-1.1102230246251565e-16
21
0.9059999999998689
31
0.03200000000000025
  0
LINE
 8
Layer0
10
0.4513055998416496
20
0.7893533270561048
30
3.6637359812630166e-15
11
0.4350000000001903
21
0.7914999999998977
31
3.552713678800501e-15
  0
LINE
 8
Layer0
10
0.4513055998416496
20
0.7893533270561048
30
3.6637359812630166e-15
11
0.4513055998416497
21
0.7893533270561048
31
0.03200000000000358
  0
LINE
 8
Layer0
10
0.4350000000001903
20
0.7914999999998977
30
3.552713678800501e-15
11
0.4350000000001904
21
0.7914999999998968
31
0.03200000000000369
  0
LINE
 8
Layer0
10
0.3741466729439684
20
0.7448055998413705
30
1.1102230246251565e-16
11
0.3720000000001773
21
0.7284999999999114
31
3.6637359812630166e-15
  0
LINE
 8
Layer0
10
0.38044039956176323
20
0.7599999999999099
30
2.220446049250313e-16
11
0.3741466729439684
21
0.7448055998413705
31
1.1102230246251565e-16
  0
LINE
 8
Layer0
10
0.3741466729439684
20
0.7448055998413705
30
1.1102230246251565e-16
11
0.3741466729439684
21
0.7448055998413696
31
0.03200000000000036
  0
LINE
 8
Layer0
10
0.4795477272149213
20
0.6839522727851335
30
7.105427357601002e-15
11
0.47954772721491756
21
0.6839522727851326
31
0.03200000000000747
  0
LINE
 8
Layer0
10
0.4350000000001903
20
0.7914999999998977
30
3.552713678800501e-15
11
0.41869440015873116
21
0.7893533270561119
31
3.6637359812630166e-15
  0
LINE
 8
Layer0
10
0.45130559984148977
20
0.11664667294368064
30
3.552713678800501e-15
11
0.45130559984148994
21
0.11664667294368064
31
0.03200000000000358
  0
LINE
 8
Layer0
10
0.3741466729439614
20
0.7121944001584523
30
1.1102230246251565e-16
11
0.3804403995617489
21
0.6969999999999092
31
3.3306690738754696e-16
  0
LINE
 8
Layer0
10
0.3804403995617489
20
0.6969999999999092
30
3.3306690738754696e-16
11
0.380440399561749
21
0.6969999999999092
31
0.03200000000000014
  0
LINE
 8
Layer0
10
0.49585332705626317
20
0.19380559984134133
30
7.105427357601002e-15
11
0.489559600438472
21
0.20899999999988422
31
7.105427357601002e-15
  0
LINE
 8
Layer0
10
0.0
20
0.9059999999998689
30
0.0
11
0.0
21
5.551115123125783e-17
31
0.0
  0
LINE
 8
Layer0
10
0.4958533270563838
20
0.7121944001584238
30
7.327471962526033e-15
11
0.49800000000017863
21
0.7284999999998812
31
7.105427357601002e-15
  0
LINE
 8
Layer0
10
0.49800000000017863
20
0.7284999999998812
30
7.105427357601002e-15
11
0.4958533270563946
21
0.7448055998413412
31
7.216449660063518e-15
  0
LINE
 8
Layer0
10
0.48955960043860325
20
0.7599999999998841
30
7.438494264988549e-15
11
0.4795477272149389
21
0.7730477272146385
31
7.216449660063518e-15
  0
LINE
 8
Layer0
10
0.4795477272149389
20
0.7730477272146385
30
7.216449660063518e-15
11
0.4665000000001916
21
0.7830596004383092
31
7.216449660063518e-15
  0
LINE
 8
Layer0
10
0.4665000000001916
20
0.7830596004383092
30
7.216449660063518e-15
11
0.4513055998416496
21
0.7893533270561048
31
3.6637359812630166e-15
  0
LINE
 8
Layer0
10
0.41869440015873116
20
0.7893533270561119
30
3.6637359812630166e-15
11
0.4035000000001891
21
0.7830596004383243
31
3.6637359812630166e-15
  0
LINE
 8
Layer0
10
0.4035000000001891
20
0.7830596004383243
30
3.6637359812630166e-15
11
0.39045227278543476
21
0.7730477272146599
31
2.220446049250313e-16
  0
LINE
 8
Layer0
10
0.39045227278543476
20
0.7730477272146599
30
2.220446049250313e-16
11
0.38044039956176323
21
0.7599999999999099
31
2.220446049250313e-16
  0
LINE
 8
Layer0
10
0.3804403995617489
20
0.6969999999999092
30
3.3306690738754696e-16
11
0.3904522727854135
21
0.6839522727851539
31
1.1102230246251565e-16
  0
LINE
 8
Layer0
10
0.3904522727854135
20
0.6839522727851539
30
1.1102230246251565e-16
11
0.40350000000016434
21
0.6739403995614841
31
2.220446049250313e-16
  0
LINE
 8
Layer0
10
0.40350000000016434
20
0.6739403995614841
30
2.220446049250313e-16
11
0.41869440015870263
21
0.6676466729436885
31
3.9968028886505635e-15
  0
LINE
 8
Layer0
10
0.41869440015870263
20
0.6676466729436885
30
3.9968028886505635e-15
11
0.43500000000016187
21
0.6654999999998965
31
3.6637359812630166e-15
  0
LINE
 8
Layer0
10
0.43500000000016187
20
0.6654999999998965
30
3.6637359812630166e-15
11
0.451305599841621
21
0.6676466729436805
31
3.774758283725532e-15
  0
LINE
 8
Layer0
10
0.451305599841621
20
0.6676466729436805
30
3.774758283725532e-15
11
0.466500000000163
21
0.673940399561469
31
3.774758283725532e-15
  0
LINE
 8
Layer0
10
0.466500000000163
20
0.673940399561469
30
3.774758283725532e-15
11
0.4795477272149213
21
0.6839522727851335
31
7.105427357601002e-15
  0
LINE
 8
Layer0
10
0.4795477272149213
20
0.6839522727851335
30
7.105427357601002e-15
11
0.4895596004385891
21
0.6969999999998835
31
7.438494264988549e-15
  0
LINE
 8
Layer0
10
0.4895596004385891
20
0.6969999999998835
30
7.438494264988549e-15
11
0.4958533270563838
21
0.7121944001584238
31
7.327471962526033e-15
  0
LINE
 8
Layer0
10
0.37200000000004574
20
0.17749999999991145
30
3.552713678800501e-15
11
0.37414667294382997
21
0.16119440015845227
31
2.220446049250313e-16
  0
LINE
 8
Layer0
10
0.4035000000000327
20
0.12294039956148423
30
2.220446049250313e-16
11
0.4186944001585713
21
0.11664667294368863
31
3.6637359812630166e-15
  0
LINE
 8
Layer0
10
0.4186944001585713
20
0.11664667294368863
30
3.6637359812630166e-15
11
0.4350000000000302
21
0.11449999999989663
31
3.774758283725532e-15
  0
LINE
 8
Layer0
10
0.4350000000000302
20
0.11449999999989663
30
3.774758283725532e-15
11
0.45130559984148977
21
0.11664667294368064
31
3.552713678800501e-15
  0
LINE
 8
Layer0
10
0.45130559984148977
20
0.11664667294368064
30
3.552713678800501e-15
11
0.4665000000000315
21
0.12294039956146913
31
3.774758283725532e-15
  0
LINE
 8
Layer0
10
0.47954772721478983
20
0.1329522727851336
30
7.216449660063518e-15
11
0.4895596004384576
21
0.1459999999998836
31
7.216449660063518e-15
  0
LINE
 8
Layer0
10
0.489559600438472
20
0.20899999999988422
30
7.105427357601002e-15
11
0.4795477272148074
21
0.22204772721463867
31
7.327471962526033e-15
  0
LINE
 8
Layer0
10
0.46650000000006003
20
0.23205960043830937
30
7.216449660063518e-15
11
0.4513055998415181
21
0.23835332705610496
31
3.774758283725532e-15
  0
LINE
 8
Layer0
10
0.4350000000000589
20
0.24049999999989785
30
3.552713678800501e-15
11
0.41869440015859954
21
0.23835332705611295
31
3.774758283725532e-15
  0
LINE
 8
Layer0
10
0.4186944001585713
20
0.11664667294368863
30
3.6637359812630166e-15
11
0.41869440015857157
21
0.11664667294368863
31
0.03200000000000358
  0
LINE
 8
Layer0
10
0.4795477272149389
20
0.7730477272146385
30
7.216449660063518e-15
11
0.4795477272149389
21
0.7730477272146385
31
0.032000000000007245
  0
LINE
 8
Layer0
10
0.4665000000000315
20
0.12294039956146913
30
3.774758283725532e-15
11
0.4665000000000317
21
0.12294039956146913
31
0.03200000000000369
  0
LINE
 8
Layer0
10
0.4513055998415181
20
0.23835332705610496
30
3.774758283725532e-15
11
0.45130559984151813
21
0.23835332705610496
31
0.03200000000000369
  0
LINE
 8
Layer0
10
0.4350000000000589
20
0.24049999999989785
30
3.552713678800501e-15
11
0.4350000000000588
21
0.24049999999989696
31
0.03200000000000369
  0
LINE
 8
Layer0
10
0.4795477272148074
20
0.22204772721463867
30
7.327471962526033e-15
11
0.4795477272148077
21
0.22204772721463867
31
0.03200000000000702
  0
LINE
 8
Layer0
10
0.451305599841621
20
0.6676466729436805
30
3.774758283725532e-15
11
0.4513055998416213
21
0.6676466729436805
31
0.0320000000000038
  0
LINE
 8
Layer0
10
0.466500000000163
20
0.673940399561469
30
3.774758283725532e-15
11
0.4665000000001631
21
0.673940399561469
31
0.03200000000000369
  0
LINE
 8
Layer0
10
0.4958533270563838
20
0.7121944001584238
30
7.327471962526033e-15
11
0.49585332705638396
21
0.712194400158423
31
0.032000000000007134
  0
LINE
 8
Layer0
10
0.47954772721478983
20
0.1329522727851336
30
7.216449660063518e-15
11
0.479547727214786
21
0.13295227278513272
31
0.03200000000000747
  0
LINE
 8
Layer0
10
0.46650000000006003
20
0.23205960043830937
30
7.216449660063518e-15
11
0.4665000000000566
21
0.23205960043830937
31
0.032000000000007245
  0
LINE
 8
Layer0
10
0.49800000000017863
20
0.7284999999998812
30
7.105427357601002e-15
11
0.4980000000001751
21
0.7284999999998812
31
0.032000000000007245
  0
LINE
 8
Layer0
10
0.4895596004385891
20
0.6969999999998835
30
7.438494264988549e-15
11
0.48955960043858915
21
0.6969999999998835
31
0.032000000000007245
  0
LINE
 8
Layer0
10
0.4665000000001916
20
0.7830596004383092
30
7.216449660063518e-15
11
0.46650000000018804
21
0.7830596004383092
31
0.032000000000007356
  0
LINE
 8
Layer0
10
0.40350000000016434
20
0.6739403995614841
30
2.220446049250313e-16
11
0.40350000000016084
21
0.6739403995614841
31
0.03200000000000014
  0
LINE
 8
Layer0
10
0.41869440015870263
20
0.6676466729436885
30
3.9968028886505635e-15
11
0.41869440015870285
21
0.6676466729436885
31
0.03200000000000358
  0
LINE
 8
Layer0
10
0.4895596004384576
20
0.1459999999998836
30
7.216449660063518e-15
11
0.4895596004384576
21
0.1459999999998836
31
0.032000000000007245
  0
LINE
 8
Layer0
10
0.4035000000000327
20
0.12294039956148423
30
2.220446049250313e-16
11
0.40350000000002917
21
0.12294039956148423
31
0.03200000000000025
  0
LINE
 8
Layer0
10
0.4350000000000302
20
0.11449999999989663
30
3.774758283725532e-15
11
0.4350000000000305
21
0.11449999999989574
31
0.0320000000000038
  0
LINE
 8
Layer0
10
0.41869440015873116
20
0.7893533270561119
30
3.6637359812630166e-15
11
0.4186944001587313
21
0.7893533270561119
31
0.0320000000000038
  0
LINE
 8
Layer0
10
0.5510000000002185
20
5.551115123125783e-17
30
0.03200000000000003
11
0.5510000000002184
21
5.551115123125783e-17
31
0.0
  0
LINE
 8
Layer0
10
0.5510000000002184
20
0.9059999999998689
30
0.032000000000007356
11
0.5511941280180357
21
0.9059827741468662
31
-0.00019413980830274014
  0
LINE
 8
Layer0
10
0.5510000000002184
20
5.551115123125783e-17
30
0.0
11
0.5511941280180357
21
0.9059827741468662
31
-0.00019413980830274014
  0
LINE
 8
Layer0
10
0.5511941280180357
20
0.9059827741468662
30
-0.00019413980830274014
11
0.7388575136105047
21
0.905999999999868
31
1.6735821173341492e-08
  0
LINE
 8
Layer0
10
0.5511941280180357
20
0.9059827741468662
30
-0.00019413980830274014
11
0.0
21
0.9059999999998689
31
0.0
  0
LINE
 8
Layer0
10
0.995173096475122
20
0.2690584322912691
30
0.0003085196863756856
11
1.010757563080848
21
0.2314342036151416
31
0.0003085189913727415
  0
LINE
 8
Layer0
10
1.2238575271259802
20
0.17433424456119467
30
0.0003085179366113522
11
1.2561661845331316
21
0.19912555028327789
31
0.0003085183945608083
  0
LINE
 8
Layer0
10
1.5208575303463168
20
1.4445259488571338e-08
30
6.661338147750939e-16
11
1.520857513610504
21
0.9060000144451281
31
1.6735821395386097e-08
  0
LINE
 8
Layer0
10
1.520857513610504
20
0.9060000144451281
30
1.6735821395386097e-08
11
0.7388575136105047
21
0.905999999999868
31
1.6735821173341492e-08
  0
LINE
 8
Layer0
10
0.7388575303463174
20
-1.7208456881689926e-15
30
4.440892098500626e-16
11
0.7388575136105047
21
0.905999999999868
31
1.6735821173341492e-08
  0
LINE
 8
Layer0
10
0.7388575303463174
20
-1.7208456881689926e-15
30
4.440892098500626e-16
11
1.5208575303463168
21
1.4445259488571338e-08
31
6.661338147750939e-16
  0
LINE
 8
Layer0
10
1.3018575246303887
20
0.30943420899239876
30
0.0003085204322044177
11
1.2965419527856514
21
0.34980997993020174
31
0.0003085211780335939
  0
LINE
 8
Layer0
10
1.2965419542773107
20
0.2690584378582151
30
0.0003085196863756856
11
1.3018575246303887
21
0.30943420899239876
31
0.0003085204322044177
  0
LINE
 8
Layer0
10
1.2809574890615918
20
0.23143420860632863
30
0.0003085189913725195
11
1.2965419542773107
21
0.2690584378582151
31
0.0003085196863756856
  0
LINE
 8
Layer0
10
1.2561661845331316
20
0.19912555028327789
30
0.0003085183945608083
11
1.2809574890615918
21
0.23143420860632863
31
0.0003085189913725195
  0
LINE
 8
Layer0
10
1.1862332984498536
20
0.15874977795547013
30
0.0003085176487314101
11
1.2238575271259802
21
0.17433424456119467
31
0.0003085179366113522
  0
LINE
 8
Layer0
10
1.1458575275120506
20
0.15343420611073594
30
0.0003085175505419535
11
1.1862332984498536
21
0.15874977795547013
31
0.0003085176487314101
  0
LINE
 8
Layer0
10
1.1054817563778665
20
0.1587497764638111
30
0.0003085176487314101
11
1.1458575275120506
21
0.15343420611073594
31
0.0003085175505419535
  0
LINE
 8
Layer0
10
1.0678575271259814
20
0.174334241679532
30
0.0003085179366113522
11
1.1054817563778665
21
0.1587497764638111
31
0.0003085176487314101
  0
LINE
 8
Layer0
10
1.0355488688029295
20
0.19912554620799022
30
0.0003085183945612524
11
1.0678575271259814
21
0.174334241679532
31
0.0003085179366113522
  0
LINE
 8
Layer0
10
1.010757563080848
20
0.2314342036151416
30
0.0003085189913727415
11
1.0355488688029295
21
0.19912554620799022
31
0.0003085183945612524
  0
LINE
 8
Layer0
10
0.9898575246303882
20
0.30943420322907206
30
0.0003085204322048618
11
0.995173096475122
21
0.2690584322912691
31
0.0003085196863756856
  0
LINE
 8
Layer0
10
0.9951730949834634
20
0.3498099743632557
30
0.000308521178034038
11
0.9898575246303882
21
0.30943420322907206
31
0.0003085204322048618
  0
LINE
 8
Layer0
10
1.010757560199185
20
0.38743420361514175
30
0.00030852187303631595
11
0.9951730949834634
21
0.3498099743632557
31
0.000308521178034038
  0
LINE
 8
Layer0
10
1.0355488647276423
20
0.4197428619381938
30
0.0003085224698484712
11
1.010757560199185
21
0.38743420361514175
31
0.00030852187303631595
  0
LINE
 8
Layer0
10
1.067857522134794
20
0.4445341676602757
30
0.0003085229277981494
11
1.0355488647276423
21
0.4197428619381938
31
0.0003085224698484712
  0
LINE
 8
Layer0
10
1.105481750810921
20
0.46011863426600136
30
0.0003085232156776474
11
1.067857522134794
21
0.4445341676602757
31
0.0003085229277981494
  0
LINE
 8
Layer0
10
1.145857521748724
20
0.4654342061107352
30
0.00030852331386799214
11
1.105481750810921
21
0.46011863426600136
31
0.0003085232156776474
  0
LINE
 8
Layer0
10
1.1862332928829076
20
0.46011863575766015
30
0.00030852321567786944
11
1.145857521748724
21
0.4654342061107352
31
0.00030852331386799214
  0
LINE
 8
Layer0
10
1.2238575221347932
20
0.44453417054193906
30
0.0003085229277983714
11
1.1862332928829076
21
0.46011863575766015
31
0.00030852321567786944
  0
LINE
 8
Layer0
10
1.2561661804578443
20
0.4197428660134815
30
0.00030852246984824916
11
1.2238575221347932
21
0.44453417054193906
31
0.0003085229277983714
  0
LINE
 8
Layer0
10
1.2809574861799293
20
0.3874342086063292
30
0.00030852187303631595
11
1.2561661804578443
21
0.4197428660134815
31
0.00030852246984824916
  0
LINE
 8
Layer0
10
1.2965419527856514
20
0.34980997993020174
30
0.0003085211780335939
11
1.2809574861799293
21
0.3874342086063292
31
0.00030852187303631595
  0
LINE
 8
Layer0
10
1.5208575307355503
20
1.4445259932660548e-08
30
0.03200000000000047
11
1.5208575139997376
21
0.9060000144451281
31
0.0320000167358212
  0
LINE
 8
Layer0
10
1.5208575139997376
20
0.9060000144451281
30
0.0320000167358212
11
0.7388575139997378
21
0.9059999999998671
31
0.0320000167358212
  0
LINE
 8
Layer0
10
0.7388575307355509
20
-8.326672684688674e-16
30
0.03200000000000003
11
0.7388575139997378
21
0.9059999999998671
31
0.0320000167358212
  0
LINE
 8
Layer0
10
0.7388575307355509
20
-8.326672684688674e-16
30
0.03200000000000003
11
1.5208575307355503
21
1.4445259932660548e-08
31
0.03200000000000047
  0
LINE
 8
Layer0
10
1.3018575250196227
20
0.3094342089923992
30
0.03230852043220489
11
1.296541953174885
21
0.3498099799302022
31
0.03230852117803362
  0
LINE
 8
Layer0
10
1.2965419546665442
20
0.26905843785821554
30
0.03230851968637549
11
1.3018575250196227
21
0.3094342089923992
31
0.03230852043220489
  0
LINE
 8
Layer0
10
1.2809574894508258
20
0.23143420860632907
30
0.03230851899137299
11
1.2965419546665442
21
0.26905843785821554
31
0.03230851968637549
  0
LINE
 8
Layer0
10
1.256166184922365
20
0.19912555028327744
30
0.03230851839456106
11
1.2809574894508258
21
0.23143420860632907
31
0.03230851899137299
  0
LINE
 8
Layer0
10
1.2238575275152137
20
0.17433424456119512
30
0.03230851793661138
11
1.256166184922365
21
0.19912555028327744
31
0.03230851839456106
  0
LINE
 8
Layer0
10
1.1862332988390871
20
0.1587497779554699
30
0.03230851764873144
11
1.2238575275152137
21
0.17433424456119512
31
0.03230851793661138
  0
LINE
 8
Layer0
10
1.1458575279012841
20
0.15343420611073616
30
0.03230851755054154
11
1.1862332988390871
21
0.1587497779554699
31
0.03230851764873144
  0
LINE
 8
Layer0
10
1.1054817567671
20
0.15874977646381133
30
0.03230851764873188
11
1.1458575279012841
21
0.15343420611073616
31
0.03230851755054154
  0
LINE
 8
Layer0
10
1.067857527515215
20
0.1743342416795322
30
0.03230851793661116
11
1.1054817567671
21
0.15874977646381133
31
0.03230851764873188
  0
LINE
 8
Layer0
10
1.035548869192163
20
0.19912554620798978
30
0.03230851839456128
11
1.067857527515215
21
0.1743342416795322
31
0.03230851793661116
  0
LINE
 8
Layer0
10
1.0107575634700818
20
0.23143420361514205
30
0.03230851899137299
11
1.035548869192163
21
0.19912554620798978
31
0.03230851839456128
  0
LINE
 8
Layer0
10
0.995173096864356
20
0.2690584322912691
30
0.032308519686375714
11
1.0107575634700818
21
0.23143420361514205
31
0.03230851899137299
  0
LINE
 8
Layer0
10
0.9898575250196218
20
0.3094342032290725
30
0.03230852043220489
11
0.995173096864356
21
0.2690584322912691
31
0.032308519686375714
  0
LINE
 8
Layer0
10
0.9951730953726969
20
0.3498099743632553
30
0.032308521178034066
11
0.9898575250196218
21
0.3094342032290725
31
0.03230852043220489
  0
LINE
 8
Layer0
10
1.0107575605884185
20
0.38743420361514264
30
0.032308521873036566
11
0.9951730953726969
21
0.3498099743632553
31
0.032308521178034066
  0
LINE
 8
Layer0
10
1.0355488651168758
20
0.4197428619381934
30
0.03230852246984872
11
1.0107575605884185
21
0.38743420361514264
31
0.032308521873036566
  0
LINE
 8
Layer0
10
1.0678575225240279
20
0.4445341676602766
30
0.0323085229277984
11
1.0355488651168758
21
0.4197428619381934
31
0.03230852246984872
  0
LINE
 8
Layer0
10
1.1054817512001545
20
0.46011863426600136
30
0.032308523215677676
11
1.0678575225240279
21
0.4445341676602766
31
0.0323085229277984
  0
LINE
 8
Layer0
10
1.1458575221379574
20
0.4654342061107352
30
0.0323085233138678
11
1.1054817512001545
21
0.46011863426600136
31
0.032308523215677676
  0
LINE
 8
Layer0
10
1.186233293272141
20
0.4601186357576597
30
0.0323085232156779
11
1.1458575221379574
21
0.4654342061107352
31
0.0323085233138678
  0
LINE
 8
Layer0
10
1.2238575225240262
20
0.44453417054193906
30
0.0323085229277984
11
1.186233293272141
21
0.4601186357576597
31
0.0323085232156779
  0
LINE
 8
Layer0
10
1.2561661808470779
20
0.41974286601348104
30
0.0323085224698485
11
1.2238575225240262
21
0.44453417054193906
31
0.0323085229277984
  0
LINE
 8
Layer0
10
1.2809574865691629
20
0.38743420860632966
30
0.032308521873036344
11
1.2561661808470779
21
0.41974286601348104
31
0.0323085224698485
  0
LINE
 8
Layer0
10
1.296541953174885
20
0.3498099799302022
30
0.03230852117803362
11
1.2809574865691629
21
0.38743420860632966
31
0.032308521873036344
  0
LINE
 8
Layer0
10
1.520857513610504
20
0.9060000144451281
30
1.6735821395386097e-08
11
1.5208575139997376
21
0.9060000144451281
31
0.0320000167358212
  0
LINE
 8
Layer0
10
1.5208575303463168
20
1.4445259488571338e-08
30
6.661338147750939e-16
11
1.5208575307355503
21
1.4445259932660548e-08
31
0.03200000000000047
  0
LINE
 8
Layer0
10
0.7388575136105047
20
0.905999999999868
30
1.6735821173341492e-08
11
0.7388575139997378
21
0.9059999999998671
31
0.0320000167358212
  0
LINE
 8
Layer0
10
0.7388575303463174
20
-1.7208456881689926e-15
30
4.440892098500626e-16
11
0.7388575307355509
21
-8.326672684688674e-16
31
0.03200000000000003
  0
LINE
 8
Layer0
10
1.3018575246303887
20
0.30943420899239876
30
0.0003085204322044177
11
1.3018575250196227
21
0.3094342089923992
31
0.03230852043220489
  0
LINE
 8
Layer0
10
1.2965419527856514
20
0.34980997993020174
30
0.0003085211780335939
11
1.296541953174885
21
0.3498099799302022
31
0.03230852117803362
  0
LINE
 8
Layer0
10
1.2965419542773107
20
0.2690584378582151
30
0.0003085196863756856
11
1.2965419546665442
21
0.26905843785821554
31
0.03230851968637549
  0
LINE
 8
Layer0
10
1.2809574890615918
20
0.23143420860632863
30
0.0003085189913725195
11
1.2809574894508258
21
0.23143420860632907
31
0.03230851899137299
  0
LINE
 8
Layer0
10
1.2561661845331316
20
0.19912555028327789
30
0.0003085183945608083
11
1.256166184922365
21
0.19912555028327744
31
0.03230851839456106
  0
LINE
 8
Layer0
10
1.2238575271259802
20
0.17433424456119467
30
0.0003085179366113522
11
1.2238575275152137
21
0.17433424456119512
31
0.03230851793661138
  0
LINE
 8
Layer0
10
1.1862332984498536
20
0.15874977795547013
30
0.0003085176487314101
11
1.1862332988390871
21
0.1587497779554699
31
0.03230851764873144
  0
LINE
 8
Layer0
10
1.1458575275120506
20
0.15343420611073594
30
0.0003085175505419535
11
1.1458575279012841
21
0.15343420611073616
31
0.03230851755054154
  0
LINE
 8
Layer0
10
1.1054817563778665
20
0.1587497764638111
30
0.0003085176487314101
11
1.1054817567671
21
0.15874977646381133
31
0.03230851764873188
  0
LINE
 8
Layer0
10
1.0678575271259814
20
0.174334241679532
30
0.0003085179366113522
11
1.067857527515215
21
0.1743342416795322
31
0.03230851793661116
  0
LINE
 8
Layer0
10
1.0355488688029295
20
0.19912554620799022
30
0.0003085183945612524
11
1.035548869192163
21
0.19912554620798978
31
0.03230851839456128
  0
LINE
 8
Layer0
10
1.010757563080848
20
0.2314342036151416
30
0.0003085189913727415
11
1.0107575634700818
21
0.23143420361514205
31
0.03230851899137299
  0
LINE
 8
Layer0
10
0.995173096475122
20
0.2690584322912691
30
0.0003085196863756856
11
0.995173096864356
21
0.2690584322912691
31
0.032308519686375714
  0
LINE
 8
Layer0
10
0.9898575246303882
20
0.30943420322907206
30
0.0003085204322048618
11
0.9898575250196218
21
0.3094342032290725
31
0.03230852043220489
  0
LINE
 8
Layer0
10
0.9951730949834634
20
0.3498099743632557
30
0.000308521178034038
11
0.9951730953726969
21
0.3498099743632553
31
0.032308521178034066
  0
LINE
 8
Layer0
10
1.010757560199185
20
0.38743420361514175
30
0.00030852187303631595
11
1.0107575605884185
21
0.38743420361514264
31
0.032308521873036566
  0
LINE
 8
Layer0
10
1.0355488647276423
20
0.4197428619381938
30
0.0003085224698484712
11
1.0355488651168758
21
0.4197428619381934
31
0.03230852246984872
  0
LINE
 8
Layer0
10
1.067857522134794
20
0.4445341676602757
30
0.0003085229277981494
11
1.0678575225240279
21
0.4445341676602766
31
0.0323085229277984
  0
LINE
 8
Layer0
10
1.105481750810921
20
0.46011863426600136
30
0.0003085232156776474
11
1.1054817512001545
21
0.46011863426600136
31
0.032308523215677676
  0
LINE
 8
Layer0
10
1.145857521748724
20
0.4654342061107352
30
0.00030852331386799214
11
1.1458575221379574
21
0.4654342061107352
31
0.0323085233138678
  0
LINE
 8
Layer0
10
1.1862332928829076
20
0.46011863575766015
30
0.00030852321567786944
11
1.186233293272141
21
0.4601186357576597
31
0.0323085232156779
  0
LINE
 8
Layer0
10
1.2238575221347932
20
0.44453417054193906
30
0.0003085229277983714
11
1.2238575225240262
21
0.44453417054193906
31
0.0323085229277984
  0
LINE
 8
Layer0
10
1.2561661804578443
20
0.4197428660134815
30
0.00030852246984824916
11
1.2561661808470779
21
0.41974286601348104
31
0.0323085224698485
  0
LINE
 8
Layer0
10
1.2809574861799293
20
0.3874342086063292
30
0.00030852187303631595
11
1.2809574865691629
21
0.38743420860632966
31
0.032308521873036344
  0
LINE
 8
Layer0
10
0.5510000000002184
20
5.551115123125783e-17
30
0.0
11
0.7071660454518245
21
-0.00016128336299198187
31
0.0
  0
LINE
 8
Layer0
10
0.7071660454518245
20
-0.00016128336299198187
30
0.0
11
0.7388575303463174
21
-1.7208456881689926e-15
31
4.440892098500626e-16
 0
ENDSEC
 0
EOF
