999
dxfrw 0.5.10
0
SECTION
2
HEADER
9
$ACADVER
1
AC1021
9
$HANDSEED
5
20000
9
$DWGCODEPAGE
3
ANSI_1252
9
$INSBASE
10
0
20
0
30
0
9
$EXTMIN
10
-8.32667268469e-17
20
-0.065
30
0
9
$EXTMAX
10
3.02085753074
20
1.671
30
0
9
$LIMMIN
10
0
20
0
9
$LIMMAX
10
420
20
297
9
$ORTHOMODE
70
0
9
$LTSCALE
40
1
9
$TEXTSTYLE
7
STANDARD
9
$DIMASZ
40
0.1
9
$DIMSCALE
40
1
9
$DIMEXO
40
0.025
9
$DIMEXE
40
0.05
9
$DIMTXT
40
0.1
9
$DIMTSZ
40
0
9
$DIMAUNIT
70
0
9
$DIMADEC
70
0
9
$DIMLUNIT
70
2
9
$DIMSTYLE
2
Standard
9
$DIMGAP
40
0.025
9
$DIMTIH
70
0
9
$LUNITS
70
2
9
$LUPREC
70
4
9
$AUNITS
70
0
9
$AUPREC
70
2
9
$SPLINESEGS
70
8
9
$GRIDMODE
70
1
9
$SNAPSTYLE
70
0
9
$PINSBASE
10
0
20
0
30
0
9
$PLIMMIN
10
0
20
0
9
$PLIMMAX
10
7.82018442101e-07
20
1.10599751097e-06
9
$INSUNITS
70
1
9
$PSVPSCALE
40
1
0
ENDSEC
0
SECTION
2
CLASSES
0
ENDSEC
0
SECTION
2
TABLES
0
TABLE
2
VPORT
5
8
330
0
100
AcDbSymbolTable
70
1
0
VPORT
5
31
330
2
100
AcDbSymbolTableRecord
100
AcDbViewportTableRecord
2
*ACTIVE
70
0
10
0
20
0
11
1
21
1
12
1.7416264184
22
1.49181737657
13
0
23
0
14
10
24
10
15
10
25
10
16
0
26
0
36
1
17
0
27
0
37
0
40
5.20728706915
41
1.42972972973
42
50
43
0
44
0
50
0
51
0
71
0
72
100
73
1
74
3
75
0
76
1
77
0
78
0
281
0
65
1
110
0
120
0
130
0
111
1
121
0
131
0
112
0
122
1
132
0
79
0
146
0
348
10020
60
7
61
5
292
1
282
1
141
0
142
0
63
250
421
3358443
0
ENDTAB
0
TABLE
2
LTYPE
5
5
330
0
100
AcDbSymbolTable
70
4
0
LTYPE
5
14
330
5
100
AcDbSymbolTableRecord
100
AcDbLinetypeTableRecord
2
ByBlock
70
0
3

72
65
73
0
40
0
0
LTYPE
5
15
330
5
100
AcDbSymbolTableRecord
100
AcDbLinetypeTableRecord
2
ByLayer
70
0
3

72
65
73
0
40
0
0
LTYPE
5
16
330
5
100
AcDbSymbolTableRecord
100
AcDbLinetypeTableRecord
2
Continuous
70
0
3
Solid line
72
65
73
0
40
0
0
LTYPE
5
32
330
5
100
AcDbSymbolTableRecord
100
AcDbLinetypeTableRecord
2
DOT
70
0
3
Dot . . . . . . . . . . . . . . . . . . . . . .
72
65
73
2
40
6.35
49
0
74
0
49
-6.35
74
0
0
LTYPE
5
33
330
5
100
AcDbSymbolTableRecord
100
AcDbLinetypeTableRecord
2
DOT2
70
0
3
Dot (.5x) .....................................
72
65
73
2
40
3.175
49
0
74
0
49
-3.175
74
0
0
LTYPE
5
34
330
5
100
AcDbSymbolTableRecord
100
AcDbLinetypeTableRecord
2
DOTX2
70
0
3
Dot (2x) .  .  .  .  .  .  .  .  .  .  .  .  .
72
65
73
2
40
12.7
49
0
74
0
49
-12.7
74
0
0
LTYPE
5
35
330
5
100
AcDbSymbolTableRecord
100
AcDbLinetypeTableRecord
2
DASHED
70
0
3
Dot . . . . . . . . . . . . . . . . . . . . . .
72
65
73
2
40
19.05
49
12.7
74
0
49
-6.35
74
0
0
LTYPE
5
36
330
5
100
AcDbSymbolTableRecord
100
AcDbLinetypeTableRecord
2
DASHED2
70
0
3
Dashed (.5x) _ _ _ _ _ _ _ _ _ _ _ _ _ _ _ _ _
72
65
73
2
40
9.525
49
6.35
74
0
49
-3.175
74
0
0
LTYPE
5
37
330
5
100
AcDbSymbolTableRecord
100
AcDbLinetypeTableRecord
2
DASHEDX2
70
0
3
Dashed (2x) ____  ____  ____  ____  ____  ___
72
65
73
2
40
38.1
49
25.4
74
0
49
-12.7
74
0
0
LTYPE
5
38
330
5
100
AcDbSymbolTableRecord
100
AcDbLinetypeTableRecord
2
DASHDOT
70
0
3
Dash dot __ . __ . __ . __ . __ . __ . __ . __
72
65
73
4
40
25.4
49
12.7
74
0
49
-6.35
74
0
49
0
74
0
49
-6.35
74
0
0
LTYPE
5
39
330
5
100
AcDbSymbolTableRecord
100
AcDbLinetypeTableRecord
2
DASHDOT2
70
0
3
Dash dot (.5x) _._._._._._._._._._._._._._._.
72
65
73
4
40
12.7
49
6.35
74
0
49
-3.175
74
0
49
0
74
0
49
-3.175
74
0
0
LTYPE
5
3A
330
5
100
AcDbSymbolTableRecord
100
AcDbLinetypeTableRecord
2
DASHDOTX2
70
0
3
Dash dot (2x) ____  .  ____  .  ____  .  ___
72
65
73
4
40
50.8
49
25.4
74
0
49
-12.7
74
0
49
0
74
0
49
-12.7
74
0
0
LTYPE
5
3B
330
5
100
AcDbSymbolTableRecord
100
AcDbLinetypeTableRecord
2
DIVIDE
70
0
3
Divide ____ . . ____ . . ____ . . ____ . . ____
72
65
73
6
40
31.75
49
12.7
74
0
49
-6.35
74
0
49
0
74
0
49
-6.35
74
0
49
0
74
0
49
-6.35
74
0
0
LTYPE
5
3C
330
5
100
AcDbSymbolTableRecord
100
AcDbLinetypeTableRecord
2
DIVIDE2
70
0
3
Divide (.5x) __..__..__..__..__..__..__..__.._
72
65
73
6
40
15.875
49
6.35
74
0
49
-3.175
74
0
49
0
74
0
49
-3.175
74
0
49
0
74
0
49
-3.175
74
0
0
LTYPE
5
3D
330
5
100
AcDbSymbolTableRecord
100
AcDbLinetypeTableRecord
2
DIVIDEX2
70
0
3
Divide (2x) ________  .  .  ________  .  .  _
72
65
73
6
40
63.5
49
25.4
74
0
49
-12.7
74
0
49
0
74
0
49
-12.7
74
0
49
0
74
0
49
-12.7
74
0
0
LTYPE
5
3E
330
5
100
AcDbSymbolTableRecord
100
AcDbLinetypeTableRecord
2
BORDER
70
0
3
Border __ __ . __ __ . __ __ . __ __ . __ __ .
72
65
73
6
40
44.45
49
12.7
74
0
49
-6.35
74
0
49
12.7
74
0
49
-6.35
74
0
49
0
74
0
49
-6.35
74
0
0
LTYPE
5
3F
330
5
100
AcDbSymbolTableRecord
100
AcDbLinetypeTableRecord
2
BORDER2
70
0
3
Border (.5x) __.__.__.__.__.__.__.__.__.__.__.
72
65
73
6
40
22.225
49
6.35
74
0
49
-3.175
74
0
49
6.35
74
0
49
-3.175
74
0
49
0
74
0
49
-3.175
74
0
0
LTYPE
5
40
330
5
100
AcDbSymbolTableRecord
100
AcDbLinetypeTableRecord
2
BORDERX2
70
0
3
Border (2x) ____  ____  .  ____  ____  .  ___
72
65
73
6
40
88.9
49
25.4
74
0
49
-12.7
74
0
49
25.4
74
0
49
-12.7
74
0
49
0
74
0
49
-12.7
74
0
0
LTYPE
5
41
330
5
100
AcDbSymbolTableRecord
100
AcDbLinetypeTableRecord
2
CENTER
70
0
3
Center ____ _ ____ _ ____ _ ____ _ ____ _ ____
72
65
73
4
40
50.8
49
31.75
74
0
49
-6.35
74
0
49
6.35
74
0
49
-6.35
74
0
0
LTYPE
5
42
330
5
100
AcDbSymbolTableRecord
100
AcDbLinetypeTableRecord
2
CENTER2
70
0
3
Center (.5x) ___ _ ___ _ ___ _ ___ _ ___ _ ___
72
65
73
4
40
28.575
49
19.05
74
0
49
-3.175
74
0
49
3.175
74
0
49
-3.175
74
0
0
LTYPE
5
43
330
5
100
AcDbSymbolTableRecord
100
AcDbLinetypeTableRecord
2
CENTERX2
70
0
3
Center (2x) ________  __  ________  __  _____
72
65
73
4
40
101.6
49
63.5
74
0
49
-12.7
74
0
49
12.7
74
0
49
-12.7
74
0
0
ENDTAB
0
TABLE
2
LAYER
5
2
330
0
100
AcDbSymbolTable
70
1
0
LAYER
5
10
330
2
100
AcDbSymbolTableRecord
100
AcDbLayerTableRecord
2
0
70
0
62
7
6
CONTINUOUS
370
0
390
F
0
LAYER
5
44
330
2
100
AcDbSymbolTableRecord
100
AcDbLayerTableRecord
2
endstop_bracket_x
70
1
62
7
6
CONTINUOUS
370
-3
390
F
0
LAYER
5
45
330
2
100
AcDbSymbolTableRecord
100
AcDbLayerTableRecord
2
bend
70
0
62
7
6
CONTINUOUS
370
0
390
F
0
LAYER
5
46
330
2
100
AcDbSymbolTableRecord
100
AcDbLayerTableRecord
2
cutout
70
0
62
7
6
CONTINUOUS
370
0
390
F
0
LAYER
5
47
330
2
100
AcDbSymbolTableRecord
100
AcDbLayerTableRecord
2
drill
70
0
62
7
6
CONTINUOUS
370
0
390
F
0
LAYER
5
48
330
2
100
AcDbSymbolTableRecord
100
AcDbLayerTableRecord
2
Layer0
70
1
62
7
6
CONTINUOUS
370
-3
390
F
0
ENDTAB
0
TABLE
2
STYLE
5
3
330
0
100
AcDbSymbolTable
70
3
0
STYLE
5
49
330
2
100
AcDbSymbolTableRecord
100
AcDbTextStyleTableRecord
2
Standard
70
0
40
0
41
1
50
0
71
0
42
1
3
txt
4

0
ENDTAB
0
TABLE
2
VIEW
5
6
330
0
100
AcDbSymbolTable
70
0
0
ENDTAB
0
TABLE
2
UCS
5
7
330
0
100
AcDbSymbolTable
70
0
0
ENDTAB
0
TABLE
2
APPID
5
9
330
0
100
AcDbSymbolTable
70
1
0
APPID
5
12
330
9
100
AcDbSymbolTableRecord
100
AcDbRegAppTableRecord
2
ACAD
70
0
0
ENDTAB
0
TABLE
2
DIMSTYLE
5
A
330
0
100
AcDbSymbolTable
70
1
100
AcDbDimStyleTable
71
1
0
DIMSTYLE
105
4A
330
A
100
AcDbSymbolTableRecord
100
AcDbDimStyleTableRecord
2
Standard
70
0
40
1
41
0.1
42
0.025
43
0.38
44
0.05
45
0
46
0
47
0
48
0
140
0.1
141
0.09
142
0
143
25.4
144
1
145
0
146
1
147
0.025
148
0
71
0
72
0
73
0
74
1
75
0
76
0
77
0
78
0
79
0
170
0
171
2
172
0
173
0
174
0
175
0
176
0
177
0
178
0
179
0
271
4
272
4
273
2
274
2
275
0
276
0
277
2
278
46
279
0
280
0
281
0
282
0
283
1
284
0
285
0
286
0
288
0
289
3
340
Standard
341

371
-2
372
-2
0
ENDTAB
0
TABLE
2
BLOCK_RECORD
5
1
330
0
100
AcDbSymbolTable
70
2
0
BLOCK_RECORD
5
1F
330
1
100
AcDbSymbolTableRecord
100
AcDbBlockTableRecord
2
*Model_Space
70
0
280
1
281
0
0
BLOCK_RECORD
5
1E
330
1
100
AcDbSymbolTableRecord
100
AcDbBlockTableRecord
2
*Paper_Space
70
0
280
1
281
0
0
ENDTAB
0
ENDSEC
0
SECTION
2
BLOCKS
0
BLOCK
5
20
330
1F
100
AcDbEntity
8
0
100
AcDbBlockBegin
2
*Model_Space
70
0
10
0
20
0
30
0
3
*Model_Space
1

0
ENDBLK
5
21
330
1F
100
AcDbEntity
8
0
100
AcDbBlockEnd
0
BLOCK
5
1C
330
1B
100
AcDbEntity
8
0
100
AcDbBlockBegin
2
*Paper_Space
70
0
10
0
20
0
30
0
3
*Paper_Space
1

0
ENDBLK
5
1D
330
1F
100
AcDbEntity
8
0
100
AcDbBlockEnd
0
ENDSEC
0
SECTION
2
ENTITIES
0
LINE
5
4B
100
AcDbEntity
8
endstop_bracket_x
6
ByLayer
62
256
370
-1
100
AcDbLine
10
0
20
0.551
11
2.84217094304e-14
21
0
0
LINE
5
4C
100
AcDbEntity
8
endstop_bracket_x
6
ByLayer
62
256
370
-1
100
AcDbLine
10
0.789353327056
20
0.451305599842
11
0.789353327056
21
0.451305599842
0
LINE
5
4D
100
AcDbEntity
8
endstop_bracket_x
6
ByLayer
62
256
370
-1
100
AcDbLine
10
0.122940399562
20
0.4665
11
0.122940399562
21
0.4665
0
LINE
5
4E
100
AcDbEntity
8
endstop_bracket_x
6
ByLayer
62
256
370
-1
100
AcDbLine
10
1.46315018733
20
0.205922133983
11
1.47878339269
21
0.226313029391
0
LINE
5
4F
100
AcDbEntity
8
endstop_bracket_x
6
ByLayer
62
256
370
-1
100
AcDbLine
10
0.783059600438
20
0.4035
11
0.783059600438
21
0.4035
0
LINE
5
50
100
AcDbEntity
8
endstop_bracket_x
6
ByLayer
62
256
370
-1
100
AcDbLine
10
1.442772118
20
0.190272212431
11
1.442772118
21
0.190259090681
0
LINE
5
51
100
AcDbEntity
8
endstop_bracket_x
6
ByLayer
62
256
370
-1
100
AcDbLine
10
0.683952272785
20
0.390452272785
11
0.697
21
0.380440399562
0
LINE
5
52
100
AcDbEntity
8
endstop_bracket_x
6
ByLayer
62
256
370
-1
100
AcDbLine
10
0.783059600438
20
0.4035
11
0.789353327056
21
0.418694400159
0
LINE
5
53
100
AcDbEntity
8
endstop_bracket_x
6
ByLayer
62
256
370
-1
100
AcDbLine
10
0.744805599841
20
0.495853327056
11
0.7285
21
0.498
0
LINE
5
54
100
AcDbEntity
8
endstop_bracket_x
6
ByLayer
62
256
370
-1
100
AcDbLine
10
0.122940399562
20
0.4665
11
0.116646672944
21
0.451305599841
0
LINE
5
55
100
AcDbEntity
8
endstop_bracket_x
6
ByLayer
62
256
370
-1
100
AcDbLine
10
1.2275966891
20
0.551013029103
11
0
21
0.551
0
LINE
5
56
100
AcDbEntity
8
endstop_bracket_x
6
ByLayer
62
256
370
-1
100
AcDbLine
10
0.238353327056
20
0.418694400159
11
0.2405
21
0.435
0
LINE
5
57
100
AcDbEntity
8
endstop_bracket_x
6
ByLayer
62
256
370
-1
100
AcDbLine
10
0.222047727215
20
0.390452272785
11
0.232059600438
21
0.4035
0
LINE
5
58
100
AcDbEntity
8
endstop_bracket_x
6
ByLayer
62
256
370
-1
100
AcDbLine
10
0.116646672944
20
0.451305599841
11
0.1145
21
0.435
0
LINE
5
59
100
AcDbEntity
8
endstop_bracket_x
6
ByLayer
62
256
370
-1
100
AcDbLine
10
0.161194400159
20
0.374146672944
11
0.1775
21
0.372
0
LINE
5
5A
100
AcDbEntity
8
endstop_bracket_x
6
ByLayer
62
256
370
-1
100
AcDbLine
10
0.697
20
0.380440399562
11
0.712194400159
21
0.374146672944
0
LINE
5
5B
100
AcDbEntity
8
endstop_bracket_x
6
ByLayer
62
256
370
-1
100
AcDbLine
10
0.232059600438
20
0.4035
11
0.238353327056
21
0.418694400159
0
LINE
5
5C
100
AcDbEntity
8
endstop_bracket_x
6
ByLayer
62
256
370
-1
100
AcDbLine
10
0.712194400159
20
0.374146672944
11
0.7285
21
0.372
0
LINE
5
5D
100
AcDbEntity
8
endstop_bracket_x
6
ByLayer
62
256
370
-1
100
AcDbLine
10
0.1775
20
0.372
11
0.193805599841
21
0.374146672944
0
LINE
5
5E
100
AcDbEntity
8
endstop_bracket_x
6
ByLayer
62
256
370
-1
100
AcDbLine
10
0.667646672944
20
0.451305599841
11
0.6655
21
0.435
0
LINE
5
5F
100
AcDbEntity
8
endstop_bracket_x
6
ByLayer
62
256
370
-1
100
AcDbLine
10
0.7915
20
0.435
11
0.789353327056
21
0.451305599842
0
LINE
5
60
100
AcDbEntity
8
endstop_bracket_x
6
ByLayer
62
256
370
-1
100
AcDbLine
10
0.132952272785
20
0.479547727215
11
0.122940399562
21
0.4665
0
LINE
5
61
100
AcDbEntity
8
endstop_bracket_x
6
ByLayer
62
256
370
-1
100
AcDbLine
10
0.667646672944
20
0.451305599841
11
0.6655
21
0.435
0
LINE
5
62
100
AcDbEntity
8
endstop_bracket_x
6
ByLayer
62
256
370
-1
100
AcDbLine
10
0.2405
20
0.435
11
0.238353327056
21
0.451305599841
0
LINE
5
63
100
AcDbEntity
8
endstop_bracket_x
6
ByLayer
62
256
370
-1
100
AcDbLine
10
0.76
20
0.489559600438
11
0.744805599841
21
0.495853327056
0
LINE
5
64
100
AcDbEntity
8
endstop_bracket_x
6
ByLayer
62
256
370
-1
100
AcDbLine
10
1.32395622915
20
0.205865056847
11
1.34434712627
21
0.190231852801
0
LINE
5
65
100
AcDbEntity
8
endstop_bracket_x
6
ByLayer
62
256
370
-1
100
AcDbLine
10
1.48860635697
20
0.250042171079
11
1.49194966139
21
0.275517806531
0
LINE
5
66
100
AcDbEntity
8
endstop_bracket_x
6
ByLayer
62
256
370
-1
100
AcDbLine
10
0.697
20
0.380440399562
11
0.712194400159
21
0.374146672944
0
LINE
5
67
100
AcDbEntity
8
endstop_bracket_x
6
ByLayer
62
256
370
-1
100
AcDbLine
10
0.712194400159
20
0.374146672944
11
0.712194400159
21
0.374146672944
0
LINE
5
68
100
AcDbEntity
8
endstop_bracket_x
6
ByLayer
62
256
370
-1
100
AcDbLine
10
0.697
20
0.380440399562
11
0.697
21
0.380440399562
0
LINE
5
69
100
AcDbEntity
8
endstop_bracket_x
6
ByLayer
62
256
370
-1
100
AcDbLine
10
0.683952272785
20
0.390452272785
11
0.697
21
0.380440399562
0
LINE
5
6A
100
AcDbEntity
8
endstop_bracket_x
6
ByLayer
62
256
370
-1
100
AcDbLine
10
0.683952272785
20
0.390452272785
11
0.683952272785
21
0.390452272785
0
LINE
5
6B
100
AcDbEntity
8
endstop_bracket_x
6
ByLayer
62
256
370
-1
100
AcDbLine
10
0.673940399562
20
0.4035
11
0.683952272785
21
0.390452272785
0
LINE
5
6C
100
AcDbEntity
8
endstop_bracket_x
6
ByLayer
62
256
370
-1
100
AcDbLine
10
0.673940399562
20
0.4035
11
0.683952272785
21
0.390452272785
0
LINE
5
6D
100
AcDbEntity
8
endstop_bracket_x
6
ByLayer
62
256
370
-1
100
AcDbLine
10
0.673940399562
20
0.4035
11
0.673940399562
21
0.4035
0
LINE
5
6E
100
AcDbEntity
8
endstop_bracket_x
6
ByLayer
62
256
370
-1
100
AcDbLine
10
0.667646672944
20
0.418694400159
11
0.673940399562
21
0.4035
0
LINE
5
6F
100
AcDbEntity
8
endstop_bracket_x
6
ByLayer
62
256
370
-1
100
AcDbLine
10
0.667646672944
20
0.418694400159
11
0.673940399562
21
0.4035
0
LINE
5
70
100
AcDbEntity
8
endstop_bracket_x
6
ByLayer
62
256
370
-1
100
AcDbLine
10
0.667646672944
20
0.418694400159
11
0.667646672944
21
0.418694400159
0
LINE
5
71
100
AcDbEntity
8
endstop_bracket_x
6
ByLayer
62
256
370
-1
100
AcDbLine
10
0.6655
20
0.435
11
0.667646672944
21
0.418694400159
0
LINE
5
72
100
AcDbEntity
8
endstop_bracket_x
6
ByLayer
62
256
370
-1
100
AcDbLine
10
0.6655
20
0.435
11
0.667646672944
21
0.418694400159
0
LINE
5
73
100
AcDbEntity
8
endstop_bracket_x
6
ByLayer
62
256
370
-1
100
AcDbLine
10
0.6655
20
0.435
11
0.6655
21
0.435
0
LINE
5
74
100
AcDbEntity
8
endstop_bracket_x
6
ByLayer
62
256
370
-1
100
AcDbLine
10
0.667646672944
20
0.451305599841
11
0.667646672944
21
0.451305599841
0
LINE
5
75
100
AcDbEntity
8
endstop_bracket_x
6
ByLayer
62
256
370
-1
100
AcDbLine
10
0.673940399562
20
0.4665
11
0.667646672944
21
0.451305599841
0
LINE
5
76
100
AcDbEntity
8
endstop_bracket_x
6
ByLayer
62
256
370
-1
100
AcDbLine
10
0.673940399562
20
0.4665
11
0.667646672944
21
0.451305599841
0
LINE
5
77
100
AcDbEntity
8
endstop_bracket_x
6
ByLayer
62
256
370
-1
100
AcDbLine
10
0.673940399562
20
0.4665
11
0.673940399562
21
0.4665
0
LINE
5
78
100
AcDbEntity
8
endstop_bracket_x
6
ByLayer
62
256
370
-1
100
AcDbLine
10
0.683952272785
20
0.479547727215
11
0.673940399562
21
0.4665
0
LINE
5
79
100
AcDbEntity
8
endstop_bracket_x
6
ByLayer
62
256
370
-1
100
AcDbLine
10
0.683952272785
20
0.479547727215
11
0.673940399562
21
0.4665
0
LINE
5
7A
100
AcDbEntity
8
endstop_bracket_x
6
ByLayer
62
256
370
-1
100
AcDbLine
10
0.683952272785
20
0.479547727215
11
0.683952272785
21
0.479547727215
0
LINE
5
7B
100
AcDbEntity
8
endstop_bracket_x
6
ByLayer
62
256
370
-1
100
AcDbLine
10
0.697
20
0.489559600438
11
0.683952272785
21
0.479547727215
0
LINE
5
7C
100
AcDbEntity
8
endstop_bracket_x
6
ByLayer
62
256
370
-1
100
AcDbLine
10
0.697
20
0.489559600438
11
0.683952272785
21
0.479547727215
0
LINE
5
7D
100
AcDbEntity
8
endstop_bracket_x
6
ByLayer
62
256
370
-1
100
AcDbLine
10
0.697
20
0.489559600438
11
0.697
21
0.489559600438
0
LINE
5
7E
100
AcDbEntity
8
endstop_bracket_x
6
ByLayer
62
256
370
-1
100
AcDbLine
10
0.712194400159
20
0.495853327056
11
0.697
21
0.489559600438
0
LINE
5
7F
100
AcDbEntity
8
endstop_bracket_x
6
ByLayer
62
256
370
-1
100
AcDbLine
10
0.712194400159
20
0.495853327056
11
0.697
21
0.489559600438
0
LINE
5
80
100
AcDbEntity
8
endstop_bracket_x
6
ByLayer
62
256
370
-1
100
AcDbLine
10
0.712194400159
20
0.495853327056
11
0.712194400159
21
0.495853327056
0
LINE
5
81
100
AcDbEntity
8
endstop_bracket_x
6
ByLayer
62
256
370
-1
100
AcDbLine
10
0.7285
20
0.498
11
0.712194400159
21
0.495853327056
0
LINE
5
82
100
AcDbEntity
8
endstop_bracket_x
6
ByLayer
62
256
370
-1
100
AcDbLine
10
0.7285
20
0.498
11
0.712194400159
21
0.495853327056
0
LINE
5
83
100
AcDbEntity
8
endstop_bracket_x
6
ByLayer
62
256
370
-1
100
AcDbLine
10
0.7285
20
0.498
11
0.7285
21
0.498
0
LINE
5
84
100
AcDbEntity
8
endstop_bracket_x
6
ByLayer
62
256
370
-1
100
AcDbLine
10
0.744805599841
20
0.495853327056
11
0.7285
21
0.498
0
LINE
5
85
100
AcDbEntity
8
endstop_bracket_x
6
ByLayer
62
256
370
-1
100
AcDbLine
10
0.744805599841
20
0.495853327056
11
0.744805599841
21
0.495853327056
0
LINE
5
86
100
AcDbEntity
8
endstop_bracket_x
6
ByLayer
62
256
370
-1
100
AcDbLine
10
0.76
20
0.489559600438
11
0.744805599841
21
0.495853327056
0
LINE
5
87
100
AcDbEntity
8
endstop_bracket_x
6
ByLayer
62
256
370
-1
100
AcDbLine
10
0.76
20
0.489559600438
11
0.76
21
0.489559600438
0
LINE
5
88
100
AcDbEntity
8
endstop_bracket_x
6
ByLayer
62
256
370
-1
100
AcDbLine
10
0.773047727215
20
0.479547727215
11
0.76
21
0.489559600438
0
LINE
5
89
100
AcDbEntity
8
endstop_bracket_x
6
ByLayer
62
256
370
-1
100
AcDbLine
10
0.773047727215
20
0.479547727215
11
0.76
21
0.489559600438
0
LINE
5
8A
100
AcDbEntity
8
endstop_bracket_x
6
ByLayer
62
256
370
-1
100
AcDbLine
10
0.773047727215
20
0.479547727215
11
0.773047727215
21
0.479547727215
0
LINE
5
8B
100
AcDbEntity
8
endstop_bracket_x
6
ByLayer
62
256
370
-1
100
AcDbLine
10
0.783059600438
20
0.4665
11
0.773047727215
21
0.479547727215
0
LINE
5
8C
100
AcDbEntity
8
endstop_bracket_x
6
ByLayer
62
256
370
-1
100
AcDbLine
10
0.783059600438
20
0.4665
11
0.773047727215
21
0.479547727215
0
LINE
5
8D
100
AcDbEntity
8
endstop_bracket_x
6
ByLayer
62
256
370
-1
100
AcDbLine
10
0.783059600438
20
0.4665
11
0.783059600438
21
0.4665
0
LINE
5
8E
100
AcDbEntity
8
endstop_bracket_x
6
ByLayer
62
256
370
-1
100
AcDbLine
10
0.789353327056
20
0.451305599842
11
0.783059600438
21
0.4665
0
LINE
5
8F
100
AcDbEntity
8
endstop_bracket_x
6
ByLayer
62
256
370
-1
100
AcDbLine
10
0.789353327056
20
0.451305599842
11
0.783059600438
21
0.4665
0
LINE
5
90
100
AcDbEntity
8
endstop_bracket_x
6
ByLayer
62
256
370
-1
100
AcDbLine
10
0.7915
20
0.435
11
0.789353327056
21
0.451305599842
0
LINE
5
91
100
AcDbEntity
8
endstop_bracket_x
6
ByLayer
62
256
370
-1
100
AcDbLine
10
0.7915
20
0.435
11
0.7915
21
0.435
0
LINE
5
92
100
AcDbEntity
8
endstop_bracket_x
6
ByLayer
62
256
370
-1
100
AcDbLine
10
0.789353327056
20
0.418694400159
11
0.7915
21
0.435
0
LINE
5
93
100
AcDbEntity
8
endstop_bracket_x
6
ByLayer
62
256
370
-1
100
AcDbLine
10
0.789353327056
20
0.418694400159
11
0.7915
21
0.435
0
LINE
5
94
100
AcDbEntity
8
endstop_bracket_x
6
ByLayer
62
256
370
-1
100
AcDbLine
10
0.789353327056
20
0.418694400159
11
0.789353327056
21
0.418694400159
0
LINE
5
95
100
AcDbEntity
8
endstop_bracket_x
6
ByLayer
62
256
370
-1
100
AcDbLine
10
0.783059600438
20
0.4035
11
0.789353327056
21
0.418694400159
0
LINE
5
96
100
AcDbEntity
8
endstop_bracket_x
6
ByLayer
62
256
370
-1
100
AcDbLine
10
0.773047727215
20
0.390452272785
11
0.783059600438
21
0.4035
0
LINE
5
97
100
AcDbEntity
8
endstop_bracket_x
6
ByLayer
62
256
370
-1
100
AcDbLine
10
0.773047727215
20
0.390452272785
11
0.783059600438
21
0.4035
0
LINE
5
98
100
AcDbEntity
8
endstop_bracket_x
6
ByLayer
62
256
370
-1
100
AcDbLine
10
0.773047727215
20
0.390452272785
11
0.773047727215
21
0.390452272785
0
LINE
5
99
100
AcDbEntity
8
endstop_bracket_x
6
ByLayer
62
256
370
-1
100
AcDbLine
10
0.76
20
0.380440399562
11
0.773047727215
21
0.390452272785
0
LINE
5
9A
100
AcDbEntity
8
endstop_bracket_x
6
ByLayer
62
256
370
-1
100
AcDbLine
10
0.76
20
0.380440399562
11
0.773047727215
21
0.390452272785
0
LINE
5
9B
100
AcDbEntity
8
endstop_bracket_x
6
ByLayer
62
256
370
-1
100
AcDbLine
10
0.76
20
0.380440399562
11
0.76
21
0.380440399562
0
LINE
5
9C
100
AcDbEntity
8
endstop_bracket_x
6
ByLayer
62
256
370
-1
100
AcDbLine
10
0.744805599841
20
0.374146672944
11
0.76
21
0.380440399562
0
LINE
5
9D
100
AcDbEntity
8
endstop_bracket_x
6
ByLayer
62
256
370
-1
100
AcDbLine
10
0.744805599841
20
0.374146672944
11
0.76
21
0.380440399562
0
LINE
5
9E
100
AcDbEntity
8
endstop_bracket_x
6
ByLayer
62
256
370
-1
100
AcDbLine
10
0.744805599841
20
0.374146672944
11
0.744805599841
21
0.374146672944
0
LINE
5
9F
100
AcDbEntity
8
endstop_bracket_x
6
ByLayer
62
256
370
-1
100
AcDbLine
10
0.7285
20
0.372
11
0.744805599841
21
0.374146672944
0
LINE
5
A0
100
AcDbEntity
8
endstop_bracket_x
6
ByLayer
62
256
370
-1
100
AcDbLine
10
0.7285
20
0.372
11
0.744805599841
21
0.374146672944
0
LINE
5
A1
100
AcDbEntity
8
endstop_bracket_x
6
ByLayer
62
256
370
-1
100
AcDbLine
10
0.7285
20
0.372
11
0.7285
21
0.372
0
LINE
5
A2
100
AcDbEntity
8
endstop_bracket_x
6
ByLayer
62
256
370
-1
100
AcDbLine
10
0.712194400159
20
0.374146672944
11
0.7285
21
0.372
0
LINE
5
A3
100
AcDbEntity
8
endstop_bracket_x
6
ByLayer
62
256
370
-1
100
AcDbLine
10
1.49194966139
20
0.275530928281
11
1.48858546529
21
0.301003813291
0
LINE
5
A4
100
AcDbEntity
8
endstop_bracket_x
6
ByLayer
62
256
370
-1
100
AcDbLine
10
1.48858546529
20
0.301003813291
11
1.48858546529
21
0.300990691541
0
LINE
5
A5
100
AcDbEntity
8
endstop_bracket_x
6
ByLayer
62
256
370
-1
100
AcDbLine
10
1.49194966139
20
0.275517806531
11
1.48858546529
21
0.300990691541
0
LINE
5
A6
100
AcDbEntity
8
endstop_bracket_x
6
ByLayer
62
256
370
-1
100
AcDbLine
10
1.49194966139
20
0.275530928281
11
1.49194966139
21
0.275517806531
0
LINE
5
A7
100
AcDbEntity
8
endstop_bracket_x
6
ByLayer
62
256
370
-1
100
AcDbLine
10
1.48860635697
20
0.25005529283
11
1.49194966139
21
0.275530928281
0
LINE
5
A8
100
AcDbEntity
8
endstop_bracket_x
6
ByLayer
62
256
370
-1
100
AcDbLine
10
1.48860635697
20
0.25005529283
11
1.48860635697
21
0.250042171079
0
LINE
5
A9
100
AcDbEntity
8
endstop_bracket_x
6
ByLayer
62
256
370
-1
100
AcDbLine
10
1.47878339269
20
0.226313029391
11
1.48860635697
21
0.25005529283
0
LINE
5
AA
100
AcDbEntity
8
endstop_bracket_x
6
ByLayer
62
256
370
-1
100
AcDbLine
10
1.47878339269
20
0.226299907641
11
1.48860635697
21
0.250042171079
0
LINE
5
AB
100
AcDbEntity
8
endstop_bracket_x
6
ByLayer
62
256
370
-1
100
AcDbLine
10
1.47878339269
20
0.226313029391
11
1.47878339269
21
0.226299907641
0
LINE
5
AC
100
AcDbEntity
8
endstop_bracket_x
6
ByLayer
62
256
370
-1
100
AcDbLine
10
1.46315018733
20
0.205909012233
11
1.47878339269
21
0.226299907641
0
LINE
5
AD
100
AcDbEntity
8
endstop_bracket_x
6
ByLayer
62
256
370
-1
100
AcDbLine
10
1.46315018733
20
0.205922133983
11
1.46315018733
21
0.205909012233
0
LINE
5
AE
100
AcDbEntity
8
endstop_bracket_x
6
ByLayer
62
256
370
-1
100
AcDbLine
10
1.442772118
20
0.190272212431
11
1.46315018733
21
0.205922133983
0
LINE
5
AF
100
AcDbEntity
8
endstop_bracket_x
6
ByLayer
62
256
370
-1
100
AcDbLine
10
1.442772118
20
0.190259090681
11
1.46315018733
21
0.205909012233
0
LINE
5
B0
100
AcDbEntity
8
endstop_bracket_x
6
ByLayer
62
256
370
-1
100
AcDbLine
10
1.41903791645
20
0.180429781025
11
1.442772118
21
0.190272212431
0
LINE
5
B1
100
AcDbEntity
8
endstop_bracket_x
6
ByLayer
62
256
370
-1
100
AcDbLine
10
1.41903791645
20
0.180416659275
11
1.442772118
21
0.190259090681
0
LINE
5
B2
100
AcDbEntity
8
endstop_bracket_x
6
ByLayer
62
256
370
-1
100
AcDbLine
10
1.41903791645
20
0.180429781025
11
1.41903791645
21
0.180416659275
0
LINE
5
B3
100
AcDbEntity
8
endstop_bracket_x
6
ByLayer
62
256
370
-1
100
AcDbLine
10
1.3935650293
20
0.177065585201
11
1.41903791645
21
0.180429781025
0
LINE
5
B4
100
AcDbEntity
8
endstop_bracket_x
6
ByLayer
62
256
370
-1
100
AcDbLine
10
1.3935650293
20
0.17705246345
11
1.41903791645
21
0.180416659275
0
LINE
5
B5
100
AcDbEntity
8
endstop_bracket_x
6
ByLayer
62
256
370
-1
100
AcDbLine
10
1.3935650293
20
0.177065585201
11
1.3935650293
21
0.17705246345
0
LINE
5
B6
100
AcDbEntity
8
endstop_bracket_x
6
ByLayer
62
256
370
-1
100
AcDbLine
10
1.36808939171
20
0.180408889343
11
1.3935650293
21
0.177065585201
0
LINE
5
B7
100
AcDbEntity
8
endstop_bracket_x
6
ByLayer
62
256
370
-1
100
AcDbLine
10
1.36808939171
20
0.180395767593
11
1.3935650293
21
0.17705246345
0
LINE
5
B8
100
AcDbEntity
8
endstop_bracket_x
6
ByLayer
62
256
370
-1
100
AcDbLine
10
1.36808939171
20
0.180408889343
11
1.36808939171
21
0.180395767593
0
LINE
5
B9
100
AcDbEntity
8
endstop_bracket_x
6
ByLayer
62
256
370
-1
100
AcDbLine
10
0.193805599841
20
0.495853327056
11
0.1775
21
0.498
0
LINE
5
BA
100
AcDbEntity
8
endstop_bracket_x
6
ByLayer
62
256
370
-1
100
AcDbLine
10
1.34434712627
20
0.190231852801
11
1.36808939171
21
0.180408889343
0
LINE
5
BB
100
AcDbEntity
8
endstop_bracket_x
6
ByLayer
62
256
370
-1
100
AcDbLine
10
1.47874303305
20
0.324738012841
11
1.46309311018
21
0.345116080455
0
LINE
5
BC
100
AcDbEntity
8
endstop_bracket_x
6
ByLayer
62
256
370
-1
100
AcDbLine
10
1.2275966891
20
0.550999907352
11
0
21
0.551
0
LINE
5
BD
100
AcDbEntity
8
endstop_bracket_x
6
ByLayer
62
256
370
-1
100
AcDbLine
10
0
20
0.551
11
2.84217094304e-14
21
0
0
LINE
5
BE
100
AcDbEntity
8
endstop_bracket_x
6
ByLayer
62
256
370
-1
100
AcDbLine
10
1.22782262924
20
0
11
1.2275966891
21
0.551013029103
0
LINE
5
BF
100
AcDbEntity
8
endstop_bracket_x
6
ByLayer
62
256
370
-1
100
AcDbLine
10
0.116646672944
20
0.418694400159
11
0.122940399562
21
0.4035
0
LINE
5
C0
100
AcDbEntity
8
endstop_bracket_x
6
ByLayer
62
256
370
-1
100
AcDbLine
10
0.132952272785
20
0.390452272785
11
0.146
21
0.380440399562
0
LINE
5
C1
100
AcDbEntity
8
endstop_bracket_x
6
ByLayer
62
256
370
-1
100
AcDbLine
10
0.146
20
0.489559600438
11
0.132952272785
21
0.479547727215
0
LINE
5
C2
100
AcDbEntity
8
endstop_bracket_x
6
ByLayer
62
256
370
-1
100
AcDbLine
10
0.1775
20
0.498
11
0.161194400159
21
0.495853327056
0
LINE
5
C3
100
AcDbEntity
8
endstop_bracket_x
6
ByLayer
62
256
370
-1
100
AcDbLine
10
0.209
20
0.380440399562
11
0.222047727215
21
0.390452272785
0
LINE
5
C4
100
AcDbEntity
8
endstop_bracket_x
6
ByLayer
62
256
370
-1
100
AcDbLine
10
2.84217094304e-14
20
0
11
1.22782262924
21
0
0
LINE
5
C5
100
AcDbEntity
8
endstop_bracket_x
6
ByLayer
62
256
370
-1
100
AcDbLine
10
0.1145
20
0.435
11
0.1145
21
0.435
0
LINE
5
C6
100
AcDbEntity
8
endstop_bracket_x
6
ByLayer
62
256
370
-1
100
AcDbLine
10
0
20
0.551
11
0
21
0.551
0
LINE
5
C7
100
AcDbEntity
8
endstop_bracket_x
6
ByLayer
62
256
370
-1
100
AcDbLine
10
1.29846387405
20
0.24996420226
11
1.30830630628
21
0.22623000271
0
LINE
5
C8
100
AcDbEntity
8
endstop_bracket_x
6
ByLayer
62
256
370
-1
100
AcDbLine
10
0.161194400159
20
0.374146672944
11
0.1775
21
0.372
0
LINE
5
C9
100
AcDbEntity
8
endstop_bracket_x
6
ByLayer
62
256
370
-1
100
AcDbLine
10
1.2275966891
20
0.550999907352
11
1.22782262924
21
0
0
LINE
5
CA
100
AcDbEntity
8
endstop_bracket_x
6
ByLayer
62
256
370
-1
100
AcDbLine
10
1.32389915201
20
0.345059003318
11
1.30826594665
21
0.324668107911
0
LINE
5
CB
100
AcDbEntity
8
endstop_bracket_x
6
ByLayer
62
256
370
-1
100
AcDbLine
10
1.34427722134
20
0.360708924871
11
1.34427722134
21
0.36069580312
0
LINE
5
CC
100
AcDbEntity
8
endstop_bracket_x
6
ByLayer
62
256
370
-1
100
AcDbLine
10
1.22782262924
20
0
11
1.22782262924
21
0
0
LINE
5
CD
100
AcDbEntity
8
endstop_bracket_x
6
ByLayer
62
256
370
-1
100
AcDbLine
10
1.66900113932
20
0.551194029072
11
1.66900113932
21
0.551180907322
0
LINE
5
CE
100
AcDbEntity
8
endstop_bracket_x
6
ByLayer
62
256
370
-1
100
AcDbLine
10
0.116646672944
20
0.451305599841
11
0.116646672944
21
0.451305599841
0
LINE
5
CF
100
AcDbEntity
8
endstop_bracket_x
6
ByLayer
62
256
370
-1
100
AcDbLine
10
1.66900113932
20
0.551194029072
11
1.2275966891
21
0.551013029103
0
LINE
5
D0
100
AcDbEntity
8
endstop_bracket_x
6
ByLayer
62
256
370
-1
100
AcDbLine
10
0.193805599841
20
0.374146672944
11
0.209
21
0.380440399562
0
LINE
5
D1
100
AcDbEntity
8
endstop_bracket_x
6
ByLayer
62
256
370
-1
100
AcDbLine
10
0.209
20
0.380440399562
11
0.209
21
0.380440399562
0
LINE
5
D2
100
AcDbEntity
8
endstop_bracket_x
6
ByLayer
62
256
370
-1
100
AcDbLine
10
0.193805599841
20
0.374146672944
11
0.209
21
0.380440399562
0
LINE
5
D3
100
AcDbEntity
8
endstop_bracket_x
6
ByLayer
62
256
370
-1
100
AcDbLine
10
0.193805599841
20
0.374146672944
11
0.193805599841
21
0.374146672944
0
LINE
5
D4
100
AcDbEntity
8
endstop_bracket_x
6
ByLayer
62
256
370
-1
100
AcDbLine
10
0.1775
20
0.372
11
0.193805599841
21
0.374146672944
0
LINE
5
D5
100
AcDbEntity
8
endstop_bracket_x
6
ByLayer
62
256
370
-1
100
AcDbLine
10
0.1775
20
0.372
11
0.1775
21
0.372
0
LINE
5
D6
100
AcDbEntity
8
endstop_bracket_x
6
ByLayer
62
256
370
-1
100
AcDbLine
10
0.161194400159
20
0.374146672944
11
0.161194400159
21
0.374146672944
0
LINE
5
D7
100
AcDbEntity
8
endstop_bracket_x
6
ByLayer
62
256
370
-1
100
AcDbLine
10
1.29509967794
20
0.27545020902
11
1.29509967794
21
0.27543708727
0
LINE
5
D8
100
AcDbEntity
8
endstop_bracket_x
6
ByLayer
62
256
370
-1
100
AcDbLine
10
0.209
20
0.489559600438
11
0.193805599841
21
0.495853327056
0
LINE
5
D9
100
AcDbEntity
8
endstop_bracket_x
6
ByLayer
62
256
370
-1
100
AcDbLine
10
1.30830630628
20
0.22623000271
11
1.32395622915
21
0.205851935096
0
LINE
5
DA
100
AcDbEntity
8
endstop_bracket_x
6
ByLayer
62
256
370
-1
100
AcDbLine
10
0.146
20
0.380440399562
11
0.146
21
0.380440399562
0
LINE
5
DB
100
AcDbEntity
8
endstop_bracket_x
6
ByLayer
62
256
370
-1
100
AcDbLine
10
1.46309311018
20
0.345116080455
11
1.46309311018
21
0.345102958705
0
LINE
5
DC
100
AcDbEntity
8
endstop_bracket_x
6
ByLayer
62
256
370
-1
100
AcDbLine
10
1.47874303305
20
0.324724891091
11
1.46309311018
21
0.345102958705
0
LINE
5
DD
100
AcDbEntity
8
endstop_bracket_x
6
ByLayer
62
256
370
-1
100
AcDbLine
10
1.47874303305
20
0.324738012841
11
1.47874303305
21
0.324724891091
0
LINE
5
DE
100
AcDbEntity
8
endstop_bracket_x
6
ByLayer
62
256
370
-1
100
AcDbLine
10
0.209
20
0.380440399562
11
0.222047727215
21
0.390452272785
0
LINE
5
DF
100
AcDbEntity
8
endstop_bracket_x
6
ByLayer
62
256
370
-1
100
AcDbLine
10
0.222047727215
20
0.390452272785
11
0.222047727215
21
0.390452272785
0
LINE
5
E0
100
AcDbEntity
8
endstop_bracket_x
6
ByLayer
62
256
370
-1
100
AcDbLine
10
1.39348431003
20
0.373915552101
11
1.36801142288
21
0.370551356277
0
LINE
5
E1
100
AcDbEntity
8
endstop_bracket_x
6
ByLayer
62
256
370
-1
100
AcDbLine
10
0.116646672944
20
0.418694400159
11
0.116646672944
21
0.418694400159
0
LINE
5
E2
100
AcDbEntity
8
endstop_bracket_x
6
ByLayer
62
256
370
-1
100
AcDbLine
10
0.146
20
0.489559600438
11
0.146
21
0.489559600438
0
LINE
5
E3
100
AcDbEntity
8
endstop_bracket_x
6
ByLayer
62
256
370
-1
100
AcDbLine
10
1.30826594665
20
0.324668107911
11
1.30826594665
21
0.32465498616
0
LINE
5
E4
100
AcDbEntity
8
endstop_bracket_x
6
ByLayer
62
256
370
-1
100
AcDbLine
10
1.30830630628
20
0.226243124461
11
1.30830630628
21
0.22623000271
0
LINE
5
E5
100
AcDbEntity
8
endstop_bracket_x
6
ByLayer
62
256
370
-1
100
AcDbLine
10
1.66922715368
20
1.31217504087e-05
11
1.66900113932
21
0.551194029072
0
LINE
5
E6
100
AcDbEntity
8
endstop_bracket_x
6
ByLayer
62
256
370
-1
100
AcDbLine
10
1.32389915201
20
0.345045881568
11
1.30826594665
21
0.32465498616
0
LINE
5
E7
100
AcDbEntity
8
endstop_bracket_x
6
ByLayer
62
256
370
-1
100
AcDbLine
10
1.36801142288
20
0.370538234526
11
1.34427722134
21
0.36069580312
0
LINE
5
E8
100
AcDbEntity
8
endstop_bracket_x
6
ByLayer
62
256
370
-1
100
AcDbLine
10
1.41895994763
20
0.370572247959
11
1.41895994763
21
0.370559126208
0
LINE
5
E9
100
AcDbEntity
8
endstop_bracket_x
6
ByLayer
62
256
370
-1
100
AcDbLine
10
0.238353327056
20
0.451305599841
11
0.232059600438
21
0.4665
0
LINE
5
EA
100
AcDbEntity
8
endstop_bracket_x
6
ByLayer
62
256
370
-1
100
AcDbLine
10
0.209
20
0.489559600438
11
0.209
21
0.489559600438
0
LINE
5
EB
100
AcDbEntity
8
endstop_bracket_x
6
ByLayer
62
256
370
-1
100
AcDbLine
10
1.46309311018
20
0.345116080455
11
1.44270221306
21
0.360749284501
0
LINE
5
EC
100
AcDbEntity
8
endstop_bracket_x
6
ByLayer
62
256
370
-1
100
AcDbLine
10
0.222047727215
20
0.479547727215
11
0.209
21
0.489559600438
0
LINE
5
ED
100
AcDbEntity
8
endstop_bracket_x
6
ByLayer
62
256
370
-1
100
AcDbLine
10
0.132952272785
20
0.479547727215
11
0.132952272785
21
0.479547727215
0
LINE
5
EE
100
AcDbEntity
8
endstop_bracket_x
6
ByLayer
62
256
370
-1
100
AcDbLine
10
0.146
20
0.489559600438
11
0.132952272785
21
0.479547727215
0
LINE
5
EF
100
AcDbEntity
8
endstop_bracket_x
6
ByLayer
62
256
370
-1
100
AcDbLine
10
0.232059600438
20
0.4035
11
0.232059600438
21
0.4035
0
LINE
5
F0
100
AcDbEntity
8
endstop_bracket_x
6
ByLayer
62
256
370
-1
100
AcDbLine
10
0.238353327056
20
0.418694400159
11
0.2405
21
0.435
0
LINE
5
F1
100
AcDbEntity
8
endstop_bracket_x
6
ByLayer
62
256
370
-1
100
AcDbLine
10
1.39348431003
20
0.373902430351
11
1.36801142288
21
0.370538234526
0
LINE
5
F2
100
AcDbEntity
8
endstop_bracket_x
6
ByLayer
62
256
370
-1
100
AcDbLine
10
1.48858546529
20
0.300990691541
11
1.47874303305
21
0.324724891091
0
LINE
5
F3
100
AcDbEntity
8
endstop_bracket_x
6
ByLayer
62
256
370
-1
100
AcDbLine
10
1.32395622915
20
0.205851935096
11
1.34434712627
21
0.19021873105
0
LINE
5
F4
100
AcDbEntity
8
endstop_bracket_x
6
ByLayer
62
256
370
-1
100
AcDbLine
10
0.209
20
0.489559600438
11
0.193805599841
21
0.495853327056
0
LINE
5
F5
100
AcDbEntity
8
endstop_bracket_x
6
ByLayer
62
256
370
-1
100
AcDbLine
10
0.161194400159
20
0.495853327056
11
0.146
21
0.489559600438
0
LINE
5
F6
100
AcDbEntity
8
endstop_bracket_x
6
ByLayer
62
256
370
-1
100
AcDbLine
10
1.29509967794
20
0.27545020902
11
1.29846387405
21
0.249977324011
0
LINE
5
F7
100
AcDbEntity
8
endstop_bracket_x
6
ByLayer
62
256
370
-1
100
AcDbLine
10
1.34427722134
20
0.360708924871
11
1.32389915201
21
0.345059003318
0
LINE
5
F8
100
AcDbEntity
8
endstop_bracket_x
6
ByLayer
62
256
370
-1
100
AcDbLine
10
1.29844298237
20
0.300912722722
11
1.29509967794
21
0.27543708727
0
LINE
5
F9
100
AcDbEntity
8
endstop_bracket_x
6
ByLayer
62
256
370
-1
100
AcDbLine
10
2.84217094304e-14
20
0
11
1.22782262924
21
0
0
LINE
5
FA
100
AcDbEntity
8
endstop_bracket_x
6
ByLayer
62
256
370
-1
100
AcDbLine
10
0.161194400159
20
0.495853327056
11
0.146
21
0.489559600438
0
LINE
5
FB
100
AcDbEntity
8
endstop_bracket_x
6
ByLayer
62
256
370
-1
100
AcDbLine
10
1.66922715368
20
1.31217504087e-05
11
1.66922715368
21
0
0
LINE
5
FC
100
AcDbEntity
8
endstop_bracket_x
6
ByLayer
62
256
370
-1
100
AcDbLine
10
1.29509967794
20
0.27543708727
11
1.29846387405
21
0.24996420226
0
LINE
5
FD
100
AcDbEntity
8
endstop_bracket_x
6
ByLayer
62
256
370
-1
100
AcDbLine
10
1.66900113932
20
0.551180907322
11
1.2275966891
21
0.550999907352
0
LINE
5
FE
100
AcDbEntity
8
endstop_bracket_x
6
ByLayer
62
256
370
-1
100
AcDbLine
10
0.222047727215
20
0.479547727215
11
0.222047727215
21
0.479547727215
0
LINE
5
FF
100
AcDbEntity
8
endstop_bracket_x
6
ByLayer
62
256
370
-1
100
AcDbLine
10
0.2405
20
0.435
11
0.238353327056
21
0.451305599841
0
LINE
5
100
100
AcDbEntity
8
endstop_bracket_x
6
ByLayer
62
256
370
-1
100
AcDbLine
10
0.132952272785
20
0.390452272785
11
0.132952272785
21
0.390452272785
0
LINE
5
101
100
AcDbEntity
8
endstop_bracket_x
6
ByLayer
62
256
370
-1
100
AcDbLine
10
0.132952272785
20
0.479547727215
11
0.122940399562
21
0.4665
0
LINE
5
102
100
AcDbEntity
8
endstop_bracket_x
6
ByLayer
62
256
370
-1
100
AcDbLine
10
0.122940399562
20
0.4035
11
0.122940399562
21
0.4035
0
LINE
5
103
100
AcDbEntity
8
endstop_bracket_x
6
ByLayer
62
256
370
-1
100
AcDbLine
10
0.122940399562
20
0.4665
11
0.116646672944
21
0.451305599841
0
LINE
5
104
100
AcDbEntity
8
endstop_bracket_x
6
ByLayer
62
256
370
-1
100
AcDbLine
10
1.29846387405
20
0.249977324011
11
1.29846387405
21
0.24996420226
0
LINE
5
105
100
AcDbEntity
8
endstop_bracket_x
6
ByLayer
62
256
370
-1
100
AcDbLine
10
1.29846387405
20
0.249977324011
11
1.30830630628
21
0.226243124461
0
LINE
5
106
100
AcDbEntity
8
endstop_bracket_x
6
ByLayer
62
256
370
-1
100
AcDbLine
10
1.30830630628
20
0.226243124461
11
1.32395622915
21
0.205865056847
0
LINE
5
107
100
AcDbEntity
8
endstop_bracket_x
6
ByLayer
62
256
370
-1
100
AcDbLine
10
1.32395622915
20
0.205865056847
11
1.32395622915
21
0.205851935096
0
LINE
5
108
100
AcDbEntity
8
endstop_bracket_x
6
ByLayer
62
256
370
-1
100
AcDbLine
10
0.238353327056
20
0.418694400159
11
0.238353327056
21
0.418694400159
0
LINE
5
109
100
AcDbEntity
8
endstop_bracket_x
6
ByLayer
62
256
370
-1
100
AcDbLine
10
1.34434712627
20
0.19021873105
11
1.36808939171
21
0.180395767593
0
LINE
5
10A
100
AcDbEntity
8
endstop_bracket_x
6
ByLayer
62
256
370
-1
100
AcDbLine
10
1.22782262924
20
0
11
1.2275966891
21
0.550999907352
0
LINE
5
10B
100
AcDbEntity
8
endstop_bracket_x
6
ByLayer
62
256
370
-1
100
AcDbLine
10
1.2275966891
20
0.550999907352
11
1.2275966891
21
0.551013029103
0
LINE
5
10C
100
AcDbEntity
8
endstop_bracket_x
6
ByLayer
62
256
370
-1
100
AcDbLine
10
0
20
0.551
11
1.2275966891
21
0.550999907352
0
LINE
5
10D
100
AcDbEntity
8
endstop_bracket_x
6
ByLayer
62
256
370
-1
100
AcDbLine
10
0.232059600438
20
0.4665
11
0.222047727215
21
0.479547727215
0
LINE
5
10E
100
AcDbEntity
8
endstop_bracket_x
6
ByLayer
62
256
370
-1
100
AcDbLine
10
0.193805599841
20
0.495853327056
11
0.1775
21
0.498
0
LINE
5
10F
100
AcDbEntity
8
endstop_bracket_x
6
ByLayer
62
256
370
-1
100
AcDbLine
10
0.1775
20
0.498
11
0.161194400159
21
0.495853327056
0
LINE
5
110
100
AcDbEntity
8
endstop_bracket_x
6
ByLayer
62
256
370
-1
100
AcDbLine
10
0.116646672944
20
0.451305599841
11
0.1145
21
0.435
0
LINE
5
111
100
AcDbEntity
8
endstop_bracket_x
6
ByLayer
62
256
370
-1
100
AcDbLine
10
0.1145
20
0.435
11
0.116646672944
21
0.418694400159
0
LINE
5
112
100
AcDbEntity
8
endstop_bracket_x
6
ByLayer
62
256
370
-1
100
AcDbLine
10
0.116646672944
20
0.418694400159
11
0.122940399562
21
0.4035
0
LINE
5
113
100
AcDbEntity
8
endstop_bracket_x
6
ByLayer
62
256
370
-1
100
AcDbLine
10
0.122940399562
20
0.4035
11
0.132952272785
21
0.390452272785
0
LINE
5
114
100
AcDbEntity
8
endstop_bracket_x
6
ByLayer
62
256
370
-1
100
AcDbLine
10
0.132952272785
20
0.390452272785
11
0.146
21
0.380440399562
0
LINE
5
115
100
AcDbEntity
8
endstop_bracket_x
6
ByLayer
62
256
370
-1
100
AcDbLine
10
0.146
20
0.380440399562
11
0.161194400159
21
0.374146672944
0
LINE
5
116
100
AcDbEntity
8
endstop_bracket_x
6
ByLayer
62
256
370
-1
100
AcDbLine
10
0.222047727215
20
0.390452272785
11
0.232059600438
21
0.4035
0
LINE
5
117
100
AcDbEntity
8
endstop_bracket_x
6
ByLayer
62
256
370
-1
100
AcDbLine
10
0.232059600438
20
0.4035
11
0.238353327056
21
0.418694400159
0
LINE
5
118
100
AcDbEntity
8
endstop_bracket_x
6
ByLayer
62
256
370
-1
100
AcDbLine
10
1.66922715368
20
0
11
1.66900113932
21
0.551180907322
0
LINE
5
119
100
AcDbEntity
8
endstop_bracket_x
6
ByLayer
62
256
370
-1
100
AcDbLine
10
1.34434712627
20
0.190231852801
11
1.34434712627
21
0.19021873105
0
LINE
5
11A
100
AcDbEntity
8
endstop_bracket_x
6
ByLayer
62
256
370
-1
100
AcDbLine
10
1.36801142288
20
0.370551356277
11
1.34427722134
21
0.360708924871
0
LINE
5
11B
100
AcDbEntity
8
endstop_bracket_x
6
ByLayer
62
256
370
-1
100
AcDbLine
10
1.36801142288
20
0.370551356277
11
1.36801142288
21
0.370538234526
0
LINE
5
11C
100
AcDbEntity
8
endstop_bracket_x
6
ByLayer
62
256
370
-1
100
AcDbLine
10
1.44270221306
20
0.360736162751
11
1.41895994763
21
0.370559126208
0
LINE
5
11D
100
AcDbEntity
8
endstop_bracket_x
6
ByLayer
62
256
370
-1
100
AcDbLine
10
2.84217094304e-14
20
0
11
2.84217094304e-14
21
0
0
LINE
5
11E
100
AcDbEntity
8
endstop_bracket_x
6
ByLayer
62
256
370
-1
100
AcDbLine
10
1.44270221306
20
0.360749284501
11
1.44270221306
21
0.360736162751
0
LINE
5
11F
100
AcDbEntity
8
endstop_bracket_x
6
ByLayer
62
256
370
-1
100
AcDbLine
10
1.46309311018
20
0.345102958705
11
1.44270221306
21
0.360736162751
0
LINE
5
120
100
AcDbEntity
8
endstop_bracket_x
6
ByLayer
62
256
370
-1
100
AcDbLine
10
1.22782262924
20
0
11
1.66922715368
21
0
0
LINE
5
121
100
AcDbEntity
8
endstop_bracket_x
6
ByLayer
62
256
370
-1
100
AcDbLine
10
1.41895994763
20
0.370559126208
11
1.39348431003
21
0.373902430351
0
LINE
5
122
100
AcDbEntity
8
endstop_bracket_x
6
ByLayer
62
256
370
-1
100
AcDbLine
10
1.34427722134
20
0.36069580312
11
1.32389915201
21
0.345045881568
0
LINE
5
123
100
AcDbEntity
8
endstop_bracket_x
6
ByLayer
62
256
370
-1
100
AcDbLine
10
1.30826594665
20
0.32465498616
11
1.29844298237
21
0.300912722722
0
LINE
5
124
100
AcDbEntity
8
endstop_bracket_x
6
ByLayer
62
256
370
-1
100
AcDbLine
10
0.238353327056
20
0.451305599841
11
0.238353327056
21
0.451305599841
0
LINE
5
125
100
AcDbEntity
8
endstop_bracket_x
6
ByLayer
62
256
370
-1
100
AcDbLine
10
1.22782262924
20
0
11
1.66922715368
21
1.31217504087e-05
0
LINE
5
126
100
AcDbEntity
8
endstop_bracket_x
6
ByLayer
62
256
370
-1
100
AcDbLine
10
0.146
20
0.380440399562
11
0.161194400159
21
0.374146672944
0
LINE
5
127
100
AcDbEntity
8
endstop_bracket_x
6
ByLayer
62
256
370
-1
100
AcDbLine
10
0.122940399562
20
0.4035
11
0.132952272785
21
0.390452272785
0
LINE
5
128
100
AcDbEntity
8
endstop_bracket_x
6
ByLayer
62
256
370
-1
100
AcDbLine
10
0.2405
20
0.435
11
0.2405
21
0.435
0
LINE
5
129
100
AcDbEntity
8
endstop_bracket_x
6
ByLayer
62
256
370
-1
100
AcDbLine
10
1.30826594665
20
0.324668107911
11
1.29844298237
21
0.300925844472
0
LINE
5
12A
100
AcDbEntity
8
endstop_bracket_x
6
ByLayer
62
256
370
-1
100
AcDbLine
10
1.29844298237
20
0.300925844472
11
1.29844298237
21
0.300912722722
0
LINE
5
12B
100
AcDbEntity
8
endstop_bracket_x
6
ByLayer
62
256
370
-1
100
AcDbLine
10
1.32389915201
20
0.345059003318
11
1.32389915201
21
0.345045881568
0
LINE
5
12C
100
AcDbEntity
8
endstop_bracket_x
6
ByLayer
62
256
370
-1
100
AcDbLine
10
1.39348431003
20
0.373915552101
11
1.39348431003
21
0.373902430351
0
LINE
5
12D
100
AcDbEntity
8
endstop_bracket_x
6
ByLayer
62
256
370
-1
100
AcDbLine
10
1.41895994763
20
0.370572247959
11
1.39348431003
21
0.373915552101
0
LINE
5
12E
100
AcDbEntity
8
endstop_bracket_x
6
ByLayer
62
256
370
-1
100
AcDbLine
10
1.44270221306
20
0.360749284501
11
1.41895994763
21
0.370572247959
0
LINE
5
12F
100
AcDbEntity
8
endstop_bracket_x
6
ByLayer
62
256
370
-1
100
AcDbLine
10
1.48858546529
20
0.301003813291
11
1.47874303305
21
0.324738012841
0
LINE
5
130
100
AcDbEntity
8
endstop_bracket_x
6
ByLayer
62
256
370
-1
100
AcDbLine
10
0.238353327056
20
0.451305599841
11
0.232059600438
21
0.4665
0
LINE
5
131
100
AcDbEntity
8
endstop_bracket_x
6
ByLayer
62
256
370
-1
100
AcDbLine
10
0.1145
20
0.435
11
0.116646672944
21
0.418694400159
0
LINE
5
132
100
AcDbEntity
8
endstop_bracket_x
6
ByLayer
62
256
370
-1
100
AcDbLine
10
0.232059600438
20
0.4665
11
0.222047727215
21
0.479547727215
0
LINE
5
133
100
AcDbEntity
8
endstop_bracket_x
6
ByLayer
62
256
370
-1
100
AcDbLine
10
0.161194400159
20
0.495853327056
11
0.161194400159
21
0.495853327056
0
LINE
5
134
100
AcDbEntity
8
endstop_bracket_x
6
ByLayer
62
256
370
-1
100
AcDbLine
10
0.1775
20
0.498
11
0.1775
21
0.498
0
LINE
5
135
100
AcDbEntity
8
endstop_bracket_x
6
ByLayer
62
256
370
-1
100
AcDbLine
10
0.232059600438
20
0.4665
11
0.232059600438
21
0.4665
0
LINE
5
136
100
AcDbEntity
8
endstop_bracket_x
6
ByLayer
62
256
370
-1
100
AcDbLine
10
0.222047727215
20
0.479547727215
11
0.209
21
0.489559600438
0
LINE
5
137
100
AcDbEntity
8
endstop_bracket_x
6
ByLayer
62
256
370
-1
100
AcDbLine
10
1.29844298237
20
0.300925844472
11
1.29509967794
21
0.27545020902
0
LINE
5
138
100
AcDbEntity
8
endstop_bracket_x
6
ByLayer
62
256
370
-1
100
AcDbLine
10
0.193805599841
20
0.495853327056
11
0.193805599841
21
0.495853327056
0
LINE
5
139
100
AcDbEntity
8
0
6
ByLayer
62
256
370
-1
100
AcDbLine
10
0
20
0.551
11
1.66900113932
21
0.551194029072
0
LINE
5
13A
100
AcDbEntity
8
0
6
ByLayer
62
256
370
-1
100
AcDbLine
10
1.66900113932
20
0.551194029072
11
1.66922715368
21
1.31217504087e-05
0
LINE
5
13B
100
AcDbEntity
8
0
6
ByLayer
62
256
370
-1
100
AcDbLine
10
1.66922715368
20
1.31217504087e-05
11
2.84217094304e-14
21
0
0
LINE
5
13C
100
AcDbEntity
8
0
6
ByLayer
62
256
370
-1
100
AcDbLine
10
2.84217094304e-14
20
0
11
0
21
0.551
0
LINE
5
13D
100
AcDbEntity
8
bend
6
ByLayer
62
256
370
-1
100
AcDbLine
10
1.2275966891
20
0.550999907352
11
1.22782262924
21
0
0
CIRCLE
5
13E
100
AcDbEntity
8
cutout
6
ByLayer
62
256
370
-1
100
AcDbCircle
10
1.39352466967
20
0.275484007775
40
0.0984249975282
0
CIRCLE
5
13F
100
AcDbEntity
8
drill
6
ByLayer
62
256
370
-1
100
AcDbCircle
10
1.2275966891
20
0.550999907352
40
0.065
0
CIRCLE
5
140
100
AcDbEntity
8
drill
6
ByLayer
62
256
370
-1
100
AcDbCircle
10
1.22782262924
20
0
40
0.065
0
CIRCLE
5
141
100
AcDbEntity
8
drill
6
ByLayer
62
256
370
-1
100
AcDbCircle
10
0.1775
20
0.435
40
0.063
0
CIRCLE
5
142
100
AcDbEntity
8
drill
6
ByLayer
62
256
370
-1
100
AcDbCircle
10
0.7285
20
0.435
40
0.063
0
LINE
5
143
100
AcDbEntity
8
Layer0
6
ByLayer
62
256
370
-1
100
AcDbLine
10
0.287577286809
20
1.27718212514
11
0.287577286809
21
1.27718212514
0
LINE
5
144
100
AcDbEntity
8
Layer0
6
ByLayer
62
256
370
-1
100
AcDbLine
10
0.878547727215
20
1.38395227279
11
0.888559600438
21
1.397
0
LINE
5
145
100
AcDbEntity
8
Layer0
6
ByLayer
62
256
370
-1
100
AcDbLine
10
0.33910576033
20
1.44227868648
11
0.33910576033
21
1.44227868648
0
LINE
5
146
100
AcDbEntity
8
Layer0
6
ByLayer
62
256
370
-1
100
AcDbLine
10
0.894853327056
20
0.861194400159
11
0.897
21
0.8775
0
LINE
5
147
100
AcDbEntity
8
Layer0
6
ByLayer
62
256
370
-1
100
AcDbLine
10
0.306812753946
20
0.833476825527
11
0.328953075488
21
0.851350736059
0
LINE
5
148
100
AcDbEntity
8
Layer0
6
ByLayer
62
256
370
-1
100
AcDbLine
10
0.280800737109
20
0.821942290607
11
0.280800737109
21
0.821942290607
0
LINE
5
149
100
AcDbEntity
8
Layer0
6
ByLayer
62
256
370
-1
100
AcDbLine
10
0.295778508829
20
1.47842081747
11
0.268616052448
21
1.4868985223
0
LINE
5
14A
100
AcDbEntity
8
Layer0
6
ByLayer
62
256
370
-1
100
AcDbLine
10
0.8025
20
0.932059600438
11
0.789452272785
21
0.922047727215
0
LINE
5
14B
100
AcDbEntity
8
Layer0
6
ByLayer
62
256
370
-1
100
AcDbLine
10
0.817694400159
20
1.48935332706
11
0.8025
21
1.48305960044
0
LINE
5
14C
100
AcDbEntity
8
Layer0
6
ByLayer
62
256
370
-1
100
AcDbLine
10
0.894853327056
20
1.41219440016
11
0.897
21
1.4285
0
LINE
5
14D
100
AcDbEntity
8
Layer0
6
ByLayer
62
256
370
-1
100
AcDbLine
10
0.212422713191
20
1.48181787486
11
0.187221313521
21
1.46860576033
0
LINE
5
14E
100
AcDbEntity
8
Layer0
6
ByLayer
62
256
370
-1
100
AcDbLine
10
0.817694400159
20
1.36764667294
11
0.834
21
1.3655
0
LINE
5
14F
100
AcDbEntity
8
Layer0
6
ByLayer
62
256
370
-1
100
AcDbLine
10
0.25
20
1.035180027
11
0.247310299061
21
1.03546680921
0
LINE
5
150
100
AcDbEntity
8
Layer0
6
ByLayer
62
256
370
-1
100
AcDbLine
10
0.280800737109
20
0.821942290607
11
0.306812753946
21
0.833476825527
0
LINE
5
151
100
AcDbEntity
8
Layer0
6
ByLayer
62
256
370
-1
100
AcDbLine
10
0.878547727215
20
0.832952272785
11
0.878547727215
21
0.832952272785
0
LINE
5
152
100
AcDbEntity
8
Layer0
6
ByLayer
62
256
370
-1
100
AcDbLine
10
0.8655
20
0.932059600438
11
0.850305599841
21
0.938353327056
0
LINE
5
153
100
AcDbEntity
8
Layer0
6
ByLayer
62
256
370
-1
100
AcDbLine
10
0.850305599841
20
1.36764667294
11
0.8655
21
1.37394039956
0
LINE
5
154
100
AcDbEntity
8
Layer0
6
ByLayer
62
256
370
-1
100
AcDbLine
10
0.25
20
1.48765719538
11
0.240184942858
21
1.48805719531
0
LINE
5
155
100
AcDbEntity
8
Layer0
6
ByLayer
62
256
370
-1
100
AcDbLine
10
1.269
20
1.606
11
1.269
21
1.606
0
LINE
5
156
100
AcDbEntity
8
Layer0
6
ByLayer
62
256
370
-1
100
AcDbLine
10
0.8655
20
0.822940399562
11
0.878547727215
21
0.832952272785
0
LINE
5
157
100
AcDbEntity
8
Layer0
6
ByLayer
62
256
370
-1
100
AcDbLine
10
0.8655
20
0.822940399562
11
0.878547727215
21
0.832952272785
0
LINE
5
158
100
AcDbEntity
8
Layer0
6
ByLayer
62
256
370
-1
100
AcDbLine
10
0.8655
20
0.822940399562
11
0.8655
21
0.822940399562
0
LINE
5
159
100
AcDbEntity
8
Layer0
6
ByLayer
62
256
370
-1
100
AcDbLine
10
0.878547727215
20
1.47304772721
11
0.8655
21
1.48305960044
0
LINE
5
15A
100
AcDbEntity
8
Layer0
6
ByLayer
62
256
370
-1
100
AcDbLine
10
0.252689700939
20
0.817533190793
11
0.280800737109
21
0.821942290607
0
LINE
5
15B
100
AcDbEntity
8
Layer0
6
ByLayer
62
256
370
-1
100
AcDbLine
10
0.8025
20
0.822940399562
11
0.8025
21
0.822940399562
0
LINE
5
15C
100
AcDbEntity
8
Layer0
6
ByLayer
62
256
370
-1
100
AcDbLine
10
0.174850736059
20
0.847546924512
11
0.197845944738
21
0.830787124587
0
LINE
5
15D
100
AcDbEntity
8
Layer0
6
ByLayer
62
256
370
-1
100
AcDbLine
10
0.142601477705
20
1.39811605245
11
0.141442804691
21
1.36968494286
0
LINE
5
15E
100
AcDbEntity
8
Layer0
6
ByLayer
62
256
370
-1
100
AcDbLine
10
0.834
20
0.9405
11
0.834
21
0.9405
0
LINE
5
15F
100
AcDbEntity
8
Layer0
6
ByLayer
62
256
370
-1
100
AcDbLine
10
0.789452272785
20
0.922047727215
11
0.779440399562
21
0.909
0
LINE
5
160
100
AcDbEntity
8
Layer0
6
ByLayer
62
256
370
-1
100
AcDbLine
10
0.850305599841
20
1.36764667294
11
0.8655
21
1.37394039956
0
LINE
5
161
100
AcDbEntity
8
Layer0
6
ByLayer
62
256
370
-1
100
AcDbLine
10
0.355950001051
20
0.900895366095
11
0.355950001051
21
0.900895366095
0
LINE
5
162
100
AcDbEntity
8
Layer0
6
ByLayer
62
256
370
-1
100
AcDbLine
10
0.834
20
1.4915
11
0.817694400159
21
1.48935332706
0
LINE
5
163
100
AcDbEntity
8
Layer0
6
ByLayer
62
256
370
-1
100
AcDbLine
10
0.259815057142
20
1.27094280469
11
0.259815057142
21
1.27094280469
0
LINE
5
164
100
AcDbEntity
8
Layer0
6
ByLayer
62
256
370
-1
100
AcDbLine
10
0.259815057142
20
1.27094280469
11
0.287577286809
21
1.27718212514
0
LINE
5
165
100
AcDbEntity
8
Layer0
6
ByLayer
62
256
370
-1
100
AcDbLine
10
0.33910576033
20
1.44227868648
11
0.319821235486
21
1.46320182241
0
LINE
5
166
100
AcDbEntity
8
Layer0
6
ByLayer
62
256
370
-1
100
AcDbLine
10
0.789452272785
20
0.832952272785
11
0.789452272785
21
0.832952272785
0
LINE
5
167
100
AcDbEntity
8
Layer0
6
ByLayer
62
256
370
-1
100
AcDbLine
10
0.894853327056
20
0.861194400159
11
0.897
21
0.8775
0
LINE
5
168
100
AcDbEntity
8
Layer0
6
ByLayer
62
256
370
-1
100
AcDbLine
10
0.894853327056
20
1.41219440016
11
0.897
21
1.4285
0
LINE
5
169
100
AcDbEntity
8
Layer0
6
ByLayer
62
256
370
-1
100
AcDbLine
10
0.897
20
1.4285
11
0.897
21
1.4285
0
LINE
5
16A
100
AcDbEntity
8
Layer0
6
ByLayer
62
256
370
-1
100
AcDbLine
10
0.894853327056
20
1.41219440016
11
0.894853327056
21
1.41219440016
0
LINE
5
16B
100
AcDbEntity
8
Layer0
6
ByLayer
62
256
370
-1
100
AcDbLine
10
0.773146672944
20
1.44480559984
11
0.773146672944
21
1.44480559984
0
LINE
5
16C
100
AcDbEntity
8
Layer0
6
ByLayer
62
256
370
-1
100
AcDbLine
10
0.888559600438
20
0.909
11
0.878547727215
21
0.922047727215
0
LINE
5
16D
100
AcDbEntity
8
Layer0
6
ByLayer
62
256
370
-1
100
AcDbLine
10
0.878547727215
20
0.922047727215
11
0.878547727215
21
0.922047727215
0
LINE
5
16E
100
AcDbEntity
8
Layer0
6
ByLayer
62
256
370
-1
100
AcDbLine
10
0.888559600438
20
0.909
11
0.878547727215
21
0.922047727215
0
LINE
5
16F
100
AcDbEntity
8
Layer0
6
ByLayer
62
256
370
-1
100
AcDbLine
10
0.888559600438
20
0.909
11
0.888559600438
21
0.909
0
LINE
5
170
100
AcDbEntity
8
Layer0
6
ByLayer
62
256
370
-1
100
AcDbLine
10
0.358557195309
20
1.38931505714
11
0.358557195309
21
1.38931505714
0
LINE
5
171
100
AcDbEntity
8
Layer0
6
ByLayer
62
256
370
-1
100
AcDbLine
10
0.141442804691
20
1.36968494286
11
0.147682125139
21
1.34192271319
0
LINE
5
172
100
AcDbEntity
8
Layer0
6
ByLayer
62
256
370
-1
100
AcDbLine
10
0.354557709393
20
0.957300737109
11
0.354557709393
21
0.957300737109
0
LINE
5
173
100
AcDbEntity
8
Layer0
6
ByLayer
62
256
370
-1
100
AcDbLine
10
0.897
20
0.8775
11
0.894853327056
21
0.893805599842
0
LINE
5
174
100
AcDbEntity
8
Layer0
6
ByLayer
62
256
370
-1
100
AcDbLine
10
0.144049998949
20
0.952104633905
11
0.141033190793
21
0.923810299061
0
LINE
5
175
100
AcDbEntity
8
Layer0
6
ByLayer
62
256
370
-1
100
AcDbLine
10
0.888559600438
20
0.846
11
0.894853327056
21
0.861194400159
0
LINE
5
176
100
AcDbEntity
8
Layer0
6
ByLayer
62
256
370
-1
100
AcDbLine
10
0.817694400159
20
1.48935332706
11
0.817694400159
21
1.48935332706
0
LINE
5
177
100
AcDbEntity
8
Layer0
6
ByLayer
62
256
370
-1
100
AcDbLine
10
0.834
20
1.4915
11
0.817694400159
21
1.48935332706
0
LINE
5
178
100
AcDbEntity
8
Layer0
6
ByLayer
62
256
370
-1
100
AcDbLine
10
0.834
20
1.4915
11
0.834
21
1.4915
0
LINE
5
179
100
AcDbEntity
8
Layer0
6
ByLayer
62
256
370
-1
100
AcDbLine
10
0.817694400158
20
0.938353327056
11
0.8025
21
0.932059600438
0
LINE
5
17A
100
AcDbEntity
8
Layer0
6
ByLayer
62
256
370
-1
100
AcDbLine
10
0.306812753946
20
0.833476825527
11
0.306812753946
21
0.833476825527
0
LINE
5
17B
100
AcDbEntity
8
Layer0
6
ByLayer
62
256
370
-1
100
AcDbLine
10
0.306812753946
20
0.833476825527
11
0.328953075488
21
0.851350736059
0
LINE
5
17C
100
AcDbEntity
8
Layer0
6
ByLayer
62
256
370
-1
100
AcDbLine
10
0.328953075488
20
0.851350736059
11
0.328953075488
21
0.851350736059
0
LINE
5
17D
100
AcDbEntity
8
Layer0
6
ByLayer
62
256
370
-1
100
AcDbLine
10
0.295778508829
20
1.47842081747
11
0.295778508829
21
1.47842081747
0
LINE
5
17E
100
AcDbEntity
8
Layer0
6
ByLayer
62
256
370
-1
100
AcDbLine
10
0.897
20
0.8775
11
0.897
21
0.8775
0
LINE
5
17F
100
AcDbEntity
8
Layer0
6
ByLayer
62
256
370
-1
100
AcDbLine
10
0.817694400158
20
0.816646672944
11
0.834
21
0.8145
0
LINE
5
180
100
AcDbEntity
8
Layer0
6
ByLayer
62
256
370
-1
100
AcDbLine
10
0.888559600438
20
1.46
11
0.878547727215
21
1.47304772721
0
LINE
5
181
100
AcDbEntity
8
Layer0
6
ByLayer
62
256
370
-1
100
AcDbLine
10
0.779440399562
20
0.846
11
0.789452272785
21
0.832952272785
0
LINE
5
182
100
AcDbEntity
8
Layer0
6
ByLayer
62
256
370
-1
100
AcDbLine
10
0.212422713191
20
1.48181787486
11
0.187221313521
21
1.46860576033
0
LINE
5
183
100
AcDbEntity
8
Layer0
6
ByLayer
62
256
370
-1
100
AcDbLine
10
0.193187246054
20
1.01952317447
11
0.171046924512
21
1.00164926394
0
LINE
5
184
100
AcDbEntity
8
Layer0
6
ByLayer
62
256
370
-1
100
AcDbLine
10
0.817694400158
20
0.816646672944
11
0.834
21
0.8145
0
LINE
5
185
100
AcDbEntity
8
Layer0
6
ByLayer
62
256
370
-1
100
AcDbLine
10
0.834
20
0.8145
11
0.834
21
0.8145
0
LINE
5
186
100
AcDbEntity
8
Layer0
6
ByLayer
62
256
370
-1
100
AcDbLine
10
0.817694400158
20
0.816646672944
11
0.817694400158
21
0.816646672944
0
LINE
5
187
100
AcDbEntity
8
Layer0
6
ByLayer
62
256
370
-1
100
AcDbLine
10
0.878547727215
20
1.38395227279
11
0.888559600438
21
1.397
0
LINE
5
188
100
AcDbEntity
8
Layer0
6
ByLayer
62
256
370
-1
100
AcDbLine
10
0.888559600438
20
1.397
11
0.888559600438
21
1.397
0
LINE
5
189
100
AcDbEntity
8
Layer0
6
ByLayer
62
256
370
-1
100
AcDbLine
10
0.878547727215
20
1.38395227279
11
0.878547727215
21
1.38395227279
0
LINE
5
18A
100
AcDbEntity
8
Layer0
6
ByLayer
62
256
370
-1
100
AcDbLine
10
0.193187246054
20
1.01952317447
11
0.171046924512
21
1.00164926394
0
LINE
5
18B
100
AcDbEntity
8
Layer0
6
ByLayer
62
256
370
-1
100
AcDbLine
10
0.141033190793
20
0.923810299061
11
0.141033190793
21
0.923810299061
0
LINE
5
18C
100
AcDbEntity
8
Layer0
6
ByLayer
62
256
370
-1
100
AcDbLine
10
0.771
20
1.4285
11
0.771
21
1.4285
0
LINE
5
18D
100
AcDbEntity
8
Layer0
6
ByLayer
62
256
370
-1
100
AcDbLine
10
0.834
20
1.3655
11
0.850305599841
21
1.36764667294
0
LINE
5
18E
100
AcDbEntity
8
Layer0
6
ByLayer
62
256
370
-1
100
AcDbLine
10
0.325149263941
20
1.00545307549
11
0.325149263941
21
1.00545307549
0
LINE
5
18F
100
AcDbEntity
8
Layer0
6
ByLayer
62
256
370
-1
100
AcDbLine
10
0.319821235486
20
1.46320182241
11
0.295778508829
21
1.47842081747
0
LINE
5
190
100
AcDbEntity
8
Layer0
6
ByLayer
62
256
370
-1
100
AcDbLine
10
0.25
20
0.817819972997
11
0.252689700939
21
0.817533190793
0
LINE
5
191
100
AcDbEntity
8
Layer0
6
ByLayer
62
256
370
-1
100
AcDbLine
10
0.779440399562
20
0.909
11
0.779440399562
21
0.909
0
LINE
5
192
100
AcDbEntity
8
Layer0
6
ByLayer
62
256
370
-1
100
AcDbLine
10
0.25
20
0.817819972997
11
0.25
21
0.817819972997
0
LINE
5
193
100
AcDbEntity
8
Layer0
6
ByLayer
62
256
370
-1
100
AcDbLine
10
0.141442804691
20
1.36968494286
11
0.147682125139
21
1.34192271319
0
LINE
5
194
100
AcDbEntity
8
Layer0
6
ByLayer
62
256
370
-1
100
AcDbLine
10
0.888559600438
20
1.397
11
0.894853327056
21
1.41219440016
0
LINE
5
195
100
AcDbEntity
8
Layer0
6
ByLayer
62
256
370
-1
100
AcDbLine
10
0.789452272785
20
1.47304772721
11
0.779440399562
21
1.46
0
LINE
5
196
100
AcDbEntity
8
Layer0
6
ByLayer
62
256
370
-1
100
AcDbLine
10
0.240184942858
20
1.48805719531
11
0.240184942858
21
1.48805719531
0
LINE
5
197
100
AcDbEntity
8
Layer0
6
ByLayer
62
256
370
-1
100
AcDbLine
10
0.325149263941
20
1.00545307549
11
0.302154055262
21
1.02221287541
0
LINE
5
198
100
AcDbEntity
8
Layer0
6
ByLayer
62
256
370
-1
100
AcDbLine
10
0.8025
20
0.932059600438
11
0.789452272785
21
0.922047727215
0
LINE
5
199
100
AcDbEntity
8
Layer0
6
ByLayer
62
256
370
-1
100
AcDbLine
10
0.145442290607
20
0.895699262891
11
0.156976825527
21
0.869687246054
0
LINE
5
19A
100
AcDbEntity
8
Layer0
6
ByLayer
62
256
370
-1
100
AcDbLine
10
0.789452272785
20
1.47304772721
11
0.789452272785
21
1.47304772721
0
LINE
5
19B
100
AcDbEntity
8
Layer0
6
ByLayer
62
256
370
-1
100
AcDbLine
10
0.878547727215
20
0.832952272785
11
0.888559600438
21
0.846
0
LINE
5
19C
100
AcDbEntity
8
Layer0
6
ByLayer
62
256
370
-1
100
AcDbLine
10
0.888559600438
20
0.846
11
0.888559600438
21
0.846
0
LINE
5
19D
100
AcDbEntity
8
Layer0
6
ByLayer
62
256
370
-1
100
AcDbLine
10
0.878547727215
20
0.832952272785
11
0.888559600438
21
0.846
0
LINE
5
19E
100
AcDbEntity
8
Layer0
6
ByLayer
62
256
370
-1
100
AcDbLine
10
0.779440399562
20
1.397
11
0.789452272785
21
1.38395227279
0
LINE
5
19F
100
AcDbEntity
8
Layer0
6
ByLayer
62
256
370
-1
100
AcDbLine
10
0.348920817472
20
1.33372149117
11
0.357398522295
21
1.36088394755
0
LINE
5
1A0
100
AcDbEntity
8
Layer0
6
ByLayer
62
256
370
-1
100
AcDbLine
10
0.8025
20
1.37394039956
11
0.817694400159
21
1.36764667294
0
LINE
5
1A1
100
AcDbEntity
8
Layer0
6
ByLayer
62
256
370
-1
100
AcDbLine
10
0.355950001051
20
0.900895366095
11
0.358966809207
21
0.929189700939
0
LINE
5
1A2
100
AcDbEntity
8
Layer0
6
ByLayer
62
256
370
-1
100
AcDbLine
10
0.355950001051
20
0.900895366095
11
0.358966809207
21
0.929189700939
0
LINE
5
1A3
100
AcDbEntity
8
Layer0
6
ByLayer
62
256
370
-1
100
AcDbLine
10
0.358966809207
20
0.929189700939
11
0.358966809207
21
0.929189700939
0
LINE
5
1A4
100
AcDbEntity
8
Layer0
6
ByLayer
62
256
370
-1
100
AcDbLine
10
0.275604633905
20
1.03245000105
11
0.25
21
1.035180027
0
LINE
5
1A5
100
AcDbEntity
8
Layer0
6
ByLayer
62
256
370
-1
100
AcDbLine
10
0.147682125139
20
1.34192271319
11
0.16089423967
21
1.31672131352
0
LINE
5
1A6
100
AcDbEntity
8
Layer0
6
ByLayer
62
256
370
-1
100
AcDbLine
10
0.894853327056
20
0.893805599842
11
0.888559600438
21
0.909
0
LINE
5
1A7
100
AcDbEntity
8
Layer0
6
ByLayer
62
256
370
-1
100
AcDbLine
10
0.25
20
1.035180027
11
0.247310299061
21
1.03546680921
0
LINE
5
1A8
100
AcDbEntity
8
Layer0
6
ByLayer
62
256
370
-1
100
AcDbLine
10
0.888559600438
20
0.846
11
0.894853327056
21
0.861194400159
0
LINE
5
1A9
100
AcDbEntity
8
Layer0
6
ByLayer
62
256
370
-1
100
AcDbLine
10
0.259815057142
20
1.27094280469
11
0.287577286809
21
1.27718212514
0
LINE
5
1AA
100
AcDbEntity
8
Layer0
6
ByLayer
62
256
370
-1
100
AcDbLine
10
0.197845944738
20
0.830787124587
11
0.224395366095
21
0.820549998949
0
LINE
5
1AB
100
AcDbEntity
8
Layer0
6
ByLayer
62
256
370
-1
100
AcDbLine
10
0.240184942858
20
1.48805719531
11
0.212422713191
21
1.48181787486
0
LINE
5
1AC
100
AcDbEntity
8
Layer0
6
ByLayer
62
256
370
-1
100
AcDbLine
10
0.5
20
1.606
11
8.04911692853e-16
21
1.606
0
LINE
5
1AD
100
AcDbEntity
8
Layer0
6
ByLayer
62
256
370
-1
100
AcDbLine
10
0.888559600438
20
1.46
11
0.878547727215
21
1.47304772721
0
LINE
5
1AE
100
AcDbEntity
8
Layer0
6
ByLayer
62
256
370
-1
100
AcDbLine
10
0.166298177587
20
1.44932123549
11
0.151079182528
21
1.42527850883
0
LINE
5
1AF
100
AcDbEntity
8
Layer0
6
ByLayer
62
256
370
-1
100
AcDbLine
10
0.817694400159
20
1.48935332706
11
0.8025
21
1.48305960044
0
LINE
5
1B0
100
AcDbEntity
8
Layer0
6
ByLayer
62
256
370
-1
100
AcDbLine
10
0.358966809207
20
0.929189700939
11
0.354557709393
21
0.957300737109
0
LINE
5
1B1
100
AcDbEntity
8
Layer0
6
ByLayer
62
256
370
-1
100
AcDbLine
10
0.8025
20
0.932059600438
11
0.8025
21
0.932059600438
0
LINE
5
1B2
100
AcDbEntity
8
Layer0
6
ByLayer
62
256
370
-1
100
AcDbLine
10
0.180178764514
20
1.29579817759
11
0.204221491171
21
1.28057918253
0
LINE
5
1B3
100
AcDbEntity
8
Layer0
6
ByLayer
62
256
370
-1
100
AcDbLine
10
0.141442804691
20
1.36968494286
11
0.141442804691
21
1.36968494286
0
LINE
5
1B4
100
AcDbEntity
8
Layer0
6
ByLayer
62
256
370
-1
100
AcDbLine
10
0.147682125139
20
1.34192271319
11
0.147682125139
21
1.34192271319
0
LINE
5
1B5
100
AcDbEntity
8
Layer0
6
ByLayer
62
256
370
-1
100
AcDbLine
10
0.8025
20
1.37394039956
11
0.817694400159
21
1.36764667294
0
LINE
5
1B6
100
AcDbEntity
8
Layer0
6
ByLayer
62
256
370
-1
100
AcDbLine
10
0.817694400159
20
1.36764667294
11
0.817694400159
21
1.36764667294
0
LINE
5
1B7
100
AcDbEntity
8
Layer0
6
ByLayer
62
256
370
-1
100
AcDbLine
10
0.8025
20
1.37394039956
11
0.8025
21
1.37394039956
0
LINE
5
1B8
100
AcDbEntity
8
Layer0
6
ByLayer
62
256
370
-1
100
AcDbLine
10
0.817694400159
20
1.36764667294
11
0.834
21
1.3655
0
LINE
5
1B9
100
AcDbEntity
8
Layer0
6
ByLayer
62
256
370
-1
100
AcDbLine
10
0.834
20
1.3655
11
0.834
21
1.3655
0
LINE
5
1BA
100
AcDbEntity
8
Layer0
6
ByLayer
62
256
370
-1
100
AcDbLine
10
0.156976825527
20
0.869687246054
11
0.174850736059
21
0.847546924512
0
LINE
5
1BB
100
AcDbEntity
8
Layer0
6
ByLayer
62
256
370
-1
100
AcDbLine
10
0.354557709393
20
0.957300737109
11
0.343023174473
21
0.983312753946
0
LINE
5
1BC
100
AcDbEntity
8
Layer0
6
ByLayer
62
256
370
-1
100
AcDbLine
10
0.212422713191
20
1.48181787486
11
0.212422713191
21
1.48181787486
0
LINE
5
1BD
100
AcDbEntity
8
Layer0
6
ByLayer
62
256
370
-1
100
AcDbLine
10
0.8655
20
0.932059600438
11
0.850305599841
21
0.938353327056
0
LINE
5
1BE
100
AcDbEntity
8
Layer0
6
ByLayer
62
256
370
-1
100
AcDbLine
10
0.240184942858
20
1.48805719531
11
0.212422713191
21
1.48181787486
0
LINE
5
1BF
100
AcDbEntity
8
Layer0
6
ByLayer
62
256
370
-1
100
AcDbLine
10
0.25
20
1.48765719538
11
0.240184942858
21
1.48805719531
0
LINE
5
1C0
100
AcDbEntity
8
Layer0
6
ByLayer
62
256
370
-1
100
AcDbLine
10
0.25
20
1.48765719538
11
0.25
21
1.48765719538
0
LINE
5
1C1
100
AcDbEntity
8
Layer0
6
ByLayer
62
256
370
-1
100
AcDbLine
10
0.268616052448
20
1.4868985223
11
0.25
21
1.48765719538
0
LINE
5
1C2
100
AcDbEntity
8
Layer0
6
ByLayer
62
256
370
-1
100
AcDbLine
10
0.268616052448
20
1.4868985223
11
0.268616052448
21
1.4868985223
0
LINE
5
1C3
100
AcDbEntity
8
Layer0
6
ByLayer
62
256
370
-1
100
AcDbLine
10
0.268616052448
20
1.4868985223
11
0.25
21
1.48765719538
0
LINE
5
1C4
100
AcDbEntity
8
Layer0
6
ByLayer
62
256
370
-1
100
AcDbLine
10
0.8655
20
1.37394039956
11
0.878547727215
21
1.38395227279
0
LINE
5
1C5
100
AcDbEntity
8
Layer0
6
ByLayer
62
256
370
-1
100
AcDbLine
10
1.269
20
0.7
11
0.5
21
0.7
0
LINE
5
1C6
100
AcDbEntity
8
Layer0
6
ByLayer
62
256
370
-1
100
AcDbLine
10
1.269
20
1.606
11
1.269
21
0.7
0
LINE
5
1C7
100
AcDbEntity
8
Layer0
6
ByLayer
62
256
370
-1
100
AcDbLine
10
0.771
20
1.4285
11
0.773146672944
21
1.41219440016
0
LINE
5
1C8
100
AcDbEntity
8
Layer0
6
ByLayer
62
256
370
-1
100
AcDbLine
10
0.773146672944
20
1.44480559984
11
0.771
21
1.4285
0
LINE
5
1C9
100
AcDbEntity
8
Layer0
6
ByLayer
62
256
370
-1
100
AcDbLine
10
0.779440399562
20
1.46
11
0.773146672944
21
1.44480559984
0
LINE
5
1CA
100
AcDbEntity
8
Layer0
6
ByLayer
62
256
370
-1
100
AcDbLine
10
0.789452272785
20
1.47304772721
11
0.779440399562
21
1.46
0
LINE
5
1CB
100
AcDbEntity
8
Layer0
6
ByLayer
62
256
370
-1
100
AcDbLine
10
0.8025
20
1.48305960044
11
0.789452272785
21
1.47304772721
0
LINE
5
1CC
100
AcDbEntity
8
Layer0
6
ByLayer
62
256
370
-1
100
AcDbLine
10
0.850305599841
20
1.48935332706
11
0.834
21
1.4915
0
LINE
5
1CD
100
AcDbEntity
8
Layer0
6
ByLayer
62
256
370
-1
100
AcDbLine
10
0.8655
20
1.48305960044
11
0.850305599841
21
1.48935332706
0
LINE
5
1CE
100
AcDbEntity
8
Layer0
6
ByLayer
62
256
370
-1
100
AcDbLine
10
0.878547727215
20
1.47304772721
11
0.8655
21
1.48305960044
0
LINE
5
1CF
100
AcDbEntity
8
Layer0
6
ByLayer
62
256
370
-1
100
AcDbLine
10
0.894853327056
20
1.44480559984
11
0.888559600438
21
1.46
0
LINE
5
1D0
100
AcDbEntity
8
Layer0
6
ByLayer
62
256
370
-1
100
AcDbLine
10
0.897
20
1.4285
11
0.894853327056
21
1.44480559984
0
LINE
5
1D1
100
AcDbEntity
8
Layer0
6
ByLayer
62
256
370
-1
100
AcDbLine
10
0.834
20
1.3655
11
0.850305599841
21
1.36764667294
0
LINE
5
1D2
100
AcDbEntity
8
Layer0
6
ByLayer
62
256
370
-1
100
AcDbLine
10
0.789452272785
20
1.38395227279
11
0.8025
21
1.37394039956
0
LINE
5
1D3
100
AcDbEntity
8
Layer0
6
ByLayer
62
256
370
-1
100
AcDbLine
10
0.779440399562
20
1.397
11
0.789452272785
21
1.38395227279
0
LINE
5
1D4
100
AcDbEntity
8
Layer0
6
ByLayer
62
256
370
-1
100
AcDbLine
10
0.773146672944
20
1.41219440016
11
0.779440399562
21
1.397
0
LINE
5
1D5
100
AcDbEntity
8
Layer0
6
ByLayer
62
256
370
-1
100
AcDbLine
10
0.771
20
0.8775
11
0.773146672944
21
0.861194400159
0
LINE
5
1D6
100
AcDbEntity
8
Layer0
6
ByLayer
62
256
370
-1
100
AcDbLine
10
0.773146672944
20
0.893805599842
11
0.771
21
0.8775
0
LINE
5
1D7
100
AcDbEntity
8
Layer0
6
ByLayer
62
256
370
-1
100
AcDbLine
10
0.779440399562
20
0.909
11
0.773146672944
21
0.893805599842
0
LINE
5
1D8
100
AcDbEntity
8
Layer0
6
ByLayer
62
256
370
-1
100
AcDbLine
10
0.789452272785
20
0.922047727215
11
0.779440399562
21
0.909
0
LINE
5
1D9
100
AcDbEntity
8
Layer0
6
ByLayer
62
256
370
-1
100
AcDbLine
10
0.834
20
0.9405
11
0.817694400158
21
0.938353327056
0
LINE
5
1DA
100
AcDbEntity
8
Layer0
6
ByLayer
62
256
370
-1
100
AcDbLine
10
0.850305599841
20
0.938353327056
11
0.834
21
0.9405
0
LINE
5
1DB
100
AcDbEntity
8
Layer0
6
ByLayer
62
256
370
-1
100
AcDbLine
10
0.878547727215
20
0.922047727215
11
0.8655
21
0.932059600438
0
LINE
5
1DC
100
AcDbEntity
8
Layer0
6
ByLayer
62
256
370
-1
100
AcDbLine
10
0.894853327056
20
0.893805599842
11
0.888559600438
21
0.909
0
LINE
5
1DD
100
AcDbEntity
8
Layer0
6
ByLayer
62
256
370
-1
100
AcDbLine
10
0.850305599841
20
0.816646672944
11
0.8655
21
0.822940399562
0
LINE
5
1DE
100
AcDbEntity
8
Layer0
6
ByLayer
62
256
370
-1
100
AcDbLine
10
0.834
20
0.8145
11
0.850305599841
21
0.816646672944
0
LINE
5
1DF
100
AcDbEntity
8
Layer0
6
ByLayer
62
256
370
-1
100
AcDbLine
10
0.8025
20
0.822940399562
11
0.817694400158
21
0.816646672944
0
LINE
5
1E0
100
AcDbEntity
8
Layer0
6
ByLayer
62
256
370
-1
100
AcDbLine
10
0.789452272785
20
0.832952272785
11
0.8025
21
0.822940399562
0
LINE
5
1E1
100
AcDbEntity
8
Layer0
6
ByLayer
62
256
370
-1
100
AcDbLine
10
0.779440399562
20
0.846
11
0.789452272785
21
0.832952272785
0
LINE
5
1E2
100
AcDbEntity
8
Layer0
6
ByLayer
62
256
370
-1
100
AcDbLine
10
0.773146672944
20
0.861194400159
11
0.779440399562
21
0.846
0
LINE
5
1E3
100
AcDbEntity
8
Layer0
6
ByLayer
62
256
370
-1
100
AcDbLine
10
0.897
20
0.8775
11
0.894853327056
21
0.893805599842
0
LINE
5
1E4
100
AcDbEntity
8
Layer0
6
ByLayer
62
256
370
-1
100
AcDbLine
10
0.231383947552
20
1.2721014777
11
0.25
21
1.27134280462
0
LINE
5
1E5
100
AcDbEntity
8
Layer0
6
ByLayer
62
256
370
-1
100
AcDbLine
10
0.252689700939
20
0.817533190793
11
0.280800737109
21
0.821942290607
0
LINE
5
1E6
100
AcDbEntity
8
Layer0
6
ByLayer
62
256
370
-1
100
AcDbLine
10
0.252689700939
20
0.817533190793
11
0.252689700939
21
0.817533190793
0
LINE
5
1E7
100
AcDbEntity
8
Layer0
6
ByLayer
62
256
370
-1
100
AcDbLine
10
0.358557195309
20
1.38931505714
11
0.352317874861
21
1.41707728681
0
LINE
5
1E8
100
AcDbEntity
8
Layer0
6
ByLayer
62
256
370
-1
100
AcDbLine
10
0.358966809207
20
0.929189700939
11
0.354557709393
21
0.957300737109
0
LINE
5
1E9
100
AcDbEntity
8
Layer0
6
ByLayer
62
256
370
-1
100
AcDbLine
10
0.302154055262
20
1.02221287541
11
0.302154055262
21
1.02221287541
0
LINE
5
1EA
100
AcDbEntity
8
Layer0
6
ByLayer
62
256
370
-1
100
AcDbLine
10
0.779440399562
20
0.846
11
0.779440399562
21
0.846
0
LINE
5
1EB
100
AcDbEntity
8
Layer0
6
ByLayer
62
256
370
-1
100
AcDbLine
10
0.894853327056
20
1.44480559984
11
0.894853327056
21
1.44480559984
0
LINE
5
1EC
100
AcDbEntity
8
Layer0
6
ByLayer
62
256
370
-1
100
AcDbLine
10
0.8655
20
1.48305960044
11
0.8655
21
1.48305960044
0
LINE
5
1ED
100
AcDbEntity
8
Layer0
6
ByLayer
62
256
370
-1
100
AcDbLine
10
0.343023174473
20
0.983312753946
11
0.343023174473
21
0.983312753946
0
LINE
5
1EE
100
AcDbEntity
8
Layer0
6
ByLayer
62
256
370
-1
100
AcDbLine
10
0.771
20
0.8775
11
0.773146672944
21
0.861194400159
0
LINE
5
1EF
100
AcDbEntity
8
Layer0
6
ByLayer
62
256
370
-1
100
AcDbLine
10
0.319821235486
20
1.46320182241
11
0.319821235486
21
1.46320182241
0
LINE
5
1F0
100
AcDbEntity
8
Layer0
6
ByLayer
62
256
370
-1
100
AcDbLine
10
0.231383947552
20
1.2721014777
11
0.231383947552
21
1.2721014777
0
LINE
5
1F1
100
AcDbEntity
8
Layer0
6
ByLayer
62
256
370
-1
100
AcDbLine
10
0.166298177587
20
1.44932123549
11
0.166298177587
21
1.44932123549
0
LINE
5
1F2
100
AcDbEntity
8
Layer0
6
ByLayer
62
256
370
-1
100
AcDbLine
10
0.312778686479
20
1.29039423967
11
0.333701822413
21
1.30967876451
0
LINE
5
1F3
100
AcDbEntity
8
Layer0
6
ByLayer
62
256
370
-1
100
AcDbLine
10
0.773146672944
20
0.893805599842
11
0.773146672944
21
0.893805599842
0
LINE
5
1F4
100
AcDbEntity
8
Layer0
6
ByLayer
62
256
370
-1
100
AcDbLine
10
0.789452272785
20
0.922047727215
11
0.789452272785
21
0.922047727215
0
LINE
5
1F5
100
AcDbEntity
8
Layer0
6
ByLayer
62
256
370
-1
100
AcDbLine
10
0.789452272785
20
0.832952272785
11
0.8025
21
0.822940399562
0
LINE
5
1F6
100
AcDbEntity
8
Layer0
6
ByLayer
62
256
370
-1
100
AcDbLine
10
0.348920817472
20
1.33372149117
11
0.348920817472
21
1.33372149117
0
LINE
5
1F7
100
AcDbEntity
8
Layer0
6
ByLayer
62
256
370
-1
100
AcDbLine
10
0.348920817472
20
1.33372149117
11
0.357398522295
21
1.36088394755
0
LINE
5
1F8
100
AcDbEntity
8
Layer0
6
ByLayer
62
256
370
-1
100
AcDbLine
10
0.357398522295
20
1.36088394755
11
0.357398522295
21
1.36088394755
0
LINE
5
1F9
100
AcDbEntity
8
Layer0
6
ByLayer
62
256
370
-1
100
AcDbLine
10
0.850305599841
20
0.816646672944
11
0.850305599841
21
0.816646672944
0
LINE
5
1FA
100
AcDbEntity
8
Layer0
6
ByLayer
62
256
370
-1
100
AcDbLine
10
0.834
20
0.8145
11
0.850305599841
21
0.816646672944
0
LINE
5
1FB
100
AcDbEntity
8
Layer0
6
ByLayer
62
256
370
-1
100
AcDbLine
10
0.779440399562
20
1.46
11
0.773146672944
21
1.44480559984
0
LINE
5
1FC
100
AcDbEntity
8
Layer0
6
ByLayer
62
256
370
-1
100
AcDbLine
10
0.779440399562
20
1.46
11
0.779440399562
21
1.46
0
LINE
5
1FD
100
AcDbEntity
8
Layer0
6
ByLayer
62
256
370
-1
100
AcDbLine
10
0.8025
20
1.48305960044
11
0.789452272785
21
1.47304772721
0
LINE
5
1FE
100
AcDbEntity
8
Layer0
6
ByLayer
62
256
370
-1
100
AcDbLine
10
0.773146672944
20
0.893805599842
11
0.771
21
0.8775
0
LINE
5
1FF
100
AcDbEntity
8
Layer0
6
ByLayer
62
256
370
-1
100
AcDbLine
10
0.171046924512
20
1.00164926394
11
0.154287124587
21
0.978654055262
0
LINE
5
200
100
AcDbEntity
8
Layer0
6
ByLayer
62
256
370
-1
100
AcDbLine
10
0.171046924512
20
1.00164926394
11
0.171046924512
21
1.00164926394
0
LINE
5
201
100
AcDbEntity
8
Layer0
6
ByLayer
62
256
370
-1
100
AcDbLine
10
0.171046924512
20
1.00164926394
11
0.154287124587
21
0.978654055262
0
LINE
5
202
100
AcDbEntity
8
Layer0
6
ByLayer
62
256
370
-1
100
AcDbLine
10
0.154287124587
20
0.978654055262
11
0.154287124587
21
0.978654055262
0
LINE
5
203
100
AcDbEntity
8
Layer0
6
ByLayer
62
256
370
-1
100
AcDbLine
10
0.141033190793
20
0.923810299061
11
0.145442290607
21
0.895699262891
0
LINE
5
204
100
AcDbEntity
8
Layer0
6
ByLayer
62
256
370
-1
100
AcDbLine
10
0.141033190793
20
0.923810299061
11
0.145442290607
21
0.895699262891
0
LINE
5
205
100
AcDbEntity
8
Layer0
6
ByLayer
62
256
370
-1
100
AcDbLine
10
0.145442290607
20
0.895699262891
11
0.145442290607
21
0.895699262891
0
LINE
5
206
100
AcDbEntity
8
Layer0
6
ByLayer
62
256
370
-1
100
AcDbLine
10
0.789452272785
20
1.38395227279
11
0.8025
21
1.37394039956
0
LINE
5
207
100
AcDbEntity
8
Layer0
6
ByLayer
62
256
370
-1
100
AcDbLine
10
0.789452272785
20
1.38395227279
11
0.789452272785
21
1.38395227279
0
LINE
5
208
100
AcDbEntity
8
Layer0
6
ByLayer
62
256
370
-1
100
AcDbLine
10
0.345712875413
20
0.874345944738
11
0.345712875413
21
0.874345944738
0
LINE
5
209
100
AcDbEntity
8
Layer0
6
ByLayer
62
256
370
-1
100
AcDbLine
10
0.894853327056
20
0.893805599842
11
0.894853327056
21
0.893805599842
0
LINE
5
20A
100
AcDbEntity
8
Layer0
6
ByLayer
62
256
370
-1
100
AcDbLine
10
-8.32667268469e-17
20
0.7
11
8.60422844084e-16
21
1.606
0
LINE
5
20B
100
AcDbEntity
8
Layer0
6
ByLayer
62
256
370
-1
100
AcDbLine
10
0.850305599841
20
0.938353327056
11
0.850305599841
21
0.938353327056
0
LINE
5
20C
100
AcDbEntity
8
Layer0
6
ByLayer
62
256
370
-1
100
AcDbLine
10
0.8655
20
0.932059600438
11
0.8655
21
0.932059600438
0
LINE
5
20D
100
AcDbEntity
8
Layer0
6
ByLayer
62
256
370
-1
100
AcDbLine
10
0.193187246054
20
1.01952317447
11
0.193187246054
21
1.01952317447
0
LINE
5
20E
100
AcDbEntity
8
Layer0
6
ByLayer
62
256
370
-1
100
AcDbLine
10
0.328953075488
20
0.851350736059
11
0.345712875413
21
0.874345944738
0
LINE
5
20F
100
AcDbEntity
8
Layer0
6
ByLayer
62
256
370
-1
100
AcDbLine
10
0.771
20
1.4285
11
0.773146672944
21
1.41219440016
0
LINE
5
210
100
AcDbEntity
8
Layer0
6
ByLayer
62
256
370
-1
100
AcDbLine
10
0.33910576033
20
1.44227868648
11
0.319821235486
21
1.46320182241
0
LINE
5
211
100
AcDbEntity
8
Layer0
6
ByLayer
62
256
370
-1
100
AcDbLine
10
2.77555756156e-17
20
0.7
11
-8.32667268469e-17
21
0.7
0
LINE
5
212
100
AcDbEntity
8
Layer0
6
ByLayer
62
256
370
-1
100
AcDbLine
10
0.5
20
0.7
11
2.77555756156e-17
21
0.7
0
LINE
5
213
100
AcDbEntity
8
Layer0
6
ByLayer
62
256
370
-1
100
AcDbLine
10
1.269
20
0.7
11
0.5
21
0.7
0
LINE
5
214
100
AcDbEntity
8
Layer0
6
ByLayer
62
256
370
-1
100
AcDbLine
10
1.269
20
0.7
11
1.269
21
0.7
0
LINE
5
215
100
AcDbEntity
8
Layer0
6
ByLayer
62
256
370
-1
100
AcDbLine
10
0.295778508829
20
1.47842081747
11
0.268616052448
21
1.4868985223
0
LINE
5
216
100
AcDbEntity
8
Layer0
6
ByLayer
62
256
370
-1
100
AcDbLine
10
0.343023174473
20
0.983312753946
11
0.325149263941
21
1.00545307549
0
LINE
5
217
100
AcDbEntity
8
Layer0
6
ByLayer
62
256
370
-1
100
AcDbLine
10
0.5
20
1.606
11
1.269
21
1.606
0
LINE
5
218
100
AcDbEntity
8
Layer0
6
ByLayer
62
256
370
-1
100
AcDbLine
10
8.60422844084e-16
20
1.606
11
8.04911692853e-16
21
1.606
0
LINE
5
219
100
AcDbEntity
8
Layer0
6
ByLayer
62
256
370
-1
100
AcDbLine
10
0.219199262891
20
1.03105770939
11
0.219199262891
21
1.03105770939
0
LINE
5
21A
100
AcDbEntity
8
Layer0
6
ByLayer
62
256
370
-1
100
AcDbLine
10
0.231383947552
20
1.2721014777
11
0.25
21
1.27134280462
0
LINE
5
21B
100
AcDbEntity
8
Layer0
6
ByLayer
62
256
370
-1
100
AcDbLine
10
0.25
20
1.27134280462
11
0.25
21
1.27134280462
0
LINE
5
21C
100
AcDbEntity
8
Layer0
6
ByLayer
62
256
370
-1
100
AcDbLine
10
0.16089423967
20
1.31672131352
11
0.16089423967
21
1.31672131352
0
LINE
5
21D
100
AcDbEntity
8
Layer0
6
ByLayer
62
256
370
-1
100
AcDbLine
10
0.328953075488
20
0.851350736059
11
0.345712875413
21
0.874345944738
0
LINE
5
21E
100
AcDbEntity
8
Layer0
6
ByLayer
62
256
370
-1
100
AcDbLine
10
0.142601477705
20
1.39811605245
11
0.141442804691
21
1.36968494286
0
LINE
5
21F
100
AcDbEntity
8
Layer0
6
ByLayer
62
256
370
-1
100
AcDbLine
10
0.897
20
1.4285
11
0.894853327056
21
1.44480559984
0
LINE
5
220
100
AcDbEntity
8
Layer0
6
ByLayer
62
256
370
-1
100
AcDbLine
10
0.352317874861
20
1.41707728681
11
0.33910576033
21
1.44227868648
0
LINE
5
221
100
AcDbEntity
8
Layer0
6
ByLayer
62
256
370
-1
100
AcDbLine
10
0.319821235486
20
1.46320182241
11
0.295778508829
21
1.47842081747
0
LINE
5
222
100
AcDbEntity
8
Layer0
6
ByLayer
62
256
370
-1
100
AcDbLine
10
0.325149263941
20
1.00545307549
11
0.302154055262
21
1.02221287541
0
LINE
5
223
100
AcDbEntity
8
Layer0
6
ByLayer
62
256
370
-1
100
AcDbLine
10
0.773146672944
20
0.861194400159
11
0.773146672944
21
0.861194400159
0
LINE
5
224
100
AcDbEntity
8
Layer0
6
ByLayer
62
256
370
-1
100
AcDbLine
10
0.333701822413
20
1.30967876451
11
0.333701822413
21
1.30967876451
0
LINE
5
225
100
AcDbEntity
8
Layer0
6
ByLayer
62
256
370
-1
100
AcDbLine
10
0.174850736059
20
0.847546924512
11
0.174850736059
21
0.847546924512
0
LINE
5
226
100
AcDbEntity
8
Layer0
6
ByLayer
62
256
370
-1
100
AcDbLine
10
0.358557195309
20
1.38931505714
11
0.352317874861
21
1.41707728681
0
LINE
5
227
100
AcDbEntity
8
Layer0
6
ByLayer
62
256
370
-1
100
AcDbLine
10
0.287577286809
20
1.27718212514
11
0.312778686479
21
1.29039423967
0
LINE
5
228
100
AcDbEntity
8
Layer0
6
ByLayer
62
256
370
-1
100
AcDbLine
10
0.850305599841
20
0.816646672944
11
0.8655
21
0.822940399562
0
LINE
5
229
100
AcDbEntity
8
Layer0
6
ByLayer
62
256
370
-1
100
AcDbLine
10
0.779440399562
20
1.397
11
0.779440399562
21
1.397
0
LINE
5
22A
100
AcDbEntity
8
Layer0
6
ByLayer
62
256
370
-1
100
AcDbLine
10
0.151079182528
20
1.42527850883
11
0.142601477705
21
1.39811605245
0
LINE
5
22B
100
AcDbEntity
8
Layer0
6
ByLayer
62
256
370
-1
100
AcDbLine
10
0.144049998949
20
0.952104633905
11
0.141033190793
21
0.923810299061
0
LINE
5
22C
100
AcDbEntity
8
Layer0
6
ByLayer
62
256
370
-1
100
AcDbLine
10
0.144049998949
20
0.952104633905
11
0.144049998949
21
0.952104633905
0
LINE
5
22D
100
AcDbEntity
8
Layer0
6
ByLayer
62
256
370
-1
100
AcDbLine
10
0.333701822413
20
1.30967876451
11
0.348920817472
21
1.33372149117
0
LINE
5
22E
100
AcDbEntity
8
Layer0
6
ByLayer
62
256
370
-1
100
AcDbLine
10
0.894853327056
20
0.861194400159
11
0.894853327056
21
0.861194400159
0
LINE
5
22F
100
AcDbEntity
8
Layer0
6
ByLayer
62
256
370
-1
100
AcDbLine
10
0.154287124587
20
0.978654055262
11
0.144049998949
21
0.952104633905
0
LINE
5
230
100
AcDbEntity
8
Layer0
6
ByLayer
62
256
370
-1
100
AcDbLine
10
0.174850736059
20
0.847546924512
11
0.197845944738
21
0.830787124587
0
LINE
5
231
100
AcDbEntity
8
Layer0
6
ByLayer
62
256
370
-1
100
AcDbLine
10
0.197845944738
20
0.830787124587
11
0.197845944738
21
0.830787124587
0
LINE
5
232
100
AcDbEntity
8
Layer0
6
ByLayer
62
256
370
-1
100
AcDbLine
10
0.850305599841
20
0.938353327056
11
0.834
21
0.9405
0
LINE
5
233
100
AcDbEntity
8
Layer0
6
ByLayer
62
256
370
-1
100
AcDbLine
10
0.180178764514
20
1.29579817759
11
0.204221491171
21
1.28057918253
0
LINE
5
234
100
AcDbEntity
8
Layer0
6
ByLayer
62
256
370
-1
100
AcDbLine
10
0.204221491171
20
1.28057918253
11
0.231383947552
21
1.2721014777
0
LINE
5
235
100
AcDbEntity
8
Layer0
6
ByLayer
62
256
370
-1
100
AcDbLine
10
0.154287124587
20
0.978654055262
11
0.144049998949
21
0.952104633905
0
LINE
5
236
100
AcDbEntity
8
Layer0
6
ByLayer
62
256
370
-1
100
AcDbLine
10
0.850305599841
20
1.48935332706
11
0.834
21
1.4915
0
LINE
5
237
100
AcDbEntity
8
Layer0
6
ByLayer
62
256
370
-1
100
AcDbLine
10
0.151079182528
20
1.42527850883
11
0.142601477705
21
1.39811605245
0
LINE
5
238
100
AcDbEntity
8
Layer0
6
ByLayer
62
256
370
-1
100
AcDbLine
10
0.187221313521
20
1.46860576033
11
0.166298177587
21
1.44932123549
0
LINE
5
239
100
AcDbEntity
8
Layer0
6
ByLayer
62
256
370
-1
100
AcDbLine
10
0.850305599841
20
1.48935332706
11
0.850305599841
21
1.48935332706
0
LINE
5
23A
100
AcDbEntity
8
Layer0
6
ByLayer
62
256
370
-1
100
AcDbLine
10
0.8655
20
1.48305960044
11
0.850305599841
21
1.48935332706
0
LINE
5
23B
100
AcDbEntity
8
Layer0
6
ByLayer
62
256
370
-1
100
AcDbLine
10
0.224395366095
20
0.820549998949
11
0.224395366095
21
0.820549998949
0
LINE
5
23C
100
AcDbEntity
8
Layer0
6
ByLayer
62
256
370
-1
100
AcDbLine
10
0.357398522295
20
1.36088394755
11
0.358557195309
21
1.38931505714
0
LINE
5
23D
100
AcDbEntity
8
Layer0
6
ByLayer
62
256
370
-1
100
AcDbLine
10
0.354557709393
20
0.957300737109
11
0.343023174473
21
0.983312753946
0
LINE
5
23E
100
AcDbEntity
8
Layer0
6
ByLayer
62
256
370
-1
100
AcDbLine
10
0.817694400158
20
0.938353327056
11
0.817694400158
21
0.938353327056
0
LINE
5
23F
100
AcDbEntity
8
Layer0
6
ByLayer
62
256
370
-1
100
AcDbLine
10
0.187221313521
20
1.46860576033
11
0.187221313521
21
1.46860576033
0
LINE
5
240
100
AcDbEntity
8
Layer0
6
ByLayer
62
256
370
-1
100
AcDbLine
10
0.25
20
1.035180027
11
0.25
21
1.035180027
0
LINE
5
241
100
AcDbEntity
8
Layer0
6
ByLayer
62
256
370
-1
100
AcDbLine
10
0.247310299061
20
1.03546680921
11
0.247310299061
21
1.03546680921
0
LINE
5
242
100
AcDbEntity
8
Layer0
6
ByLayer
62
256
370
-1
100
AcDbLine
10
0.773146672944
20
0.861194400159
11
0.779440399562
21
0.846
0
LINE
5
243
100
AcDbEntity
8
Layer0
6
ByLayer
62
256
370
-1
100
AcDbLine
10
0.888559600438
20
1.46
11
0.888559600438
21
1.46
0
LINE
5
244
100
AcDbEntity
8
Layer0
6
ByLayer
62
256
370
-1
100
AcDbLine
10
0.156976825527
20
0.869687246054
11
0.156976825527
21
0.869687246054
0
LINE
5
245
100
AcDbEntity
8
Layer0
6
ByLayer
62
256
370
-1
100
AcDbLine
10
0.8025
20
1.48305960044
11
0.8025
21
1.48305960044
0
LINE
5
246
100
AcDbEntity
8
Layer0
6
ByLayer
62
256
370
-1
100
AcDbLine
10
8.04911692853e-16
20
1.606
11
2.77555756156e-17
21
0.7
0
LINE
5
247
100
AcDbEntity
8
Layer0
6
ByLayer
62
256
370
-1
100
AcDbLine
10
0.224395366095
20
0.820549998949
11
0.25
21
0.817819972997
0
LINE
5
248
100
AcDbEntity
8
Layer0
6
ByLayer
62
256
370
-1
100
AcDbLine
10
0.25
20
0.817819972997
11
0.252689700939
21
0.817533190793
0
LINE
5
249
100
AcDbEntity
8
Layer0
6
ByLayer
62
256
370
-1
100
AcDbLine
10
0.345712875413
20
0.874345944738
11
0.355950001051
21
0.900895366095
0
LINE
5
24A
100
AcDbEntity
8
Layer0
6
ByLayer
62
256
370
-1
100
AcDbLine
10
0.302154055262
20
1.02221287541
11
0.275604633905
21
1.03245000105
0
LINE
5
24B
100
AcDbEntity
8
Layer0
6
ByLayer
62
256
370
-1
100
AcDbLine
10
0.275604633905
20
1.03245000105
11
0.25
21
1.035180027
0
LINE
5
24C
100
AcDbEntity
8
Layer0
6
ByLayer
62
256
370
-1
100
AcDbLine
10
0.247310299061
20
1.03546680921
11
0.219199262891
21
1.03105770939
0
LINE
5
24D
100
AcDbEntity
8
Layer0
6
ByLayer
62
256
370
-1
100
AcDbLine
10
0.219199262891
20
1.03105770939
11
0.193187246054
21
1.01952317447
0
LINE
5
24E
100
AcDbEntity
8
Layer0
6
ByLayer
62
256
370
-1
100
AcDbLine
10
0.145442290607
20
0.895699262891
11
0.156976825527
21
0.869687246054
0
LINE
5
24F
100
AcDbEntity
8
Layer0
6
ByLayer
62
256
370
-1
100
AcDbLine
10
0.156976825527
20
0.869687246054
11
0.174850736059
21
0.847546924512
0
LINE
5
250
100
AcDbEntity
8
Layer0
6
ByLayer
62
256
370
-1
100
AcDbLine
10
0.197845944738
20
0.830787124587
11
0.224395366095
21
0.820549998949
0
LINE
5
251
100
AcDbEntity
8
Layer0
6
ByLayer
62
256
370
-1
100
AcDbLine
10
0.166298177587
20
1.44932123549
11
0.151079182528
21
1.42527850883
0
LINE
5
252
100
AcDbEntity
8
Layer0
6
ByLayer
62
256
370
-1
100
AcDbLine
10
0.147682125139
20
1.34192271319
11
0.16089423967
21
1.31672131352
0
LINE
5
253
100
AcDbEntity
8
Layer0
6
ByLayer
62
256
370
-1
100
AcDbLine
10
0.16089423967
20
1.31672131352
11
0.180178764514
21
1.29579817759
0
LINE
5
254
100
AcDbEntity
8
Layer0
6
ByLayer
62
256
370
-1
100
AcDbLine
10
0.25
20
1.27134280462
11
0.259815057142
21
1.27094280469
0
LINE
5
255
100
AcDbEntity
8
Layer0
6
ByLayer
62
256
370
-1
100
AcDbLine
10
0.287577286809
20
1.27718212514
11
0.312778686479
21
1.29039423967
0
LINE
5
256
100
AcDbEntity
8
Layer0
6
ByLayer
62
256
370
-1
100
AcDbLine
10
0.333701822413
20
1.30967876451
11
0.348920817472
21
1.33372149117
0
LINE
5
257
100
AcDbEntity
8
Layer0
6
ByLayer
62
256
370
-1
100
AcDbLine
10
0.219199262891
20
1.03105770939
11
0.193187246054
21
1.01952317447
0
LINE
5
258
100
AcDbEntity
8
Layer0
6
ByLayer
62
256
370
-1
100
AcDbLine
10
0.773146672944
20
1.41219440016
11
0.779440399562
21
1.397
0
LINE
5
259
100
AcDbEntity
8
Layer0
6
ByLayer
62
256
370
-1
100
AcDbLine
10
0.280800737109
20
0.821942290607
11
0.306812753946
21
0.833476825527
0
LINE
5
25A
100
AcDbEntity
8
Layer0
6
ByLayer
62
256
370
-1
100
AcDbLine
10
0.180178764514
20
1.29579817759
11
0.180178764514
21
1.29579817759
0
LINE
5
25B
100
AcDbEntity
8
Layer0
6
ByLayer
62
256
370
-1
100
AcDbLine
10
0.834
20
0.9405
11
0.817694400158
21
0.938353327056
0
LINE
5
25C
100
AcDbEntity
8
Layer0
6
ByLayer
62
256
370
-1
100
AcDbLine
10
0.888559600438
20
1.397
11
0.894853327056
21
1.41219440016
0
LINE
5
25D
100
AcDbEntity
8
Layer0
6
ByLayer
62
256
370
-1
100
AcDbLine
10
0.878547727215
20
1.47304772721
11
0.878547727215
21
1.47304772721
0
LINE
5
25E
100
AcDbEntity
8
Layer0
6
ByLayer
62
256
370
-1
100
AcDbLine
10
0.204221491171
20
1.28057918253
11
0.204221491171
21
1.28057918253
0
LINE
5
25F
100
AcDbEntity
8
Layer0
6
ByLayer
62
256
370
-1
100
AcDbLine
10
0.204221491171
20
1.28057918253
11
0.231383947552
21
1.2721014777
0
LINE
5
260
100
AcDbEntity
8
Layer0
6
ByLayer
62
256
370
-1
100
AcDbLine
10
0.8655
20
1.37394039956
11
0.8655
21
1.37394039956
0
LINE
5
261
100
AcDbEntity
8
Layer0
6
ByLayer
62
256
370
-1
100
AcDbLine
10
0.151079182528
20
1.42527850883
11
0.151079182528
21
1.42527850883
0
LINE
5
262
100
AcDbEntity
8
Layer0
6
ByLayer
62
256
370
-1
100
AcDbLine
10
0.343023174473
20
0.983312753946
11
0.325149263941
21
1.00545307549
0
LINE
5
263
100
AcDbEntity
8
Layer0
6
ByLayer
62
256
370
-1
100
AcDbLine
10
0.224395366095
20
0.820549998949
11
0.25
21
0.817819972997
0
LINE
5
264
100
AcDbEntity
8
Layer0
6
ByLayer
62
256
370
-1
100
AcDbLine
10
0.247310299061
20
1.03546680921
11
0.219199262891
21
1.03105770939
0
LINE
5
265
100
AcDbEntity
8
Layer0
6
ByLayer
62
256
370
-1
100
AcDbLine
10
0.302154055262
20
1.02221287541
11
0.275604633905
21
1.03245000105
0
LINE
5
266
100
AcDbEntity
8
Layer0
6
ByLayer
62
256
370
-1
100
AcDbLine
10
0.345712875413
20
0.874345944738
11
0.355950001051
21
0.900895366095
0
LINE
5
267
100
AcDbEntity
8
Layer0
6
ByLayer
62
256
370
-1
100
AcDbLine
10
0.25
20
1.27134280462
11
0.259815057142
21
1.27094280469
0
LINE
5
268
100
AcDbEntity
8
Layer0
6
ByLayer
62
256
370
-1
100
AcDbLine
10
0.16089423967
20
1.31672131352
11
0.180178764514
21
1.29579817759
0
LINE
5
269
100
AcDbEntity
8
Layer0
6
ByLayer
62
256
370
-1
100
AcDbLine
10
0.187221313521
20
1.46860576033
11
0.166298177587
21
1.44932123549
0
LINE
5
26A
100
AcDbEntity
8
Layer0
6
ByLayer
62
256
370
-1
100
AcDbLine
10
0.352317874861
20
1.41707728681
11
0.33910576033
21
1.44227868648
0
LINE
5
26B
100
AcDbEntity
8
Layer0
6
ByLayer
62
256
370
-1
100
AcDbLine
10
0.357398522295
20
1.36088394755
11
0.358557195309
21
1.38931505714
0
LINE
5
26C
100
AcDbEntity
8
Layer0
6
ByLayer
62
256
370
-1
100
AcDbLine
10
0.312778686479
20
1.29039423967
11
0.333701822413
21
1.30967876451
0
LINE
5
26D
100
AcDbEntity
8
Layer0
6
ByLayer
62
256
370
-1
100
AcDbLine
10
0.312778686479
20
1.29039423967
11
0.312778686479
21
1.29039423967
0
LINE
5
26E
100
AcDbEntity
8
Layer0
6
ByLayer
62
256
370
-1
100
AcDbLine
10
0.817694400158
20
0.938353327056
11
0.8025
21
0.932059600438
0
LINE
5
26F
100
AcDbEntity
8
Layer0
6
ByLayer
62
256
370
-1
100
AcDbLine
10
0.8025
20
0.822940399562
11
0.817694400158
21
0.816646672944
0
LINE
5
270
100
AcDbEntity
8
Layer0
6
ByLayer
62
256
370
-1
100
AcDbLine
10
0.850305599841
20
1.36764667294
11
0.850305599841
21
1.36764667294
0
LINE
5
271
100
AcDbEntity
8
Layer0
6
ByLayer
62
256
370
-1
100
AcDbLine
10
0.8655
20
1.37394039956
11
0.878547727215
21
1.38395227279
0
LINE
5
272
100
AcDbEntity
8
Layer0
6
ByLayer
62
256
370
-1
100
AcDbLine
10
0.142601477705
20
1.39811605245
11
0.142601477705
21
1.39811605245
0
LINE
5
273
100
AcDbEntity
8
Layer0
6
ByLayer
62
256
370
-1
100
AcDbLine
10
0.771
20
0.8775
11
0.771
21
0.8775
0
LINE
5
274
100
AcDbEntity
8
Layer0
6
ByLayer
62
256
370
-1
100
AcDbLine
10
0.773146672944
20
1.41219440016
11
0.773146672944
21
1.41219440016
0
LINE
5
275
100
AcDbEntity
8
Layer0
6
ByLayer
62
256
370
-1
100
AcDbLine
10
0.275604633905
20
1.03245000105
11
0.275604633905
21
1.03245000105
0
LINE
5
276
100
AcDbEntity
8
Layer0
6
ByLayer
62
256
370
-1
100
AcDbLine
10
0.878547727215
20
0.922047727215
11
0.8655
21
0.932059600438
0
LINE
5
277
100
AcDbEntity
8
Layer0
6
ByLayer
62
256
370
-1
100
AcDbLine
10
0.894853327056
20
1.44480559984
11
0.888559600438
21
1.46
0
LINE
5
278
100
AcDbEntity
8
Layer0
6
ByLayer
62
256
370
-1
100
AcDbLine
10
1.269
20
1.606
11
1.269
21
0.7
0
LINE
5
279
100
AcDbEntity
8
Layer0
6
ByLayer
62
256
370
-1
100
AcDbLine
10
0.773146672944
20
1.44480559984
11
0.771
21
1.4285
0
LINE
5
27A
100
AcDbEntity
8
Layer0
6
ByLayer
62
256
370
-1
100
AcDbLine
10
0.779440399562
20
0.909
11
0.773146672944
21
0.893805599842
0
LINE
5
27B
100
AcDbEntity
8
Layer0
6
ByLayer
62
256
370
-1
100
AcDbLine
10
0.352317874861
20
1.41707728681
11
0.352317874861
21
1.41707728681
0
LINE
5
27C
100
AcDbEntity
8
Layer0
6
ByLayer
62
256
370
-1
100
AcDbLine
10
0.5
20
0.7
11
-8.32667268469e-17
21
0.7
0
LINE
5
27D
100
AcDbEntity
8
Layer0
6
ByLayer
62
256
370
-1
100
AcDbLine
10
0.5
20
0.7
11
0.5
21
0.7
0
LINE
5
27E
100
AcDbEntity
8
Layer0
6
ByLayer
62
256
370
-1
100
AcDbLine
10
0.5
20
1.606
11
0.5
21
1.606
0
LINE
5
27F
100
AcDbEntity
8
Layer0
6
ByLayer
62
256
370
-1
100
AcDbLine
10
0.5
20
0.7
11
0.5
21
1.606
0
LINE
5
280
100
AcDbEntity
8
Layer0
6
ByLayer
62
256
370
-1
100
AcDbLine
10
0.5
20
0.7
11
0.5
21
1.606
0
LINE
5
281
100
AcDbEntity
8
Layer0
6
ByLayer
62
256
370
-1
100
AcDbLine
10
0.5
20
1.606
11
8.60422844084e-16
21
1.606
0
LINE
5
282
100
AcDbEntity
8
Layer0
6
ByLayer
62
256
370
-1
100
AcDbLine
10
0.5
20
1.606
11
1.269
21
1.606
0
LINE
5
283
100
AcDbEntity
8
bend
6
ByLayer
62
256
370
-1
100
AcDbLine
10
0.5
20
1.606
11
0.5
21
0.7
0
LINE
5
284
100
AcDbEntity
8
0
6
ByLayer
62
256
370
-1
100
AcDbLine
10
8.04911692853e-16
20
1.606
11
1.269
21
1.606
0
LINE
5
285
100
AcDbEntity
8
0
6
ByLayer
62
256
370
-1
100
AcDbLine
10
1.269
20
1.606
11
1.269
21
0.7
0
LINE
5
286
100
AcDbEntity
8
0
6
ByLayer
62
256
370
-1
100
AcDbLine
10
1.269
20
0.7
11
2.77555756156e-17
21
0.7
0
LINE
5
287
100
AcDbEntity
8
0
6
ByLayer
62
256
370
-1
100
AcDbLine
10
2.77555756156e-17
20
0.7
11
8.04911692853e-16
21
1.606
0
CIRCLE
5
288
100
AcDbEntity
8
cutout
6
ByLayer
62
256
370
-1
100
AcDbCircle
10
0.25
20
0.9265
40
0.109
0
CIRCLE
5
289
100
AcDbEntity
8
cutout
6
ByLayer
62
256
370
-1
100
AcDbCircle
10
0.25
20
1.3795
40
0.108157195379
0
CIRCLE
5
28A
100
AcDbEntity
8
drill
6
ByLayer
62
256
370
-1
100
AcDbCircle
10
0.834
20
1.4285
40
0.063
0
CIRCLE
5
28B
100
AcDbEntity
8
drill
6
ByLayer
62
256
370
-1
100
AcDbCircle
10
0.834
20
0.8775
40
0.063
0
LINE
5
28C
100
AcDbEntity
8
Layer0
6
ByLayer
62
256
370
-1
100
AcDbLine
10
1.9035
20
1.37394039956
11
1.91869440016
21
1.36764667294
0
LINE
5
28D
100
AcDbEntity
8
Layer0
6
ByLayer
62
256
370
-1
100
AcDbLine
10
1.89045227279
20
1.38395227279
11
1.89045227279
21
1.38395227279
0
LINE
5
28E
100
AcDbEntity
8
Layer0
6
ByLayer
62
256
370
-1
100
AcDbLine
10
1.9035
20
0.932059600438
11
1.89045227279
21
0.922047727215
0
LINE
5
28F
100
AcDbEntity
8
Layer0
6
ByLayer
62
256
370
-1
100
AcDbLine
10
1.9035
20
0.932059600438
11
1.9035
21
0.932059600438
0
LINE
5
290
100
AcDbEntity
8
Layer0
6
ByLayer
62
256
370
-1
100
AcDbLine
10
1.95130559984
20
1.36764667294
11
1.9665
21
1.37394039956
0
LINE
5
291
100
AcDbEntity
8
Layer0
6
ByLayer
62
256
370
-1
100
AcDbLine
10
1.935
20
1.4915
11
1.91869440016
21
1.48935332706
0
LINE
5
292
100
AcDbEntity
8
Layer0
6
ByLayer
62
256
370
-1
100
AcDbLine
10
1.97954772721
20
0.922047727215
11
1.9665
21
0.932059600438
0
LINE
5
293
100
AcDbEntity
8
Layer0
6
ByLayer
62
256
370
-1
100
AcDbLine
10
1.9665
20
1.48305960044
11
1.95130559984
21
1.48935332706
0
LINE
5
294
100
AcDbEntity
8
Layer0
6
ByLayer
62
256
370
-1
100
AcDbLine
10
1.98955960044
20
1.46
11
1.97954772721
21
1.47304772721
0
LINE
5
295
100
AcDbEntity
8
Layer0
6
ByLayer
62
256
370
-1
100
AcDbLine
10
1.98955960044
20
0.846
11
1.99585332706
21
0.861194400158
0
LINE
5
296
100
AcDbEntity
8
Layer0
6
ByLayer
62
256
370
-1
100
AcDbLine
10
1.89045227279
20
1.47304772721
11
1.89045227279
21
1.47304772721
0
LINE
5
297
100
AcDbEntity
8
Layer0
6
ByLayer
62
256
370
-1
100
AcDbLine
10
1.5
20
0.7
11
2.051
21
0.7
0
LINE
5
298
100
AcDbEntity
8
Layer0
6
ByLayer
62
256
370
-1
100
AcDbLine
10
2.051
20
0.7
11
2.23885753074
21
0.7
0
LINE
5
299
100
AcDbEntity
8
Layer0
6
ByLayer
62
256
370
-1
100
AcDbLine
10
1.5
20
0.7
11
2.051
21
0.7
0
LINE
5
29A
100
AcDbEntity
8
Layer0
6
ByLayer
62
256
370
-1
100
AcDbLine
10
1.5
20
0.7
11
1.5
21
0.7
0
LINE
5
29B
100
AcDbEntity
8
Layer0
6
ByLayer
62
256
370
-1
100
AcDbLine
10
1.935
20
1.3655
11
1.935
21
1.3655
0
LINE
5
29C
100
AcDbEntity
8
Layer0
6
ByLayer
62
256
370
-1
100
AcDbLine
10
1.99585332706
20
0.861194400158
11
1.998
21
0.8775
0
LINE
5
29D
100
AcDbEntity
8
Layer0
6
ByLayer
62
256
370
-1
100
AcDbLine
10
1.87414667294
20
0.893805599841
11
1.87414667294
21
0.893805599841
0
LINE
5
29E
100
AcDbEntity
8
Layer0
6
ByLayer
62
256
370
-1
100
AcDbLine
10
1.88044039956
20
0.909
11
1.87414667294
21
0.893805599841
0
LINE
5
29F
100
AcDbEntity
8
Layer0
6
ByLayer
62
256
370
-1
100
AcDbLine
10
1.88044039956
20
0.909
11
1.88044039956
21
0.909
0
LINE
5
2A0
100
AcDbEntity
8
Layer0
6
ByLayer
62
256
370
-1
100
AcDbLine
10
1.88044039956
20
0.909
11
1.87414667294
21
0.893805599841
0
LINE
5
2A1
100
AcDbEntity
8
Layer0
6
ByLayer
62
256
370
-1
100
AcDbLine
10
1.89045227279
20
0.832952272785
11
1.9035
21
0.822940399561
0
LINE
5
2A2
100
AcDbEntity
8
Layer0
6
ByLayer
62
256
370
-1
100
AcDbLine
10
1.9665
20
0.932059600438
11
1.95130559984
21
0.938353327056
0
LINE
5
2A3
100
AcDbEntity
8
Layer0
6
ByLayer
62
256
370
-1
100
AcDbLine
10
1.91869440016
20
0.938353327056
11
1.9035
21
0.932059600438
0
LINE
5
2A4
100
AcDbEntity
8
Layer0
6
ByLayer
62
256
370
-1
100
AcDbLine
10
2.051
20
1.606
11
2.238857514
21
1.606
0
LINE
5
2A5
100
AcDbEntity
8
Layer0
6
ByLayer
62
256
370
-1
100
AcDbLine
10
1.95130559984
20
0.938353327056
11
1.935
21
0.9405
0
LINE
5
2A6
100
AcDbEntity
8
Layer0
6
ByLayer
62
256
370
-1
100
AcDbLine
10
1.89045227279
20
0.922047727215
11
1.88044039956
21
0.909
0
LINE
5
2A7
100
AcDbEntity
8
Layer0
6
ByLayer
62
256
370
-1
100
AcDbLine
10
1.89045227279
20
0.922047727215
11
1.88044039956
21
0.909
0
LINE
5
2A8
100
AcDbEntity
8
Layer0
6
ByLayer
62
256
370
-1
100
AcDbLine
10
1.89045227279
20
0.922047727215
11
1.89045227279
21
0.922047727215
0
LINE
5
2A9
100
AcDbEntity
8
Layer0
6
ByLayer
62
256
370
-1
100
AcDbLine
10
1.99585332706
20
1.44480559984
11
1.98955960044
21
1.46
0
LINE
5
2AA
100
AcDbEntity
8
Layer0
6
ByLayer
62
256
370
-1
100
AcDbLine
10
1.99585332706
20
1.44480559984
11
1.99585332706
21
1.44480559984
0
LINE
5
2AB
100
AcDbEntity
8
Layer0
6
ByLayer
62
256
370
-1
100
AcDbLine
10
1.99585332706
20
1.44480559984
11
1.98955960044
21
1.46
0
LINE
5
2AC
100
AcDbEntity
8
Layer0
6
ByLayer
62
256
370
-1
100
AcDbLine
10
1.98955960044
20
1.46
11
1.98955960044
21
1.46
0
LINE
5
2AD
100
AcDbEntity
8
Layer0
6
ByLayer
62
256
370
-1
100
AcDbLine
10
1.91869440016
20
0.816646672944
11
1.935
21
0.8145
0
LINE
5
2AE
100
AcDbEntity
8
Layer0
6
ByLayer
62
256
370
-1
100
AcDbLine
10
1.9035
20
0.822940399561
11
1.91869440016
21
0.816646672944
0
LINE
5
2AF
100
AcDbEntity
8
Layer0
6
ByLayer
62
256
370
-1
100
AcDbLine
10
1.89045227279
20
0.832952272785
11
1.9035
21
0.822940399561
0
LINE
5
2B0
100
AcDbEntity
8
Layer0
6
ByLayer
62
256
370
-1
100
AcDbLine
10
1.91869440016
20
0.938353327056
11
1.9035
21
0.932059600438
0
LINE
5
2B1
100
AcDbEntity
8
Layer0
6
ByLayer
62
256
370
-1
100
AcDbLine
10
1.91869440016
20
0.938353327056
11
1.91869440016
21
0.938353327056
0
LINE
5
2B2
100
AcDbEntity
8
Layer0
6
ByLayer
62
256
370
-1
100
AcDbLine
10
1.89045227279
20
1.38395227279
11
1.9035
21
1.37394039956
0
LINE
5
2B3
100
AcDbEntity
8
Layer0
6
ByLayer
62
256
370
-1
100
AcDbLine
10
1.88044039956
20
0.846
11
1.89045227279
21
0.832952272785
0
LINE
5
2B4
100
AcDbEntity
8
Layer0
6
ByLayer
62
256
370
-1
100
AcDbLine
10
1.88044039956
20
0.846
11
1.88044039956
21
0.846
0
LINE
5
2B5
100
AcDbEntity
8
Layer0
6
ByLayer
62
256
370
-1
100
AcDbLine
10
1.88044039956
20
0.846
11
1.89045227279
21
0.832952272785
0
LINE
5
2B6
100
AcDbEntity
8
Layer0
6
ByLayer
62
256
370
-1
100
AcDbLine
10
1.89045227279
20
0.832952272785
11
1.89045227279
21
0.832952272785
0
LINE
5
2B7
100
AcDbEntity
8
Layer0
6
ByLayer
62
256
370
-1
100
AcDbLine
10
1.9035
20
1.48305960044
11
1.9035
21
1.48305960044
0
LINE
5
2B8
100
AcDbEntity
8
Layer0
6
ByLayer
62
256
370
-1
100
AcDbLine
10
1.87414667294
20
0.861194400158
11
1.88044039956
21
0.846
0
LINE
5
2B9
100
AcDbEntity
8
Layer0
6
ByLayer
62
256
370
-1
100
AcDbLine
10
1.87414667294
20
0.861194400158
11
1.87414667294
21
0.861194400158
0
LINE
5
2BA
100
AcDbEntity
8
Layer0
6
ByLayer
62
256
370
-1
100
AcDbLine
10
1.87414667294
20
0.861194400158
11
1.88044039956
21
0.846
0
LINE
5
2BB
100
AcDbEntity
8
Layer0
6
ByLayer
62
256
370
-1
100
AcDbLine
10
1.998
20
0.8775
11
1.99585332706
21
0.893805599841
0
LINE
5
2BC
100
AcDbEntity
8
Layer0
6
ByLayer
62
256
370
-1
100
AcDbLine
10
1.998
20
0.8775
11
1.998
21
0.8775
0
LINE
5
2BD
100
AcDbEntity
8
Layer0
6
ByLayer
62
256
370
-1
100
AcDbLine
10
1.998
20
0.8775
11
1.99585332706
21
0.893805599841
0
LINE
5
2BE
100
AcDbEntity
8
Layer0
6
ByLayer
62
256
370
-1
100
AcDbLine
10
1.99585332706
20
0.893805599841
11
1.99585332706
21
0.893805599841
0
LINE
5
2BF
100
AcDbEntity
8
Layer0
6
ByLayer
62
256
370
-1
100
AcDbLine
10
1.872
20
1.4285
11
1.87414667294
21
1.41219440016
0
LINE
5
2C0
100
AcDbEntity
8
Layer0
6
ByLayer
62
256
370
-1
100
AcDbLine
10
1.872
20
1.4285
11
1.872
21
1.4285
0
LINE
5
2C1
100
AcDbEntity
8
Layer0
6
ByLayer
62
256
370
-1
100
AcDbLine
10
1.872
20
1.4285
11
1.87414667294
21
1.41219440016
0
LINE
5
2C2
100
AcDbEntity
8
Layer0
6
ByLayer
62
256
370
-1
100
AcDbLine
10
1.87414667294
20
1.41219440016
11
1.87414667294
21
1.41219440016
0
LINE
5
2C3
100
AcDbEntity
8
Layer0
6
ByLayer
62
256
370
-1
100
AcDbLine
10
1.9665
20
0.822940399561
11
1.97954772721
21
0.832952272785
0
LINE
5
2C4
100
AcDbEntity
8
Layer0
6
ByLayer
62
256
370
-1
100
AcDbLine
10
1.88044039956
20
1.46
11
1.88044039956
21
1.46
0
LINE
5
2C5
100
AcDbEntity
8
Layer0
6
ByLayer
62
256
370
-1
100
AcDbLine
10
1.98955960044
20
0.909
11
1.98955960044
21
0.909
0
LINE
5
2C6
100
AcDbEntity
8
Layer0
6
ByLayer
62
256
370
-1
100
AcDbLine
10
1.99585332706
20
0.861194400158
11
1.99585332706
21
0.861194400158
0
LINE
5
2C7
100
AcDbEntity
8
Layer0
6
ByLayer
62
256
370
-1
100
AcDbLine
10
1.99585332706
20
0.861194400158
11
1.998
21
0.8775
0
LINE
5
2C8
100
AcDbEntity
8
Layer0
6
ByLayer
62
256
370
-1
100
AcDbLine
10
1.97954772721
20
0.832952272785
11
1.98955960044
21
0.846
0
LINE
5
2C9
100
AcDbEntity
8
Layer0
6
ByLayer
62
256
370
-1
100
AcDbLine
10
2.051
20
0.7
11
2.051
21
1.606
0
LINE
5
2CA
100
AcDbEntity
8
Layer0
6
ByLayer
62
256
370
-1
100
AcDbLine
10
2.051
20
1.606
11
1.5
21
1.606
0
LINE
5
2CB
100
AcDbEntity
8
Layer0
6
ByLayer
62
256
370
-1
100
AcDbLine
10
1.5
20
1.606
11
1.5
21
0.7
0
LINE
5
2CC
100
AcDbEntity
8
Layer0
6
ByLayer
62
256
370
-1
100
AcDbLine
10
1.87414667294
20
1.44480559984
11
1.872
21
1.4285
0
LINE
5
2CD
100
AcDbEntity
8
Layer0
6
ByLayer
62
256
370
-1
100
AcDbLine
10
1.88044039956
20
1.46
11
1.87414667294
21
1.44480559984
0
LINE
5
2CE
100
AcDbEntity
8
Layer0
6
ByLayer
62
256
370
-1
100
AcDbLine
10
1.89045227279
20
1.47304772721
11
1.88044039956
21
1.46
0
LINE
5
2CF
100
AcDbEntity
8
Layer0
6
ByLayer
62
256
370
-1
100
AcDbLine
10
1.9035
20
1.48305960044
11
1.89045227279
21
1.47304772721
0
LINE
5
2D0
100
AcDbEntity
8
Layer0
6
ByLayer
62
256
370
-1
100
AcDbLine
10
1.91869440016
20
1.48935332706
11
1.9035
21
1.48305960044
0
LINE
5
2D1
100
AcDbEntity
8
Layer0
6
ByLayer
62
256
370
-1
100
AcDbLine
10
1.95130559984
20
1.48935332706
11
1.935
21
1.4915
0
LINE
5
2D2
100
AcDbEntity
8
Layer0
6
ByLayer
62
256
370
-1
100
AcDbLine
10
1.97954772721
20
1.47304772721
11
1.9665
21
1.48305960044
0
LINE
5
2D3
100
AcDbEntity
8
Layer0
6
ByLayer
62
256
370
-1
100
AcDbLine
10
1.998
20
1.4285
11
1.99585332706
21
1.44480559984
0
LINE
5
2D4
100
AcDbEntity
8
Layer0
6
ByLayer
62
256
370
-1
100
AcDbLine
10
1.99585332706
20
1.41219440016
11
1.998
21
1.4285
0
LINE
5
2D5
100
AcDbEntity
8
Layer0
6
ByLayer
62
256
370
-1
100
AcDbLine
10
1.98955960044
20
1.397
11
1.99585332706
21
1.41219440016
0
LINE
5
2D6
100
AcDbEntity
8
Layer0
6
ByLayer
62
256
370
-1
100
AcDbLine
10
1.97954772721
20
1.38395227279
11
1.98955960044
21
1.397
0
LINE
5
2D7
100
AcDbEntity
8
Layer0
6
ByLayer
62
256
370
-1
100
AcDbLine
10
1.9665
20
1.37394039956
11
1.97954772721
21
1.38395227279
0
LINE
5
2D8
100
AcDbEntity
8
Layer0
6
ByLayer
62
256
370
-1
100
AcDbLine
10
1.935
20
1.3655
11
1.95130559984
21
1.36764667294
0
LINE
5
2D9
100
AcDbEntity
8
Layer0
6
ByLayer
62
256
370
-1
100
AcDbLine
10
1.91869440016
20
1.36764667294
11
1.935
21
1.3655
0
LINE
5
2DA
100
AcDbEntity
8
Layer0
6
ByLayer
62
256
370
-1
100
AcDbLine
10
1.88044039956
20
1.397
11
1.89045227279
21
1.38395227279
0
LINE
5
2DB
100
AcDbEntity
8
Layer0
6
ByLayer
62
256
370
-1
100
AcDbLine
10
1.87414667294
20
1.41219440016
11
1.88044039956
21
1.397
0
LINE
5
2DC
100
AcDbEntity
8
Layer0
6
ByLayer
62
256
370
-1
100
AcDbLine
10
1.98955960044
20
0.846
11
1.99585332706
21
0.861194400158
0
LINE
5
2DD
100
AcDbEntity
8
Layer0
6
ByLayer
62
256
370
-1
100
AcDbLine
10
1.9665
20
0.822940399561
11
1.97954772721
21
0.832952272785
0
LINE
5
2DE
100
AcDbEntity
8
Layer0
6
ByLayer
62
256
370
-1
100
AcDbLine
10
1.95130559984
20
0.816646672944
11
1.9665
21
0.822940399561
0
LINE
5
2DF
100
AcDbEntity
8
Layer0
6
ByLayer
62
256
370
-1
100
AcDbLine
10
1.935
20
0.8145
11
1.95130559984
21
0.816646672944
0
LINE
5
2E0
100
AcDbEntity
8
Layer0
6
ByLayer
62
256
370
-1
100
AcDbLine
10
1.872
20
0.8775
11
1.87414667294
21
0.861194400158
0
LINE
5
2E1
100
AcDbEntity
8
Layer0
6
ByLayer
62
256
370
-1
100
AcDbLine
10
1.87414667294
20
0.893805599841
11
1.872
21
0.8775
0
LINE
5
2E2
100
AcDbEntity
8
Layer0
6
ByLayer
62
256
370
-1
100
AcDbLine
10
1.9035
20
0.932059600438
11
1.89045227279
21
0.922047727215
0
LINE
5
2E3
100
AcDbEntity
8
Layer0
6
ByLayer
62
256
370
-1
100
AcDbLine
10
1.935
20
0.9405
11
1.91869440016
21
0.938353327056
0
LINE
5
2E4
100
AcDbEntity
8
Layer0
6
ByLayer
62
256
370
-1
100
AcDbLine
10
1.95130559984
20
0.938353327056
11
1.935
21
0.9405
0
LINE
5
2E5
100
AcDbEntity
8
Layer0
6
ByLayer
62
256
370
-1
100
AcDbLine
10
1.97954772721
20
0.922047727215
11
1.9665
21
0.932059600438
0
LINE
5
2E6
100
AcDbEntity
8
Layer0
6
ByLayer
62
256
370
-1
100
AcDbLine
10
1.98955960044
20
0.909
11
1.97954772721
21
0.922047727215
0
LINE
5
2E7
100
AcDbEntity
8
Layer0
6
ByLayer
62
256
370
-1
100
AcDbLine
10
1.99585332706
20
0.893805599841
11
1.98955960044
21
0.909
0
LINE
5
2E8
100
AcDbEntity
8
Layer0
6
ByLayer
62
256
370
-1
100
AcDbLine
10
1.87414667294
20
0.893805599841
11
1.872
21
0.8775
0
LINE
5
2E9
100
AcDbEntity
8
Layer0
6
ByLayer
62
256
370
-1
100
AcDbLine
10
1.872
20
0.8775
11
1.872
21
0.8775
0
LINE
5
2EA
100
AcDbEntity
8
Layer0
6
ByLayer
62
256
370
-1
100
AcDbLine
10
1.5
20
1.606
11
1.5
21
1.606
0
LINE
5
2EB
100
AcDbEntity
8
Layer0
6
ByLayer
62
256
370
-1
100
AcDbLine
10
1.95130559984
20
1.48935332706
11
1.935
21
1.4915
0
LINE
5
2EC
100
AcDbEntity
8
Layer0
6
ByLayer
62
256
370
-1
100
AcDbLine
10
1.95130559984
20
1.48935332706
11
1.95130559984
21
1.48935332706
0
LINE
5
2ED
100
AcDbEntity
8
Layer0
6
ByLayer
62
256
370
-1
100
AcDbLine
10
1.935
20
1.4915
11
1.935
21
1.4915
0
LINE
5
2EE
100
AcDbEntity
8
Layer0
6
ByLayer
62
256
370
-1
100
AcDbLine
10
1.87414667294
20
1.44480559984
11
1.872
21
1.4285
0
LINE
5
2EF
100
AcDbEntity
8
Layer0
6
ByLayer
62
256
370
-1
100
AcDbLine
10
1.88044039956
20
1.46
11
1.87414667294
21
1.44480559984
0
LINE
5
2F0
100
AcDbEntity
8
Layer0
6
ByLayer
62
256
370
-1
100
AcDbLine
10
1.87414667294
20
1.44480559984
11
1.87414667294
21
1.44480559984
0
LINE
5
2F1
100
AcDbEntity
8
Layer0
6
ByLayer
62
256
370
-1
100
AcDbLine
10
1.97954772721
20
1.38395227279
11
1.97954772721
21
1.38395227279
0
LINE
5
2F2
100
AcDbEntity
8
Layer0
6
ByLayer
62
256
370
-1
100
AcDbLine
10
1.935
20
1.4915
11
1.91869440016
21
1.48935332706
0
LINE
5
2F3
100
AcDbEntity
8
Layer0
6
ByLayer
62
256
370
-1
100
AcDbLine
10
1.95130559984
20
0.816646672944
11
1.95130559984
21
0.816646672944
0
LINE
5
2F4
100
AcDbEntity
8
Layer0
6
ByLayer
62
256
370
-1
100
AcDbLine
10
1.87414667294
20
1.41219440016
11
1.88044039956
21
1.397
0
LINE
5
2F5
100
AcDbEntity
8
Layer0
6
ByLayer
62
256
370
-1
100
AcDbLine
10
1.88044039956
20
1.397
11
1.88044039956
21
1.397
0
LINE
5
2F6
100
AcDbEntity
8
Layer0
6
ByLayer
62
256
370
-1
100
AcDbLine
10
1.99585332706
20
0.893805599841
11
1.98955960044
21
0.909
0
LINE
5
2F7
100
AcDbEntity
8
Layer0
6
ByLayer
62
256
370
-1
100
AcDbLine
10
1.5
20
1.606
11
1.5
21
0.7
0
LINE
5
2F8
100
AcDbEntity
8
Layer0
6
ByLayer
62
256
370
-1
100
AcDbLine
10
1.99585332706
20
1.41219440016
11
1.998
21
1.4285
0
LINE
5
2F9
100
AcDbEntity
8
Layer0
6
ByLayer
62
256
370
-1
100
AcDbLine
10
1.998
20
1.4285
11
1.99585332706
21
1.44480559984
0
LINE
5
2FA
100
AcDbEntity
8
Layer0
6
ByLayer
62
256
370
-1
100
AcDbLine
10
1.98955960044
20
1.46
11
1.97954772721
21
1.47304772721
0
LINE
5
2FB
100
AcDbEntity
8
Layer0
6
ByLayer
62
256
370
-1
100
AcDbLine
10
1.97954772721
20
1.47304772721
11
1.9665
21
1.48305960044
0
LINE
5
2FC
100
AcDbEntity
8
Layer0
6
ByLayer
62
256
370
-1
100
AcDbLine
10
1.9665
20
1.48305960044
11
1.95130559984
21
1.48935332706
0
LINE
5
2FD
100
AcDbEntity
8
Layer0
6
ByLayer
62
256
370
-1
100
AcDbLine
10
1.91869440016
20
1.48935332706
11
1.9035
21
1.48305960044
0
LINE
5
2FE
100
AcDbEntity
8
Layer0
6
ByLayer
62
256
370
-1
100
AcDbLine
10
1.9035
20
1.48305960044
11
1.89045227279
21
1.47304772721
0
LINE
5
2FF
100
AcDbEntity
8
Layer0
6
ByLayer
62
256
370
-1
100
AcDbLine
10
1.89045227279
20
1.47304772721
11
1.88044039956
21
1.46
0
LINE
5
300
100
AcDbEntity
8
Layer0
6
ByLayer
62
256
370
-1
100
AcDbLine
10
1.88044039956
20
1.397
11
1.89045227279
21
1.38395227279
0
LINE
5
301
100
AcDbEntity
8
Layer0
6
ByLayer
62
256
370
-1
100
AcDbLine
10
1.89045227279
20
1.38395227279
11
1.9035
21
1.37394039956
0
LINE
5
302
100
AcDbEntity
8
Layer0
6
ByLayer
62
256
370
-1
100
AcDbLine
10
1.9035
20
1.37394039956
11
1.91869440016
21
1.36764667294
0
LINE
5
303
100
AcDbEntity
8
Layer0
6
ByLayer
62
256
370
-1
100
AcDbLine
10
1.91869440016
20
1.36764667294
11
1.935
21
1.3655
0
LINE
5
304
100
AcDbEntity
8
Layer0
6
ByLayer
62
256
370
-1
100
AcDbLine
10
1.935
20
1.3655
11
1.95130559984
21
1.36764667294
0
LINE
5
305
100
AcDbEntity
8
Layer0
6
ByLayer
62
256
370
-1
100
AcDbLine
10
1.95130559984
20
1.36764667294
11
1.9665
21
1.37394039956
0
LINE
5
306
100
AcDbEntity
8
Layer0
6
ByLayer
62
256
370
-1
100
AcDbLine
10
1.9665
20
1.37394039956
11
1.97954772721
21
1.38395227279
0
LINE
5
307
100
AcDbEntity
8
Layer0
6
ByLayer
62
256
370
-1
100
AcDbLine
10
1.97954772721
20
1.38395227279
11
1.98955960044
21
1.397
0
LINE
5
308
100
AcDbEntity
8
Layer0
6
ByLayer
62
256
370
-1
100
AcDbLine
10
1.98955960044
20
1.397
11
1.99585332706
21
1.41219440016
0
LINE
5
309
100
AcDbEntity
8
Layer0
6
ByLayer
62
256
370
-1
100
AcDbLine
10
1.872
20
0.8775
11
1.87414667294
21
0.861194400158
0
LINE
5
30A
100
AcDbEntity
8
Layer0
6
ByLayer
62
256
370
-1
100
AcDbLine
10
1.9035
20
0.822940399561
11
1.91869440016
21
0.816646672944
0
LINE
5
30B
100
AcDbEntity
8
Layer0
6
ByLayer
62
256
370
-1
100
AcDbLine
10
1.91869440016
20
0.816646672944
11
1.935
21
0.8145
0
LINE
5
30C
100
AcDbEntity
8
Layer0
6
ByLayer
62
256
370
-1
100
AcDbLine
10
1.935
20
0.8145
11
1.95130559984
21
0.816646672944
0
LINE
5
30D
100
AcDbEntity
8
Layer0
6
ByLayer
62
256
370
-1
100
AcDbLine
10
1.95130559984
20
0.816646672944
11
1.9665
21
0.822940399561
0
LINE
5
30E
100
AcDbEntity
8
Layer0
6
ByLayer
62
256
370
-1
100
AcDbLine
10
1.97954772721
20
0.832952272785
11
1.98955960044
21
0.846
0
LINE
5
30F
100
AcDbEntity
8
Layer0
6
ByLayer
62
256
370
-1
100
AcDbLine
10
1.98955960044
20
0.909
11
1.97954772721
21
0.922047727215
0
LINE
5
310
100
AcDbEntity
8
Layer0
6
ByLayer
62
256
370
-1
100
AcDbLine
10
1.9665
20
0.932059600438
11
1.95130559984
21
0.938353327056
0
LINE
5
311
100
AcDbEntity
8
Layer0
6
ByLayer
62
256
370
-1
100
AcDbLine
10
1.935
20
0.9405
11
1.91869440016
21
0.938353327056
0
LINE
5
312
100
AcDbEntity
8
Layer0
6
ByLayer
62
256
370
-1
100
AcDbLine
10
1.91869440016
20
0.816646672944
11
1.91869440016
21
0.816646672944
0
LINE
5
313
100
AcDbEntity
8
Layer0
6
ByLayer
62
256
370
-1
100
AcDbLine
10
1.97954772721
20
1.47304772721
11
1.97954772721
21
1.47304772721
0
LINE
5
314
100
AcDbEntity
8
Layer0
6
ByLayer
62
256
370
-1
100
AcDbLine
10
1.9665
20
0.822940399561
11
1.9665
21
0.822940399561
0
LINE
5
315
100
AcDbEntity
8
Layer0
6
ByLayer
62
256
370
-1
100
AcDbLine
10
1.95130559984
20
0.938353327056
11
1.95130559984
21
0.938353327056
0
LINE
5
316
100
AcDbEntity
8
Layer0
6
ByLayer
62
256
370
-1
100
AcDbLine
10
1.935
20
0.9405
11
1.935
21
0.9405
0
LINE
5
317
100
AcDbEntity
8
Layer0
6
ByLayer
62
256
370
-1
100
AcDbLine
10
1.97954772721
20
0.922047727215
11
1.97954772721
21
0.922047727215
0
LINE
5
318
100
AcDbEntity
8
Layer0
6
ByLayer
62
256
370
-1
100
AcDbLine
10
1.95130559984
20
1.36764667294
11
1.95130559984
21
1.36764667294
0
LINE
5
319
100
AcDbEntity
8
Layer0
6
ByLayer
62
256
370
-1
100
AcDbLine
10
1.9665
20
1.37394039956
11
1.9665
21
1.37394039956
0
LINE
5
31A
100
AcDbEntity
8
Layer0
6
ByLayer
62
256
370
-1
100
AcDbLine
10
1.99585332706
20
1.41219440016
11
1.99585332706
21
1.41219440016
0
LINE
5
31B
100
AcDbEntity
8
Layer0
6
ByLayer
62
256
370
-1
100
AcDbLine
10
1.97954772721
20
0.832952272785
11
1.97954772721
21
0.832952272785
0
LINE
5
31C
100
AcDbEntity
8
Layer0
6
ByLayer
62
256
370
-1
100
AcDbLine
10
1.9665
20
0.932059600438
11
1.9665
21
0.932059600438
0
LINE
5
31D
100
AcDbEntity
8
Layer0
6
ByLayer
62
256
370
-1
100
AcDbLine
10
1.998
20
1.4285
11
1.998
21
1.4285
0
LINE
5
31E
100
AcDbEntity
8
Layer0
6
ByLayer
62
256
370
-1
100
AcDbLine
10
1.98955960044
20
1.397
11
1.98955960044
21
1.397
0
LINE
5
31F
100
AcDbEntity
8
Layer0
6
ByLayer
62
256
370
-1
100
AcDbLine
10
1.9665
20
1.48305960044
11
1.9665
21
1.48305960044
0
LINE
5
320
100
AcDbEntity
8
Layer0
6
ByLayer
62
256
370
-1
100
AcDbLine
10
1.9035
20
1.37394039956
11
1.9035
21
1.37394039956
0
LINE
5
321
100
AcDbEntity
8
Layer0
6
ByLayer
62
256
370
-1
100
AcDbLine
10
1.91869440016
20
1.36764667294
11
1.91869440016
21
1.36764667294
0
LINE
5
322
100
AcDbEntity
8
Layer0
6
ByLayer
62
256
370
-1
100
AcDbLine
10
1.98955960044
20
0.846
11
1.98955960044
21
0.846
0
LINE
5
323
100
AcDbEntity
8
Layer0
6
ByLayer
62
256
370
-1
100
AcDbLine
10
1.9035
20
0.822940399561
11
1.9035
21
0.822940399561
0
LINE
5
324
100
AcDbEntity
8
Layer0
6
ByLayer
62
256
370
-1
100
AcDbLine
10
1.935
20
0.8145
11
1.935
21
0.8145
0
LINE
5
325
100
AcDbEntity
8
Layer0
6
ByLayer
62
256
370
-1
100
AcDbLine
10
1.91869440016
20
1.48935332706
11
1.91869440016
21
1.48935332706
0
LINE
5
326
100
AcDbEntity
8
Layer0
6
ByLayer
62
256
370
-1
100
AcDbLine
10
2.051
20
0.7
11
2.051
21
0.7
0
LINE
5
327
100
AcDbEntity
8
Layer0
6
ByLayer
62
256
370
-1
100
AcDbLine
10
2.051
20
1.606
11
2.05119412802
21
1.60598277415
0
LINE
5
328
100
AcDbEntity
8
Layer0
6
ByLayer
62
256
370
-1
100
AcDbLine
10
2.051
20
0.7
11
2.05119412802
21
1.60598277415
0
LINE
5
329
100
AcDbEntity
8
Layer0
6
ByLayer
62
256
370
-1
100
AcDbLine
10
2.05119412802
20
1.60598277415
11
2.23885751361
21
1.606
0
LINE
5
32A
100
AcDbEntity
8
Layer0
6
ByLayer
62
256
370
-1
100
AcDbLine
10
2.05119412802
20
1.60598277415
11
1.5
21
1.606
0
LINE
5
32B
100
AcDbEntity
8
Layer0
6
ByLayer
62
256
370
-1
100
AcDbLine
10
2.49517309648
20
0.969058432291
11
2.51075756308
21
0.931434203615
0
LINE
5
32C
100
AcDbEntity
8
Layer0
6
ByLayer
62
256
370
-1
100
AcDbLine
10
2.72385752713
20
0.874334244561
11
2.75616618453
21
0.899125550283
0
LINE
5
32D
100
AcDbEntity
8
Layer0
6
ByLayer
62
256
370
-1
100
AcDbLine
10
3.02085753035
20
0.700000014445
11
3.02085751361
21
1.60600001445
0
LINE
5
32E
100
AcDbEntity
8
Layer0
6
ByLayer
62
256
370
-1
100
AcDbLine
10
3.02085751361
20
1.60600001445
11
2.23885751361
21
1.606
0
LINE
5
32F
100
AcDbEntity
8
Layer0
6
ByLayer
62
256
370
-1
100
AcDbLine
10
2.23885753035
20
0.7
11
2.23885751361
21
1.606
0
LINE
5
330
100
AcDbEntity
8
Layer0
6
ByLayer
62
256
370
-1
100
AcDbLine
10
2.23885753035
20
0.7
11
3.02085753035
21
0.700000014445
0
LINE
5
331
100
AcDbEntity
8
Layer0
6
ByLayer
62
256
370
-1
100
AcDbLine
10
2.80185752463
20
1.00943420899
11
2.79654195279
21
1.04980997993
0
LINE
5
332
100
AcDbEntity
8
Layer0
6
ByLayer
62
256
370
-1
100
AcDbLine
10
2.79654195428
20
0.969058437858
11
2.80185752463
21
1.00943420899
0
LINE
5
333
100
AcDbEntity
8
Layer0
6
ByLayer
62
256
370
-1
100
AcDbLine
10
2.78095748906
20
0.931434208606
11
2.79654195428
21
0.969058437858
0
LINE
5
334
100
AcDbEntity
8
Layer0
6
ByLayer
62
256
370
-1
100
AcDbLine
10
2.75616618453
20
0.899125550283
11
2.78095748906
21
0.931434208606
0
LINE
5
335
100
AcDbEntity
8
Layer0
6
ByLayer
62
256
370
-1
100
AcDbLine
10
2.68623329845
20
0.858749777955
11
2.72385752713
21
0.874334244561
0
LINE
5
336
100
AcDbEntity
8
Layer0
6
ByLayer
62
256
370
-1
100
AcDbLine
10
2.64585752751
20
0.853434206111
11
2.68623329845
21
0.858749777955
0
LINE
5
337
100
AcDbEntity
8
Layer0
6
ByLayer
62
256
370
-1
100
AcDbLine
10
2.60548175638
20
0.858749776464
11
2.64585752751
21
0.853434206111
0
LINE
5
338
100
AcDbEntity
8
Layer0
6
ByLayer
62
256
370
-1
100
AcDbLine
10
2.56785752713
20
0.87433424168
11
2.60548175638
21
0.858749776464
0
LINE
5
339
100
AcDbEntity
8
Layer0
6
ByLayer
62
256
370
-1
100
AcDbLine
10
2.5355488688
20
0.899125546208
11
2.56785752713
21
0.87433424168
0
LINE
5
33A
100
AcDbEntity
8
Layer0
6
ByLayer
62
256
370
-1
100
AcDbLine
10
2.51075756308
20
0.931434203615
11
2.5355488688
21
0.899125546208
0
LINE
5
33B
100
AcDbEntity
8
Layer0
6
ByLayer
62
256
370
-1
100
AcDbLine
10
2.48985752463
20
1.00943420323
11
2.49517309648
21
0.969058432291
0
LINE
5
33C
100
AcDbEntity
8
Layer0
6
ByLayer
62
256
370
-1
100
AcDbLine
10
2.49517309498
20
1.04980997436
11
2.48985752463
21
1.00943420323
0
LINE
5
33D
100
AcDbEntity
8
Layer0
6
ByLayer
62
256
370
-1
100
AcDbLine
10
2.5107575602
20
1.08743420362
11
2.49517309498
21
1.04980997436
0
LINE
5
33E
100
AcDbEntity
8
Layer0
6
ByLayer
62
256
370
-1
100
AcDbLine
10
2.53554886473
20
1.11974286194
11
2.5107575602
21
1.08743420362
0
LINE
5
33F
100
AcDbEntity
8
Layer0
6
ByLayer
62
256
370
-1
100
AcDbLine
10
2.56785752213
20
1.14453416766
11
2.53554886473
21
1.11974286194
0
LINE
5
340
100
AcDbEntity
8
Layer0
6
ByLayer
62
256
370
-1
100
AcDbLine
10
2.60548175081
20
1.16011863427
11
2.56785752213
21
1.14453416766
0
LINE
5
341
100
AcDbEntity
8
Layer0
6
ByLayer
62
256
370
-1
100
AcDbLine
10
2.64585752175
20
1.16543420611
11
2.60548175081
21
1.16011863427
0
LINE
5
342
100
AcDbEntity
8
Layer0
6
ByLayer
62
256
370
-1
100
AcDbLine
10
2.68623329288
20
1.16011863576
11
2.64585752175
21
1.16543420611
0
LINE
5
343
100
AcDbEntity
8
Layer0
6
ByLayer
62
256
370
-1
100
AcDbLine
10
2.72385752213
20
1.14453417054
11
2.68623329288
21
1.16011863576
0
LINE
5
344
100
AcDbEntity
8
Layer0
6
ByLayer
62
256
370
-1
100
AcDbLine
10
2.75616618046
20
1.11974286601
11
2.72385752213
21
1.14453417054
0
LINE
5
345
100
AcDbEntity
8
Layer0
6
ByLayer
62
256
370
-1
100
AcDbLine
10
2.78095748618
20
1.08743420861
11
2.75616618046
21
1.11974286601
0
LINE
5
346
100
AcDbEntity
8
Layer0
6
ByLayer
62
256
370
-1
100
AcDbLine
10
2.79654195279
20
1.04980997993
11
2.78095748618
21
1.08743420861
0
LINE
5
347
100
AcDbEntity
8
Layer0
6
ByLayer
62
256
370
-1
100
AcDbLine
10
3.02085753074
20
0.700000014445
11
3.020857514
21
1.60600001445
0
LINE
5
348
100
AcDbEntity
8
Layer0
6
ByLayer
62
256
370
-1
100
AcDbLine
10
3.020857514
20
1.60600001445
11
2.238857514
21
1.606
0
LINE
5
349
100
AcDbEntity
8
Layer0
6
ByLayer
62
256
370
-1
100
AcDbLine
10
2.23885753074
20
0.7
11
2.238857514
21
1.606
0
LINE
5
34A
100
AcDbEntity
8
Layer0
6
ByLayer
62
256
370
-1
100
AcDbLine
10
2.23885753074
20
0.7
11
3.02085753074
21
0.700000014445
0
LINE
5
34B
100
AcDbEntity
8
Layer0
6
ByLayer
62
256
370
-1
100
AcDbLine
10
2.80185752502
20
1.00943420899
11
2.79654195317
21
1.04980997993
0
LINE
5
34C
100
AcDbEntity
8
Layer0
6
ByLayer
62
256
370
-1
100
AcDbLine
10
2.79654195467
20
0.969058437858
11
2.80185752502
21
1.00943420899
0
LINE
5
34D
100
AcDbEntity
8
Layer0
6
ByLayer
62
256
370
-1
100
AcDbLine
10
2.78095748945
20
0.931434208606
11
2.79654195467
21
0.969058437858
0
LINE
5
34E
100
AcDbEntity
8
Layer0
6
ByLayer
62
256
370
-1
100
AcDbLine
10
2.75616618492
20
0.899125550283
11
2.78095748945
21
0.931434208606
0
LINE
5
34F
100
AcDbEntity
8
Layer0
6
ByLayer
62
256
370
-1
100
AcDbLine
10
2.72385752752
20
0.874334244561
11
2.75616618492
21
0.899125550283
0
LINE
5
350
100
AcDbEntity
8
Layer0
6
ByLayer
62
256
370
-1
100
AcDbLine
10
2.68623329884
20
0.858749777955
11
2.72385752752
21
0.874334244561
0
LINE
5
351
100
AcDbEntity
8
Layer0
6
ByLayer
62
256
370
-1
100
AcDbLine
10
2.6458575279
20
0.853434206111
11
2.68623329884
21
0.858749777955
0
LINE
5
352
100
AcDbEntity
8
Layer0
6
ByLayer
62
256
370
-1
100
AcDbLine
10
2.60548175677
20
0.858749776464
11
2.6458575279
21
0.853434206111
0
LINE
5
353
100
AcDbEntity
8
Layer0
6
ByLayer
62
256
370
-1
100
AcDbLine
10
2.56785752752
20
0.87433424168
11
2.60548175677
21
0.858749776464
0
LINE
5
354
100
AcDbEntity
8
Layer0
6
ByLayer
62
256
370
-1
100
AcDbLine
10
2.53554886919
20
0.899125546208
11
2.56785752752
21
0.87433424168
0
LINE
5
355
100
AcDbEntity
8
Layer0
6
ByLayer
62
256
370
-1
100
AcDbLine
10
2.51075756347
20
0.931434203615
11
2.53554886919
21
0.899125546208
0
LINE
5
356
100
AcDbEntity
8
Layer0
6
ByLayer
62
256
370
-1
100
AcDbLine
10
2.49517309686
20
0.969058432291
11
2.51075756347
21
0.931434203615
0
LINE
5
357
100
AcDbEntity
8
Layer0
6
ByLayer
62
256
370
-1
100
AcDbLine
10
2.48985752502
20
1.00943420323
11
2.49517309686
21
0.969058432291
0
LINE
5
358
100
AcDbEntity
8
Layer0
6
ByLayer
62
256
370
-1
100
AcDbLine
10
2.49517309537
20
1.04980997436
11
2.48985752502
21
1.00943420323
0
LINE
5
359
100
AcDbEntity
8
Layer0
6
ByLayer
62
256
370
-1
100
AcDbLine
10
2.51075756059
20
1.08743420362
11
2.49517309537
21
1.04980997436
0
LINE
5
35A
100
AcDbEntity
8
Layer0
6
ByLayer
62
256
370
-1
100
AcDbLine
10
2.53554886512
20
1.11974286194
11
2.51075756059
21
1.08743420362
0
LINE
5
35B
100
AcDbEntity
8
Layer0
6
ByLayer
62
256
370
-1
100
AcDbLine
10
2.56785752252
20
1.14453416766
11
2.53554886512
21
1.11974286194
0
LINE
5
35C
100
AcDbEntity
8
Layer0
6
ByLayer
62
256
370
-1
100
AcDbLine
10
2.6054817512
20
1.16011863427
11
2.56785752252
21
1.14453416766
0
LINE
5
35D
100
AcDbEntity
8
Layer0
6
ByLayer
62
256
370
-1
100
AcDbLine
10
2.64585752214
20
1.16543420611
11
2.6054817512
21
1.16011863427
0
LINE
5
35E
100
AcDbEntity
8
Layer0
6
ByLayer
62
256
370
-1
100
AcDbLine
10
2.68623329327
20
1.16011863576
11
2.64585752214
21
1.16543420611
0
LINE
5
35F
100
AcDbEntity
8
Layer0
6
ByLayer
62
256
370
-1
100
AcDbLine
10
2.72385752252
20
1.14453417054
11
2.68623329327
21
1.16011863576
0
LINE
5
360
100
AcDbEntity
8
Layer0
6
ByLayer
62
256
370
-1
100
AcDbLine
10
2.75616618085
20
1.11974286601
11
2.72385752252
21
1.14453417054
0
LINE
5
361
100
AcDbEntity
8
Layer0
6
ByLayer
62
256
370
-1
100
AcDbLine
10
2.78095748657
20
1.08743420861
11
2.75616618085
21
1.11974286601
0
LINE
5
362
100
AcDbEntity
8
Layer0
6
ByLayer
62
256
370
-1
100
AcDbLine
10
2.79654195317
20
1.04980997993
11
2.78095748657
21
1.08743420861
0
LINE
5
363
100
AcDbEntity
8
Layer0
6
ByLayer
62
256
370
-1
100
AcDbLine
10
3.02085751361
20
1.60600001445
11
3.020857514
21
1.60600001445
0
LINE
5
364
100
AcDbEntity
8
Layer0
6
ByLayer
62
256
370
-1
100
AcDbLine
10
3.02085753035
20
0.700000014445
11
3.02085753074
21
0.700000014445
0
LINE
5
365
100
AcDbEntity
8
Layer0
6
ByLayer
62
256
370
-1
100
AcDbLine
10
2.23885751361
20
1.606
11
2.238857514
21
1.606
0
LINE
5
366
100
AcDbEntity
8
Layer0
6
ByLayer
62
256
370
-1
100
AcDbLine
10
2.23885753035
20
0.7
11
2.23885753074
21
0.7
0
LINE
5
367
100
AcDbEntity
8
Layer0
6
ByLayer
62
256
370
-1
100
AcDbLine
10
2.80185752463
20
1.00943420899
11
2.80185752502
21
1.00943420899
0
LINE
5
368
100
AcDbEntity
8
Layer0
6
ByLayer
62
256
370
-1
100
AcDbLine
10
2.79654195279
20
1.04980997993
11
2.79654195317
21
1.04980997993
0
LINE
5
369
100
AcDbEntity
8
Layer0
6
ByLayer
62
256
370
-1
100
AcDbLine
10
2.79654195428
20
0.969058437858
11
2.79654195467
21
0.969058437858
0
LINE
5
36A
100
AcDbEntity
8
Layer0
6
ByLayer
62
256
370
-1
100
AcDbLine
10
2.78095748906
20
0.931434208606
11
2.78095748945
21
0.931434208606
0
LINE
5
36B
100
AcDbEntity
8
Layer0
6
ByLayer
62
256
370
-1
100
AcDbLine
10
2.75616618453
20
0.899125550283
11
2.75616618492
21
0.899125550283
0
LINE
5
36C
100
AcDbEntity
8
Layer0
6
ByLayer
62
256
370
-1
100
AcDbLine
10
2.72385752713
20
0.874334244561
11
2.72385752752
21
0.874334244561
0
LINE
5
36D
100
AcDbEntity
8
Layer0
6
ByLayer
62
256
370
-1
100
AcDbLine
10
2.68623329845
20
0.858749777955
11
2.68623329884
21
0.858749777955
0
LINE
5
36E
100
AcDbEntity
8
Layer0
6
ByLayer
62
256
370
-1
100
AcDbLine
10
2.64585752751
20
0.853434206111
11
2.6458575279
21
0.853434206111
0
LINE
5
36F
100
AcDbEntity
8
Layer0
6
ByLayer
62
256
370
-1
100
AcDbLine
10
2.60548175638
20
0.858749776464
11
2.60548175677
21
0.858749776464
0
LINE
5
370
100
AcDbEntity
8
Layer0
6
ByLayer
62
256
370
-1
100
AcDbLine
10
2.56785752713
20
0.87433424168
11
2.56785752752
21
0.87433424168
0
LINE
5
371
100
AcDbEntity
8
Layer0
6
ByLayer
62
256
370
-1
100
AcDbLine
10
2.5355488688
20
0.899125546208
11
2.53554886919
21
0.899125546208
0
LINE
5
372
100
AcDbEntity
8
Layer0
6
ByLayer
62
256
370
-1
100
AcDbLine
10
2.51075756308
20
0.931434203615
11
2.51075756347
21
0.931434203615
0
LINE
5
373
100
AcDbEntity
8
Layer0
6
ByLayer
62
256
370
-1
100
AcDbLine
10
2.49517309648
20
0.969058432291
11
2.49517309686
21
0.969058432291
0
LINE
5
374
100
AcDbEntity
8
Layer0
6
ByLayer
62
256
370
-1
100
AcDbLine
10
2.48985752463
20
1.00943420323
11
2.48985752502
21
1.00943420323
0
LINE
5
375
100
AcDbEntity
8
Layer0
6
ByLayer
62
256
370
-1
100
AcDbLine
10
2.49517309498
20
1.04980997436
11
2.49517309537
21
1.04980997436
0
LINE
5
376
100
AcDbEntity
8
Layer0
6
ByLayer
62
256
370
-1
100
AcDbLine
10
2.5107575602
20
1.08743420362
11
2.51075756059
21
1.08743420362
0
LINE
5
377
100
AcDbEntity
8
Layer0
6
ByLayer
62
256
370
-1
100
AcDbLine
10
2.53554886473
20
1.11974286194
11
2.53554886512
21
1.11974286194
0
LINE
5
378
100
AcDbEntity
8
Layer0
6
ByLayer
62
256
370
-1
100
AcDbLine
10
2.56785752213
20
1.14453416766
11
2.56785752252
21
1.14453416766
0
LINE
5
379
100
AcDbEntity
8
Layer0
6
ByLayer
62
256
370
-1
100
AcDbLine
10
2.60548175081
20
1.16011863427
11
2.6054817512
21
1.16011863427
0
LINE
5
37A
100
AcDbEntity
8
Layer0
6
ByLayer
62
256
370
-1
100
AcDbLine
10
2.64585752175
20
1.16543420611
11
2.64585752214
21
1.16543420611
0
LINE
5
37B
100
AcDbEntity
8
Layer0
6
ByLayer
62
256
370
-1
100
AcDbLine
10
2.68623329288
20
1.16011863576
11
2.68623329327
21
1.16011863576
0
LINE
5
37C
100
AcDbEntity
8
Layer0
6
ByLayer
62
256
370
-1
100
AcDbLine
10
2.72385752213
20
1.14453417054
11
2.72385752252
21
1.14453417054
0
LINE
5
37D
100
AcDbEntity
8
Layer0
6
ByLayer
62
256
370
-1
100
AcDbLine
10
2.75616618046
20
1.11974286601
11
2.75616618085
21
1.11974286601
0
LINE
5
37E
100
AcDbEntity
8
Layer0
6
ByLayer
62
256
370
-1
100
AcDbLine
10
2.78095748618
20
1.08743420861
11
2.78095748657
21
1.08743420861
0
LINE
5
37F
100
AcDbEntity
8
Layer0
6
ByLayer
62
256
370
-1
100
AcDbLine
10
2.051
20
0.7
11
2.20716604545
21
0.699838716637
0
LINE
5
380
100
AcDbEntity
8
Layer0
6
ByLayer
62
256
370
-1
100
AcDbLine
10
2.20716604545
20
0.699838716637
11
2.23885753035
21
0.7
0
LINE
5
381
100
AcDbEntity
8
0
6
ByLayer
62
256
370
-1
100
AcDbLine
10
1.5
20
1.606
11
3.020857514
21
1.60600001445
0
LINE
5
382
100
AcDbEntity
8
0
6
ByLayer
62
256
370
-1
100
AcDbLine
10
3.020857514
20
1.60600001445
11
3.02085753074
21
0.700000014445
0
LINE
5
383
100
AcDbEntity
8
0
6
ByLayer
62
256
370
-1
100
AcDbLine
10
3.02085753074
20
0.700000014445
11
1.5
21
0.7
0
LINE
5
384
100
AcDbEntity
8
0
6
ByLayer
62
256
370
-1
100
AcDbLine
10
1.5
20
0.7
11
1.5
21
1.606
0
LINE
5
385
100
AcDbEntity
8
bend
6
ByLayer
62
256
370
-1
100
AcDbLine
10
2.23885751361
20
1.606
11
2.23885753074
21
0.7
0
LINE
5
386
100
AcDbEntity
8
bend
6
ByLayer
62
256
370
-1
100
AcDbLine
10
2.05119412802
20
1.60598277415
11
2.051
21
0.7
0
CIRCLE
5
387
100
AcDbEntity
8
cutout
6
ByLayer
62
256
370
-1
100
AcDbCircle
10
2.64585752483
20
1.00943420611
40
0.156000000195
0
CIRCLE
5
388
100
AcDbEntity
8
drill
6
ByLayer
62
256
370
-1
100
AcDbCircle
10
1.935
20
1.4285
40
0.063
0
CIRCLE
5
389
100
AcDbEntity
8
drill
6
ByLayer
62
256
370
-1
100
AcDbCircle
10
1.935
20
0.8775
40
0.063
0
CIRCLE
5
38A
100
AcDbEntity
8
drill
6
ByLayer
62
256
370
-1
100
AcDbCircle
10
0.5
20
1.606
40
0.065
0
CIRCLE
5
38B
100
AcDbEntity
8
drill
6
ByLayer
62
256
370
-1
100
AcDbCircle
10
0.5
20
0.7
40
0.065
0
CIRCLE
5
38C
100
AcDbEntity
8
drill
6
ByLayer
62
256
370
-1
100
AcDbCircle
10
2.051
20
0.7
40
0.065
0
CIRCLE
5
38D
100
AcDbEntity
8
drill
6
ByLayer
62
256
370
-1
100
AcDbCircle
10
2.05119412802
20
1.60598277415
40
0.065
0
CIRCLE
5
38E
100
AcDbEntity
8
drill
6
ByLayer
62
256
370
-1
100
AcDbCircle
10
2.23885751361
20
1.606
40
0.065
0
CIRCLE
5
38F
100
AcDbEntity
8
drill
6
ByLayer
62
256
370
-1
100
AcDbCircle
10
2.26042876537
20
0.700000007223
40
0.065
0
ENDSEC
0
SECTION
2
OBJECTS
0
DICTIONARY
5
C
330
0
100
AcDbDictionary
281
1
3
ACAD_GROUP
350
D
0
DICTIONARY
5
D
330
C
100
AcDbDictionary
281
1
0
ENDSEC
0
EOF
