solid foot_cover
facet normal 0.0 0.0 -1.0
outer loop
vertex 42.925999999999995 41.275 1.651
vertex 0.0 0.0 1.651
vertex 0.0 41.275 1.651
endloop
endfacet
facet normal 0.0 0.0 -1.0
outer loop
vertex 0.0 0.0 1.651
vertex 42.925999999999995 41.275 1.651
vertex 42.925999999999995 0.0 1.651
endloop
endfacet
facet normal -0.0 1.0 -0.0
outer loop
vertex 0.0 0.0 8.001
vertex 42.925999999999995 0.0 1.651
vertex 0.0 0.0 1.651
endloop
endfacet
facet normal -0.0 1.0 -0.0
outer loop
vertex 42.925999999999995 0.0 1.651
vertex 0.0 0.0 8.001
vertex 42.925999999999995 0.0 8.001
endloop
endfacet
facet normal 0.0 -1.0 0.0
outer loop
vertex 42.925999999999995 41.275 8.001
vertex 0.0 41.275 1.651
vertex 42.925999999999995 41.275 1.651
endloop
endfacet
facet normal 0.0 -1.0 0.0
outer loop
vertex 0.0 41.275 1.651
vertex 42.925999999999995 41.275 8.001
vertex 0.0 41.275 8.001
endloop
endfacet
facet normal 2.5244664687772332e-17 0.9793666392196709 0.20209152872786834
outer loop
vertex -3.302 44.577 0.0
vertex 42.925999999999995 42.925999999999995 8.001
vertex 42.925999999999995 44.577 -1.762479051592436e-16
endloop
endfacet
facet normal 2.5244664687772332e-17 0.9793666392196709 0.20209152872786834
outer loop
vertex 42.925999999999995 42.925999999999995 8.001
vertex -3.302 44.577 0.0
vertex -1.651 42.925999999999995 8.001
endloop
endfacet
facet normal -0.0 -0.0 1.0
outer loop
vertex -1.651 -1.6509999999999985 8.001
vertex 0.0 0.0 8.001
vertex -1.651 14.2875 8.001
endloop
endfacet
facet normal -0.0 -0.0 1.0
outer loop
vertex 0.0 0.0 8.001
vertex -1.651 -1.6509999999999985 8.001
vertex 42.925999999999995 -1.651 8.001
endloop
endfacet
facet normal -0.0 -0.0 1.0
outer loop
vertex 0.0 0.0 8.001
vertex 42.925999999999995 -1.651 8.001
vertex 42.925999999999995 0.0 8.001
endloop
endfacet
facet normal -0.0 -0.0 1.0
outer loop
vertex 0.0 14.2875 8.001
vertex -1.651 14.2875 8.001
vertex 0.0 0.0 8.001
endloop
endfacet
facet normal 0.0 -1.0 0.0
outer loop
vertex 0.0 14.2875 14.350999999999997
vertex -1.651 14.2875 8.001
vertex 0.0 14.2875 8.001
endloop
endfacet
facet normal 0.0 -1.0 0.0
outer loop
vertex -1.651 14.2875 8.001
vertex 0.0 14.2875 14.350999999999997
vertex -1.651 14.2875 14.350999999999997
endloop
endfacet
facet normal -0.0 1.0 -0.0
outer loop
vertex -1.651 26.987499999999997 14.350999999999997
vertex 0.0 26.987499999999997 8.001
vertex -1.651 26.987499999999997 8.001
endloop
endfacet
facet normal -0.0 1.0 -0.0
outer loop
vertex 0.0 26.987499999999997 8.001
vertex -1.651 26.987499999999997 14.350999999999997
vertex -4.40619762898109e-17 26.987499999999997 14.350999999999997
endloop
endfacet
facet normal -1.0 0.0 0.0
outer loop
vertex -1.651 16.771864925794624 19.388793710849342
vertex -1.651 16.675099999999997 14.350999999999997
vertex -1.651 16.147371939465422 18.841128060534572
endloop
endfacet
facet normal -1.0 0.0 0.0
outer loop
vertex -1.651 16.675099999999997 14.350999999999997
vertex -1.651 16.771864925794624 19.388793710849342
vertex -1.651 16.810115505912194 15.376544584314228
endloop
endfacet
facet normal -1.0 0.0 0.0
outer loop
vertex -1.651 16.810115505912194 15.376544584314228
vertex -1.651 16.771864925794624 19.388793710849342
vertex -1.651 17.4625 19.850261314031183
endloop
endfacet
facet normal -1.0 0.0 0.0
outer loop
vertex -1.651 16.810115505912194 15.376544584314228
vertex -1.651 17.4625 19.850261314031183
vertex -1.651 17.20596094004454 16.3322
endloop
endfacet
facet normal -1.0 0.0 0.0
outer loop
vertex -1.651 17.20596094004454 16.3322
vertex -1.651 17.4625 19.850261314031183
vertex -1.651 17.835660090226426 17.152839909773576
endloop
endfacet
facet normal -1.0 0.0 0.0
outer loop
vertex -1.651 17.835660090226426 17.152839909773576
vertex -1.651 17.4625 19.850261314031183
vertex -1.651 18.20746020448168 20.21763503144667
endloop
endfacet
facet normal -1.0 0.0 0.0
outer loop
vertex -1.651 17.835660090226426 17.152839909773576
vertex -1.651 18.20746020448168 20.21763503144667
vertex -1.651 18.6563 17.78253905995546
endloop
endfacet
facet normal -1.0 0.0 0.0
outer loop
vertex -1.651 18.6563 17.78253905995546
vertex -1.651 18.20746020448168 20.21763503144667
vertex -1.651 18.99399906359899 20.48462899693558
endloop
endfacet
facet normal -1.0 0.0 0.0
outer loop
vertex -1.651 18.6563 17.78253905995546
vertex -1.651 18.99399906359899 20.48462899693558
vertex -1.651 19.61195541568577 18.1783844940878
endloop
endfacet
facet normal -1.0 0.0 0.0
outer loop
vertex -1.651 19.61195541568577 18.1783844940878
vertex -1.651 18.99399906359899 20.48462899693558
vertex -1.651 19.808658679402672 20.646674869723693
endloop
endfacet
facet normal -1.0 0.0 0.0
outer loop
vertex -1.651 19.61195541568577 18.1783844940878
vertex -1.651 19.808658679402672 20.646674869723693
vertex -1.651 20.6375 18.313399999999998
endloop
endfacet
facet normal -1.0 0.0 0.0
outer loop
vertex -1.651 20.6375 18.313399999999998
vertex -1.651 19.808658679402672 20.646674869723693
vertex -1.651 20.6375 20.700999999999997
endloop
endfacet
facet normal -1.0 0.0 0.0
outer loop
vertex -1.651 20.6375 18.313399999999998
vertex -1.651 20.6375 20.700999999999997
vertex -1.651 21.466341320597326 20.646674869723693
endloop
endfacet
facet normal -1.0 0.0 0.0
outer loop
vertex -1.651 20.6375 18.313399999999998
vertex -1.651 21.466341320597326 20.646674869723693
vertex -1.651 21.66304458431423 18.1783844940878
endloop
endfacet
facet normal -1.0 0.0 0.0
outer loop
vertex -1.651 21.66304458431423 18.1783844940878
vertex -1.651 21.466341320597326 20.646674869723693
vertex -1.651 22.281000936401007 20.48462899693558
endloop
endfacet
facet normal -1.0 0.0 0.0
outer loop
vertex -1.651 21.66304458431423 18.1783844940878
vertex -1.651 22.281000936401007 20.48462899693558
vertex -1.651 22.6187 17.782539059955457
endloop
endfacet
facet normal -1.0 0.0 0.0
outer loop
vertex -1.651 22.6187 17.782539059955457
vertex -1.651 22.281000936401007 20.48462899693558
vertex -1.651 23.067539795518318 20.21763503144667
endloop
endfacet
facet normal -1.0 0.0 0.0
outer loop
vertex -1.651 22.6187 17.782539059955457
vertex -1.651 23.067539795518318 20.21763503144667
vertex -1.651 23.439339909773576 17.152839909773572
endloop
endfacet
facet normal -1.0 0.0 0.0
outer loop
vertex -1.651 23.439339909773576 17.152839909773572
vertex -1.651 23.067539795518318 20.21763503144667
vertex -1.651 23.8125 19.85026131403118
endloop
endfacet
facet normal -1.0 0.0 0.0
outer loop
vertex -1.651 23.439339909773576 17.152839909773572
vertex -1.651 23.8125 19.85026131403118
vertex -1.651 24.069039059955458 16.332199999999997
endloop
endfacet
facet normal -1.0 0.0 0.0
outer loop
vertex -1.651 24.069039059955458 16.332199999999997
vertex -1.651 23.8125 19.85026131403118
vertex -1.651 24.503135074205375 19.38879371084934
endloop
endfacet
facet normal -1.0 0.0 0.0
outer loop
vertex -1.651 24.069039059955458 16.332199999999997
vertex -1.651 24.503135074205375 19.38879371084934
vertex -1.651 24.464884494087805 15.376544584314225
endloop
endfacet
facet normal -1.0 0.0 0.0
outer loop
vertex -1.651 24.464884494087805 15.376544584314225
vertex -1.651 24.503135074205375 19.38879371084934
vertex -1.651 24.599899999999998 14.350999999999997
endloop
endfacet
facet normal -1.0 0.0 0.0
outer loop
vertex -1.651 24.599899999999998 14.350999999999997
vertex -1.651 24.503135074205375 19.38879371084934
vertex -1.651 25.127628060534576 18.841128060534572
endloop
endfacet
facet normal -1.0 0.0 0.0
outer loop
vertex -1.651 14.341825130276302 15.179841320597326
vertex -1.651 14.2875 8.001
vertex -1.651 14.2875 14.350999999999997
endloop
endfacet
facet normal -1.0 0.0 0.0
outer loop
vertex -1.651 14.2875 8.001
vertex -1.651 14.341825130276302 15.179841320597326
vertex -1.651 17.835660090226423 11.549160090226422
endloop
endfacet
facet normal -1.0 0.0 0.0
outer loop
vertex -1.651 14.2875 8.001
vertex -1.651 17.835660090226423 11.549160090226422
vertex -1.651 18.656299999999998 10.919460940044539
endloop
endfacet
facet normal -1.0 0.0 0.0
outer loop
vertex -1.651 14.2875 8.001
vertex -1.651 18.656299999999998 10.919460940044539
vertex -1.651 19.611955415685767 10.523615505912193
endloop
endfacet
facet normal -1.0 0.0 0.0
outer loop
vertex -1.651 14.2875 8.001
vertex -1.651 19.611955415685767 10.523615505912193
vertex -1.651 26.987499999999997 8.001
endloop
endfacet
facet normal -1.0 0.0 0.0
outer loop
vertex -1.651 17.835660090226423 11.549160090226422
vertex -1.651 14.341825130276302 15.179841320597326
vertex -1.651 17.20596094004454 12.3698
endloop
endfacet
facet normal -1.0 0.0 0.0
outer loop
vertex -1.651 17.20596094004454 12.3698
vertex -1.651 14.341825130276302 15.179841320597326
vertex -1.651 14.503871003064416 15.994500936401005
endloop
endfacet
facet normal -1.0 0.0 0.0
outer loop
vertex -1.651 17.20596094004454 12.3698
vertex -1.651 14.503871003064416 15.994500936401005
vertex -1.651 14.770864968553328 16.781039795518318
endloop
endfacet
facet normal -1.0 0.0 0.0
outer loop
vertex -1.651 17.20596094004454 12.3698
vertex -1.651 14.770864968553328 16.781039795518318
vertex -1.651 16.810115505912194 13.32545541568577
endloop
endfacet
facet normal -1.0 0.0 0.0
outer loop
vertex -1.651 16.810115505912194 13.32545541568577
vertex -1.651 14.770864968553328 16.781039795518318
vertex -1.651 15.138238685968815 17.525999999999996
endloop
endfacet
facet normal -1.0 0.0 0.0
outer loop
vertex -1.651 16.810115505912194 13.32545541568577
vertex -1.651 15.138238685968815 17.525999999999996
vertex -1.651 15.599706289150657 18.216635074205374
endloop
endfacet
facet normal -1.0 0.0 0.0
outer loop
vertex -1.651 16.810115505912194 13.32545541568577
vertex -1.651 15.599706289150657 18.216635074205374
vertex -1.651 16.675099999999997 14.350999999999997
endloop
endfacet
facet normal -1.0 0.0 0.0
outer loop
vertex -1.651 16.675099999999997 14.350999999999997
vertex -1.651 15.599706289150657 18.216635074205374
vertex -1.651 16.147371939465422 18.841128060534572
endloop
endfacet
facet normal -1.0 0.0 0.0
outer loop
vertex -1.651 26.987499999999997 8.001
vertex -1.651 19.611955415685767 10.523615505912193
vertex -1.651 20.6375 10.388599999999997
endloop
endfacet
facet normal -1.0 0.0 0.0
outer loop
vertex -1.651 26.987499999999997 8.001
vertex -1.651 20.6375 10.388599999999997
vertex -1.651 21.663044584314225 10.523615505912193
endloop
endfacet
facet normal -1.0 0.0 0.0
outer loop
vertex -1.651 26.987499999999997 8.001
vertex -1.651 21.663044584314225 10.523615505912193
vertex -1.651 22.618699999999997 10.919460940044539
endloop
endfacet
facet normal -1.0 0.0 0.0
outer loop
vertex -1.651 26.987499999999997 8.001
vertex -1.651 22.618699999999997 10.919460940044539
vertex -1.651 23.439339909773572 11.549160090226422
endloop
endfacet
facet normal -1.0 0.0 0.0
outer loop
vertex -1.651 26.987499999999997 8.001
vertex -1.651 23.439339909773572 11.549160090226422
vertex -1.651 24.069039059955458 12.369799999999996
endloop
endfacet
facet normal -1.0 0.0 0.0
outer loop
vertex -1.651 26.987499999999997 8.001
vertex -1.651 24.069039059955458 12.369799999999996
vertex -1.651 24.464884494087805 13.325455415685768
endloop
endfacet
facet normal -1.0 0.0 0.0
outer loop
vertex -1.651 26.987499999999997 8.001
vertex -1.651 24.464884494087805 13.325455415685768
vertex -1.651 24.599899999999998 14.350999999999997
endloop
endfacet
facet normal -1.0 0.0 0.0
outer loop
vertex -1.651 26.987499999999997 8.001
vertex -1.651 24.599899999999998 14.350999999999997
vertex -1.651 25.127628060534576 18.841128060534572
endloop
endfacet
facet normal -1.0 0.0 0.0
outer loop
vertex -1.651 26.987499999999997 8.001
vertex -1.651 25.127628060534576 18.841128060534572
vertex -1.651 25.675293710849342 18.21663507420537
endloop
endfacet
facet normal -1.0 0.0 0.0
outer loop
vertex -1.651 26.987499999999997 8.001
vertex -1.651 25.675293710849342 18.21663507420537
vertex -1.651 26.136761314031183 17.525999999999996
endloop
endfacet
facet normal -1.0 0.0 0.0
outer loop
vertex -1.651 26.987499999999997 8.001
vertex -1.651 26.136761314031183 17.525999999999996
vertex -1.651 26.50413503144667 16.781039795518318
endloop
endfacet
facet normal -1.0 0.0 0.0
outer loop
vertex -1.651 26.987499999999997 8.001
vertex -1.651 26.50413503144667 16.781039795518318
vertex -1.651 26.771128996935584 15.994500936401005
endloop
endfacet
facet normal -1.0 0.0 0.0
outer loop
vertex -1.651 26.987499999999997 8.001
vertex -1.651 26.771128996935584 15.994500936401005
vertex -1.651 26.933174869723693 15.179841320597326
endloop
endfacet
facet normal -1.0 0.0 0.0
outer loop
vertex -1.651 26.987499999999997 8.001
vertex -1.651 26.933174869723693 15.179841320597326
vertex -1.651 26.987499999999997 14.350999999999997
endloop
endfacet
facet normal -0.9793666392196709 -8.1490091263348e-19 0.2020915287278686
outer loop
vertex -1.651 -1.6509999999999985 8.001
vertex -3.302 44.577 0.0
vertex -3.302 -3.302 0.0
endloop
endfacet
facet normal -0.9793666392196709 -8.1490091263348e-19 0.2020915287278686
outer loop
vertex -3.302 44.577 0.0
vertex -1.651 -1.6509999999999985 8.001
vertex -1.651 14.2875 8.001
endloop
endfacet
facet normal -0.9793666392196709 -8.1490091263348e-19 0.2020915287278686
outer loop
vertex -3.302 44.577 0.0
vertex -1.651 14.2875 8.001
vertex -1.651 26.987499999999997 8.001
endloop
endfacet
facet normal -0.9793666392196709 -8.1490091263348e-19 0.2020915287278686
outer loop
vertex -3.302 44.577 0.0
vertex -1.651 26.987499999999997 8.001
vertex -1.651 42.925999999999995 8.001
endloop
endfacet
facet normal 1.0 4.645991732333873e-19 2.5931165607804984e-18
outer loop
vertex -1.4099832412739487e-15 16.675099999999997 14.350999999999997
vertex 0.0 16.771864925794624 19.388793710849342
vertex 0.0 16.147371939465422 18.841128060534572
endloop
endfacet
facet normal 1.0 4.645991732333873e-19 2.5931165607804984e-18
outer loop
vertex 0.0 16.771864925794624 19.388793710849342
vertex -1.4099832412739487e-15 16.675099999999997 14.350999999999997
vertex -1.4099832412739487e-15 16.810115505912194 15.376544584314228
endloop
endfacet
facet normal 1.0 4.645991732333873e-19 2.5931165607804984e-18
outer loop
vertex 0.0 16.771864925794624 19.388793710849342
vertex -1.4099832412739487e-15 16.810115505912194 15.376544584314228
vertex 0.0 17.4625 19.850261314031183
endloop
endfacet
facet normal 1.0 4.645991732333873e-19 2.5931165607804984e-18
outer loop
vertex 0.0 17.4625 19.850261314031183
vertex -1.4099832412739487e-15 16.810115505912194 15.376544584314228
vertex -1.4099832412739487e-15 17.20596094004454 16.3322
endloop
endfacet
facet normal 1.0 4.645991732333873e-19 2.5931165607804984e-18
outer loop
vertex 0.0 17.4625 19.850261314031183
vertex -1.4099832412739487e-15 17.20596094004454 16.3322
vertex -1.4099832412739487e-15 17.835660090226426 17.152839909773576
endloop
endfacet
facet normal 1.0 4.645991732333873e-19 2.5931165607804984e-18
outer loop
vertex 0.0 17.4625 19.850261314031183
vertex -1.4099832412739487e-15 17.835660090226426 17.152839909773576
vertex 0.0 18.20746020448168 20.21763503144667
endloop
endfacet
facet normal 1.0 4.645991732333873e-19 2.5931165607804984e-18
outer loop
vertex 0.0 18.20746020448168 20.21763503144667
vertex -1.4099832412739487e-15 17.835660090226426 17.152839909773576
vertex -1.4099832412739487e-15 18.6563 17.78253905995546
endloop
endfacet
facet normal 1.0 4.645991732333873e-19 2.5931165607804984e-18
outer loop
vertex 0.0 18.20746020448168 20.21763503144667
vertex -1.4099832412739487e-15 18.6563 17.78253905995546
vertex 0.0 18.99399906359899 20.48462899693558
endloop
endfacet
facet normal 1.0 4.645991732333873e-19 2.5931165607804984e-18
outer loop
vertex 0.0 18.99399906359899 20.48462899693558
vertex -1.4099832412739487e-15 18.6563 17.78253905995546
vertex -1.4099832412739487e-15 19.61195541568577 18.1783844940878
endloop
endfacet
facet normal 1.0 4.645991732333873e-19 2.5931165607804984e-18
outer loop
vertex 0.0 18.99399906359899 20.48462899693558
vertex -1.4099832412739487e-15 19.61195541568577 18.1783844940878
vertex 0.0 19.808658679402672 20.646674869723693
endloop
endfacet
facet normal 1.0 4.645991732333873e-19 2.5931165607804984e-18
outer loop
vertex 0.0 19.808658679402672 20.646674869723693
vertex -1.4099832412739487e-15 19.61195541568577 18.1783844940878
vertex -1.4099832412739487e-15 20.6375 18.313399999999998
endloop
endfacet
facet normal 1.0 4.645991732333873e-19 2.5931165607804984e-18
outer loop
vertex 0.0 19.808658679402672 20.646674869723693
vertex -1.4099832412739487e-15 20.6375 18.313399999999998
vertex -4.40619762898109e-17 20.6375 20.700999999999997
endloop
endfacet
facet normal 1.0 4.645991732333873e-19 2.5931165607804984e-18
outer loop
vertex -4.40619762898109e-17 20.6375 20.700999999999997
vertex -1.4099832412739487e-15 20.6375 18.313399999999998
vertex -1.4099832412739487e-15 21.66304458431423 18.1783844940878
endloop
endfacet
facet normal 1.0 4.645991732333873e-19 2.5931165607804984e-18
outer loop
vertex -4.40619762898109e-17 20.6375 20.700999999999997
vertex -1.4099832412739487e-15 21.66304458431423 18.1783844940878
vertex -4.40619762898109e-17 21.466341320597326 20.646674869723693
endloop
endfacet
facet normal 1.0 4.645991732333873e-19 2.5931165607804984e-18
outer loop
vertex -4.40619762898109e-17 21.466341320597326 20.646674869723693
vertex -1.4099832412739487e-15 21.66304458431423 18.1783844940878
vertex -4.40619762898109e-17 22.281000936401007 20.48462899693558
endloop
endfacet
facet normal 1.0 4.645991732333873e-19 2.5931165607804984e-18
outer loop
vertex -4.40619762898109e-17 22.281000936401007 20.48462899693558
vertex -1.4099832412739487e-15 21.66304458431423 18.1783844940878
vertex -1.4099832412739487e-15 22.6187 17.782539059955457
endloop
endfacet
facet normal 1.0 4.645991732333873e-19 2.5931165607804984e-18
outer loop
vertex -4.40619762898109e-17 22.281000936401007 20.48462899693558
vertex -1.4099832412739487e-15 22.6187 17.782539059955457
vertex -4.40619762898109e-17 23.067539795518318 20.21763503144667
endloop
endfacet
facet normal 1.0 4.645991732333873e-19 2.5931165607804984e-18
outer loop
vertex -4.40619762898109e-17 23.067539795518318 20.21763503144667
vertex -1.4099832412739487e-15 22.6187 17.782539059955457
vertex -1.4099832412739487e-15 23.439339909773576 17.152839909773572
endloop
endfacet
facet normal 1.0 4.645991732333873e-19 2.5931165607804984e-18
outer loop
vertex -4.40619762898109e-17 23.067539795518318 20.21763503144667
vertex -1.4099832412739487e-15 23.439339909773576 17.152839909773572
vertex -4.40619762898109e-17 23.8125 19.85026131403118
endloop
endfacet
facet normal 1.0 4.645991732333873e-19 2.5931165607804984e-18
outer loop
vertex -4.40619762898109e-17 23.8125 19.85026131403118
vertex -1.4099832412739487e-15 23.439339909773576 17.152839909773572
vertex -1.4099832412739487e-15 24.069039059955458 16.332199999999997
endloop
endfacet
facet normal 1.0 4.645991732333873e-19 2.5931165607804984e-18
outer loop
vertex -4.40619762898109e-17 23.8125 19.85026131403118
vertex -1.4099832412739487e-15 24.069039059955458 16.332199999999997
vertex -4.40619762898109e-17 24.503135074205375 19.38879371084934
endloop
endfacet
facet normal 1.0 4.645991732333873e-19 2.5931165607804984e-18
outer loop
vertex -4.40619762898109e-17 24.503135074205375 19.38879371084934
vertex -1.4099832412739487e-15 24.069039059955458 16.332199999999997
vertex -1.4099832412739487e-15 24.464884494087805 15.376544584314225
endloop
endfacet
facet normal 1.0 4.645991732333873e-19 2.5931165607804984e-18
outer loop
vertex -4.40619762898109e-17 24.503135074205375 19.38879371084934
vertex -1.4099832412739487e-15 24.464884494087805 15.376544584314225
vertex -1.4099832412739487e-15 24.599899999999998 14.350999999999997
endloop
endfacet
facet normal 1.0 4.645991732333873e-19 2.5931165607804984e-18
outer loop
vertex -4.40619762898109e-17 24.503135074205375 19.38879371084934
vertex -1.4099832412739487e-15 24.599899999999998 14.350999999999997
vertex -4.40619762898109e-17 25.127628060534576 18.841128060534572
endloop
endfacet
facet normal 1.0 4.645991732333873e-19 2.5931165607804984e-18
outer loop
vertex 0.0 41.275 1.651
vertex 0.0 0.0 8.001
vertex 0.0 0.0 1.651
endloop
endfacet
facet normal 1.0 4.645991732333873e-19 2.5931165607804984e-18
outer loop
vertex 0.0 0.0 8.001
vertex 0.0 41.275 1.651
vertex 0.0 14.2875 8.001
endloop
endfacet
facet normal 1.0 4.645991732333873e-19 2.5931165607804984e-18
outer loop
vertex 0.0 14.2875 8.001
vertex 0.0 41.275 1.651
vertex -1.4099832412739487e-15 19.611955415685767 10.523615505912193
endloop
endfacet
facet normal 1.0 4.645991732333873e-19 2.5931165607804984e-18
outer loop
vertex 0.0 14.2875 8.001
vertex -1.4099832412739487e-15 19.611955415685767 10.523615505912193
vertex -1.4099832412739487e-15 18.656299999999998 10.919460940044539
endloop
endfacet
facet normal 1.0 4.645991732333873e-19 2.5931165607804984e-18
outer loop
vertex 0.0 14.2875 8.001
vertex -1.4099832412739487e-15 18.656299999999998 10.919460940044539
vertex -1.4099832412739487e-15 17.835660090226423 11.549160090226422
endloop
endfacet
facet normal 1.0 4.645991732333873e-19 2.5931165607804984e-18
outer loop
vertex 0.0 14.2875 8.001
vertex -1.4099832412739487e-15 17.835660090226423 11.549160090226422
vertex 0.0 14.2875 14.350999999999997
endloop
endfacet
facet normal 1.0 4.645991732333873e-19 2.5931165607804984e-18
outer loop
vertex 0.0 14.2875 14.350999999999997
vertex -1.4099832412739487e-15 17.835660090226423 11.549160090226422
vertex 0.0 14.341825130276302 15.179841320597326
endloop
endfacet
facet normal 1.0 4.645991732333873e-19 2.5931165607804984e-18
outer loop
vertex 0.0 14.341825130276302 15.179841320597326
vertex -1.4099832412739487e-15 17.835660090226423 11.549160090226422
vertex -1.4099832412739487e-15 17.20596094004454 12.3698
endloop
endfacet
facet normal 1.0 4.645991732333873e-19 2.5931165607804984e-18
outer loop
vertex 0.0 14.341825130276302 15.179841320597326
vertex -1.4099832412739487e-15 17.20596094004454 12.3698
vertex 0.0 14.503871003064416 15.994500936401005
endloop
endfacet
facet normal 1.0 4.645991732333873e-19 2.5931165607804984e-18
outer loop
vertex 0.0 14.503871003064416 15.994500936401005
vertex -1.4099832412739487e-15 17.20596094004454 12.3698
vertex 0.0 14.770864968553328 16.781039795518318
endloop
endfacet
facet normal 1.0 4.645991732333873e-19 2.5931165607804984e-18
outer loop
vertex 0.0 14.770864968553328 16.781039795518318
vertex -1.4099832412739487e-15 17.20596094004454 12.3698
vertex -1.4099832412739487e-15 16.810115505912194 13.32545541568577
endloop
endfacet
facet normal 1.0 4.645991732333873e-19 2.5931165607804984e-18
outer loop
vertex 0.0 14.770864968553328 16.781039795518318
vertex -1.4099832412739487e-15 16.810115505912194 13.32545541568577
vertex 0.0 15.138238685968815 17.525999999999996
endloop
endfacet
facet normal 1.0 4.645991732333873e-19 2.5931165607804984e-18
outer loop
vertex 0.0 15.138238685968815 17.525999999999996
vertex -1.4099832412739487e-15 16.810115505912194 13.32545541568577
vertex 0.0 15.599706289150657 18.216635074205374
endloop
endfacet
facet normal 1.0 4.645991732333873e-19 2.5931165607804984e-18
outer loop
vertex 0.0 15.599706289150657 18.216635074205374
vertex -1.4099832412739487e-15 16.810115505912194 13.32545541568577
vertex -1.4099832412739487e-15 16.675099999999997 14.350999999999997
endloop
endfacet
facet normal 1.0 4.645991732333873e-19 2.5931165607804984e-18
outer loop
vertex 0.0 15.599706289150657 18.216635074205374
vertex -1.4099832412739487e-15 16.675099999999997 14.350999999999997
vertex 0.0 16.147371939465422 18.841128060534572
endloop
endfacet
facet normal 1.0 4.645991732333873e-19 2.5931165607804984e-18
outer loop
vertex -1.4099832412739487e-15 19.611955415685767 10.523615505912193
vertex 0.0 41.275 1.651
vertex -1.4099832412739487e-15 20.6375 10.388599999999997
endloop
endfacet
facet normal 1.0 4.645991732333873e-19 2.5931165607804984e-18
outer loop
vertex -1.4099832412739487e-15 20.6375 10.388599999999997
vertex 0.0 41.275 1.651
vertex 0.0 26.987499999999997 8.001
endloop
endfacet
facet normal 1.0 4.645991732333873e-19 2.5931165607804984e-18
outer loop
vertex -1.4099832412739487e-15 20.6375 10.388599999999997
vertex 0.0 26.987499999999997 8.001
vertex -1.4099832412739487e-15 21.663044584314225 10.523615505912193
endloop
endfacet
facet normal 1.0 4.645991732333873e-19 2.5931165607804984e-18
outer loop
vertex -1.4099832412739487e-15 21.663044584314225 10.523615505912193
vertex 0.0 26.987499999999997 8.001
vertex -1.4099832412739487e-15 22.618699999999997 10.919460940044539
endloop
endfacet
facet normal 1.0 4.645991732333873e-19 2.5931165607804984e-18
outer loop
vertex -1.4099832412739487e-15 22.618699999999997 10.919460940044539
vertex 0.0 26.987499999999997 8.001
vertex -1.4099832412739487e-15 23.439339909773572 11.549160090226422
endloop
endfacet
facet normal 1.0 4.645991732333873e-19 2.5931165607804984e-18
outer loop
vertex -1.4099832412739487e-15 23.439339909773572 11.549160090226422
vertex 0.0 26.987499999999997 8.001
vertex -1.4099832412739487e-15 24.069039059955458 12.369799999999996
endloop
endfacet
facet normal 1.0 4.645991732333873e-19 2.5931165607804984e-18
outer loop
vertex -1.4099832412739487e-15 24.069039059955458 12.369799999999996
vertex 0.0 26.987499999999997 8.001
vertex -1.4099832412739487e-15 24.464884494087805 13.325455415685768
endloop
endfacet
facet normal 1.0 4.645991732333873e-19 2.5931165607804984e-18
outer loop
vertex -1.4099832412739487e-15 24.464884494087805 13.325455415685768
vertex 0.0 26.987499999999997 8.001
vertex -1.4099832412739487e-15 24.599899999999998 14.350999999999997
endloop
endfacet
facet normal 1.0 4.645991732333873e-19 2.5931165607804984e-18
outer loop
vertex -1.4099832412739487e-15 24.599899999999998 14.350999999999997
vertex 0.0 26.987499999999997 8.001
vertex -4.40619762898109e-17 25.127628060534576 18.841128060534572
endloop
endfacet
facet normal 1.0 4.645991732333873e-19 2.5931165607804984e-18
outer loop
vertex -4.40619762898109e-17 25.127628060534576 18.841128060534572
vertex 0.0 26.987499999999997 8.001
vertex -4.40619762898109e-17 25.675293710849342 18.21663507420537
endloop
endfacet
facet normal 1.0 4.645991732333873e-19 2.5931165607804984e-18
outer loop
vertex -4.40619762898109e-17 25.675293710849342 18.21663507420537
vertex 0.0 26.987499999999997 8.001
vertex -4.40619762898109e-17 26.136761314031183 17.525999999999996
endloop
endfacet
facet normal 1.0 4.645991732333873e-19 2.5931165607804984e-18
outer loop
vertex -4.40619762898109e-17 26.136761314031183 17.525999999999996
vertex 0.0 26.987499999999997 8.001
vertex -4.40619762898109e-17 26.50413503144667 16.781039795518318
endloop
endfacet
facet normal 1.0 4.645991732333873e-19 2.5931165607804984e-18
outer loop
vertex -4.40619762898109e-17 26.50413503144667 16.781039795518318
vertex 0.0 26.987499999999997 8.001
vertex -4.40619762898109e-17 26.771128996935584 15.994500936401005
endloop
endfacet
facet normal 1.0 4.645991732333873e-19 2.5931165607804984e-18
outer loop
vertex -4.40619762898109e-17 26.771128996935584 15.994500936401005
vertex 0.0 26.987499999999997 8.001
vertex -4.40619762898109e-17 26.933174869723693 15.179841320597326
endloop
endfacet
facet normal 1.0 4.645991732333873e-19 2.5931165607804984e-18
outer loop
vertex 0.0 26.987499999999997 8.001
vertex 0.0 41.275 1.651
vertex 0.0 41.275 8.001
endloop
endfacet
facet normal 1.0 4.645991732333873e-19 2.5931165607804984e-18
outer loop
vertex -4.40619762898109e-17 26.987499999999997 14.350999999999997
vertex -4.40619762898109e-17 26.933174869723693 15.179841320597326
vertex 0.0 26.987499999999997 8.001
endloop
endfacet
facet normal -1.8465797735468226e-32 1.6931108801729116e-16 -1.0
outer loop
vertex -1.4099832412739487e-15 20.6375 18.313399999999998
vertex -1.651 19.61195541568577 18.1783844940878
vertex -1.651 20.6375 18.313399999999998
endloop
endfacet
facet normal -1.2374533636347325e-32 0.25881904510252063 -0.9659258262890682
outer loop
vertex -1.651 19.61195541568577 18.1783844940878
vertex -1.4099832412739487e-15 20.6375 18.313399999999998
vertex -1.4099832412739487e-15 19.61195541568577 18.1783844940878
endloop
endfacet
facet normal -2.3298648235090595e-32 -0.25881904510252113 -0.9659258262890682
outer loop
vertex -1.4099832412739487e-15 21.66304458431423 18.1783844940878
vertex -1.651 20.6375 18.313399999999998
vertex -1.651 21.66304458431423 18.1783844940878
endloop
endfacet
facet normal -1.8465797735468226e-32 1.6931108801729116e-16 -1.0
outer loop
vertex -1.651 20.6375 18.313399999999998
vertex -1.4099832412739487e-15 21.66304458431423 18.1783844940878
vertex -1.4099832412739487e-15 20.6375 18.313399999999998
endloop
endfacet
facet normal -2.6543734360328214e-32 -0.5000000000000009 -0.866025403784438
outer loop
vertex -1.4099832412739487e-15 22.6187 17.782539059955457
vertex -1.651 21.66304458431423 18.1783844940878
vertex -1.651 22.6187 17.782539059955457
endloop
endfacet
facet normal -2.3298648235090595e-32 -0.25881904510252113 -0.9659258262890682
outer loop
vertex -1.651 21.66304458431423 18.1783844940878
vertex -1.4099832412739487e-15 22.6187 17.782539059955457
vertex -1.4099832412739487e-15 21.66304458431423 18.1783844940878
endloop
endfacet
facet normal -2.7979908854504536e-32 -0.7071067811865482 -0.7071067811865468
outer loop
vertex -1.4099832412739487e-15 23.439339909773576 17.152839909773572
vertex -1.651 22.6187 17.782539059955457
vertex -1.651 23.439339909773576 17.152839909773572
endloop
endfacet
facet normal -2.6543734360328214e-32 -0.5000000000000009 -0.866025403784438
outer loop
vertex -1.651 22.6187 17.782539059955457
vertex -1.4099832412739487e-15 23.439339909773576 17.152839909773572
vertex -1.4099832412739487e-15 22.6187 17.782539059955457
endloop
endfacet
facet normal -2.7979908854504536e-32 -0.7071067811865482 -0.7071067811865468
outer loop
vertex -1.4099832412739487e-15 23.439339909773576 17.152839909773572
vertex -1.651 24.069039059955458 16.332199999999997
vertex -1.4099832412739487e-15 24.069039059955458 16.332199999999997
endloop
endfacet
facet normal -2.7509298799232004e-32 -0.8660254037844388 -0.5
outer loop
vertex -1.651 24.069039059955458 16.332199999999997
vertex -1.4099832412739487e-15 23.439339909773576 17.152839909773572
vertex -1.651 23.439339909773576 17.152839909773572
endloop
endfacet
facet normal -2.7509298799232004e-32 -0.8660254037844388 -0.5
outer loop
vertex -1.4099832412739487e-15 24.069039059955458 16.332199999999997
vertex -1.651 24.464884494087805 15.376544584314225
vertex -1.4099832412739487e-15 24.464884494087805 15.376544584314225
endloop
endfacet
facet normal -2.5163975492057573e-32 -0.9659258262890682 -0.25881904510252135
outer loop
vertex -1.651 24.464884494087805 15.376544584314225
vertex -1.4099832412739487e-15 24.069039059955458 16.332199999999997
vertex -1.651 24.069039059955458 16.332199999999997
endloop
endfacet
facet normal -2.5163975492057573e-32 -0.9659258262890682 -0.25881904510252135
outer loop
vertex -1.4099832412739487e-15 24.464884494087805 15.376544584314225
vertex -1.651 24.599899999999998 14.350999999999997
vertex -1.4099832412739487e-15 24.599899999999998 14.350999999999997
endloop
endfacet
facet normal -2.1103768840535128e-32 -1.0 -1.6931108801729116e-16
outer loop
vertex -1.651 24.599899999999998 14.350999999999997
vertex -1.4099832412739487e-15 24.464884494087805 15.376544584314225
vertex -1.651 24.464884494087805 15.376544584314225
endloop
endfacet
facet normal -2.1103768840535128e-32 -1.0 -1.6931108801729116e-16
outer loop
vertex -1.4099832412739487e-15 24.599899999999998 14.350999999999997
vertex -1.651 24.464884494087805 13.325455415685768
vertex -1.4099832412739487e-15 24.464884494087805 13.325455415685768
endloop
endfacet
facet normal -1.5605375218157194e-32 -0.9659258262890682 0.25881904510252113
outer loop
vertex -1.651 24.464884494087805 13.325455415685768
vertex -1.4099832412739487e-15 24.599899999999998 14.350999999999997
vertex -1.651 24.599899999999998 14.350999999999997
endloop
endfacet
facet normal -1.5605375218157194e-32 -0.9659258262890682 0.25881904510252113
outer loop
vertex -1.4099832412739487e-15 24.464884494087805 13.325455415685768
vertex -1.651 24.069039059955458 12.369799999999996
vertex -1.4099832412739487e-15 24.069039059955458 12.369799999999996
endloop
endfacet
facet normal -9.043501063763732e-33 -0.8660254037844379 0.5000000000000012
outer loop
vertex -1.651 24.069039059955458 12.369799999999996
vertex -1.4099832412739487e-15 24.464884494087805 13.325455415685768
vertex -1.651 24.464884494087805 13.325455415685768
endloop
endfacet
facet normal -9.043501063763732e-33 -0.8660254037844379 0.5000000000000012
outer loop
vertex -1.4099832412739487e-15 24.069039059955458 12.369799999999996
vertex -1.651 23.439339909773572 11.549160090226422
vertex -1.4099832412739487e-15 23.439339909773572 11.549160090226422
endloop
endfacet
facet normal -1.865327256966946e-33 -0.707106781186547 0.7071067811865481
outer loop
vertex -1.651 23.439339909773572 11.549160090226422
vertex -1.4099832412739487e-15 24.069039059955458 12.369799999999996
vertex -1.651 24.069039059955458 12.369799999999996
endloop
endfacet
facet normal 5.4399655197930665e-33 -0.5000000000000004 0.8660254037844384
outer loop
vertex -1.4099832412739487e-15 22.618699999999997 10.919460940044539
vertex -1.651 23.439339909773572 11.549160090226422
vertex -1.651 22.618699999999997 10.919460940044539
endloop
endfacet
facet normal -1.865327256966946e-33 -0.707106781186547 0.7071067811865481
outer loop
vertex -1.651 23.439339909773572 11.549160090226422
vertex -1.4099832412739487e-15 22.618699999999997 10.919460940044539
vertex -1.4099832412739487e-15 23.439339909773572 11.549160090226422
endloop
endfacet
facet normal 1.237453363634731e-32 -0.25881904510252135 0.9659258262890682
outer loop
vertex -1.4099832412739487e-15 21.663044584314225 10.523615505912193
vertex -1.651 22.618699999999997 10.919460940044539
vertex -1.651 21.663044584314225 10.523615505912193
endloop
endfacet
facet normal 5.4399655197930665e-33 -0.5000000000000004 0.8660254037844384
outer loop
vertex -1.651 22.618699999999997 10.919460940044539
vertex -1.4099832412739487e-15 21.663044584314225 10.523615505912193
vertex -1.4099832412739487e-15 22.618699999999997 10.919460940044539
endloop
endfacet
facet normal 1.8465797735468226e-32 -1.6931108801729116e-16 1.0
outer loop
vertex -1.4099832412739487e-15 20.6375 10.388599999999997
vertex -1.651 21.663044584314225 10.523615505912193
vertex -1.651 20.6375 10.388599999999997
endloop
endfacet
facet normal 1.237453363634731e-32 -0.25881904510252135 0.9659258262890682
outer loop
vertex -1.651 21.663044584314225 10.523615505912193
vertex -1.4099832412739487e-15 20.6375 10.388599999999997
vertex -1.4099832412739487e-15 21.663044584314225 10.523615505912193
endloop
endfacet
facet normal 2.3298648235090595e-32 0.25881904510252113 0.9659258262890682
outer loop
vertex -1.4099832412739487e-15 19.611955415685767 10.523615505912193
vertex -1.651 20.6375 10.388599999999997
vertex -1.651 19.611955415685767 10.523615505912193
endloop
endfacet
facet normal 1.8465797735468226e-32 -1.6931108801729116e-16 1.0
outer loop
vertex -1.651 20.6375 10.388599999999997
vertex -1.4099832412739487e-15 19.611955415685767 10.523615505912193
vertex -1.4099832412739487e-15 20.6375 10.388599999999997
endloop
endfacet
facet normal 2.654373436032821e-32 0.5000000000000004 0.8660254037844384
outer loop
vertex -1.4099832412739487e-15 18.656299999999998 10.919460940044539
vertex -1.651 19.611955415685767 10.523615505912193
vertex -1.651 18.656299999999998 10.919460940044539
endloop
endfacet
facet normal 2.3298648235090595e-32 0.25881904510252113 0.9659258262890682
outer loop
vertex -1.651 19.611955415685767 10.523615505912193
vertex -1.4099832412739487e-15 18.656299999999998 10.919460940044539
vertex -1.4099832412739487e-15 19.611955415685767 10.523615505912193
endloop
endfacet
facet normal 2.7979908854504536e-32 0.7071067811865482 0.7071067811865468
outer loop
vertex -1.4099832412739487e-15 17.835660090226423 11.549160090226422
vertex -1.651 18.656299999999998 10.919460940044539
vertex -1.651 17.835660090226423 11.549160090226422
endloop
endfacet
facet normal 2.654373436032821e-32 0.5000000000000004 0.8660254037844384
outer loop
vertex -1.651 18.656299999999998 10.919460940044539
vertex -1.4099832412739487e-15 17.835660090226423 11.549160090226422
vertex -1.4099832412739487e-15 18.656299999999998 10.919460940044539
endloop
endfacet
facet normal 2.7509298799231993e-32 0.8660254037844389 0.49999999999999967
outer loop
vertex -1.651 17.20596094004454 12.3698
vertex -1.4099832412739487e-15 17.835660090226423 11.549160090226422
vertex -1.651 17.835660090226423 11.549160090226422
endloop
endfacet
facet normal 2.7979908854504536e-32 0.7071067811865482 0.7071067811865468
outer loop
vertex -1.4099832412739487e-15 17.835660090226423 11.549160090226422
vertex -1.651 17.20596094004454 12.3698
vertex -1.4099832412739487e-15 17.20596094004454 12.3698
endloop
endfacet
facet normal 2.5163975492057573e-32 0.9659258262890682 0.25881904510252135
outer loop
vertex -1.651 16.810115505912194 13.32545541568577
vertex -1.4099832412739487e-15 17.20596094004454 12.3698
vertex -1.651 17.20596094004454 12.3698
endloop
endfacet
facet normal 2.7509298799231993e-32 0.8660254037844389 0.49999999999999967
outer loop
vertex -1.4099832412739487e-15 17.20596094004454 12.3698
vertex -1.651 16.810115505912194 13.32545541568577
vertex -1.4099832412739487e-15 16.810115505912194 13.32545541568577
endloop
endfacet
facet normal 2.1103768840535128e-32 1.0 1.6931108801729116e-16
outer loop
vertex -1.651 16.675099999999997 14.350999999999997
vertex -1.4099832412739487e-15 16.810115505912194 13.32545541568577
vertex -1.651 16.810115505912194 13.32545541568577
endloop
endfacet
facet normal 2.5163975492057573e-32 0.9659258262890682 0.25881904510252135
outer loop
vertex -1.4099832412739487e-15 16.810115505912194 13.32545541568577
vertex -1.651 16.675099999999997 14.350999999999997
vertex -1.4099832412739487e-15 16.675099999999997 14.350999999999997
endloop
endfacet
facet normal 1.5605375218157194e-32 0.9659258262890682 -0.25881904510252113
outer loop
vertex -1.651 16.810115505912194 15.376544584314228
vertex -1.4099832412739487e-15 16.675099999999997 14.350999999999997
vertex -1.651 16.675099999999997 14.350999999999997
endloop
endfacet
facet normal 2.1103768840535128e-32 1.0 1.6931108801729116e-16
outer loop
vertex -1.4099832412739487e-15 16.675099999999997 14.350999999999997
vertex -1.651 16.810115505912194 15.376544584314228
vertex -1.4099832412739487e-15 16.810115505912194 15.376544584314228
endloop
endfacet
facet normal 9.043501063763741e-33 0.866025403784438 -0.5000000000000009
outer loop
vertex -1.651 17.20596094004454 16.3322
vertex -1.4099832412739487e-15 16.810115505912194 15.376544584314228
vertex -1.651 16.810115505912194 15.376544584314228
endloop
endfacet
facet normal 1.5605375218157194e-32 0.9659258262890682 -0.25881904510252113
outer loop
vertex -1.4099832412739487e-15 16.810115505912194 15.376544584314228
vertex -1.651 17.20596094004454 16.3322
vertex -1.4099832412739487e-15 17.20596094004454 16.3322
endloop
endfacet
facet normal 1.8653272569669494e-33 0.7071067811865469 -0.7071067811865481
outer loop
vertex -1.651 17.835660090226426 17.152839909773576
vertex -1.4099832412739487e-15 17.20596094004454 16.3322
vertex -1.651 17.20596094004454 16.3322
endloop
endfacet
facet normal 9.043501063763741e-33 0.866025403784438 -0.5000000000000009
outer loop
vertex -1.4099832412739487e-15 17.20596094004454 16.3322
vertex -1.651 17.835660090226426 17.152839909773576
vertex -1.4099832412739487e-15 17.835660090226426 17.152839909773576
endloop
endfacet
facet normal -5.4399655197930966e-33 0.4999999999999997 -0.8660254037844389
outer loop
vertex -1.4099832412739487e-15 18.6563 17.78253905995546
vertex -1.651 17.835660090226426 17.152839909773576
vertex -1.651 18.6563 17.78253905995546
endloop
endfacet
facet normal 1.8653272569669494e-33 0.7071067811865469 -0.7071067811865481
outer loop
vertex -1.651 17.835660090226426 17.152839909773576
vertex -1.4099832412739487e-15 18.6563 17.78253905995546
vertex -1.4099832412739487e-15 17.835660090226426 17.152839909773576
endloop
endfacet
facet normal -1.2374533636347325e-32 0.25881904510252063 -0.9659258262890682
outer loop
vertex -1.4099832412739487e-15 19.61195541568577 18.1783844940878
vertex -1.651 18.6563 17.78253905995546
vertex -1.651 19.61195541568577 18.1783844940878
endloop
endfacet
facet normal -5.4399655197930966e-33 0.4999999999999997 -0.8660254037844389
outer loop
vertex -1.651 18.6563 17.78253905995546
vertex -1.4099832412739487e-15 19.61195541568577 18.1783844940878
vertex -1.4099832412739487e-15 18.6563 17.78253905995546
endloop
endfacet
facet normal 0.0 0.9914448613738106 0.1305261922200503
outer loop
vertex -1.651 26.933174869723693 15.179841320597326
vertex -4.40619762898109e-17 26.987499999999997 14.350999999999997
vertex -1.651 26.987499999999997 14.350999999999997
endloop
endfacet
facet normal -0.0 0.9978589232386034 0.06540312923014584
outer loop
vertex -4.40619762898109e-17 26.987499999999997 14.350999999999997
vertex -1.651 26.933174869723693 15.179841320597326
vertex -4.40619762898109e-17 26.933174869723693 15.179841320597326
endloop
endfacet
facet normal 0.0 0.9659258262890688 0.25881904510251885
outer loop
vertex -1.651 26.771128996935584 15.994500936401005
vertex -4.40619762898109e-17 26.933174869723693 15.179841320597326
vertex -1.651 26.933174869723693 15.179841320597326
endloop
endfacet
facet normal 0.0 0.9914448613738106 0.1305261922200503
outer loop
vertex -4.40619762898109e-17 26.933174869723693 15.179841320597326
vertex -1.651 26.771128996935584 15.994500936401005
vertex -4.40619762898109e-17 26.771128996935584 15.994500936401005
endloop
endfacet
facet normal 0.0 0.923879532511286 0.3826834323650917
outer loop
vertex -1.651 26.50413503144667 16.781039795518318
vertex -4.40619762898109e-17 26.771128996935584 15.994500936401005
vertex -1.651 26.771128996935584 15.994500936401005
endloop
endfacet
facet normal 0.0 0.9659258262890688 0.25881904510251885
outer loop
vertex -4.40619762898109e-17 26.771128996935584 15.994500936401005
vertex -1.651 26.50413503144667 16.781039795518318
vertex -4.40619762898109e-17 26.50413503144667 16.781039795518318
endloop
endfacet
facet normal 0.0 0.8660254037844378 0.5000000000000014
outer loop
vertex -1.651 26.136761314031183 17.525999999999996
vertex -4.40619762898109e-17 26.50413503144667 16.781039795518318
vertex -1.651 26.50413503144667 16.781039795518318
endloop
endfacet
facet normal 0.0 0.923879532511286 0.3826834323650917
outer loop
vertex -4.40619762898109e-17 26.50413503144667 16.781039795518318
vertex -1.651 26.136761314031183 17.525999999999996
vertex -4.40619762898109e-17 26.136761314031183 17.525999999999996
endloop
endfacet
facet normal 0.0 0.7933533402912354 0.6087614290087202
outer loop
vertex -1.651 25.675293710849342 18.21663507420537
vertex -4.40619762898109e-17 26.136761314031183 17.525999999999996
vertex -1.651 26.136761314031183 17.525999999999996
endloop
endfacet
facet normal 0.0 0.8660254037844378 0.5000000000000014
outer loop
vertex -4.40619762898109e-17 26.136761314031183 17.525999999999996
vertex -1.651 25.675293710849342 18.21663507420537
vertex -4.40619762898109e-17 25.675293710849342 18.21663507420537
endloop
endfacet
facet normal 0.0 0.7071067811865482 0.7071067811865467
outer loop
vertex -1.651 25.127628060534576 18.841128060534572
vertex -4.40619762898109e-17 25.675293710849342 18.21663507420537
vertex -1.651 25.675293710849342 18.21663507420537
endloop
endfacet
facet normal 0.0 0.7933533402912354 0.6087614290087202
outer loop
vertex -4.40619762898109e-17 25.675293710849342 18.21663507420537
vertex -1.651 25.127628060534576 18.841128060534572
vertex -4.40619762898109e-17 25.127628060534576 18.841128060534572
endloop
endfacet
facet normal 0.0 0.6087614290087203 0.7933533402912354
outer loop
vertex -4.40619762898109e-17 24.503135074205375 19.38879371084934
vertex -1.651 25.127628060534576 18.841128060534572
vertex -1.651 24.503135074205375 19.38879371084934
endloop
endfacet
facet normal 0.0 0.7071067811865482 0.7071067811865467
outer loop
vertex -1.651 25.127628060534576 18.841128060534572
vertex -4.40619762898109e-17 24.503135074205375 19.38879371084934
vertex -4.40619762898109e-17 25.127628060534576 18.841128060534572
endloop
endfacet
facet normal 0.0 0.5000000000000007 0.8660254037844384
outer loop
vertex -4.40619762898109e-17 23.8125 19.85026131403118
vertex -1.651 24.503135074205375 19.38879371084934
vertex -1.651 23.8125 19.85026131403118
endloop
endfacet
facet normal 0.0 0.6087614290087203 0.7933533402912354
outer loop
vertex -1.651 24.503135074205375 19.38879371084934
vertex -4.40619762898109e-17 23.8125 19.85026131403118
vertex -4.40619762898109e-17 24.503135074205375 19.38879371084934
endloop
endfacet
facet normal 0.0 0.3826834323650902 0.9238795325112866
outer loop
vertex -4.40619762898109e-17 23.067539795518318 20.21763503144667
vertex -1.651 23.8125 19.85026131403118
vertex -1.651 23.067539795518318 20.21763503144667
endloop
endfacet
facet normal 0.0 0.5000000000000007 0.8660254037844384
outer loop
vertex -1.651 23.8125 19.85026131403118
vertex -4.40619762898109e-17 23.067539795518318 20.21763503144667
vertex -4.40619762898109e-17 23.8125 19.85026131403118
endloop
endfacet
facet normal 0.0 0.25881904510252046 0.9659258262890683
outer loop
vertex -4.40619762898109e-17 22.281000936401007 20.48462899693558
vertex -1.651 23.067539795518318 20.21763503144667
vertex -1.651 22.281000936401007 20.48462899693558
endloop
endfacet
facet normal 0.0 0.3826834323650902 0.9238795325112866
outer loop
vertex -1.651 23.067539795518318 20.21763503144667
vertex -4.40619762898109e-17 22.281000936401007 20.48462899693558
vertex -4.40619762898109e-17 23.067539795518318 20.21763503144667
endloop
endfacet
facet normal 0.0 0.13052619222005193 0.9914448613738104
outer loop
vertex -4.40619762898109e-17 21.466341320597326 20.646674869723693
vertex -1.651 22.281000936401007 20.48462899693558
vertex -1.651 21.466341320597326 20.646674869723693
endloop
endfacet
facet normal 0.0 0.25881904510252046 0.9659258262890683
outer loop
vertex -1.651 22.281000936401007 20.48462899693558
vertex -4.40619762898109e-17 21.466341320597326 20.646674869723693
vertex -4.40619762898109e-17 22.281000936401007 20.48462899693558
endloop
endfacet
facet normal -0.0 0.06540312923014245 0.9978589232386036
outer loop
vertex -4.40619762898109e-17 20.6375 20.700999999999997
vertex -1.651 21.466341320597326 20.646674869723693
vertex -1.651 20.6375 20.700999999999997
endloop
endfacet
facet normal 0.0 0.13052619222005193 0.9914448613738104
outer loop
vertex -1.651 21.466341320597326 20.646674869723693
vertex -4.40619762898109e-17 20.6375 20.700999999999997
vertex -4.40619762898109e-17 21.466341320597326 20.646674869723693
endloop
endfacet
facet normal 0.0 -0.13052619222005193 0.9914448613738104
outer loop
vertex 0.0 19.808658679402672 20.646674869723693
vertex -1.651 20.6375 20.700999999999997
vertex -1.651 19.808658679402672 20.646674869723693
endloop
endfacet
facet normal -0.0 -0.06540312923014245 0.9978589232386036
outer loop
vertex -1.651 20.6375 20.700999999999997
vertex 0.0 19.808658679402672 20.646674869723693
vertex -4.40619762898109e-17 20.6375 20.700999999999997
endloop
endfacet
facet normal 0.0 -0.25881904510252046 0.9659258262890683
outer loop
vertex 0.0 18.99399906359899 20.48462899693558
vertex -1.651 19.808658679402672 20.646674869723693
vertex -1.651 18.99399906359899 20.48462899693558
endloop
endfacet
facet normal 0.0 -0.13052619222005193 0.9914448613738104
outer loop
vertex -1.651 19.808658679402672 20.646674869723693
vertex 0.0 18.99399906359899 20.48462899693558
vertex 0.0 19.808658679402672 20.646674869723693
endloop
endfacet
facet normal 0.0 -0.3826834323650889 0.9238795325112872
outer loop
vertex 0.0 18.20746020448168 20.21763503144667
vertex -1.651 18.99399906359899 20.48462899693558
vertex -1.651 18.20746020448168 20.21763503144667
endloop
endfacet
facet normal 0.0 -0.25881904510252046 0.9659258262890683
outer loop
vertex -1.651 18.99399906359899 20.48462899693558
vertex 0.0 18.20746020448168 20.21763503144667
vertex 0.0 18.99399906359899 20.48462899693558
endloop
endfacet
facet normal 0.0 -0.5000000000000001 0.8660254037844386
outer loop
vertex 0.0 17.4625 19.850261314031183
vertex -1.651 18.20746020448168 20.21763503144667
vertex -1.651 17.4625 19.850261314031183
endloop
endfacet
facet normal 0.0 -0.3826834323650889 0.9238795325112872
outer loop
vertex -1.651 18.20746020448168 20.21763503144667
vertex 0.0 17.4625 19.850261314031183
vertex 0.0 18.20746020448168 20.21763503144667
endloop
endfacet
facet normal 0.0 -0.6087614290087211 0.7933533402912348
outer loop
vertex 0.0 16.771864925794624 19.388793710849342
vertex -1.651 17.4625 19.850261314031183
vertex -1.651 16.771864925794624 19.388793710849342
endloop
endfacet
facet normal 0.0 -0.5000000000000001 0.8660254037844386
outer loop
vertex -1.651 17.4625 19.850261314031183
vertex 0.0 16.771864925794624 19.388793710849342
vertex 0.0 17.4625 19.850261314031183
endloop
endfacet
facet normal 0.0 -0.7071067811865476 0.7071067811865475
outer loop
vertex 0.0 16.147371939465422 18.841128060534572
vertex -1.651 16.771864925794624 19.388793710849342
vertex -1.651 16.147371939465422 18.841128060534572
endloop
endfacet
facet normal 0.0 -0.6087614290087211 0.7933533402912348
outer loop
vertex -1.651 16.771864925794624 19.388793710849342
vertex 0.0 16.147371939465422 18.841128060534572
vertex 0.0 16.771864925794624 19.388793710849342
endloop
endfacet
facet normal 0.0 -0.7071067811865476 0.7071067811865475
outer loop
vertex 0.0 16.147371939465422 18.841128060534572
vertex -1.651 15.599706289150657 18.216635074205374
vertex 0.0 15.599706289150657 18.216635074205374
endloop
endfacet
facet normal 0.0 -0.7933533402912354 0.6087614290087203
outer loop
vertex -1.651 15.599706289150657 18.216635074205374
vertex 0.0 16.147371939465422 18.841128060534572
vertex -1.651 16.147371939465422 18.841128060534572
endloop
endfacet
facet normal 0.0 -0.7933533402912354 0.6087614290087203
outer loop
vertex 0.0 15.599706289150657 18.216635074205374
vertex -1.651 15.138238685968815 17.525999999999996
vertex 0.0 15.138238685968815 17.525999999999996
endloop
endfacet
facet normal 0.0 -0.8660254037844384 0.5000000000000007
outer loop
vertex -1.651 15.138238685968815 17.525999999999996
vertex 0.0 15.599706289150657 18.216635074205374
vertex -1.651 15.599706289150657 18.216635074205374
endloop
endfacet
facet normal 0.0 -0.8660254037844384 0.5000000000000007
outer loop
vertex 0.0 15.138238685968815 17.525999999999996
vertex -1.651 14.770864968553328 16.781039795518318
vertex 0.0 14.770864968553328 16.781039795518318
endloop
endfacet
facet normal 0.0 -0.9238795325112866 0.3826834323650902
outer loop
vertex -1.651 14.770864968553328 16.781039795518318
vertex 0.0 15.138238685968815 17.525999999999996
vertex -1.651 15.138238685968815 17.525999999999996
endloop
endfacet
facet normal 0.0 -0.9238795325112866 0.3826834323650902
outer loop
vertex 0.0 14.770864968553328 16.781039795518318
vertex -1.651 14.503871003064416 15.994500936401005
vertex 0.0 14.503871003064416 15.994500936401005
endloop
endfacet
facet normal 0.0 -0.9659258262890683 0.25881904510252046
outer loop
vertex -1.651 14.503871003064416 15.994500936401005
vertex 0.0 14.770864968553328 16.781039795518318
vertex -1.651 14.770864968553328 16.781039795518318
endloop
endfacet
facet normal 0.0 -0.9659258262890683 0.25881904510252046
outer loop
vertex 0.0 14.503871003064416 15.994500936401005
vertex -1.651 14.341825130276302 15.179841320597326
vertex 0.0 14.341825130276302 15.179841320597326
endloop
endfacet
facet normal 0.0 -0.9914448613738104 0.13052619222005193
outer loop
vertex -1.651 14.341825130276302 15.179841320597326
vertex 0.0 14.503871003064416 15.994500936401005
vertex -1.651 14.503871003064416 15.994500936401005
endloop
endfacet
facet normal 0.0 -0.9914448613738104 0.13052619222005193
outer loop
vertex 0.0 14.341825130276302 15.179841320597326
vertex -1.651 14.2875 14.350999999999997
vertex 0.0 14.2875 14.350999999999997
endloop
endfacet
facet normal 0.0 -0.9978589232386036 0.06540312923014245
outer loop
vertex -1.651 14.2875 14.350999999999997
vertex 0.0 14.341825130276302 15.179841320597326
vertex -1.651 14.341825130276302 15.179841320597326
endloop
endfacet
facet normal -0.0 -0.0 1.0
outer loop
vertex 0.0 26.987499999999997 8.001
vertex -1.651 42.925999999999995 8.001
vertex -1.651 26.987499999999997 8.001
endloop
endfacet
facet normal -0.0 -0.0 1.0
outer loop
vertex -1.651 42.925999999999995 8.001
vertex 0.0 26.987499999999997 8.001
vertex 0.0 41.275 8.001
endloop
endfacet
facet normal -0.0 -0.0 1.0
outer loop
vertex -1.651 42.925999999999995 8.001
vertex 0.0 41.275 8.001
vertex 42.925999999999995 42.925999999999995 8.001
endloop
endfacet
facet normal -0.0 -0.0 1.0
outer loop
vertex 42.925999999999995 42.925999999999995 8.001
vertex 0.0 41.275 8.001
vertex 42.925999999999995 41.275 8.001
endloop
endfacet
facet normal 1.0 -0.0 -0.0
outer loop
vertex 42.925999999999995 -3.302 0.0
vertex 42.925999999999995 0.0 1.651
vertex 42.925999999999995 -1.651 8.001
endloop
endfacet
facet normal 1.0 -0.0 -0.0
outer loop
vertex 42.925999999999995 0.0 1.651
vertex 42.925999999999995 -3.302 0.0
vertex 42.925999999999995 44.577 -1.762479051592436e-16
endloop
endfacet
facet normal 1.0 -0.0 -0.0
outer loop
vertex 42.925999999999995 0.0 1.651
vertex 42.925999999999995 44.577 -1.762479051592436e-16
vertex 42.925999999999995 41.275 1.651
endloop
endfacet
facet normal 1.0 -0.0 -0.0
outer loop
vertex 42.925999999999995 41.275 1.651
vertex 42.925999999999995 44.577 -1.762479051592436e-16
vertex 42.925999999999995 41.275 8.001
endloop
endfacet
facet normal 1.0 -0.0 -0.0
outer loop
vertex 42.925999999999995 41.275 8.001
vertex 42.925999999999995 44.577 -1.762479051592436e-16
vertex 42.925999999999995 42.925999999999995 8.001
endloop
endfacet
facet normal 1.0 -0.0 -0.0
outer loop
vertex 42.925999999999995 0.0 8.001
vertex 42.925999999999995 -1.651 8.001
vertex 42.925999999999995 0.0 1.651
endloop
endfacet
facet normal -1.2096401829557578e-17 -0.9793666392196709 0.20209152872786865
outer loop
vertex 42.925999999999995 -1.651 8.001
vertex -3.302 -3.302 0.0
vertex 42.925999999999995 -3.302 0.0
endloop
endfacet
facet normal -1.2096401829557578e-17 -0.9793666392196709 0.20209152872786865
outer loop
vertex -3.302 -3.302 0.0
vertex 42.925999999999995 -1.651 8.001
vertex -1.651 -1.6509999999999985 8.001
endloop
endfacet
facet normal -1.9062895340404475e-18 -1.840555412176984e-18 -1.0
outer loop
vertex 42.925999999999995 44.577 -1.762479051592436e-16
vertex -3.302 -3.302 0.0
vertex -3.302 44.577 0.0
endloop
endfacet
facet normal -1.9062895340404475e-18 -1.840555412176984e-18 -1.0
outer loop
vertex -3.302 -3.302 0.0
vertex 42.925999999999995 44.577 -1.762479051592436e-16
vertex 42.925999999999995 -3.302 0.0
endloop
endfacet
endsolid foot_cover
