solid wire_cover
facet normal 0.9914448613738103 -0.13052619222005343 -3.3591458518787407e-19
  outer loop
    vertex 13.5255 0.0 -3.524958103184872e-16
    vertex 13.470944478252415 -0.41439032868604786 6.35
    vertex 13.470944478252415 -0.41439032868604786 -3.524958103184872e-16
  endloop
endfacet
facet normal 0.9738769792773332 -0.22707626303437567 -1.6876996611028213e-19
  outer loop
    vertex 13.470944478252415 -0.41439032868604786 6.35
    vertex 13.5255 0.0 -3.524958103184872e-16
    vertex 13.5255 0.0 6.35
  endloop
endfacet
facet normal 0.9738769792773332 -0.22707626303437567 -1.6876996611028213e-19
  outer loop
    vertex 13.470944478252415 -0.41439032868604786 -3.524958103184872e-16
    vertex 13.403624944283411 -0.6127072807090344 6.35
    vertex 13.403624944283411 -0.6127072807090344 -3.524958103184872e-16
  endloop
endfacet
facet normal 0.9238795325112866 -0.38268343236509017 0.0
  outer loop
    vertex 13.403624944283411 -0.6127072807090344 6.35
    vertex 13.470944478252415 -0.41439032868604786 -3.524958103184872e-16
    vertex 13.470944478252415 -0.41439032868604786 6.35
  endloop
endfacet
facet normal 0.9238795325112866 -0.38268343236509017 0.0
  outer loop
    vertex 13.403624944283411 -0.6127072807090344 -3.524958103184872e-16
    vertex 13.310995781659512 -0.8005406412845375 6.35
    vertex 13.310995781659512 -0.8005406412845375 -3.524958103184872e-16
  endloop
endfacet
facet normal 0.8660254037844393 -0.49999999999999895 0.0
  outer loop
    vertex 13.310995781659512 -0.8005406412845375 6.35
    vertex 13.403624944283411 -0.6127072807090344 -3.524958103184872e-16
    vertex 13.403624944283411 -0.6127072807090344 6.35
  endloop
endfacet
facet normal 0.8660254037844393 -0.49999999999999895 0.0
  outer loop
    vertex 13.310995781659512 -0.8005406412845375 -3.524958103184872e-16
    vertex 13.194641901034874 -0.9746765295358649 6.35
    vertex 13.194641901034874 -0.9746765295358649 -3.524958103184872e-16
  endloop
endfacet
facet normal 0.7933533402912378 -0.6087614290087174 0.0
  outer loop
    vertex 13.194641901034874 -0.9746765295358649 6.35
    vertex 13.310995781659512 -0.8005406412845375 -3.524958103184872e-16
    vertex 13.310995781659512 -0.8005406412845375 6.35
  endloop
endfacet
facet normal 0.7933533402912378 -0.6087614290087174 0.0
  outer loop
    vertex 13.194641901034874 -0.9746765295358649 -3.524958103184872e-16
    vertex 13.056554149566372 -1.1321354321354478 6.35
    vertex 13.056554149566372 -1.1321354321354478 -3.524958103184872e-16
  endloop
endfacet
facet normal 0.7071067811865499 -0.7071067811865452 0.0
  outer loop
    vertex 13.056554149566372 -1.1321354321354478 6.35
    vertex 13.194641901034874 -0.9746765295358649 -3.524958103184872e-16
    vertex 13.194641901034874 -0.9746765295358649 6.35
  endloop
endfacet
facet normal 0.7071067811865499 -0.7071067811865452 0.0
  outer loop
    vertex 13.056554149566372 -1.1321354321354478 6.35
    vertex 12.899095246966787 -1.2702231836039497 -3.524958103184872e-16
    vertex 13.056554149566372 -1.1321354321354478 -3.524958103184872e-16
  endloop
endfacet
facet normal 0.6087614290087191 -0.7933533402912365 0.0
  outer loop
    vertex 12.899095246966787 -1.2702231836039497 -3.524958103184872e-16
    vertex 13.056554149566372 -1.1321354321354478 6.35
    vertex 12.899095246966787 -1.2702231836039497 6.35
  endloop
endfacet
facet normal 0.6087614290087191 -0.7933533402912365 0.0
  outer loop
    vertex 12.899095246966787 -1.2702231836039497 6.35
    vertex 12.724959358715457 -1.3865770642285893 -3.524958103184872e-16
    vertex 12.899095246966787 -1.2702231836039497 -3.524958103184872e-16
  endloop
endfacet
facet normal 0.4999999999999995 -0.8660254037844392 0.0
  outer loop
    vertex 12.724959358715457 -1.3865770642285893 -3.524958103184872e-16
    vertex 12.899095246966787 -1.2702231836039497 6.35
    vertex 12.724959358715457 -1.3865770642285893 6.35
  endloop
endfacet
facet normal 0.4999999999999995 -0.8660254037844392 0.0
  outer loop
    vertex 12.724959358715457 -1.3865770642285893 6.35
    vertex 12.537125998139958 -1.4792062268524884 -3.524958103184872e-16
    vertex 12.724959358715457 -1.3865770642285893 -3.524958103184872e-16
  endloop
endfacet
facet normal 0.3826834323650906 -0.9238795325112865 0.0
  outer loop
    vertex 12.537125998139958 -1.4792062268524884 -3.524958103184872e-16
    vertex 12.724959358715457 -1.3865770642285893 6.35
    vertex 12.537125998139958 -1.4792062268524884 6.35
  endloop
endfacet
facet normal 0.3826834323650906 -0.9238795325112865 0.0
  outer loop
    vertex 12.537125998139958 -1.4792062268524884 6.35
    vertex 12.338809046116971 -1.5465257608214944 -3.524958103184872e-16
    vertex 12.537125998139958 -1.4792062268524884 -3.524958103184872e-16
  endloop
endfacet
facet normal 0.25881904510252013 -0.9659258262890684 1.1831104681688195e-33
  outer loop
    vertex 12.338809046116971 -1.5465257608214944 -3.524958103184872e-16
    vertex 12.537125998139958 -1.4792062268524884 6.35
    vertex 12.338809046116971 -1.5465257608214944 6.35
  endloop
endfacet
facet normal 0.25881904510252013 -0.9659258262890684 1.1831104681688195e-33
  outer loop
    vertex 12.338809046116971 -1.5465257608214944 6.35
    vertex 12.13340176067946 -1.5873838102448994 -3.524958103184872e-16
    vertex 12.338809046116971 -1.5465257608214944 -3.524958103184872e-16
  endloop
endfacet
facet normal 0.09801714032955991 -0.9951847266721969 1.9490804782267227e-33
  outer loop
    vertex 12.13340176067946 -1.5873838102448994 -3.524958103184872e-16
    vertex 12.338809046116971 -1.5465257608214944 6.35
    vertex 12.13340176067946 -1.5873838102448994 6.35
  endloop
endfacet
facet normal -0.09801714032956022 -0.9951847266721969 7.627908314924958e-34
  outer loop
    vertex -4.132401760679464 -1.5873838102448978 6.35
    vertex -4.337809046116973 -1.5465257608214944 1.4099832412739487e-15
    vertex -4.132401760679464 -1.5873838102448978 1.4099832412739487e-15
  endloop
endfacet
facet normal -0.2588190451025209 -0.9659258262890684 0.0
  outer loop
    vertex -4.337809046116973 -1.5465257608214944 1.4099832412739487e-15
    vertex -4.132401760679464 -1.5873838102448978 6.35
    vertex -4.337809046116973 -1.5465257608214944 6.35
  endloop
endfacet
facet normal -0.2588190451025209 -0.9659258262890684 0.0
  outer loop
    vertex -4.337809046116973 -1.5465257608214944 6.35
    vertex -4.536125998139959 -1.479206226852487 1.4099832412739487e-15
    vertex -4.337809046116973 -1.5465257608214944 1.4099832412739487e-15
  endloop
endfacet
facet normal -0.3826834323650899 -0.9238795325112867 0.0
  outer loop
    vertex -4.536125998139959 -1.479206226852487 1.4099832412739487e-15
    vertex -4.337809046116973 -1.5465257608214944 6.35
    vertex -4.536125998139959 -1.479206226852487 6.35
  endloop
endfacet
facet normal -0.3826834323650899 -0.9238795325112867 0.0
  outer loop
    vertex -4.536125998139959 -1.479206226852487 6.35
    vertex -4.7239593587154625 -1.3865770642285893 1.4099832412739487e-15
    vertex -4.536125998139959 -1.479206226852487 1.4099832412739487e-15
  endloop
endfacet
facet normal -0.5000000000000002 -0.8660254037844387 0.0
  outer loop
    vertex -4.7239593587154625 -1.3865770642285893 1.4099832412739487e-15
    vertex -4.536125998139959 -1.479206226852487 6.35
    vertex -4.7239593587154625 -1.3865770642285893 6.35
  endloop
endfacet
facet normal -0.5000000000000002 -0.8660254037844387 0.0
  outer loop
    vertex -4.7239593587154625 -1.3865770642285893 6.35
    vertex -4.8980952469667915 -1.2702231836039497 1.4099832412739487e-15
    vertex -4.7239593587154625 -1.3865770642285893 1.4099832412739487e-15
  endloop
endfacet
facet normal -0.6087614290087214 -0.7933533402912347 0.0
  outer loop
    vertex -4.8980952469667915 -1.2702231836039497 1.4099832412739487e-15
    vertex -4.7239593587154625 -1.3865770642285893 6.35
    vertex -4.8980952469667915 -1.2702231836039497 6.35
  endloop
endfacet
facet normal -0.6087614290087214 -0.7933533402912347 0.0
  outer loop
    vertex -4.8980952469667915 -1.2702231836039497 6.35
    vertex -5.055554149566373 -1.1321354321354464 1.4099832412739487e-15
    vertex -4.8980952469667915 -1.2702231836039497 1.4099832412739487e-15
  endloop
endfacet
facet normal -0.707106781186547 -0.707106781186548 0.0
  outer loop
    vertex -5.055554149566373 -1.1321354321354464 1.4099832412739487e-15
    vertex -4.8980952469667915 -1.2702231836039497 6.35
    vertex -5.055554149566373 -1.1321354321354464 6.35
  endloop
endfacet
facet normal -0.7933533402912346 -0.6087614290087217 0.0
  outer loop
    vertex -5.193641901034876 -0.9746765295358649 6.35
    vertex -5.055554149566373 -1.1321354321354464 1.4099832412739487e-15
    vertex -5.055554149566373 -1.1321354321354464 6.35
  endloop
endfacet
facet normal -0.707106781186547 -0.707106781186548 0.0
  outer loop
    vertex -5.055554149566373 -1.1321354321354464 1.4099832412739487e-15
    vertex -5.193641901034876 -0.9746765295358649 6.35
    vertex -5.193641901034876 -0.9746765295358649 1.4099832412739487e-15
  endloop
endfacet
facet normal -0.8660254037844393 -0.4999999999999992 0.0
  outer loop
    vertex -5.3099957816595165 -0.8005406412845375 6.35
    vertex -5.193641901034876 -0.9746765295358649 1.4099832412739487e-15
    vertex -5.193641901034876 -0.9746765295358649 6.35
  endloop
endfacet
facet normal -0.7933533402912346 -0.6087614290087217 0.0
  outer loop
    vertex -5.193641901034876 -0.9746765295358649 1.4099832412739487e-15
    vertex -5.3099957816595165 -0.8005406412845375 6.35
    vertex -5.3099957816595165 -0.8005406412845375 1.4099832412739487e-15
  endloop
endfacet
facet normal -0.9238795325112872 -0.3826834323650889 0.0
  outer loop
    vertex -5.4026249442834136 -0.6127072807090329 6.35
    vertex -5.3099957816595165 -0.8005406412845375 1.4099832412739487e-15
    vertex -5.3099957816595165 -0.8005406412845375 6.35
  endloop
endfacet
facet normal -0.8660254037844393 -0.4999999999999992 0.0
  outer loop
    vertex -5.3099957816595165 -0.8005406412845375 1.4099832412739487e-15
    vertex -5.4026249442834136 -0.6127072807090329 6.35
    vertex -5.4026249442834136 -0.6127072807090329 1.4099832412739487e-15
  endloop
endfacet
facet normal -0.9738769792773337 -0.22707626303437337 0.0
  outer loop
    vertex -5.46994447825242 -0.41439032868604647 6.35
    vertex -5.4026249442834136 -0.6127072807090329 1.4099832412739487e-15
    vertex -5.4026249442834136 -0.6127072807090329 6.35
  endloop
endfacet
facet normal -0.9238795325112872 -0.3826834323650889 0.0
  outer loop
    vertex -5.4026249442834136 -0.6127072807090329 1.4099832412739487e-15
    vertex -5.46994447825242 -0.41439032868604647 6.35
    vertex -5.46994447825242 -0.41439032868604647 1.4099832412739487e-15
  endloop
endfacet
facet normal -0.9914448613738105 -0.13052619222005177 0.0
  outer loop
    vertex -5.524500000000001 0.0 6.35
    vertex -5.46994447825242 -0.41439032868604647 1.4099832412739487e-15
    vertex -5.46994447825242 -0.41439032868604647 6.35
  endloop
endfacet
facet normal -0.9738769792773337 -0.22707626303437337 0.0
  outer loop
    vertex -5.46994447825242 -0.41439032868604647 1.4099832412739487e-15
    vertex -5.524500000000001 0.0 6.35
    vertex -5.524500000000001 0.0 1.4099832412739487e-15
  endloop
endfacet
facet normal -9.612894606066037e-17 9.633749496917257e-17 -1.0
  outer loop
    vertex -0.1333499999999994 0.0 2.114974861910923e-15
    vertex -5.46994447825242 -0.41439032868604647 1.4099832412739487e-15
    vertex -5.524500000000001 0.0 1.4099832412739487e-15
  endloop
endfacet
facet normal -9.612894606066037e-17 9.633749496917257e-17 -1.0
  outer loop
    vertex -5.46994447825242 -0.41439032868604647 1.4099832412739487e-15
    vertex -0.1333499999999994 0.0 2.114974861910923e-15
    vertex -5.4026249442834136 -0.6127072807090329 1.4099832412739487e-15
  endloop
endfacet
facet normal -9.612894606066037e-17 9.633749496917257e-17 -1.0
  outer loop
    vertex -5.4026249442834136 -0.6127072807090329 1.4099832412739487e-15
    vertex -0.1333499999999994 0.0 2.114974861910923e-15
    vertex -5.3099957816595165 -0.8005406412845375 1.4099832412739487e-15
  endloop
endfacet
facet normal -9.612894606066037e-17 9.633749496917257e-17 -1.0
  outer loop
    vertex -5.3099957816595165 -0.8005406412845375 1.4099832412739487e-15
    vertex -0.1333499999999994 0.0 2.114974861910923e-15
    vertex -5.193641901034876 -0.9746765295358649 1.4099832412739487e-15
  endloop
endfacet
facet normal -9.612894606066037e-17 9.633749496917257e-17 -1.0
  outer loop
    vertex -5.193641901034876 -0.9746765295358649 1.4099832412739487e-15
    vertex -0.1333499999999994 0.0 2.114974861910923e-15
    vertex -5.055554149566373 -1.1321354321354464 1.4099832412739487e-15
  endloop
endfacet
facet normal -9.612894606066037e-17 9.633749496917257e-17 -1.0
  outer loop
    vertex -5.055554149566373 -1.1321354321354464 1.4099832412739487e-15
    vertex -0.1333499999999994 0.0 2.114974861910923e-15
    vertex -4.8980952469667915 -1.2702231836039497 1.4099832412739487e-15
  endloop
endfacet
facet normal -9.612894606066037e-17 9.633749496917257e-17 -1.0
  outer loop
    vertex -4.8980952469667915 -1.2702231836039497 1.4099832412739487e-15
    vertex -0.1333499999999994 0.0 2.114974861910923e-15
    vertex -4.7239593587154625 -1.3865770642285893 1.4099832412739487e-15
  endloop
endfacet
facet normal -9.612894606066037e-17 9.633749496917257e-17 -1.0
  outer loop
    vertex -4.7239593587154625 -1.3865770642285893 1.4099832412739487e-15
    vertex -0.1333499999999994 0.0 2.114974861910923e-15
    vertex -4.536125998139959 -1.479206226852487 1.4099832412739487e-15
  endloop
endfacet
facet normal -9.612894606066037e-17 9.633749496917257e-17 -1.0
  outer loop
    vertex -4.536125998139959 -1.479206226852487 1.4099832412739487e-15
    vertex -0.1333499999999994 0.0 2.114974861910923e-15
    vertex -4.337809046116973 -1.5465257608214944 1.4099832412739487e-15
  endloop
endfacet
facet normal -9.612894606066037e-17 9.633749496917257e-17 -1.0
  outer loop
    vertex -4.337809046116973 -1.5465257608214944 1.4099832412739487e-15
    vertex -0.1333499999999994 0.0 2.114974861910923e-15
    vertex -4.132401760679464 -1.5873838102448978 1.4099832412739487e-15
  endloop
endfacet
facet normal -9.612894606066037e-17 9.633749496917257e-17 -1.0
  outer loop
    vertex -4.132401760679464 -1.5873838102448978 1.4099832412739487e-15
    vertex -0.1333499999999994 0.0 2.114974861910923e-15
    vertex 12.13340176067946 -1.5873838102448994 -3.524958103184872e-16
  endloop
endfacet
facet normal -9.612894606066037e-17 9.633749496917257e-17 -1.0
  outer loop
    vertex 12.13340176067946 -1.5873838102448994 -3.524958103184872e-16
    vertex -0.1333499999999994 0.0 2.114974861910923e-15
    vertex 1.5176499999999427 0.003167436299708126 2.114974861910923e-15
  endloop
endfacet
facet normal -9.612894606066037e-17 9.633749496917257e-17 -1.0
  outer loop
    vertex 12.13340176067946 -1.5873838102448994 -3.524958103184872e-16
    vertex 1.5176499999999427 0.003167436299708126 2.114974861910923e-15
    vertex 2.9531512566446385 0.017291970171546156 -7.049916206369744e-16
  endloop
endfacet
facet normal -9.612894606066037e-17 9.633749496917257e-17 -1.0
  outer loop
    vertex 12.13340176067946 -1.5873838102448994 -3.524958103184872e-16
    vertex 2.9531512566446385 0.017291970171546156 -7.049916206369744e-16
    vertex 3.793289669850668 0.013581282569075136 0.0
  endloop
endfacet
facet normal -9.612894606066037e-17 9.633749496917257e-17 -1.0
  outer loop
    vertex 12.13340176067946 -1.5873838102448994 -3.524958103184872e-16
    vertex 3.793289669850668 0.013581282569075136 0.0
    vertex 4.207710330149331 0.013581282569075136 0.0
  endloop
endfacet
facet normal -9.612894606066037e-17 9.633749496917257e-17 -1.0
  outer loop
    vertex 12.13340176067946 -1.5873838102448994 -3.524958103184872e-16
    vertex 4.207710330149331 0.013581282569075136 0.0
    vertex 5.047848743355304 0.017291970171546156 7.049916206369744e-16
  endloop
endfacet
facet normal -9.612894606066037e-17 9.633749496917257e-17 -1.0
  outer loop
    vertex 12.13340176067946 -1.5873838102448994 -3.524958103184872e-16
    vertex 5.047848743355304 0.017291970171546156 7.049916206369744e-16
    vertex 6.483349999999999 0.003167436299708126 1.4099832412739487e-15
  endloop
endfacet
facet normal -9.612894606066037e-17 9.633749496917257e-17 -1.0
  outer loop
    vertex 12.13340176067946 -1.5873838102448994 -3.524958103184872e-16
    vertex 6.483349999999999 0.003167436299708126 1.4099832412739487e-15
    vertex 8.134349999999998 0.0 1.4099832412739487e-15
  endloop
endfacet
facet normal -9.612894606066037e-17 9.633749496917257e-17 -1.0
  outer loop
    vertex 12.13340176067946 -1.5873838102448994 -3.524958103184872e-16
    vertex 8.134349999999998 0.0 1.4099832412739487e-15
    vertex 13.5255 0.0 -3.524958103184872e-16
  endloop
endfacet
facet normal -9.612894606066037e-17 9.633749496917257e-17 -1.0
  outer loop
    vertex 12.13340176067946 -1.5873838102448994 -3.524958103184872e-16
    vertex 13.5255 0.0 -3.524958103184872e-16
    vertex 12.338809046116971 -1.5465257608214944 -3.524958103184872e-16
  endloop
endfacet
facet normal -9.612894606066037e-17 9.633749496917257e-17 -1.0
  outer loop
    vertex 12.338809046116971 -1.5465257608214944 -3.524958103184872e-16
    vertex 13.5255 0.0 -3.524958103184872e-16
    vertex 12.537125998139958 -1.4792062268524884 -3.524958103184872e-16
  endloop
endfacet
facet normal -9.612894606066037e-17 9.633749496917257e-17 -1.0
  outer loop
    vertex 12.537125998139958 -1.4792062268524884 -3.524958103184872e-16
    vertex 13.5255 0.0 -3.524958103184872e-16
    vertex 12.724959358715457 -1.3865770642285893 -3.524958103184872e-16
  endloop
endfacet
facet normal -9.612894606066037e-17 9.633749496917257e-17 -1.0
  outer loop
    vertex 12.724959358715457 -1.3865770642285893 -3.524958103184872e-16
    vertex 13.5255 0.0 -3.524958103184872e-16
    vertex 12.899095246966787 -1.2702231836039497 -3.524958103184872e-16
  endloop
endfacet
facet normal -9.612894606066037e-17 9.633749496917257e-17 -1.0
  outer loop
    vertex 12.899095246966787 -1.2702231836039497 -3.524958103184872e-16
    vertex 13.5255 0.0 -3.524958103184872e-16
    vertex 13.056554149566372 -1.1321354321354478 -3.524958103184872e-16
  endloop
endfacet
facet normal -9.612894606066037e-17 9.633749496917257e-17 -1.0
  outer loop
    vertex 13.056554149566372 -1.1321354321354478 -3.524958103184872e-16
    vertex 13.5255 0.0 -3.524958103184872e-16
    vertex 13.194641901034874 -0.9746765295358649 -3.524958103184872e-16
  endloop
endfacet
facet normal -9.612894606066037e-17 9.633749496917257e-17 -1.0
  outer loop
    vertex 13.194641901034874 -0.9746765295358649 -3.524958103184872e-16
    vertex 13.5255 0.0 -3.524958103184872e-16
    vertex 13.310995781659512 -0.8005406412845375 -3.524958103184872e-16
  endloop
endfacet
facet normal -9.612894606066037e-17 9.633749496917257e-17 -1.0
  outer loop
    vertex 13.310995781659512 -0.8005406412845375 -3.524958103184872e-16
    vertex 13.5255 0.0 -3.524958103184872e-16
    vertex 13.403624944283411 -0.6127072807090344 -3.524958103184872e-16
  endloop
endfacet
facet normal -9.612894606066037e-17 9.633749496917257e-17 -1.0
  outer loop
    vertex 13.403624944283411 -0.6127072807090344 -3.524958103184872e-16
    vertex 13.5255 0.0 -3.524958103184872e-16
    vertex 13.470944478252415 -0.41439032868604786 -3.524958103184872e-16
  endloop
endfacet
facet normal 0.0 1.0 0.0
  outer loop
    vertex 8.134349999999998 0.0 1.4099832412739487e-15
    vertex 13.5255 0.0 6.35
    vertex 13.5255 0.0 -3.524958103184872e-16
  endloop
endfacet
facet normal 0.0 1.0 0.0
  outer loop
    vertex 13.5255 0.0 6.35
    vertex 8.134349999999998 0.0 1.4099832412739487e-15
    vertex 8.134349999999998 0.0 6.35
  endloop
endfacet
facet normal 0.0 1.0 0.0
  outer loop
    vertex -5.524500000000001 0.0 6.35
    vertex -0.1333499999999994 0.0 2.114974861910923e-15
    vertex -5.524500000000001 0.0 1.4099832412739487e-15
  endloop
endfacet
facet normal 0.0 1.0 0.0
  outer loop
    vertex -0.1333499999999994 0.0 2.114974861910923e-15
    vertex -5.524500000000001 0.0 6.35
    vertex -0.1333499999999994 0.0 6.35
  endloop
endfacet
facet normal 0.00220836257413322 0.9999975615643977 -1.7711655881758107e-21
  outer loop
    vertex 3.793289669850668 0.013581282569075136 6.35
    vertex 4.207710330149331 0.013581282569075136 0.0
    vertex 3.793289669850668 0.013581282569075136 0.0
  endloop
endfacet
facet normal -0.0022083625741333673 0.9999975615643977 1.771165588176825e-21
  outer loop
    vertex 4.207710330149331 0.013581282569075136 0.0
    vertex 3.793289669850668 0.013581282569075136 6.35
    vertex 4.207710330149331 0.013581282569075136 6.35
  endloop
endfacet
facet normal -0.002208362574133368 0.9999975615643977 1.7711655881768255e-21
  outer loop
    vertex 4.207710330149331 0.013581282569075136 6.35
    vertex 5.047848743355304 0.017291970171546156 7.049916206369744e-16
    vertex 4.207710330149331 0.013581282569075136 0.0
  endloop
endfacet
facet normal -0.10021463002580774 0.9949658425940012 1.7793484834133757e-21
  outer loop
    vertex 5.047848743355304 0.017291970171546156 7.049916206369744e-16
    vertex 4.207710330149331 0.013581282569075136 6.35
    vertex 5.047848743355304 0.017291970171546156 6.35
  endloop
endfacet
facet normal 0.0 0.0 -1.0
  outer loop
    vertex 9.301783295738987 4.54756670426101 1.4099832412739487e-15
    vertex 8.134349999999998 4.064000000000001 1.4099832412739487e-15
    vertex 6.966916704261008 6.882433295738991 1.4099832412739487e-15
  endloop
endfacet
facet normal 0.0 0.0 -1.0
  outer loop
    vertex 8.134349999999998 4.064000000000001 1.4099832412739487e-15
    vertex 9.301783295738987 4.54756670426101 1.4099832412739487e-15
    vertex 8.56166024346426 4.120256460796748 1.4099832412739487e-15
  endloop
endfacet
facet normal 0.0 0.0 -1.0
  outer loop
    vertex 8.56166024346426 4.120256460796748 1.4099832412739487e-15
    vertex 9.301783295738987 4.54756670426101 1.4099832412739487e-15
    vertex 8.959849999999998 4.2851920583518925 1.4099832412739487e-15
  endloop
endfacet
facet normal 0.0 0.0 -1.0
  outer loop
    vertex 6.483349999999999 5.715000000000002 1.4099832412739487e-15
    vertex 6.483349999999999 0.003167436299708126 1.4099832412739487e-15
    vertex 6.469225466128158 1.438668692944404 1.4099832412739487e-15
  endloop
endfacet
facet normal 0.0 0.0 -1.0
  outer loop
    vertex 6.483349999999999 0.003167436299708126 1.4099832412739487e-15
    vertex 6.483349999999999 5.715000000000002 1.4099832412739487e-15
    vertex 6.539606460796747 6.142310243464264 1.4099832412739487e-15
  endloop
endfacet
facet normal 0.0 0.0 -1.0
  outer loop
    vertex 6.483349999999999 0.003167436299708126 1.4099832412739487e-15
    vertex 6.539606460796747 6.142310243464264 1.4099832412739487e-15
    vertex 8.134349999999998 0.0 1.4099832412739487e-15
  endloop
endfacet
facet normal 0.0 0.0 -1.0
  outer loop
    vertex 8.134349999999998 0.0 1.4099832412739487e-15
    vertex 6.539606460796747 6.142310243464264 1.4099832412739487e-15
    vertex 6.704542058351889 6.5405000000000015 1.4099832412739487e-15
  endloop
endfacet
facet normal 0.0 0.0 -1.0
  outer loop
    vertex 8.134349999999998 0.0 1.4099832412739487e-15
    vertex 6.704542058351889 6.5405000000000015 1.4099832412739487e-15
    vertex 6.966916704261008 6.882433295738991 1.4099832412739487e-15
  endloop
endfacet
facet normal 0.0 0.0 -1.0
  outer loop
    vertex 8.134349999999998 0.0 1.4099832412739487e-15
    vertex 6.966916704261008 6.882433295738991 1.4099832412739487e-15
    vertex 8.134349999999998 4.064000000000001 1.4099832412739487e-15
  endloop
endfacet
facet normal 1.0 0.0 0.0
  outer loop
    vertex 8.134349999999998 4.064000000000001 1.4099832412739487e-15
    vertex 8.134349999999998 0.0 6.35
    vertex 8.134349999999998 0.0 1.4099832412739487e-15
  endloop
endfacet
facet normal 1.0 0.0 0.0
  outer loop
    vertex 8.134349999999998 0.0 6.35
    vertex 8.134349999999998 4.064000000000001 1.4099832412739487e-15
    vertex 8.134349999999998 4.064000000000001 6.35
  endloop
endfacet
facet normal 0.25881904510252124 -0.9659258262890683 0.0
  outer loop
    vertex 8.56166024346426 4.120256460796748 6.35
    vertex 8.134349999999998 4.064000000000001 1.4099832412739487e-15
    vertex 8.56166024346426 4.120256460796748 1.4099832412739487e-15
  endloop
endfacet
facet normal 0.13052619222005002 -0.9914448613738107 0.0
  outer loop
    vertex 8.134349999999998 4.064000000000001 1.4099832412739487e-15
    vertex 8.56166024346426 4.120256460796748 6.35
    vertex 8.134349999999998 4.064000000000001 6.35
  endloop
endfacet
facet normal 0.5000000000000003 -0.8660254037844386 3.027324757664912e-32
  outer loop
    vertex 8.959849999999998 4.2851920583518925 6.35
    vertex 8.56166024346426 4.120256460796748 1.4099832412739487e-15
    vertex 8.959849999999998 4.2851920583518925 1.4099832412739487e-15
  endloop
endfacet
facet normal 0.25881904510252124 -0.9659258262890683 0.0
  outer loop
    vertex 8.56166024346426 4.120256460796748 1.4099832412739487e-15
    vertex 8.959849999999998 4.2851920583518925 6.35
    vertex 8.56166024346426 4.120256460796748 6.35
  endloop
endfacet
facet normal 0.6087614290087191 -0.7933533402912364 6.002851149393188e-32
  outer loop
    vertex 9.301783295738987 4.54756670426101 6.35
    vertex 8.959849999999998 4.2851920583518925 1.4099832412739487e-15
    vertex 9.301783295738987 4.54756670426101 1.4099832412739487e-15
  endloop
endfacet
facet normal 0.5000000000000003 -0.8660254037844386 3.027324757664912e-32
  outer loop
    vertex 8.959849999999998 4.2851920583518925 1.4099832412739487e-15
    vertex 9.301783295738987 4.54756670426101 6.35
    vertex 8.959849999999998 4.2851920583518925 6.35
  endloop
endfacet
facet normal -0.06540312923014109 0.9978589232386037 0.0
  outer loop
    vertex 6.966916704261008 6.882433295738991 6.35
    vertex 6.704542058351889 6.5405000000000015 1.4099832412739487e-15
    vertex 6.704542058351889 6.5405000000000015 6.35
  endloop
endfacet
facet normal -0.8660254037844388 0.5000000000000001 0.0
  outer loop
    vertex 6.704542058351889 6.5405000000000015 1.4099832412739487e-15
    vertex 6.966916704261008 6.882433295738991 6.35
    vertex 6.966916704261008 6.882433295738991 1.4099832412739487e-15
  endloop
endfacet
facet normal -0.8660254037844388 0.5000000000000001 0.0
  outer loop
    vertex 6.704542058351889 6.5405000000000015 6.35
    vertex 6.539606460796747 6.142310243464264 1.4099832412739487e-15
    vertex 6.539606460796747 6.142310243464264 6.35
  endloop
endfacet
facet normal -0.965925826289069 0.25881904510251835 0.0
  outer loop
    vertex 6.539606460796747 6.142310243464264 1.4099832412739487e-15
    vertex 6.704542058351889 6.5405000000000015 6.35
    vertex 6.704542058351889 6.5405000000000015 1.4099832412739487e-15
  endloop
endfacet
facet normal -0.965925826289069 0.25881904510251835 0.0
  outer loop
    vertex 6.539606460796747 6.142310243464264 6.35
    vertex 6.483349999999999 5.715000000000002 1.4099832412739487e-15
    vertex 6.483349999999999 5.715000000000002 6.35
  endloop
endfacet
facet normal -0.9977495510937779 0.0670509753259764 -2.474281810797444e-32
  outer loop
    vertex 6.483349999999999 5.715000000000002 1.4099832412739487e-15
    vertex 6.539606460796747 6.142310243464264 6.35
    vertex 6.539606460796747 6.142310243464264 1.4099832412739487e-15
  endloop
endfacet
facet normal -0.9977495510937779 0.0670509753259764 -2.474281810797444e-32
  outer loop
    vertex 6.483349999999999 5.715000000000002 6.35
    vertex 6.469225466128158 1.438668692944404 1.4099832412739487e-15
    vertex 6.469225466128158 1.438668692944404 6.35
  endloop
endfacet
facet normal -0.9950214970737005 0.09966052559169052 -6.317097318313722e-20
  outer loop
    vertex 6.469225466128158 1.438668692944404 1.4099832412739487e-15
    vertex 6.483349999999999 5.715000000000002 6.35
    vertex 6.483349999999999 5.715000000000002 1.4099832412739487e-15
  endloop
endfacet
facet normal 0.0 0.0 -1.0
  outer loop
    vertex 1.0340832957389898 6.882433295738989 2.114974861910923e-15
    vertex -0.9588499999999986 4.2851920583518925 2.114974861910923e-15
    vertex -1.3007832957389887 4.54756670426101 2.114974861910923e-15
  endloop
endfacet
facet normal 0.0 0.0 -1.0
  outer loop
    vertex -0.9588499999999986 4.2851920583518925 2.114974861910923e-15
    vertex 1.0340832957389898 6.882433295738989 2.114974861910923e-15
    vertex -0.5606602434642639 4.120256460796751 2.114974861910923e-15
  endloop
endfacet
facet normal 0.0 0.0 -1.0
  outer loop
    vertex -0.5606602434642639 4.120256460796751 2.114974861910923e-15
    vertex 1.0340832957389898 6.882433295738989 2.114974861910923e-15
    vertex -0.1333499999999994 4.064000000000001 2.114974861910923e-15
  endloop
endfacet
facet normal 0.0 0.0 -1.0
  outer loop
    vertex -0.1333499999999994 4.064000000000001 2.114974861910923e-15
    vertex 1.0340832957389898 6.882433295738989 2.114974861910923e-15
    vertex -0.1333499999999994 0.0 2.114974861910923e-15
  endloop
endfacet
facet normal 0.0 0.0 -1.0
  outer loop
    vertex -0.1333499999999994 0.0 2.114974861910923e-15
    vertex 1.0340832957389898 6.882433295738989 2.114974861910923e-15
    vertex 1.5176499999999427 0.003167436299708126 2.114974861910923e-15
  endloop
endfacet
facet normal 0.0 0.0 -1.0
  outer loop
    vertex 1.5176499999999427 0.003167436299708126 2.114974861910923e-15
    vertex 1.0340832957389898 6.882433295738989 2.114974861910923e-15
    vertex 1.29645794164811 6.5405000000000015 2.114974861910923e-15
  endloop
endfacet
facet normal 0.0 0.0 -1.0
  outer loop
    vertex 1.5176499999999427 0.003167436299708126 2.114974861910923e-15
    vertex 1.29645794164811 6.5405000000000015 2.114974861910923e-15
    vertex 1.4613935392032515 6.1423102434642605 2.114974861910923e-15
  endloop
endfacet
facet normal 0.0 0.0 -1.0
  outer loop
    vertex 1.5176499999999427 0.003167436299708126 2.114974861910923e-15
    vertex 1.4613935392032515 6.1423102434642605 2.114974861910923e-15
    vertex 1.517649999999999 5.715000000000002 2.114974861910923e-15
  endloop
endfacet
facet normal 0.0 0.0 -1.0
  outer loop
    vertex 1.5176499999999427 0.003167436299708126 2.114974861910923e-15
    vertex 1.517649999999999 5.715000000000002 2.114974861910923e-15
    vertex 1.5317745338717808 1.438668692944404 2.114974861910923e-15
  endloop
endfacet
facet normal -0.1305261922200556 -0.9914448613738099 -0.0
  outer loop
    vertex -0.1333499999999994 4.064000000000001 6.35
    vertex -0.5606602434642639 4.120256460796751 2.114974861910923e-15
    vertex -0.1333499999999994 4.064000000000001 2.114974861910923e-15
  endloop
endfacet
facet normal -0.25881904510252224 -0.965925826289068 0.0
  outer loop
    vertex -0.5606602434642639 4.120256460796751 2.114974861910923e-15
    vertex -0.1333499999999994 4.064000000000001 6.35
    vertex -0.5606602434642639 4.120256460796751 6.35
  endloop
endfacet
facet normal -1.0 0.0 0.0
  outer loop
    vertex -0.1333499999999994 4.064000000000001 6.35
    vertex -0.1333499999999994 0.0 2.114974861910923e-15
    vertex -0.1333499999999994 0.0 6.35
  endloop
endfacet
facet normal -1.0 0.0 0.0
  outer loop
    vertex -0.1333499999999994 0.0 2.114974861910923e-15
    vertex -0.1333499999999994 4.064000000000001 6.35
    vertex -0.1333499999999994 4.064000000000001 2.114974861910923e-15
  endloop
endfacet
facet normal 0.9977495510937785 0.06705097532597021 -2.0397423585557692e-35
  outer loop
    vertex 1.517649999999999 5.715000000000002 2.114974861910923e-15
    vertex 1.5317745338717808 1.438668692944404 6.35
    vertex 1.5317745338717808 1.438668692944404 2.114974861910923e-15
  endloop
endfacet
facet normal 0.9950214970737009 0.09966052559168627 -3.901541131772086e-20
  outer loop
    vertex 1.5317745338717808 1.438668692944404 6.35
    vertex 1.517649999999999 5.715000000000002 2.114974861910923e-15
    vertex 1.517649999999999 5.715000000000002 6.35
  endloop
endfacet
facet normal 0.9659258262890693 0.2588190451025176 0.0
  outer loop
    vertex 1.4613935392032515 6.1423102434642605 2.114974861910923e-15
    vertex 1.517649999999999 5.715000000000002 6.35
    vertex 1.517649999999999 5.715000000000002 2.114974861910923e-15
  endloop
endfacet
facet normal 0.9977495510937785 0.06705097532597021 -2.0397423585557692e-35
  outer loop
    vertex 1.517649999999999 5.715000000000002 6.35
    vertex 1.4613935392032515 6.1423102434642605 2.114974861910923e-15
    vertex 1.4613935392032515 6.1423102434642605 6.35
  endloop
endfacet
facet normal 0.8660254037844385 0.5000000000000007 0.0
  outer loop
    vertex 1.29645794164811 6.5405000000000015 2.114974861910923e-15
    vertex 1.4613935392032515 6.1423102434642605 6.35
    vertex 1.4613935392032515 6.1423102434642605 2.114974861910923e-15
  endloop
endfacet
facet normal 0.9659258262890693 0.2588190451025176 0.0
  outer loop
    vertex 1.4613935392032515 6.1423102434642605 6.35
    vertex 1.29645794164811 6.5405000000000015 2.114974861910923e-15
    vertex 1.29645794164811 6.5405000000000015 6.35
  endloop
endfacet
facet normal 0.06540312923013943 0.9978589232386039 0.0
  outer loop
    vertex 1.0340832957389898 6.882433295738989 2.114974861910923e-15
    vertex 1.29645794164811 6.5405000000000015 6.35
    vertex 1.29645794164811 6.5405000000000015 2.114974861910923e-15
  endloop
endfacet
facet normal 0.8660254037844385 0.5000000000000007 0.0
  outer loop
    vertex 1.29645794164811 6.5405000000000015 6.35
    vertex 1.0340832957389898 6.882433295738989 2.114974861910923e-15
    vertex 1.0340832957389898 6.882433295738989 6.35
  endloop
endfacet
facet normal -0.4999999999999988 -0.8660254037844394 0.0
  outer loop
    vertex -0.9588499999999986 4.2851920583518925 6.35
    vertex -1.3007832957389887 4.54756670426101 2.114974861910923e-15
    vertex -0.9588499999999986 4.2851920583518925 2.114974861910923e-15
  endloop
endfacet
facet normal -0.9978589232386035 -0.06540312923014395 0.0
  outer loop
    vertex -1.3007832957389887 4.54756670426101 2.114974861910923e-15
    vertex -0.9588499999999986 4.2851920583518925 6.35
    vertex -1.3007832957389887 4.54756670426101 6.35
  endloop
endfacet
facet normal -0.25881904510252224 -0.965925826289068 0.0
  outer loop
    vertex -0.5606602434642639 4.120256460796751 6.35
    vertex -0.9588499999999986 4.2851920583518925 2.114974861910923e-15
    vertex -0.5606602434642639 4.120256460796751 2.114974861910923e-15
  endloop
endfacet
facet normal -0.4999999999999988 -0.8660254037844394 0.0
  outer loop
    vertex -0.9588499999999986 4.2851920583518925 2.114974861910923e-15
    vertex -0.5606602434642639 4.120256460796751 6.35
    vertex -0.9588499999999986 4.2851920583518925 6.35
  endloop
endfacet
facet normal -1.6647985674200705e-15 -8.008894189633905e-16 -1.0
  outer loop
    vertex 1.5176499999999427 0.003167436299708126 2.114974861910923e-15
    vertex 2.7413397565356825 0.05942389709645568 -7.049916206369744e-16
    vertex 2.9531512566446385 0.017291970171546156 -7.049916206369744e-16
  endloop
endfacet
facet normal -1.6647985674200705e-15 -8.008894189633905e-16 -1.0
  outer loop
    vertex 2.7413397565356825 0.05942389709645568 -7.049916206369744e-16
    vertex 1.5176499999999427 0.003167436299708126 2.114974861910923e-15
    vertex 2.5368396531651793 0.12884232812357424 -7.049916206369744e-16
  endloop
endfacet
facet normal -1.6647985674200705e-15 -8.008894189633905e-16 -1.0
  outer loop
    vertex 2.5368396531651793 0.12884232812357424 -7.049916206369744e-16
    vertex 1.5176499999999427 0.003167436299708126 2.114974861910923e-15
    vertex 2.343149999999942 0.22435949465160013 -7.049916206369744e-16
  endloop
endfacet
facet normal -1.6647985674200705e-15 -8.008894189633905e-16 -1.0
  outer loop
    vertex 2.343149999999942 0.22435949465160013 -7.049916206369744e-16
    vertex 1.5176499999999427 0.003167436299708126 2.114974861910923e-15
    vertex 2.163584880706545 0.3443410714788799 -7.049916206369744e-16
  endloop
endfacet
facet normal -1.6647985674200705e-15 -8.008894189633905e-16 -1.0
  outer loop
    vertex 2.163584880706545 0.3443410714788799 -7.049916206369744e-16
    vertex 1.5176499999999427 0.003167436299708126 2.114974861910923e-15
    vertex 2.001216704260952 0.4867341405607174 -7.049916206369744e-16
  endloop
endfacet
facet normal -1.6647985674200705e-15 -8.008894189633905e-16 -1.0
  outer loop
    vertex 2.001216704260952 0.4867341405607174 -7.049916206369744e-16
    vertex 1.5176499999999427 0.003167436299708126 2.114974861910923e-15
    vertex 1.8588236351791145 0.6491023170063107 -7.049916206369744e-16
  endloop
endfacet
facet normal -1.6647985674200705e-15 -8.008894189633905e-16 -1.0
  outer loop
    vertex 1.8588236351791145 0.6491023170063107 -7.049916206369744e-16
    vertex 1.5176499999999427 0.003167436299708126 2.114974861910923e-15
    vertex 1.7388420583518347 0.8286674362997074 -7.049916206369744e-16
  endloop
endfacet
facet normal -1.6647985674200705e-15 -8.008894189633905e-16 -1.0
  outer loop
    vertex 1.7388420583518347 0.8286674362997074 -7.049916206369744e-16
    vertex 1.5176499999999427 0.003167436299708126 2.114974861910923e-15
    vertex 1.6433248918238088 1.022357089464945 -7.049916206369744e-16
  endloop
endfacet
facet normal -1.6647985674200705e-15 -8.008894189633905e-16 -1.0
  outer loop
    vertex 1.6433248918238088 1.022357089464945 -7.049916206369744e-16
    vertex 1.5176499999999427 0.003167436299708126 2.114974861910923e-15
    vertex 1.5739064607966904 1.226857192835445 -7.049916206369744e-16
  endloop
endfacet
facet normal -1.6647985674200705e-15 -8.008894189633905e-16 -1.0
  outer loop
    vertex 1.5739064607966904 1.226857192835445 -7.049916206369744e-16
    vertex 1.5176499999999427 0.003167436299708126 2.114974861910923e-15
    vertex 1.5317745338717808 1.438668692944404 2.114974861910923e-15
  endloop
endfacet
facet normal 0.25881904510252063 0.9659258262890684 0.0
  outer loop
    vertex 2.7413397565356825 0.05942389709645568 6.35
    vertex 2.9531512566446385 0.017291970171546156 -7.049916206369744e-16
    vertex 2.7413397565356825 0.05942389709645568 -7.049916206369744e-16
  endloop
endfacet
facet normal 0.10021463002580767 0.9949658425940012 -1.7793484834111473e-21
  outer loop
    vertex 2.9531512566446385 0.017291970171546156 -7.049916206369744e-16
    vertex 2.7413397565356825 0.05942389709645568 6.35
    vertex 2.9531512566446385 0.017291970171546156 6.35
  endloop
endfacet
facet normal 0.38268343236508995 0.9238795325112868 0.0
  outer loop
    vertex 2.5368396531651793 0.12884232812357424 6.35
    vertex 2.7413397565356825 0.05942389709645568 -7.049916206369744e-16
    vertex 2.5368396531651793 0.12884232812357424 -7.049916206369744e-16
  endloop
endfacet
facet normal 0.25881904510252063 0.9659258262890684 0.0
  outer loop
    vertex 2.7413397565356825 0.05942389709645568 -7.049916206369744e-16
    vertex 2.5368396531651793 0.12884232812357424 6.35
    vertex 2.7413397565356825 0.05942389709645568 6.35
  endloop
endfacet
facet normal 0.49999999999999983 0.8660254037844387 0.0
  outer loop
    vertex 2.343149999999942 0.22435949465160013 6.35
    vertex 2.5368396531651793 0.12884232812357424 -7.049916206369744e-16
    vertex 2.343149999999942 0.22435949465160013 -7.049916206369744e-16
  endloop
endfacet
facet normal 0.38268343236508995 0.9238795325112868 0.0
  outer loop
    vertex 2.5368396531651793 0.12884232812357424 -7.049916206369744e-16
    vertex 2.343149999999942 0.22435949465160013 6.35
    vertex 2.5368396531651793 0.12884232812357424 6.35
  endloop
endfacet
facet normal 0.6087614290087208 0.793353340291235 0.0
  outer loop
    vertex 2.163584880706545 0.3443410714788799 6.35
    vertex 2.343149999999942 0.22435949465160013 -7.049916206369744e-16
    vertex 2.163584880706545 0.3443410714788799 -7.049916206369744e-16
  endloop
endfacet
facet normal 0.49999999999999983 0.8660254037844387 0.0
  outer loop
    vertex 2.343149999999942 0.22435949465160013 -7.049916206369744e-16
    vertex 2.163584880706545 0.3443410714788799 6.35
    vertex 2.343149999999942 0.22435949465160013 6.35
  endloop
endfacet
facet normal 0.7071067811865472 0.7071067811865478 0.0
  outer loop
    vertex 2.001216704260952 0.4867341405607174 6.35
    vertex 2.163584880706545 0.3443410714788799 -7.049916206369744e-16
    vertex 2.001216704260952 0.4867341405607174 -7.049916206369744e-16
  endloop
endfacet
facet normal 0.6087614290087208 0.793353340291235 0.0
  outer loop
    vertex 2.163584880706545 0.3443410714788799 -7.049916206369744e-16
    vertex 2.001216704260952 0.4867341405607174 6.35
    vertex 2.163584880706545 0.3443410714788799 6.35
  endloop
endfacet
facet normal 0.7933533402912353 0.6087614290087208 0.0
  outer loop
    vertex 1.8588236351791145 0.6491023170063107 -7.049916206369744e-16
    vertex 2.001216704260952 0.4867341405607174 6.35
    vertex 2.001216704260952 0.4867341405607174 -7.049916206369744e-16
  endloop
endfacet
facet normal 0.7071067811865472 0.7071067811865478 0.0
  outer loop
    vertex 2.001216704260952 0.4867341405607174 6.35
    vertex 1.8588236351791145 0.6491023170063107 -7.049916206369744e-16
    vertex 1.8588236351791145 0.6491023170063107 6.35
  endloop
endfacet
facet normal 0.8660254037844389 0.49999999999999956 0.0
  outer loop
    vertex 1.7388420583518347 0.8286674362997074 -7.049916206369744e-16
    vertex 1.8588236351791145 0.6491023170063107 6.35
    vertex 1.8588236351791145 0.6491023170063107 -7.049916206369744e-16
  endloop
endfacet
facet normal 0.7933533402912353 0.6087614290087208 0.0
  outer loop
    vertex 1.8588236351791145 0.6491023170063107 6.35
    vertex 1.7388420583518347 0.8286674362997074 -7.049916206369744e-16
    vertex 1.7388420583518347 0.8286674362997074 6.35
  endloop
endfacet
facet normal 0.9950214970737008 0.09966052559168667 -3.901541131772102e-20
  outer loop
    vertex 1.5317745338717808 1.438668692944404 2.114974861910923e-15
    vertex 1.5739064607966904 1.226857192835445 6.35
    vertex 1.5739064607966904 1.226857192835445 -7.049916206369744e-16
  endloop
endfacet
facet normal 0.9659258262890685 0.25881904510252024 -3.8917128581133785e-20
  outer loop
    vertex 1.5739064607966904 1.226857192835445 6.35
    vertex 1.5317745338717808 1.438668692944404 2.114974861910923e-15
    vertex 1.5317745338717808 1.438668692944404 6.35
  endloop
endfacet
facet normal 0.10021463002580765 0.9949658425940012 -1.7793484834111477e-21
  outer loop
    vertex 2.9531512566446385 0.017291970171546156 6.35
    vertex 3.793289669850668 0.013581282569075136 0.0
    vertex 2.9531512566446385 0.017291970171546156 -7.049916206369744e-16
  endloop
endfacet
facet normal 0.0022083625741332203 0.9999975615643977 -1.771165588175811e-21
  outer loop
    vertex 3.793289669850668 0.013581282569075136 0.0
    vertex 2.9531512566446385 0.017291970171546156 6.35
    vertex 3.793289669850668 0.013581282569075136 6.35
  endloop
endfacet
facet normal 4.1619964185501757e-16 -2.0022235474084748e-16 -1.0
  outer loop
    vertex 5.25966024346426 0.05942389709645568 7.049916206369744e-16
    vertex 6.483349999999999 0.003167436299708126 1.4099832412739487e-15
    vertex 5.047848743355304 0.017291970171546156 7.049916206369744e-16
  endloop
endfacet
facet normal 4.1619964185501757e-16 -2.0022235474084748e-16 -1.0
  outer loop
    vertex 6.483349999999999 0.003167436299708126 1.4099832412739487e-15
    vertex 5.25966024346426 0.05942389709645568 7.049916206369744e-16
    vertex 5.464160346834762 0.12884232812357424 7.049916206369744e-16
  endloop
endfacet
facet normal 4.1619964185501757e-16 -2.0022235474084748e-16 -1.0
  outer loop
    vertex 6.483349999999999 0.003167436299708126 1.4099832412739487e-15
    vertex 5.464160346834762 0.12884232812357424 7.049916206369744e-16
    vertex 5.65785 0.22435949465160013 7.049916206369744e-16
  endloop
endfacet
facet normal 4.1619964185501757e-16 -2.0022235474084748e-16 -1.0
  outer loop
    vertex 6.483349999999999 0.003167436299708126 1.4099832412739487e-15
    vertex 5.65785 0.22435949465160013 7.049916206369744e-16
    vertex 5.8374151192933965 0.3443410714788799 7.049916206369744e-16
  endloop
endfacet
facet normal 4.1619964185501757e-16 -2.0022235474084748e-16 -1.0
  outer loop
    vertex 6.483349999999999 0.003167436299708126 1.4099832412739487e-15
    vertex 5.8374151192933965 0.3443410714788799 7.049916206369744e-16
    vertex 5.99978329573899 0.4867341405607174 7.049916206369744e-16
  endloop
endfacet
facet normal 4.1619964185501757e-16 -2.0022235474084748e-16 -1.0
  outer loop
    vertex 6.483349999999999 0.003167436299708126 1.4099832412739487e-15
    vertex 5.99978329573899 0.4867341405607174 7.049916206369744e-16
    vertex 6.142176364820827 0.6491023170063107 7.049916206369744e-16
  endloop
endfacet
facet normal 4.1619964185501757e-16 -2.0022235474084748e-16 -1.0
  outer loop
    vertex 6.483349999999999 0.003167436299708126 1.4099832412739487e-15
    vertex 6.142176364820827 0.6491023170063107 7.049916206369744e-16
    vertex 6.262157941648107 0.8286674362997074 7.049916206369744e-16
  endloop
endfacet
facet normal 4.1619964185501757e-16 -2.0022235474084748e-16 -1.0
  outer loop
    vertex 6.483349999999999 0.003167436299708126 1.4099832412739487e-15
    vertex 6.262157941648107 0.8286674362997074 7.049916206369744e-16
    vertex 6.357675108176133 1.022357089464945 7.049916206369744e-16
  endloop
endfacet
facet normal 4.1619964185501757e-16 -2.0022235474084748e-16 -1.0
  outer loop
    vertex 6.483349999999999 0.003167436299708126 1.4099832412739487e-15
    vertex 6.357675108176133 1.022357089464945 7.049916206369744e-16
    vertex 6.427093539203251 1.226857192835445 7.049916206369744e-16
  endloop
endfacet
facet normal 4.1619964185501757e-16 -2.0022235474084748e-16 -1.0
  outer loop
    vertex 6.483349999999999 0.003167436299708126 1.4099832412739487e-15
    vertex 6.427093539203251 1.226857192835445 7.049916206369744e-16
    vertex 6.469225466128158 1.438668692944404 1.4099832412739487e-15
  endloop
endfacet
facet normal -0.10021463002580776 0.9949658425940012 1.779348483413375e-21
  outer loop
    vertex 5.047848743355304 0.017291970171546156 6.35
    vertex 5.25966024346426 0.05942389709645568 7.049916206369744e-16
    vertex 5.047848743355304 0.017291970171546156 7.049916206369744e-16
  endloop
endfacet
facet normal -0.2588190451025205 0.9659258262890684 1.2049167569669881e-33
  outer loop
    vertex 5.25966024346426 0.05942389709645568 7.049916206369744e-16
    vertex 5.047848743355304 0.017291970171546156 6.35
    vertex 5.25966024346426 0.05942389709645568 6.35
  endloop
endfacet
facet normal -0.9950214970737006 0.0996605255916904 -6.317097318313716e-20
  outer loop
    vertex 6.469225466128158 1.438668692944404 6.35
    vertex 6.427093539203251 1.226857192835445 7.049916206369744e-16
    vertex 6.427093539203251 1.226857192835445 6.35
  endloop
endfacet
facet normal -0.9659258262890682 0.2588190451025209 -6.30118407811304e-20
  outer loop
    vertex 6.427093539203251 1.226857192835445 7.049916206369744e-16
    vertex 6.469225466128158 1.438668692944404 6.35
    vertex 6.469225466128158 1.438668692944404 1.4099832412739487e-15
  endloop
endfacet
facet normal -0.9659258262890684 0.2588190451025209 -6.301184078113047e-20
  outer loop
    vertex 6.427093539203251 1.226857192835445 6.35
    vertex 6.357675108176133 1.022357089464945 7.049916206369744e-16
    vertex 6.357675108176133 1.022357089464945 6.35
  endloop
endfacet
facet normal -0.9238795325112862 0.38268343236509156 0.0
  outer loop
    vertex 6.357675108176133 1.022357089464945 7.049916206369744e-16
    vertex 6.427093539203251 1.226857192835445 6.35
    vertex 6.427093539203251 1.226857192835445 7.049916206369744e-16
  endloop
endfacet
facet normal -0.9238795325112862 0.38268343236509156 0.0
  outer loop
    vertex 6.357675108176133 1.022357089464945 6.35
    vertex 6.262157941648107 0.8286674362997074 7.049916206369744e-16
    vertex 6.262157941648107 0.8286674362997074 6.35
  endloop
endfacet
facet normal -0.8660254037844393 0.49999999999999933 0.0
  outer loop
    vertex 6.262157941648107 0.8286674362997074 7.049916206369744e-16
    vertex 6.357675108176133 1.022357089464945 6.35
    vertex 6.357675108176133 1.022357089464945 7.049916206369744e-16
  endloop
endfacet
facet normal -0.8660254037844393 0.49999999999999933 0.0
  outer loop
    vertex 6.262157941648107 0.8286674362997074 6.35
    vertex 6.142176364820827 0.6491023170063107 7.049916206369744e-16
    vertex 6.142176364820827 0.6491023170063107 6.35
  endloop
endfacet
facet normal -0.7933533402912354 0.6087614290087204 0.0
  outer loop
    vertex 6.142176364820827 0.6491023170063107 7.049916206369744e-16
    vertex 6.262157941648107 0.8286674362997074 6.35
    vertex 6.262157941648107 0.8286674362997074 7.049916206369744e-16
  endloop
endfacet
facet normal -0.7933533402912354 0.6087614290087204 0.0
  outer loop
    vertex 6.142176364820827 0.6491023170063107 6.35
    vertex 5.99978329573899 0.4867341405607174 7.049916206369744e-16
    vertex 5.99978329573899 0.4867341405607174 6.35
  endloop
endfacet
facet normal -0.7071067811865475 0.7071067811865476 0.0
  outer loop
    vertex 5.99978329573899 0.4867341405607174 7.049916206369744e-16
    vertex 6.142176364820827 0.6491023170063107 6.35
    vertex 6.142176364820827 0.6491023170063107 7.049916206369744e-16
  endloop
endfacet
facet normal -0.6087614290087205 0.7933533402912354 0.0
  outer loop
    vertex 5.8374151192933965 0.3443410714788799 6.35
    vertex 5.99978329573899 0.4867341405607174 7.049916206369744e-16
    vertex 5.8374151192933965 0.3443410714788799 7.049916206369744e-16
  endloop
endfacet
facet normal -0.7071067811865475 0.7071067811865476 0.0
  outer loop
    vertex 5.99978329573899 0.4867341405607174 7.049916206369744e-16
    vertex 5.8374151192933965 0.3443410714788799 6.35
    vertex 5.99978329573899 0.4867341405607174 6.35
  endloop
endfacet
facet normal -0.5000000000000001 0.8660254037844387 0.0
  outer loop
    vertex 5.65785 0.22435949465160013 6.35
    vertex 5.8374151192933965 0.3443410714788799 7.049916206369744e-16
    vertex 5.65785 0.22435949465160013 7.049916206369744e-16
  endloop
endfacet
facet normal -0.6087614290087205 0.7933533402912354 0.0
  outer loop
    vertex 5.8374151192933965 0.3443410714788799 7.049916206369744e-16
    vertex 5.65785 0.22435949465160013 6.35
    vertex 5.8374151192933965 0.3443410714788799 6.35
  endloop
endfacet
facet normal -0.38268343236508945 0.923879532511287 0.0
  outer loop
    vertex 5.464160346834762 0.12884232812357424 6.35
    vertex 5.65785 0.22435949465160013 7.049916206369744e-16
    vertex 5.464160346834762 0.12884232812357424 7.049916206369744e-16
  endloop
endfacet
facet normal -0.5000000000000001 0.8660254037844387 0.0
  outer loop
    vertex 5.65785 0.22435949465160013 7.049916206369744e-16
    vertex 5.464160346834762 0.12884232812357424 6.35
    vertex 5.65785 0.22435949465160013 6.35
  endloop
endfacet
facet normal -0.2588190451025205 0.9659258262890684 1.2049167569669881e-33
  outer loop
    vertex 5.25966024346426 0.05942389709645568 6.35
    vertex 5.464160346834762 0.12884232812357424 7.049916206369744e-16
    vertex 5.25966024346426 0.05942389709645568 7.049916206369744e-16
  endloop
endfacet
facet normal -0.38268343236508945 0.923879532511287 0.0
  outer loop
    vertex 5.464160346834762 0.12884232812357424 7.049916206369744e-16
    vertex 5.25966024346426 0.05942389709645568 6.35
    vertex 5.464160346834762 0.12884232812357424 6.35
  endloop
endfacet
facet normal 0.09801714032955991 -0.9951847266721969 1.9490804782267227e-33
  outer loop
    vertex 12.13340176067946 -1.5873838102448994 6.35
    vertex -4.132401760679464 -1.5873838102448978 1.4099832412739487e-15
    vertex 12.13340176067946 -1.5873838102448994 -3.524958103184872e-16
  endloop
endfacet
facet normal -0.09801714032956019 -0.9951847266721969 7.627908314924958e-34
  outer loop
    vertex -4.132401760679464 -1.5873838102448978 1.4099832412739487e-15
    vertex 12.13340176067946 -1.5873838102448994 6.35
    vertex -4.132401760679464 -1.5873838102448978 6.35
  endloop
endfacet
facet normal 0.923879532511287 0.3826834323650896 0.0
  outer loop
    vertex 1.6433248918238088 1.022357089464945 -7.049916206369744e-16
    vertex 1.7388420583518347 0.8286674362997074 6.35
    vertex 1.7388420583518347 0.8286674362997074 -7.049916206369744e-16
  endloop
endfacet
facet normal 0.8660254037844389 0.49999999999999956 0.0
  outer loop
    vertex 1.7388420583518347 0.8286674362997074 6.35
    vertex 1.6433248918238088 1.022357089464945 -7.049916206369744e-16
    vertex 1.6433248918238088 1.022357089464945 6.35
  endloop
endfacet
facet normal 0.9659258262890685 0.2588190451025205 -3.891712858113362e-20
  outer loop
    vertex 1.5739064607966904 1.226857192835445 -7.049916206369744e-16
    vertex 1.6433248918238088 1.022357089464945 6.35
    vertex 1.6433248918238088 1.022357089464945 -7.049916206369744e-16
  endloop
endfacet
facet normal 0.923879532511287 0.3826834323650896 0.0
  outer loop
    vertex 1.6433248918238088 1.022357089464945 6.35
    vertex 1.5739064607966904 1.226857192835445 -7.049916206369744e-16
    vertex 1.5739064607966904 1.226857192835445 6.35
  endloop
endfacet
facet normal 0.0 0.0 1.0
  outer loop
    vertex -0.9588499999999986 4.2851920583518925 6.35
    vertex 1.0340832957389898 6.882433295738989 6.35
    vertex -1.3007832957389887 4.54756670426101 6.35
  endloop
endfacet
facet normal 0.0 0.0 1.0
  outer loop
    vertex 1.0340832957389898 6.882433295738989 6.35
    vertex -0.9588499999999986 4.2851920583518925 6.35
    vertex -0.5606602434642639 4.120256460796751 6.35
  endloop
endfacet
facet normal 0.0 0.0 1.0
  outer loop
    vertex 1.0340832957389898 6.882433295738989 6.35
    vertex -0.5606602434642639 4.120256460796751 6.35
    vertex -0.1333499999999994 4.064000000000001 6.35
  endloop
endfacet
facet normal 0.0 0.0 1.0
  outer loop
    vertex -5.46994447825242 -0.41439032868604647 6.35
    vertex -0.1333499999999994 0.0 6.35
    vertex -5.524500000000001 0.0 6.35
  endloop
endfacet
facet normal 0.0 0.0 1.0
  outer loop
    vertex -0.1333499999999994 0.0 6.35
    vertex -5.46994447825242 -0.41439032868604647 6.35
    vertex -5.4026249442834136 -0.6127072807090329 6.35
  endloop
endfacet
facet normal 0.0 0.0 1.0
  outer loop
    vertex -0.1333499999999994 0.0 6.35
    vertex -5.4026249442834136 -0.6127072807090329 6.35
    vertex -5.3099957816595165 -0.8005406412845375 6.35
  endloop
endfacet
facet normal 0.0 0.0 1.0
  outer loop
    vertex -0.1333499999999994 0.0 6.35
    vertex -5.3099957816595165 -0.8005406412845375 6.35
    vertex -5.193641901034876 -0.9746765295358649 6.35
  endloop
endfacet
facet normal 0.0 0.0 1.0
  outer loop
    vertex -0.1333499999999994 0.0 6.35
    vertex -5.193641901034876 -0.9746765295358649 6.35
    vertex -5.055554149566373 -1.1321354321354464 6.35
  endloop
endfacet
facet normal 0.0 0.0 1.0
  outer loop
    vertex -0.1333499999999994 0.0 6.35
    vertex -5.055554149566373 -1.1321354321354464 6.35
    vertex -4.8980952469667915 -1.2702231836039497 6.35
  endloop
endfacet
facet normal 0.0 0.0 1.0
  outer loop
    vertex -0.1333499999999994 0.0 6.35
    vertex -4.8980952469667915 -1.2702231836039497 6.35
    vertex -4.7239593587154625 -1.3865770642285893 6.35
  endloop
endfacet
facet normal 0.0 0.0 1.0
  outer loop
    vertex -0.1333499999999994 0.0 6.35
    vertex -4.7239593587154625 -1.3865770642285893 6.35
    vertex -4.536125998139959 -1.479206226852487 6.35
  endloop
endfacet
facet normal 0.0 0.0 1.0
  outer loop
    vertex -0.1333499999999994 0.0 6.35
    vertex -4.536125998139959 -1.479206226852487 6.35
    vertex -4.337809046116973 -1.5465257608214944 6.35
  endloop
endfacet
facet normal 0.0 0.0 1.0
  outer loop
    vertex -0.1333499999999994 0.0 6.35
    vertex -4.337809046116973 -1.5465257608214944 6.35
    vertex -4.132401760679464 -1.5873838102448978 6.35
  endloop
endfacet
facet normal 0.0 0.0 1.0
  outer loop
    vertex -0.1333499999999994 0.0 6.35
    vertex -4.132401760679464 -1.5873838102448978 6.35
    vertex 12.13340176067946 -1.5873838102448994 6.35
  endloop
endfacet
facet normal 0.0 0.0 1.0
  outer loop
    vertex -0.1333499999999994 0.0 6.35
    vertex 12.13340176067946 -1.5873838102448994 6.35
    vertex 2.9531512566446385 0.017291970171546156 6.35
  endloop
endfacet
facet normal 0.0 0.0 1.0
  outer loop
    vertex -0.1333499999999994 0.0 6.35
    vertex 2.9531512566446385 0.017291970171546156 6.35
    vertex 2.7413397565356825 0.05942389709645568 6.35
  endloop
endfacet
facet normal 0.0 0.0 1.0
  outer loop
    vertex -0.1333499999999994 0.0 6.35
    vertex 2.7413397565356825 0.05942389709645568 6.35
    vertex 2.5368396531651793 0.12884232812357424 6.35
  endloop
endfacet
facet normal 0.0 0.0 1.0
  outer loop
    vertex -0.1333499999999994 0.0 6.35
    vertex 2.5368396531651793 0.12884232812357424 6.35
    vertex 2.343149999999942 0.22435949465160013 6.35
  endloop
endfacet
facet normal 0.0 0.0 1.0
  outer loop
    vertex -0.1333499999999994 0.0 6.35
    vertex 2.343149999999942 0.22435949465160013 6.35
    vertex 2.163584880706545 0.3443410714788799 6.35
  endloop
endfacet
facet normal 0.0 0.0 1.0
  outer loop
    vertex -0.1333499999999994 0.0 6.35
    vertex 2.163584880706545 0.3443410714788799 6.35
    vertex 2.001216704260952 0.4867341405607174 6.35
  endloop
endfacet
facet normal 0.0 0.0 1.0
  outer loop
    vertex -0.1333499999999994 0.0 6.35
    vertex 2.001216704260952 0.4867341405607174 6.35
    vertex 1.8588236351791145 0.6491023170063107 6.35
  endloop
endfacet
facet normal 0.0 0.0 1.0
  outer loop
    vertex -0.1333499999999994 0.0 6.35
    vertex 1.8588236351791145 0.6491023170063107 6.35
    vertex 1.7388420583518347 0.8286674362997074 6.35
  endloop
endfacet
facet normal 0.0 0.0 1.0
  outer loop
    vertex -0.1333499999999994 0.0 6.35
    vertex 1.7388420583518347 0.8286674362997074 6.35
    vertex -0.1333499999999994 4.064000000000001 6.35
  endloop
endfacet
facet normal 0.0 0.0 1.0
  outer loop
    vertex -0.1333499999999994 4.064000000000001 6.35
    vertex 1.7388420583518347 0.8286674362997074 6.35
    vertex 1.6433248918238088 1.022357089464945 6.35
  endloop
endfacet
facet normal 0.0 0.0 1.0
  outer loop
    vertex -0.1333499999999994 4.064000000000001 6.35
    vertex 1.6433248918238088 1.022357089464945 6.35
    vertex 1.5739064607966904 1.226857192835445 6.35
  endloop
endfacet
facet normal 0.0 0.0 1.0
  outer loop
    vertex -0.1333499999999994 4.064000000000001 6.35
    vertex 1.5739064607966904 1.226857192835445 6.35
    vertex 1.5317745338717808 1.438668692944404 6.35
  endloop
endfacet
facet normal 0.0 0.0 1.0
  outer loop
    vertex -0.1333499999999994 4.064000000000001 6.35
    vertex 1.5317745338717808 1.438668692944404 6.35
    vertex 1.0340832957389898 6.882433295738989 6.35
  endloop
endfacet
facet normal 0.0 0.0 1.0
  outer loop
    vertex 1.0340832957389898 6.882433295738989 6.35
    vertex 1.5317745338717808 1.438668692944404 6.35
    vertex 1.29645794164811 6.5405000000000015 6.35
  endloop
endfacet
facet normal 0.0 0.0 1.0
  outer loop
    vertex 1.29645794164811 6.5405000000000015 6.35
    vertex 1.5317745338717808 1.438668692944404 6.35
    vertex 1.4613935392032515 6.1423102434642605 6.35
  endloop
endfacet
facet normal 0.0 0.0 1.0
  outer loop
    vertex 1.4613935392032515 6.1423102434642605 6.35
    vertex 1.5317745338717808 1.438668692944404 6.35
    vertex 1.517649999999999 5.715000000000002 6.35
  endloop
endfacet
facet normal 0.0 0.0 1.0
  outer loop
    vertex 2.9531512566446385 0.017291970171546156 6.35
    vertex 12.13340176067946 -1.5873838102448994 6.35
    vertex 3.793289669850668 0.013581282569075136 6.35
  endloop
endfacet
facet normal 0.0 0.0 1.0
  outer loop
    vertex 3.793289669850668 0.013581282569075136 6.35
    vertex 12.13340176067946 -1.5873838102448994 6.35
    vertex 4.207710330149331 0.013581282569075136 6.35
  endloop
endfacet
facet normal 0.0 0.0 1.0
  outer loop
    vertex 4.207710330149331 0.013581282569075136 6.35
    vertex 12.13340176067946 -1.5873838102448994 6.35
    vertex 5.047848743355304 0.017291970171546156 6.35
  endloop
endfacet
facet normal 0.0 0.0 1.0
  outer loop
    vertex 5.047848743355304 0.017291970171546156 6.35
    vertex 12.13340176067946 -1.5873838102448994 6.35
    vertex 5.25966024346426 0.05942389709645568 6.35
  endloop
endfacet
facet normal 0.0 0.0 1.0
  outer loop
    vertex 5.25966024346426 0.05942389709645568 6.35
    vertex 12.13340176067946 -1.5873838102448994 6.35
    vertex 5.464160346834762 0.12884232812357424 6.35
  endloop
endfacet
facet normal 0.0 0.0 1.0
  outer loop
    vertex 5.464160346834762 0.12884232812357424 6.35
    vertex 12.13340176067946 -1.5873838102448994 6.35
    vertex 5.65785 0.22435949465160013 6.35
  endloop
endfacet
facet normal 0.0 0.0 1.0
  outer loop
    vertex 5.65785 0.22435949465160013 6.35
    vertex 12.13340176067946 -1.5873838102448994 6.35
    vertex 5.8374151192933965 0.3443410714788799 6.35
  endloop
endfacet
facet normal 0.0 0.0 1.0
  outer loop
    vertex 5.8374151192933965 0.3443410714788799 6.35
    vertex 12.13340176067946 -1.5873838102448994 6.35
    vertex 5.99978329573899 0.4867341405607174 6.35
  endloop
endfacet
facet normal 0.0 0.0 1.0
  outer loop
    vertex 5.99978329573899 0.4867341405607174 6.35
    vertex 12.13340176067946 -1.5873838102448994 6.35
    vertex 6.142176364820827 0.6491023170063107 6.35
  endloop
endfacet
facet normal 0.0 0.0 1.0
  outer loop
    vertex 6.142176364820827 0.6491023170063107 6.35
    vertex 12.13340176067946 -1.5873838102448994 6.35
    vertex 8.134349999999998 0.0 6.35
  endloop
endfacet
facet normal 0.0 0.0 1.0
  outer loop
    vertex 6.142176364820827 0.6491023170063107 6.35
    vertex 8.134349999999998 0.0 6.35
    vertex 6.262157941648107 0.8286674362997074 6.35
  endloop
endfacet
facet normal 0.0 0.0 1.0
  outer loop
    vertex 6.262157941648107 0.8286674362997074 6.35
    vertex 8.134349999999998 0.0 6.35
    vertex 6.357675108176133 1.022357089464945 6.35
  endloop
endfacet
facet normal 0.0 0.0 1.0
  outer loop
    vertex 6.357675108176133 1.022357089464945 6.35
    vertex 8.134349999999998 0.0 6.35
    vertex 6.427093539203251 1.226857192835445 6.35
  endloop
endfacet
facet normal 0.0 0.0 1.0
  outer loop
    vertex 6.427093539203251 1.226857192835445 6.35
    vertex 8.134349999999998 0.0 6.35
    vertex 6.469225466128158 1.438668692944404 6.35
  endloop
endfacet
facet normal 0.0 0.0 1.0
  outer loop
    vertex 6.469225466128158 1.438668692944404 6.35
    vertex 8.134349999999998 0.0 6.35
    vertex 6.483349999999999 5.715000000000002 6.35
  endloop
endfacet
facet normal 0.0 0.0 1.0
  outer loop
    vertex 6.483349999999999 5.715000000000002 6.35
    vertex 8.134349999999998 0.0 6.35
    vertex 6.539606460796747 6.142310243464264 6.35
  endloop
endfacet
facet normal 0.0 0.0 1.0
  outer loop
    vertex 6.539606460796747 6.142310243464264 6.35
    vertex 8.134349999999998 0.0 6.35
    vertex 6.704542058351889 6.5405000000000015 6.35
  endloop
endfacet
facet normal 0.0 0.0 1.0
  outer loop
    vertex 6.704542058351889 6.5405000000000015 6.35
    vertex 8.134349999999998 0.0 6.35
    vertex 6.966916704261008 6.882433295738991 6.35
  endloop
endfacet
facet normal 0.0 0.0 1.0
  outer loop
    vertex 8.134349999999998 0.0 6.35
    vertex 12.13340176067946 -1.5873838102448994 6.35
    vertex 13.5255 0.0 6.35
  endloop
endfacet
facet normal 0.0 0.0 1.0
  outer loop
    vertex 13.5255 0.0 6.35
    vertex 12.13340176067946 -1.5873838102448994 6.35
    vertex 12.338809046116971 -1.5465257608214944 6.35
  endloop
endfacet
facet normal 0.0 0.0 1.0
  outer loop
    vertex 13.5255 0.0 6.35
    vertex 12.338809046116971 -1.5465257608214944 6.35
    vertex 12.537125998139958 -1.4792062268524884 6.35
  endloop
endfacet
facet normal 0.0 0.0 1.0
  outer loop
    vertex 13.5255 0.0 6.35
    vertex 12.537125998139958 -1.4792062268524884 6.35
    vertex 12.724959358715457 -1.3865770642285893 6.35
  endloop
endfacet
facet normal 0.0 0.0 1.0
  outer loop
    vertex 13.5255 0.0 6.35
    vertex 12.724959358715457 -1.3865770642285893 6.35
    vertex 12.899095246966787 -1.2702231836039497 6.35
  endloop
endfacet
facet normal 0.0 0.0 1.0
  outer loop
    vertex 13.5255 0.0 6.35
    vertex 12.899095246966787 -1.2702231836039497 6.35
    vertex 13.056554149566372 -1.1321354321354478 6.35
  endloop
endfacet
facet normal 0.0 0.0 1.0
  outer loop
    vertex 13.5255 0.0 6.35
    vertex 13.056554149566372 -1.1321354321354478 6.35
    vertex 13.194641901034874 -0.9746765295358649 6.35
  endloop
endfacet
facet normal 0.0 0.0 1.0
  outer loop
    vertex 13.5255 0.0 6.35
    vertex 13.194641901034874 -0.9746765295358649 6.35
    vertex 13.310995781659512 -0.8005406412845375 6.35
  endloop
endfacet
facet normal 0.0 0.0 1.0
  outer loop
    vertex 13.5255 0.0 6.35
    vertex 13.310995781659512 -0.8005406412845375 6.35
    vertex 13.403624944283411 -0.6127072807090344 6.35
  endloop
endfacet
facet normal 0.0 0.0 1.0
  outer loop
    vertex 13.5255 0.0 6.35
    vertex 13.403624944283411 -0.6127072807090344 6.35
    vertex 13.470944478252415 -0.41439032868604786 6.35
  endloop
endfacet
facet normal 0.0 0.0 1.0
  outer loop
    vertex 6.966916704261008 6.882433295738991 6.35
    vertex 8.134349999999998 4.064000000000001 6.35
    vertex 9.301783295738987 4.54756670426101 6.35
  endloop
endfacet
facet normal 0.0 0.0 1.0
  outer loop
    vertex 8.134349999999998 4.064000000000001 6.35
    vertex 6.966916704261008 6.882433295738991 6.35
    vertex 8.134349999999998 0.0 6.35
  endloop
endfacet
facet normal 0.0 0.0 1.0
  outer loop
    vertex 9.301783295738987 4.54756670426101 6.35
    vertex 8.134349999999998 4.064000000000001 6.35
    vertex 8.56166024346426 4.120256460796748 6.35
  endloop
endfacet
facet normal 0.0 0.0 1.0
  outer loop
    vertex 9.301783295738987 4.54756670426101 6.35
    vertex 8.56166024346426 4.120256460796748 6.35
    vertex 8.959849999999998 4.2851920583518925 6.35
  endloop
endfacet
facet normal 0.06540312923013943 0.9978589232386039 0.0
  outer loop
    vertex 1.0340832957389898 6.882433295738989 6.35
    vertex -1.3007832957389887 4.54756670426101 2.114974861910923e-15
    vertex -1.3007832957389887 4.54756670426101 6.35
  endloop
endfacet
facet normal -0.9978589232386035 -0.06540312923014395 0.0
  outer loop
    vertex -1.3007832957389887 4.54756670426101 2.114974861910923e-15
    vertex 1.0340832957389898 6.882433295738989 6.35
    vertex 1.0340832957389898 6.882433295738989 2.114974861910923e-15
  endloop
endfacet
facet normal -0.06540312923014109 0.9978589232386037 0.0
  outer loop
    vertex 6.966916704261008 6.882433295738991 1.4099832412739487e-15
    vertex 9.301783295738987 4.54756670426101 6.35
    vertex 9.301783295738987 4.54756670426101 1.4099832412739487e-15
  endloop
endfacet
facet normal 0.707106781186548 0.7071067811865471 0.0
  outer loop
    vertex 9.301783295738987 4.54756670426101 6.35
    vertex 6.966916704261008 6.882433295738991 1.4099832412739487e-15
    vertex 6.966916704261008 6.882433295738991 6.35
  endloop
endfacet
endsolid wire_cover
