solid wire_clip
facet normal 3.49876507973949e-19 -2.367695173506422e-18 -1.0
  outer loop
    vertex -5.651499999999999 6.43210101010101 -3.524958103184872e-16
    vertex 0.8254999999999992 4.064000000000001 0.0
    vertex -5.6515 4.064000000000001 -3.524958103184872e-16
  endloop
endfacet
facet normal 3.49876507973949e-19 -2.367695173506422e-18 -1.0
  outer loop
    vertex 0.8254999999999992 4.064000000000001 0.0
    vertex -5.651499999999999 6.43210101010101 -3.524958103184872e-16
    vertex 0.0 11.684 0.0
  endloop
endfacet
facet normal 3.49876507973949e-19 -2.367695173506422e-18 -1.0
  outer loop
    vertex 0.8254999999999992 4.064000000000001 0.0
    vertex 0.0 11.684 0.0
    vertex 8.000999999999998 11.684 0.0
  endloop
endfacet
facet normal 3.49876507973949e-19 -2.367695173506422e-18 -1.0
  outer loop
    vertex 0.8254999999999992 4.064000000000001 0.0
    vertex 8.000999999999998 11.684 0.0
    vertex 0.8254999999999992 0.0 0.0
  endloop
endfacet
facet normal 3.49876507973949e-19 -2.367695173506422e-18 -1.0
  outer loop
    vertex 0.8254999999999992 0.0 0.0
    vertex 8.000999999999998 11.684 0.0
    vertex 7.175499999999999 4.064000000000001 0.0
  endloop
endfacet
facet normal 3.49876507973949e-19 -2.367695173506422e-18 -1.0
  outer loop
    vertex 7.175499999999999 4.064000000000001 0.0
    vertex 8.000999999999998 11.684 0.0
    vertex 13.652499999999996 4.064000000000001 0.0
  endloop
endfacet
facet normal 3.49876507973949e-19 -2.367695173506422e-18 -1.0
  outer loop
    vertex 13.652499999999996 4.064000000000001 0.0
    vertex 8.000999999999998 11.684 0.0
    vertex 13.652499999999996 6.43210101010101 0.0
  endloop
endfacet
facet normal 3.49876507973949e-19 -2.367695173506422e-18 -1.0
  outer loop
    vertex -15.0495 0.0 0.0
    vertex -13.448418717430926 -2.9677896698506685 0.0
    vertex -15.0495 -11.112499999999999 0.0
  endloop
endfacet
facet normal 3.49876507973949e-19 -2.367695173506422e-18 -1.0
  outer loop
    vertex -13.448418717430926 -2.9677896698506685 0.0
    vertex -15.0495 0.0 0.0
    vertex -13.407907249233896 -2.7641247658997483 0.0
  endloop
endfacet
facet normal 3.49876507973949e-19 -2.367695173506422e-18 -1.0
  outer loop
    vertex -13.407907249233896 -2.7641247658997483 0.0
    vertex -15.0495 0.0 0.0
    vertex -13.341158757861667 -2.56749005112042 0.0
  endloop
endfacet
facet normal 3.49876507973949e-19 -2.367695173506422e-18 -1.0
  outer loop
    vertex -13.341158757861667 -2.56749005112042 0.0
    vertex -15.0495 0.0 0.0
    vertex -13.249315328507798 -2.3812499999999996 0.0
  endloop
endfacet
facet normal 3.49876507973949e-19 -2.367695173506422e-18 -1.0
  outer loop
    vertex -13.249315328507798 -2.3812499999999996 0.0
    vertex -15.0495 0.0 0.0
    vertex -13.133948427712335 -2.2085912314486547 0.0
  endloop
endfacet
facet normal 3.49876507973949e-19 -2.367695173506422e-18 -1.0
  outer loop
    vertex -13.133948427712335 -2.2085912314486547 0.0
    vertex -15.0495 0.0 0.0
    vertex -12.997032015133644 -2.052467984866355 0.0
  endloop
endfacet
facet normal 3.49876507973949e-19 -2.367695173506422e-18 -1.0
  outer loop
    vertex -12.997032015133644 -2.052467984866355 0.0
    vertex -15.0495 0.0 0.0
    vertex -12.840908768551346 -1.9155515722876644 0.0
  endloop
endfacet
facet normal 3.49876507973949e-19 -2.367695173506422e-18 -1.0
  outer loop
    vertex -12.840908768551346 -1.9155515722876644 0.0
    vertex -15.0495 0.0 0.0
    vertex -12.66825 -1.8001846714922025 0.0
  endloop
endfacet
facet normal 3.49876507973949e-19 -2.367695173506422e-18 -1.0
  outer loop
    vertex -12.66825 -1.8001846714922025 0.0
    vertex -15.0495 0.0 0.0
    vertex -12.482009948879579 -1.708341242138332 0.0
  endloop
endfacet
facet normal 3.49876507973949e-19 -2.367695173506422e-18 -1.0
  outer loop
    vertex -12.482009948879579 -1.708341242138332 0.0
    vertex -15.0495 0.0 0.0
    vertex -12.285375234100252 -1.6415927507661048 0.0
  endloop
endfacet
facet normal 3.49876507973949e-19 -2.367695173506422e-18 -1.0
  outer loop
    vertex -12.285375234100252 -1.6415927507661048 0.0
    vertex -15.0495 0.0 0.0
    vertex -12.081710330149331 -1.601081282569075 0.0
  endloop
endfacet
facet normal 3.49876507973949e-19 -2.367695173506422e-18 -1.0
  outer loop
    vertex -12.081710330149331 -1.601081282569075 0.0
    vertex -15.0495 0.0 0.0
    vertex 0.8254999999999992 0.0 0.0
  endloop
endfacet
facet normal 3.49876507973949e-19 -2.367695173506422e-18 -1.0
  outer loop
    vertex -15.0495 -11.112499999999999 0.0
    vertex -13.448418717430926 -2.9677896698506685 0.0
    vertex -14.995407249233894 -11.523375234100252 0.0
  endloop
endfacet
facet normal 3.49876507973949e-19 -2.367695173506422e-18 -1.0
  outer loop
    vertex -14.995407249233894 -11.523375234100252 0.0
    vertex -13.448418717430926 -2.9677896698506685 0.0
    vertex -14.928658757861667 -11.720009948879579 0.0
  endloop
endfacet
facet normal 3.49876507973949e-19 -2.367695173506422e-18 -1.0
  outer loop
    vertex -14.928658757861667 -11.720009948879579 0.0
    vertex -13.448418717430926 -2.9677896698506685 0.0
    vertex -14.836815328507797 -11.90625 0.0
  endloop
endfacet
facet normal 3.49876507973949e-19 -2.367695173506422e-18 -1.0
  outer loop
    vertex -14.836815328507797 -11.90625 0.0
    vertex -13.448418717430926 -2.9677896698506685 0.0
    vertex -14.721448427712335 -12.078908768551344 0.0
  endloop
endfacet
facet normal 3.49876507973949e-19 -2.367695173506422e-18 -1.0
  outer loop
    vertex -14.721448427712335 -12.078908768551344 0.0
    vertex -13.448418717430926 -2.9677896698506685 0.0
    vertex -14.584532015133645 -12.235032015133644 0.0
  endloop
endfacet
facet normal 3.49876507973949e-19 -2.367695173506422e-18 -1.0
  outer loop
    vertex -14.584532015133645 -12.235032015133644 0.0
    vertex -13.448418717430926 -2.9677896698506685 0.0
    vertex -14.428408768551344 -12.371948427712335 0.0
  endloop
endfacet
facet normal 3.49876507973949e-19 -2.367695173506422e-18 -1.0
  outer loop
    vertex -14.428408768551344 -12.371948427712335 0.0
    vertex -13.448418717430926 -2.9677896698506685 0.0
    vertex -14.255749999999999 -12.487315328507796 0.0
  endloop
endfacet
facet normal 3.49876507973949e-19 -2.367695173506422e-18 -1.0
  outer loop
    vertex -14.255749999999999 -12.487315328507796 0.0
    vertex -13.448418717430926 -2.9677896698506685 0.0
    vertex -14.06950994887958 -12.579158757861668 0.0
  endloop
endfacet
facet normal 3.49876507973949e-19 -2.367695173506422e-18 -1.0
  outer loop
    vertex -14.06950994887958 -12.579158757861668 0.0
    vertex -13.448418717430926 -2.9677896698506685 0.0
    vertex -13.87287523410025 -12.645907249233895 0.0
  endloop
endfacet
facet normal 3.49876507973949e-19 -2.367695173506422e-18 -1.0
  outer loop
    vertex -13.87287523410025 -12.645907249233895 0.0
    vertex -13.448418717430926 -2.9677896698506685 0.0
    vertex -13.462 -12.7 0.0
  endloop
endfacet
facet normal 3.49876507973949e-19 -2.367695173506422e-18 -1.0
  outer loop
    vertex -12.081710330149331 -1.601081282569075 0.0
    vertex 0.8254999999999992 0.0 0.0
    vertex 20.082710330149332 -1.601081282569075 0.0
  endloop
endfacet
facet normal 3.49876507973949e-19 -2.367695173506422e-18 -1.0
  outer loop
    vertex 20.082710330149332 -1.601081282569075 0.0
    vertex 0.8254999999999992 0.0 0.0
    vertex 7.175499999999999 0.0 0.0
  endloop
endfacet
facet normal 3.49876507973949e-19 -2.367695173506422e-18 -1.0
  outer loop
    vertex 7.175499999999999 0.0 0.0
    vertex 0.8254999999999992 0.0 0.0
    vertex 7.175499999999999 4.064000000000001 0.0
  endloop
endfacet
facet normal 3.49876507973949e-19 -2.367695173506422e-18 -1.0
  outer loop
    vertex 20.082710330149332 -1.601081282569075 0.0
    vertex 7.175499999999999 0.0 0.0
    vertex 23.0505 0.0 0.0
  endloop
endfacet
facet normal 3.49876507973949e-19 -2.367695173506422e-18 -1.0
  outer loop
    vertex 20.082710330149332 -1.601081282569075 0.0
    vertex 23.0505 0.0 0.0
    vertex 20.286375234100248 -1.6415927507661048 0.0
  endloop
endfacet
facet normal 3.49876507973949e-19 -2.367695173506422e-18 -1.0
  outer loop
    vertex 20.286375234100248 -1.6415927507661048 0.0
    vertex 23.0505 0.0 0.0
    vertex 20.48300994887958 -1.708341242138332 0.0
  endloop
endfacet
facet normal 3.49876507973949e-19 -2.367695173506422e-18 -1.0
  outer loop
    vertex 20.48300994887958 -1.708341242138332 0.0
    vertex 23.0505 0.0 0.0
    vertex 20.669249999999998 -1.8001846714922025 0.0
  endloop
endfacet
facet normal 3.49876507973949e-19 -2.367695173506422e-18 -1.0
  outer loop
    vertex 20.669249999999998 -1.8001846714922025 0.0
    vertex 23.0505 0.0 0.0
    vertex 20.841908768551345 -1.9155515722876644 0.0
  endloop
endfacet
facet normal 3.49876507973949e-19 -2.367695173506422e-18 -1.0
  outer loop
    vertex 20.841908768551345 -1.9155515722876644 0.0
    vertex 23.0505 0.0 0.0
    vertex 20.99803201513364 -2.052467984866355 0.0
  endloop
endfacet
facet normal 3.49876507973949e-19 -2.367695173506422e-18 -1.0
  outer loop
    vertex 20.99803201513364 -2.052467984866355 0.0
    vertex 23.0505 0.0 0.0
    vertex 21.13494842771233 -2.2085912314486547 0.0
  endloop
endfacet
facet normal 3.49876507973949e-19 -2.367695173506422e-18 -1.0
  outer loop
    vertex 21.13494842771233 -2.2085912314486547 0.0
    vertex 23.0505 0.0 0.0
    vertex 21.2503153285078 -2.3812499999999996 0.0
  endloop
endfacet
facet normal 3.49876507973949e-19 -2.367695173506422e-18 -1.0
  outer loop
    vertex 21.2503153285078 -2.3812499999999996 0.0
    vertex 23.0505 0.0 0.0
    vertex 21.342158757861664 -2.56749005112042 0.0
  endloop
endfacet
facet normal 3.49876507973949e-19 -2.367695173506422e-18 -1.0
  outer loop
    vertex 21.342158757861664 -2.56749005112042 0.0
    vertex 23.0505 0.0 0.0
    vertex 21.40890724923389 -2.7641247658997483 0.0
  endloop
endfacet
facet normal 3.49876507973949e-19 -2.367695173506422e-18 -1.0
  outer loop
    vertex 21.40890724923389 -2.7641247658997483 0.0
    vertex 23.0505 0.0 0.0
    vertex 21.449418717430923 -2.9677896698506685 0.0
  endloop
endfacet
facet normal 3.49876507973949e-19 -2.367695173506422e-18 -1.0
  outer loop
    vertex 21.449418717430923 -2.9677896698506685 0.0
    vertex 23.0505 0.0 0.0
    vertex 21.449418717430923 -9.73221033014933 0.0
  endloop
endfacet
facet normal 3.49876507973949e-19 -2.367695173506422e-18 -1.0
  outer loop
    vertex 21.449418717430923 -9.73221033014933 0.0
    vertex 23.0505 0.0 0.0
    vertex 21.462999999999997 -12.7 0.0
  endloop
endfacet
facet normal 3.49876507973949e-19 -2.367695173506422e-18 -1.0
  outer loop
    vertex 21.462999999999997 -12.7 0.0
    vertex 23.0505 0.0 0.0
    vertex 21.873875234100247 -12.645907249233895 0.0
  endloop
endfacet
facet normal 3.49876507973949e-19 -2.367695173506422e-18 -1.0
  outer loop
    vertex 21.873875234100247 -12.645907249233895 0.0
    vertex 23.0505 0.0 0.0
    vertex 22.070509948879582 -12.579158757861668 0.0
  endloop
endfacet
facet normal 3.49876507973949e-19 -2.367695173506422e-18 -1.0
  outer loop
    vertex 22.070509948879582 -12.579158757861668 0.0
    vertex 23.0505 0.0 0.0
    vertex 22.256749999999997 -12.487315328507796 0.0
  endloop
endfacet
facet normal 3.49876507973949e-19 -2.367695173506422e-18 -1.0
  outer loop
    vertex 22.256749999999997 -12.487315328507796 0.0
    vertex 23.0505 0.0 0.0
    vertex 22.429408768551347 -12.371948427712335 0.0
  endloop
endfacet
facet normal 3.49876507973949e-19 -2.367695173506422e-18 -1.0
  outer loop
    vertex 22.429408768551347 -12.371948427712335 0.0
    vertex 23.0505 0.0 0.0
    vertex 22.58553201513364 -12.235032015133644 0.0
  endloop
endfacet
facet normal 3.49876507973949e-19 -2.367695173506422e-18 -1.0
  outer loop
    vertex 22.58553201513364 -12.235032015133644 0.0
    vertex 23.0505 0.0 0.0
    vertex 22.72244842771233 -12.078908768551344 0.0
  endloop
endfacet
facet normal 3.49876507973949e-19 -2.367695173506422e-18 -1.0
  outer loop
    vertex 22.72244842771233 -12.078908768551344 0.0
    vertex 23.0505 0.0 0.0
    vertex 22.837815328507798 -11.90625 0.0
  endloop
endfacet
facet normal 3.49876507973949e-19 -2.367695173506422e-18 -1.0
  outer loop
    vertex 22.837815328507798 -11.90625 0.0
    vertex 23.0505 0.0 0.0
    vertex 22.929658757861663 -11.720009948879579 0.0
  endloop
endfacet
facet normal 3.49876507973949e-19 -2.367695173506422e-18 -1.0
  outer loop
    vertex 22.929658757861663 -11.720009948879579 0.0
    vertex 23.0505 0.0 0.0
    vertex 22.99640724923389 -11.523375234100252 0.0
  endloop
endfacet
facet normal 3.49876507973949e-19 -2.367695173506422e-18 -1.0
  outer loop
    vertex 22.99640724923389 -11.523375234100252 0.0
    vertex 23.0505 0.0 0.0
    vertex 23.0505 -11.112499999999999 0.0
  endloop
endfacet
facet normal 3.49876507973949e-19 -2.367695173506422e-18 -1.0
  outer loop
    vertex 7.175499999999999 -11.112499999999999 0.0
    vertex 8.762999999999998 -12.7 0.0
    vertex 7.175499999999999 -18.541999999999998 0.0
  endloop
endfacet
facet normal 3.49876507973949e-19 -2.367695173506422e-18 -1.0
  outer loop
    vertex 8.762999999999998 -12.7 0.0
    vertex 7.175499999999999 -11.112499999999999 0.0
    vertex 20.082710330149332 -11.098918717430923 0.0
  endloop
endfacet
facet normal 3.49876507973949e-19 -2.367695173506422e-18 -1.0
  outer loop
    vertex 8.762999999999998 -12.7 0.0
    vertex 20.082710330149332 -11.098918717430923 0.0
    vertex 21.462999999999997 -12.7 0.0
  endloop
endfacet
facet normal 3.49876507973949e-19 -2.367695173506422e-18 -1.0
  outer loop
    vertex 21.462999999999997 -12.7 0.0
    vertex 20.082710330149332 -11.098918717430923 0.0
    vertex 20.286375234100248 -11.058407249233897 0.0
  endloop
endfacet
facet normal 3.49876507973949e-19 -2.367695173506422e-18 -1.0
  outer loop
    vertex 21.462999999999997 -12.7 0.0
    vertex 20.286375234100248 -11.058407249233897 0.0
    vertex 20.48300994887958 -10.991658757861668 0.0
  endloop
endfacet
facet normal 3.49876507973949e-19 -2.367695173506422e-18 -1.0
  outer loop
    vertex 21.462999999999997 -12.7 0.0
    vertex 20.48300994887958 -10.991658757861668 0.0
    vertex 20.669249999999998 -10.899815328507795 0.0
  endloop
endfacet
facet normal 3.49876507973949e-19 -2.367695173506422e-18 -1.0
  outer loop
    vertex 21.462999999999997 -12.7 0.0
    vertex 20.669249999999998 -10.899815328507795 0.0
    vertex 20.841908768551345 -10.784448427712334 0.0
  endloop
endfacet
facet normal 3.49876507973949e-19 -2.367695173506422e-18 -1.0
  outer loop
    vertex 21.462999999999997 -12.7 0.0
    vertex 20.841908768551345 -10.784448427712334 0.0
    vertex 20.99803201513364 -10.647532015133644 0.0
  endloop
endfacet
facet normal 3.49876507973949e-19 -2.367695173506422e-18 -1.0
  outer loop
    vertex 21.462999999999997 -12.7 0.0
    vertex 20.99803201513364 -10.647532015133644 0.0
    vertex 21.13494842771233 -10.491408768551343 0.0
  endloop
endfacet
facet normal 3.49876507973949e-19 -2.367695173506422e-18 -1.0
  outer loop
    vertex 21.462999999999997 -12.7 0.0
    vertex 21.13494842771233 -10.491408768551343 0.0
    vertex 21.2503153285078 -10.31875 0.0
  endloop
endfacet
facet normal 3.49876507973949e-19 -2.367695173506422e-18 -1.0
  outer loop
    vertex 21.462999999999997 -12.7 0.0
    vertex 21.2503153285078 -10.31875 0.0
    vertex 21.342158757861664 -10.13250994887958 0.0
  endloop
endfacet
facet normal 3.49876507973949e-19 -2.367695173506422e-18 -1.0
  outer loop
    vertex 21.462999999999997 -12.7 0.0
    vertex 21.342158757861664 -10.13250994887958 0.0
    vertex 21.40890724923389 -9.935875234100251 0.0
  endloop
endfacet
facet normal 3.49876507973949e-19 -2.367695173506422e-18 -1.0
  outer loop
    vertex 21.462999999999997 -12.7 0.0
    vertex 21.40890724923389 -9.935875234100251 0.0
    vertex 21.449418717430923 -9.73221033014933 0.0
  endloop
endfacet
facet normal 3.49876507973949e-19 -2.367695173506422e-18 -1.0
  outer loop
    vertex 7.175499999999999 -18.541999999999998 0.0
    vertex 8.762999999999998 -16.9545 0.0
    vertex 10.350499999999998 -18.541999999999998 0.0
  endloop
endfacet
facet normal 3.49876507973949e-19 -2.367695173506422e-18 -1.0
  outer loop
    vertex 8.762999999999998 -16.9545 0.0
    vertex 7.175499999999999 -18.541999999999998 0.0
    vertex 8.762999999999998 -12.7 0.0
  endloop
endfacet
facet normal 3.49876507973949e-19 -2.367695173506422e-18 -1.0
  outer loop
    vertex 10.350499999999998 -18.541999999999998 0.0
    vertex 8.762999999999998 -16.9545 0.0
    vertex 10.350499999999998 -16.9545 0.0
  endloop
endfacet
facet normal 3.49876507973949e-19 -2.367695173506422e-18 -1.0
  outer loop
    vertex -13.462 -12.7 0.0
    vertex -12.081710330149331 -11.098918717430923 0.0
    vertex -0.7620000000000007 -12.7 0.0
  endloop
endfacet
facet normal 3.49876507973949e-19 -2.367695173506422e-18 -1.0
  outer loop
    vertex -12.081710330149331 -11.098918717430923 0.0
    vertex -13.462 -12.7 0.0
    vertex -12.285375234100252 -11.058407249233897 0.0
  endloop
endfacet
facet normal 3.49876507973949e-19 -2.367695173506422e-18 -1.0
  outer loop
    vertex -12.285375234100252 -11.058407249233897 0.0
    vertex -13.462 -12.7 0.0
    vertex -12.482009948879579 -10.991658757861668 0.0
  endloop
endfacet
facet normal 3.49876507973949e-19 -2.367695173506422e-18 -1.0
  outer loop
    vertex -12.482009948879579 -10.991658757861668 0.0
    vertex -13.462 -12.7 0.0
    vertex -12.66825 -10.899815328507795 0.0
  endloop
endfacet
facet normal 3.49876507973949e-19 -2.367695173506422e-18 -1.0
  outer loop
    vertex -12.66825 -10.899815328507795 0.0
    vertex -13.462 -12.7 0.0
    vertex -12.840908768551346 -10.784448427712334 0.0
  endloop
endfacet
facet normal 3.49876507973949e-19 -2.367695173506422e-18 -1.0
  outer loop
    vertex -12.840908768551346 -10.784448427712334 0.0
    vertex -13.462 -12.7 0.0
    vertex -12.997032015133644 -10.647532015133644 0.0
  endloop
endfacet
facet normal 3.49876507973949e-19 -2.367695173506422e-18 -1.0
  outer loop
    vertex -12.997032015133644 -10.647532015133644 0.0
    vertex -13.462 -12.7 0.0
    vertex -13.133948427712335 -10.491408768551343 0.0
  endloop
endfacet
facet normal 3.49876507973949e-19 -2.367695173506422e-18 -1.0
  outer loop
    vertex -13.133948427712335 -10.491408768551343 0.0
    vertex -13.462 -12.7 0.0
    vertex -13.249315328507798 -10.31875 0.0
  endloop
endfacet
facet normal 3.49876507973949e-19 -2.367695173506422e-18 -1.0
  outer loop
    vertex -13.249315328507798 -10.31875 0.0
    vertex -13.462 -12.7 0.0
    vertex -13.341158757861667 -10.13250994887958 0.0
  endloop
endfacet
facet normal 3.49876507973949e-19 -2.367695173506422e-18 -1.0
  outer loop
    vertex -13.341158757861667 -10.13250994887958 0.0
    vertex -13.462 -12.7 0.0
    vertex -13.407907249233896 -9.935875234100251 0.0
  endloop
endfacet
facet normal 3.49876507973949e-19 -2.367695173506422e-18 -1.0
  outer loop
    vertex -13.407907249233896 -9.935875234100251 0.0
    vertex -13.462 -12.7 0.0
    vertex -13.448418717430926 -9.73221033014933 0.0
  endloop
endfacet
facet normal 3.49876507973949e-19 -2.367695173506422e-18 -1.0
  outer loop
    vertex -13.448418717430926 -9.73221033014933 0.0
    vertex -13.462 -12.7 0.0
    vertex -13.448418717430926 -2.9677896698506685 0.0
  endloop
endfacet
facet normal 3.49876507973949e-19 -2.367695173506422e-18 -1.0
  outer loop
    vertex -0.7620000000000007 -12.7 0.0
    vertex -12.081710330149331 -11.098918717430923 0.0
    vertex 0.8254999999999992 -11.112499999999999 0.0
  endloop
endfacet
facet normal 3.49876507973949e-19 -2.367695173506422e-18 -1.0
  outer loop
    vertex -0.7620000000000007 -12.7 0.0
    vertex 0.8254999999999992 -11.112499999999999 0.0
    vertex -0.7620000000000007 -16.9545 0.0
  endloop
endfacet
facet normal 3.49876507973949e-19 -2.367695173506422e-18 -1.0
  outer loop
    vertex -0.7620000000000007 -16.9545 0.0
    vertex -2.3495000000000004 -18.541999999999998 0.0
    vertex -2.3495000000000004 -16.9545 0.0
  endloop
endfacet
facet normal 3.49876507973949e-19 -2.367695173506422e-18 -1.0
  outer loop
    vertex -2.3495000000000004 -18.541999999999998 0.0
    vertex -0.7620000000000007 -16.9545 0.0
    vertex 0.8254999999999992 -18.541999999999998 0.0
  endloop
endfacet
facet normal 3.49876507973949e-19 -2.367695173506422e-18 -1.0
  outer loop
    vertex 0.8254999999999992 -18.541999999999998 0.0
    vertex -0.7620000000000007 -16.9545 0.0
    vertex 0.8254999999999992 -11.112499999999999 0.0
  endloop
endfacet
facet normal 0.7518398074789786 -0.6593458151000674 0.0
  outer loop
    vertex -12.997032015133644 -2.052467984866355 0.0
    vertex -13.133948427712335 -2.2085912314486547 5.08
    vertex -13.133948427712335 -2.2085912314486547 0.0
  endloop
endfacet
facet normal 0.7518398074789786 -0.6593458151000674 0.0
  outer loop
    vertex -13.133948427712335 -2.2085912314486547 5.08
    vertex -12.997032015133644 -2.052467984866355 0.0
    vertex -12.997032015133644 -2.052467984866355 5.08
  endloop
endfacet
facet normal 0.6593458151000713 -0.7518398074789753 0.0
  outer loop
    vertex -12.840908768551346 -1.9155515722876644 5.08
    vertex -12.997032015133644 -2.052467984866355 0.0
    vertex -12.840908768551346 -1.9155515722876644 0.0
  endloop
endfacet
facet normal 0.6593458151000713 -0.7518398074789753 0.0
  outer loop
    vertex -12.997032015133644 -2.052467984866355 0.0
    vertex -12.840908768551346 -1.9155515722876644 5.08
    vertex -12.997032015133644 -2.052467984866355 5.08
  endloop
endfacet
facet normal 0.5555702330195995 -0.831469612302547 0.0
  outer loop
    vertex -12.66825 -1.8001846714922025 5.08
    vertex -12.840908768551346 -1.9155515722876644 0.0
    vertex -12.66825 -1.8001846714922025 0.0
  endloop
endfacet
facet normal 0.5555702330195995 -0.831469612302547 0.0
  outer loop
    vertex -12.840908768551346 -1.9155515722876644 0.0
    vertex -12.66825 -1.8001846714922025 5.08
    vertex -12.840908768551346 -1.9155515722876644 5.08
  endloop
endfacet
facet normal 0.4422886902189997 -0.8968727415326893 0.0
  outer loop
    vertex -12.482009948879579 -1.708341242138332 5.08
    vertex -12.66825 -1.8001846714922025 0.0
    vertex -12.482009948879579 -1.708341242138332 0.0
  endloop
endfacet
facet normal 0.4422886902189997 -0.8968727415326893 0.0
  outer loop
    vertex -12.66825 -1.8001846714922025 0.0
    vertex -12.482009948879579 -1.708341242138332 5.08
    vertex -12.66825 -1.8001846714922025 5.08
  endloop
endfacet
facet normal 0.3214394653031614 -0.9469301294951057 0.0
  outer loop
    vertex -12.285375234100252 -1.6415927507661048 5.08
    vertex -12.482009948879579 -1.708341242138332 0.0
    vertex -12.285375234100252 -1.6415927507661048 0.0
  endloop
endfacet
facet normal 0.3214394653031614 -0.9469301294951057 0.0
  outer loop
    vertex -12.482009948879579 -1.708341242138332 0.0
    vertex -12.285375234100252 -1.6415927507661048 5.08
    vertex -12.482009948879579 -1.708341242138332 5.08
  endloop
endfacet
facet normal 0.19509032201612886 -0.9807852804032303 0.0
  outer loop
    vertex -12.081710330149331 -1.601081282569075 5.08
    vertex -12.285375234100252 -1.6415927507661048 0.0
    vertex -12.081710330149331 -1.601081282569075 0.0
  endloop
endfacet
facet normal 0.19509032201612886 -0.9807852804032303 0.0
  outer loop
    vertex -12.285375234100252 -1.6415927507661048 0.0
    vertex -12.081710330149331 -1.601081282569075 5.08
    vertex -12.285375234100252 -1.6415927507661048 5.08
  endloop
endfacet
facet normal -0.0 -1.0 -0.0
  outer loop
    vertex 20.082710330149332 -1.601081282569075 5.08
    vertex -12.081710330149331 -1.601081282569075 0.0
    vertex 20.082710330149332 -1.601081282569075 0.0
  endloop
endfacet
facet normal -0.0 -1.0 -0.0
  outer loop
    vertex -12.081710330149331 -1.601081282569075 0.0
    vertex 20.082710330149332 -1.601081282569075 5.08
    vertex -12.081710330149331 -1.601081282569075 5.08
  endloop
endfacet
facet normal -0.19509032201613016 -0.9807852804032301 -0.0
  outer loop
    vertex 20.286375234100248 -1.6415927507661048 5.08
    vertex 20.082710330149332 -1.601081282569075 0.0
    vertex 20.286375234100248 -1.6415927507661048 0.0
  endloop
endfacet
facet normal -0.19509032201613016 -0.9807852804032301 -0.0
  outer loop
    vertex 20.082710330149332 -1.601081282569075 0.0
    vertex 20.286375234100248 -1.6415927507661048 5.08
    vertex 20.082710330149332 -1.601081282569075 5.08
  endloop
endfacet
facet normal -0.32143946530315937 -0.9469301294951065 -0.0
  outer loop
    vertex 20.48300994887958 -1.708341242138332 5.08
    vertex 20.286375234100248 -1.6415927507661048 0.0
    vertex 20.48300994887958 -1.708341242138332 0.0
  endloop
endfacet
facet normal -0.32143946530315937 -0.9469301294951065 -0.0
  outer loop
    vertex 20.286375234100248 -1.6415927507661048 0.0
    vertex 20.48300994887958 -1.708341242138332 5.08
    vertex 20.286375234100248 -1.6415927507661048 5.08
  endloop
endfacet
facet normal -0.4422886902189997 -0.8968727415326893 -0.0
  outer loop
    vertex 20.669249999999998 -1.8001846714922025 5.08
    vertex 20.48300994887958 -1.708341242138332 0.0
    vertex 20.669249999999998 -1.8001846714922025 0.0
  endloop
endfacet
facet normal -0.4422886902189997 -0.8968727415326893 -0.0
  outer loop
    vertex 20.48300994887958 -1.708341242138332 0.0
    vertex 20.669249999999998 -1.8001846714922025 5.08
    vertex 20.48300994887958 -1.708341242138332 5.08
  endloop
endfacet
facet normal -0.5555702330195995 -0.831469612302547 -0.0
  outer loop
    vertex 20.841908768551345 -1.9155515722876644 5.08
    vertex 20.669249999999998 -1.8001846714922025 0.0
    vertex 20.841908768551345 -1.9155515722876644 0.0
  endloop
endfacet
facet normal -0.5555702330195995 -0.831469612302547 -0.0
  outer loop
    vertex 20.669249999999998 -1.8001846714922025 0.0
    vertex 20.841908768551345 -1.9155515722876644 5.08
    vertex 20.669249999999998 -1.8001846714922025 5.08
  endloop
endfacet
facet normal -0.6593458151000713 -0.7518398074789753 -0.0
  outer loop
    vertex 20.99803201513364 -2.052467984866355 5.08
    vertex 20.841908768551345 -1.9155515722876644 0.0
    vertex 20.99803201513364 -2.052467984866355 0.0
  endloop
endfacet
facet normal -0.6593458151000713 -0.7518398074789753 -0.0
  outer loop
    vertex 20.841908768551345 -1.9155515722876644 0.0
    vertex 20.99803201513364 -2.052467984866355 5.08
    vertex 20.841908768551345 -1.9155515722876644 5.08
  endloop
endfacet
facet normal -0.7518398074789786 -0.6593458151000674 -0.0
  outer loop
    vertex 20.99803201513364 -2.052467984866355 5.08
    vertex 21.13494842771233 -2.2085912314486547 0.0
    vertex 21.13494842771233 -2.2085912314486547 5.08
  endloop
endfacet
facet normal -0.7518398074789786 -0.6593458151000674 -0.0
  outer loop
    vertex 21.13494842771233 -2.2085912314486547 0.0
    vertex 20.99803201513364 -2.052467984866355 5.08
    vertex 20.99803201513364 -2.052467984866355 0.0
  endloop
endfacet
facet normal -0.8314696123025429 -0.5555702330196058 -0.0
  outer loop
    vertex 21.13494842771233 -2.2085912314486547 5.08
    vertex 21.2503153285078 -2.3812499999999996 0.0
    vertex 21.2503153285078 -2.3812499999999996 5.08
  endloop
endfacet
facet normal -0.8314696123025429 -0.5555702330196058 -0.0
  outer loop
    vertex 21.2503153285078 -2.3812499999999996 0.0
    vertex 21.13494842771233 -2.2085912314486547 5.08
    vertex 21.13494842771233 -2.2085912314486547 0.0
  endloop
endfacet
facet normal -0.8968727415326923 -0.44228869021899353 -0.0
  outer loop
    vertex 21.2503153285078 -2.3812499999999996 5.08
    vertex 21.342158757861664 -2.56749005112042 0.0
    vertex 21.342158757861664 -2.56749005112042 5.08
  endloop
endfacet
facet normal -0.8968727415326923 -0.44228869021899353 -0.0
  outer loop
    vertex 21.342158757861664 -2.56749005112042 0.0
    vertex 21.2503153285078 -2.3812499999999996 5.08
    vertex 21.2503153285078 -2.3812499999999996 0.0
  endloop
endfacet
facet normal -0.9469301294951055 -0.3214394653031624 -0.0
  outer loop
    vertex 21.342158757861664 -2.56749005112042 5.08
    vertex 21.40890724923389 -2.7641247658997483 0.0
    vertex 21.40890724923389 -2.7641247658997483 5.08
  endloop
endfacet
facet normal -0.9469301294951055 -0.3214394653031624 -0.0
  outer loop
    vertex 21.40890724923389 -2.7641247658997483 0.0
    vertex 21.342158757861664 -2.56749005112042 5.08
    vertex 21.342158757861664 -2.56749005112042 0.0
  endloop
endfacet
facet normal -0.980785280403229 -0.19509032201613608 -0.0
  outer loop
    vertex 21.40890724923389 -2.7641247658997483 5.08
    vertex 21.449418717430923 -2.9677896698506685 0.0
    vertex 21.449418717430923 -2.9677896698506685 5.08
  endloop
endfacet
facet normal -0.980785280403229 -0.19509032201613608 -0.0
  outer loop
    vertex 21.449418717430923 -2.9677896698506685 0.0
    vertex 21.40890724923389 -2.7641247658997483 5.08
    vertex 21.40890724923389 -2.7641247658997483 0.0
  endloop
endfacet
facet normal -1.0 0.0 0.0
  outer loop
    vertex 21.449418717430923 -2.8199664825478975e-15 13.017499999999998
    vertex 21.449418717430923 -12.699999999999994 11.43
    vertex 21.449418717430923 -12.699999999999994 13.017499999999998
  endloop
endfacet
facet normal -1.0 0.0 0.0
  outer loop
    vertex 21.449418717430923 -12.699999999999994 11.43
    vertex 21.449418717430923 -2.8199664825478975e-15 13.017499999999998
    vertex 21.449418717430923 -9.73221033014933 11.43
  endloop
endfacet
facet normal -1.0 0.0 0.0
  outer loop
    vertex 21.449418717430923 -9.73221033014933 11.43
    vertex 21.449418717430923 -2.8199664825478975e-15 13.017499999999998
    vertex 21.449418717430923 -2.9677896698506685 11.43
  endloop
endfacet
facet normal -1.0 0.0 0.0
  outer loop
    vertex 21.449418717430923 -9.73221033014933 11.43
    vertex 21.449418717430923 -2.9677896698506685 11.43
    vertex 21.449418717430923 -9.73221033014933 5.08
  endloop
endfacet
facet normal -1.0 0.0 0.0
  outer loop
    vertex 21.449418717430923 -9.73221033014933 5.08
    vertex 21.449418717430923 -2.9677896698506685 11.43
    vertex 21.449418717430923 -9.73221033014933 0.0
  endloop
endfacet
facet normal -1.0 0.0 0.0
  outer loop
    vertex 21.449418717430923 -2.9677896698506685 11.43
    vertex 21.449418717430923 -2.8199664825478975e-15 13.017499999999998
    vertex 21.449418717430923 -2.8199664825478975e-15 11.43
  endloop
endfacet
facet normal -1.0 0.0 0.0
  outer loop
    vertex 21.449418717430923 -2.9677896698506685 11.43
    vertex 21.449418717430923 -2.9677896698506685 0.0
    vertex 21.449418717430923 -9.73221033014933 0.0
  endloop
endfacet
facet normal -1.0 0.0 0.0
  outer loop
    vertex 21.449418717430923 -2.9677896698506685 0.0
    vertex 21.449418717430923 -2.9677896698506685 11.43
    vertex 21.449418717430923 -2.9677896698506685 5.08
  endloop
endfacet
facet normal -0.9807852804032291 0.1950903220161354 0.0
  outer loop
    vertex 21.449418717430923 -9.73221033014933 5.08
    vertex 21.40890724923389 -9.935875234100251 0.0
    vertex 21.40890724923389 -9.935875234100251 5.08
  endloop
endfacet
facet normal -0.9807852804032291 0.1950903220161354 0.0
  outer loop
    vertex 21.40890724923389 -9.935875234100251 0.0
    vertex 21.449418717430923 -9.73221033014933 5.08
    vertex 21.449418717430923 -9.73221033014933 0.0
  endloop
endfacet
facet normal -0.9469301294951054 0.32143946530316303 0.0
  outer loop
    vertex 21.40890724923389 -9.935875234100251 5.08
    vertex 21.342158757861664 -10.13250994887958 0.0
    vertex 21.342158757861664 -10.13250994887958 5.08
  endloop
endfacet
facet normal -0.9469301294951054 0.32143946530316303 0.0
  outer loop
    vertex 21.342158757861664 -10.13250994887958 0.0
    vertex 21.40890724923389 -9.935875234100251 5.08
    vertex 21.40890724923389 -9.935875234100251 0.0
  endloop
endfacet
facet normal -0.8968727415326926 0.44228869021899286 0.0
  outer loop
    vertex 21.342158757861664 -10.13250994887958 5.08
    vertex 21.2503153285078 -10.31875 0.0
    vertex 21.2503153285078 -10.31875 5.08
  endloop
endfacet
facet normal -0.8968727415326926 0.44228869021899286 0.0
  outer loop
    vertex 21.2503153285078 -10.31875 0.0
    vertex 21.342158757861664 -10.13250994887958 5.08
    vertex 21.342158757861664 -10.13250994887958 0.0
  endloop
endfacet
facet normal -0.8314696123025418 0.5555702330196074 0.0
  outer loop
    vertex 21.2503153285078 -10.31875 5.08
    vertex 21.13494842771233 -10.491408768551343 0.0
    vertex 21.13494842771233 -10.491408768551343 5.08
  endloop
endfacet
facet normal -0.8314696123025418 0.5555702330196074 0.0
  outer loop
    vertex 21.13494842771233 -10.491408768551343 0.0
    vertex 21.2503153285078 -10.31875 5.08
    vertex 21.2503153285078 -10.31875 0.0
  endloop
endfacet
facet normal -0.7518398074789816 0.659345815100064 0.0
  outer loop
    vertex 21.13494842771233 -10.491408768551343 5.08
    vertex 20.99803201513364 -10.647532015133644 0.0
    vertex 20.99803201513364 -10.647532015133644 5.08
  endloop
endfacet
facet normal -0.7518398074789816 0.659345815100064 0.0
  outer loop
    vertex 20.99803201513364 -10.647532015133644 0.0
    vertex 21.13494842771233 -10.491408768551343 5.08
    vertex 21.13494842771233 -10.491408768551343 0.0
  endloop
endfacet
facet normal -0.6593458151000674 0.7518398074789786 0.0
  outer loop
    vertex 20.841908768551345 -10.784448427712334 5.08
    vertex 20.99803201513364 -10.647532015133644 0.0
    vertex 20.841908768551345 -10.784448427712334 0.0
  endloop
endfacet
facet normal -0.6593458151000674 0.7518398074789786 0.0
  outer loop
    vertex 20.99803201513364 -10.647532015133644 0.0
    vertex 20.841908768551345 -10.784448427712334 5.08
    vertex 20.99803201513364 -10.647532015133644 5.08
  endloop
endfacet
facet normal -0.5555702330195995 0.831469612302547 0.0
  outer loop
    vertex 20.669249999999998 -10.899815328507795 5.08
    vertex 20.841908768551345 -10.784448427712334 0.0
    vertex 20.669249999999998 -10.899815328507795 0.0
  endloop
endfacet
facet normal -0.5555702330195995 0.831469612302547 0.0
  outer loop
    vertex 20.841908768551345 -10.784448427712334 0.0
    vertex 20.669249999999998 -10.899815328507795 5.08
    vertex 20.841908768551345 -10.784448427712334 5.08
  endloop
endfacet
facet normal -0.44228869021900374 0.896872741532687 0.0
  outer loop
    vertex 20.48300994887958 -10.991658757861668 5.08
    vertex 20.669249999999998 -10.899815328507795 0.0
    vertex 20.48300994887958 -10.991658757861668 0.0
  endloop
endfacet
facet normal -0.44228869021900374 0.896872741532687 0.0
  outer loop
    vertex 20.669249999999998 -10.899815328507795 0.0
    vertex 20.48300994887958 -10.991658757861668 5.08
    vertex 20.669249999999998 -10.899815328507795 5.08
  endloop
endfacet
facet normal -0.32143946530316087 0.9469301294951059 0.0
  outer loop
    vertex 20.286375234100248 -11.058407249233897 5.08
    vertex 20.48300994887958 -10.991658757861668 0.0
    vertex 20.286375234100248 -11.058407249233897 0.0
  endloop
endfacet
facet normal -0.32143946530316087 0.9469301294951059 0.0
  outer loop
    vertex 20.48300994887958 -10.991658757861668 0.0
    vertex 20.286375234100248 -11.058407249233897 5.08
    vertex 20.48300994887958 -10.991658757861668 5.08
  endloop
endfacet
facet normal -0.19509032201612367 0.9807852804032315 0.0
  outer loop
    vertex 20.082710330149332 -11.098918717430923 5.08
    vertex 20.286375234100248 -11.058407249233897 0.0
    vertex 20.082710330149332 -11.098918717430923 0.0
  endloop
endfacet
facet normal -0.19509032201612367 0.9807852804032315 0.0
  outer loop
    vertex 20.286375234100248 -11.058407249233897 0.0
    vertex 20.082710330149332 -11.098918717430923 5.08
    vertex 20.286375234100248 -11.058407249233897 5.08
  endloop
endfacet
facet normal -0.00105222388907087 0.9999994464122905 0.0
  outer loop
    vertex 7.175499999999999 -11.112499999999999 5.08
    vertex 20.082710330149332 -11.098918717430923 0.0
    vertex 7.175499999999999 -11.112499999999999 0.0
  endloop
endfacet
facet normal -0.00105222388907087 0.9999994464122905 0.0
  outer loop
    vertex 20.082710330149332 -11.098918717430923 0.0
    vertex 7.175499999999999 -11.112499999999999 5.08
    vertex 20.082710330149332 -11.098918717430923 5.08
  endloop
endfacet
facet normal -1.0 0.0 0.0
  outer loop
    vertex 7.175499999999999 -11.112499999999999 5.08
    vertex 7.175499999999999 -18.541999999999998 0.0
    vertex 7.175499999999999 -18.541999999999998 5.08
  endloop
endfacet
facet normal -1.0 0.0 0.0
  outer loop
    vertex 7.175499999999999 -18.541999999999998 0.0
    vertex 7.175499999999999 -11.112499999999999 5.08
    vertex 7.175499999999999 -11.112499999999999 0.0
  endloop
endfacet
facet normal 0.1305261922200507 -0.9914448613738106 0.0
  outer loop
    vertex 21.873875234100247 -12.645907249233895 5.08
    vertex 21.462999999999997 -12.7 0.0
    vertex 21.873875234100247 -12.645907249233895 0.0
  endloop
endfacet
facet normal 0.1305261922200507 -0.9914448613738106 0.0
  outer loop
    vertex 21.462999999999997 -12.7 0.0
    vertex 21.873875234100247 -12.645907249233895 5.08
    vertex 21.462999999999997 -12.7 5.08
  endloop
endfacet
facet normal 0.32143946530316087 -0.9469301294951059 0.0
  outer loop
    vertex 22.070509948879582 -12.579158757861668 5.08
    vertex 21.873875234100247 -12.645907249233895 0.0
    vertex 22.070509948879582 -12.579158757861668 0.0
  endloop
endfacet
facet normal 0.32143946530316087 -0.9469301294951059 0.0
  outer loop
    vertex 21.873875234100247 -12.645907249233895 0.0
    vertex 22.070509948879582 -12.579158757861668 5.08
    vertex 21.873875234100247 -12.645907249233895 5.08
  endloop
endfacet
facet normal 0.44228869021900374 -0.896872741532687 0.0
  outer loop
    vertex 22.256749999999997 -12.487315328507796 5.08
    vertex 22.070509948879582 -12.579158757861668 0.0
    vertex 22.256749999999997 -12.487315328507796 0.0
  endloop
endfacet
facet normal 0.44228869021900374 -0.896872741532687 0.0
  outer loop
    vertex 22.070509948879582 -12.579158757861668 0.0
    vertex 22.256749999999997 -12.487315328507796 5.08
    vertex 22.070509948879582 -12.579158757861668 5.08
  endloop
endfacet
facet normal 0.5555702330195995 -0.831469612302547 0.0
  outer loop
    vertex 22.429408768551347 -12.371948427712335 5.08
    vertex 22.256749999999997 -12.487315328507796 0.0
    vertex 22.429408768551347 -12.371948427712335 0.0
  endloop
endfacet
facet normal 0.5555702330195995 -0.831469612302547 0.0
  outer loop
    vertex 22.256749999999997 -12.487315328507796 0.0
    vertex 22.429408768551347 -12.371948427712335 5.08
    vertex 22.256749999999997 -12.487315328507796 5.08
  endloop
endfacet
facet normal 0.6593458151000674 -0.7518398074789786 0.0
  outer loop
    vertex 22.58553201513364 -12.235032015133644 5.08
    vertex 22.429408768551347 -12.371948427712335 0.0
    vertex 22.58553201513364 -12.235032015133644 0.0
  endloop
endfacet
facet normal 0.6593458151000674 -0.7518398074789786 0.0
  outer loop
    vertex 22.429408768551347 -12.371948427712335 0.0
    vertex 22.58553201513364 -12.235032015133644 5.08
    vertex 22.429408768551347 -12.371948427712335 5.08
  endloop
endfacet
facet normal 0.7518398074789816 -0.659345815100064 0.0
  outer loop
    vertex 22.72244842771233 -12.078908768551344 0.0
    vertex 22.58553201513364 -12.235032015133644 5.08
    vertex 22.58553201513364 -12.235032015133644 0.0
  endloop
endfacet
facet normal 0.7518398074789816 -0.659345815100064 0.0
  outer loop
    vertex 22.58553201513364 -12.235032015133644 5.08
    vertex 22.72244842771233 -12.078908768551344 0.0
    vertex 22.72244842771233 -12.078908768551344 5.08
  endloop
endfacet
facet normal 0.8314696123025418 -0.5555702330196074 0.0
  outer loop
    vertex 22.837815328507798 -11.90625 0.0
    vertex 22.72244842771233 -12.078908768551344 5.08
    vertex 22.72244842771233 -12.078908768551344 0.0
  endloop
endfacet
facet normal 0.8314696123025418 -0.5555702330196074 0.0
  outer loop
    vertex 22.72244842771233 -12.078908768551344 5.08
    vertex 22.837815328507798 -11.90625 0.0
    vertex 22.837815328507798 -11.90625 5.08
  endloop
endfacet
facet normal 0.8968727415326926 -0.44228869021899286 0.0
  outer loop
    vertex 22.929658757861663 -11.720009948879579 0.0
    vertex 22.837815328507798 -11.90625 5.08
    vertex 22.837815328507798 -11.90625 0.0
  endloop
endfacet
facet normal 0.8968727415326926 -0.44228869021899286 0.0
  outer loop
    vertex 22.837815328507798 -11.90625 5.08
    vertex 22.929658757861663 -11.720009948879579 0.0
    vertex 22.929658757861663 -11.720009948879579 5.08
  endloop
endfacet
facet normal 0.9469301294951054 -0.32143946530316303 0.0
  outer loop
    vertex 22.99640724923389 -11.523375234100252 0.0
    vertex 22.929658757861663 -11.720009948879579 5.08
    vertex 22.929658757861663 -11.720009948879579 0.0
  endloop
endfacet
facet normal 0.9469301294951054 -0.32143946530316303 0.0
  outer loop
    vertex 22.929658757861663 -11.720009948879579 5.08
    vertex 22.99640724923389 -11.523375234100252 0.0
    vertex 22.99640724923389 -11.523375234100252 5.08
  endloop
endfacet
facet normal 0.9914448613738103 -0.1305261922200536 0.0
  outer loop
    vertex 23.0505 -11.112499999999999 0.0
    vertex 22.99640724923389 -11.523375234100252 5.08
    vertex 22.99640724923389 -11.523375234100252 0.0
  endloop
endfacet
facet normal 0.9914448613738103 -0.1305261922200536 0.0
  outer loop
    vertex 22.99640724923389 -11.523375234100252 5.08
    vertex 23.0505 -11.112499999999999 0.0
    vertex 23.0505 -11.112499999999999 5.08
  endloop
endfacet
facet normal 1.0 0.0 0.0
  outer loop
    vertex 23.0505 0.0 0.0
    vertex 23.0505 -11.112499999999999 5.08
    vertex 23.0505 -11.112499999999999 0.0
  endloop
endfacet
facet normal 1.0 0.0 0.0
  outer loop
    vertex 23.0505 -11.112499999999999 5.08
    vertex 23.0505 0.0 0.0
    vertex 23.0505 -9.73221033014933 5.08
  endloop
endfacet
facet normal 1.0 0.0 0.0
  outer loop
    vertex 23.0505 -9.73221033014933 5.08
    vertex 23.0505 0.0 0.0
    vertex 23.0505 -9.73221033014933 11.43
  endloop
endfacet
facet normal 1.0 0.0 0.0
  outer loop
    vertex 23.0505 -9.73221033014933 11.43
    vertex 23.0505 0.0 0.0
    vertex 23.0505 -2.9677896698506685 5.08
  endloop
endfacet
facet normal 1.0 0.0 0.0
  outer loop
    vertex 23.0505 -2.9677896698506685 5.08
    vertex 23.0505 0.0 0.0
    vertex 23.0505 0.0 5.08
  endloop
endfacet
facet normal 1.0 0.0 0.0
  outer loop
    vertex 23.0505 -9.73221033014933 11.43
    vertex 23.0505 -12.699999999999994 13.017499999999998
    vertex 23.0505 -12.699999999999994 11.43
  endloop
endfacet
facet normal 1.0 0.0 0.0
  outer loop
    vertex 23.0505 -12.699999999999994 13.017499999999998
    vertex 23.0505 -9.73221033014933 11.43
    vertex 23.0505 -2.8199664825478975e-15 13.017499999999998
  endloop
endfacet
facet normal 1.0 0.0 0.0
  outer loop
    vertex 23.0505 -2.8199664825478975e-15 13.017499999999998
    vertex 23.0505 -9.73221033014933 11.43
    vertex 23.0505 -2.9677896698506685 11.43
  endloop
endfacet
facet normal 1.0 0.0 0.0
  outer loop
    vertex 23.0505 -2.9677896698506685 11.43
    vertex 23.0505 -9.73221033014933 11.43
    vertex 23.0505 -2.9677896698506685 5.08
  endloop
endfacet
facet normal 1.0 0.0 0.0
  outer loop
    vertex 23.0505 -2.8199664825478975e-15 13.017499999999998
    vertex 23.0505 -2.9677896698506685 11.43
    vertex 23.0505 -2.8199664825478975e-15 11.43
  endloop
endfacet
facet normal 0.0 1.0 0.0
  outer loop
    vertex 7.175499999999999 0.0 5.08
    vertex 23.0505 0.0 0.0
    vertex 7.175499999999999 0.0 0.0
  endloop
endfacet
facet normal 0.0 1.0 0.0
  outer loop
    vertex 23.0505 0.0 0.0
    vertex 7.175499999999999 0.0 5.08
    vertex 23.0505 0.0 5.08
  endloop
endfacet
facet normal 1.0 0.0 0.0
  outer loop
    vertex 7.175499999999999 4.064000000000001 0.0
    vertex 7.175499999999999 0.0 5.08
    vertex 7.175499999999999 0.0 0.0
  endloop
endfacet
facet normal 1.0 0.0 0.0
  outer loop
    vertex 7.175499999999999 0.0 5.08
    vertex 7.175499999999999 4.064000000000001 0.0
    vertex 7.175499999999999 4.064000000000001 5.08
  endloop
endfacet
facet normal 0.0 -1.0 0.0
  outer loop
    vertex 13.652499999999996 4.064000000000001 5.08
    vertex 7.175499999999999 4.064000000000001 0.0
    vertex 13.652499999999996 4.064000000000001 0.0
  endloop
endfacet
facet normal 0.0 -1.0 0.0
  outer loop
    vertex 7.175499999999999 4.064000000000001 0.0
    vertex 13.652499999999996 4.064000000000001 5.08
    vertex 7.175499999999999 4.064000000000001 5.08
  endloop
endfacet
facet normal 0.6807348567911585 0.7325299002426597 0.0
  outer loop
    vertex 8.000999999999998 11.684 5.08
    vertex 13.652499999999996 6.43210101010101 0.0
    vertex 8.000999999999998 11.684 0.0
  endloop
endfacet
facet normal 0.6807348567911585 0.7325299002426597 0.0
  outer loop
    vertex 13.652499999999996 6.43210101010101 0.0
    vertex 8.000999999999998 11.684 5.08
    vertex 13.652499999999996 6.43210101010101 5.08
  endloop
endfacet
facet normal 0.0 1.0 0.0
  outer loop
    vertex 0.0 11.684 5.08
    vertex 8.000999999999998 11.684 0.0
    vertex 0.0 11.684 0.0
  endloop
endfacet
facet normal 0.0 1.0 0.0
  outer loop
    vertex 8.000999999999998 11.684 0.0
    vertex 0.0 11.684 5.08
    vertex 8.000999999999998 11.684 5.08
  endloop
endfacet
facet normal -0.6807348567911584 0.7325299002426597 -2.246251945363951e-18
  outer loop
    vertex -5.651499999999999 6.43210101010101 5.08
    vertex 0.0 11.684 0.0
    vertex -5.651499999999999 6.43210101010101 -3.524958103184872e-16
  endloop
endfacet
facet normal -0.6807348567911584 0.7325299002426597 -2.246251945363951e-18
  outer loop
    vertex 0.0 11.684 0.0
    vertex -5.651499999999999 6.43210101010101 5.08
    vertex 0.0 11.684 5.08
  endloop
endfacet
facet normal 0.0 -1.0 0.0
  outer loop
    vertex 0.8254999999999992 4.064000000000001 0.0
    vertex -5.6515 4.064000000000001 5.08
    vertex -5.6515 4.064000000000001 -3.524958103184872e-16
  endloop
endfacet
facet normal 0.0 -1.0 0.0
  outer loop
    vertex -5.6515 4.064000000000001 5.08
    vertex 0.8254999999999992 4.064000000000001 0.0
    vertex 0.8254999999999992 4.064000000000001 5.08
  endloop
endfacet
facet normal -1.0 0.0 0.0
  outer loop
    vertex 0.8254999999999992 4.064000000000001 5.08
    vertex 0.8254999999999992 0.0 0.0
    vertex 0.8254999999999992 0.0 5.08
  endloop
endfacet
facet normal -1.0 0.0 0.0
  outer loop
    vertex 0.8254999999999992 0.0 0.0
    vertex 0.8254999999999992 4.064000000000001 5.08
    vertex 0.8254999999999992 4.064000000000001 0.0
  endloop
endfacet
facet normal 0.0 1.0 0.0
  outer loop
    vertex -15.0495 0.0 5.08
    vertex 0.8254999999999992 0.0 0.0
    vertex -15.0495 0.0 0.0
  endloop
endfacet
facet normal 0.0 1.0 0.0
  outer loop
    vertex 0.8254999999999992 0.0 0.0
    vertex -15.0495 0.0 5.08
    vertex 0.8254999999999992 0.0 5.08
  endloop
endfacet
facet normal 0.0 0.0 1.0
  outer loop
    vertex 0.8254999999999992 -18.541999999999998 5.08
    vertex -2.3495000000000004 -16.9545 5.08
    vertex -2.3495000000000004 -18.541999999999998 5.08
  endloop
endfacet
facet normal 0.0 0.0 1.0
  outer loop
    vertex -2.3495000000000004 -16.9545 5.08
    vertex 0.8254999999999992 -18.541999999999998 5.08
    vertex -0.7620000000000007 -16.9545 5.08
  endloop
endfacet
facet normal 0.0 0.0 1.0
  outer loop
    vertex -0.7620000000000007 -16.9545 5.08
    vertex 0.8254999999999992 -18.541999999999998 5.08
    vertex -0.7620000000000007 -12.7 5.08
  endloop
endfacet
facet normal 0.0 0.0 1.0
  outer loop
    vertex -14.995407249233894 -11.523375234100252 5.08
    vertex -15.0495 -9.73221033014933 5.08
    vertex -15.0495 -11.112499999999999 5.08
  endloop
endfacet
facet normal 0.0 0.0 1.0
  outer loop
    vertex -15.0495 -9.73221033014933 5.08
    vertex -14.995407249233894 -11.523375234100252 5.08
    vertex -13.448418717430926 -9.73221033014933 5.08
  endloop
endfacet
facet normal 0.0 0.0 1.0
  outer loop
    vertex -13.448418717430926 -9.73221033014933 5.08
    vertex -14.995407249233894 -11.523375234100252 5.08
    vertex -14.928658757861667 -11.720009948879579 5.08
  endloop
endfacet
facet normal 0.0 0.0 1.0
  outer loop
    vertex -13.448418717430926 -9.73221033014933 5.08
    vertex -14.928658757861667 -11.720009948879579 5.08
    vertex -14.836815328507797 -11.90625 5.08
  endloop
endfacet
facet normal 0.0 0.0 1.0
  outer loop
    vertex -13.448418717430926 -9.73221033014933 5.08
    vertex -14.836815328507797 -11.90625 5.08
    vertex -14.721448427712335 -12.078908768551344 5.08
  endloop
endfacet
facet normal 0.0 0.0 1.0
  outer loop
    vertex -13.448418717430926 -9.73221033014933 5.08
    vertex -14.721448427712335 -12.078908768551344 5.08
    vertex -14.584532015133645 -12.235032015133644 5.08
  endloop
endfacet
facet normal 0.0 0.0 1.0
  outer loop
    vertex -13.448418717430926 -9.73221033014933 5.08
    vertex -14.584532015133645 -12.235032015133644 5.08
    vertex -14.428408768551344 -12.371948427712335 5.08
  endloop
endfacet
facet normal 0.0 0.0 1.0
  outer loop
    vertex -13.448418717430926 -9.73221033014933 5.08
    vertex -14.428408768551344 -12.371948427712335 5.08
    vertex -14.255749999999999 -12.487315328507796 5.08
  endloop
endfacet
facet normal 0.0 0.0 1.0
  outer loop
    vertex -13.448418717430926 -9.73221033014933 5.08
    vertex -14.255749999999999 -12.487315328507796 5.08
    vertex -14.06950994887958 -12.579158757861668 5.08
  endloop
endfacet
facet normal 0.0 0.0 1.0
  outer loop
    vertex -13.448418717430926 -9.73221033014933 5.08
    vertex -14.06950994887958 -12.579158757861668 5.08
    vertex -13.87287523410025 -12.645907249233895 5.08
  endloop
endfacet
facet normal 0.0 0.0 1.0
  outer loop
    vertex -13.448418717430926 -9.73221033014933 5.08
    vertex -13.87287523410025 -12.645907249233895 5.08
    vertex -13.462 -12.7 5.08
  endloop
endfacet
facet normal 0.0 0.0 1.0
  outer loop
    vertex -13.448418717430926 -9.73221033014933 5.08
    vertex -13.462 -12.7 5.08
    vertex -13.407907249233896 -9.935875234100251 5.08
  endloop
endfacet
facet normal 0.0 0.0 1.0
  outer loop
    vertex -13.407907249233896 -9.935875234100251 5.08
    vertex -13.462 -12.7 5.08
    vertex -13.341158757861667 -10.13250994887958 5.08
  endloop
endfacet
facet normal 0.0 0.0 1.0
  outer loop
    vertex -13.341158757861667 -10.13250994887958 5.08
    vertex -13.462 -12.7 5.08
    vertex -13.249315328507798 -10.31875 5.08
  endloop
endfacet
facet normal 0.0 0.0 1.0
  outer loop
    vertex -13.249315328507798 -10.31875 5.08
    vertex -13.462 -12.7 5.08
    vertex -13.133948427712335 -10.491408768551343 5.08
  endloop
endfacet
facet normal 0.0 0.0 1.0
  outer loop
    vertex -13.133948427712335 -10.491408768551343 5.08
    vertex -13.462 -12.7 5.08
    vertex -12.997032015133644 -10.647532015133644 5.08
  endloop
endfacet
facet normal 0.0 0.0 1.0
  outer loop
    vertex -12.997032015133644 -10.647532015133644 5.08
    vertex -13.462 -12.7 5.08
    vertex -12.840908768551346 -10.784448427712334 5.08
  endloop
endfacet
facet normal 0.0 0.0 1.0
  outer loop
    vertex -12.840908768551346 -10.784448427712334 5.08
    vertex -13.462 -12.7 5.08
    vertex -12.66825 -10.899815328507795 5.08
  endloop
endfacet
facet normal 0.0 0.0 1.0
  outer loop
    vertex -12.66825 -10.899815328507795 5.08
    vertex -13.462 -12.7 5.08
    vertex -12.482009948879579 -10.991658757861668 5.08
  endloop
endfacet
facet normal 0.0 0.0 1.0
  outer loop
    vertex -12.482009948879579 -10.991658757861668 5.08
    vertex -13.462 -12.7 5.08
    vertex -12.285375234100252 -11.058407249233897 5.08
  endloop
endfacet
facet normal 0.0 0.0 1.0
  outer loop
    vertex -12.285375234100252 -11.058407249233897 5.08
    vertex -13.462 -12.7 5.08
    vertex -12.081710330149331 -11.098918717430923 5.08
  endloop
endfacet
facet normal 0.0 0.0 1.0
  outer loop
    vertex -12.081710330149331 -11.098918717430923 5.08
    vertex -13.462 -12.7 5.08
    vertex -0.7620000000000007 -12.7 5.08
  endloop
endfacet
facet normal 0.0 0.0 1.0
  outer loop
    vertex -12.081710330149331 -11.098918717430923 5.08
    vertex -0.7620000000000007 -12.7 5.08
    vertex 0.8254999999999992 -11.112499999999999 5.08
  endloop
endfacet
facet normal 0.0 0.0 1.0
  outer loop
    vertex 0.8254999999999992 -11.112499999999999 5.08
    vertex -0.7620000000000007 -12.7 5.08
    vertex 0.8254999999999992 -18.541999999999998 5.08
  endloop
endfacet
facet normal 0.8314696123025429 -0.5555702330196058 0.0
  outer loop
    vertex -13.133948427712335 -2.2085912314486547 0.0
    vertex -13.249315328507798 -2.3812499999999996 5.08
    vertex -13.249315328507798 -2.3812499999999996 0.0
  endloop
endfacet
facet normal 0.8314696123025429 -0.5555702330196058 0.0
  outer loop
    vertex -13.249315328507798 -2.3812499999999996 5.08
    vertex -13.133948427712335 -2.2085912314486547 0.0
    vertex -13.133948427712335 -2.2085912314486547 5.08
  endloop
endfacet
facet normal 0.8968727415326923 -0.44228869021899353 0.0
  outer loop
    vertex -13.249315328507798 -2.3812499999999996 0.0
    vertex -13.341158757861667 -2.56749005112042 5.08
    vertex -13.341158757861667 -2.56749005112042 0.0
  endloop
endfacet
facet normal 0.8968727415326923 -0.44228869021899353 0.0
  outer loop
    vertex -13.341158757861667 -2.56749005112042 5.08
    vertex -13.249315328507798 -2.3812499999999996 0.0
    vertex -13.249315328507798 -2.3812499999999996 5.08
  endloop
endfacet
facet normal 0.9469301294951055 -0.3214394653031624 0.0
  outer loop
    vertex -13.341158757861667 -2.56749005112042 0.0
    vertex -13.407907249233896 -2.7641247658997483 5.08
    vertex -13.407907249233896 -2.7641247658997483 0.0
  endloop
endfacet
facet normal 0.9469301294951055 -0.3214394653031624 0.0
  outer loop
    vertex -13.407907249233896 -2.7641247658997483 5.08
    vertex -13.341158757861667 -2.56749005112042 0.0
    vertex -13.341158757861667 -2.56749005112042 5.08
  endloop
endfacet
facet normal 0.980785280403229 -0.19509032201613608 0.0
  outer loop
    vertex -13.407907249233896 -2.7641247658997483 0.0
    vertex -13.448418717430926 -2.9677896698506685 5.08
    vertex -13.448418717430926 -2.9677896698506685 0.0
  endloop
endfacet
facet normal 0.980785280403229 -0.19509032201613608 0.0
  outer loop
    vertex -13.448418717430926 -2.9677896698506685 5.08
    vertex -13.407907249233896 -2.7641247658997483 0.0
    vertex -13.407907249233896 -2.7641247658997483 5.08
  endloop
endfacet
facet normal 1.0 0.0 0.0
  outer loop
    vertex -13.448418717430926 -2.9677896698506685 0.0
    vertex -13.448418717430926 -9.73221033014933 5.08
    vertex -13.448418717430926 -9.73221033014933 0.0
  endloop
endfacet
facet normal 1.0 0.0 0.0
  outer loop
    vertex -13.448418717430926 -9.73221033014933 5.08
    vertex -13.448418717430926 -2.9677896698506685 0.0
    vertex -13.448418717430926 -9.73221033014933 11.43
  endloop
endfacet
facet normal 1.0 0.0 0.0
  outer loop
    vertex -13.448418717430926 -9.73221033014933 11.43
    vertex -13.448418717430926 -12.7 13.017499999999998
    vertex -13.448418717430926 -12.7 11.43
  endloop
endfacet
facet normal 1.0 0.0 0.0
  outer loop
    vertex -13.448418717430926 -12.7 13.017499999999998
    vertex -13.448418717430926 -9.73221033014933 11.43
    vertex -13.448418717430926 -2.8199664825478975e-15 13.017499999999998
  endloop
endfacet
facet normal 1.0 0.0 0.0
  outer loop
    vertex -13.448418717430926 -2.8199664825478975e-15 13.017499999999998
    vertex -13.448418717430926 -9.73221033014933 11.43
    vertex -13.448418717430926 -2.9677896698506685 11.43
  endloop
endfacet
facet normal 1.0 0.0 0.0
  outer loop
    vertex -13.448418717430926 -2.9677896698506685 11.43
    vertex -13.448418717430926 -9.73221033014933 11.43
    vertex -13.448418717430926 -2.9677896698506685 0.0
  endloop
endfacet
facet normal 1.0 0.0 0.0
  outer loop
    vertex -13.448418717430926 -2.9677896698506685 11.43
    vertex -13.448418717430926 -2.9677896698506685 0.0
    vertex -13.448418717430926 -2.9677896698506685 5.08
  endloop
endfacet
facet normal 1.0 0.0 0.0
  outer loop
    vertex -13.448418717430926 -2.8199664825478975e-15 13.017499999999998
    vertex -13.448418717430926 -2.9677896698506685 11.43
    vertex -13.448418717430926 -2.8199664825478975e-15 11.43
  endloop
endfacet
facet normal 0.9807852804032291 0.1950903220161354 0.0
  outer loop
    vertex -13.448418717430926 -9.73221033014933 0.0
    vertex -13.407907249233896 -9.935875234100251 5.08
    vertex -13.407907249233896 -9.935875234100251 0.0
  endloop
endfacet
facet normal 0.9807852804032291 0.1950903220161354 0.0
  outer loop
    vertex -13.407907249233896 -9.935875234100251 5.08
    vertex -13.448418717430926 -9.73221033014933 0.0
    vertex -13.448418717430926 -9.73221033014933 5.08
  endloop
endfacet
facet normal 0.9469301294951054 0.32143946530316303 0.0
  outer loop
    vertex -13.407907249233896 -9.935875234100251 0.0
    vertex -13.341158757861667 -10.13250994887958 5.08
    vertex -13.341158757861667 -10.13250994887958 0.0
  endloop
endfacet
facet normal 0.9469301294951054 0.32143946530316303 0.0
  outer loop
    vertex -13.341158757861667 -10.13250994887958 5.08
    vertex -13.407907249233896 -9.935875234100251 0.0
    vertex -13.407907249233896 -9.935875234100251 5.08
  endloop
endfacet
facet normal 0.8968727415326926 0.44228869021899286 0.0
  outer loop
    vertex -13.341158757861667 -10.13250994887958 0.0
    vertex -13.249315328507798 -10.31875 5.08
    vertex -13.249315328507798 -10.31875 0.0
  endloop
endfacet
facet normal 0.8968727415326926 0.44228869021899286 0.0
  outer loop
    vertex -13.249315328507798 -10.31875 5.08
    vertex -13.341158757861667 -10.13250994887958 0.0
    vertex -13.341158757861667 -10.13250994887958 5.08
  endloop
endfacet
facet normal 0.8314696123025418 0.5555702330196074 0.0
  outer loop
    vertex -13.249315328507798 -10.31875 0.0
    vertex -13.133948427712335 -10.491408768551343 5.08
    vertex -13.133948427712335 -10.491408768551343 0.0
  endloop
endfacet
facet normal 0.8314696123025418 0.5555702330196074 0.0
  outer loop
    vertex -13.133948427712335 -10.491408768551343 5.08
    vertex -13.249315328507798 -10.31875 0.0
    vertex -13.249315328507798 -10.31875 5.08
  endloop
endfacet
facet normal 0.7518398074789816 0.659345815100064 0.0
  outer loop
    vertex -13.133948427712335 -10.491408768551343 0.0
    vertex -12.997032015133644 -10.647532015133644 5.08
    vertex -12.997032015133644 -10.647532015133644 0.0
  endloop
endfacet
facet normal 0.7518398074789816 0.659345815100064 0.0
  outer loop
    vertex -12.997032015133644 -10.647532015133644 5.08
    vertex -13.133948427712335 -10.491408768551343 0.0
    vertex -13.133948427712335 -10.491408768551343 5.08
  endloop
endfacet
facet normal 0.6593458151000674 0.7518398074789786 0.0
  outer loop
    vertex -12.997032015133644 -10.647532015133644 5.08
    vertex -12.840908768551346 -10.784448427712334 0.0
    vertex -12.997032015133644 -10.647532015133644 0.0
  endloop
endfacet
facet normal 0.6593458151000674 0.7518398074789786 0.0
  outer loop
    vertex -12.840908768551346 -10.784448427712334 0.0
    vertex -12.997032015133644 -10.647532015133644 5.08
    vertex -12.840908768551346 -10.784448427712334 5.08
  endloop
endfacet
facet normal 0.5555702330195995 0.831469612302547 0.0
  outer loop
    vertex -12.840908768551346 -10.784448427712334 5.08
    vertex -12.66825 -10.899815328507795 0.0
    vertex -12.840908768551346 -10.784448427712334 0.0
  endloop
endfacet
facet normal 0.5555702330195995 0.831469612302547 0.0
  outer loop
    vertex -12.66825 -10.899815328507795 0.0
    vertex -12.840908768551346 -10.784448427712334 5.08
    vertex -12.66825 -10.899815328507795 5.08
  endloop
endfacet
facet normal 0.44228869021900374 0.896872741532687 0.0
  outer loop
    vertex -12.66825 -10.899815328507795 5.08
    vertex -12.482009948879579 -10.991658757861668 0.0
    vertex -12.66825 -10.899815328507795 0.0
  endloop
endfacet
facet normal 0.44228869021900374 0.896872741532687 0.0
  outer loop
    vertex -12.482009948879579 -10.991658757861668 0.0
    vertex -12.66825 -10.899815328507795 5.08
    vertex -12.482009948879579 -10.991658757861668 5.08
  endloop
endfacet
facet normal 0.32143946530316303 0.9469301294951054 0.0
  outer loop
    vertex -12.482009948879579 -10.991658757861668 5.08
    vertex -12.285375234100252 -11.058407249233897 0.0
    vertex -12.482009948879579 -10.991658757861668 0.0
  endloop
endfacet
facet normal 0.32143946530316303 0.9469301294951054 0.0
  outer loop
    vertex -12.285375234100252 -11.058407249233897 0.0
    vertex -12.482009948879579 -10.991658757861668 5.08
    vertex -12.285375234100252 -11.058407249233897 5.08
  endloop
endfacet
facet normal 0.1950903220161223 0.9807852804032317 0.0
  outer loop
    vertex -12.285375234100252 -11.058407249233897 5.08
    vertex -12.081710330149331 -11.098918717430923 0.0
    vertex -12.285375234100252 -11.058407249233897 0.0
  endloop
endfacet
facet normal 0.1950903220161223 0.9807852804032317 0.0
  outer loop
    vertex -12.081710330149331 -11.098918717430923 0.0
    vertex -12.285375234100252 -11.058407249233897 5.08
    vertex -12.081710330149331 -11.098918717430923 5.08
  endloop
endfacet
facet normal 0.00105222388907087 0.9999994464122905 0.0
  outer loop
    vertex -12.081710330149331 -11.098918717430923 5.08
    vertex 0.8254999999999992 -11.112499999999999 0.0
    vertex -12.081710330149331 -11.098918717430923 0.0
  endloop
endfacet
facet normal 0.00105222388907087 0.9999994464122905 0.0
  outer loop
    vertex 0.8254999999999992 -11.112499999999999 0.0
    vertex -12.081710330149331 -11.098918717430923 5.08
    vertex 0.8254999999999992 -11.112499999999999 5.08
  endloop
endfacet
facet normal 1.0 0.0 0.0
  outer loop
    vertex 0.8254999999999992 -11.112499999999999 0.0
    vertex 0.8254999999999992 -18.541999999999998 5.08
    vertex 0.8254999999999992 -18.541999999999998 0.0
  endloop
endfacet
facet normal 1.0 0.0 0.0
  outer loop
    vertex 0.8254999999999992 -18.541999999999998 5.08
    vertex 0.8254999999999992 -11.112499999999999 0.0
    vertex 0.8254999999999992 -11.112499999999999 5.08
  endloop
endfacet
facet normal -0.1305261922200507 -0.9914448613738106 -0.0
  outer loop
    vertex -13.462 -12.7 5.08
    vertex -13.87287523410025 -12.645907249233895 0.0
    vertex -13.462 -12.7 0.0
  endloop
endfacet
facet normal -0.1305261922200507 -0.9914448613738106 -0.0
  outer loop
    vertex -13.87287523410025 -12.645907249233895 0.0
    vertex -13.462 -12.7 5.08
    vertex -13.87287523410025 -12.645907249233895 5.08
  endloop
endfacet
facet normal -0.32143946530316087 -0.9469301294951059 -0.0
  outer loop
    vertex -13.87287523410025 -12.645907249233895 5.08
    vertex -14.06950994887958 -12.579158757861668 0.0
    vertex -13.87287523410025 -12.645907249233895 0.0
  endloop
endfacet
facet normal -0.32143946530316087 -0.9469301294951059 -0.0
  outer loop
    vertex -14.06950994887958 -12.579158757861668 0.0
    vertex -13.87287523410025 -12.645907249233895 5.08
    vertex -14.06950994887958 -12.579158757861668 5.08
  endloop
endfacet
facet normal -0.44228869021900374 -0.896872741532687 -0.0
  outer loop
    vertex -14.06950994887958 -12.579158757861668 5.08
    vertex -14.255749999999999 -12.487315328507796 0.0
    vertex -14.06950994887958 -12.579158757861668 0.0
  endloop
endfacet
facet normal -0.44228869021900374 -0.896872741532687 -0.0
  outer loop
    vertex -14.255749999999999 -12.487315328507796 0.0
    vertex -14.06950994887958 -12.579158757861668 5.08
    vertex -14.255749999999999 -12.487315328507796 5.08
  endloop
endfacet
facet normal -0.5555702330195995 -0.831469612302547 -0.0
  outer loop
    vertex -14.255749999999999 -12.487315328507796 5.08
    vertex -14.428408768551344 -12.371948427712335 0.0
    vertex -14.255749999999999 -12.487315328507796 0.0
  endloop
endfacet
facet normal -0.5555702330195995 -0.831469612302547 -0.0
  outer loop
    vertex -14.428408768551344 -12.371948427712335 0.0
    vertex -14.255749999999999 -12.487315328507796 5.08
    vertex -14.428408768551344 -12.371948427712335 5.08
  endloop
endfacet
facet normal -0.6593458151000674 -0.7518398074789786 -0.0
  outer loop
    vertex -14.428408768551344 -12.371948427712335 5.08
    vertex -14.584532015133645 -12.235032015133644 0.0
    vertex -14.428408768551344 -12.371948427712335 0.0
  endloop
endfacet
facet normal -0.6593458151000674 -0.7518398074789786 -0.0
  outer loop
    vertex -14.584532015133645 -12.235032015133644 0.0
    vertex -14.428408768551344 -12.371948427712335 5.08
    vertex -14.584532015133645 -12.235032015133644 5.08
  endloop
endfacet
facet normal -0.7518398074789816 -0.659345815100064 -0.0
  outer loop
    vertex -14.721448427712335 -12.078908768551344 5.08
    vertex -14.584532015133645 -12.235032015133644 0.0
    vertex -14.584532015133645 -12.235032015133644 5.08
  endloop
endfacet
facet normal -0.7518398074789816 -0.659345815100064 -0.0
  outer loop
    vertex -14.584532015133645 -12.235032015133644 0.0
    vertex -14.721448427712335 -12.078908768551344 5.08
    vertex -14.721448427712335 -12.078908768551344 0.0
  endloop
endfacet
facet normal -0.8314696123025418 -0.5555702330196074 -0.0
  outer loop
    vertex -14.836815328507797 -11.90625 5.08
    vertex -14.721448427712335 -12.078908768551344 0.0
    vertex -14.721448427712335 -12.078908768551344 5.08
  endloop
endfacet
facet normal -0.8314696123025418 -0.5555702330196074 -0.0
  outer loop
    vertex -14.721448427712335 -12.078908768551344 0.0
    vertex -14.836815328507797 -11.90625 5.08
    vertex -14.836815328507797 -11.90625 0.0
  endloop
endfacet
facet normal -0.8968727415326926 -0.44228869021899286 -0.0
  outer loop
    vertex -14.928658757861667 -11.720009948879579 5.08
    vertex -14.836815328507797 -11.90625 0.0
    vertex -14.836815328507797 -11.90625 5.08
  endloop
endfacet
facet normal -0.8968727415326926 -0.44228869021899286 -0.0
  outer loop
    vertex -14.836815328507797 -11.90625 0.0
    vertex -14.928658757861667 -11.720009948879579 5.08
    vertex -14.928658757861667 -11.720009948879579 0.0
  endloop
endfacet
facet normal -0.9469301294951054 -0.32143946530316303 -0.0
  outer loop
    vertex -14.995407249233894 -11.523375234100252 5.08
    vertex -14.928658757861667 -11.720009948879579 0.0
    vertex -14.928658757861667 -11.720009948879579 5.08
  endloop
endfacet
facet normal -0.9469301294951054 -0.32143946530316303 -0.0
  outer loop
    vertex -14.928658757861667 -11.720009948879579 0.0
    vertex -14.995407249233894 -11.523375234100252 5.08
    vertex -14.995407249233894 -11.523375234100252 0.0
  endloop
endfacet
facet normal -0.9914448613738103 -0.1305261922200536 -0.0
  outer loop
    vertex -15.0495 -11.112499999999999 5.08
    vertex -14.995407249233894 -11.523375234100252 0.0
    vertex -14.995407249233894 -11.523375234100252 5.08
  endloop
endfacet
facet normal -0.9914448613738103 -0.1305261922200536 -0.0
  outer loop
    vertex -14.995407249233894 -11.523375234100252 0.0
    vertex -15.0495 -11.112499999999999 5.08
    vertex -15.0495 -11.112499999999999 0.0
  endloop
endfacet
facet normal -1.0 0.0 0.0
  outer loop
    vertex -15.0495 -2.8199664825478975e-15 13.017499999999998
    vertex -15.0495 -12.7 11.43
    vertex -15.0495 -12.7 13.017499999999998
  endloop
endfacet
facet normal -1.0 0.0 0.0
  outer loop
    vertex -15.0495 -12.7 11.43
    vertex -15.0495 -2.8199664825478975e-15 13.017499999999998
    vertex -15.0495 -9.73221033014933 11.43
  endloop
endfacet
facet normal -1.0 0.0 0.0
  outer loop
    vertex -15.0495 -9.73221033014933 11.43
    vertex -15.0495 -2.8199664825478975e-15 13.017499999999998
    vertex -15.0495 -2.9677896698506685 11.43
  endloop
endfacet
facet normal -1.0 0.0 0.0
  outer loop
    vertex -15.0495 -9.73221033014933 11.43
    vertex -15.0495 -2.9677896698506685 11.43
    vertex -15.0495 -9.73221033014933 5.08
  endloop
endfacet
facet normal -1.0 0.0 0.0
  outer loop
    vertex -15.0495 -2.9677896698506685 11.43
    vertex -15.0495 -2.8199664825478975e-15 13.017499999999998
    vertex -15.0495 -2.8199664825478975e-15 11.43
  endloop
endfacet
facet normal -1.0 0.0 0.0
  outer loop
    vertex -15.0495 -9.73221033014933 5.08
    vertex -15.0495 -11.112499999999999 0.0
    vertex -15.0495 -11.112499999999999 5.08
  endloop
endfacet
facet normal -1.0 0.0 0.0
  outer loop
    vertex -15.0495 -11.112499999999999 0.0
    vertex -15.0495 -9.73221033014933 5.08
    vertex -15.0495 0.0 0.0
  endloop
endfacet
facet normal -1.0 0.0 0.0
  outer loop
    vertex -15.0495 0.0 0.0
    vertex -15.0495 -9.73221033014933 5.08
    vertex -15.0495 -2.9677896698506685 5.08
  endloop
endfacet
facet normal -1.0 0.0 0.0
  outer loop
    vertex -15.0495 -2.9677896698506685 5.08
    vertex -15.0495 -9.73221033014933 5.08
    vertex -15.0495 -2.9677896698506685 11.43
  endloop
endfacet
facet normal -1.0 0.0 0.0
  outer loop
    vertex -15.0495 0.0 0.0
    vertex -15.0495 -2.9677896698506685 5.08
    vertex -15.0495 0.0 5.08
  endloop
endfacet
facet normal 0.0 0.0 1.0
  outer loop
    vertex 7.175499999999999 -18.541999999999998 5.08
    vertex 8.762999999999998 -16.9545 5.08
    vertex 7.175499999999999 -11.112499999999999 5.08
  endloop
endfacet
facet normal 0.0 0.0 1.0
  outer loop
    vertex 8.762999999999998 -16.9545 5.08
    vertex 7.175499999999999 -18.541999999999998 5.08
    vertex 10.350499999999998 -18.541999999999998 5.08
  endloop
endfacet
facet normal 0.0 0.0 1.0
  outer loop
    vertex 8.762999999999998 -16.9545 5.08
    vertex 10.350499999999998 -18.541999999999998 5.08
    vertex 10.350499999999998 -16.9545 5.08
  endloop
endfacet
facet normal 0.0 0.0 1.0
  outer loop
    vertex 7.175499999999999 -11.112499999999999 5.08
    vertex 8.762999999999998 -12.7 5.08
    vertex 20.082710330149332 -11.098918717430923 5.08
  endloop
endfacet
facet normal 0.0 0.0 1.0
  outer loop
    vertex 8.762999999999998 -12.7 5.08
    vertex 7.175499999999999 -11.112499999999999 5.08
    vertex 8.762999999999998 -16.9545 5.08
  endloop
endfacet
facet normal 0.0 0.0 1.0
  outer loop
    vertex 20.082710330149332 -11.098918717430923 5.08
    vertex 8.762999999999998 -12.7 5.08
    vertex 21.462999999999997 -12.7 5.08
  endloop
endfacet
facet normal 0.0 0.0 1.0
  outer loop
    vertex 20.082710330149332 -11.098918717430923 5.08
    vertex 21.462999999999997 -12.7 5.08
    vertex 20.286375234100248 -11.058407249233897 5.08
  endloop
endfacet
facet normal 0.0 0.0 1.0
  outer loop
    vertex 20.286375234100248 -11.058407249233897 5.08
    vertex 21.462999999999997 -12.7 5.08
    vertex 20.48300994887958 -10.991658757861668 5.08
  endloop
endfacet
facet normal 0.0 0.0 1.0
  outer loop
    vertex 20.48300994887958 -10.991658757861668 5.08
    vertex 21.462999999999997 -12.7 5.08
    vertex 20.669249999999998 -10.899815328507795 5.08
  endloop
endfacet
facet normal 0.0 0.0 1.0
  outer loop
    vertex 20.669249999999998 -10.899815328507795 5.08
    vertex 21.462999999999997 -12.7 5.08
    vertex 20.841908768551345 -10.784448427712334 5.08
  endloop
endfacet
facet normal 0.0 0.0 1.0
  outer loop
    vertex 20.841908768551345 -10.784448427712334 5.08
    vertex 21.462999999999997 -12.7 5.08
    vertex 20.99803201513364 -10.647532015133644 5.08
  endloop
endfacet
facet normal 0.0 0.0 1.0
  outer loop
    vertex 20.99803201513364 -10.647532015133644 5.08
    vertex 21.462999999999997 -12.7 5.08
    vertex 21.13494842771233 -10.491408768551343 5.08
  endloop
endfacet
facet normal 0.0 0.0 1.0
  outer loop
    vertex 21.13494842771233 -10.491408768551343 5.08
    vertex 21.462999999999997 -12.7 5.08
    vertex 21.2503153285078 -10.31875 5.08
  endloop
endfacet
facet normal 0.0 0.0 1.0
  outer loop
    vertex 21.2503153285078 -10.31875 5.08
    vertex 21.462999999999997 -12.7 5.08
    vertex 21.342158757861664 -10.13250994887958 5.08
  endloop
endfacet
facet normal 0.0 0.0 1.0
  outer loop
    vertex 21.342158757861664 -10.13250994887958 5.08
    vertex 21.462999999999997 -12.7 5.08
    vertex 21.40890724923389 -9.935875234100251 5.08
  endloop
endfacet
facet normal 0.0 0.0 1.0
  outer loop
    vertex 21.40890724923389 -9.935875234100251 5.08
    vertex 21.462999999999997 -12.7 5.08
    vertex 21.449418717430923 -9.73221033014933 5.08
  endloop
endfacet
facet normal 0.0 0.0 1.0
  outer loop
    vertex 21.449418717430923 -9.73221033014933 5.08
    vertex 21.462999999999997 -12.7 5.08
    vertex 23.0505 -9.73221033014933 5.08
  endloop
endfacet
facet normal 0.0 0.0 1.0
  outer loop
    vertex 23.0505 -9.73221033014933 5.08
    vertex 21.462999999999997 -12.7 5.08
    vertex 21.873875234100247 -12.645907249233895 5.08
  endloop
endfacet
facet normal 0.0 0.0 1.0
  outer loop
    vertex 23.0505 -9.73221033014933 5.08
    vertex 21.873875234100247 -12.645907249233895 5.08
    vertex 22.070509948879582 -12.579158757861668 5.08
  endloop
endfacet
facet normal 0.0 0.0 1.0
  outer loop
    vertex 23.0505 -9.73221033014933 5.08
    vertex 22.070509948879582 -12.579158757861668 5.08
    vertex 22.256749999999997 -12.487315328507796 5.08
  endloop
endfacet
facet normal 0.0 0.0 1.0
  outer loop
    vertex 23.0505 -9.73221033014933 5.08
    vertex 22.256749999999997 -12.487315328507796 5.08
    vertex 22.429408768551347 -12.371948427712335 5.08
  endloop
endfacet
facet normal 0.0 0.0 1.0
  outer loop
    vertex 23.0505 -9.73221033014933 5.08
    vertex 22.429408768551347 -12.371948427712335 5.08
    vertex 22.58553201513364 -12.235032015133644 5.08
  endloop
endfacet
facet normal 0.0 0.0 1.0
  outer loop
    vertex 23.0505 -9.73221033014933 5.08
    vertex 22.58553201513364 -12.235032015133644 5.08
    vertex 22.72244842771233 -12.078908768551344 5.08
  endloop
endfacet
facet normal 0.0 0.0 1.0
  outer loop
    vertex 23.0505 -9.73221033014933 5.08
    vertex 22.72244842771233 -12.078908768551344 5.08
    vertex 22.837815328507798 -11.90625 5.08
  endloop
endfacet
facet normal 0.0 0.0 1.0
  outer loop
    vertex 23.0505 -9.73221033014933 5.08
    vertex 22.837815328507798 -11.90625 5.08
    vertex 22.929658757861663 -11.720009948879579 5.08
  endloop
endfacet
facet normal 0.0 0.0 1.0
  outer loop
    vertex 23.0505 -9.73221033014933 5.08
    vertex 22.929658757861663 -11.720009948879579 5.08
    vertex 22.99640724923389 -11.523375234100252 5.08
  endloop
endfacet
facet normal 0.0 0.0 1.0
  outer loop
    vertex 23.0505 -9.73221033014933 5.08
    vertex 22.99640724923389 -11.523375234100252 5.08
    vertex 23.0505 -11.112499999999999 5.08
  endloop
endfacet
facet normal 0.0 0.0 1.0
  outer loop
    vertex 23.0505 -12.699999999999994 13.017499999999998
    vertex 21.449418717430923 -2.8199664825478975e-15 13.017499999999998
    vertex 21.449418717430923 -12.699999999999994 13.017499999999998
  endloop
endfacet
facet normal 0.0 0.0 1.0
  outer loop
    vertex 21.449418717430923 -2.8199664825478975e-15 13.017499999999998
    vertex 23.0505 -12.699999999999994 13.017499999999998
    vertex 23.0505 -2.8199664825478975e-15 13.017499999999998
  endloop
endfacet
facet normal -1.3112442332968782e-32 -4.5614857427591024e-33 1.0
  outer loop
    vertex -13.448418717430926 -2.9677896698506685 5.08
    vertex -15.0495 0.0 5.08
    vertex -15.0495 -2.9677896698506685 5.08
  endloop
endfacet
facet normal -1.3112442332968782e-32 -4.5614857427591024e-33 1.0
  outer loop
    vertex -15.0495 0.0 5.08
    vertex -13.448418717430926 -2.9677896698506685 5.08
    vertex -13.407907249233896 -2.7641247658997483 5.08
  endloop
endfacet
facet normal -1.3112442332968782e-32 -4.5614857427591024e-33 1.0
  outer loop
    vertex -15.0495 0.0 5.08
    vertex -13.407907249233896 -2.7641247658997483 5.08
    vertex -13.341158757861667 -2.56749005112042 5.08
  endloop
endfacet
facet normal -1.3112442332968782e-32 -4.5614857427591024e-33 1.0
  outer loop
    vertex -15.0495 0.0 5.08
    vertex -13.341158757861667 -2.56749005112042 5.08
    vertex -13.249315328507798 -2.3812499999999996 5.08
  endloop
endfacet
facet normal -1.3112442332968782e-32 -4.5614857427591024e-33 1.0
  outer loop
    vertex -15.0495 0.0 5.08
    vertex -13.249315328507798 -2.3812499999999996 5.08
    vertex -13.133948427712335 -2.2085912314486547 5.08
  endloop
endfacet
facet normal -1.3112442332968782e-32 -4.5614857427591024e-33 1.0
  outer loop
    vertex -15.0495 0.0 5.08
    vertex -13.133948427712335 -2.2085912314486547 5.08
    vertex -12.997032015133644 -2.052467984866355 5.08
  endloop
endfacet
facet normal -1.3112442332968782e-32 -4.5614857427591024e-33 1.0
  outer loop
    vertex -15.0495 0.0 5.08
    vertex -12.997032015133644 -2.052467984866355 5.08
    vertex -12.840908768551346 -1.9155515722876644 5.08
  endloop
endfacet
facet normal -1.3112442332968782e-32 -4.5614857427591024e-33 1.0
  outer loop
    vertex -15.0495 0.0 5.08
    vertex -12.840908768551346 -1.9155515722876644 5.08
    vertex -12.66825 -1.8001846714922025 5.08
  endloop
endfacet
facet normal -1.3112442332968782e-32 -4.5614857427591024e-33 1.0
  outer loop
    vertex -15.0495 0.0 5.08
    vertex -12.66825 -1.8001846714922025 5.08
    vertex -12.482009948879579 -1.708341242138332 5.08
  endloop
endfacet
facet normal -1.3112442332968782e-32 -4.5614857427591024e-33 1.0
  outer loop
    vertex -15.0495 0.0 5.08
    vertex -12.482009948879579 -1.708341242138332 5.08
    vertex -12.285375234100252 -1.6415927507661048 5.08
  endloop
endfacet
facet normal -1.3112442332968782e-32 -4.5614857427591024e-33 1.0
  outer loop
    vertex -15.0495 0.0 5.08
    vertex -12.285375234100252 -1.6415927507661048 5.08
    vertex -12.081710330149331 -1.601081282569075 5.08
  endloop
endfacet
facet normal -1.3112442332968782e-32 -4.5614857427591024e-33 1.0
  outer loop
    vertex -15.0495 0.0 5.08
    vertex -12.081710330149331 -1.601081282569075 5.08
    vertex 0.8254999999999992 0.0 5.08
  endloop
endfacet
facet normal -1.3112442332968782e-32 -4.5614857427591024e-33 1.0
  outer loop
    vertex 0.8254999999999992 0.0 5.08
    vertex -12.081710330149331 -1.601081282569075 5.08
    vertex 20.082710330149332 -1.601081282569075 5.08
  endloop
endfacet
facet normal -1.3112442332968782e-32 -4.5614857427591024e-33 1.0
  outer loop
    vertex 0.8254999999999992 0.0 5.08
    vertex 20.082710330149332 -1.601081282569075 5.08
    vertex 7.175499999999999 0.0 5.08
  endloop
endfacet
facet normal -1.3112442332968782e-32 -4.5614857427591024e-33 1.0
  outer loop
    vertex 0.8254999999999992 0.0 5.08
    vertex 7.175499999999999 0.0 5.08
    vertex 0.8254999999999992 4.064000000000001 5.08
  endloop
endfacet
facet normal -1.3112442332968782e-32 -4.5614857427591024e-33 1.0
  outer loop
    vertex 7.175499999999999 0.0 5.08
    vertex 20.082710330149332 -1.601081282569075 5.08
    vertex 23.0505 0.0 5.08
  endloop
endfacet
facet normal -1.3112442332968782e-32 -4.5614857427591024e-33 1.0
  outer loop
    vertex 23.0505 0.0 5.08
    vertex 20.082710330149332 -1.601081282569075 5.08
    vertex 20.286375234100248 -1.6415927507661048 5.08
  endloop
endfacet
facet normal -1.3112442332968782e-32 -4.5614857427591024e-33 1.0
  outer loop
    vertex 23.0505 0.0 5.08
    vertex 20.286375234100248 -1.6415927507661048 5.08
    vertex 20.48300994887958 -1.708341242138332 5.08
  endloop
endfacet
facet normal -1.3112442332968782e-32 -4.5614857427591024e-33 1.0
  outer loop
    vertex 23.0505 0.0 5.08
    vertex 20.48300994887958 -1.708341242138332 5.08
    vertex 20.669249999999998 -1.8001846714922025 5.08
  endloop
endfacet
facet normal -1.3112442332968782e-32 -4.5614857427591024e-33 1.0
  outer loop
    vertex 23.0505 0.0 5.08
    vertex 20.669249999999998 -1.8001846714922025 5.08
    vertex 20.841908768551345 -1.9155515722876644 5.08
  endloop
endfacet
facet normal -1.3112442332968782e-32 -4.5614857427591024e-33 1.0
  outer loop
    vertex 23.0505 0.0 5.08
    vertex 20.841908768551345 -1.9155515722876644 5.08
    vertex 20.99803201513364 -2.052467984866355 5.08
  endloop
endfacet
facet normal -1.3112442332968782e-32 -4.5614857427591024e-33 1.0
  outer loop
    vertex 23.0505 0.0 5.08
    vertex 20.99803201513364 -2.052467984866355 5.08
    vertex 21.13494842771233 -2.2085912314486547 5.08
  endloop
endfacet
facet normal -1.3112442332968782e-32 -4.5614857427591024e-33 1.0
  outer loop
    vertex 23.0505 0.0 5.08
    vertex 21.13494842771233 -2.2085912314486547 5.08
    vertex 21.2503153285078 -2.3812499999999996 5.08
  endloop
endfacet
facet normal -1.3112442332968782e-32 -4.5614857427591024e-33 1.0
  outer loop
    vertex 23.0505 0.0 5.08
    vertex 21.2503153285078 -2.3812499999999996 5.08
    vertex 21.342158757861664 -2.56749005112042 5.08
  endloop
endfacet
facet normal -1.3112442332968782e-32 -4.5614857427591024e-33 1.0
  outer loop
    vertex 23.0505 0.0 5.08
    vertex 21.342158757861664 -2.56749005112042 5.08
    vertex 21.40890724923389 -2.7641247658997483 5.08
  endloop
endfacet
facet normal -1.3112442332968782e-32 -4.5614857427591024e-33 1.0
  outer loop
    vertex 23.0505 0.0 5.08
    vertex 21.40890724923389 -2.7641247658997483 5.08
    vertex 21.449418717430923 -2.9677896698506685 5.08
  endloop
endfacet
facet normal -1.3112442332968782e-32 -4.5614857427591024e-33 1.0
  outer loop
    vertex 23.0505 0.0 5.08
    vertex 21.449418717430923 -2.9677896698506685 5.08
    vertex 23.0505 -2.9677896698506685 5.08
  endloop
endfacet
facet normal -1.3112442332968782e-32 -4.5614857427591024e-33 1.0
  outer loop
    vertex 0.8254999999999992 4.064000000000001 5.08
    vertex -5.651499999999999 6.43210101010101 5.08
    vertex -5.6515 4.064000000000001 5.08
  endloop
endfacet
facet normal -1.3112442332968782e-32 -4.5614857427591024e-33 1.0
  outer loop
    vertex -5.651499999999999 6.43210101010101 5.08
    vertex 0.8254999999999992 4.064000000000001 5.08
    vertex 0.0 11.684 5.08
  endloop
endfacet
facet normal -1.3112442332968782e-32 -4.5614857427591024e-33 1.0
  outer loop
    vertex 0.0 11.684 5.08
    vertex 0.8254999999999992 4.064000000000001 5.08
    vertex 8.000999999999998 11.684 5.08
  endloop
endfacet
facet normal -1.3112442332968782e-32 -4.5614857427591024e-33 1.0
  outer loop
    vertex 8.000999999999998 11.684 5.08
    vertex 0.8254999999999992 4.064000000000001 5.08
    vertex 7.175499999999999 4.064000000000001 5.08
  endloop
endfacet
facet normal -1.3112442332968782e-32 -4.5614857427591024e-33 1.0
  outer loop
    vertex 7.175499999999999 4.064000000000001 5.08
    vertex 0.8254999999999992 4.064000000000001 5.08
    vertex 7.175499999999999 0.0 5.08
  endloop
endfacet
facet normal -1.3112442332968782e-32 -4.5614857427591024e-33 1.0
  outer loop
    vertex 8.000999999999998 11.684 5.08
    vertex 7.175499999999999 4.064000000000001 5.08
    vertex 13.652499999999996 4.064000000000001 5.08
  endloop
endfacet
facet normal -1.3112442332968782e-32 -4.5614857427591024e-33 1.0
  outer loop
    vertex 8.000999999999998 11.684 5.08
    vertex 13.652499999999996 4.064000000000001 5.08
    vertex 13.652499999999996 6.43210101010101 5.08
  endloop
endfacet
facet normal 0.0 0.0 1.0
  outer loop
    vertex -13.448418717430926 -12.7 13.017499999999998
    vertex -15.0495 -2.8199664825478975e-15 13.017499999999998
    vertex -15.0495 -12.7 13.017499999999998
  endloop
endfacet
facet normal 0.0 0.0 1.0
  outer loop
    vertex -15.0495 -2.8199664825478975e-15 13.017499999999998
    vertex -13.448418717430926 -12.7 13.017499999999998
    vertex -13.448418717430926 -2.8199664825478975e-15 13.017499999999998
  endloop
endfacet
facet normal 0.0 1.0 0.0
  outer loop
    vertex -15.0495 -2.9677896698506685 11.43
    vertex -13.448418717430926 -2.9677896698506685 5.08
    vertex -15.0495 -2.9677896698506685 5.08
  endloop
endfacet
facet normal 0.0 1.0 0.0
  outer loop
    vertex -13.448418717430926 -2.9677896698506685 5.08
    vertex -15.0495 -2.9677896698506685 11.43
    vertex -13.448418717430926 -2.9677896698506685 11.43
  endloop
endfacet
facet normal 0.0 1.0 0.0
  outer loop
    vertex 21.449418717430923 -2.9677896698506685 11.43
    vertex 23.0505 -2.9677896698506685 5.08
    vertex 21.449418717430923 -2.9677896698506685 5.08
  endloop
endfacet
facet normal 0.0 1.0 0.0
  outer loop
    vertex 23.0505 -2.9677896698506685 5.08
    vertex 21.449418717430923 -2.9677896698506685 11.43
    vertex 23.0505 -2.9677896698506685 11.43
  endloop
endfacet
facet normal 0.0 1.0 0.0
  outer loop
    vertex 21.449418717430923 -2.8199664825478975e-15 13.017499999999998
    vertex 23.0505 -2.8199664825478975e-15 11.43
    vertex 21.449418717430923 -2.8199664825478975e-15 11.43
  endloop
endfacet
facet normal 0.0 1.0 0.0
  outer loop
    vertex 23.0505 -2.8199664825478975e-15 11.43
    vertex 21.449418717430923 -2.8199664825478975e-15 13.017499999999998
    vertex 23.0505 -2.8199664825478975e-15 13.017499999999998
  endloop
endfacet
facet normal -0.0 -0.0 -1.0
  outer loop
    vertex 23.0505 -2.8199664825478975e-15 11.43
    vertex 21.449418717430923 -2.9677896698506685 11.43
    vertex 21.449418717430923 -2.8199664825478975e-15 11.43
  endloop
endfacet
facet normal -0.0 -0.0 -1.0
  outer loop
    vertex 21.449418717430923 -2.9677896698506685 11.43
    vertex 23.0505 -2.8199664825478975e-15 11.43
    vertex 23.0505 -2.9677896698506685 11.43
  endloop
endfacet
facet normal 0.0 -1.0 0.0
  outer loop
    vertex 23.0505 -9.73221033014933 11.43
    vertex 21.449418717430923 -9.73221033014933 5.08
    vertex 23.0505 -9.73221033014933 5.08
  endloop
endfacet
facet normal 0.0 -1.0 0.0
  outer loop
    vertex 21.449418717430923 -9.73221033014933 5.08
    vertex 23.0505 -9.73221033014933 11.43
    vertex 21.449418717430923 -9.73221033014933 11.43
  endloop
endfacet
facet normal 0.0 -1.0 0.0
  outer loop
    vertex -13.448418717430926 -9.73221033014933 11.43
    vertex -15.0495 -9.73221033014933 5.08
    vertex -13.448418717430926 -9.73221033014933 5.08
  endloop
endfacet
facet normal 0.0 -1.0 0.0
  outer loop
    vertex -15.0495 -9.73221033014933 5.08
    vertex -13.448418717430926 -9.73221033014933 11.43
    vertex -15.0495 -9.73221033014933 11.43
  endloop
endfacet
facet normal 0.0 -1.0 0.0
  outer loop
    vertex -13.448418717430926 -12.7 13.017499999999998
    vertex -15.0495 -12.7 11.43
    vertex -13.448418717430926 -12.7 11.43
  endloop
endfacet
facet normal 0.0 -1.0 0.0
  outer loop
    vertex -15.0495 -12.7 11.43
    vertex -13.448418717430926 -12.7 13.017499999999998
    vertex -15.0495 -12.7 13.017499999999998
  endloop
endfacet
facet normal 0.0 0.0 -1.0
  outer loop
    vertex -13.448418717430926 -9.73221033014933 11.43
    vertex -15.0495 -12.7 11.43
    vertex -15.0495 -9.73221033014933 11.43
  endloop
endfacet
facet normal 0.0 0.0 -1.0
  outer loop
    vertex -15.0495 -12.7 11.43
    vertex -13.448418717430926 -9.73221033014933 11.43
    vertex -13.448418717430926 -12.7 11.43
  endloop
endfacet
facet normal 0.0 -1.0 0.0
  outer loop
    vertex 23.0505 -12.699999999999994 13.017499999999998
    vertex 21.449418717430923 -12.699999999999994 11.43
    vertex 23.0505 -12.699999999999994 11.43
  endloop
endfacet
facet normal 0.0 -1.0 0.0
  outer loop
    vertex 21.449418717430923 -12.699999999999994 11.43
    vertex 23.0505 -12.699999999999994 13.017499999999998
    vertex 21.449418717430923 -12.699999999999994 13.017499999999998
  endloop
endfacet
facet normal 0.0 0.0 -1.0
  outer loop
    vertex 23.0505 -9.73221033014933 11.43
    vertex 21.449418717430923 -12.699999999999994 11.43
    vertex 21.449418717430923 -9.73221033014933 11.43
  endloop
endfacet
facet normal 0.0 0.0 -1.0
  outer loop
    vertex 21.449418717430923 -12.699999999999994 11.43
    vertex 23.0505 -9.73221033014933 11.43
    vertex 23.0505 -12.699999999999994 11.43
  endloop
endfacet
facet normal -1.0 5.95406714181422e-16 0.0
  outer loop
    vertex -5.651499999999999 6.43210101010101 5.08
    vertex -5.6515 4.064000000000001 -3.524958103184872e-16
    vertex -5.6515 4.064000000000001 5.08
  endloop
endfacet
facet normal -1.0 5.95406714181422e-16 0.0
  outer loop
    vertex -5.6515 4.064000000000001 -3.524958103184872e-16
    vertex -5.651499999999999 6.43210101010101 5.08
    vertex -5.651499999999999 6.43210101010101 -3.524958103184872e-16
  endloop
endfacet
facet normal 1.0 1.190813428362844e-15 0.0
  outer loop
    vertex 13.652499999999996 6.43210101010101 0.0
    vertex 13.652499999999996 4.064000000000001 5.08
    vertex 13.652499999999996 4.064000000000001 0.0
  endloop
endfacet
facet normal 1.0 1.190813428362844e-15 0.0
  outer loop
    vertex 13.652499999999996 4.064000000000001 5.08
    vertex 13.652499999999996 6.43210101010101 0.0
    vertex 13.652499999999996 6.43210101010101 5.08
  endloop
endfacet
facet normal 0.0 1.0 0.0
  outer loop
    vertex -15.0495 -2.8199664825478975e-15 13.017499999999998
    vertex -13.448418717430926 -2.8199664825478975e-15 11.43
    vertex -15.0495 -2.8199664825478975e-15 11.43
  endloop
endfacet
facet normal 0.0 1.0 0.0
  outer loop
    vertex -13.448418717430926 -2.8199664825478975e-15 11.43
    vertex -15.0495 -2.8199664825478975e-15 13.017499999999998
    vertex -13.448418717430926 -2.8199664825478975e-15 13.017499999999998
  endloop
endfacet
facet normal -0.0 -0.0 -1.0
  outer loop
    vertex -13.448418717430926 -2.8199664825478975e-15 11.43
    vertex -15.0495 -2.9677896698506685 11.43
    vertex -15.0495 -2.8199664825478975e-15 11.43
  endloop
endfacet
facet normal -0.0 -0.0 -1.0
  outer loop
    vertex -15.0495 -2.9677896698506685 11.43
    vertex -13.448418717430926 -2.8199664825478975e-15 11.43
    vertex -13.448418717430926 -2.9677896698506685 11.43
  endloop
endfacet
facet normal 0.0 -1.0 0.0
  outer loop
    vertex -0.7620000000000007 -12.7 5.08
    vertex -13.462 -12.7 0.0
    vertex -0.7620000000000007 -12.7 0.0
  endloop
endfacet
facet normal 0.0 -1.0 0.0
  outer loop
    vertex -13.462 -12.7 0.0
    vertex -0.7620000000000007 -12.7 5.08
    vertex -13.462 -12.7 5.08
  endloop
endfacet
facet normal 0.0 -1.0 0.0
  outer loop
    vertex 21.462999999999997 -12.7 5.08
    vertex 8.762999999999998 -12.7 0.0
    vertex 21.462999999999997 -12.7 0.0
  endloop
endfacet
facet normal 0.0 -1.0 0.0
  outer loop
    vertex 8.762999999999998 -12.7 0.0
    vertex 21.462999999999997 -12.7 5.08
    vertex 8.762999999999998 -12.7 5.08
  endloop
endfacet
facet normal 0.0 -1.0 0.0
  outer loop
    vertex 0.8254999999999992 -18.541999999999998 5.08
    vertex -2.3495000000000004 -18.541999999999998 0.0
    vertex 0.8254999999999992 -18.541999999999998 0.0
  endloop
endfacet
facet normal 0.0 -1.0 0.0
  outer loop
    vertex -2.3495000000000004 -18.541999999999998 0.0
    vertex 0.8254999999999992 -18.541999999999998 5.08
    vertex -2.3495000000000004 -18.541999999999998 5.08
  endloop
endfacet
facet normal -1.0 0.0 0.0
  outer loop
    vertex -0.7620000000000007 -12.7 5.08
    vertex -0.7620000000000007 -16.9545 0.0
    vertex -0.7620000000000007 -16.9545 5.08
  endloop
endfacet
facet normal -1.0 0.0 0.0
  outer loop
    vertex -0.7620000000000007 -16.9545 0.0
    vertex -0.7620000000000007 -12.7 5.08
    vertex -0.7620000000000007 -12.7 0.0
  endloop
endfacet
facet normal 0.0 -1.0 0.0
  outer loop
    vertex 10.350499999999998 -18.541999999999998 5.08
    vertex 7.175499999999999 -18.541999999999998 0.0
    vertex 10.350499999999998 -18.541999999999998 0.0
  endloop
endfacet
facet normal 0.0 -1.0 0.0
  outer loop
    vertex 7.175499999999999 -18.541999999999998 0.0
    vertex 10.350499999999998 -18.541999999999998 5.08
    vertex 7.175499999999999 -18.541999999999998 5.08
  endloop
endfacet
facet normal 1.0 0.0 0.0
  outer loop
    vertex 8.762999999999998 -12.7 0.0
    vertex 8.762999999999998 -16.9545 5.08
    vertex 8.762999999999998 -16.9545 0.0
  endloop
endfacet
facet normal 1.0 0.0 0.0
  outer loop
    vertex 8.762999999999998 -16.9545 5.08
    vertex 8.762999999999998 -12.7 0.0
    vertex 8.762999999999998 -12.7 5.08
  endloop
endfacet
facet normal -1.0 0.0 0.0
  outer loop
    vertex -2.3495000000000004 -16.9545 5.08
    vertex -2.3495000000000004 -18.541999999999998 0.0
    vertex -2.3495000000000004 -18.541999999999998 5.08
  endloop
endfacet
facet normal -1.0 0.0 0.0
  outer loop
    vertex -2.3495000000000004 -18.541999999999998 0.0
    vertex -2.3495000000000004 -16.9545 5.08
    vertex -2.3495000000000004 -16.9545 0.0
  endloop
endfacet
facet normal 0.0 1.0 0.0
  outer loop
    vertex -2.3495000000000004 -16.9545 5.08
    vertex -0.7620000000000007 -16.9545 0.0
    vertex -2.3495000000000004 -16.9545 0.0
  endloop
endfacet
facet normal 0.0 1.0 0.0
  outer loop
    vertex -0.7620000000000007 -16.9545 0.0
    vertex -2.3495000000000004 -16.9545 5.08
    vertex -0.7620000000000007 -16.9545 5.08
  endloop
endfacet
facet normal 1.0 0.0 0.0
  outer loop
    vertex 10.350499999999998 -16.9545 0.0
    vertex 10.350499999999998 -18.541999999999998 5.08
    vertex 10.350499999999998 -18.541999999999998 0.0
  endloop
endfacet
facet normal 1.0 0.0 0.0
  outer loop
    vertex 10.350499999999998 -18.541999999999998 5.08
    vertex 10.350499999999998 -16.9545 0.0
    vertex 10.350499999999998 -16.9545 5.08
  endloop
endfacet
facet normal 0.0 1.0 0.0
  outer loop
    vertex 8.762999999999998 -16.9545 5.08
    vertex 10.350499999999998 -16.9545 0.0
    vertex 8.762999999999998 -16.9545 0.0
  endloop
endfacet
facet normal 0.0 1.0 0.0
  outer loop
    vertex 10.350499999999998 -16.9545 0.0
    vertex 8.762999999999998 -16.9545 5.08
    vertex 10.350499999999998 -16.9545 5.08
  endloop
endfacet
endsolid wire_clip
