999
dxfrw 0.5.10
0
SECTION
2
HEADER
9
$ACADVER
1
AC1021
9
$HANDSEED
5
20000
9
$DWGCODEPAGE
3
ANSI_1252
9
$INSBASE
10
0
20
0
30
0
9
$EXTMIN
10
-0.000631665649823
20
-0.349665540807
30
0
9
$EXTMAX
10
8.21397656486
20
2.35050291165
30
0
9
$LIMMIN
10
0
20
0
9
$LIMMAX
10
420
20
297
9
$ORTHOMODE
70
0
9
$LTSCALE
40
1
9
$TEXTSTYLE
7
STANDARD
9
$DIMASZ
40
0.1
9
$DIMSCALE
40
1
9
$DIMEXO
40
0.025
9
$DIMEXE
40
0.05
9
$DIMTXT
40
0.1
9
$DIMTSZ
40
0
9
$DIMAUNIT
70
0
9
$DIMADEC
70
0
9
$DIMLUNIT
70
2
9
$DIMSTYLE
2
Standard
9
$DIMGAP
40
0.025
9
$DIMTIH
70
0
9
$LUNITS
70
2
9
$LUPREC
70
4
9
$AUNITS
70
0
9
$AUPREC
70
2
9
$SPLINESEGS
70
8
9
$SNAPSTYLE
70
0
9
$PINSBASE
10
0
20
0
30
0
9
$PLIMMIN
10
0
20
0
9
$PLIMMAX
10
1.21213100952e-09
20
1.71429957061e-09
9
$INSUNITS
70
1
9
$PSVPSCALE
40
1
0
ENDSEC
0
SECTION
2
CLASSES
0
ENDSEC
0
SECTION
2
TABLES
0
TABLE
2
VPORT
5
8
330
0
100
AcDbSymbolTable
70
1
0
VPORT
5
31
330
2
100
AcDbSymbolTableRecord
100
AcDbViewportTableRecord
2
*ACTIVE
70
0
10
0
20
0
11
1
21
1
12
4.49480353435
22
2.3353626974
13
0
23
0
14
10
24
10
15
10
25
10
16
0
26
0
36
1
17
0
27
0
37
0
40
6.50910883644
41
1.42972972973
42
50
43
0
44
0
50
0
51
0
71
0
72
100
73
1
74
3
75
0
76
1
77
0
78
0
281
0
65
1
110
0
120
0
130
0
111
1
121
0
131
0
112
0
122
1
132
0
79
0
146
0
348
10020
60
7
61
5
292
1
282
1
141
0
142
0
63
250
421
3358443
0
ENDTAB
0
TABLE
2
LTYPE
5
5
330
0
100
AcDbSymbolTable
70
4
0
LTYPE
5
14
330
5
100
AcDbSymbolTableRecord
100
AcDbLinetypeTableRecord
2
ByBlock
70
0
3

72
65
73
0
40
0
0
LTYPE
5
15
330
5
100
AcDbSymbolTableRecord
100
AcDbLinetypeTableRecord
2
ByLayer
70
0
3

72
65
73
0
40
0
0
LTYPE
5
16
330
5
100
AcDbSymbolTableRecord
100
AcDbLinetypeTableRecord
2
Continuous
70
0
3
Solid line
72
65
73
0
40
0
0
LTYPE
5
32
330
5
100
AcDbSymbolTableRecord
100
AcDbLinetypeTableRecord
2
DOT
70
0
3
Dot . . . . . . . . . . . . . . . . . . . . . .
72
65
73
2
40
6.35
49
0
74
0
49
-6.35
74
0
0
LTYPE
5
33
330
5
100
AcDbSymbolTableRecord
100
AcDbLinetypeTableRecord
2
DOT2
70
0
3
Dot (.5x) .....................................
72
65
73
2
40
3.175
49
0
74
0
49
-3.175
74
0
0
LTYPE
5
34
330
5
100
AcDbSymbolTableRecord
100
AcDbLinetypeTableRecord
2
DOTX2
70
0
3
Dot (2x) .  .  .  .  .  .  .  .  .  .  .  .  .
72
65
73
2
40
12.7
49
0
74
0
49
-12.7
74
0
0
LTYPE
5
35
330
5
100
AcDbSymbolTableRecord
100
AcDbLinetypeTableRecord
2
DASHED
70
0
3
Dot . . . . . . . . . . . . . . . . . . . . . .
72
65
73
2
40
19.05
49
12.7
74
0
49
-6.35
74
0
0
LTYPE
5
36
330
5
100
AcDbSymbolTableRecord
100
AcDbLinetypeTableRecord
2
DASHED2
70
0
3
Dashed (.5x) _ _ _ _ _ _ _ _ _ _ _ _ _ _ _ _ _
72
65
73
2
40
9.525
49
6.35
74
0
49
-3.175
74
0
0
LTYPE
5
37
330
5
100
AcDbSymbolTableRecord
100
AcDbLinetypeTableRecord
2
DASHEDX2
70
0
3
Dashed (2x) ____  ____  ____  ____  ____  ___
72
65
73
2
40
38.1
49
25.4
74
0
49
-12.7
74
0
0
LTYPE
5
38
330
5
100
AcDbSymbolTableRecord
100
AcDbLinetypeTableRecord
2
DASHDOT
70
0
3
Dash dot __ . __ . __ . __ . __ . __ . __ . __
72
65
73
4
40
25.4
49
12.7
74
0
49
-6.35
74
0
49
0
74
0
49
-6.35
74
0
0
LTYPE
5
39
330
5
100
AcDbSymbolTableRecord
100
AcDbLinetypeTableRecord
2
DASHDOT2
70
0
3
Dash dot (.5x) _._._._._._._._._._._._._._._.
72
65
73
4
40
12.7
49
6.35
74
0
49
-3.175
74
0
49
0
74
0
49
-3.175
74
0
0
LTYPE
5
3A
330
5
100
AcDbSymbolTableRecord
100
AcDbLinetypeTableRecord
2
DASHDOTX2
70
0
3
Dash dot (2x) ____  .  ____  .  ____  .  ___
72
65
73
4
40
50.8
49
25.4
74
0
49
-12.7
74
0
49
0
74
0
49
-12.7
74
0
0
LTYPE
5
3B
330
5
100
AcDbSymbolTableRecord
100
AcDbLinetypeTableRecord
2
DIVIDE
70
0
3
Divide ____ . . ____ . . ____ . . ____ . . ____
72
65
73
6
40
31.75
49
12.7
74
0
49
-6.35
74
0
49
0
74
0
49
-6.35
74
0
49
0
74
0
49
-6.35
74
0
0
LTYPE
5
3C
330
5
100
AcDbSymbolTableRecord
100
AcDbLinetypeTableRecord
2
DIVIDE2
70
0
3
Divide (.5x) __..__..__..__..__..__..__..__.._
72
65
73
6
40
15.875
49
6.35
74
0
49
-3.175
74
0
49
0
74
0
49
-3.175
74
0
49
0
74
0
49
-3.175
74
0
0
LTYPE
5
3D
330
5
100
AcDbSymbolTableRecord
100
AcDbLinetypeTableRecord
2
DIVIDEX2
70
0
3
Divide (2x) ________  .  .  ________  .  .  _
72
65
73
6
40
63.5
49
25.4
74
0
49
-12.7
74
0
49
0
74
0
49
-12.7
74
0
49
0
74
0
49
-12.7
74
0
0
LTYPE
5
3E
330
5
100
AcDbSymbolTableRecord
100
AcDbLinetypeTableRecord
2
BORDER
70
0
3
Border __ __ . __ __ . __ __ . __ __ . __ __ .
72
65
73
6
40
44.45
49
12.7
74
0
49
-6.35
74
0
49
12.7
74
0
49
-6.35
74
0
49
0
74
0
49
-6.35
74
0
0
LTYPE
5
3F
330
5
100
AcDbSymbolTableRecord
100
AcDbLinetypeTableRecord
2
BORDER2
70
0
3
Border (.5x) __.__.__.__.__.__.__.__.__.__.__.
72
65
73
6
40
22.225
49
6.35
74
0
49
-3.175
74
0
49
6.35
74
0
49
-3.175
74
0
49
0
74
0
49
-3.175
74
0
0
LTYPE
5
40
330
5
100
AcDbSymbolTableRecord
100
AcDbLinetypeTableRecord
2
BORDERX2
70
0
3
Border (2x) ____  ____  .  ____  ____  .  ___
72
65
73
6
40
88.9
49
25.4
74
0
49
-12.7
74
0
49
25.4
74
0
49
-12.7
74
0
49
0
74
0
49
-12.7
74
0
0
LTYPE
5
41
330
5
100
AcDbSymbolTableRecord
100
AcDbLinetypeTableRecord
2
CENTER
70
0
3
Center ____ _ ____ _ ____ _ ____ _ ____ _ ____
72
65
73
4
40
50.8
49
31.75
74
0
49
-6.35
74
0
49
6.35
74
0
49
-6.35
74
0
0
LTYPE
5
42
330
5
100
AcDbSymbolTableRecord
100
AcDbLinetypeTableRecord
2
CENTER2
70
0
3
Center (.5x) ___ _ ___ _ ___ _ ___ _ ___ _ ___
72
65
73
4
40
28.575
49
19.05
74
0
49
-3.175
74
0
49
3.175
74
0
49
-3.175
74
0
0
LTYPE
5
43
330
5
100
AcDbSymbolTableRecord
100
AcDbLinetypeTableRecord
2
CENTERX2
70
0
3
Center (2x) ________  __  ________  __  _____
72
65
73
4
40
101.6
49
63.5
74
0
49
-12.7
74
0
49
12.7
74
0
49
-12.7
74
0
0
ENDTAB
0
TABLE
2
LAYER
5
2
330
0
100
AcDbSymbolTable
70
1
0
LAYER
5
10
330
2
100
AcDbSymbolTableRecord
100
AcDbLayerTableRecord
2
0
70
0
62
7
6
CONTINUOUS
370
0
390
F
0
LAYER
5
44
330
2
100
AcDbSymbolTableRecord
100
AcDbLayerTableRecord
2
cutout
70
0
62
7
6
CONTINUOUS
370
0
390
F
0
LAYER
5
45
330
2
100
AcDbSymbolTableRecord
100
AcDbLayerTableRecord
2
outline
70
0
62
7
6
CONTINUOUS
370
0
390
F
0
LAYER
5
46
330
2
100
AcDbSymbolTableRecord
100
AcDbLayerTableRecord
2
bend
70
0
62
7
6
CONTINUOUS
370
0
390
F
0
ENDTAB
0
TABLE
2
STYLE
5
3
330
0
100
AcDbSymbolTable
70
3
0
STYLE
5
47
330
2
100
AcDbSymbolTableRecord
100
AcDbTextStyleTableRecord
2
Standard
70
0
40
0
41
1
50
0
71
0
42
1
3
txt
4

0
ENDTAB
0
TABLE
2
VIEW
5
6
330
0
100
AcDbSymbolTable
70
0
0
ENDTAB
0
TABLE
2
UCS
5
7
330
0
100
AcDbSymbolTable
70
0
0
ENDTAB
0
TABLE
2
APPID
5
9
330
0
100
AcDbSymbolTable
70
1
0
APPID
5
12
330
9
100
AcDbSymbolTableRecord
100
AcDbRegAppTableRecord
2
ACAD
70
0
0
ENDTAB
0
TABLE
2
DIMSTYLE
5
A
330
0
100
AcDbSymbolTable
70
1
100
AcDbDimStyleTable
71
1
0
DIMSTYLE
105
48
330
A
100
AcDbSymbolTableRecord
100
AcDbDimStyleTableRecord
2
Standard
70
0
40
1
41
0.1
42
0.025
43
0.38
44
0.05
45
0
46
0
47
0
48
0
140
0.1
141
0.09
142
0
143
25.4
144
1
145
0
146
1
147
0.025
148
0
71
0
72
0
73
0
74
1
75
0
76
0
77
0
78
0
79
0
170
0
171
2
172
0
173
0
174
0
175
0
176
0
177
0
178
0
179
0
271
4
272
4
273
2
274
2
275
0
276
0
277
2
278
46
279
0
280
0
281
0
282
0
283
1
284
0
285
0
286
0
288
0
289
3
340
Standard
341

371
-2
372
-2
0
ENDTAB
0
TABLE
2
BLOCK_RECORD
5
1
330
0
100
AcDbSymbolTable
70
2
0
BLOCK_RECORD
5
1F
330
1
100
AcDbSymbolTableRecord
100
AcDbBlockTableRecord
2
*Model_Space
70
0
280
1
281
0
0
BLOCK_RECORD
5
1E
330
1
100
AcDbSymbolTableRecord
100
AcDbBlockTableRecord
2
*Paper_Space
70
0
280
1
281
0
0
ENDTAB
0
ENDSEC
0
SECTION
2
BLOCKS
0
BLOCK
5
20
330
1F
100
AcDbEntity
8
0
100
AcDbBlockBegin
2
*Model_Space
70
0
10
0
20
0
30
0
3
*Model_Space
1

0
ENDBLK
5
21
330
1F
100
AcDbEntity
8
0
100
AcDbBlockEnd
0
BLOCK
5
1C
330
1B
100
AcDbEntity
8
0
100
AcDbBlockBegin
2
*Paper_Space
70
0
10
0
20
0
30
0
3
*Paper_Space
1

0
ENDBLK
5
1D
330
1F
100
AcDbEntity
8
0
100
AcDbBlockEnd
0
ENDSEC
0
SECTION
2
ENTITIES
0
CIRCLE
5
49
100
AcDbEntity
8
cutout
6
ByLayer
62
256
370
-1
100
AcDbCircle
10
0.787085664811
20
1.00005747302
40
0.757874
0
CIRCLE
5
4A
100
AcDbEntity
8
cutout
6
ByLayer
62
256
370
-1
100
AcDbCircle
10
0.0834439717633
20
0.296176330096
40
0.0419607569188
0
CIRCLE
5
4B
100
AcDbEntity
8
cutout
6
ByLayer
62
256
370
-1
100
AcDbCircle
10
1.49092427293
20
0.296373385173
40
0.0423228362765
0
CIRCLE
5
4C
100
AcDbEntity
8
cutout
6
ByLayer
62
256
370
-1
100
AcDbCircle
10
1.49072721785
20
1.70385368621
40
0.0423228367224
0
CIRCLE
5
4D
100
AcDbEntity
8
cutout
6
ByLayer
62
256
370
-1
100
AcDbCircle
10
0.0832469161339
20
1.70366718351
40
0.0423228346019
0
CIRCLE
5
4E
100
AcDbEntity
8
cutout
6
ByLayer
62
256
370
-1
100
AcDbCircle
10
3.51715799752
20
1.00012528656
40
0.127952743286
0
CIRCLE
5
4F
100
AcDbEntity
8
cutout
6
ByLayer
62
256
370
-1
100
AcDbCircle
10
4.95255837304
20
-0.0995898783219
40
0.123928765755
0
CIRCLE
5
50
100
AcDbEntity
8
cutout
6
ByLayer
62
256
370
-1
100
AcDbCircle
10
4.96893147254
20
0.497922323826
40
0.085000005278
0
CIRCLE
5
51
100
AcDbEntity
8
cutout
6
ByLayer
62
256
370
-1
100
AcDbCircle
10
5.53678656228
20
1.00032633736
40
0.124999999996
0
CIRCLE
5
52
100
AcDbEntity
8
cutout
6
ByLayer
62
256
370
-1
100
AcDbCircle
10
4.96914052595
20
1.50290679994
40
0.0849999965057
0
CIRCLE
5
53
100
AcDbEntity
8
cutout
6
ByLayer
62
256
370
-1
100
AcDbCircle
10
6.10462391641
20
1.5026919911
40
0.0849751889104
0
CIRCLE
5
54
100
AcDbEntity
8
cutout
6
ByLayer
62
256
370
-1
100
AcDbCircle
10
6.10643218463
20
0.497667666566
40
0.0849992339717
0
CIRCLE
5
55
100
AcDbEntity
8
cutout
6
ByLayer
62
256
370
-1
100
AcDbCircle
10
6.87247287869
20
0.497489747191
40
0.0850000156102
0
CIRCLE
5
56
100
AcDbEntity
8
cutout
6
ByLayer
62
256
370
-1
100
AcDbCircle
10
6.87267972304
20
1.50253336693
40
0.0849992794922
0
CIRCLE
5
57
100
AcDbEntity
8
cutout
6
ByLayer
62
256
370
-1
100
AcDbCircle
10
7.44032724697
20
0.99991348845
40
0.124999261128
0
CIRCLE
5
58
100
AcDbEntity
8
cutout
6
ByLayer
62
256
370
-1
100
AcDbCircle
10
4.95301496346
20
2.10041499272
40
0.124999261129
0
CIRCLE
5
59
100
AcDbEntity
8
cutout
6
ByLayer
62
256
370
-1
100
AcDbCircle
10
8.00816282774
20
1.50231637151
40
0.0849985262116
0
CIRCLE
5
5A
100
AcDbEntity
8
cutout
6
ByLayer
62
256
370
-1
100
AcDbCircle
10
8.009818852
20
0.497291917591
40
0.0849985262115
0
LINE
5
5B
100
AcDbEntity
8
outline
6
ByLayer
62
256
370
-1
100
AcDbLine
10
4.64049167807
20
2.0004624474
11
-0.000631665649823
21
2.00000049934
0
LINE
5
5C
100
AcDbEntity
8
outline
6
ByLayer
62
256
370
-1
100
AcDbLine
10
-0.000631665649823
20
2.00000049934
11
5.52873302695e-10
21
-1.05523768226e-05
0
LINE
5
5D
100
AcDbEntity
8
outline
6
ByLayer
62
256
370
-1
100
AcDbLine
10
5.52873302695e-10
20
-1.05523768226e-05
11
4.6399869706
21
0.000478475361821
0
LINE
5
5E
100
AcDbEntity
8
outline
6
ByLayer
62
256
370
-1
100
AcDbLine
10
4.64049167807
20
2.0004624474
11
4.64102292486
21
2.22579760895
0
ARC
5
5F
100
AcDbEntity
8
outline
6
ByLayer
62
256
370
-1
100
AcDbCircle
10
4.76602257747
20
2.22550291165
40
0.125
100
AcDbArc
50
89.4212438658
51
179.864920581
0
LINE
5
60
100
AcDbEntity
8
outline
6
ByLayer
62
256
370
-1
100
AcDbLine
10
4.76500482929
20
-0.349572986133
11
4.95250747284
21
-0.349611736969
0
LINE
5
61
100
AcDbEntity
8
outline
6
ByLayer
62
256
370
-1
100
AcDbLine
10
4.6399869706
20
0.000478475361821
11
4.64003066517
21
-0.224597255397
0
ARC
5
62
100
AcDbEntity
8
outline
6
ByLayer
62
256
370
-1
100
AcDbCircle
10
4.76503066281
20
-0.224572988803
40
0.125
100
AcDbArc
50
180.011122988
51
269.988158784
0
ARC
5
63
100
AcDbEntity
8
outline
6
ByLayer
62
256
370
-1
100
AcDbCircle
10
8.08897656486
20
1.7247844284
40
0.125
100
AcDbArc
50
359.988021883
51
89.9416269534
0
LINE
5
64
100
AcDbEntity
8
outline
6
ByLayer
62
256
370
-1
100
AcDbLine
10
8.21397656213
20
1.72475829621
11
8.21367342216
21
0.274727263575
0
LINE
5
65
100
AcDbEntity
8
outline
6
ByLayer
62
256
370
-1
100
AcDbLine
10
5.45261711357
20
0.150281822626
11
8.08864836713
21
0.149753398283
0
ARC
5
66
100
AcDbEntity
8
outline
6
ByLayer
62
256
370
-1
100
AcDbCircle
10
8.08867342489
20
0.274753395771
40
0.125
100
AcDbArc
50
269.988514368
51
359.988021883
0
ARC
5
67
100
AcDbEntity
8
outline
6
ByLayer
62
256
370
-1
100
AcDbCircle
10
4.95250747284
20
-0.0996117369691
40
0.250053803838
100
AcDbArc
50
270
51
359.9871043
0
ARC
5
68
100
AcDbEntity
8
outline
6
ByLayer
62
256
370
-1
100
AcDbCircle
10
5.45261711357
20
-0.0996680171837
40
0.250055843223
100
AcDbArc
50
90
51
180
0
LINE
5
69
100
AcDbEntity
8
bend
6
ByLayer
62
256
370
-1
100
AcDbLine
10
1.57430591773
20
2.00013612319
11
1.57480299417
21
0.000135551464713
0
LINE
5
6A
100
AcDbEntity
8
bend
6
ByLayer
62
256
370
-1
100
AcDbLine
10
4.64049167807
20
2.0004624474
11
4.64007863393
21
0.000448212208461
0
ARC
5
6B
100
AcDbEntity
8
outline
6
ByLayer
62
256
370
-1
100
AcDbCircle
10
4.95306734771
20
2.10038296621
40
0.249947963447
100
AcDbArc
50
0
51
90
0
LINE
5
6C
100
AcDbEntity
8
outline
6
ByLayer
62
256
370
-1
100
AcDbLine
10
4.76728520601
20
2.35049653456
11
4.95306734771
21
2.35033092966
0
ARC
5
6D
100
AcDbEntity
8
outline
6
ByLayer
62
256
370
-1
100
AcDbCircle
10
5.45074531116
20
2.10038268284
40
0.24773
100
AcDbArc
50
179.999934461
51
270
0
LINE
5
6E
100
AcDbEntity
8
outline
6
ByLayer
62
256
370
-1
100
AcDbLine
10
5.45484875314
20
1.85268667023
11
8.08910391507
21
1.84978436353
0
LINE
5
6F
100
AcDbEntity
8
outline
6
ByLayer
62
256
370
-1
100
AcDbLine
10
5.45074531116
20
1.85265268284
11
5.45484875314
21
1.85268667023
0
CIRCLE
5
70
100
AcDbEntity
8
cutout
6
ByLayer
62
256
370
-1
100
AcDbCircle
10
4.64049167807
20
2.0004624474
40
0.065
0
CIRCLE
5
71
100
AcDbEntity
8
cutout
6
ByLayer
62
256
370
-1
100
AcDbCircle
10
1.57430591773
20
2.00013612319
40
0.065
0
CIRCLE
5
72
100
AcDbEntity
8
cutout
6
ByLayer
62
256
370
-1
100
AcDbCircle
10
1.57480299417
20
0.000135551464713
40
0.065
0
CIRCLE
5
73
100
AcDbEntity
8
cutout
6
ByLayer
62
256
370
-1
100
AcDbCircle
10
4.6399869706
20
0.000478475361821
40
0.065
0
ENDSEC
0
SECTION
2
OBJECTS
0
DICTIONARY
5
C
330
0
100
AcDbDictionary
281
1
3
ACAD_GROUP
350
D
0
DICTIONARY
5
D
330
C
100
AcDbDictionary
281
1
0
ENDSEC
0
EOF
