999
dxfrw 0.5.10
0
SECTION
2
HEADER
9
$ACADVER
1
AC1021
9
$HANDSEED
5
20000
9
$DWGCODEPAGE
3
ANSI_1252
9
$INSBASE
10
0
20
0
30
0
9
$EXTMIN
10
-3.04346770008e-10
20
-4.41878437838e-10
30
0
9
$EXTMAX
10
19.0000000002
20
11.4999999984
30
0
9
$LIMMIN
10
0
20
0
9
$LIMMAX
10
420
20
297
9
$ORTHOMODE
70
0
9
$LTSCALE
40
1
9
$TEXTSTYLE
7
STANDARD
9
$DIMASZ
40
0.1
9
$DIMSCALE
40
1
9
$DIMEXO
40
0.025
9
$DIMEXE
40
0.05
9
$DIMTXT
40
0.1
9
$DIMTSZ
40
0
9
$DIMAUNIT
70
0
9
$DIMADEC
70
0
9
$DIMLUNIT
70
2
9
$DIMSTYLE
2
Standard
9
$DIMGAP
40
0.025
9
$DIMTIH
70
0
9
$LUNITS
70
2
9
$LUPREC
70
4
9
$AUNITS
70
0
9
$AUPREC
70
2
9
$SPLINESEGS
70
8
9
$SNAPSTYLE
70
0
9
$PINSBASE
10
0
20
0
30
0
9
$PLIMMIN
10
0
20
0
9
$PLIMMAX
10
0.0170500341001
20
0.0131750263501
9
$INSUNITS
70
1
9
$PSVPSCALE
40
1
0
ENDSEC
0
SECTION
2
CLASSES
0
ENDSEC
0
SECTION
2
TABLES
0
TABLE
2
VPORT
5
8
330
0
100
AcDbSymbolTable
70
1
0
VPORT
5
31
330
2
100
AcDbSymbolTableRecord
100
AcDbViewportTableRecord
2
*ACTIVE
70
0
10
0
20
0
11
1
21
1
12
12.07959552
22
11.13587712
13
0
23
0
14
10
24
10
15
10
25
10
16
0
26
0
36
1
17
0
27
0
37
0
40
31.0378496
41
1.42972972973
42
50
43
0
44
0
50
0
51
0
71
0
72
100
73
1
74
3
75
0
76
1
77
0
78
0
281
0
65
1
110
0
120
0
130
0
111
1
121
0
131
0
112
0
122
1
132
0
79
0
146
0
348
10020
60
7
61
5
292
1
282
1
141
0
142
0
63
250
421
3358443
0
ENDTAB
0
TABLE
2
LTYPE
5
5
330
0
100
AcDbSymbolTable
70
4
0
LTYPE
5
14
330
5
100
AcDbSymbolTableRecord
100
AcDbLinetypeTableRecord
2
ByBlock
70
0
3

72
65
73
0
40
0
0
LTYPE
5
15
330
5
100
AcDbSymbolTableRecord
100
AcDbLinetypeTableRecord
2
ByLayer
70
0
3

72
65
73
0
40
0
0
LTYPE
5
16
330
5
100
AcDbSymbolTableRecord
100
AcDbLinetypeTableRecord
2
Continuous
70
0
3
Solid line
72
65
73
0
40
0
0
LTYPE
5
32
330
5
100
AcDbSymbolTableRecord
100
AcDbLinetypeTableRecord
2
DOT
70
0
3
Dot . . . . . . . . . . . . . . . . . . . . . .
72
65
73
2
40
6.35
49
0
74
0
49
-6.35
74
0
0
LTYPE
5
33
330
5
100
AcDbSymbolTableRecord
100
AcDbLinetypeTableRecord
2
DOT2
70
0
3
Dot (.5x) .....................................
72
65
73
2
40
3.175
49
0
74
0
49
-3.175
74
0
0
LTYPE
5
34
330
5
100
AcDbSymbolTableRecord
100
AcDbLinetypeTableRecord
2
DOTX2
70
0
3
Dot (2x) .  .  .  .  .  .  .  .  .  .  .  .  .
72
65
73
2
40
12.7
49
0
74
0
49
-12.7
74
0
0
LTYPE
5
35
330
5
100
AcDbSymbolTableRecord
100
AcDbLinetypeTableRecord
2
DASHED
70
0
3
Dot . . . . . . . . . . . . . . . . . . . . . .
72
65
73
2
40
19.05
49
12.7
74
0
49
-6.35
74
0
0
LTYPE
5
36
330
5
100
AcDbSymbolTableRecord
100
AcDbLinetypeTableRecord
2
DASHED2
70
0
3
Dashed (.5x) _ _ _ _ _ _ _ _ _ _ _ _ _ _ _ _ _
72
65
73
2
40
9.525
49
6.35
74
0
49
-3.175
74
0
0
LTYPE
5
37
330
5
100
AcDbSymbolTableRecord
100
AcDbLinetypeTableRecord
2
DASHEDX2
70
0
3
Dashed (2x) ____  ____  ____  ____  ____  ___
72
65
73
2
40
38.1
49
25.4
74
0
49
-12.7
74
0
0
LTYPE
5
38
330
5
100
AcDbSymbolTableRecord
100
AcDbLinetypeTableRecord
2
DASHDOT
70
0
3
Dash dot __ . __ . __ . __ . __ . __ . __ . __
72
65
73
4
40
25.4
49
12.7
74
0
49
-6.35
74
0
49
0
74
0
49
-6.35
74
0
0
LTYPE
5
39
330
5
100
AcDbSymbolTableRecord
100
AcDbLinetypeTableRecord
2
DASHDOT2
70
0
3
Dash dot (.5x) _._._._._._._._._._._._._._._.
72
65
73
4
40
12.7
49
6.35
74
0
49
-3.175
74
0
49
0
74
0
49
-3.175
74
0
0
LTYPE
5
3A
330
5
100
AcDbSymbolTableRecord
100
AcDbLinetypeTableRecord
2
DASHDOTX2
70
0
3
Dash dot (2x) ____  .  ____  .  ____  .  ___
72
65
73
4
40
50.8
49
25.4
74
0
49
-12.7
74
0
49
0
74
0
49
-12.7
74
0
0
LTYPE
5
3B
330
5
100
AcDbSymbolTableRecord
100
AcDbLinetypeTableRecord
2
DIVIDE
70
0
3
Divide ____ . . ____ . . ____ . . ____ . . ____
72
65
73
6
40
31.75
49
12.7
74
0
49
-6.35
74
0
49
0
74
0
49
-6.35
74
0
49
0
74
0
49
-6.35
74
0
0
LTYPE
5
3C
330
5
100
AcDbSymbolTableRecord
100
AcDbLinetypeTableRecord
2
DIVIDE2
70
0
3
Divide (.5x) __..__..__..__..__..__..__..__.._
72
65
73
6
40
15.875
49
6.35
74
0
49
-3.175
74
0
49
0
74
0
49
-3.175
74
0
49
0
74
0
49
-3.175
74
0
0
LTYPE
5
3D
330
5
100
AcDbSymbolTableRecord
100
AcDbLinetypeTableRecord
2
DIVIDEX2
70
0
3
Divide (2x) ________  .  .  ________  .  .  _
72
65
73
6
40
63.5
49
25.4
74
0
49
-12.7
74
0
49
0
74
0
49
-12.7
74
0
49
0
74
0
49
-12.7
74
0
0
LTYPE
5
3E
330
5
100
AcDbSymbolTableRecord
100
AcDbLinetypeTableRecord
2
BORDER
70
0
3
Border __ __ . __ __ . __ __ . __ __ . __ __ .
72
65
73
6
40
44.45
49
12.7
74
0
49
-6.35
74
0
49
12.7
74
0
49
-6.35
74
0
49
0
74
0
49
-6.35
74
0
0
LTYPE
5
3F
330
5
100
AcDbSymbolTableRecord
100
AcDbLinetypeTableRecord
2
BORDER2
70
0
3
Border (.5x) __.__.__.__.__.__.__.__.__.__.__.
72
65
73
6
40
22.225
49
6.35
74
0
49
-3.175
74
0
49
6.35
74
0
49
-3.175
74
0
49
0
74
0
49
-3.175
74
0
0
LTYPE
5
40
330
5
100
AcDbSymbolTableRecord
100
AcDbLinetypeTableRecord
2
BORDERX2
70
0
3
Border (2x) ____  ____  .  ____  ____  .  ___
72
65
73
6
40
88.9
49
25.4
74
0
49
-12.7
74
0
49
25.4
74
0
49
-12.7
74
0
49
0
74
0
49
-12.7
74
0
0
LTYPE
5
41
330
5
100
AcDbSymbolTableRecord
100
AcDbLinetypeTableRecord
2
CENTER
70
0
3
Center ____ _ ____ _ ____ _ ____ _ ____ _ ____
72
65
73
4
40
50.8
49
31.75
74
0
49
-6.35
74
0
49
6.35
74
0
49
-6.35
74
0
0
LTYPE
5
42
330
5
100
AcDbSymbolTableRecord
100
AcDbLinetypeTableRecord
2
CENTER2
70
0
3
Center (.5x) ___ _ ___ _ ___ _ ___ _ ___ _ ___
72
65
73
4
40
28.575
49
19.05
74
0
49
-3.175
74
0
49
3.175
74
0
49
-3.175
74
0
0
LTYPE
5
43
330
5
100
AcDbSymbolTableRecord
100
AcDbLinetypeTableRecord
2
CENTERX2
70
0
3
Center (2x) ________  __  ________  __  _____
72
65
73
4
40
101.6
49
63.5
74
0
49
-12.7
74
0
49
12.7
74
0
49
-12.7
74
0
0
ENDTAB
0
TABLE
2
LAYER
5
2
330
0
100
AcDbSymbolTable
70
1
0
LAYER
5
10
330
2
100
AcDbSymbolTableRecord
100
AcDbLayerTableRecord
2
0
70
0
62
7
6
CONTINUOUS
370
0
390
F
0
LAYER
5
44
330
2
100
AcDbSymbolTableRecord
100
AcDbLayerTableRecord
2
cutout
70
0
62
7
6
CONTINUOUS
370
0
390
F
0
ENDTAB
0
TABLE
2
STYLE
5
3
330
0
100
AcDbSymbolTable
70
3
0
STYLE
5
45
330
2
100
AcDbSymbolTableRecord
100
AcDbTextStyleTableRecord
2
Standard
70
0
40
0
41
1
50
0
71
0
42
1
3
txt
4

0
ENDTAB
0
TABLE
2
VIEW
5
6
330
0
100
AcDbSymbolTable
70
0
0
ENDTAB
0
TABLE
2
UCS
5
7
330
0
100
AcDbSymbolTable
70
0
0
ENDTAB
0
TABLE
2
APPID
5
9
330
0
100
AcDbSymbolTable
70
1
0
APPID
5
12
330
9
100
AcDbSymbolTableRecord
100
AcDbRegAppTableRecord
2
ACAD
70
0
0
ENDTAB
0
TABLE
2
DIMSTYLE
5
A
330
0
100
AcDbSymbolTable
70
1
100
AcDbDimStyleTable
71
1
0
DIMSTYLE
105
46
330
A
100
AcDbSymbolTableRecord
100
AcDbDimStyleTableRecord
2
Standard
70
0
40
1
41
0.1
42
0.025
43
0.38
44
0.05
45
0
46
0
47
0
48
0
140
0.1
141
0.09
142
0
143
25.4
144
1
145
0
146
1
147
0.025
148
0
71
0
72
0
73
0
74
1
75
0
76
0
77
0
78
0
79
0
170
0
171
2
172
0
173
0
174
0
175
0
176
0
177
0
178
0
179
0
271
4
272
4
273
2
274
2
275
0
276
0
277
2
278
46
279
0
280
0
281
0
282
0
283
1
284
0
285
0
286
0
288
0
289
3
340
Standard
341

371
-2
372
-2
0
ENDTAB
0
TABLE
2
BLOCK_RECORD
5
1
330
0
100
AcDbSymbolTable
70
2
0
BLOCK_RECORD
5
1F
330
1
100
AcDbSymbolTableRecord
100
AcDbBlockTableRecord
2
*Model_Space
70
0
280
1
281
0
0
BLOCK_RECORD
5
1E
330
1
100
AcDbSymbolTableRecord
100
AcDbBlockTableRecord
2
*Paper_Space
70
0
280
1
281
0
0
ENDTAB
0
ENDSEC
0
SECTION
2
BLOCKS
0
BLOCK
5
20
330
1F
100
AcDbEntity
8
0
100
AcDbBlockBegin
2
*Model_Space
70
0
10
0
20
0
30
0
3
*Model_Space
1

0
ENDBLK
5
21
330
1F
100
AcDbEntity
8
0
100
AcDbBlockEnd
0
BLOCK
5
1C
330
1B
100
AcDbEntity
8
0
100
AcDbBlockBegin
2
*Paper_Space
70
0
10
0
20
0
30
0
3
*Paper_Space
1

0
ENDBLK
5
1D
330
1F
100
AcDbEntity
8
0
100
AcDbBlockEnd
0
ENDSEC
0
SECTION
2
ENTITIES
0
LINE
5
47
100
AcDbEntity
8
0
6
ByLayer
62
256
370
-1
100
AcDbLine
10
-2.76678235878e-10
20
11.4999999981
11
19.0000000002
21
11.4999999984
0
LINE
5
48
100
AcDbEntity
8
0
6
ByLayer
62
256
370
-1
100
AcDbLine
10
19.0000000002
20
11.4999999984
11
19.0000000002
21
5.9999999993
0
LINE
5
49
100
AcDbEntity
8
0
6
ByLayer
62
256
370
-1
100
AcDbLine
10
19.0000000002
20
5.9999999993
11
17.5000000007
21
5.9999999993
0
LINE
5
4A
100
AcDbEntity
8
0
6
ByLayer
62
256
370
-1
100
AcDbLine
10
1.50000000067
20
5.9999999993
11
-3.04346770008e-10
21
5.9999999993
0
LINE
5
4B
100
AcDbEntity
8
0
6
ByLayer
62
256
370
-1
100
AcDbLine
10
-3.04346770008e-10
20
5.9999999993
11
-3.04346770008e-10
21
11.4999999984
0
LINE
5
4C
100
AcDbEntity
8
0
6
ByLayer
62
256
370
-1
100
AcDbLine
10
-3.04346770008e-10
20
5.4999999993
11
19.0000000002
21
5.49999999903
0
LINE
5
4D
100
AcDbEntity
8
0
6
ByLayer
62
256
370
-1
100
AcDbLine
10
19.0000000002
20
5.49999999903
11
19.0000000002
21
-2.76643684744e-11
0
LINE
5
4E
100
AcDbEntity
8
0
6
ByLayer
62
256
370
-1
100
AcDbLine
10
19.0000000002
20
-2.76643684744e-11
11
17.5000000002
21
-4.41831208256e-10
0
LINE
5
4F
100
AcDbEntity
8
0
6
ByLayer
62
256
370
-1
100
AcDbLine
10
1.49999999972
20
-2.7616067327e-11
11
-2.76685341305e-10
21
-2.766320506e-11
0
LINE
5
50
100
AcDbEntity
8
0
6
ByLayer
62
256
370
-1
100
AcDbLine
10
-2.76685341305e-10
20
-2.766320506e-11
11
-2.76685341305e-10
21
5.49999999903
0
LINE
5
51
100
AcDbEntity
8
cutout
6
ByLayer
62
256
370
-1
100
AcDbLine
10
2.25000000067
20
9.79822834359
11
2.00000000067
21
9.49999999713
0
LINE
5
52
100
AcDbEntity
8
cutout
6
ByLayer
62
256
370
-1
100
AcDbLine
10
3.15551181169
20
7.24999999713
11
3.40551181169
21
6.99999999713
0
LINE
5
53
100
AcDbEntity
8
cutout
6
ByLayer
62
256
370
-1
100
AcDbLine
10
3.21399999972
20
1.90999999997
11
3.21399999972
21
1.09299999997
0
LINE
5
54
100
AcDbEntity
8
cutout
6
ByLayer
62
256
370
-1
100
AcDbLine
10
3.21399999972
20
1.09299999997
11
3.78599999972
21
1.09299999997
0
LINE
5
55
100
AcDbEntity
8
cutout
6
ByLayer
62
256
370
-1
100
AcDbLine
10
3.78599999972
20
1.09299999997
11
3.78599999972
21
1.90999999997
0
LINE
5
56
100
AcDbEntity
8
cutout
6
ByLayer
62
256
370
-1
100
AcDbLine
10
3.78599999972
20
1.90999999997
11
3.21399999972
21
1.90999999997
0
CIRCLE
5
57
100
AcDbEntity
8
cutout
6
ByLayer
62
256
370
-1
100
AcDbCircle
10
0.749999999723
20
2.97095199903
40
0.156
0
CIRCLE
5
58
100
AcDbEntity
8
cutout
6
ByLayer
62
256
370
-1
100
AcDbCircle
10
0.749999999703
20
4.74999999916
40
0.15600000002
0
CIRCLE
5
59
100
AcDbEntity
8
cutout
6
ByLayer
62
256
370
-1
100
AcDbCircle
10
0.749999999701
20
0.723577999168
40
0.156000000022
0
CIRCLE
5
5A
100
AcDbEntity
8
cutout
6
ByLayer
62
256
370
-1
100
AcDbCircle
10
2.99999999971
20
1.25000000012
40
0.0659805312077
0
CIRCLE
5
5B
100
AcDbEntity
8
cutout
6
ByLayer
62
256
370
-1
100
AcDbCircle
10
2.99999999971
20
1.75000000012
40
0.0683080723304
0
CIRCLE
5
5C
100
AcDbEntity
8
cutout
6
ByLayer
62
256
370
-1
100
AcDbCircle
10
3.9999999997
20
1.75000000026
40
0.0665498745914
0
CIRCLE
5
5D
100
AcDbEntity
8
cutout
6
ByLayer
62
256
370
-1
100
AcDbCircle
10
3.99999999972
20
1.24999999997
40
0.0688975000254
0
CIRCLE
5
5E
100
AcDbEntity
8
cutout
6
ByLayer
62
256
370
-1
100
AcDbCircle
10
4.31983222674
20
4.98528499916
40
0.235456157875
0
CIRCLE
5
5F
100
AcDbEntity
8
cutout
6
ByLayer
62
256
370
-1
100
AcDbCircle
10
3.62008241494
20
4.98579821286
40
0.107999970965
0
CIRCLE
5
60
100
AcDbEntity
8
cutout
6
ByLayer
62
256
370
-1
100
AcDbCircle
10
5.01958203855
20
4.98477178531
40
0.10707601623
0
CIRCLE
5
61
100
AcDbEntity
8
cutout
6
ByLayer
62
256
370
-1
100
AcDbCircle
10
8.16494253701
20
5.12499999916
40
0.108185037022
0
CIRCLE
5
62
100
AcDbEntity
8
cutout
6
ByLayer
62
256
370
-1
100
AcDbCircle
10
8.16494253701
20
4.22145669207
40
0.109000000013
0
CIRCLE
5
63
100
AcDbEntity
8
cutout
6
ByLayer
62
256
370
-1
100
AcDbCircle
10
9.664942537
20
5.1249999993
40
0.108999999975
0
CIRCLE
5
64
100
AcDbEntity
8
cutout
6
ByLayer
62
256
370
-1
100
AcDbCircle
10
9.66494253701
20
4.22145669207
40
0.108067489858
0
CIRCLE
5
65
100
AcDbEntity
8
cutout
6
ByLayer
62
256
370
-1
100
AcDbCircle
10
14.6732389197
20
4.991818694
40
0.23622
0
CIRCLE
5
66
100
AcDbEntity
8
cutout
6
ByLayer
62
256
370
-1
100
AcDbCircle
10
13.9734891079
20
4.9923319077
40
0.10707601623
0
CIRCLE
5
67
100
AcDbEntity
8
cutout
6
ByLayer
62
256
370
-1
100
AcDbCircle
10
15.3729887315
20
4.9913054803
40
0.108000000022
0
CIRCLE
5
68
100
AcDbEntity
8
cutout
6
ByLayer
62
256
370
-1
100
AcDbCircle
10
18.2500000002
20
4.74999999917
40
0.155999999978
0
CIRCLE
5
69
100
AcDbEntity
8
cutout
6
ByLayer
62
256
370
-1
100
AcDbCircle
10
18.2500000002
20
2.97095199903
40
0.156
0
CIRCLE
5
6A
100
AcDbEntity
8
cutout
6
ByLayer
62
256
370
-1
100
AcDbCircle
10
18.2500000002
20
0.843188999025
40
0.156
0
CIRCLE
5
6B
100
AcDbEntity
8
cutout
6
ByLayer
62
256
370
-1
100
AcDbCircle
10
0.750000000079
20
10.7499999982
40
0.15600000001
0
CIRCLE
5
6C
100
AcDbEntity
8
cutout
6
ByLayer
62
256
370
-1
100
AcDbCircle
10
0.750000000197
20
8.74999999863
40
0.155999999929
0
CIRCLE
5
6D
100
AcDbEntity
8
cutout
6
ByLayer
62
256
370
-1
100
AcDbCircle
10
1.96653543371
20
9.87992125725
40
0.0688976377676
0
CIRCLE
5
6E
100
AcDbEntity
8
cutout
6
ByLayer
62
256
370
-1
100
AcDbCircle
10
3.61936174287
20
10.9914289062
40
0.10799999995
0
CIRCLE
5
6F
100
AcDbEntity
8
cutout
6
ByLayer
62
256
370
-1
100
AcDbCircle
10
2.89173228411
20
6.96653543048
40
0.0688976377676
0
CIRCLE
5
70
100
AcDbEntity
8
cutout
6
ByLayer
62
256
370
-1
100
AcDbCircle
10
0.750000000197
20
8.74999999863
40
0.154665398331
0
CIRCLE
5
71
100
AcDbEntity
8
cutout
6
ByLayer
62
256
370
-1
100
AcDbCircle
10
0.750000000192
20
6.74999999916
40
0.15600000001
0
CIRCLE
5
72
100
AcDbEntity
8
cutout
6
ByLayer
62
256
370
-1
100
AcDbCircle
10
4.31983223479
20
10.9852849973
40
0.234497570734
0
CIRCLE
5
73
100
AcDbEntity
8
cutout
6
ByLayer
62
256
370
-1
100
AcDbCircle
10
5.01886174288
20
10.991428906
40
0.107999999979
0
CIRCLE
5
74
100
AcDbEntity
8
cutout
6
ByLayer
62
256
370
-1
100
AcDbCircle
10
7.43897637861
20
9.87992125711
40
0.0688976377814
0
CIRCLE
5
75
100
AcDbEntity
8
cutout
6
ByLayer
62
256
370
-1
100
AcDbCircle
10
8.91900000109
20
9.54457721306
40
0.108999999986
0
CIRCLE
5
76
100
AcDbEntity
8
cutout
6
ByLayer
62
256
370
-1
100
AcDbCircle
10
10.0810000013
20
9.54457721349
40
0.109
0
CIRCLE
5
77
100
AcDbEntity
8
cutout
6
ByLayer
62
256
370
-1
100
AcDbCircle
10
10.0810000016
20
8.72732721371
40
0.108999999986
0
CIRCLE
5
78
100
AcDbEntity
8
cutout
6
ByLayer
62
256
370
-1
100
AcDbCircle
10
8.91900000176
20
8.72732721315
40
0.109000000015
0
CIRCLE
5
79
100
AcDbEntity
8
cutout
6
ByLayer
62
256
370
-1
100
AcDbCircle
10
7.43897637861
20
6.96653543034
40
0.0688976377814
0
CIRCLE
5
7A
100
AcDbEntity
8
cutout
6
ByLayer
62
256
370
-1
100
AcDbCircle
10
13.9727684358
20
10.9979626012
40
0.107999999998
0
CIRCLE
5
7B
100
AcDbEntity
8
cutout
6
ByLayer
62
256
370
-1
100
AcDbCircle
10
14.6732389277
20
10.9918186924
40
0.234497570724
0
CIRCLE
5
7C
100
AcDbEntity
8
cutout
6
ByLayer
62
256
370
-1
100
AcDbCircle
10
15.3722684358
20
10.9979626012
40
0.10431999237
0
CIRCLE
5
7D
100
AcDbEntity
8
cutout
6
ByLayer
62
256
370
-1
100
AcDbCircle
10
18.2500000004
20
10.749999998
40
0.156
0
CIRCLE
5
7E
100
AcDbEntity
8
cutout
6
ByLayer
62
256
370
-1
100
AcDbCircle
10
18.2500000004
20
8.74999999848
40
0.156000000008
0
CIRCLE
5
7F
100
AcDbEntity
8
cutout
6
ByLayer
62
256
370
-1
100
AcDbCircle
10
18.2500000004
20
6.74999999911
40
0.155999999998
0
LINE
5
80
100
AcDbEntity
8
cutout
6
ByLayer
62
256
370
-1
100
AcDbLine
10
2.00000000067
20
9.49999999713
11
1.82000000067
21
9.49999999713
0
ARC
5
81
100
AcDbEntity
8
cutout
6
ByLayer
62
256
370
-1
100
AcDbCircle
10
1.82000000067
20
9.42999999713
40
0.07
100
AcDbArc
50
90
51
180
0
LINE
5
82
100
AcDbEntity
8
cutout
6
ByLayer
62
256
370
-1
100
AcDbLine
10
1.82000000067
20
7.24999999713
11
3.15551181169
21
7.24999999713
0
LINE
5
83
100
AcDbEntity
8
cutout
6
ByLayer
62
256
370
-1
100
AcDbLine
10
1.75000000067
20
9.42999999713
11
1.75000000067
21
7.31999999713
0
ARC
5
84
100
AcDbEntity
8
cutout
6
ByLayer
62
256
370
-1
100
AcDbCircle
10
1.82000000067
20
7.31999999713
40
0.07
100
AcDbArc
50
180
51
270
0
LINE
5
85
100
AcDbEntity
8
cutout
6
ByLayer
62
256
370
-1
100
AcDbLine
10
3.40551181169
20
6.99999999713
11
3.40551181169
21
6.81999999713
0
ARC
5
86
100
AcDbEntity
8
cutout
6
ByLayer
62
256
370
-1
100
AcDbCircle
10
3.47551181169
20
6.81999999713
40
0.07
100
AcDbArc
50
180
51
270
0
LINE
5
87
100
AcDbEntity
8
cutout
6
ByLayer
62
256
370
-1
100
AcDbLine
10
3.47551181169
20
6.74999999713
11
6.8680489486
21
6.74999999713
0
ARC
5
88
100
AcDbEntity
8
cutout
6
ByLayer
62
256
370
-1
100
AcDbCircle
10
6.8680489486
20
6.81999999713
40
0.07
100
AcDbArc
50
270
51
326.309932474
0
LINE
5
89
100
AcDbEntity
8
cutout
6
ByLayer
62
256
370
-1
100
AcDbLine
10
6.9262924692
20
6.7811709834
11
7.3937553323
21
7.48236527804
0
ARC
5
8A
100
AcDbEntity
8
cutout
6
ByLayer
62
256
370
-1
100
AcDbCircle
10
7.33551181169
20
7.52119429177
40
0.07
100
AcDbArc
50
326.309932474
51
0
0
LINE
5
8B
100
AcDbEntity
8
cutout
6
ByLayer
62
256
370
-1
100
AcDbLine
10
7.40551181169
20
7.52119429177
11
7.40551181169
21
9.56746174068
0
ARC
5
8C
100
AcDbEntity
8
cutout
6
ByLayer
62
256
370
-1
100
AcDbCircle
10
7.33551181169
20
9.56746174068
40
0.07
100
AcDbArc
50
0
51
45
0
LINE
5
8D
100
AcDbEntity
8
cutout
6
ByLayer
62
256
370
-1
100
AcDbLine
10
7.38500928638
20
9.61695921536
11
6.92601433701
21
10.0759541647
0
ARC
5
8E
100
AcDbEntity
8
cutout
6
ByLayer
62
256
370
-1
100
AcDbCircle
10
6.87651686233
20
10.02645669
40
0.07
100
AcDbArc
50
45
51
90
0
LINE
5
8F
100
AcDbEntity
8
cutout
6
ByLayer
62
256
370
-1
100
AcDbLine
10
6.87651686233
20
10.09645669
11
2.32000000067
21
10.09645669
0
LINE
5
90
100
AcDbEntity
8
cutout
6
ByLayer
62
256
370
-1
100
AcDbLine
10
2.25000000067
20
10.02645669
11
2.25000000067
21
9.79822834359
0
ARC
5
91
100
AcDbEntity
8
cutout
6
ByLayer
62
256
370
-1
100
AcDbCircle
10
2.32000000067
20
10.02645669
40
0.07
100
AcDbArc
50
90
51
180
0
CIRCLE
5
92
100
AcDbEntity
8
cutout
6
ByLayer
62
256
370
-1
100
AcDbCircle
10
3.21399999972
20
1.90999999997
40
0.065
0
CIRCLE
5
93
100
AcDbEntity
8
cutout
6
ByLayer
62
256
370
-1
100
AcDbCircle
10
3.78599999972
20
1.90999999997
40
0.065
0
CIRCLE
5
94
100
AcDbEntity
8
cutout
6
ByLayer
62
256
370
-1
100
AcDbCircle
10
3.21399999972
20
1.09299999997
40
0.065
0
CIRCLE
5
95
100
AcDbEntity
8
cutout
6
ByLayer
62
256
370
-1
100
AcDbCircle
10
3.78599999972
20
1.09299999997
40
0.065
0
LINE
5
96
100
AcDbEntity
8
0
6
ByLayer
62
256
370
-1
100
AcDbLine
10
1.97949747441
20
0.479497474655
11
1.49999999972
21
-2.7616067327e-11
0
ARC
5
97
100
AcDbEntity
8
0
6
ByLayer
62
256
370
-1
100
AcDbCircle
10
2.02899494909
20
0.429999999972
40
0.07
100
AcDbArc
50
89.9999999984
51
135
0
LINE
5
98
100
AcDbEntity
8
0
6
ByLayer
62
256
370
-1
100
AcDbLine
10
2.07118388406
20
6.48343141255
11
1.50000000067
21
5.9999999993
0
ARC
5
99
100
AcDbEntity
8
0
6
ByLayer
62
256
370
-1
100
AcDbCircle
10
2.11640648989
20
6.4299999993
40
0.07
100
AcDbArc
50
90
51
130.243487742
0
LINE
5
9A
100
AcDbEntity
8
0
6
ByLayer
62
256
370
-1
100
AcDbLine
10
17.5000000007
20
5.9999999993
11
17.020502526
21
6.47949747399
0
LINE
5
9B
100
AcDbEntity
8
0
6
ByLayer
62
256
370
-1
100
AcDbLine
10
16.9710050513
20
6.4999999993
11
2.11640648989
21
6.4999999993
0
ARC
5
9C
100
AcDbEntity
8
0
6
ByLayer
62
256
370
-1
100
AcDbCircle
10
16.9710050513
20
6.4299999993
40
0.07
100
AcDbArc
50
45
51
90
0
LINE
5
9D
100
AcDbEntity
8
0
6
ByLayer
62
256
370
-1
100
AcDbLine
10
17.5000000002
20
-4.41831208256e-10
11
17.0205025255
21
0.479497474242
0
LINE
5
9E
100
AcDbEntity
8
0
6
ByLayer
62
256
370
-1
100
AcDbLine
10
16.9710050508
20
0.499999999559
11
2.02899494909
21
0.499999999972
0
ARC
5
9F
100
AcDbEntity
8
0
6
ByLayer
62
256
370
-1
100
AcDbCircle
10
16.9710050508
20
0.429999999559
40
0.07
100
AcDbArc
50
45
51
89.9999999984
0
ENDSEC
0
SECTION
2
OBJECTS
0
DICTIONARY
5
C
330
0
100
AcDbDictionary
281
1
3
ACAD_GROUP
350
D
0
DICTIONARY
5
D
330
C
100
AcDbDictionary
281
1
0
ENDSEC
0
EOF
