999
dxfrw 0.5.10
0
SECTION
2
HEADER
9
$ACADVER
1
AC1021
9
$HANDSEED
5
20000
9
$DWGCODEPAGE
3
ANSI_1252
9
$INSBASE
10
0
20
0
30
0
9
$EXTMIN
10
-0.00020463969017
20
-0.0649361076132
30
0
9
$EXTMAX
10
5.93620454708
20
2.2230330537
30
0
9
$LIMMIN
10
0
20
0
9
$LIMMAX
10
420
20
297
9
$ORTHOMODE
70
0
9
$LTSCALE
40
1
9
$TEXTSTYLE
7
STANDARD
9
$DIMASZ
40
0.1
9
$DIMSCALE
40
1
9
$DIMEXO
40
0.025
9
$DIMEXE
40
0.05
9
$DIMTXT
40
0.1
9
$DIMTSZ
40
0
9
$DIMAUNIT
70
0
9
$DIMADEC
70
0
9
$DIMLUNIT
70
2
9
$DIMSTYLE
2
Standard
9
$DIMGAP
40
0.025
9
$DIMTIH
70
0
9
$LUNITS
70
2
9
$LUPREC
70
4
9
$AUNITS
70
0
9
$AUPREC
70
2
9
$SPLINESEGS
70
8
9
$SNAPSTYLE
70
0
9
$PINSBASE
10
0
20
0
30
0
9
$PLIMMIN
10
0
20
0
9
$PLIMMAX
10
4.77216932881e-11
20
6.7492109079e-11
9
$INSUNITS
70
1
9
$PSVPSCALE
40
1
0
ENDSEC
0
SECTION
2
CLASSES
0
ENDSEC
0
SECTION
2
TABLES
0
TABLE
2
VPORT
5
8
330
0
100
AcDbSymbolTable
70
1
0
VPORT
5
31
330
2
100
AcDbSymbolTableRecord
100
AcDbViewportTableRecord
2
*ACTIVE
70
0
10
0
20
0
11
1
21
1
12
3.68336395305
22
3.69985662747
13
0
23
0
14
10
24
10
15
10
25
10
16
0
26
0
36
1
17
0
27
0
37
0
40
8.13638604554
41
1.42972972973
42
50
43
0
44
0
50
0
51
0
71
0
72
100
73
1
74
3
75
0
76
1
77
0
78
0
281
0
65
1
110
0
120
0
130
0
111
1
121
0
131
0
112
0
122
1
132
0
79
0
146
0
348
10020
60
7
61
5
292
1
282
1
141
0
142
0
63
250
421
3358443
0
ENDTAB
0
TABLE
2
LTYPE
5
5
330
0
100
AcDbSymbolTable
70
4
0
LTYPE
5
14
330
5
100
AcDbSymbolTableRecord
100
AcDbLinetypeTableRecord
2
ByBlock
70
0
3

72
65
73
0
40
0
0
LTYPE
5
15
330
5
100
AcDbSymbolTableRecord
100
AcDbLinetypeTableRecord
2
ByLayer
70
0
3

72
65
73
0
40
0
0
LTYPE
5
16
330
5
100
AcDbSymbolTableRecord
100
AcDbLinetypeTableRecord
2
Continuous
70
0
3
Solid line
72
65
73
0
40
0
0
LTYPE
5
32
330
5
100
AcDbSymbolTableRecord
100
AcDbLinetypeTableRecord
2
DOT
70
0
3
Dot . . . . . . . . . . . . . . . . . . . . . .
72
65
73
2
40
6.35
49
0
74
0
49
-6.35
74
0
0
LTYPE
5
33
330
5
100
AcDbSymbolTableRecord
100
AcDbLinetypeTableRecord
2
DOT2
70
0
3
Dot (.5x) .....................................
72
65
73
2
40
3.175
49
0
74
0
49
-3.175
74
0
0
LTYPE
5
34
330
5
100
AcDbSymbolTableRecord
100
AcDbLinetypeTableRecord
2
DOTX2
70
0
3
Dot (2x) .  .  .  .  .  .  .  .  .  .  .  .  .
72
65
73
2
40
12.7
49
0
74
0
49
-12.7
74
0
0
LTYPE
5
35
330
5
100
AcDbSymbolTableRecord
100
AcDbLinetypeTableRecord
2
DASHED
70
0
3
Dot . . . . . . . . . . . . . . . . . . . . . .
72
65
73
2
40
19.05
49
12.7
74
0
49
-6.35
74
0
0
LTYPE
5
36
330
5
100
AcDbSymbolTableRecord
100
AcDbLinetypeTableRecord
2
DASHED2
70
0
3
Dashed (.5x) _ _ _ _ _ _ _ _ _ _ _ _ _ _ _ _ _
72
65
73
2
40
9.525
49
6.35
74
0
49
-3.175
74
0
0
LTYPE
5
37
330
5
100
AcDbSymbolTableRecord
100
AcDbLinetypeTableRecord
2
DASHEDX2
70
0
3
Dashed (2x) ____  ____  ____  ____  ____  ___
72
65
73
2
40
38.1
49
25.4
74
0
49
-12.7
74
0
0
LTYPE
5
38
330
5
100
AcDbSymbolTableRecord
100
AcDbLinetypeTableRecord
2
DASHDOT
70
0
3
Dash dot __ . __ . __ . __ . __ . __ . __ . __
72
65
73
4
40
25.4
49
12.7
74
0
49
-6.35
74
0
49
0
74
0
49
-6.35
74
0
0
LTYPE
5
39
330
5
100
AcDbSymbolTableRecord
100
AcDbLinetypeTableRecord
2
DASHDOT2
70
0
3
Dash dot (.5x) _._._._._._._._._._._._._._._.
72
65
73
4
40
12.7
49
6.35
74
0
49
-3.175
74
0
49
0
74
0
49
-3.175
74
0
0
LTYPE
5
3A
330
5
100
AcDbSymbolTableRecord
100
AcDbLinetypeTableRecord
2
DASHDOTX2
70
0
3
Dash dot (2x) ____  .  ____  .  ____  .  ___
72
65
73
4
40
50.8
49
25.4
74
0
49
-12.7
74
0
49
0
74
0
49
-12.7
74
0
0
LTYPE
5
3B
330
5
100
AcDbSymbolTableRecord
100
AcDbLinetypeTableRecord
2
DIVIDE
70
0
3
Divide ____ . . ____ . . ____ . . ____ . . ____
72
65
73
6
40
31.75
49
12.7
74
0
49
-6.35
74
0
49
0
74
0
49
-6.35
74
0
49
0
74
0
49
-6.35
74
0
0
LTYPE
5
3C
330
5
100
AcDbSymbolTableRecord
100
AcDbLinetypeTableRecord
2
DIVIDE2
70
0
3
Divide (.5x) __..__..__..__..__..__..__..__.._
72
65
73
6
40
15.875
49
6.35
74
0
49
-3.175
74
0
49
0
74
0
49
-3.175
74
0
49
0
74
0
49
-3.175
74
0
0
LTYPE
5
3D
330
5
100
AcDbSymbolTableRecord
100
AcDbLinetypeTableRecord
2
DIVIDEX2
70
0
3
Divide (2x) ________  .  .  ________  .  .  _
72
65
73
6
40
63.5
49
25.4
74
0
49
-12.7
74
0
49
0
74
0
49
-12.7
74
0
49
0
74
0
49
-12.7
74
0
0
LTYPE
5
3E
330
5
100
AcDbSymbolTableRecord
100
AcDbLinetypeTableRecord
2
BORDER
70
0
3
Border __ __ . __ __ . __ __ . __ __ . __ __ .
72
65
73
6
40
44.45
49
12.7
74
0
49
-6.35
74
0
49
12.7
74
0
49
-6.35
74
0
49
0
74
0
49
-6.35
74
0
0
LTYPE
5
3F
330
5
100
AcDbSymbolTableRecord
100
AcDbLinetypeTableRecord
2
BORDER2
70
0
3
Border (.5x) __.__.__.__.__.__.__.__.__.__.__.
72
65
73
6
40
22.225
49
6.35
74
0
49
-3.175
74
0
49
6.35
74
0
49
-3.175
74
0
49
0
74
0
49
-3.175
74
0
0
LTYPE
5
40
330
5
100
AcDbSymbolTableRecord
100
AcDbLinetypeTableRecord
2
BORDERX2
70
0
3
Border (2x) ____  ____  .  ____  ____  .  ___
72
65
73
6
40
88.9
49
25.4
74
0
49
-12.7
74
0
49
25.4
74
0
49
-12.7
74
0
49
0
74
0
49
-12.7
74
0
0
LTYPE
5
41
330
5
100
AcDbSymbolTableRecord
100
AcDbLinetypeTableRecord
2
CENTER
70
0
3
Center ____ _ ____ _ ____ _ ____ _ ____ _ ____
72
65
73
4
40
50.8
49
31.75
74
0
49
-6.35
74
0
49
6.35
74
0
49
-6.35
74
0
0
LTYPE
5
42
330
5
100
AcDbSymbolTableRecord
100
AcDbLinetypeTableRecord
2
CENTER2
70
0
3
Center (.5x) ___ _ ___ _ ___ _ ___ _ ___ _ ___
72
65
73
4
40
28.575
49
19.05
74
0
49
-3.175
74
0
49
3.175
74
0
49
-3.175
74
0
0
LTYPE
5
43
330
5
100
AcDbSymbolTableRecord
100
AcDbLinetypeTableRecord
2
CENTERX2
70
0
3
Center (2x) ________  __  ________  __  _____
72
65
73
4
40
101.6
49
63.5
74
0
49
-12.7
74
0
49
12.7
74
0
49
-12.7
74
0
0
ENDTAB
0
TABLE
2
LAYER
5
2
330
0
100
AcDbSymbolTable
70
1
0
LAYER
5
10
330
2
100
AcDbSymbolTableRecord
100
AcDbLayerTableRecord
2
0
70
0
62
7
6
CONTINUOUS
370
0
390
F
0
LAYER
5
44
330
2
100
AcDbSymbolTableRecord
100
AcDbLayerTableRecord
2
cc_xr_bracket
70
1
62
7
6
CONTINUOUS
370
-3
390
F
0
LAYER
5
45
330
2
100
AcDbSymbolTableRecord
100
AcDbLayerTableRecord
2
cc_carriage_bracket
70
1
62
7
6
CONTINUOUS
370
-3
390
F
0
LAYER
5
46
330
2
100
AcDbSymbolTableRecord
100
AcDbLayerTableRecord
2
Layer0
70
1
62
7
6
CONTINUOUS
370
-3
390
F
0
LAYER
5
47
330
2
100
AcDbSymbolTableRecord
100
AcDbLayerTableRecord
2
cutout
70
0
62
7
6
CONTINUOUS
370
0
390
F
0
LAYER
5
48
330
2
100
AcDbSymbolTableRecord
100
AcDbLayerTableRecord
2
drill
70
0
62
7
6
CONTINUOUS
370
0
390
F
0
LAYER
5
49
330
2
100
AcDbSymbolTableRecord
100
AcDbLayerTableRecord
2
bend
70
0
62
7
6
CONTINUOUS
370
0
390
F
0
ENDTAB
0
TABLE
2
STYLE
5
3
330
0
100
AcDbSymbolTable
70
3
0
STYLE
5
4A
330
2
100
AcDbSymbolTableRecord
100
AcDbTextStyleTableRecord
2
Standard
70
0
40
0
41
1
50
0
71
0
42
1
3
txt
4

0
ENDTAB
0
TABLE
2
VIEW
5
6
330
0
100
AcDbSymbolTable
70
0
0
ENDTAB
0
TABLE
2
UCS
5
7
330
0
100
AcDbSymbolTable
70
0
0
ENDTAB
0
TABLE
2
APPID
5
9
330
0
100
AcDbSymbolTable
70
1
0
APPID
5
12
330
9
100
AcDbSymbolTableRecord
100
AcDbRegAppTableRecord
2
ACAD
70
0
0
ENDTAB
0
TABLE
2
DIMSTYLE
5
A
330
0
100
AcDbSymbolTable
70
1
100
AcDbDimStyleTable
71
1
0
DIMSTYLE
105
4B
330
A
100
AcDbSymbolTableRecord
100
AcDbDimStyleTableRecord
2
Standard
70
0
40
1
41
0.1
42
0.025
43
0.38
44
0.05
45
0
46
0
47
0
48
0
140
0.1
141
0.09
142
0
143
25.4
144
1
145
0
146
1
147
0.025
148
0
71
0
72
0
73
0
74
1
75
0
76
0
77
0
78
0
79
0
170
0
171
2
172
0
173
0
174
0
175
0
176
0
177
0
178
0
179
0
271
4
272
4
273
2
274
2
275
0
276
0
277
2
278
46
279
0
280
0
281
0
282
0
283
1
284
0
285
0
286
0
288
0
289
3
340
Standard
341

371
-2
372
-2
0
ENDTAB
0
TABLE
2
BLOCK_RECORD
5
1
330
0
100
AcDbSymbolTable
70
2
0
BLOCK_RECORD
5
1F
330
1
100
AcDbSymbolTableRecord
100
AcDbBlockTableRecord
2
*Model_Space
70
0
280
1
281
0
0
BLOCK_RECORD
5
1E
330
1
100
AcDbSymbolTableRecord
100
AcDbBlockTableRecord
2
*Paper_Space
70
0
280
1
281
0
0
ENDTAB
0
ENDSEC
0
SECTION
2
BLOCKS
0
BLOCK
5
20
330
1F
100
AcDbEntity
8
0
100
AcDbBlockBegin
2
*Model_Space
70
0
10
0
20
0
30
0
3
*Model_Space
1

0
ENDBLK
5
21
330
1F
100
AcDbEntity
8
0
100
AcDbBlockEnd
0
BLOCK
5
1C
330
1B
100
AcDbEntity
8
0
100
AcDbBlockBegin
2
*Paper_Space
70
0
10
0
20
0
30
0
3
*Paper_Space
1

0
ENDBLK
5
1D
330
1F
100
AcDbEntity
8
0
100
AcDbBlockEnd
0
ENDSEC
0
SECTION
2
ENTITIES
0
LINE
5
4C
100
AcDbEntity
8
cc_xr_bracket
6
ByLayer
62
256
370
-1
100
AcDbLine
10
5.41668112502
20
1.6462594988
11
5.41896175446
21
1.66358202241
0
LINE
5
4D
100
AcDbEntity
8
cc_xr_bracket
6
ByLayer
62
256
370
-1
100
AcDbLine
10
4.87198713066
20
0.139111083099
11
4.89572536726
21
0.129278382789
0
LINE
5
4E
100
AcDbEntity
8
cc_xr_bracket
6
ByLayer
62
256
370
-1
100
AcDbLine
10
4.44296550945
20
1.67969320595
11
4.45360179521
21
1.69355468343
0
LINE
5
4F
100
AcDbEntity
8
cc_xr_bracket
6
ByLayer
62
256
370
-1
100
AcDbLine
10
5.00643707696
20
0.273564971606
11
5.00643819095
21
0.273562139302
0
LINE
5
50
100
AcDbEntity
8
cc_xr_bracket
6
ByLayer
62
256
370
-1
100
AcDbLine
10
5.55053704451
20
1.25255775548
11
5.54825641506
21
1.23523523187
0
LINE
5
51
100
AcDbEntity
8
cc_xr_bracket
6
ByLayer
62
256
370
-1
100
AcDbLine
10
4.27749854705
20
0.32288139074
11
4.27749966104
21
0.322878558437
0
LINE
5
52
100
AcDbEntity
8
cc_xr_bracket
6
ByLayer
62
256
370
-1
100
AcDbLine
10
4.17907466391
20
0.224453561674
11
4.18242841444
21
0.249927825129
0
LINE
5
53
100
AcDbEntity
8
cc_xr_bracket
6
ByLayer
62
256
370
-1
100
AcDbLine
10
5.46628679948
20
1.5816102808
11
5.45014479689
21
1.5882965987
0
LINE
5
54
100
AcDbEntity
8
cc_xr_bracket
6
ByLayer
62
256
370
-1
100
AcDbLine
10
5.46628679948
20
1.5816102808
11
5.46628744266
21
1.58161071011
0
LINE
5
55
100
AcDbEntity
8
cc_xr_bracket
6
ByLayer
62
256
370
-1
100
AcDbLine
10
5.46628744266
20
1.58161071011
11
5.45014544007
21
1.58829702801
0
LINE
5
56
100
AcDbEntity
8
cc_xr_bracket
6
ByLayer
62
256
370
-1
100
AcDbLine
10
5.45014479689
20
1.5882965987
11
5.45014544007
21
1.58829702801
0
LINE
5
57
100
AcDbEntity
8
cc_xr_bracket
6
ByLayer
62
256
370
-1
100
AcDbLine
10
4.4362792607
20
1.66355117354
11
4.44296550945
21
1.67969320595
0
LINE
5
58
100
AcDbEntity
8
cc_xr_bracket
6
ByLayer
62
256
370
-1
100
AcDbLine
10
4.44296550945
20
1.67969320595
11
4.44296499174
21
1.67969523593
0
LINE
5
59
100
AcDbEntity
8
cc_xr_bracket
6
ByLayer
62
256
370
-1
100
AcDbLine
10
4.32671104557
20
0.139217846527
11
4.32671215956
21
0.139215014224
0
LINE
5
5A
100
AcDbEntity
8
cc_xr_bracket
6
ByLayer
62
256
370
-1
100
AcDbLine
10
4.79191836248
20
2.1580330537
11
5.93620454708
21
2.15802617769
0
LINE
5
5B
100
AcDbEntity
8
cc_xr_bracket
6
ByLayer
62
256
370
-1
100
AcDbLine
10
4.92119852099
20
0.125927467239
11
4.92119963498
21
0.125924634936
0
LINE
5
5C
100
AcDbEntity
8
cc_xr_bracket
6
ByLayer
62
256
370
-1
100
AcDbLine
10
5.48360883956
20
1.31948759615
11
5.50093136317
21
1.31720696671
0
LINE
5
5D
100
AcDbEntity
8
cc_xr_bracket
6
ByLayer
62
256
370
-1
100
AcDbLine
10
4.4375583586
20
1.26968198971
11
4.44417960875
21
1.28566710162
0
LINE
5
5E
100
AcDbEntity
8
cc_xr_bracket
6
ByLayer
62
256
370
-1
100
AcDbLine
10
4.18242730045
20
0.249930657432
11
4.19225999924
21
0.27366889216
0
LINE
5
5F
100
AcDbEntity
8
cc_xr_bracket
6
ByLayer
62
256
370
-1
100
AcDbLine
10
4.2520242833
20
0.129385147592
11
4.25202539729
21
0.129382315288
0
LINE
5
60
100
AcDbEntity
8
cc_xr_bracket
6
ByLayer
62
256
370
-1
100
AcDbLine
10
4.37256979365
20
0.198982130522
11
4.37257090764
21
0.198979298219
0
LINE
5
61
100
AcDbEntity
8
cc_xr_bracket
6
ByLayer
62
256
370
-1
100
AcDbLine
10
5.00643707509
20
0.175139964994
11
5.01626977516
21
0.198878201841
0
LINE
5
62
100
AcDbEntity
8
cc_xr_bracket
6
ByLayer
62
256
370
-1
100
AcDbLine
10
5.00643707509
20
0.175139964994
11
5.00643818908
21
0.175137132691
0
LINE
5
63
100
AcDbEntity
8
cc_xr_bracket
6
ByLayer
62
256
370
-1
100
AcDbLine
10
5.01626977516
20
0.198878201841
11
5.01627088916
21
0.198875369537
0
LINE
5
64
100
AcDbEntity
8
cc_xr_bracket
6
ByLayer
62
256
370
-1
100
AcDbLine
10
4.44417960875
20
1.28566710162
11
4.45471249668
21
1.29939382841
0
LINE
5
65
100
AcDbEntity
8
cc_xr_bracket
6
ByLayer
62
256
370
-1
100
AcDbLine
10
4.99079662241
20
0.154752646755
11
5.00643818908
21
0.175137132691
0
LINE
5
66
100
AcDbEntity
8
cc_xr_bracket
6
ByLayer
62
256
370
-1
100
AcDbLine
10
4.37257090764
20
0.198979298219
11
4.36273820885
21
0.175241063491
0
LINE
5
67
100
AcDbEntity
8
cc_xr_bracket
6
ByLayer
62
256
370
-1
100
AcDbLine
10
4.99079550842
20
0.154755479058
11
5.00643707509
21
0.175139964994
0
LINE
5
68
100
AcDbEntity
8
cc_xr_bracket
6
ByLayer
62
256
370
-1
100
AcDbLine
10
4.99079550842
20
0.154755479058
11
4.99079662241
21
0.154752646755
0
LINE
5
69
100
AcDbEntity
8
cc_xr_bracket
6
ByLayer
62
256
370
-1
100
AcDbLine
10
4.05406695982
20
1.03914091393
11
4.05407354992
21
0.000927467239102
0
LINE
5
6A
100
AcDbEntity
8
cc_xr_bracket
6
ByLayer
62
256
370
-1
100
AcDbLine
10
5.46628510276
20
1.18790954368
11
5.45014310017
21
1.19459586158
0
LINE
5
6B
100
AcDbEntity
8
cc_xr_bracket
6
ByLayer
62
256
370
-1
100
AcDbLine
10
5.46628510276
20
1.18790954368
11
5.46628573906
21
1.18790996621
0
LINE
5
6C
100
AcDbEntity
8
cc_xr_bracket
6
ByLayer
62
256
370
-1
100
AcDbLine
10
5.46628573906
20
1.18790996621
11
5.45014373647
21
1.19459628411
0
LINE
5
6D
100
AcDbEntity
8
cc_xr_bracket
6
ByLayer
62
256
370
-1
100
AcDbLine
10
4.97041102206
20
0.139113913063
11
4.99079550842
21
0.154755479058
0
LINE
5
6E
100
AcDbEntity
8
cc_xr_bracket
6
ByLayer
62
256
370
-1
100
AcDbLine
10
4.97041102206
20
0.139113913063
11
4.97041213605
21
0.13911108076
0
LINE
5
6F
100
AcDbEntity
8
cc_xr_bracket
6
ByLayer
62
256
370
-1
100
AcDbLine
10
4.97041213605
20
0.13911108076
11
4.99079662241
21
0.154752646755
0
LINE
5
70
100
AcDbEntity
8
cc_xr_bracket
6
ByLayer
62
256
370
-1
100
AcDbLine
10
4.99079551106
20
0.293949458285
11
4.99079662505
21
0.293946625982
0
LINE
5
71
100
AcDbEntity
8
cc_xr_bracket
6
ByLayer
62
256
370
-1
100
AcDbLine
10
5.9194493129
20
0.782316581662
11
5.92668114219
21
0.796981121449
0
LINE
5
72
100
AcDbEntity
8
cc_xr_bracket
6
ByLayer
62
256
370
-1
100
AcDbLine
10
4.94667278509
20
0.129281213882
11
4.97041102206
21
0.139113913063
0
LINE
5
73
100
AcDbEntity
8
cc_xr_bracket
6
ByLayer
62
256
370
-1
100
AcDbLine
10
4.94667278509
20
0.129281213882
11
4.94667389908
21
0.129278381578
0
LINE
5
74
100
AcDbEntity
8
cc_xr_bracket
6
ByLayer
62
256
370
-1
100
AcDbLine
10
4.94667389908
20
0.129278381578
11
4.97041213605
21
0.13911108076
0
LINE
5
75
100
AcDbEntity
8
cc_xr_bracket
6
ByLayer
62
256
370
-1
100
AcDbLine
10
5.45014479689
20
1.5882965987
11
5.43628336611
21
1.59893294355
0
LINE
5
76
100
AcDbEntity
8
cc_xr_bracket
6
ByLayer
62
256
370
-1
100
AcDbLine
10
5.45014544007
20
1.58829702801
11
5.43628400929
21
1.59893337285
0
LINE
5
77
100
AcDbEntity
8
cc_xr_bracket
6
ByLayer
62
256
370
-1
100
AcDbLine
10
5.43628336611
20
1.59893294355
11
5.43628400929
21
1.59893337285
0
LINE
5
78
100
AcDbEntity
8
cc_xr_bracket
6
ByLayer
62
256
370
-1
100
AcDbLine
10
4.92119852099
20
0.125927467239
11
4.94667278509
21
0.129281213882
0
LINE
5
79
100
AcDbEntity
8
cc_xr_bracket
6
ByLayer
62
256
370
-1
100
AcDbLine
10
4.89572425327
20
0.129281215093
11
4.92119852099
21
0.125927467239
0
LINE
5
7A
100
AcDbEntity
8
cc_xr_bracket
6
ByLayer
62
256
370
-1
100
AcDbLine
10
4.89572425327
20
0.129281215093
11
4.89572536726
21
0.129278382789
0
LINE
5
7B
100
AcDbEntity
8
cc_xr_bracket
6
ByLayer
62
256
370
-1
100
AcDbLine
10
4.89572536726
20
0.129278382789
11
4.92119963498
21
0.125924634936
0
LINE
5
7C
100
AcDbEntity
8
cc_xr_bracket
6
ByLayer
62
256
370
-1
100
AcDbLine
10
4.87198601667
20
0.139113915403
11
4.89572425327
21
0.129281215093
0
LINE
5
7D
100
AcDbEntity
8
cc_xr_bracket
6
ByLayer
62
256
370
-1
100
AcDbLine
10
4.87198601667
20
0.139113915403
11
4.87198713066
21
0.139111083099
0
LINE
5
7E
100
AcDbEntity
8
cc_xr_bracket
6
ByLayer
62
256
370
-1
100
AcDbLine
10
4.85160153091
20
0.154755482367
11
4.87198601667
21
0.139113915403
0
LINE
5
7F
100
AcDbEntity
8
cc_xr_bracket
6
ByLayer
62
256
370
-1
100
AcDbLine
10
4.85160153091
20
0.154755482367
11
4.8516026449
21
0.154752650064
0
LINE
5
80
100
AcDbEntity
8
cc_xr_bracket
6
ByLayer
62
256
370
-1
100
AcDbLine
10
4.8516026449
20
0.154752650064
11
4.87198713066
21
0.139111083099
0
LINE
5
81
100
AcDbEntity
8
cc_xr_bracket
6
ByLayer
62
256
370
-1
100
AcDbLine
10
4.19226111323
20
0.175241063093
11
4.18242841444
21
0.198979297776
0
LINE
5
82
100
AcDbEntity
8
cc_xr_bracket
6
ByLayer
62
256
370
-1
100
AcDbLine
10
4.32671215956
20
0.139215014224
11
4.30297392479
21
0.129382315407
0
LINE
5
83
100
AcDbEntity
8
cc_xr_bracket
6
ByLayer
62
256
370
-1
100
AcDbLine
10
4.82612726584
20
0.198878206361
11
4.83595996501
21
0.175139969047
0
LINE
5
84
100
AcDbEntity
8
cc_xr_bracket
6
ByLayer
62
256
370
-1
100
AcDbLine
10
5.41668048184
20
1.6462590695
11
5.41668112502
21
1.6462594988
0
LINE
5
85
100
AcDbEntity
8
cc_xr_bracket
6
ByLayer
62
256
370
-1
100
AcDbLine
10
4.87198601991
20
0.30959102759
11
4.85160153355
21
0.293949461594
0
LINE
5
86
100
AcDbEntity
8
cc_xr_bracket
6
ByLayer
62
256
370
-1
100
AcDbLine
10
4.3470955299
20
0.15485941149
11
4.34709664389
21
0.154856579186
0
LINE
5
87
100
AcDbEntity
8
cc_xr_bracket
6
ByLayer
62
256
370
-1
100
AcDbLine
10
4.83595996501
20
0.175139969047
11
4.85160153091
21
0.154755482367
0
LINE
5
88
100
AcDbEntity
8
cc_xr_bracket
6
ByLayer
62
256
370
-1
100
AcDbLine
10
4.83595996501
20
0.175139969047
11
4.835961079
21
0.175137136743
0
LINE
5
89
100
AcDbEntity
8
cc_xr_bracket
6
ByLayer
62
256
370
-1
100
AcDbLine
10
4.835961079
20
0.175137136743
11
4.8516026449
21
0.154752650064
0
LINE
5
8A
100
AcDbEntity
8
cc_xr_bracket
6
ByLayer
62
256
370
-1
100
AcDbLine
10
4.82612726584
20
0.198878206361
11
4.82612837983
21
0.198875374057
0
LINE
5
8B
100
AcDbEntity
8
cc_xr_bracket
6
ByLayer
62
256
370
-1
100
AcDbLine
10
4.82612837983
20
0.198875374057
11
4.835961079
21
0.175137136743
0
LINE
5
8C
100
AcDbEntity
8
cc_xr_bracket
6
ByLayer
62
256
370
-1
100
AcDbLine
10
4.82277351559
20
0.224352472666
11
4.82612726584
21
0.198878206361
0
LINE
5
8D
100
AcDbEntity
8
cc_xr_bracket
6
ByLayer
62
256
370
-1
100
AcDbLine
10
4.82277351559
20
0.224352472666
11
4.82277462958
21
0.224349640363
0
LINE
5
8E
100
AcDbEntity
8
cc_xr_bracket
6
ByLayer
62
256
370
-1
100
AcDbLine
10
4.82277462958
20
0.224349640363
11
4.82612837983
21
0.198875374057
0
LINE
5
8F
100
AcDbEntity
8
cc_xr_bracket
6
ByLayer
62
256
370
-1
100
AcDbLine
10
5.43628336611
20
1.59893294355
11
5.42564714075
21
1.612794466
0
LINE
5
90
100
AcDbEntity
8
cc_xr_bracket
6
ByLayer
62
256
370
-1
100
AcDbLine
10
5.43628400929
20
1.59893337285
11
5.42564778392
21
1.61279489531
0
LINE
5
91
100
AcDbEntity
8
cc_xr_bracket
6
ByLayer
62
256
370
-1
100
AcDbLine
10
5.42564714075
20
1.612794466
11
5.42564778392
21
1.61279489531
0
LINE
5
92
100
AcDbEntity
8
cc_xr_bracket
6
ByLayer
62
256
370
-1
100
AcDbLine
10
4.82612726681
20
0.249826738812
11
4.82277351559
21
0.224352472666
0
LINE
5
93
100
AcDbEntity
8
cc_xr_bracket
6
ByLayer
62
256
370
-1
100
AcDbLine
10
4.82612726681
20
0.249826738812
11
4.8261283808
21
0.249823906508
0
LINE
5
94
100
AcDbEntity
8
cc_xr_bracket
6
ByLayer
62
256
370
-1
100
AcDbLine
10
4.8261283808
20
0.249823906508
11
4.82277462958
21
0.224349640363
0
LINE
5
95
100
AcDbEntity
8
cc_xr_bracket
6
ByLayer
62
256
370
-1
100
AcDbLine
10
4.83595996688
20
0.273564975658
11
4.82612726681
21
0.249826738812
0
LINE
5
96
100
AcDbEntity
8
cc_xr_bracket
6
ByLayer
62
256
370
-1
100
AcDbLine
10
4.83595996688
20
0.273564975658
11
4.83596108087
21
0.273562143355
0
LINE
5
97
100
AcDbEntity
8
cc_xr_bracket
6
ByLayer
62
256
370
-1
100
AcDbLine
10
4.83596108087
20
0.273562143355
11
4.8261283808
21
0.249823906508
0
LINE
5
98
100
AcDbEntity
8
cc_xr_bracket
6
ByLayer
62
256
370
-1
100
AcDbLine
10
4.85160153355
20
0.293949461594
11
4.83595996688
21
0.273564975658
0
LINE
5
99
100
AcDbEntity
8
cc_xr_bracket
6
ByLayer
62
256
370
-1
100
AcDbLine
10
4.85160153355
20
0.293949461594
11
4.85160264755
21
0.293946629291
0
LINE
5
9A
100
AcDbEntity
8
cc_xr_bracket
6
ByLayer
62
256
370
-1
100
AcDbLine
10
4.85160264755
20
0.293946629291
11
4.83596108087
21
0.273562143355
0
LINE
5
9B
100
AcDbEntity
8
cc_xr_bracket
6
ByLayer
62
256
370
-1
100
AcDbLine
10
4.87198601991
20
0.30959102759
11
4.8719871339
21
0.309588195286
0
LINE
5
9C
100
AcDbEntity
8
cc_xr_bracket
6
ByLayer
62
256
370
-1
100
AcDbLine
10
4.8719871339
20
0.309588195286
11
4.85160264755
21
0.293946629291
0
LINE
5
9D
100
AcDbEntity
8
cc_xr_bracket
6
ByLayer
62
256
370
-1
100
AcDbLine
10
4.05407484271
20
1.0391391942
11
4.05407466391
21
0.000924634935649
0
LINE
5
9E
100
AcDbEntity
8
cc_xr_bracket
6
ByLayer
62
256
370
-1
100
AcDbLine
10
5.14462471575
20
0.500038351757
11
4.79190948371
21
0.719822729488
0
LINE
5
9F
100
AcDbEntity
8
cc_xr_bracket
6
ByLayer
62
256
370
-1
100
AcDbLine
10
5.54157179388
20
1.6127939664
11
5.53093544904
21
1.59893253562
0
LINE
5
A0
100
AcDbEntity
8
cc_xr_bracket
6
ByLayer
62
256
370
-1
100
AcDbLine
10
4.79191836248
20
2.1580330537
11
4.26909294532
21
2.15803982369
0
LINE
5
A1
100
AcDbEntity
8
cc_xr_bracket
6
ByLayer
62
256
370
-1
100
AcDbLine
10
4.26909294532
20
1.71982272938
11
4.26909294532
21
2.15803982369
0
LINE
5
A2
100
AcDbEntity
8
cc_xr_bracket
6
ByLayer
62
256
370
-1
100
AcDbLine
10
4.05407484271
20
1.0391391942
11
4.26909294532
21
1.71982272938
0
LINE
5
A3
100
AcDbEntity
8
cc_xr_bracket
6
ByLayer
62
256
370
-1
100
AcDbLine
10
5.14462463726
20
0.000924634935649
11
4.05407466391
21
0.000924634935649
0
LINE
5
A4
100
AcDbEntity
8
cc_xr_bracket
6
ByLayer
62
256
370
-1
100
AcDbLine
10
5.14462471575
20
0.500038351757
11
5.14462463726
21
0.000924634935649
0
LINE
5
A5
100
AcDbEntity
8
cc_xr_bracket
6
ByLayer
62
256
370
-1
100
AcDbLine
10
4.30297392479
20
0.129382315407
11
4.27749966104
21
0.12602856491
0
LINE
5
A6
100
AcDbEntity
8
cc_xr_bracket
6
ByLayer
62
256
370
-1
100
AcDbLine
10
4.27749966104
20
0.12602856491
11
4.25202539729
21
0.129382315288
0
LINE
5
A7
100
AcDbEntity
8
cc_xr_bracket
6
ByLayer
62
256
370
-1
100
AcDbLine
10
4.25202539729
20
0.129382315288
11
4.22828716252
21
0.139215013995
0
LINE
5
A8
100
AcDbEntity
8
cc_xr_bracket
6
ByLayer
62
256
370
-1
100
AcDbLine
10
4.22828716252
20
0.139215013995
11
4.20790267819
21
0.154856578862
0
LINE
5
A9
100
AcDbEntity
8
cc_xr_bracket
6
ByLayer
62
256
370
-1
100
AcDbLine
10
4.20790267819
20
0.154856578862
11
4.19226111323
21
0.175241063093
0
LINE
5
AA
100
AcDbEntity
8
cc_xr_bracket
6
ByLayer
62
256
370
-1
100
AcDbLine
10
4.18242841444
20
0.249927825129
11
4.19226111323
21
0.273666059857
0
LINE
5
AB
100
AcDbEntity
8
cc_xr_bracket
6
ByLayer
62
256
370
-1
100
AcDbLine
10
4.19226111323
20
0.273666059857
11
4.20790267819
21
0.294050544161
0
LINE
5
AC
100
AcDbEntity
8
cc_xr_bracket
6
ByLayer
62
256
370
-1
100
AcDbLine
10
4.20790267819
20
0.294050544161
11
4.22828716252
21
0.309692109123
0
LINE
5
AD
100
AcDbEntity
8
cc_xr_bracket
6
ByLayer
62
256
370
-1
100
AcDbLine
10
4.22828716252
20
0.309692109123
11
4.25202539729
21
0.31952480794
0
LINE
5
AE
100
AcDbEntity
8
cc_xr_bracket
6
ByLayer
62
256
370
-1
100
AcDbLine
10
4.25202539729
20
0.31952480794
11
4.27749966104
21
0.322878558437
0
LINE
5
AF
100
AcDbEntity
8
cc_xr_bracket
6
ByLayer
62
256
370
-1
100
AcDbLine
10
4.27749966104
20
0.322878558437
11
4.30297392479
21
0.319524808059
0
LINE
5
B0
100
AcDbEntity
8
cc_xr_bracket
6
ByLayer
62
256
370
-1
100
AcDbLine
10
4.30297392479
20
0.319524808059
11
4.32671215956
21
0.309692109353
0
LINE
5
B1
100
AcDbEntity
8
cc_xr_bracket
6
ByLayer
62
256
370
-1
100
AcDbLine
10
4.32671215956
20
0.309692109353
11
4.34709664389
21
0.294050544485
0
LINE
5
B2
100
AcDbEntity
8
cc_xr_bracket
6
ByLayer
62
256
370
-1
100
AcDbLine
10
4.34709664389
20
0.294050544485
11
4.36273820885
21
0.273666060254
0
LINE
5
B3
100
AcDbEntity
8
cc_xr_bracket
6
ByLayer
62
256
370
-1
100
AcDbLine
10
4.36273820885
20
0.273666060254
11
4.37257090764
21
0.249927825572
0
LINE
5
B4
100
AcDbEntity
8
cc_xr_bracket
6
ByLayer
62
256
370
-1
100
AcDbLine
10
4.37257090764
20
0.249927825572
11
4.37592465808
21
0.224453561903
0
LINE
5
B5
100
AcDbEntity
8
cc_xr_bracket
6
ByLayer
62
256
370
-1
100
AcDbLine
10
4.37592465808
20
0.224453561903
11
4.37257090764
21
0.198979298219
0
LINE
5
B6
100
AcDbEntity
8
cc_xr_bracket
6
ByLayer
62
256
370
-1
100
AcDbLine
10
4.36273820885
20
0.175241063491
11
4.34709664389
21
0.154856579186
0
LINE
5
B7
100
AcDbEntity
8
cc_xr_bracket
6
ByLayer
62
256
370
-1
100
AcDbLine
10
4.34709664389
20
0.154856579186
11
4.32671215956
21
0.139215014224
0
LINE
5
B8
100
AcDbEntity
8
cc_xr_bracket
6
ByLayer
62
256
370
-1
100
AcDbLine
10
5.01627088916
20
0.198875369537
11
5.01962463726
21
0.224349635103
0
LINE
5
B9
100
AcDbEntity
8
cc_xr_bracket
6
ByLayer
62
256
370
-1
100
AcDbLine
10
4.89572537087
20
0.319420894467
11
4.8719871339
21
0.309588195286
0
LINE
5
BA
100
AcDbEntity
8
cc_xr_bracket
6
ByLayer
62
256
370
-1
100
AcDbLine
10
4.92119963685
20
0.322774644635
11
4.89572537087
21
0.319420894467
0
LINE
5
BB
100
AcDbEntity
8
cc_xr_bracket
6
ByLayer
62
256
370
-1
100
AcDbLine
10
4.94667390269
20
0.319420893256
11
4.92119963685
21
0.322774644635
0
LINE
5
BC
100
AcDbEntity
8
cc_xr_bracket
6
ByLayer
62
256
370
-1
100
AcDbLine
10
4.97041213929
20
0.309588192946
11
4.94667390269
21
0.319420893256
0
LINE
5
BD
100
AcDbEntity
8
cc_xr_bracket
6
ByLayer
62
256
370
-1
100
AcDbLine
10
4.99079662505
20
0.293946625982
11
4.97041213929
21
0.309588192946
0
LINE
5
BE
100
AcDbEntity
8
cc_xr_bracket
6
ByLayer
62
256
370
-1
100
AcDbLine
10
5.00643819095
20
0.273562139302
11
4.99079662505
21
0.293946625982
0
LINE
5
BF
100
AcDbEntity
8
cc_xr_bracket
6
ByLayer
62
256
370
-1
100
AcDbLine
10
5.01627089012
20
0.249823901988
11
5.00643819095
21
0.273562139302
0
LINE
5
C0
100
AcDbEntity
8
cc_xr_bracket
6
ByLayer
62
256
370
-1
100
AcDbLine
10
5.01962463726
20
0.224349635103
11
5.01627089012
21
0.249823901988
0
LINE
5
C1
100
AcDbEntity
8
cc_xr_bracket
6
ByLayer
62
256
370
-1
100
AcDbLine
10
4.56559858835
20
1.26968198975
11
4.56785697347
21
1.25252785166
0
LINE
5
C2
100
AcDbEntity
8
cc_xr_bracket
6
ByLayer
62
256
370
-1
100
AcDbLine
10
4.56785697347
20
1.25252785166
11
4.56559858835
21
1.2353737136
0
LINE
5
C3
100
AcDbEntity
8
cc_xr_bracket
6
ByLayer
62
256
370
-1
100
AcDbLine
10
4.56559858835
20
1.2353737136
11
4.55897733819
21
1.21938860169
0
LINE
5
C4
100
AcDbEntity
8
cc_xr_bracket
6
ByLayer
62
256
370
-1
100
AcDbLine
10
4.55897733819
20
1.21938860169
11
4.54844445027
21
1.2056618749
0
LINE
5
C5
100
AcDbEntity
8
cc_xr_bracket
6
ByLayer
62
256
370
-1
100
AcDbLine
10
4.54844445027
20
1.2056618749
11
4.53471772347
21
1.19512898697
0
LINE
5
C6
100
AcDbEntity
8
cc_xr_bracket
6
ByLayer
62
256
370
-1
100
AcDbLine
10
4.53471772347
20
1.19512898697
11
4.51873261155
21
1.18850773682
0
LINE
5
C7
100
AcDbEntity
8
cc_xr_bracket
6
ByLayer
62
256
370
-1
100
AcDbLine
10
4.51873261155
20
1.18850773682
11
4.50157847347
21
1.18624935169
0
LINE
5
C8
100
AcDbEntity
8
cc_xr_bracket
6
ByLayer
62
256
370
-1
100
AcDbLine
10
4.50157847347
20
1.18624935169
11
4.48442433539
21
1.18850773681
0
LINE
5
C9
100
AcDbEntity
8
cc_xr_bracket
6
ByLayer
62
256
370
-1
100
AcDbLine
10
4.48442433539
20
1.18850773681
11
4.46843922348
21
1.19512898695
0
LINE
5
CA
100
AcDbEntity
8
cc_xr_bracket
6
ByLayer
62
256
370
-1
100
AcDbLine
10
4.46843922348
20
1.19512898695
11
4.45471249668
21
1.20566187487
0
LINE
5
CB
100
AcDbEntity
8
cc_xr_bracket
6
ByLayer
62
256
370
-1
100
AcDbLine
10
4.45471249668
20
1.20566187487
11
4.44417960875
21
1.21938860166
0
LINE
5
CC
100
AcDbEntity
8
cc_xr_bracket
6
ByLayer
62
256
370
-1
100
AcDbLine
10
4.44417960875
20
1.21938860166
11
4.4375583586
21
1.23537371357
0
LINE
5
CD
100
AcDbEntity
8
cc_xr_bracket
6
ByLayer
62
256
370
-1
100
AcDbLine
10
4.4375583586
20
1.23537371357
11
4.43529997347
21
1.25252785166
0
LINE
5
CE
100
AcDbEntity
8
cc_xr_bracket
6
ByLayer
62
256
370
-1
100
AcDbLine
10
4.43529997347
20
1.25252785166
11
4.4375583586
21
1.26968198971
0
LINE
5
CF
100
AcDbEntity
8
cc_xr_bracket
6
ByLayer
62
256
370
-1
100
AcDbLine
10
4.45471249668
20
1.29939382841
11
4.46843922348
21
1.30992671634
0
LINE
5
D0
100
AcDbEntity
8
cc_xr_bracket
6
ByLayer
62
256
370
-1
100
AcDbLine
10
4.46843922348
20
1.30992671634
11
4.48442433539
21
1.3165479665
0
LINE
5
D1
100
AcDbEntity
8
cc_xr_bracket
6
ByLayer
62
256
370
-1
100
AcDbLine
10
4.48442433539
20
1.3165479665
11
4.50157847347
21
1.31880635162
0
LINE
5
D2
100
AcDbEntity
8
cc_xr_bracket
6
ByLayer
62
256
370
-1
100
AcDbLine
10
4.50157847347
20
1.31880635162
11
4.51873261155
21
1.31654796651
0
LINE
5
D3
100
AcDbEntity
8
cc_xr_bracket
6
ByLayer
62
256
370
-1
100
AcDbLine
10
4.51873261155
20
1.31654796651
11
4.53471772347
21
1.30992671636
0
LINE
5
D4
100
AcDbEntity
8
cc_xr_bracket
6
ByLayer
62
256
370
-1
100
AcDbLine
10
4.53471772347
20
1.30992671636
11
4.54844445027
21
1.29939382844
0
LINE
5
D5
100
AcDbEntity
8
cc_xr_bracket
6
ByLayer
62
256
370
-1
100
AcDbLine
10
4.54844445027
20
1.29939382844
11
4.55897733819
21
1.28566710166
0
LINE
5
D6
100
AcDbEntity
8
cc_xr_bracket
6
ByLayer
62
256
370
-1
100
AcDbLine
10
4.55897733819
20
1.28566710166
11
4.56559858835
21
1.26968198975
0
LINE
5
D7
100
AcDbEntity
8
cc_xr_bracket
6
ByLayer
62
256
370
-1
100
AcDbLine
10
4.56557641853
20
1.66355117358
11
4.56785697347
21
1.64622863906
0
LINE
5
D8
100
AcDbEntity
8
cc_xr_bracket
6
ByLayer
62
256
370
-1
100
AcDbLine
10
4.56785697347
20
1.64622863906
11
4.56557641853
21
1.62890610457
0
LINE
5
D9
100
AcDbEntity
8
cc_xr_bracket
6
ByLayer
62
256
370
-1
100
AcDbLine
10
4.56557641853
20
1.62890610457
11
4.55889016978
21
1.61276407216
0
LINE
5
DA
100
AcDbEntity
8
cc_xr_bracket
6
ByLayer
62
256
370
-1
100
AcDbLine
10
4.55889016978
20
1.61276407216
11
4.54825388402
21
1.59890259469
0
LINE
5
DB
100
AcDbEntity
8
cc_xr_bracket
6
ByLayer
62
256
370
-1
100
AcDbLine
10
4.54825388402
20
1.59890259469
11
4.53439240654
21
1.58826630893
0
LINE
5
DC
100
AcDbEntity
8
cc_xr_bracket
6
ByLayer
62
256
370
-1
100
AcDbLine
10
4.53439240654
20
1.58826630893
11
4.51825037413
21
1.58158006017
0
LINE
5
DD
100
AcDbEntity
8
cc_xr_bracket
6
ByLayer
62
256
370
-1
100
AcDbLine
10
4.51825037413
20
1.58158006017
11
4.50092783962
21
1.57929950524
0
LINE
5
DE
100
AcDbEntity
8
cc_xr_bracket
6
ByLayer
62
256
370
-1
100
AcDbLine
10
4.50092783962
20
1.57929950524
11
4.4836053051
21
1.58158006016
0
LINE
5
DF
100
AcDbEntity
8
cc_xr_bracket
6
ByLayer
62
256
370
-1
100
AcDbLine
10
4.4836053051
20
1.58158006016
11
4.46746327269
21
1.58826630891
0
LINE
5
E0
100
AcDbEntity
8
cc_xr_bracket
6
ByLayer
62
256
370
-1
100
AcDbLine
10
4.46746327269
20
1.58826630891
11
4.45360179521
21
1.59890259466
0
LINE
5
E1
100
AcDbEntity
8
cc_xr_bracket
6
ByLayer
62
256
370
-1
100
AcDbLine
10
4.45360179521
20
1.59890259466
11
4.44296550945
21
1.61276407213
0
LINE
5
E2
100
AcDbEntity
8
cc_xr_bracket
6
ByLayer
62
256
370
-1
100
AcDbLine
10
4.44296550945
20
1.61276407213
11
4.4362792607
21
1.62890610453
0
LINE
5
E3
100
AcDbEntity
8
cc_xr_bracket
6
ByLayer
62
256
370
-1
100
AcDbLine
10
4.4362792607
20
1.62890610453
11
4.43399870576
21
1.64622863906
0
LINE
5
E4
100
AcDbEntity
8
cc_xr_bracket
6
ByLayer
62
256
370
-1
100
AcDbLine
10
4.43399870576
20
1.64622863906
11
4.4362792607
21
1.66355117354
0
LINE
5
E5
100
AcDbEntity
8
cc_xr_bracket
6
ByLayer
62
256
370
-1
100
AcDbLine
10
4.45360179521
20
1.69355468343
11
4.46746327269
21
1.70419096919
0
LINE
5
E6
100
AcDbEntity
8
cc_xr_bracket
6
ByLayer
62
256
370
-1
100
AcDbLine
10
4.46746327269
20
1.70419096919
11
4.4836053051
21
1.71087721794
0
LINE
5
E7
100
AcDbEntity
8
cc_xr_bracket
6
ByLayer
62
256
370
-1
100
AcDbLine
10
4.4836053051
20
1.71087721794
11
4.50092783962
21
1.71315777288
0
LINE
5
E8
100
AcDbEntity
8
cc_xr_bracket
6
ByLayer
62
256
370
-1
100
AcDbLine
10
4.50092783962
20
1.71315777288
11
4.51825037413
21
1.71087721795
0
LINE
5
E9
100
AcDbEntity
8
cc_xr_bracket
6
ByLayer
62
256
370
-1
100
AcDbLine
10
4.51825037413
20
1.71087721795
11
4.53439240654
21
1.70419096921
0
LINE
5
EA
100
AcDbEntity
8
cc_xr_bracket
6
ByLayer
62
256
370
-1
100
AcDbLine
10
4.53439240654
20
1.70419096921
11
4.54825388402
21
1.69355468346
0
LINE
5
EB
100
AcDbEntity
8
cc_xr_bracket
6
ByLayer
62
256
370
-1
100
AcDbLine
10
4.54825388402
20
1.69355468346
11
4.55889016978
21
1.67969320599
0
LINE
5
EC
100
AcDbEntity
8
cc_xr_bracket
6
ByLayer
62
256
370
-1
100
AcDbLine
10
4.55889016978
20
1.67969320599
11
4.56557641853
21
1.66355117358
0
LINE
5
ED
100
AcDbEntity
8
cc_xr_bracket
6
ByLayer
62
256
370
-1
100
AcDbLine
10
5.54157179388
20
1.6127939664
11
5.54157243706
21
1.61279439571
0
LINE
5
EE
100
AcDbEntity
8
cc_xr_bracket
6
ByLayer
62
256
370
-1
100
AcDbLine
10
4.79190948371
20
0.719822729488
11
5.81119566832
21
0.719816392187
0
LINE
5
EF
100
AcDbEntity
8
cc_xr_bracket
6
ByLayer
62
256
370
-1
100
AcDbLine
10
4.32671104557
20
0.139217846527
11
4.3029728108
21
0.12938514771
0
LINE
5
F0
100
AcDbEntity
8
cc_xr_bracket
6
ByLayer
62
256
370
-1
100
AcDbLine
10
4.51825037413
20
1.58158006017
11
4.51824985642
21
1.58158209015
0
LINE
5
F1
100
AcDbEntity
8
cc_xr_bracket
6
ByLayer
62
256
370
-1
100
AcDbLine
10
4.43399870576
20
1.64622863906
11
4.43399818805
21
1.64623066903
0
LINE
5
F2
100
AcDbEntity
8
cc_xr_bracket
6
ByLayer
62
256
370
-1
100
AcDbLine
10
4.4536012775
20
1.6935567134
11
4.46746275498
21
1.70419299917
0
LINE
5
F3
100
AcDbEntity
8
cc_xr_bracket
6
ByLayer
62
256
370
-1
100
AcDbLine
10
5.92668114219
20
0.796981121449
11
5.93193699564
21
0.812464147205
0
LINE
5
F4
100
AcDbEntity
8
cc_xr_bracket
6
ByLayer
62
256
370
-1
100
AcDbLine
10
4.99079551106
20
0.293949458285
11
4.9704110253
21
0.30959102525
0
LINE
5
F5
100
AcDbEntity
8
cc_xr_bracket
6
ByLayer
62
256
370
-1
100
AcDbLine
10
4.17907354992
20
0.224456393977
11
4.18242730045
21
0.249930657432
0
LINE
5
F6
100
AcDbEntity
8
cc_xr_bracket
6
ByLayer
62
256
370
-1
100
AcDbLine
10
4.46746275498
20
1.70419299917
11
4.4836047874
21
1.71087924792
0
LINE
5
F7
100
AcDbEntity
8
cc_xr_bracket
6
ByLayer
62
256
370
-1
100
AcDbLine
10
5.48360762637
20
1.18562891423
11
5.46628510276
21
1.18790954368
0
LINE
5
F8
100
AcDbEntity
8
cc_xr_bracket
6
ByLayer
62
256
370
-1
100
AcDbLine
10
4.4836047874
20
1.71087924792
11
4.50092732191
21
1.71315980286
0
LINE
5
F9
100
AcDbEntity
8
cc_xr_bracket
6
ByLayer
62
256
370
-1
100
AcDbLine
10
4.27749854705
20
0.126031397214
11
4.27749966104
21
0.12602856491
0
LINE
5
FA
100
AcDbEntity
8
cc_xr_bracket
6
ByLayer
62
256
370
-1
100
AcDbLine
10
4.2520242833
20
0.319527640244
11
4.25202539729
21
0.31952480794
0
LINE
5
FB
100
AcDbEntity
8
cc_xr_bracket
6
ByLayer
62
256
370
-1
100
AcDbLine
10
4.9466727887
20
0.31942372556
11
4.92119852285
21
0.322777476938
0
LINE
5
FC
100
AcDbEntity
8
cc_xr_bracket
6
ByLayer
62
256
370
-1
100
AcDbLine
10
4.51825037413
20
1.71087721795
11
4.51824985642
21
1.71087924793
0
LINE
5
FD
100
AcDbEntity
8
cc_xr_bracket
6
ByLayer
62
256
370
-1
100
AcDbLine
10
5.42564608032
20
1.21909415141
11
5.41895990156
21
1.23523621164
0
LINE
5
FE
100
AcDbEntity
8
cc_xr_bracket
6
ByLayer
62
256
370
-1
100
AcDbLine
10
5.48360996627
20
1.57933008066
11
5.46628744266
21
1.58161071011
0
LINE
5
FF
100
AcDbEntity
8
cc_xr_bracket
6
ByLayer
62
256
370
-1
100
AcDbLine
10
4.89572425688
20
0.319423726771
11
4.87198601991
21
0.30959102759
0
LINE
5
100
100
AcDbEntity
8
cc_xr_bracket
6
ByLayer
62
256
370
-1
100
AcDbLine
10
4.89572425688
20
0.319423726771
11
4.89572537087
21
0.319420894467
0
LINE
5
101
100
AcDbEntity
8
cc_xr_bracket
6
ByLayer
62
256
370
-1
100
AcDbLine
10
5.87369574049
20
0.736562947354
11
5.88729095826
21
0.745646896699
0
LINE
5
102
100
AcDbEntity
8
cc_xr_bracket
6
ByLayer
62
256
370
-1
100
AcDbLine
10
5.87369574049
20
0.736562947354
11
5.87369594025
21
0.736563603375
0
LINE
5
103
100
AcDbEntity
8
cc_xr_bracket
6
ByLayer
62
256
370
-1
100
AcDbLine
10
5.87369594025
20
0.736563603375
11
5.88729115802
21
0.745647552719
0
LINE
5
104
100
AcDbEntity
8
cc_xr_bracket
6
ByLayer
62
256
370
-1
100
AcDbLine
10
5.88729095826
20
0.745646896699
11
5.88729115802
21
0.745647552719
0
LINE
5
105
100
AcDbEntity
8
cc_xr_bracket
6
ByLayer
62
256
370
-1
100
AcDbLine
10
5.45014310017
20
1.19459586158
11
5.43628166939
21
1.20523220642
0
LINE
5
106
100
AcDbEntity
8
cc_xr_bracket
6
ByLayer
62
256
370
-1
100
AcDbLine
10
4.79191734367
20
2.1580327735
11
5.93620454708
21
2.15802663674
0
LINE
5
107
100
AcDbEntity
8
cc_xr_bracket
6
ByLayer
62
256
370
-1
100
AcDbLine
10
4.3470955299
20
0.15485941149
11
4.32671104557
21
0.139217846527
0
LINE
5
108
100
AcDbEntity
8
cc_xr_bracket
6
ByLayer
62
256
370
-1
100
AcDbLine
10
4.54825388402
20
1.69355468346
11
4.54825336631
21
1.69355671343
0
LINE
5
109
100
AcDbEntity
8
cc_xr_bracket
6
ByLayer
62
256
370
-1
100
AcDbLine
10
5.46628799989
20
1.71090785992
11
5.48361054315
21
1.71318834005
0
LINE
5
10A
100
AcDbEntity
8
cc_xr_bracket
6
ByLayer
62
256
370
-1
100
AcDbLine
10
5.81119566832
20
0.719816392187
11
5.82751144695
21
0.720885714198
0
LINE
5
10B
100
AcDbEntity
8
cc_xr_bracket
6
ByLayer
62
256
370
-1
100
AcDbLine
10
5.93193699564
20
0.812464147205
11
5.93512694414
21
0.828500740067
0
LINE
5
10C
100
AcDbEntity
8
cc_xr_bracket
6
ByLayer
62
256
370
-1
100
AcDbLine
10
5.91036504661
20
0.768720786165
11
5.91944911314
21
0.782315925641
0
LINE
5
10D
100
AcDbEntity
8
cc_xr_bracket
6
ByLayer
62
256
370
-1
100
AcDbLine
10
5.91036504661
20
0.768720786165
11
5.91036524637
21
0.768721442186
0
LINE
5
10E
100
AcDbEntity
8
cc_xr_bracket
6
ByLayer
62
256
370
-1
100
AcDbLine
10
5.91036524637
20
0.768721442186
11
5.9194493129
21
0.782316581662
0
LINE
5
10F
100
AcDbEntity
8
cc_xr_bracket
6
ByLayer
62
256
370
-1
100
AcDbLine
10
5.91944911314
20
0.782315925641
11
5.9194493129
21
0.782316581662
0
LINE
5
110
100
AcDbEntity
8
cc_xr_bracket
6
ByLayer
62
256
370
-1
100
AcDbLine
10
4.79191734367
20
2.1580327735
11
4.26908506243
21
2.15804154342
0
LINE
5
111
100
AcDbEntity
8
cc_xr_bracket
6
ByLayer
62
256
370
-1
100
AcDbLine
10
5.42564544402
20
1.21909372888
11
5.41895926526
21
1.23523578911
0
LINE
5
112
100
AcDbEntity
8
cc_xr_bracket
6
ByLayer
62
256
370
-1
100
AcDbLine
10
5.42564714075
20
1.612794466
11
5.41896096198
21
1.62893652623
0
LINE
5
113
100
AcDbEntity
8
cc_xr_bracket
6
ByLayer
62
256
370
-1
100
AcDbLine
10
5.42564778392
20
1.61279489531
11
5.41896160516
21
1.62893695554
0
LINE
5
114
100
AcDbEntity
8
cc_xr_bracket
6
ByLayer
62
256
370
-1
100
AcDbLine
10
5.41896096198
20
1.62893652623
11
5.41896160516
21
1.62893695554
0
LINE
5
115
100
AcDbEntity
8
cc_xr_bracket
6
ByLayer
62
256
370
-1
100
AcDbLine
10
4.92119852285
20
0.322777476938
11
4.89572425688
21
0.319423726771
0
LINE
5
116
100
AcDbEntity
8
cc_xr_bracket
6
ByLayer
62
256
370
-1
100
AcDbLine
10
4.92119852285
20
0.322777476938
11
4.92119963685
21
0.322774644635
0
LINE
5
117
100
AcDbEntity
8
cc_xr_bracket
6
ByLayer
62
256
370
-1
100
AcDbLine
10
4.9466727887
20
0.31942372556
11
4.94667390269
21
0.319420893256
0
LINE
5
118
100
AcDbEntity
8
cc_xr_bracket
6
ByLayer
62
256
370
-1
100
AcDbLine
10
5.54825656437
20
1.26988029874
11
5.55053704451
21
1.25255775548
0
LINE
5
119
100
AcDbEntity
8
cc_xr_bracket
6
ByLayer
62
256
370
-1
100
AcDbLine
10
5.43628166939
20
1.20523220642
11
5.42564544402
21
1.21909372888
0
LINE
5
11A
100
AcDbEntity
8
cc_xr_bracket
6
ByLayer
62
256
370
-1
100
AcDbLine
10
5.43628230569
20
1.20523262895
11
5.42564608032
21
1.21909415141
0
LINE
5
11B
100
AcDbEntity
8
cc_xr_bracket
6
ByLayer
62
256
370
-1
100
AcDbLine
10
5.42564544402
20
1.21909372888
11
5.42564608032
21
1.21909415141
0
LINE
5
11C
100
AcDbEntity
8
cc_xr_bracket
6
ByLayer
62
256
370
-1
100
AcDbLine
10
4.56557590083
20
1.66355320356
11
4.56785645577
21
1.64623066903
0
LINE
5
11D
100
AcDbEntity
8
cc_xr_bracket
6
ByLayer
62
256
370
-1
100
AcDbLine
10
4.56785697347
20
1.64622863906
11
4.56785645577
21
1.64623066903
0
LINE
5
11E
100
AcDbEntity
8
cc_xr_bracket
6
ByLayer
62
256
370
-1
100
AcDbLine
10
5.41895926526
20
1.23523578911
11
5.41895990156
21
1.23523621164
0
LINE
5
11F
100
AcDbEntity
8
cc_xr_bracket
6
ByLayer
62
256
370
-1
100
AcDbLine
10
4.9704110253
20
0.30959102525
11
4.9466727887
21
0.31942372556
0
LINE
5
120
100
AcDbEntity
8
cc_xr_bracket
6
ByLayer
62
256
370
-1
100
AcDbLine
10
4.9704110253
20
0.30959102525
11
4.97041213929
21
0.309588192946
0
LINE
5
121
100
AcDbEntity
8
cc_xr_bracket
6
ByLayer
62
256
370
-1
100
AcDbLine
10
5.93620454708
20
2.15802663674
11
5.93619640679
21
0.844816509494
0
LINE
5
122
100
AcDbEntity
8
cc_xr_bracket
6
ByLayer
62
256
370
-1
100
AcDbLine
10
5.89958417374
20
0.756427663606
11
5.91036504661
21
0.768720786165
0
LINE
5
123
100
AcDbEntity
8
cc_xr_bracket
6
ByLayer
62
256
370
-1
100
AcDbLine
10
5.89958417374
20
0.756427663606
11
5.89958437351
21
0.756428319627
0
LINE
5
124
100
AcDbEntity
8
cc_xr_bracket
6
ByLayer
62
256
370
-1
100
AcDbLine
10
5.89958437351
20
0.756428319627
11
5.91036524637
21
0.768721442186
0
LINE
5
125
100
AcDbEntity
8
cc_xr_bracket
6
ByLayer
62
256
370
-1
100
AcDbLine
10
5.81119566832
20
0.719816392187
11
5.81119586808
21
0.719817048207
0
LINE
5
126
100
AcDbEntity
8
cc_xr_bracket
6
ByLayer
62
256
370
-1
100
AcDbLine
10
5.81119586808
20
0.719817048207
11
5.82751164671
21
0.720886370219
0
LINE
5
127
100
AcDbEntity
8
cc_xr_bracket
6
ByLayer
62
256
370
-1
100
AcDbLine
10
5.85903133813
20
0.729331900485
11
5.87369594025
21
0.736563603375
0
LINE
5
128
100
AcDbEntity
8
cc_xr_bracket
6
ByLayer
62
256
370
-1
100
AcDbLine
10
5.82751144695
20
0.720885714198
11
5.84354806731
21
0.72407552447
0
LINE
5
129
100
AcDbEntity
8
cc_xr_bracket
6
ByLayer
62
256
370
-1
100
AcDbLine
10
5.01962352327
20
0.224352467407
11
5.01626977613
21
0.249826734292
0
LINE
5
12A
100
AcDbEntity
8
cc_xr_bracket
6
ByLayer
62
256
370
-1
100
AcDbLine
10
4.56557641853
20
1.62890610457
11
4.56557590083
21
1.62890813455
0
LINE
5
12B
100
AcDbEntity
8
cc_xr_bracket
6
ByLayer
62
256
370
-1
100
AcDbLine
10
4.53439240654
20
1.58826630893
11
4.53439188883
21
1.5882683389
0
LINE
5
12C
100
AcDbEntity
8
cc_xr_bracket
6
ByLayer
62
256
370
-1
100
AcDbLine
10
5.88729115802
20
0.745647552719
11
5.89958437351
21
0.756428319627
0
LINE
5
12D
100
AcDbEntity
8
cc_xr_bracket
6
ByLayer
62
256
370
-1
100
AcDbLine
10
5.14462352327
20
0.000927467239102
11
4.05407354992
21
0.000927467239102
0
LINE
5
12E
100
AcDbEntity
8
cc_xr_bracket
6
ByLayer
62
256
370
-1
100
AcDbLine
10
5.41667942142
20
1.25255875491
11
5.41896005087
21
1.26988127851
0
LINE
5
12F
100
AcDbEntity
8
cc_xr_bracket
6
ByLayer
62
256
370
-1
100
AcDbLine
10
4.37592354409
20
0.224456394206
11
4.37256979365
21
0.198982130522
0
LINE
5
130
100
AcDbEntity
8
cc_xr_bracket
6
ByLayer
62
256
370
-1
100
AcDbLine
10
4.26909294532
20
1.71982272938
11
4.26908506243
21
1.71982444911
0
LINE
5
131
100
AcDbEntity
8
cc_xr_bracket
6
ByLayer
62
256
370
-1
100
AcDbLine
10
4.05406695982
20
1.03914091393
11
4.26908506243
21
1.71982444911
0
LINE
5
132
100
AcDbEntity
8
cc_xr_bracket
6
ByLayer
62
256
370
-1
100
AcDbLine
10
4.05407484271
20
1.0391391942
11
4.05406695982
21
1.03914091393
0
LINE
5
133
100
AcDbEntity
8
cc_xr_bracket
6
ByLayer
62
256
370
-1
100
AcDbLine
10
5.55053874123
20
1.6462584926
11
5.55053938441
21
1.64625892191
0
LINE
5
134
100
AcDbEntity
8
cc_xr_bracket
6
ByLayer
62
256
370
-1
100
AcDbLine
10
4.32671104557
20
0.309694941656
11
4.3470955299
21
0.294053376789
0
LINE
5
135
100
AcDbEntity
8
cc_xr_bracket
6
ByLayer
62
256
370
-1
100
AcDbLine
10
5.41896096198
20
1.62893652623
11
5.41668048184
21
1.6462590695
0
LINE
5
136
100
AcDbEntity
8
cc_xr_bracket
6
ByLayer
62
256
370
-1
100
AcDbLine
10
5.41895926526
20
1.23523578911
11
5.41667878512
21
1.25255833237
0
LINE
5
137
100
AcDbEntity
8
cc_xr_bracket
6
ByLayer
62
256
370
-1
100
AcDbLine
10
5.41895990156
20
1.23523621164
11
5.41667942142
21
1.25255875491
0
LINE
5
138
100
AcDbEntity
8
cc_xr_bracket
6
ByLayer
62
256
370
-1
100
AcDbLine
10
5.41668048184
20
1.6462590695
11
5.41896111129
21
1.6635815931
0
LINE
5
139
100
AcDbEntity
8
cc_xr_bracket
6
ByLayer
62
256
370
-1
100
AcDbLine
10
5.00643707696
20
0.273564971606
11
4.99079551106
21
0.293949458285
0
LINE
5
13A
100
AcDbEntity
8
cc_xr_bracket
6
ByLayer
62
256
370
-1
100
AcDbLine
10
5.01626977613
20
0.249826734292
11
5.00643707696
21
0.273564971606
0
LINE
5
13B
100
AcDbEntity
8
cc_xr_bracket
6
ByLayer
62
256
370
-1
100
AcDbLine
10
5.01626977613
20
0.249826734292
11
5.01627089012
21
0.249823901988
0
LINE
5
13C
100
AcDbEntity
8
cc_xr_bracket
6
ByLayer
62
256
370
-1
100
AcDbLine
10
5.46628565999
20
1.31720669348
11
5.48360820326
21
1.31948717362
0
LINE
5
13D
100
AcDbEntity
8
cc_xr_bracket
6
ByLayer
62
256
370
-1
100
AcDbLine
10
5.41896111129
20
1.6635815931
11
5.42564742919
21
1.6797235957
0
LINE
5
13E
100
AcDbEntity
8
cc_xr_bracket
6
ByLayer
62
256
370
-1
100
AcDbLine
10
5.41667878512
20
1.25255833237
11
5.41895941457
21
1.26988085598
0
LINE
5
13F
100
AcDbEntity
8
cc_xr_bracket
6
ByLayer
62
256
370
-1
100
AcDbLine
10
4.18242730045
20
0.198982130079
11
4.17907354992
21
0.224456393977
0
LINE
5
140
100
AcDbEntity
8
cc_xr_bracket
6
ByLayer
62
256
370
-1
100
AcDbLine
10
5.41895941457
20
1.26988085598
11
5.42564573247
21
1.28602285858
0
LINE
5
141
100
AcDbEntity
8
cc_xr_bracket
6
ByLayer
62
256
370
-1
100
AcDbLine
10
5.41896005087
20
1.26988127851
11
5.42564636877
21
1.28602328111
0
LINE
5
142
100
AcDbEntity
8
cc_xr_bracket
6
ByLayer
62
256
370
-1
100
AcDbLine
10
5.01962352327
20
0.224352467407
11
5.01962463726
21
0.224349635103
0
LINE
5
143
100
AcDbEntity
8
cc_xr_bracket
6
ByLayer
62
256
370
-1
100
AcDbLine
10
4.36273709486
20
0.273668892557
11
4.37256979365
21
0.249930657875
0
LINE
5
144
100
AcDbEntity
8
cc_xr_bracket
6
ByLayer
62
256
370
-1
100
AcDbLine
10
5.01626977516
20
0.198878201841
11
5.01962352327
21
0.224352467407
0
LINE
5
145
100
AcDbEntity
8
cc_xr_bracket
6
ByLayer
62
256
370
-1
100
AcDbLine
10
5.42564742919
20
1.6797235957
11
5.43628377403
21
1.69358502648
0
LINE
5
146
100
AcDbEntity
8
cc_xr_bracket
6
ByLayer
62
256
370
-1
100
AcDbLine
10
5.48360932309
20
1.57932965135
11
5.46628679948
21
1.5816102808
0
LINE
5
147
100
AcDbEntity
8
cc_xr_bracket
6
ByLayer
62
256
370
-1
100
AcDbLine
10
5.48360989998
20
1.71318791074
11
5.50093242359
21
1.7109072813
0
LINE
5
148
100
AcDbEntity
8
cc_xr_bracket
6
ByLayer
62
256
370
-1
100
AcDbLine
10
4.2079015642
20
0.294053376465
11
4.20790267819
21
0.294050544161
0
LINE
5
149
100
AcDbEntity
8
cc_xr_bracket
6
ByLayer
62
256
370
-1
100
AcDbLine
10
5.5415703856
20
1.28602235897
11
5.54825656437
21
1.26988029874
0
LINE
5
14A
100
AcDbEntity
8
cc_xr_bracket
6
ByLayer
62
256
370
-1
100
AcDbLine
10
5.43628271361
20
1.29988471189
11
5.45014423607
21
1.31052093725
0
LINE
5
14B
100
AcDbEntity
8
cc_xr_bracket
6
ByLayer
62
256
370
-1
100
AcDbLine
10
5.54157208232
20
1.67972309609
11
5.54825826109
21
1.66358103587
0
LINE
5
14C
100
AcDbEntity
8
cc_xr_bracket
6
ByLayer
62
256
370
-1
100
AcDbLine
10
4.4536012775
20
1.59890462464
11
4.44296499174
21
1.61276610211
0
LINE
5
14D
100
AcDbEntity
8
cc_xr_bracket
6
ByLayer
62
256
370
-1
100
AcDbLine
10
5.53093544904
20
1.59893253562
11
5.51707392658
21
1.58829631026
0
LINE
5
14E
100
AcDbEntity
8
cc_xr_bracket
6
ByLayer
62
256
370
-1
100
AcDbLine
10
4.2079015642
20
0.154859411165
11
4.19225999924
21
0.175243895397
0
LINE
5
14F
100
AcDbEntity
8
cc_xr_bracket
6
ByLayer
62
256
370
-1
100
AcDbLine
10
5.93619620702
20
0.844815853473
11
5.93619640679
21
0.844816509494
0
LINE
5
150
100
AcDbEntity
8
cc_xr_bracket
6
ByLayer
62
256
370
-1
100
AcDbLine
10
5.93620454708
20
2.15802617769
11
5.93620454708
21
2.15802663674
0
LINE
5
151
100
AcDbEntity
8
cc_xr_bracket
6
ByLayer
62
256
370
-1
100
AcDbLine
10
5.93619620702
20
0.844815853473
11
5.93620454708
21
2.15802617769
0
LINE
5
152
100
AcDbEntity
8
cc_xr_bracket
6
ByLayer
62
256
370
-1
100
AcDbLine
10
4.22828604853
20
0.309694941427
11
4.2520242833
21
0.319527640244
0
LINE
5
153
100
AcDbEntity
8
cc_xr_bracket
6
ByLayer
62
256
370
-1
100
AcDbLine
10
4.44296499174
20
1.61276610211
11
4.43627874299
21
1.62890813451
0
LINE
5
154
100
AcDbEntity
8
cc_xr_bracket
6
ByLayer
62
256
370
-1
100
AcDbLine
10
5.42564807237
20
1.67972402501
11
5.43628441721
21
1.69358545579
0
LINE
5
155
100
AcDbEntity
8
cc_xr_bracket
6
ByLayer
62
256
370
-1
100
AcDbLine
10
5.43628377403
20
1.69358502648
11
5.43628441721
21
1.69358545579
0
LINE
5
156
100
AcDbEntity
8
cc_xr_bracket
6
ByLayer
62
256
370
-1
100
AcDbLine
10
5.53093416024
20
1.29988388143
11
5.5415703856
21
1.28602235897
0
LINE
5
157
100
AcDbEntity
8
cc_xr_bracket
6
ByLayer
62
256
370
-1
100
AcDbLine
10
4.56557590083
20
1.62890813455
11
4.55888965208
21
1.61276610214
0
LINE
5
158
100
AcDbEntity
8
cc_xr_bracket
6
ByLayer
62
256
370
-1
100
AcDbLine
10
4.27749854705
20
0.126031397214
11
4.2520242833
21
0.129385147592
0
LINE
5
159
100
AcDbEntity
8
cc_xr_bracket
6
ByLayer
62
256
370
-1
100
AcDbLine
10
4.3029728108
20
0.319527640363
11
4.30297392479
21
0.319524808059
0
LINE
5
15A
100
AcDbEntity
8
cc_xr_bracket
6
ByLayer
62
256
370
-1
100
AcDbLine
10
4.2520242833
20
0.129385147592
11
4.22828604853
21
0.139217846298
0
LINE
5
15B
100
AcDbEntity
8
cc_xr_bracket
6
ByLayer
62
256
370
-1
100
AcDbLine
10
4.22828604853
20
0.139217846298
11
4.22828716252
21
0.139215013995
0
LINE
5
15C
100
AcDbEntity
8
cc_xr_bracket
6
ByLayer
62
256
370
-1
100
AcDbLine
10
4.55888965208
20
1.61276610214
11
4.54825336631
21
1.59890462466
0
LINE
5
15D
100
AcDbEntity
8
cc_xr_bracket
6
ByLayer
62
256
370
-1
100
AcDbLine
10
4.3470955299
20
0.294053376789
11
4.34709664389
21
0.294050544485
0
LINE
5
15E
100
AcDbEntity
8
cc_xr_bracket
6
ByLayer
62
256
370
-1
100
AcDbLine
10
4.46746327269
20
1.58826630891
11
4.46746275498
21
1.58826833888
0
LINE
5
15F
100
AcDbEntity
8
cc_xr_bracket
6
ByLayer
62
256
370
-1
100
AcDbLine
10
5.14462352327
20
0.000927467239102
11
5.14462463726
21
0.000924634935649
0
LINE
5
160
100
AcDbEntity
8
cc_xr_bracket
6
ByLayer
62
256
370
-1
100
AcDbLine
10
5.42564573247
20
1.28602285858
11
5.43628207731
21
1.29988428935
0
LINE
5
161
100
AcDbEntity
8
cc_xr_bracket
6
ByLayer
62
256
370
-1
100
AcDbLine
10
5.43628207731
20
1.29988428935
11
5.43628271361
21
1.29988471189
0
LINE
5
162
100
AcDbEntity
8
cc_xr_bracket
6
ByLayer
62
256
370
-1
100
AcDbLine
10
4.3029728108
20
0.12938514771
11
4.30297392479
21
0.129382315407
0
LINE
5
163
100
AcDbEntity
8
cc_xr_bracket
6
ByLayer
62
256
370
-1
100
AcDbLine
10
4.22828604853
20
0.309694941427
11
4.22828716252
21
0.309692109123
0
LINE
5
164
100
AcDbEntity
8
cc_xr_bracket
6
ByLayer
62
256
370
-1
100
AcDbLine
10
5.82751144695
20
0.720885714198
11
5.82751164671
21
0.720886370219
0
LINE
5
165
100
AcDbEntity
8
cc_xr_bracket
6
ByLayer
62
256
370
-1
100
AcDbLine
10
5.53093650014
20
1.69358504786
11
5.5415727255
21
1.6797235254
0
LINE
5
166
100
AcDbEntity
8
cc_xr_bracket
6
ByLayer
62
256
370
-1
100
AcDbLine
10
4.4362792607
20
1.62890610453
11
4.43627874299
21
1.62890813451
0
LINE
5
167
100
AcDbEntity
8
cc_xr_bracket
6
ByLayer
62
256
370
-1
100
AcDbLine
10
5.53093375232
20
1.2052317985
11
5.51707222986
21
1.19459557313
0
LINE
5
168
100
AcDbEntity
8
cc_xr_bracket
6
ByLayer
62
256
370
-1
100
AcDbLine
10
5.51707272946
20
1.31052022627
11
5.53093416024
21
1.29988388143
0
LINE
5
169
100
AcDbEntity
8
cc_xr_bracket
6
ByLayer
62
256
370
-1
100
AcDbLine
10
4.53439188883
20
1.5882683389
11
4.51824985642
21
1.58158209015
0
LINE
5
16A
100
AcDbEntity
8
cc_xr_bracket
6
ByLayer
62
256
370
-1
100
AcDbLine
10
4.36273709486
20
0.175243895794
11
4.36273820885
21
0.175241063491
0
LINE
5
16B
100
AcDbEntity
8
cc_xr_bracket
6
ByLayer
62
256
370
-1
100
AcDbLine
10
5.43628207731
20
1.29988428935
11
5.45014359976
21
1.31052051472
0
LINE
5
16C
100
AcDbEntity
8
cc_xr_bracket
6
ByLayer
62
256
370
-1
100
AcDbLine
10
5.45014359976
20
1.31052051472
11
5.45014423607
21
1.31052093725
0
LINE
5
16D
100
AcDbEntity
8
cc_xr_bracket
6
ByLayer
62
256
370
-1
100
AcDbLine
10
5.53093585696
20
1.69358461855
11
5.54157208232
21
1.67972309609
0
LINE
5
16E
100
AcDbEntity
8
cc_xr_bracket
6
ByLayer
62
256
370
-1
100
AcDbLine
10
5.51707272946
20
1.31052022627
11
5.51707336576
21
1.3105206488
0
LINE
5
16F
100
AcDbEntity
8
cc_xr_bracket
6
ByLayer
62
256
370
-1
100
AcDbLine
10
4.18242730045
20
0.198982130079
11
4.18242841444
21
0.198979297776
0
LINE
5
170
100
AcDbEntity
8
cc_xr_bracket
6
ByLayer
62
256
370
-1
100
AcDbLine
10
4.22828604853
20
0.139217846298
11
4.2079015642
21
0.154859411165
0
LINE
5
171
100
AcDbEntity
8
cc_xr_bracket
6
ByLayer
62
256
370
-1
100
AcDbLine
10
4.2079015642
20
0.154859411165
11
4.20790267819
21
0.154856578862
0
LINE
5
172
100
AcDbEntity
8
cc_xr_bracket
6
ByLayer
62
256
370
-1
100
AcDbLine
10
4.44296550945
20
1.61276407213
11
4.44296499174
21
1.61276610211
0
LINE
5
173
100
AcDbEntity
8
cc_xr_bracket
6
ByLayer
62
256
370
-1
100
AcDbLine
10
4.26909294532
20
2.15803982369
11
4.26908506243
21
2.15804154342
0
LINE
5
174
100
AcDbEntity
8
cc_xr_bracket
6
ByLayer
62
256
370
-1
100
AcDbLine
10
5.93512694414
20
0.828500740067
11
5.93619640679
21
0.844816509494
0
LINE
5
175
100
AcDbEntity
8
cc_xr_bracket
6
ByLayer
62
256
370
-1
100
AcDbLine
10
5.84354826707
20
0.724076180491
11
5.85903133813
21
0.729331900485
0
LINE
5
176
100
AcDbEntity
8
cc_xr_bracket
6
ByLayer
62
256
370
-1
100
AcDbLine
10
5.82751164671
20
0.720886370219
11
5.84354826707
21
0.724076180491
0
LINE
5
177
100
AcDbEntity
8
cc_xr_bracket
6
ByLayer
62
256
370
-1
100
AcDbLine
10
5.48360826267
20
1.18562933676
11
5.46628573906
21
1.18790996621
0
LINE
5
178
100
AcDbEntity
8
cc_xr_bracket
6
ByLayer
62
256
370
-1
100
AcDbLine
10
5.51707286616
20
1.19459599566
11
5.50093080594
21
1.1879098169
0
LINE
5
179
100
AcDbEntity
8
cc_xr_bracket
6
ByLayer
62
256
370
-1
100
AcDbLine
10
5.53093438862
20
1.20523222103
11
5.51707286616
21
1.19459599566
0
LINE
5
17A
100
AcDbEntity
8
cc_xr_bracket
6
ByLayer
62
256
370
-1
100
AcDbLine
10
5.51707336576
20
1.3105206488
11
5.53093479654
21
1.29988430396
0
LINE
5
17B
100
AcDbEntity
8
cc_xr_bracket
6
ByLayer
62
256
370
-1
100
AcDbLine
10
5.50093136317
20
1.31720696671
11
5.51707336576
21
1.3105206488
0
LINE
5
17C
100
AcDbEntity
8
cc_xr_bracket
6
ByLayer
62
256
370
-1
100
AcDbLine
10
5.50093250953
20
1.5816105608
11
5.48360996627
21
1.57933008066
0
LINE
5
17D
100
AcDbEntity
8
cc_xr_bracket
6
ByLayer
62
256
370
-1
100
AcDbLine
10
5.51707456976
20
1.58829673956
11
5.50093250953
21
1.5816105608
0
LINE
5
17E
100
AcDbEntity
8
cc_xr_bracket
6
ByLayer
62
256
370
-1
100
AcDbLine
10
5.53093609222
20
1.59893296493
11
5.51707456976
21
1.58829673956
0
LINE
5
17F
100
AcDbEntity
8
cc_xr_bracket
6
ByLayer
62
256
370
-1
100
AcDbLine
10
5.55053938441
20
1.64625892191
11
5.54825875496
21
1.6289363983
0
LINE
5
180
100
AcDbEntity
8
cc_xr_bracket
6
ByLayer
62
256
370
-1
100
AcDbLine
10
5.51707506936
20
1.7042213927
11
5.53093650014
21
1.69358504786
0
LINE
5
181
100
AcDbEntity
8
cc_xr_bracket
6
ByLayer
62
256
370
-1
100
AcDbLine
10
5.43628441721
20
1.69358545579
11
5.45014593966
21
1.70422168115
0
LINE
5
182
100
AcDbEntity
8
cc_xr_bracket
6
ByLayer
62
256
370
-1
100
AcDbLine
10
5.14461916576
20
0.500039058279
11
4.79191836253
21
0.719829797112
0
LINE
5
183
100
AcDbEntity
8
cc_xr_bracket
6
ByLayer
62
256
370
-1
100
AcDbLine
10
5.14461916576
20
0.500039058279
11
5.14462352327
21
0.000927467239102
0
LINE
5
184
100
AcDbEntity
8
cc_xr_bracket
6
ByLayer
62
256
370
-1
100
AcDbLine
10
4.26908506243
20
1.71982444911
11
4.26908506243
21
2.15804154342
0
LINE
5
185
100
AcDbEntity
8
cc_xr_bracket
6
ByLayer
62
256
370
-1
100
AcDbLine
10
4.3029728108
20
0.12938514771
11
4.27749854705
21
0.126031397214
0
LINE
5
186
100
AcDbEntity
8
cc_xr_bracket
6
ByLayer
62
256
370
-1
100
AcDbLine
10
4.36273709486
20
0.175243895794
11
4.3470955299
21
0.15485941149
0
LINE
5
187
100
AcDbEntity
8
cc_xr_bracket
6
ByLayer
62
256
370
-1
100
AcDbLine
10
4.37256979365
20
0.198982130522
11
4.36273709486
21
0.175243895794
0
LINE
5
188
100
AcDbEntity
8
cc_xr_bracket
6
ByLayer
62
256
370
-1
100
AcDbLine
10
4.37256979365
20
0.249930657875
11
4.37592354409
21
0.224456394206
0
LINE
5
189
100
AcDbEntity
8
cc_xr_bracket
6
ByLayer
62
256
370
-1
100
AcDbLine
10
4.3470955299
20
0.294053376789
11
4.36273709486
21
0.273668892557
0
LINE
5
18A
100
AcDbEntity
8
cc_xr_bracket
6
ByLayer
62
256
370
-1
100
AcDbLine
10
4.3029728108
20
0.319527640363
11
4.32671104557
21
0.309694941656
0
LINE
5
18B
100
AcDbEntity
8
cc_xr_bracket
6
ByLayer
62
256
370
-1
100
AcDbLine
10
4.27749854705
20
0.32288139074
11
4.3029728108
21
0.319527640363
0
LINE
5
18C
100
AcDbEntity
8
cc_xr_bracket
6
ByLayer
62
256
370
-1
100
AcDbLine
10
4.2520242833
20
0.319527640244
11
4.27749854705
21
0.32288139074
0
LINE
5
18D
100
AcDbEntity
8
cc_xr_bracket
6
ByLayer
62
256
370
-1
100
AcDbLine
10
4.2079015642
20
0.294053376465
11
4.22828604853
21
0.309694941427
0
LINE
5
18E
100
AcDbEntity
8
cc_xr_bracket
6
ByLayer
62
256
370
-1
100
AcDbLine
10
4.19225999924
20
0.27366889216
11
4.2079015642
21
0.294053376465
0
LINE
5
18F
100
AcDbEntity
8
cc_xr_bracket
6
ByLayer
62
256
370
-1
100
AcDbLine
10
4.19225999924
20
0.175243895397
11
4.18242730045
21
0.198982130079
0
LINE
5
190
100
AcDbEntity
8
cc_xr_bracket
6
ByLayer
62
256
370
-1
100
AcDbLine
10
4.43399818805
20
1.64623066903
11
4.43627874299
21
1.66355320352
0
LINE
5
191
100
AcDbEntity
8
cc_xr_bracket
6
ByLayer
62
256
370
-1
100
AcDbLine
10
4.43627874299
20
1.62890813451
11
4.43399818805
21
1.64623066903
0
LINE
5
192
100
AcDbEntity
8
cc_xr_bracket
6
ByLayer
62
256
370
-1
100
AcDbLine
10
4.50092732191
20
1.57930153521
11
4.4836047874
21
1.58158209014
0
LINE
5
193
100
AcDbEntity
8
cc_xr_bracket
6
ByLayer
62
256
370
-1
100
AcDbLine
10
4.19225999924
20
0.175243895397
11
4.19226111323
21
0.175241063093
0
LINE
5
194
100
AcDbEntity
8
cc_xr_bracket
6
ByLayer
62
256
370
-1
100
AcDbLine
10
4.17907354992
20
0.224456393977
11
4.17907466391
21
0.224453561674
0
LINE
5
195
100
AcDbEntity
8
cc_xr_bracket
6
ByLayer
62
256
370
-1
100
AcDbLine
10
5.45014359976
20
1.31052051472
11
5.46628565999
21
1.31720669348
0
LINE
5
196
100
AcDbEntity
8
cc_xr_bracket
6
ByLayer
62
256
370
-1
100
AcDbLine
10
5.46628565999
20
1.31720669348
11
5.46628629629
21
1.31720711602
0
LINE
5
197
100
AcDbEntity
8
cc_xr_bracket
6
ByLayer
62
256
370
-1
100
AcDbLine
10
4.18242730045
20
0.249930657432
11
4.18242841444
21
0.249927825129
0
LINE
5
198
100
AcDbEntity
8
cc_xr_bracket
6
ByLayer
62
256
370
-1
100
AcDbLine
10
5.43628377403
20
1.69358502648
11
5.45014529649
21
1.70422125184
0
LINE
5
199
100
AcDbEntity
8
cc_xr_bracket
6
ByLayer
62
256
370
-1
100
AcDbLine
10
5.45014529649
20
1.70422125184
11
5.45014593966
21
1.70422168115
0
LINE
5
19A
100
AcDbEntity
8
cc_xr_bracket
6
ByLayer
62
256
370
-1
100
AcDbLine
10
5.84354806731
20
0.72407552447
11
5.85903113837
21
0.729331244464
0
LINE
5
19B
100
AcDbEntity
8
cc_xr_bracket
6
ByLayer
62
256
370
-1
100
AcDbLine
10
5.85903113837
20
0.729331244464
11
5.87369574049
21
0.736562947354
0
LINE
5
19C
100
AcDbEntity
8
cc_xr_bracket
6
ByLayer
62
256
370
-1
100
AcDbLine
10
5.88729095826
20
0.745646896699
11
5.89958417374
21
0.756427663606
0
LINE
5
19D
100
AcDbEntity
8
cc_xr_bracket
6
ByLayer
62
256
370
-1
100
AcDbLine
10
5.91944911314
20
0.782315925641
11
5.92668094243
21
0.796980465428
0
LINE
5
19E
100
AcDbEntity
8
cc_xr_bracket
6
ByLayer
62
256
370
-1
100
AcDbLine
10
5.92668094243
20
0.796980465428
11
5.93193679588
21
0.812463491185
0
LINE
5
19F
100
AcDbEntity
8
cc_xr_bracket
6
ByLayer
62
256
370
-1
100
AcDbLine
10
5.93193679588
20
0.812463491185
11
5.93512674437
21
0.828500084047
0
LINE
5
1A0
100
AcDbEntity
8
cc_xr_bracket
6
ByLayer
62
256
370
-1
100
AcDbLine
10
5.93512674437
20
0.828500084047
11
5.93619620702
21
0.844815853473
0
LINE
5
1A1
100
AcDbEntity
8
cc_xr_bracket
6
ByLayer
62
256
370
-1
100
AcDbLine
10
5.48360820326
20
1.31948717362
11
5.50093072686
21
1.31720654417
0
LINE
5
1A2
100
AcDbEntity
8
cc_xr_bracket
6
ByLayer
62
256
370
-1
100
AcDbLine
10
5.50093072686
20
1.31720654417
11
5.51707272946
21
1.31052022627
0
LINE
5
1A3
100
AcDbEntity
8
cc_xr_bracket
6
ByLayer
62
256
370
-1
100
AcDbLine
10
5.54825641506
20
1.23523523187
11
5.54157009716
21
1.21909322927
0
LINE
5
1A4
100
AcDbEntity
8
cc_xr_bracket
6
ByLayer
62
256
370
-1
100
AcDbLine
10
5.54157009716
20
1.21909322927
11
5.53093375232
21
1.2052317985
0
LINE
5
1A5
100
AcDbEntity
8
cc_xr_bracket
6
ByLayer
62
256
370
-1
100
AcDbLine
10
5.51707222986
20
1.19459557313
11
5.50093016963
21
1.18790939437
0
LINE
5
1A6
100
AcDbEntity
8
cc_xr_bracket
6
ByLayer
62
256
370
-1
100
AcDbLine
10
5.50093016963
20
1.18790939437
11
5.48360762637
21
1.18562891423
0
LINE
5
1A7
100
AcDbEntity
8
cc_xr_bracket
6
ByLayer
62
256
370
-1
100
AcDbLine
10
5.46628735671
20
1.71090743061
11
5.48360989998
21
1.71318791074
0
LINE
5
1A8
100
AcDbEntity
8
cc_xr_bracket
6
ByLayer
62
256
370
-1
100
AcDbLine
10
5.50093242359
20
1.7109072813
11
5.51707442618
21
1.70422096339
0
LINE
5
1A9
100
AcDbEntity
8
cc_xr_bracket
6
ByLayer
62
256
370
-1
100
AcDbLine
10
5.51707442618
20
1.70422096339
11
5.53093585696
21
1.69358461855
0
LINE
5
1AA
100
AcDbEntity
8
cc_xr_bracket
6
ByLayer
62
256
370
-1
100
AcDbLine
10
5.54825826109
20
1.66358103587
11
5.55053874123
21
1.6462584926
0
LINE
5
1AB
100
AcDbEntity
8
cc_xr_bracket
6
ByLayer
62
256
370
-1
100
AcDbLine
10
5.55053874123
20
1.6462584926
11
5.54825811178
21
1.62893596899
0
LINE
5
1AC
100
AcDbEntity
8
cc_xr_bracket
6
ByLayer
62
256
370
-1
100
AcDbLine
10
5.54825811178
20
1.62893596899
11
5.54157179388
21
1.6127939664
0
LINE
5
1AD
100
AcDbEntity
8
cc_xr_bracket
6
ByLayer
62
256
370
-1
100
AcDbLine
10
5.51707392658
20
1.58829631026
11
5.50093186636
21
1.58161013149
0
LINE
5
1AE
100
AcDbEntity
8
cc_xr_bracket
6
ByLayer
62
256
370
-1
100
AcDbLine
10
5.50093186636
20
1.58161013149
11
5.48360932309
21
1.57932965135
0
LINE
5
1AF
100
AcDbEntity
8
cc_xr_bracket
6
ByLayer
62
256
370
-1
100
AcDbLine
10
5.45014529649
20
1.70422125184
11
5.46628735671
21
1.71090743061
0
LINE
5
1B0
100
AcDbEntity
8
cc_xr_bracket
6
ByLayer
62
256
370
-1
100
AcDbLine
10
5.93193679588
20
0.812463491185
11
5.93193699564
21
0.812464147205
0
LINE
5
1B1
100
AcDbEntity
8
cc_xr_bracket
6
ByLayer
62
256
370
-1
100
AcDbLine
10
5.48360820326
20
1.31948717362
11
5.48360883956
21
1.31948759615
0
LINE
5
1B2
100
AcDbEntity
8
cc_xr_bracket
6
ByLayer
62
256
370
-1
100
AcDbLine
10
5.50093072686
20
1.31720654417
11
5.50093136317
21
1.31720696671
0
LINE
5
1B3
100
AcDbEntity
8
cc_xr_bracket
6
ByLayer
62
256
370
-1
100
AcDbLine
10
4.19225999924
20
0.27366889216
11
4.19226111323
21
0.273666059857
0
LINE
5
1B4
100
AcDbEntity
8
cc_xr_bracket
6
ByLayer
62
256
370
-1
100
AcDbLine
10
4.32671104557
20
0.309694941656
11
4.32671215956
21
0.309692109353
0
LINE
5
1B5
100
AcDbEntity
8
cc_xr_bracket
6
ByLayer
62
256
370
-1
100
AcDbLine
10
5.46628735671
20
1.71090743061
11
5.46628799989
21
1.71090785992
0
LINE
5
1B6
100
AcDbEntity
8
cc_xr_bracket
6
ByLayer
62
256
370
-1
100
AcDbLine
10
4.05407354992
20
0.000927467239102
11
4.05407466391
21
0.000924634935649
0
LINE
5
1B7
100
AcDbEntity
8
cc_xr_bracket
6
ByLayer
62
256
370
-1
100
AcDbLine
10
4.36273709486
20
0.273668892557
11
4.36273820885
21
0.273666060254
0
LINE
5
1B8
100
AcDbEntity
8
cc_xr_bracket
6
ByLayer
62
256
370
-1
100
AcDbLine
10
5.92668094243
20
0.796980465428
11
5.92668114219
21
0.796981121449
0
LINE
5
1B9
100
AcDbEntity
8
cc_xr_bracket
6
ByLayer
62
256
370
-1
100
AcDbLine
10
5.50093242359
20
1.7109072813
11
5.50093306676
21
1.7109077106
0
LINE
5
1BA
100
AcDbEntity
8
cc_xr_bracket
6
ByLayer
62
256
370
-1
100
AcDbLine
10
4.4836053051
20
1.58158006016
11
4.4836047874
21
1.58158209014
0
LINE
5
1BB
100
AcDbEntity
8
cc_xr_bracket
6
ByLayer
62
256
370
-1
100
AcDbLine
10
4.37256979365
20
0.249930657875
11
4.37257090764
21
0.249927825572
0
LINE
5
1BC
100
AcDbEntity
8
cc_xr_bracket
6
ByLayer
62
256
370
-1
100
AcDbLine
10
4.37592354409
20
0.224456394206
11
4.37592465808
21
0.224453561903
0
LINE
5
1BD
100
AcDbEntity
8
cc_xr_bracket
6
ByLayer
62
256
370
-1
100
AcDbLine
10
5.93512674437
20
0.828500084047
11
5.93512694414
21
0.828500740067
0
LINE
5
1BE
100
AcDbEntity
8
cc_xr_bracket
6
ByLayer
62
256
370
-1
100
AcDbLine
10
5.14462471575
20
0.500038351757
11
5.14461916576
21
0.500039058279
0
LINE
5
1BF
100
AcDbEntity
8
cc_xr_bracket
6
ByLayer
62
256
370
-1
100
AcDbLine
10
5.84354806731
20
0.72407552447
11
5.84354826707
21
0.724076180491
0
LINE
5
1C0
100
AcDbEntity
8
cc_xr_bracket
6
ByLayer
62
256
370
-1
100
AcDbLine
10
4.45360179521
20
1.59890259466
11
4.4536012775
21
1.59890462464
0
LINE
5
1C1
100
AcDbEntity
8
cc_xr_bracket
6
ByLayer
62
256
370
-1
100
AcDbLine
10
5.85903113837
20
0.729331244464
11
5.85903133813
21
0.729331900485
0
LINE
5
1C2
100
AcDbEntity
8
cc_xr_bracket
6
ByLayer
62
256
370
-1
100
AcDbLine
10
5.48360932309
20
1.57932965135
11
5.48360996627
21
1.57933008066
0
LINE
5
1C3
100
AcDbEntity
8
cc_xr_bracket
6
ByLayer
62
256
370
-1
100
AcDbLine
10
5.54825656437
20
1.26988029874
11
5.54825720067
21
1.26988072128
0
LINE
5
1C4
100
AcDbEntity
8
cc_xr_bracket
6
ByLayer
62
256
370
-1
100
AcDbLine
10
5.48360762637
20
1.18562891423
11
5.48360826267
21
1.18562933676
0
LINE
5
1C5
100
AcDbEntity
8
cc_xr_bracket
6
ByLayer
62
256
370
-1
100
AcDbLine
10
5.53093585696
20
1.69358461855
11
5.53093650014
21
1.69358504786
0
LINE
5
1C6
100
AcDbEntity
8
cc_xr_bracket
6
ByLayer
62
256
370
-1
100
AcDbLine
10
5.54157009716
20
1.21909322927
11
5.54157073346
21
1.21909365181
0
LINE
5
1C7
100
AcDbEntity
8
cc_xr_bracket
6
ByLayer
62
256
370
-1
100
AcDbLine
10
4.79191379339
20
1.71982272945
11
4.79191951988
21
1.71982465172
0
LINE
5
1C8
100
AcDbEntity
8
cc_xr_bracket
6
ByLayer
62
256
370
-1
100
AcDbLine
10
4.79191836248
20
2.1580330537
11
4.79191734367
21
2.1580327735
0
LINE
5
1C9
100
AcDbEntity
8
cc_xr_bracket
6
ByLayer
62
256
370
-1
100
AcDbLine
10
4.79190948371
20
0.719822729488
11
4.79191836253
21
0.719829797112
0
LINE
5
1CA
100
AcDbEntity
8
cc_xr_bracket
6
ByLayer
62
256
370
-1
100
AcDbLine
10
4.79191836248
20
2.1580330537
11
4.79191379339
21
1.71982272945
0
LINE
5
1CB
100
AcDbEntity
8
cc_xr_bracket
6
ByLayer
62
256
370
-1
100
AcDbLine
10
4.79191734367
20
2.1580327735
11
4.79191951988
21
1.71982465172
0
LINE
5
1CC
100
AcDbEntity
8
cc_xr_bracket
6
ByLayer
62
256
370
-1
100
AcDbLine
10
4.79191836253
20
0.719829797112
11
5.81119586808
21
0.719817048207
0
LINE
5
1CD
100
AcDbEntity
8
cc_xr_bracket
6
ByLayer
62
256
370
-1
100
AcDbLine
10
4.79191379339
20
1.71982272945
11
4.79190948371
21
0.719822729488
0
LINE
5
1CE
100
AcDbEntity
8
cc_xr_bracket
6
ByLayer
62
256
370
-1
100
AcDbLine
10
4.18242841444
20
0.198979297776
11
4.17907466391
21
0.224453561674
0
LINE
5
1CF
100
AcDbEntity
8
cc_xr_bracket
6
ByLayer
62
256
370
-1
100
AcDbLine
10
4.94667389908
20
0.129278381578
11
4.92119963498
21
0.125924634936
0
LINE
5
1D0
100
AcDbEntity
8
cc_xr_bracket
6
ByLayer
62
256
370
-1
100
AcDbLine
10
4.79191951988
20
1.71982465172
11
4.79191836253
21
0.719829797112
0
LINE
5
1D1
100
AcDbEntity
8
cc_xr_bracket
6
ByLayer
62
256
370
-1
100
AcDbLine
10
5.01627088916
20
0.198875369537
11
5.00643818908
21
0.175137132691
0
LINE
5
1D2
100
AcDbEntity
8
cc_xr_bracket
6
ByLayer
62
256
370
-1
100
AcDbLine
10
4.45471197897
20
1.29939585839
11
4.46843870577
21
1.30992874632
0
LINE
5
1D3
100
AcDbEntity
8
cc_xr_bracket
6
ByLayer
62
256
370
-1
100
AcDbLine
10
4.56785645577
20
1.25252988163
11
4.56559807064
21
1.23537574358
0
LINE
5
1D4
100
AcDbEntity
8
cc_xr_bracket
6
ByLayer
62
256
370
-1
100
AcDbLine
10
4.48442381769
20
1.31654999647
11
4.50157795577
21
1.3188083816
0
LINE
5
1D5
100
AcDbEntity
8
cc_xr_bracket
6
ByLayer
62
256
370
-1
100
AcDbLine
10
4.4375578409
20
1.26968401968
11
4.44417909105
21
1.2856691316
0
LINE
5
1D6
100
AcDbEntity
8
cc_xr_bracket
6
ByLayer
62
256
370
-1
100
AcDbLine
10
4.44417909105
20
1.21939063163
11
4.4375578409
21
1.23537574354
0
LINE
5
1D7
100
AcDbEntity
8
cc_xr_bracket
6
ByLayer
62
256
370
-1
100
AcDbLine
10
4.45471197897
20
1.20566390485
11
4.44417909105
21
1.21939063163
0
LINE
5
1D8
100
AcDbEntity
8
cc_xr_bracket
6
ByLayer
62
256
370
-1
100
AcDbLine
10
4.44417909105
20
1.2856691316
11
4.45471197897
21
1.29939585839
0
LINE
5
1D9
100
AcDbEntity
8
cc_xr_bracket
6
ByLayer
62
256
370
-1
100
AcDbLine
10
4.50157795577
20
1.3188083816
11
4.51873209385
21
1.31654999648
0
LINE
5
1DA
100
AcDbEntity
8
cc_xr_bracket
6
ByLayer
62
256
370
-1
100
AcDbLine
10
4.54844393256
20
1.20566390487
11
4.53471720576
21
1.19513101695
0
LINE
5
1DB
100
AcDbEntity
8
cc_xr_bracket
6
ByLayer
62
256
370
-1
100
AcDbLine
10
4.53471720576
20
1.30992874634
11
4.54844393256
21
1.29939585842
0
LINE
5
1DC
100
AcDbEntity
8
cc_xr_bracket
6
ByLayer
62
256
370
-1
100
AcDbLine
10
4.46843870577
20
1.19513101693
11
4.45471197897
21
1.20566390485
0
LINE
5
1DD
100
AcDbEntity
8
cc_xr_bracket
6
ByLayer
62
256
370
-1
100
AcDbLine
10
4.48442381769
20
1.18850976678
11
4.46843870577
21
1.19513101693
0
LINE
5
1DE
100
AcDbEntity
8
cc_xr_bracket
6
ByLayer
62
256
370
-1
100
AcDbLine
10
4.50157795577
20
1.18625138167
11
4.48442381769
21
1.18850976678
0
LINE
5
1DF
100
AcDbEntity
8
cc_xr_bracket
6
ByLayer
62
256
370
-1
100
AcDbLine
10
4.55897682049
20
1.21939063167
11
4.54844393256
21
1.20566390487
0
LINE
5
1E0
100
AcDbEntity
8
cc_xr_bracket
6
ByLayer
62
256
370
-1
100
AcDbLine
10
4.51873209385
20
1.31654999648
11
4.53471720576
21
1.30992874634
0
LINE
5
1E1
100
AcDbEntity
8
cc_xr_bracket
6
ByLayer
62
256
370
-1
100
AcDbLine
10
4.56559807064
20
1.26968401972
11
4.56785645577
21
1.25252988163
0
LINE
5
1E2
100
AcDbEntity
8
cc_xr_bracket
6
ByLayer
62
256
370
-1
100
AcDbLine
10
4.55897682049
20
1.28566913163
11
4.56559807064
21
1.26968401972
0
LINE
5
1E3
100
AcDbEntity
8
cc_xr_bracket
6
ByLayer
62
256
370
-1
100
AcDbLine
10
4.46843870577
20
1.30992874632
11
4.48442381769
21
1.31654999647
0
LINE
5
1E4
100
AcDbEntity
8
cc_xr_bracket
6
ByLayer
62
256
370
-1
100
AcDbLine
10
4.43529945577
20
1.25252988163
11
4.4375578409
21
1.26968401968
0
LINE
5
1E5
100
AcDbEntity
8
cc_xr_bracket
6
ByLayer
62
256
370
-1
100
AcDbLine
10
4.4375578409
20
1.23537574354
11
4.43529945577
21
1.25252988163
0
LINE
5
1E6
100
AcDbEntity
8
cc_xr_bracket
6
ByLayer
62
256
370
-1
100
AcDbLine
10
4.56559807064
20
1.23537574358
11
4.55897682049
21
1.21939063167
0
LINE
5
1E7
100
AcDbEntity
8
cc_xr_bracket
6
ByLayer
62
256
370
-1
100
AcDbLine
10
4.54844393256
20
1.29939585842
11
4.55897682049
21
1.28566913163
0
LINE
5
1E8
100
AcDbEntity
8
cc_xr_bracket
6
ByLayer
62
256
370
-1
100
AcDbLine
10
4.51873209385
20
1.18850976679
11
4.50157795577
21
1.18625138167
0
LINE
5
1E9
100
AcDbEntity
8
cc_xr_bracket
6
ByLayer
62
256
370
-1
100
AcDbLine
10
4.53471720576
20
1.19513101695
11
4.51873209385
21
1.18850976679
0
LINE
5
1EA
100
AcDbEntity
8
cc_xr_bracket
6
ByLayer
62
256
370
-1
100
AcDbLine
10
4.51873261155
20
1.18850773682
11
4.51873209385
21
1.18850976679
0
LINE
5
1EB
100
AcDbEntity
8
cc_xr_bracket
6
ByLayer
62
256
370
-1
100
AcDbLine
10
4.44417960875
20
1.21938860166
11
4.44417909105
21
1.21939063163
0
LINE
5
1EC
100
AcDbEntity
8
cc_xr_bracket
6
ByLayer
62
256
370
-1
100
AcDbLine
10
4.48442433539
20
1.18850773681
11
4.48442381769
21
1.18850976678
0
LINE
5
1ED
100
AcDbEntity
8
cc_xr_bracket
6
ByLayer
62
256
370
-1
100
AcDbLine
10
4.43529997347
20
1.25252785166
11
4.43529945577
21
1.25252988163
0
LINE
5
1EE
100
AcDbEntity
8
cc_xr_bracket
6
ByLayer
62
256
370
-1
100
AcDbLine
10
4.54844445027
20
1.29939382844
11
4.54844393256
21
1.29939585842
0
LINE
5
1EF
100
AcDbEntity
8
cc_xr_bracket
6
ByLayer
62
256
370
-1
100
AcDbLine
10
4.56559858835
20
1.26968198975
11
4.56559807064
21
1.26968401972
0
LINE
5
1F0
100
AcDbEntity
8
cc_xr_bracket
6
ByLayer
62
256
370
-1
100
AcDbLine
10
4.56785697347
20
1.25252785166
11
4.56785645577
21
1.25252988163
0
LINE
5
1F1
100
AcDbEntity
8
cc_xr_bracket
6
ByLayer
62
256
370
-1
100
AcDbLine
10
4.44417960875
20
1.28566710162
11
4.44417909105
21
1.2856691316
0
LINE
5
1F2
100
AcDbEntity
8
cc_xr_bracket
6
ByLayer
62
256
370
-1
100
AcDbLine
10
4.56559858835
20
1.2353737136
11
4.56559807064
21
1.23537574358
0
LINE
5
1F3
100
AcDbEntity
8
cc_xr_bracket
6
ByLayer
62
256
370
-1
100
AcDbLine
10
4.46843922348
20
1.30992671634
11
4.46843870577
21
1.30992874632
0
LINE
5
1F4
100
AcDbEntity
8
cc_xr_bracket
6
ByLayer
62
256
370
-1
100
AcDbLine
10
4.54844445027
20
1.2056618749
11
4.54844393256
21
1.20566390487
0
LINE
5
1F5
100
AcDbEntity
8
cc_xr_bracket
6
ByLayer
62
256
370
-1
100
AcDbLine
10
4.53471772347
20
1.19512898697
11
4.53471720576
21
1.19513101695
0
LINE
5
1F6
100
AcDbEntity
8
cc_xr_bracket
6
ByLayer
62
256
370
-1
100
AcDbLine
10
4.45471249668
20
1.20566187487
11
4.45471197897
21
1.20566390485
0
LINE
5
1F7
100
AcDbEntity
8
cc_xr_bracket
6
ByLayer
62
256
370
-1
100
AcDbLine
10
4.48442433539
20
1.3165479665
11
4.48442381769
21
1.31654999647
0
LINE
5
1F8
100
AcDbEntity
8
cc_xr_bracket
6
ByLayer
62
256
370
-1
100
AcDbLine
10
4.45471249668
20
1.29939382841
11
4.45471197897
21
1.29939585839
0
LINE
5
1F9
100
AcDbEntity
8
cc_xr_bracket
6
ByLayer
62
256
370
-1
100
AcDbLine
10
4.55897733819
20
1.21938860169
11
4.55897682049
21
1.21939063167
0
LINE
5
1FA
100
AcDbEntity
8
cc_xr_bracket
6
ByLayer
62
256
370
-1
100
AcDbLine
10
4.50157847347
20
1.18624935169
11
4.50157795577
21
1.18625138167
0
LINE
5
1FB
100
AcDbEntity
8
cc_xr_bracket
6
ByLayer
62
256
370
-1
100
AcDbLine
10
4.53471772347
20
1.30992671636
11
4.53471720576
21
1.30992874634
0
LINE
5
1FC
100
AcDbEntity
8
cc_xr_bracket
6
ByLayer
62
256
370
-1
100
AcDbLine
10
4.46843922348
20
1.19512898695
11
4.46843870577
21
1.19513101693
0
LINE
5
1FD
100
AcDbEntity
8
cc_xr_bracket
6
ByLayer
62
256
370
-1
100
AcDbLine
10
4.51873261155
20
1.31654796651
11
4.51873209385
21
1.31654999648
0
LINE
5
1FE
100
AcDbEntity
8
cc_xr_bracket
6
ByLayer
62
256
370
-1
100
AcDbLine
10
4.4375583586
20
1.26968198971
11
4.4375578409
21
1.26968401968
0
LINE
5
1FF
100
AcDbEntity
8
cc_xr_bracket
6
ByLayer
62
256
370
-1
100
AcDbLine
10
4.50157847347
20
1.31880635162
11
4.50157795577
21
1.3188083816
0
LINE
5
200
100
AcDbEntity
8
cc_xr_bracket
6
ByLayer
62
256
370
-1
100
AcDbLine
10
4.4375583586
20
1.23537371357
11
4.4375578409
21
1.23537574354
0
LINE
5
201
100
AcDbEntity
8
cc_xr_bracket
6
ByLayer
62
256
370
-1
100
AcDbLine
10
4.55897733819
20
1.28566710166
11
4.55897682049
21
1.28566913163
0
LINE
5
202
100
AcDbEntity
8
cc_xr_bracket
6
ByLayer
62
256
370
-1
100
AcDbLine
10
4.54825336631
20
1.69355671343
11
4.55888965208
21
1.67969523596
0
LINE
5
203
100
AcDbEntity
8
cc_xr_bracket
6
ByLayer
62
256
370
-1
100
AcDbLine
10
4.53439188883
20
1.70419299919
11
4.54825336631
21
1.69355671343
0
LINE
5
204
100
AcDbEntity
8
cc_xr_bracket
6
ByLayer
62
256
370
-1
100
AcDbLine
10
4.51824985642
20
1.71087924793
11
4.53439188883
21
1.70419299919
0
LINE
5
205
100
AcDbEntity
8
cc_xr_bracket
6
ByLayer
62
256
370
-1
100
AcDbLine
10
4.50092732191
20
1.71315980286
11
4.51824985642
21
1.71087924793
0
LINE
5
206
100
AcDbEntity
8
cc_xr_bracket
6
ByLayer
62
256
370
-1
100
AcDbLine
10
4.44296499174
20
1.67969523593
11
4.4536012775
21
1.6935567134
0
LINE
5
207
100
AcDbEntity
8
cc_xr_bracket
6
ByLayer
62
256
370
-1
100
AcDbLine
10
4.43627874299
20
1.66355320352
11
4.44296499174
21
1.67969523593
0
LINE
5
208
100
AcDbEntity
8
cc_xr_bracket
6
ByLayer
62
256
370
-1
100
AcDbLine
10
4.46746275498
20
1.58826833888
11
4.4536012775
21
1.59890462464
0
LINE
5
209
100
AcDbEntity
8
cc_xr_bracket
6
ByLayer
62
256
370
-1
100
AcDbLine
10
4.4836047874
20
1.58158209014
11
4.46746275498
21
1.58826833888
0
LINE
5
20A
100
AcDbEntity
8
cc_xr_bracket
6
ByLayer
62
256
370
-1
100
AcDbLine
10
4.51824985642
20
1.58158209015
11
4.50092732191
21
1.57930153521
0
LINE
5
20B
100
AcDbEntity
8
cc_xr_bracket
6
ByLayer
62
256
370
-1
100
AcDbLine
10
4.54825336631
20
1.59890462466
11
4.53439188883
21
1.5882683389
0
LINE
5
20C
100
AcDbEntity
8
cc_xr_bracket
6
ByLayer
62
256
370
-1
100
AcDbLine
10
4.56785645577
20
1.64623066903
11
4.56557590083
21
1.62890813455
0
LINE
5
20D
100
AcDbEntity
8
cc_xr_bracket
6
ByLayer
62
256
370
-1
100
AcDbLine
10
4.55888965208
20
1.67969523596
11
4.56557590083
21
1.66355320356
0
LINE
5
20E
100
AcDbEntity
8
cc_xr_bracket
6
ByLayer
62
256
370
-1
100
AcDbLine
10
4.55889016978
20
1.67969320599
11
4.55888965208
21
1.67969523596
0
LINE
5
20F
100
AcDbEntity
8
cc_xr_bracket
6
ByLayer
62
256
370
-1
100
AcDbLine
10
4.53439240654
20
1.70419096921
11
4.53439188883
21
1.70419299919
0
LINE
5
210
100
AcDbEntity
8
cc_xr_bracket
6
ByLayer
62
256
370
-1
100
AcDbLine
10
4.50092783962
20
1.71315777288
11
4.50092732191
21
1.71315980286
0
LINE
5
211
100
AcDbEntity
8
cc_xr_bracket
6
ByLayer
62
256
370
-1
100
AcDbLine
10
4.4836053051
20
1.71087721794
11
4.4836047874
21
1.71087924792
0
LINE
5
212
100
AcDbEntity
8
cc_xr_bracket
6
ByLayer
62
256
370
-1
100
AcDbLine
10
4.46746327269
20
1.70419096919
11
4.46746275498
21
1.70419299917
0
LINE
5
213
100
AcDbEntity
8
cc_xr_bracket
6
ByLayer
62
256
370
-1
100
AcDbLine
10
4.45360179521
20
1.69355468343
11
4.4536012775
21
1.6935567134
0
LINE
5
214
100
AcDbEntity
8
cc_xr_bracket
6
ByLayer
62
256
370
-1
100
AcDbLine
10
4.4362792607
20
1.66355117354
11
4.43627874299
21
1.66355320352
0
LINE
5
215
100
AcDbEntity
8
cc_xr_bracket
6
ByLayer
62
256
370
-1
100
AcDbLine
10
4.50092783962
20
1.57929950524
11
4.50092732191
21
1.57930153521
0
LINE
5
216
100
AcDbEntity
8
cc_xr_bracket
6
ByLayer
62
256
370
-1
100
AcDbLine
10
4.54825388402
20
1.59890259469
11
4.54825336631
21
1.59890462466
0
LINE
5
217
100
AcDbEntity
8
cc_xr_bracket
6
ByLayer
62
256
370
-1
100
AcDbLine
10
4.55889016978
20
1.61276407216
11
4.55888965208
21
1.61276610214
0
LINE
5
218
100
AcDbEntity
8
cc_xr_bracket
6
ByLayer
62
256
370
-1
100
AcDbLine
10
4.56557641853
20
1.66355117358
11
4.56557590083
21
1.66355320356
0
LINE
5
219
100
AcDbEntity
8
cc_xr_bracket
6
ByLayer
62
256
370
-1
100
AcDbLine
10
5.54825720067
20
1.26988072128
11
5.55053768081
21
1.25255817801
0
LINE
5
21A
100
AcDbEntity
8
cc_xr_bracket
6
ByLayer
62
256
370
-1
100
AcDbLine
10
5.5415710219
20
1.2860227815
11
5.54825720067
21
1.26988072128
0
LINE
5
21B
100
AcDbEntity
8
cc_xr_bracket
6
ByLayer
62
256
370
-1
100
AcDbLine
10
5.53093479654
20
1.29988430396
11
5.5415710219
21
1.2860227815
0
LINE
5
21C
100
AcDbEntity
8
cc_xr_bracket
6
ByLayer
62
256
370
-1
100
AcDbLine
10
5.46628629629
20
1.31720711602
11
5.48360883956
21
1.31948759615
0
LINE
5
21D
100
AcDbEntity
8
cc_xr_bracket
6
ByLayer
62
256
370
-1
100
AcDbLine
10
5.45014423607
20
1.31052093725
11
5.46628629629
21
1.31720711602
0
LINE
5
21E
100
AcDbEntity
8
cc_xr_bracket
6
ByLayer
62
256
370
-1
100
AcDbLine
10
5.42564636877
20
1.28602328111
11
5.43628271361
21
1.29988471189
0
LINE
5
21F
100
AcDbEntity
8
cc_xr_bracket
6
ByLayer
62
256
370
-1
100
AcDbLine
10
5.45014373647
20
1.19459628411
11
5.43628230569
21
1.20523262895
0
LINE
5
220
100
AcDbEntity
8
cc_xr_bracket
6
ByLayer
62
256
370
-1
100
AcDbLine
10
5.50093080594
20
1.1879098169
11
5.48360826267
21
1.18562933676
0
LINE
5
221
100
AcDbEntity
8
cc_xr_bracket
6
ByLayer
62
256
370
-1
100
AcDbLine
10
5.54157073346
20
1.21909365181
11
5.53093438862
21
1.20523222103
0
LINE
5
222
100
AcDbEntity
8
cc_xr_bracket
6
ByLayer
62
256
370
-1
100
AcDbLine
10
5.54825705136
20
1.2352356544
11
5.54157073346
21
1.21909365181
0
LINE
5
223
100
AcDbEntity
8
cc_xr_bracket
6
ByLayer
62
256
370
-1
100
AcDbLine
10
5.55053768081
20
1.25255817801
11
5.54825705136
21
1.2352356544
0
LINE
5
224
100
AcDbEntity
8
cc_xr_bracket
6
ByLayer
62
256
370
-1
100
AcDbLine
10
5.55053704451
20
1.25255775548
11
5.55053768081
21
1.25255817801
0
LINE
5
225
100
AcDbEntity
8
cc_xr_bracket
6
ByLayer
62
256
370
-1
100
AcDbLine
10
5.5415703856
20
1.28602235897
11
5.5415710219
21
1.2860227815
0
LINE
5
226
100
AcDbEntity
8
cc_xr_bracket
6
ByLayer
62
256
370
-1
100
AcDbLine
10
5.53093416024
20
1.29988388143
11
5.53093479654
21
1.29988430396
0
LINE
5
227
100
AcDbEntity
8
cc_xr_bracket
6
ByLayer
62
256
370
-1
100
AcDbLine
10
5.42564573247
20
1.28602285858
11
5.42564636877
21
1.28602328111
0
LINE
5
228
100
AcDbEntity
8
cc_xr_bracket
6
ByLayer
62
256
370
-1
100
AcDbLine
10
5.41895941457
20
1.26988085598
11
5.41896005087
21
1.26988127851
0
LINE
5
229
100
AcDbEntity
8
cc_xr_bracket
6
ByLayer
62
256
370
-1
100
AcDbLine
10
5.41667878512
20
1.25255833237
11
5.41667942142
21
1.25255875491
0
LINE
5
22A
100
AcDbEntity
8
cc_xr_bracket
6
ByLayer
62
256
370
-1
100
AcDbLine
10
5.43628166939
20
1.20523220642
11
5.43628230569
21
1.20523262895
0
LINE
5
22B
100
AcDbEntity
8
cc_xr_bracket
6
ByLayer
62
256
370
-1
100
AcDbLine
10
5.45014310017
20
1.19459586158
11
5.45014373647
21
1.19459628411
0
LINE
5
22C
100
AcDbEntity
8
cc_xr_bracket
6
ByLayer
62
256
370
-1
100
AcDbLine
10
5.50093016963
20
1.18790939437
11
5.50093080594
21
1.1879098169
0
LINE
5
22D
100
AcDbEntity
8
cc_xr_bracket
6
ByLayer
62
256
370
-1
100
AcDbLine
10
5.51707222986
20
1.19459557313
11
5.51707286616
21
1.19459599566
0
LINE
5
22E
100
AcDbEntity
8
cc_xr_bracket
6
ByLayer
62
256
370
-1
100
AcDbLine
10
5.53093375232
20
1.2052317985
11
5.53093438862
21
1.20523222103
0
LINE
5
22F
100
AcDbEntity
8
cc_xr_bracket
6
ByLayer
62
256
370
-1
100
AcDbLine
10
5.54825641506
20
1.23523523187
11
5.54825705136
21
1.2352356544
0
LINE
5
230
100
AcDbEntity
8
cc_xr_bracket
6
ByLayer
62
256
370
-1
100
AcDbLine
10
5.41896160516
20
1.62893695554
11
5.41668112502
21
1.6462594988
0
LINE
5
231
100
AcDbEntity
8
cc_xr_bracket
6
ByLayer
62
256
370
-1
100
AcDbLine
10
5.54157243706
20
1.61279439571
11
5.53093609222
21
1.59893296493
0
LINE
5
232
100
AcDbEntity
8
cc_xr_bracket
6
ByLayer
62
256
370
-1
100
AcDbLine
10
5.54825875496
20
1.6289363983
11
5.54157243706
21
1.61279439571
0
LINE
5
233
100
AcDbEntity
8
cc_xr_bracket
6
ByLayer
62
256
370
-1
100
AcDbLine
10
5.54825890427
20
1.66358146518
11
5.55053938441
21
1.64625892191
0
LINE
5
234
100
AcDbEntity
8
cc_xr_bracket
6
ByLayer
62
256
370
-1
100
AcDbLine
10
5.5415727255
20
1.6797235254
11
5.54825890427
21
1.66358146518
0
LINE
5
235
100
AcDbEntity
8
cc_xr_bracket
6
ByLayer
62
256
370
-1
100
AcDbLine
10
5.50093306676
20
1.7109077106
11
5.51707506936
21
1.7042213927
0
LINE
5
236
100
AcDbEntity
8
cc_xr_bracket
6
ByLayer
62
256
370
-1
100
AcDbLine
10
5.48361054315
20
1.71318834005
11
5.50093306676
21
1.7109077106
0
LINE
5
237
100
AcDbEntity
8
cc_xr_bracket
6
ByLayer
62
256
370
-1
100
AcDbLine
10
5.45014593966
20
1.70422168115
11
5.46628799989
21
1.71090785992
0
LINE
5
238
100
AcDbEntity
8
cc_xr_bracket
6
ByLayer
62
256
370
-1
100
AcDbLine
10
5.41896175446
20
1.66358202241
11
5.42564807237
21
1.67972402501
0
LINE
5
239
100
AcDbEntity
8
cc_xr_bracket
6
ByLayer
62
256
370
-1
100
AcDbLine
10
5.41896111129
20
1.6635815931
11
5.41896175446
21
1.66358202241
0
LINE
5
23A
100
AcDbEntity
8
cc_xr_bracket
6
ByLayer
62
256
370
-1
100
AcDbLine
10
5.50093186636
20
1.58161013149
11
5.50093250953
21
1.5816105608
0
LINE
5
23B
100
AcDbEntity
8
cc_xr_bracket
6
ByLayer
62
256
370
-1
100
AcDbLine
10
5.51707392658
20
1.58829631026
11
5.51707456976
21
1.58829673956
0
LINE
5
23C
100
AcDbEntity
8
cc_xr_bracket
6
ByLayer
62
256
370
-1
100
AcDbLine
10
5.53093544904
20
1.59893253562
11
5.53093609222
21
1.59893296493
0
LINE
5
23D
100
AcDbEntity
8
cc_xr_bracket
6
ByLayer
62
256
370
-1
100
AcDbLine
10
5.54825811178
20
1.62893596899
11
5.54825875496
21
1.6289363983
0
LINE
5
23E
100
AcDbEntity
8
cc_xr_bracket
6
ByLayer
62
256
370
-1
100
AcDbLine
10
5.54825826109
20
1.66358103587
11
5.54825890427
21
1.66358146518
0
LINE
5
23F
100
AcDbEntity
8
cc_xr_bracket
6
ByLayer
62
256
370
-1
100
AcDbLine
10
5.54157208232
20
1.67972309609
11
5.5415727255
21
1.6797235254
0
LINE
5
240
100
AcDbEntity
8
cc_xr_bracket
6
ByLayer
62
256
370
-1
100
AcDbLine
10
5.51707442618
20
1.70422096339
11
5.51707506936
21
1.7042213927
0
LINE
5
241
100
AcDbEntity
8
cc_xr_bracket
6
ByLayer
62
256
370
-1
100
AcDbLine
10
5.48360989998
20
1.71318791074
11
5.48361054315
21
1.71318834005
0
LINE
5
242
100
AcDbEntity
8
cc_xr_bracket
6
ByLayer
62
256
370
-1
100
AcDbLine
10
5.42564742919
20
1.6797235957
11
5.42564807237
21
1.67972402501
0
LINE
5
243
100
AcDbEntity
8
cc_carriage_bracket
6
ByLayer
62
256
370
-1
100
AcDbLine
10
1.86031902892
20
1.10040668511
11
1.86031821245
21
1.10040422958
0
LINE
5
244
100
AcDbEntity
8
cc_carriage_bracket
6
ByLayer
62
256
370
-1
100
AcDbLine
10
0.123232769068
20
1.31261258995
11
0.113397195064
21
1.33634968637
0
LINE
5
245
100
AcDbEntity
8
cc_carriage_bracket
6
ByLayer
62
256
370
-1
100
AcDbLine
10
0.113397195064
20
1.33634968637
11
0.113426362843
21
1.33634767814
0
LINE
5
246
100
AcDbEntity
8
cc_carriage_bracket
6
ByLayer
62
256
370
-1
100
AcDbLine
10
0.123261936847
20
1.31261058172
11
0.113426362843
21
1.33634767814
0
LINE
5
247
100
AcDbEntity
8
cc_carriage_bracket
6
ByLayer
62
256
370
-1
100
AcDbLine
10
0.123232769068
20
1.31261258995
11
0.123261936847
21
1.31261058172
0
LINE
5
248
100
AcDbEntity
8
cc_carriage_bracket
6
ByLayer
62
256
370
-1
100
AcDbLine
10
0.303692420412
20
0.312748539215
11
0.30423492609
21
0.316873077276
0
LINE
5
249
100
AcDbEntity
8
cc_carriage_bracket
6
ByLayer
62
256
370
-1
100
AcDbLine
10
3.38514414886
20
0.260746250611
11
3.3690021208
21
0.267432497558
0
LINE
5
24A
100
AcDbEntity
8
cc_carriage_bracket
6
ByLayer
62
256
370
-1
100
AcDbLine
10
3.3990056226
20
0.250109967715
11
3.39900693702
21
0.25010978122
0
LINE
5
24B
100
AcDbEntity
8
cc_carriage_bracket
6
ByLayer
62
256
370
-1
100
AcDbLine
10
0.257791094837
20
0.423458049823
11
0.257820262616
21
0.423456041592
0
LINE
5
24C
100
AcDbEntity
8
cc_carriage_bracket
6
ByLayer
62
256
370
-1
100
AcDbLine
10
1.33231176199
20
1.45069215042
11
1.33231094552
21
1.45068969489
0
LINE
5
24D
100
AcDbEntity
8
cc_carriage_bracket
6
ByLayer
62
256
370
-1
100
AcDbLine
10
2.42481115702
20
1.45068969483
11
1.33231094552
21
1.45068969489
0
LINE
5
24E
100
AcDbEntity
8
cc_carriage_bracket
6
ByLayer
62
256
370
-1
100
AcDbLine
10
2.42481197349
20
1.45069215036
11
2.42481115702
21
1.45068969483
0
LINE
5
24F
100
AcDbEntity
8
cc_carriage_bracket
6
ByLayer
62
256
370
-1
100
AcDbLine
10
3.35167961676
20
0.529555560114
11
3.3690021464
21
0.531836114407
0
LINE
5
250
100
AcDbEntity
8
cc_carriage_bracket
6
ByLayer
62
256
370
-1
100
AcDbLine
10
1.86031821245
20
1.10040422958
11
2.42481115702
21
1.45068969483
0
LINE
5
251
100
AcDbEntity
8
cc_carriage_bracket
6
ByLayer
62
256
370
-1
100
AcDbLine
10
3.38514417428
20
0.654446989053
11
3.3690021464
21
0.661133235924
0
LINE
5
252
100
AcDbEntity
8
cc_carriage_bracket
6
ByLayer
62
256
370
-1
100
AcDbLine
10
1.86031902892
20
0.600406685113
11
1.86031851571
21
0.600407994333
0
LINE
5
253
100
AcDbEntity
8
cc_carriage_bracket
6
ByLayer
62
256
370
-1
100
AcDbLine
10
2.92142937208
20
0.250712498272
11
2.92142735208
21
0.25071255906
0
LINE
5
254
100
AcDbEntity
8
cc_carriage_bracket
6
ByLayer
62
256
370
-1
100
AcDbLine
10
3.40964193064
20
0.629949232691
11
3.39900564786
21
0.643810706277
0
LINE
5
255
100
AcDbEntity
8
cc_carriage_bracket
6
ByLayer
62
256
370
-1
100
AcDbLine
10
3.31821505924
20
0.538522361278
11
3.33435708711
21
0.531836114407
0
LINE
5
256
100
AcDbEntity
8
cc_carriage_bracket
6
ByLayer
62
256
370
-1
100
AcDbLine
10
0.304205758311
20
0.316875085508
11
0.307013961299
21
0.33822526234
0
LINE
5
257
100
AcDbEntity
8
cc_carriage_bracket
6
ByLayer
62
256
370
-1
100
AcDbLine
10
3.3690021464
20
0.661133235924
11
3.35167961676
21
0.663413790217
0
LINE
5
258
100
AcDbEntity
8
cc_carriage_bracket
6
ByLayer
62
256
370
-1
100
AcDbLine
10
3.3690021464
20
0.661133235924
11
3.36900346965
21
0.661133029735
0
LINE
5
259
100
AcDbEntity
8
cc_carriage_bracket
6
ByLayer
62
256
370
-1
100
AcDbLine
10
3.35167961676
20
0.663413790217
11
3.35168094
21
0.663413584028
0
LINE
5
25A
100
AcDbEntity
8
cc_carriage_bracket
6
ByLayer
62
256
370
-1
100
AcDbLine
10
0.505555049309
20
1.70005814894
11
3.80362740539
21
1.70092168966
0
LINE
5
25B
100
AcDbEntity
8
cc_carriage_bracket
6
ByLayer
62
256
370
-1
100
AcDbLine
10
3.80362740539
20
1.70092168966
11
3.80407354992
21
0.000927467239102
0
LINE
5
25C
100
AcDbEntity
8
cc_carriage_bracket
6
ByLayer
62
256
370
-1
100
AcDbLine
10
2.92142910093
20
0.000727503721178
11
3.80407354992
21
0.000927467239102
0
LINE
5
25D
100
AcDbEntity
8
cc_carriage_bracket
6
ByLayer
62
256
370
-1
100
AcDbLine
10
0.505759688773
20
6.38923867631e-05
11
2.92142910093
21
0.000727503721178
0
LINE
5
25E
100
AcDbEntity
8
cc_carriage_bracket
6
ByLayer
62
256
370
-1
100
AcDbLine
10
3.3690021208
20
0.267432497558
11
3.35167959096
21
0.269713051876
0
LINE
5
25F
100
AcDbEntity
8
cc_carriage_bracket
6
ByLayer
62
256
370
-1
100
AcDbLine
10
3.35167959096
20
0.269713051876
11
3.33435706112
21
0.267432497558
0
LINE
5
260
100
AcDbEntity
8
cc_carriage_bracket
6
ByLayer
62
256
370
-1
100
AcDbLine
10
3.33435706112
20
0.267432497558
11
3.31821503306
21
0.260746250611
0
LINE
5
261
100
AcDbEntity
8
cc_carriage_bracket
6
ByLayer
62
256
370
-1
100
AcDbLine
10
3.31821503306
20
0.260746250611
11
3.30435355932
21
0.250109967715
0
LINE
5
262
100
AcDbEntity
8
cc_carriage_bracket
6
ByLayer
62
256
370
-1
100
AcDbLine
10
3.30435355932
20
0.250109967715
11
3.29371727642
21
0.236248493972
0
LINE
5
263
100
AcDbEntity
8
cc_carriage_bracket
6
ByLayer
62
256
370
-1
100
AcDbLine
10
3.29371727642
20
0.236248493972
11
3.28703102948
21
0.220106465911
0
LINE
5
264
100
AcDbEntity
8
cc_carriage_bracket
6
ByLayer
62
256
370
-1
100
AcDbLine
10
3.28703102948
20
0.220106465911
11
3.28475047516
21
0.202783936068
0
LINE
5
265
100
AcDbEntity
8
cc_carriage_bracket
6
ByLayer
62
256
370
-1
100
AcDbLine
10
3.28475047516
20
0.202783936068
11
3.28703102948
21
0.185461406225
0
LINE
5
266
100
AcDbEntity
8
cc_carriage_bracket
6
ByLayer
62
256
370
-1
100
AcDbLine
10
3.28703102948
20
0.185461406225
11
3.29371727642
21
0.169319378164
0
LINE
5
267
100
AcDbEntity
8
cc_carriage_bracket
6
ByLayer
62
256
370
-1
100
AcDbLine
10
3.29371727642
20
0.169319378164
11
3.30435355932
21
0.155457904421
0
LINE
5
268
100
AcDbEntity
8
cc_carriage_bracket
6
ByLayer
62
256
370
-1
100
AcDbLine
10
3.30435355932
20
0.155457904421
11
3.31821503306
21
0.144821621525
0
LINE
5
269
100
AcDbEntity
8
cc_carriage_bracket
6
ByLayer
62
256
370
-1
100
AcDbLine
10
3.31821503306
20
0.144821621525
11
3.33435706112
21
0.138135374578
0
LINE
5
26A
100
AcDbEntity
8
cc_carriage_bracket
6
ByLayer
62
256
370
-1
100
AcDbLine
10
3.33435706112
20
0.138135374578
11
3.35167959096
21
0.13585482026
0
LINE
5
26B
100
AcDbEntity
8
cc_carriage_bracket
6
ByLayer
62
256
370
-1
100
AcDbLine
10
3.35167959096
20
0.13585482026
11
3.3690021208
21
0.138135374578
0
LINE
5
26C
100
AcDbEntity
8
cc_carriage_bracket
6
ByLayer
62
256
370
-1
100
AcDbLine
10
3.3690021208
20
0.138135374578
11
3.38514414886
21
0.144821621525
0
LINE
5
26D
100
AcDbEntity
8
cc_carriage_bracket
6
ByLayer
62
256
370
-1
100
AcDbLine
10
3.38514414886
20
0.144821621525
11
3.3990056226
21
0.155457904421
0
LINE
5
26E
100
AcDbEntity
8
cc_carriage_bracket
6
ByLayer
62
256
370
-1
100
AcDbLine
10
3.3990056226
20
0.155457904421
11
3.40964190549
21
0.169319378164
0
LINE
5
26F
100
AcDbEntity
8
cc_carriage_bracket
6
ByLayer
62
256
370
-1
100
AcDbLine
10
3.40964190549
20
0.169319378164
11
3.41632815244
21
0.185461406225
0
LINE
5
270
100
AcDbEntity
8
cc_carriage_bracket
6
ByLayer
62
256
370
-1
100
AcDbLine
10
3.41632815244
20
0.185461406225
11
3.41860870676
21
0.202783936068
0
LINE
5
271
100
AcDbEntity
8
cc_carriage_bracket
6
ByLayer
62
256
370
-1
100
AcDbLine
10
3.41860870676
20
0.202783936068
11
3.41632815244
21
0.220106465911
0
LINE
5
272
100
AcDbEntity
8
cc_carriage_bracket
6
ByLayer
62
256
370
-1
100
AcDbLine
10
3.41632815244
20
0.220106465911
11
3.40964190549
21
0.236248493972
0
LINE
5
273
100
AcDbEntity
8
cc_carriage_bracket
6
ByLayer
62
256
370
-1
100
AcDbLine
10
3.40964190549
20
0.236248493972
11
3.3990056226
21
0.250109967715
0
LINE
5
274
100
AcDbEntity
8
cc_carriage_bracket
6
ByLayer
62
256
370
-1
100
AcDbLine
10
3.3990056226
20
0.250109967715
11
3.38514414886
21
0.260746250611
0
LINE
5
275
100
AcDbEntity
8
cc_carriage_bracket
6
ByLayer
62
256
370
-1
100
AcDbLine
10
3.35167961676
20
0.663413790217
11
3.33435708711
21
0.661133235924
0
LINE
5
276
100
AcDbEntity
8
cc_carriage_bracket
6
ByLayer
62
256
370
-1
100
AcDbLine
10
3.33435708711
20
0.661133235924
11
3.31821505924
21
0.654446989053
0
LINE
5
277
100
AcDbEntity
8
cc_carriage_bracket
6
ByLayer
62
256
370
-1
100
AcDbLine
10
3.31821505924
20
0.654446989053
11
3.30435358565
21
0.643810706277
0
LINE
5
278
100
AcDbEntity
8
cc_carriage_bracket
6
ByLayer
62
256
370
-1
100
AcDbLine
10
3.30435358565
20
0.643810706277
11
3.29371730288
21
0.629949232691
0
LINE
5
279
100
AcDbEntity
8
cc_carriage_bracket
6
ByLayer
62
256
370
-1
100
AcDbLine
10
3.29371730288
20
0.629949232691
11
3.28703105601
21
0.613807204812
0
LINE
5
27A
100
AcDbEntity
8
cc_carriage_bracket
6
ByLayer
62
256
370
-1
100
AcDbLine
10
3.28703105601
20
0.613807204812
11
3.28475050172
21
0.596484675165
0
LINE
5
27B
100
AcDbEntity
8
cc_carriage_bracket
6
ByLayer
62
256
370
-1
100
AcDbLine
10
3.28475050172
20
0.596484675165
11
3.28703105601
21
0.579162145518
0
LINE
5
27C
100
AcDbEntity
8
cc_carriage_bracket
6
ByLayer
62
256
370
-1
100
AcDbLine
10
3.28703105601
20
0.579162145518
11
3.29371730288
21
0.56302011764
0
LINE
5
27D
100
AcDbEntity
8
cc_carriage_bracket
6
ByLayer
62
256
370
-1
100
AcDbLine
10
3.29371730288
20
0.56302011764
11
3.30435358565
21
0.549158644054
0
LINE
5
27E
100
AcDbEntity
8
cc_carriage_bracket
6
ByLayer
62
256
370
-1
100
AcDbLine
10
3.30435358565
20
0.549158644054
11
3.31821505924
21
0.538522361278
0
LINE
5
27F
100
AcDbEntity
8
cc_carriage_bracket
6
ByLayer
62
256
370
-1
100
AcDbLine
10
3.33435708711
20
0.531836114407
11
3.35167961676
21
0.529555560114
0
LINE
5
280
100
AcDbEntity
8
cc_carriage_bracket
6
ByLayer
62
256
370
-1
100
AcDbLine
10
3.3690021464
20
0.531836114407
11
3.38514417428
21
0.538522361278
0
LINE
5
281
100
AcDbEntity
8
cc_carriage_bracket
6
ByLayer
62
256
370
-1
100
AcDbLine
10
3.38514417428
20
0.538522361278
11
3.39900564786
21
0.549158644054
0
LINE
5
282
100
AcDbEntity
8
cc_carriage_bracket
6
ByLayer
62
256
370
-1
100
AcDbLine
10
3.39900564786
20
0.549158644054
11
3.40964193064
21
0.56302011764
0
LINE
5
283
100
AcDbEntity
8
cc_carriage_bracket
6
ByLayer
62
256
370
-1
100
AcDbLine
10
3.40964193064
20
0.56302011764
11
3.41632817751
21
0.579162145518
0
LINE
5
284
100
AcDbEntity
8
cc_carriage_bracket
6
ByLayer
62
256
370
-1
100
AcDbLine
10
3.41632817751
20
0.579162145518
11
3.4186087318
21
0.596484675165
0
LINE
5
285
100
AcDbEntity
8
cc_carriage_bracket
6
ByLayer
62
256
370
-1
100
AcDbLine
10
3.4186087318
20
0.596484675165
11
3.41632817751
21
0.613807204812
0
LINE
5
286
100
AcDbEntity
8
cc_carriage_bracket
6
ByLayer
62
256
370
-1
100
AcDbLine
10
3.41632817751
20
0.613807204812
11
3.40964193064
21
0.629949232691
0
LINE
5
287
100
AcDbEntity
8
cc_carriage_bracket
6
ByLayer
62
256
370
-1
100
AcDbLine
10
3.39900564786
20
0.643810706277
11
3.38514417428
21
0.654446989053
0
LINE
5
288
100
AcDbEntity
8
cc_carriage_bracket
6
ByLayer
62
256
370
-1
100
AcDbLine
10
1.76656839605
20
0.850398540443
11
0.861708045276
21
0.250712576001
0
LINE
5
289
100
AcDbEntity
8
cc_carriage_bracket
6
ByLayer
62
256
370
-1
100
AcDbLine
10
1.76656839605
20
0.850398540443
11
0.861708045276
21
1.45069222791
0
LINE
5
28A
100
AcDbEntity
8
cc_carriage_bracket
6
ByLayer
62
256
370
-1
100
AcDbLine
10
0.861708045276
20
0.250712576001
11
0.861708045276
21
1.45069222791
0
LINE
5
28B
100
AcDbEntity
8
cc_carriage_bracket
6
ByLayer
62
256
370
-1
100
AcDbLine
10
2.38743450988
20
0.25071380782
11
1.33266833969
21
0.250713807453
0
LINE
5
28C
100
AcDbEntity
8
cc_carriage_bracket
6
ByLayer
62
256
370
-1
100
AcDbLine
10
2.38743450988
20
0.25071380782
11
1.86031851571
21
0.600407994333
0
LINE
5
28D
100
AcDbEntity
8
cc_carriage_bracket
6
ByLayer
62
256
370
-1
100
AcDbLine
10
1.86031851571
20
0.600407994333
11
1.33266833969
21
0.250713807453
0
LINE
5
28E
100
AcDbEntity
8
cc_carriage_bracket
6
ByLayer
62
256
370
-1
100
AcDbLine
10
1.95406700783
20
0.850414968255
11
2.92142735202
21
1.45069221097
0
LINE
5
28F
100
AcDbEntity
8
cc_carriage_bracket
6
ByLayer
62
256
370
-1
100
AcDbLine
10
1.95406700783
20
0.850414968255
11
2.92142735208
21
0.25071255906
0
LINE
5
290
100
AcDbEntity
8
cc_carriage_bracket
6
ByLayer
62
256
370
-1
100
AcDbLine
10
2.92142735208
20
0.25071255906
11
2.92142735202
21
1.20069221097
0
LINE
5
291
100
AcDbEntity
8
cc_carriage_bracket
6
ByLayer
62
256
370
-1
100
AcDbLine
10
2.92142735202
20
1.20069221097
11
2.92142735202
21
1.45069221097
0
LINE
5
292
100
AcDbEntity
8
cc_carriage_bracket
6
ByLayer
62
256
370
-1
100
AcDbLine
10
1.86031821245
20
1.10040422958
11
1.33231094552
21
1.45068969489
0
LINE
5
293
100
AcDbEntity
8
cc_carriage_bracket
6
ByLayer
62
256
370
-1
100
AcDbLine
10
3.35167961676
20
0.529555560114
11
3.35168094
21
0.529555353925
0
LINE
5
294
100
AcDbEntity
8
cc_carriage_bracket
6
ByLayer
62
256
370
-1
100
AcDbLine
10
3.3690021464
20
0.531836114407
11
3.36900346965
21
0.531835908217
0
LINE
5
295
100
AcDbEntity
8
cc_carriage_bracket
6
ByLayer
62
256
370
-1
100
AcDbLine
10
0.138876816064
20
1.29222994969
11
0.123232769068
21
1.31261258995
0
LINE
5
296
100
AcDbEntity
8
cc_carriage_bracket
6
ByLayer
62
256
370
-1
100
AcDbLine
10
0.138905983842
20
1.29222794146
11
0.123261936847
21
1.31261058172
0
LINE
5
297
100
AcDbEntity
8
cc_carriage_bracket
6
ByLayer
62
256
370
-1
100
AcDbLine
10
0.138876816064
20
1.29222994969
11
0.138905983842
21
1.29222794146
0
LINE
5
298
100
AcDbEntity
8
cc_carriage_bracket
6
ByLayer
62
256
370
-1
100
AcDbLine
10
1.33266885291
20
0.250712498234
11
1.33266833969
21
0.250713807453
0
LINE
5
299
100
AcDbEntity
8
cc_carriage_bracket
6
ByLayer
62
256
370
-1
100
AcDbLine
10
0.1592632201
20
1.27659080884
11
0.138876816064
21
1.29222994969
0
LINE
5
29A
100
AcDbEntity
8
cc_carriage_bracket
6
ByLayer
62
256
370
-1
100
AcDbLine
10
0.159292387879
20
1.27658880061
11
0.138905983842
21
1.29222794146
0
LINE
5
29B
100
AcDbEntity
8
cc_carriage_bracket
6
ByLayer
62
256
370
-1
100
AcDbLine
10
0.1592632201
20
1.27659080884
11
0.159292387879
21
1.27658880061
0
LINE
5
29C
100
AcDbEntity
8
cc_carriage_bracket
6
ByLayer
62
256
370
-1
100
AcDbLine
10
0.183002681432
20
1.266760949
11
0.1592632201
21
1.27659080884
0
LINE
5
29D
100
AcDbEntity
8
cc_carriage_bracket
6
ByLayer
62
256
370
-1
100
AcDbLine
10
0.183031849211
20
1.26675894077
11
0.159292387879
21
1.27658880061
0
LINE
5
29E
100
AcDbEntity
8
cc_carriage_bracket
6
ByLayer
62
256
370
-1
100
AcDbLine
10
0.183002681432
20
1.266760949
11
0.183031849211
21
1.26675894077
0
LINE
5
29F
100
AcDbEntity
8
cc_carriage_bracket
6
ByLayer
62
256
370
-1
100
AcDbLine
10
0.208477395002
20
1.26341025888
11
0.183002681432
21
1.266760949
0
LINE
5
2A0
100
AcDbEntity
8
cc_carriage_bracket
6
ByLayer
62
256
370
-1
100
AcDbLine
10
0.208506562781
20
1.26340825065
11
0.183031849211
21
1.26675894077
0
LINE
5
2A1
100
AcDbEntity
8
cc_carriage_bracket
6
ByLayer
62
256
370
-1
100
AcDbLine
10
0.208477395002
20
1.26341025888
11
0.208506562781
21
1.26340825065
0
LINE
5
2A2
100
AcDbEntity
8
cc_carriage_bracket
6
ByLayer
62
256
370
-1
100
AcDbLine
10
0.505555049309
20
1.70005814894
11
-0.00020463969017
21
1.69999613694
0
LINE
5
2A3
100
AcDbEntity
8
cc_carriage_bracket
6
ByLayer
62
256
370
-1
100
AcDbLine
10
1.11022302463e-16
20
0
11
0.505759688773
21
6.38923867631e-05
0
LINE
5
2A4
100
AcDbEntity
8
cc_carriage_bracket
6
ByLayer
62
256
370
-1
100
AcDbLine
10
-0.00020463969017
20
1.69999613694
11
1.11022302463e-16
21
0
0
LINE
5
2A5
100
AcDbEntity
8
cc_carriage_bracket
6
ByLayer
62
256
370
-1
100
AcDbLine
10
0.112976916005
20
0.31685206485
11
0.113520415164
21
0.312727657033
0
LINE
5
2A6
100
AcDbEntity
8
cc_carriage_bracket
6
ByLayer
62
256
370
-1
100
AcDbLine
10
0.113520415164
20
0.312727657033
11
0.123355989169
21
0.288990560616
0
LINE
5
2A7
100
AcDbEntity
8
cc_carriage_bracket
6
ByLayer
62
256
370
-1
100
AcDbLine
10
0.139000036164
20
0.268607920358
11
0.123355989169
21
0.288990560616
0
LINE
5
2A8
100
AcDbEntity
8
cc_carriage_bracket
6
ByLayer
62
256
370
-1
100
AcDbLine
10
0.1593864402
20
0.252968779508
11
0.139000036164
21
0.268607920358
0
LINE
5
2A9
100
AcDbEntity
8
cc_carriage_bracket
6
ByLayer
62
256
370
-1
100
AcDbLine
10
0.183125901532
20
0.243138919671
11
0.1593864402
21
0.252968779508
0
LINE
5
2AA
100
AcDbEntity
8
cc_carriage_bracket
6
ByLayer
62
256
370
-1
100
AcDbLine
10
0.183125901532
20
0.243138919671
11
0.208600615102
21
0.239788229549
0
LINE
5
2AB
100
AcDbEntity
8
cc_carriage_bracket
6
ByLayer
62
256
370
-1
100
AcDbLine
10
0.208600615102
20
0.239788229549
11
0.234074521279
21
0.243145053138
0
LINE
5
2AC
100
AcDbEntity
8
cc_carriage_bracket
6
ByLayer
62
256
370
-1
100
AcDbLine
10
0.257811615454
20
0.252980628458
11
0.234074521279
21
0.243145053138
0
LINE
5
2AD
100
AcDbEntity
8
cc_carriage_bracket
6
ByLayer
62
256
370
-1
100
AcDbLine
10
0.257811615454
20
0.252980628458
11
0.278194253887
21
0.268624677303
0
LINE
5
2AE
100
AcDbEntity
8
cc_carriage_bracket
6
ByLayer
62
256
370
-1
100
AcDbLine
10
0.278194253887
20
0.268624677303
11
0.293833393452
21
0.289011083599
0
LINE
5
2AF
100
AcDbEntity
8
cc_carriage_bracket
6
ByLayer
62
256
370
-1
100
AcDbLine
10
0.293833393452
20
0.289011083599
11
0.303663252633
21
0.312750547446
0
LINE
5
2B0
100
AcDbEntity
8
cc_carriage_bracket
6
ByLayer
62
256
370
-1
100
AcDbLine
10
0.303663252633
20
0.312750547446
11
0.304205758311
21
0.316875085508
0
LINE
5
2B1
100
AcDbEntity
8
cc_carriage_bracket
6
ByLayer
62
256
370
-1
100
AcDbLine
10
0.307013961299
20
0.33822526234
11
0.304200619032
21
0.359574764481
0
LINE
5
2B2
100
AcDbEntity
8
cc_carriage_bracket
6
ByLayer
62
256
370
-1
100
AcDbLine
10
0.304200619032
20
0.359574764481
11
0.303657119873
21
0.363699172298
0
LINE
5
2B3
100
AcDbEntity
8
cc_carriage_bracket
6
ByLayer
62
256
370
-1
100
AcDbLine
10
0.303657119873
20
0.363699172298
11
0.293821545868
21
0.387436268715
0
LINE
5
2B4
100
AcDbEntity
8
cc_carriage_bracket
6
ByLayer
62
256
370
-1
100
AcDbLine
10
0.293821545868
20
0.387436268715
11
0.278177498873
21
0.407818908973
0
LINE
5
2B5
100
AcDbEntity
8
cc_carriage_bracket
6
ByLayer
62
256
370
-1
100
AcDbLine
10
0.278177498873
20
0.407818908973
11
0.257791094837
21
0.423458049823
0
LINE
5
2B6
100
AcDbEntity
8
cc_carriage_bracket
6
ByLayer
62
256
370
-1
100
AcDbLine
10
0.234051633504
20
0.43328790966
11
0.257791094837
21
0.423458049823
0
LINE
5
2B7
100
AcDbEntity
8
cc_carriage_bracket
6
ByLayer
62
256
370
-1
100
AcDbLine
10
0.208576919935
20
0.436638599782
11
0.234051633504
21
0.43328790966
0
LINE
5
2B8
100
AcDbEntity
8
cc_carriage_bracket
6
ByLayer
62
256
370
-1
100
AcDbLine
10
0.183103013758
20
0.433281776193
11
0.208576919935
21
0.436638599782
0
LINE
5
2B9
100
AcDbEntity
8
cc_carriage_bracket
6
ByLayer
62
256
370
-1
100
AcDbLine
10
0.183103013758
20
0.433281776193
11
0.159365919583
21
0.423446200874
0
LINE
5
2BA
100
AcDbEntity
8
cc_carriage_bracket
6
ByLayer
62
256
370
-1
100
AcDbLine
10
0.13898328115
20
0.407802152028
11
0.159365919583
21
0.423446200874
0
LINE
5
2BB
100
AcDbEntity
8
cc_carriage_bracket
6
ByLayer
62
256
370
-1
100
AcDbLine
10
0.13898328115
20
0.407802152028
11
0.123344141585
21
0.387415745732
0
LINE
5
2BC
100
AcDbEntity
8
cc_carriage_bracket
6
ByLayer
62
256
370
-1
100
AcDbLine
10
0.113514282403
20
0.363676281885
11
0.123344141585
21
0.387415745732
0
LINE
5
2BD
100
AcDbEntity
8
cc_carriage_bracket
6
ByLayer
62
256
370
-1
100
AcDbLine
10
0.113514282403
20
0.363676281885
11
0.112971776726
21
0.359551743823
0
LINE
5
2BE
100
AcDbEntity
8
cc_carriage_bracket
6
ByLayer
62
256
370
-1
100
AcDbLine
10
0.112971776726
20
0.359551743823
11
0.110163573738
21
0.338201566992
0
LINE
5
2BF
100
AcDbEntity
8
cc_carriage_bracket
6
ByLayer
62
256
370
-1
100
AcDbLine
10
0.110163573738
20
0.338201566992
11
0.112976916005
21
0.31685206485
0
LINE
5
2C0
100
AcDbEntity
8
cc_carriage_bracket
6
ByLayer
62
256
370
-1
100
AcDbLine
10
0.113397195064
20
1.33634968637
11
0.110040353638
21
1.36182359633
0
LINE
5
2C1
100
AcDbEntity
8
cc_carriage_bracket
6
ByLayer
62
256
370
-1
100
AcDbLine
10
0.233951301179
20
1.26676708247
11
0.208477395002
21
1.26341025888
0
LINE
5
2C2
100
AcDbEntity
8
cc_carriage_bracket
6
ByLayer
62
256
370
-1
100
AcDbLine
10
0.257688395354
20
1.27660265779
11
0.233951301179
21
1.26676708247
0
LINE
5
2C3
100
AcDbEntity
8
cc_carriage_bracket
6
ByLayer
62
256
370
-1
100
AcDbLine
10
0.278071033786
20
1.29224670664
11
0.257688395354
21
1.27660265779
0
LINE
5
2C4
100
AcDbEntity
8
cc_carriage_bracket
6
ByLayer
62
256
370
-1
100
AcDbLine
10
0.293710173352
20
1.31263311293
11
0.278071033786
21
1.29224670664
0
LINE
5
2C5
100
AcDbEntity
8
cc_carriage_bracket
6
ByLayer
62
256
370
-1
100
AcDbLine
10
0.303540032533
20
1.33637257678
11
0.293710173352
21
1.31263311293
0
LINE
5
2C6
100
AcDbEntity
8
cc_carriage_bracket
6
ByLayer
62
256
370
-1
100
AcDbLine
10
0.306890741199
20
1.36184729167
11
0.303540032533
21
1.33637257678
0
LINE
5
2C7
100
AcDbEntity
8
cc_carriage_bracket
6
ByLayer
62
256
370
-1
100
AcDbLine
10
0.303533899772
20
1.38732120163
11
0.306890741199
21
1.36184729167
0
LINE
5
2C8
100
AcDbEntity
8
cc_carriage_bracket
6
ByLayer
62
256
370
-1
100
AcDbLine
10
0.293698325768
20
1.41105829805
11
0.303533899772
21
1.38732120163
0
LINE
5
2C9
100
AcDbEntity
8
cc_carriage_bracket
6
ByLayer
62
256
370
-1
100
AcDbLine
10
0.278054278773
20
1.43144093831
11
0.293698325768
21
1.41105829805
0
LINE
5
2CA
100
AcDbEntity
8
cc_carriage_bracket
6
ByLayer
62
256
370
-1
100
AcDbLine
10
0.257667874736
20
1.44708007916
11
0.278054278773
21
1.43144093831
0
LINE
5
2CB
100
AcDbEntity
8
cc_carriage_bracket
6
ByLayer
62
256
370
-1
100
AcDbLine
10
0.233928413404
20
1.45690993899
11
0.257667874736
21
1.44708007916
0
LINE
5
2CC
100
AcDbEntity
8
cc_carriage_bracket
6
ByLayer
62
256
370
-1
100
AcDbLine
10
0.208453699834
20
1.46026062912
11
0.233928413404
21
1.45690993899
0
LINE
5
2CD
100
AcDbEntity
8
cc_carriage_bracket
6
ByLayer
62
256
370
-1
100
AcDbLine
10
0.182979793658
20
1.45690380553
11
0.208453699834
21
1.46026062912
0
LINE
5
2CE
100
AcDbEntity
8
cc_carriage_bracket
6
ByLayer
62
256
370
-1
100
AcDbLine
10
0.159242699483
20
1.44706823021
11
0.182979793658
21
1.45690380553
0
LINE
5
2CF
100
AcDbEntity
8
cc_carriage_bracket
6
ByLayer
62
256
370
-1
100
AcDbLine
10
0.13886006105
20
1.43142418136
11
0.159242699483
21
1.44706823021
0
LINE
5
2D0
100
AcDbEntity
8
cc_carriage_bracket
6
ByLayer
62
256
370
-1
100
AcDbLine
10
0.123220921484
20
1.41103777507
11
0.13886006105
21
1.43142418136
0
LINE
5
2D1
100
AcDbEntity
8
cc_carriage_bracket
6
ByLayer
62
256
370
-1
100
AcDbLine
10
0.113391062303
20
1.38729831122
11
0.123220921484
21
1.41103777507
0
LINE
5
2D2
100
AcDbEntity
8
cc_carriage_bracket
6
ByLayer
62
256
370
-1
100
AcDbLine
10
0.110040353638
20
1.36182359633
11
0.113391062303
21
1.38729831122
0
LINE
5
2D3
100
AcDbEntity
8
cc_carriage_bracket
6
ByLayer
62
256
370
-1
100
AcDbLine
10
0.233980468957
20
1.26676507424
11
0.208506562781
21
1.26340825065
0
LINE
5
2D4
100
AcDbEntity
8
cc_carriage_bracket
6
ByLayer
62
256
370
-1
100
AcDbLine
10
0.233951301179
20
1.26676708247
11
0.233980468957
21
1.26676507424
0
LINE
5
2D5
100
AcDbEntity
8
cc_carriage_bracket
6
ByLayer
62
256
370
-1
100
AcDbLine
10
0.257717563132
20
1.27660064956
11
0.233980468957
21
1.26676507424
0
LINE
5
2D6
100
AcDbEntity
8
cc_carriage_bracket
6
ByLayer
62
256
370
-1
100
AcDbLine
10
0.257688395354
20
1.27660265779
11
0.257717563132
21
1.27660064956
0
LINE
5
2D7
100
AcDbEntity
8
cc_carriage_bracket
6
ByLayer
62
256
370
-1
100
AcDbLine
10
0.278100201565
20
1.29224469841
11
0.257717563132
21
1.27660064956
0
LINE
5
2D8
100
AcDbEntity
8
cc_carriage_bracket
6
ByLayer
62
256
370
-1
100
AcDbLine
10
0.278071033786
20
1.29224670664
11
0.278100201565
21
1.29224469841
0
LINE
5
2D9
100
AcDbEntity
8
cc_carriage_bracket
6
ByLayer
62
256
370
-1
100
AcDbLine
10
0.293739341131
20
1.3126311047
11
0.278100201565
21
1.29224469841
0
LINE
5
2DA
100
AcDbEntity
8
cc_carriage_bracket
6
ByLayer
62
256
370
-1
100
AcDbLine
10
0.293710173352
20
1.31263311293
11
0.293739341131
21
1.3126311047
0
LINE
5
2DB
100
AcDbEntity
8
cc_carriage_bracket
6
ByLayer
62
256
370
-1
100
AcDbLine
10
0.304200619032
20
0.359574764481
11
0.304229786811
21
0.35957275625
0
LINE
5
2DC
100
AcDbEntity
8
cc_carriage_bracket
6
ByLayer
62
256
370
-1
100
AcDbLine
10
0.278194253887
20
0.268624677303
11
0.278223421666
21
0.268622669071
0
LINE
5
2DD
100
AcDbEntity
8
cc_carriage_bracket
6
ByLayer
62
256
370
-1
100
AcDbLine
10
0.293698325768
20
1.41105829805
11
0.293727493547
21
1.41105628982
0
LINE
5
2DE
100
AcDbEntity
8
cc_carriage_bracket
6
ByLayer
62
256
370
-1
100
AcDbLine
10
0.257811615454
20
0.252980628458
11
0.257840783233
21
0.252978620226
0
LINE
5
2DF
100
AcDbEntity
8
cc_carriage_bracket
6
ByLayer
62
256
370
-1
100
AcDbLine
10
3.80362976602
20
1.70092163564
11
3.80362740539
21
1.70092168966
0
LINE
5
2E0
100
AcDbEntity
8
cc_carriage_bracket
6
ByLayer
62
256
370
-1
100
AcDbLine
10
3.30435358565
20
0.549158644054
11
3.3043549089
21
0.549158437865
0
LINE
5
2E1
100
AcDbEntity
8
cc_carriage_bracket
6
ByLayer
62
256
370
-1
100
AcDbLine
10
3.33435708711
20
0.661133235924
11
3.33435841036
21
0.661133029735
0
LINE
5
2E2
100
AcDbEntity
8
cc_carriage_bracket
6
ByLayer
62
256
370
-1
100
AcDbLine
10
3.31821505924
20
0.654446989053
11
3.31821638248
21
0.654446782864
0
LINE
5
2E3
100
AcDbEntity
8
cc_carriage_bracket
6
ByLayer
62
256
370
-1
100
AcDbLine
10
3.38514414886
20
0.260746250611
11
3.38514546328
21
0.260746064116
0
LINE
5
2E4
100
AcDbEntity
8
cc_carriage_bracket
6
ByLayer
62
256
370
-1
100
AcDbLine
10
3.40964193064
20
0.56302011764
11
3.40964325388
21
0.563019911451
0
LINE
5
2E5
100
AcDbEntity
8
cc_carriage_bracket
6
ByLayer
62
256
370
-1
100
AcDbLine
10
0.303569200312
20
1.33637056855
11
0.293739341131
21
1.3126311047
0
LINE
5
2E6
100
AcDbEntity
8
cc_carriage_bracket
6
ByLayer
62
256
370
-1
100
AcDbLine
10
0.303540032533
20
1.33637257678
11
0.303569200312
21
1.33637056855
0
LINE
5
2E7
100
AcDbEntity
8
cc_carriage_bracket
6
ByLayer
62
256
370
-1
100
AcDbLine
10
0.306919908977
20
1.36184528344
11
0.303569200312
21
1.33637056855
0
LINE
5
2E8
100
AcDbEntity
8
cc_carriage_bracket
6
ByLayer
62
256
370
-1
100
AcDbLine
10
0.306890741199
20
1.36184729167
11
0.306919908977
21
1.36184528344
0
LINE
5
2E9
100
AcDbEntity
8
cc_carriage_bracket
6
ByLayer
62
256
370
-1
100
AcDbLine
10
0.303563067551
20
1.3873191934
11
0.306919908977
21
1.36184528344
0
LINE
5
2EA
100
AcDbEntity
8
cc_carriage_bracket
6
ByLayer
62
256
370
-1
100
AcDbLine
10
0.303533899772
20
1.38732120163
11
0.303563067551
21
1.3873191934
0
LINE
5
2EB
100
AcDbEntity
8
cc_carriage_bracket
6
ByLayer
62
256
370
-1
100
AcDbLine
10
0.293727493547
20
1.41105628982
11
0.303563067551
21
1.3873191934
0
LINE
5
2EC
100
AcDbEntity
8
cc_carriage_bracket
6
ByLayer
62
256
370
-1
100
AcDbLine
10
0.278083446551
20
1.43143893008
11
0.293727493547
21
1.41105628982
0
LINE
5
2ED
100
AcDbEntity
8
cc_carriage_bracket
6
ByLayer
62
256
370
-1
100
AcDbLine
10
0.278054278773
20
1.43144093831
11
0.278083446551
21
1.43143893008
0
LINE
5
2EE
100
AcDbEntity
8
cc_carriage_bracket
6
ByLayer
62
256
370
-1
100
AcDbLine
10
0.257697042515
20
1.44707807093
11
0.278083446551
21
1.43143893008
0
LINE
5
2EF
100
AcDbEntity
8
cc_carriage_bracket
6
ByLayer
62
256
370
-1
100
AcDbLine
10
0.257667874736
20
1.44708007916
11
0.257697042515
21
1.44707807093
0
LINE
5
2F0
100
AcDbEntity
8
cc_carriage_bracket
6
ByLayer
62
256
370
-1
100
AcDbLine
10
0.233957581183
20
1.45690793076
11
0.257697042515
21
1.44707807093
0
LINE
5
2F1
100
AcDbEntity
8
cc_carriage_bracket
6
ByLayer
62
256
370
-1
100
AcDbLine
10
0.233928413404
20
1.45690993899
11
0.233957581183
21
1.45690793076
0
LINE
5
2F2
100
AcDbEntity
8
cc_carriage_bracket
6
ByLayer
62
256
370
-1
100
AcDbLine
10
0.208482867613
20
1.46025862088
11
0.233957581183
21
1.45690793076
0
LINE
5
2F3
100
AcDbEntity
8
cc_carriage_bracket
6
ByLayer
62
256
370
-1
100
AcDbLine
10
0.208453699834
20
1.46026062912
11
0.208482867613
21
1.46025862088
0
LINE
5
2F4
100
AcDbEntity
8
cc_carriage_bracket
6
ByLayer
62
256
370
-1
100
AcDbLine
10
0.304229786811
20
0.35957275625
11
0.303686287652
21
0.363697164066
0
LINE
5
2F5
100
AcDbEntity
8
cc_carriage_bracket
6
ByLayer
62
256
370
-1
100
AcDbLine
10
3.4186087318
20
0.596484675165
11
3.41861005504
21
0.596484468976
0
LINE
5
2F6
100
AcDbEntity
8
cc_carriage_bracket
6
ByLayer
62
256
370
-1
100
AcDbLine
10
3.41632817751
20
0.613807204812
11
3.41632950075
21
0.613806998623
0
LINE
5
2F7
100
AcDbEntity
8
cc_carriage_bracket
6
ByLayer
62
256
370
-1
100
AcDbLine
10
2.92142937202
20
1.45069215018
11
2.92142735202
21
1.45069221097
0
LINE
5
2F8
100
AcDbEntity
8
cc_carriage_bracket
6
ByLayer
62
256
370
-1
100
AcDbLine
10
2.92142937202
20
1.20069215018
11
2.92142735202
21
1.20069221097
0
LINE
5
2F9
100
AcDbEntity
8
cc_carriage_bracket
6
ByLayer
62
256
370
-1
100
AcDbLine
10
0.257840783233
20
0.252978620226
11
0.278223421666
21
0.268622669071
0
LINE
5
2FA
100
AcDbEntity
8
cc_carriage_bracket
6
ByLayer
62
256
370
-1
100
AcDbLine
10
3.41632815244
20
0.185461406225
11
3.41632946686
21
0.185461219731
0
LINE
5
2FB
100
AcDbEntity
8
cc_carriage_bracket
6
ByLayer
62
256
370
-1
100
AcDbLine
10
3.41860870676
20
0.202783936068
11
3.41861002117
21
0.202783749574
0
LINE
5
2FC
100
AcDbEntity
8
cc_carriage_bracket
6
ByLayer
62
256
370
-1
100
AcDbLine
10
3.28703105601
20
0.613807204812
11
3.28703237925
21
0.613806998623
0
LINE
5
2FD
100
AcDbEntity
8
cc_carriage_bracket
6
ByLayer
62
256
370
-1
100
AcDbLine
10
2.38743502309
20
0.2507124986
11
2.38743450988
21
0.25071380782
0
LINE
5
2FE
100
AcDbEntity
8
cc_carriage_bracket
6
ByLayer
62
256
370
-1
100
AcDbLine
10
0.183008961436
20
1.4569017973
11
0.208482867613
21
1.46025862088
0
LINE
5
2FF
100
AcDbEntity
8
cc_carriage_bracket
6
ByLayer
62
256
370
-1
100
AcDbLine
10
0.182979793658
20
1.45690380553
11
0.183008961436
21
1.4569017973
0
LINE
5
300
100
AcDbEntity
8
cc_carriage_bracket
6
ByLayer
62
256
370
-1
100
AcDbLine
10
0.159271867261
20
1.44706622198
11
0.183008961436
21
1.4569017973
0
LINE
5
301
100
AcDbEntity
8
cc_carriage_bracket
6
ByLayer
62
256
370
-1
100
AcDbLine
10
0.159242699483
20
1.44706823021
11
0.159271867261
21
1.44706622198
0
LINE
5
302
100
AcDbEntity
8
cc_carriage_bracket
6
ByLayer
62
256
370
-1
100
AcDbLine
10
0.303663252633
20
0.312750547446
11
0.303692420412
21
0.312748539215
0
LINE
5
303
100
AcDbEntity
8
cc_carriage_bracket
6
ByLayer
62
256
370
-1
100
AcDbLine
10
3.31821503306
20
0.260746250611
11
3.31821634748
21
0.260746064116
0
LINE
5
304
100
AcDbEntity
8
cc_carriage_bracket
6
ByLayer
62
256
370
-1
100
AcDbLine
10
3.3990056226
20
0.155457904421
11
3.39900693702
21
0.155457717927
0
LINE
5
305
100
AcDbEntity
8
cc_carriage_bracket
6
ByLayer
62
256
370
-1
100
AcDbLine
10
0.183155069311
20
0.243136911439
11
0.208629782881
21
0.239786221318
0
LINE
5
306
100
AcDbEntity
8
cc_carriage_bracket
6
ByLayer
62
256
370
-1
100
AcDbLine
10
3.30435355932
20
0.155457904421
11
3.30435487374
21
0.155457717927
0
LINE
5
307
100
AcDbEntity
8
cc_carriage_bracket
6
ByLayer
62
256
370
-1
100
AcDbLine
10
3.28703102948
20
0.185461406225
11
3.2870323439
21
0.185461219731
0
LINE
5
308
100
AcDbEntity
8
cc_carriage_bracket
6
ByLayer
62
256
370
-1
100
AcDbLine
10
0.278223421666
20
0.268622669071
11
0.293862561231
21
0.289009075367
0
LINE
5
309
100
AcDbEntity
8
cc_carriage_bracket
6
ByLayer
62
256
370
-1
100
AcDbLine
10
3.41632817751
20
0.579162145518
11
3.41632950075
21
0.579161939329
0
LINE
5
30A
100
AcDbEntity
8
cc_carriage_bracket
6
ByLayer
62
256
370
-1
100
AcDbLine
10
3.80407354992
20
0.000927467239102
11
3.80407381723
21
0.00092728051588
0
LINE
5
30B
100
AcDbEntity
8
cc_carriage_bracket
6
ByLayer
62
256
370
-1
100
AcDbLine
10
3.40964193064
20
0.629949232691
11
3.40964325388
21
0.629949026502
0
LINE
5
30C
100
AcDbEntity
8
cc_carriage_bracket
6
ByLayer
62
256
370
-1
100
AcDbLine
10
3.39900564786
20
0.643810706277
11
3.39900697111
21
0.643810500088
0
LINE
5
30D
100
AcDbEntity
8
cc_carriage_bracket
6
ByLayer
62
256
370
-1
100
AcDbLine
10
0.183132181537
20
0.433279767961
11
0.208606087713
21
0.43663659155
0
LINE
5
30E
100
AcDbEntity
8
cc_carriage_bracket
6
ByLayer
62
256
370
-1
100
AcDbLine
10
3.40964190549
20
0.169319378164
11
3.40964321991
21
0.169319191669
0
LINE
5
30F
100
AcDbEntity
8
cc_carriage_bracket
6
ByLayer
62
256
370
-1
100
AcDbLine
10
1.76656903002
20
0.850398462759
11
1.76656839605
21
0.850398540443
0
LINE
5
310
100
AcDbEntity
8
cc_carriage_bracket
6
ByLayer
62
256
370
-1
100
AcDbLine
10
0.861708679241
20
0.250712498317
11
0.861708045276
21
0.250712576001
0
LINE
5
311
100
AcDbEntity
8
cc_carriage_bracket
6
ByLayer
62
256
370
-1
100
AcDbLine
10
3.38514414886
20
0.144821621525
11
3.38514546328
21
0.144821435031
0
LINE
5
312
100
AcDbEntity
8
cc_carriage_bracket
6
ByLayer
62
256
370
-1
100
AcDbLine
10
3.38514417428
20
0.538522361278
11
3.38514549752
21
0.538522155089
0
LINE
5
313
100
AcDbEntity
8
cc_carriage_bracket
6
ByLayer
62
256
370
-1
100
AcDbLine
10
3.39900564786
20
0.549158644054
11
3.39900697111
21
0.549158437865
0
LINE
5
314
100
AcDbEntity
8
cc_carriage_bracket
6
ByLayer
62
256
370
-1
100
AcDbLine
10
3.28703105601
20
0.579162145518
11
3.28703237925
21
0.579161939329
0
LINE
5
315
100
AcDbEntity
8
cc_carriage_bracket
6
ByLayer
62
256
370
-1
100
AcDbLine
10
3.29371730288
20
0.56302011764
11
3.29371862613
21
0.563019911451
0
LINE
5
316
100
AcDbEntity
8
cc_carriage_bracket
6
ByLayer
62
256
370
-1
100
AcDbLine
10
3.35167959096
20
0.269713051876
11
3.35168090538
21
0.269712865382
0
LINE
5
317
100
AcDbEntity
8
cc_carriage_bracket
6
ByLayer
62
256
370
-1
100
AcDbLine
10
0.138889228829
20
1.43142217313
11
0.159271867261
21
1.44706622198
0
LINE
5
318
100
AcDbEntity
8
cc_carriage_bracket
6
ByLayer
62
256
370
-1
100
AcDbLine
10
0.13886006105
20
1.43142418136
11
0.138889228829
21
1.43142217313
0
LINE
5
319
100
AcDbEntity
8
cc_carriage_bracket
6
ByLayer
62
256
370
-1
100
AcDbLine
10
0.113543450182
20
0.363674273653
11
0.123373309364
21
0.387413737501
0
LINE
5
31A
100
AcDbEntity
8
cc_carriage_bracket
6
ByLayer
62
256
370
-1
100
AcDbLine
10
1.95406902783
20
0.850414907467
11
1.95406700783
21
0.850414968255
0
LINE
5
31B
100
AcDbEntity
8
cc_carriage_bracket
6
ByLayer
62
256
370
-1
100
AcDbLine
10
3.30435358565
20
0.643810706277
11
3.3043549089
21
0.643810500088
0
LINE
5
31C
100
AcDbEntity
8
cc_carriage_bracket
6
ByLayer
62
256
370
-1
100
AcDbLine
10
3.31821503306
20
0.144821621525
11
3.31821634748
21
0.144821435031
0
LINE
5
31D
100
AcDbEntity
8
cc_carriage_bracket
6
ByLayer
62
256
370
-1
100
AcDbLine
10
0.123250089263
20
1.41103576683
11
0.138889228829
21
1.43142217313
0
LINE
5
31E
100
AcDbEntity
8
cc_carriage_bracket
6
ByLayer
62
256
370
-1
100
AcDbLine
10
0.123220921484
20
1.41103777507
11
0.123250089263
21
1.41103576683
0
LINE
5
31F
100
AcDbEntity
8
cc_carriage_bracket
6
ByLayer
62
256
370
-1
100
AcDbLine
10
0.139012448929
20
0.407800143797
11
0.123373309364
21
0.387413737501
0
LINE
5
320
100
AcDbEntity
8
cc_carriage_bracket
6
ByLayer
62
256
370
-1
100
AcDbLine
10
0.293821545868
20
0.387436268715
11
0.293850713647
21
0.387434260483
0
LINE
5
321
100
AcDbEntity
8
cc_carriage_bracket
6
ByLayer
62
256
370
-1
100
AcDbLine
10
0.113391062303
20
1.38729831122
11
0.113420230082
21
1.38729630299
0
LINE
5
322
100
AcDbEntity
8
cc_carriage_bracket
6
ByLayer
62
256
370
-1
100
AcDbLine
10
0.159365919583
20
0.423446200874
11
0.159395087362
21
0.423444192642
0
LINE
5
323
100
AcDbEntity
8
cc_carriage_bracket
6
ByLayer
62
256
370
-1
100
AcDbLine
10
0.234051633504
20
0.43328790966
11
0.234080801283
21
0.433285901429
0
LINE
5
324
100
AcDbEntity
8
cc_carriage_bracket
6
ByLayer
62
256
370
-1
100
AcDbLine
10
-0.00020463969017
20
1.69999613694
11
-0.000175471911338
21
1.69999412871
0
LINE
5
325
100
AcDbEntity
8
cc_carriage_bracket
6
ByLayer
62
256
370
-1
100
AcDbLine
10
0.112971776726
20
0.359551743823
11
0.113000944505
21
0.359549735592
0
LINE
5
326
100
AcDbEntity
8
cc_carriage_bracket
6
ByLayer
62
256
370
-1
100
AcDbLine
10
0.113420230082
20
1.38729630299
11
0.123250089263
21
1.41103576683
0
LINE
5
327
100
AcDbEntity
8
cc_carriage_bracket
6
ByLayer
62
256
370
-1
100
AcDbLine
10
0.234080801283
20
0.433285901429
11
0.257820262616
21
0.423456041592
0
LINE
5
328
100
AcDbEntity
8
cc_carriage_bracket
6
ByLayer
62
256
370
-1
100
AcDbLine
10
0.1593864402
20
0.252968779508
11
0.159415607979
21
0.252966771276
0
LINE
5
329
100
AcDbEntity
8
cc_carriage_bracket
6
ByLayer
62
256
370
-1
100
AcDbLine
10
0.303657119873
20
0.363699172298
11
0.303686287652
21
0.363697164066
0
LINE
5
32A
100
AcDbEntity
8
cc_carriage_bracket
6
ByLayer
62
256
370
-1
100
AcDbLine
10
0.208629782881
20
0.239786221318
11
0.234103689058
21
0.243143044907
0
LINE
5
32B
100
AcDbEntity
8
cc_carriage_bracket
6
ByLayer
62
256
370
-1
100
AcDbLine
10
0.208606087713
20
0.43663659155
11
0.234080801283
21
0.433285901429
0
LINE
5
32C
100
AcDbEntity
8
cc_carriage_bracket
6
ByLayer
62
256
370
-1
100
AcDbLine
10
0.110069521416
20
1.36182158809
11
0.113420230082
21
1.38729630299
0
LINE
5
32D
100
AcDbEntity
8
cc_carriage_bracket
6
ByLayer
62
256
370
-1
100
AcDbLine
10
0.110040353638
20
1.36182359633
11
0.110069521416
21
1.36182158809
0
LINE
5
32E
100
AcDbEntity
8
cc_carriage_bracket
6
ByLayer
62
256
370
-1
100
AcDbLine
10
0.113426362843
20
1.33634767814
11
0.110069521416
21
1.36182158809
0
LINE
5
32F
100
AcDbEntity
8
cc_carriage_bracket
6
ByLayer
62
256
370
-1
100
AcDbLine
10
3.31821505924
20
0.538522361278
11
3.31821638248
21
0.538522155089
0
LINE
5
330
100
AcDbEntity
8
cc_carriage_bracket
6
ByLayer
62
256
370
-1
100
AcDbLine
10
0.861708679241
20
1.45069215022
11
0.861708045276
21
1.45069222791
0
LINE
5
331
100
AcDbEntity
8
cc_carriage_bracket
6
ByLayer
62
256
370
-1
100
AcDbLine
10
3.30435355932
20
0.250109967715
11
3.30435487374
21
0.25010978122
0
LINE
5
332
100
AcDbEntity
8
cc_carriage_bracket
6
ByLayer
62
256
370
-1
100
AcDbLine
10
3.40964190549
20
0.236248493972
11
3.40964321991
21
0.236248307478
0
LINE
5
333
100
AcDbEntity
8
cc_carriage_bracket
6
ByLayer
62
256
370
-1
100
AcDbLine
10
3.29371730288
20
0.629949232691
11
3.29371862613
21
0.629949026502
0
LINE
5
334
100
AcDbEntity
8
cc_carriage_bracket
6
ByLayer
62
256
370
-1
100
AcDbLine
10
3.28475047516
20
0.202783936068
11
3.28475178958
21
0.202783749574
0
LINE
5
335
100
AcDbEntity
8
cc_carriage_bracket
6
ByLayer
62
256
370
-1
100
AcDbLine
10
0.113520415164
20
0.312727657033
11
0.113549582943
21
0.312725648802
0
LINE
5
336
100
AcDbEntity
8
cc_carriage_bracket
6
ByLayer
62
256
370
-1
100
AcDbLine
10
0.113549582943
20
0.312725648802
11
0.123385156948
21
0.288988552384
0
LINE
5
337
100
AcDbEntity
8
cc_carriage_bracket
6
ByLayer
62
256
370
-1
100
AcDbLine
10
0.123355989169
20
0.288990560616
11
0.123385156948
21
0.288988552384
0
LINE
5
338
100
AcDbEntity
8
cc_carriage_bracket
6
ByLayer
62
256
370
-1
100
AcDbLine
10
3.33435708711
20
0.531836114407
11
3.33435841036
21
0.531835908217
0
LINE
5
339
100
AcDbEntity
8
cc_carriage_bracket
6
ByLayer
62
256
370
-1
100
AcDbLine
10
0.139029203943
20
0.268605912126
11
0.123385156948
21
0.288988552384
0
LINE
5
33A
100
AcDbEntity
8
cc_carriage_bracket
6
ByLayer
62
256
370
-1
100
AcDbLine
10
0.139000036164
20
0.268607920358
11
0.139029203943
21
0.268605912126
0
LINE
5
33B
100
AcDbEntity
8
cc_carriage_bracket
6
ByLayer
62
256
370
-1
100
AcDbLine
10
0.208600615102
20
0.239788229549
11
0.208629782881
21
0.239786221318
0
LINE
5
33C
100
AcDbEntity
8
cc_carriage_bracket
6
ByLayer
62
256
370
-1
100
AcDbLine
10
0.13898328115
20
0.407802152028
11
0.139012448929
21
0.407800143797
0
LINE
5
33D
100
AcDbEntity
8
cc_carriage_bracket
6
ByLayer
62
256
370
-1
100
AcDbLine
10
0.304205758311
20
0.316875085508
11
0.30423492609
21
0.316873077276
0
LINE
5
33E
100
AcDbEntity
8
cc_carriage_bracket
6
ByLayer
62
256
370
-1
100
AcDbLine
10
3.41632815244
20
0.220106465911
11
3.41632946686
21
0.220106279417
0
LINE
5
33F
100
AcDbEntity
8
cc_carriage_bracket
6
ByLayer
62
256
370
-1
100
AcDbLine
10
0.113514282403
20
0.363676281885
11
0.113543450182
21
0.363674273653
0
LINE
5
340
100
AcDbEntity
8
cc_carriage_bracket
6
ByLayer
62
256
370
-1
100
AcDbLine
10
0.293833393452
20
0.289011083599
11
0.293862561231
21
0.289009075367
0
LINE
5
341
100
AcDbEntity
8
cc_carriage_bracket
6
ByLayer
62
256
370
-1
100
AcDbLine
10
0.278177498873
20
0.407818908973
11
0.278206666652
21
0.407816900742
0
LINE
5
342
100
AcDbEntity
8
cc_carriage_bracket
6
ByLayer
62
256
370
-1
100
AcDbLine
10
0.307013961299
20
0.33822526234
11
0.307043129078
21
0.338223254108
0
LINE
5
343
100
AcDbEntity
8
cc_carriage_bracket
6
ByLayer
62
256
370
-1
100
AcDbLine
10
0.183103013758
20
0.433281776193
11
0.183132181537
21
0.433279767961
0
LINE
5
344
100
AcDbEntity
8
cc_carriage_bracket
6
ByLayer
62
256
370
-1
100
AcDbLine
10
0.159415607979
20
0.252966771276
11
0.139029203943
21
0.268605912126
0
LINE
5
345
100
AcDbEntity
8
cc_carriage_bracket
6
ByLayer
62
256
370
-1
100
AcDbLine
10
0.183155069311
20
0.243136911439
11
0.159415607979
21
0.252966771276
0
LINE
5
346
100
AcDbEntity
8
cc_carriage_bracket
6
ByLayer
62
256
370
-1
100
AcDbLine
10
0.183125901532
20
0.243138919671
11
0.183155069311
21
0.243136911439
0
LINE
5
347
100
AcDbEntity
8
cc_carriage_bracket
6
ByLayer
62
256
370
-1
100
AcDbLine
10
0.113000944505
20
0.359549735592
11
0.110192741517
21
0.33819955876
0
LINE
5
348
100
AcDbEntity
8
cc_carriage_bracket
6
ByLayer
62
256
370
-1
100
AcDbLine
10
0.110192741517
20
0.33819955876
11
0.113006083784
21
0.316850056618
0
LINE
5
349
100
AcDbEntity
8
cc_carriage_bracket
6
ByLayer
62
256
370
-1
100
AcDbLine
10
0.208576919935
20
0.436638599782
11
0.208606087713
21
0.43663659155
0
LINE
5
34A
100
AcDbEntity
8
cc_carriage_bracket
6
ByLayer
62
256
370
-1
100
AcDbLine
10
0.234074521279
20
0.243145053138
11
0.234103689058
21
0.243143044907
0
LINE
5
34B
100
AcDbEntity
8
cc_carriage_bracket
6
ByLayer
62
256
370
-1
100
AcDbLine
10
0.257840783233
20
0.252978620226
11
0.234103689058
21
0.243143044907
0
LINE
5
34C
100
AcDbEntity
8
cc_carriage_bracket
6
ByLayer
62
256
370
-1
100
AcDbLine
10
-0.000175471911338
20
1.69999412871
11
2.9167778832e-05
21
-2.00823161967e-06
0
LINE
5
34D
100
AcDbEntity
8
cc_carriage_bracket
6
ByLayer
62
256
370
-1
100
AcDbLine
10
0.293862561231
20
0.289009075367
11
0.303692420412
21
0.312748539215
0
LINE
5
34E
100
AcDbEntity
8
cc_carriage_bracket
6
ByLayer
62
256
370
-1
100
AcDbLine
10
3.35167959096
20
0.13585482026
11
3.35168090538
21
0.135854633765
0
LINE
5
34F
100
AcDbEntity
8
cc_carriage_bracket
6
ByLayer
62
256
370
-1
100
AcDbLine
10
0.30423492609
20
0.316873077276
11
0.307043129078
21
0.338223254108
0
LINE
5
350
100
AcDbEntity
8
cc_carriage_bracket
6
ByLayer
62
256
370
-1
100
AcDbLine
10
0.307043129078
20
0.338223254108
11
0.304229786811
21
0.35957275625
0
LINE
5
351
100
AcDbEntity
8
cc_carriage_bracket
6
ByLayer
62
256
370
-1
100
AcDbLine
10
0.303686287652
20
0.363697164066
11
0.293850713647
21
0.387434260483
0
LINE
5
352
100
AcDbEntity
8
cc_carriage_bracket
6
ByLayer
62
256
370
-1
100
AcDbLine
10
-0.000175471911338
20
1.69999412871
11
0.505702961513
21
1.70005631732
0
LINE
5
353
100
AcDbEntity
8
cc_carriage_bracket
6
ByLayer
62
256
370
-1
100
AcDbLine
10
3.28475050172
20
0.596484675165
11
3.28475182496
21
0.596484468976
0
LINE
5
354
100
AcDbEntity
8
cc_carriage_bracket
6
ByLayer
62
256
370
-1
100
AcDbLine
10
0.113543450182
20
0.363674273653
11
0.113000944505
21
0.359549735592
0
LINE
5
355
100
AcDbEntity
8
cc_carriage_bracket
6
ByLayer
62
256
370
-1
100
AcDbLine
10
3.33435706112
20
0.138135374578
11
3.33435837554
21
0.138135188084
0
LINE
5
356
100
AcDbEntity
8
cc_carriage_bracket
6
ByLayer
62
256
370
-1
100
AcDbLine
10
0.293850713647
20
0.387434260483
11
0.278206666652
21
0.407816900742
0
LINE
5
357
100
AcDbEntity
8
cc_carriage_bracket
6
ByLayer
62
256
370
-1
100
AcDbLine
10
0.278206666652
20
0.407816900742
11
0.257820262616
21
0.423456041592
0
LINE
5
358
100
AcDbEntity
8
cc_carriage_bracket
6
ByLayer
62
256
370
-1
100
AcDbLine
10
0.139012448929
20
0.407800143797
11
0.159395087362
21
0.423444192642
0
LINE
5
359
100
AcDbEntity
8
cc_carriage_bracket
6
ByLayer
62
256
370
-1
100
AcDbLine
10
0.183132181537
20
0.433279767961
11
0.159395087362
21
0.423444192642
0
LINE
5
35A
100
AcDbEntity
8
cc_carriage_bracket
6
ByLayer
62
256
370
-1
100
AcDbLine
10
0.123344141585
20
0.387415745732
11
0.123373309364
21
0.387413737501
0
LINE
5
35B
100
AcDbEntity
8
cc_carriage_bracket
6
ByLayer
62
256
370
-1
100
AcDbLine
10
0.110163573738
20
0.338201566992
11
0.110192741517
21
0.33819955876
0
LINE
5
35C
100
AcDbEntity
8
cc_carriage_bracket
6
ByLayer
62
256
370
-1
100
AcDbLine
10
0.112976916005
20
0.31685206485
11
0.113006083784
21
0.316850056618
0
LINE
5
35D
100
AcDbEntity
8
cc_carriage_bracket
6
ByLayer
62
256
370
-1
100
AcDbLine
10
0.113006083784
20
0.316850056618
11
0.113549582943
21
0.312725648802
0
LINE
5
35E
100
AcDbEntity
8
cc_carriage_bracket
6
ByLayer
62
256
370
-1
100
AcDbLine
10
3.3690021208
20
0.138135374578
11
3.36900343522
21
0.138135188084
0
LINE
5
35F
100
AcDbEntity
8
cc_carriage_bracket
6
ByLayer
62
256
370
-1
100
AcDbLine
10
1.11022302463e-16
20
0
11
2.9167778832e-05
21
-2.00823161967e-06
0
LINE
5
360
100
AcDbEntity
8
cc_carriage_bracket
6
ByLayer
62
256
370
-1
100
AcDbLine
10
3.38514417428
20
0.654446989053
11
3.38514549752
21
0.654446782864
0
LINE
5
361
100
AcDbEntity
8
cc_carriage_bracket
6
ByLayer
62
256
370
-1
100
AcDbLine
10
3.29371727642
20
0.236248493972
11
3.29371859084
21
0.236248307478
0
LINE
5
362
100
AcDbEntity
8
cc_carriage_bracket
6
ByLayer
62
256
370
-1
100
AcDbLine
10
3.29371727642
20
0.169319378164
11
3.29371859084
21
0.169319191669
0
LINE
5
363
100
AcDbEntity
8
cc_carriage_bracket
6
ByLayer
62
256
370
-1
100
AcDbLine
10
3.3690021208
20
0.267432497558
11
3.36900343522
21
0.267432311063
0
LINE
5
364
100
AcDbEntity
8
cc_carriage_bracket
6
ByLayer
62
256
370
-1
100
AcDbLine
10
3.28703102948
20
0.220106465911
11
3.2870323439
21
0.220106279417
0
LINE
5
365
100
AcDbEntity
8
cc_carriage_bracket
6
ByLayer
62
256
370
-1
100
AcDbLine
10
3.33435706112
20
0.267432497558
11
3.33435837554
21
0.267432311063
0
LINE
5
366
100
AcDbEntity
8
cc_carriage_bracket
6
ByLayer
62
256
370
-1
100
AcDbLine
10
0.505759688375
20
6.73856573687e-05
11
2.9167778832e-05
21
-2.00823161967e-06
0
LINE
5
367
100
AcDbEntity
8
cc_carriage_bracket
6
ByLayer
62
256
370
-1
100
AcDbLine
10
0.505759688773
20
6.38923867631e-05
11
0.505759688375
21
6.73856573687e-05
0
LINE
5
368
100
AcDbEntity
8
cc_carriage_bracket
6
ByLayer
62
256
370
-1
100
AcDbLine
10
0.505555049309
20
1.70005814894
11
0.505702961513
21
1.70005631732
0
LINE
5
369
100
AcDbEntity
8
cc_carriage_bracket
6
ByLayer
62
256
370
-1
100
AcDbLine
10
0.505759688773
20
6.38923867631e-05
11
0.505555049309
21
1.70005814894
0
LINE
5
36A
100
AcDbEntity
8
cc_carriage_bracket
6
ByLayer
62
256
370
-1
100
AcDbLine
10
3.80407381723
20
0.00092728051588
11
0.505759688375
21
6.73856573687e-05
0
LINE
5
36B
100
AcDbEntity
8
cc_carriage_bracket
6
ByLayer
62
256
370
-1
100
AcDbLine
10
3.80362976602
20
1.70092163564
11
3.80407381723
21
0.00092728051588
0
LINE
5
36C
100
AcDbEntity
8
cc_carriage_bracket
6
ByLayer
62
256
370
-1
100
AcDbLine
10
3.80362976602
20
1.70092163564
11
0.505702961513
21
1.70005631732
0
LINE
5
36D
100
AcDbEntity
8
cc_carriage_bracket
6
ByLayer
62
256
370
-1
100
AcDbLine
10
0.505759688375
20
6.73856573687e-05
11
0.505685546927
21
1.15916410213
0
LINE
5
36E
100
AcDbEntity
8
cc_carriage_bracket
6
ByLayer
62
256
370
-1
100
AcDbLine
10
3.35168090538
20
0.135854633765
11
3.36900343522
21
0.138135188084
0
LINE
5
36F
100
AcDbEntity
8
cc_carriage_bracket
6
ByLayer
62
256
370
-1
100
AcDbLine
10
3.33435837554
20
0.138135188084
11
3.35168090538
21
0.135854633765
0
LINE
5
370
100
AcDbEntity
8
cc_carriage_bracket
6
ByLayer
62
256
370
-1
100
AcDbLine
10
3.31821634748
20
0.144821435031
11
3.33435837554
21
0.138135188084
0
LINE
5
371
100
AcDbEntity
8
cc_carriage_bracket
6
ByLayer
62
256
370
-1
100
AcDbLine
10
3.30435487374
20
0.155457717927
11
3.31821634748
21
0.144821435031
0
LINE
5
372
100
AcDbEntity
8
cc_carriage_bracket
6
ByLayer
62
256
370
-1
100
AcDbLine
10
3.29371859084
20
0.169319191669
11
3.30435487374
21
0.155457717927
0
LINE
5
373
100
AcDbEntity
8
cc_carriage_bracket
6
ByLayer
62
256
370
-1
100
AcDbLine
10
3.2870323439
20
0.185461219731
11
3.29371859084
21
0.169319191669
0
LINE
5
374
100
AcDbEntity
8
cc_carriage_bracket
6
ByLayer
62
256
370
-1
100
AcDbLine
10
3.28475178958
20
0.202783749574
11
3.2870323439
21
0.185461219731
0
LINE
5
375
100
AcDbEntity
8
cc_carriage_bracket
6
ByLayer
62
256
370
-1
100
AcDbLine
10
3.2870323439
20
0.220106279417
11
3.28475178958
21
0.202783749574
0
LINE
5
376
100
AcDbEntity
8
cc_carriage_bracket
6
ByLayer
62
256
370
-1
100
AcDbLine
10
3.29371859084
20
0.236248307478
11
3.2870323439
21
0.220106279417
0
LINE
5
377
100
AcDbEntity
8
cc_carriage_bracket
6
ByLayer
62
256
370
-1
100
AcDbLine
10
3.30435487374
20
0.25010978122
11
3.29371859084
21
0.236248307478
0
LINE
5
378
100
AcDbEntity
8
cc_carriage_bracket
6
ByLayer
62
256
370
-1
100
AcDbLine
10
3.31821634748
20
0.260746064116
11
3.30435487374
21
0.25010978122
0
LINE
5
379
100
AcDbEntity
8
cc_carriage_bracket
6
ByLayer
62
256
370
-1
100
AcDbLine
10
3.33435837554
20
0.267432311063
11
3.31821634748
21
0.260746064116
0
LINE
5
37A
100
AcDbEntity
8
cc_carriage_bracket
6
ByLayer
62
256
370
-1
100
AcDbLine
10
3.35168090538
20
0.269712865382
11
3.33435837554
21
0.267432311063
0
LINE
5
37B
100
AcDbEntity
8
cc_carriage_bracket
6
ByLayer
62
256
370
-1
100
AcDbLine
10
3.36900343522
20
0.267432311063
11
3.35168090538
21
0.269712865382
0
LINE
5
37C
100
AcDbEntity
8
cc_carriage_bracket
6
ByLayer
62
256
370
-1
100
AcDbLine
10
3.38514546328
20
0.260746064116
11
3.36900343522
21
0.267432311063
0
LINE
5
37D
100
AcDbEntity
8
cc_carriage_bracket
6
ByLayer
62
256
370
-1
100
AcDbLine
10
3.39900693702
20
0.25010978122
11
3.38514546328
21
0.260746064116
0
LINE
5
37E
100
AcDbEntity
8
cc_carriage_bracket
6
ByLayer
62
256
370
-1
100
AcDbLine
10
3.40964321991
20
0.236248307478
11
3.39900693702
21
0.25010978122
0
LINE
5
37F
100
AcDbEntity
8
cc_carriage_bracket
6
ByLayer
62
256
370
-1
100
AcDbLine
10
3.41632946686
20
0.220106279417
11
3.40964321991
21
0.236248307478
0
LINE
5
380
100
AcDbEntity
8
cc_carriage_bracket
6
ByLayer
62
256
370
-1
100
AcDbLine
10
3.41861002117
20
0.202783749574
11
3.41632946686
21
0.220106279417
0
LINE
5
381
100
AcDbEntity
8
cc_carriage_bracket
6
ByLayer
62
256
370
-1
100
AcDbLine
10
3.41632946686
20
0.185461219731
11
3.41861002117
21
0.202783749574
0
LINE
5
382
100
AcDbEntity
8
cc_carriage_bracket
6
ByLayer
62
256
370
-1
100
AcDbLine
10
3.40964321991
20
0.169319191669
11
3.41632946686
21
0.185461219731
0
LINE
5
383
100
AcDbEntity
8
cc_carriage_bracket
6
ByLayer
62
256
370
-1
100
AcDbLine
10
3.39900693702
20
0.155457717927
11
3.40964321991
21
0.169319191669
0
LINE
5
384
100
AcDbEntity
8
cc_carriage_bracket
6
ByLayer
62
256
370
-1
100
AcDbLine
10
3.38514546328
20
0.144821435031
11
3.39900693702
21
0.155457717927
0
LINE
5
385
100
AcDbEntity
8
cc_carriage_bracket
6
ByLayer
62
256
370
-1
100
AcDbLine
10
3.36900343522
20
0.138135188084
11
3.38514546328
21
0.144821435031
0
LINE
5
386
100
AcDbEntity
8
cc_carriage_bracket
6
ByLayer
62
256
370
-1
100
AcDbLine
10
3.35168094
20
0.529555353925
11
3.36900346965
21
0.531835908217
0
LINE
5
387
100
AcDbEntity
8
cc_carriage_bracket
6
ByLayer
62
256
370
-1
100
AcDbLine
10
3.33435841036
20
0.531835908217
11
3.35168094
21
0.529555353925
0
LINE
5
388
100
AcDbEntity
8
cc_carriage_bracket
6
ByLayer
62
256
370
-1
100
AcDbLine
10
3.31821638248
20
0.538522155089
11
3.33435841036
21
0.531835908217
0
LINE
5
389
100
AcDbEntity
8
cc_carriage_bracket
6
ByLayer
62
256
370
-1
100
AcDbLine
10
3.3043549089
20
0.549158437865
11
3.31821638248
21
0.538522155089
0
LINE
5
38A
100
AcDbEntity
8
cc_carriage_bracket
6
ByLayer
62
256
370
-1
100
AcDbLine
10
3.29371862613
20
0.563019911451
11
3.3043549089
21
0.549158437865
0
LINE
5
38B
100
AcDbEntity
8
cc_carriage_bracket
6
ByLayer
62
256
370
-1
100
AcDbLine
10
3.28703237925
20
0.579161939329
11
3.29371862613
21
0.563019911451
0
LINE
5
38C
100
AcDbEntity
8
cc_carriage_bracket
6
ByLayer
62
256
370
-1
100
AcDbLine
10
3.28475182496
20
0.596484468976
11
3.28703237925
21
0.579161939329
0
LINE
5
38D
100
AcDbEntity
8
cc_carriage_bracket
6
ByLayer
62
256
370
-1
100
AcDbLine
10
3.28703237925
20
0.613806998623
11
3.28475182496
21
0.596484468976
0
LINE
5
38E
100
AcDbEntity
8
cc_carriage_bracket
6
ByLayer
62
256
370
-1
100
AcDbLine
10
3.29371862613
20
0.629949026502
11
3.28703237925
21
0.613806998623
0
LINE
5
38F
100
AcDbEntity
8
cc_carriage_bracket
6
ByLayer
62
256
370
-1
100
AcDbLine
10
3.3043549089
20
0.643810500088
11
3.29371862613
21
0.629949026502
0
LINE
5
390
100
AcDbEntity
8
cc_carriage_bracket
6
ByLayer
62
256
370
-1
100
AcDbLine
10
3.31821638248
20
0.654446782864
11
3.3043549089
21
0.643810500088
0
LINE
5
391
100
AcDbEntity
8
cc_carriage_bracket
6
ByLayer
62
256
370
-1
100
AcDbLine
10
3.33435841036
20
0.661133029735
11
3.31821638248
21
0.654446782864
0
LINE
5
392
100
AcDbEntity
8
cc_carriage_bracket
6
ByLayer
62
256
370
-1
100
AcDbLine
10
3.35168094
20
0.663413584028
11
3.33435841036
21
0.661133029735
0
LINE
5
393
100
AcDbEntity
8
cc_carriage_bracket
6
ByLayer
62
256
370
-1
100
AcDbLine
10
3.36900346965
20
0.661133029735
11
3.35168094
21
0.663413584028
0
LINE
5
394
100
AcDbEntity
8
cc_carriage_bracket
6
ByLayer
62
256
370
-1
100
AcDbLine
10
3.38514549752
20
0.654446782864
11
3.36900346965
21
0.661133029735
0
LINE
5
395
100
AcDbEntity
8
cc_carriage_bracket
6
ByLayer
62
256
370
-1
100
AcDbLine
10
3.39900697111
20
0.643810500088
11
3.38514549752
21
0.654446782864
0
LINE
5
396
100
AcDbEntity
8
cc_carriage_bracket
6
ByLayer
62
256
370
-1
100
AcDbLine
10
3.40964325388
20
0.629949026502
11
3.39900697111
21
0.643810500088
0
LINE
5
397
100
AcDbEntity
8
cc_carriage_bracket
6
ByLayer
62
256
370
-1
100
AcDbLine
10
3.41632950075
20
0.613806998623
11
3.40964325388
21
0.629949026502
0
LINE
5
398
100
AcDbEntity
8
cc_carriage_bracket
6
ByLayer
62
256
370
-1
100
AcDbLine
10
3.41861005504
20
0.596484468976
11
3.41632950075
21
0.613806998623
0
LINE
5
399
100
AcDbEntity
8
cc_carriage_bracket
6
ByLayer
62
256
370
-1
100
AcDbLine
10
3.41632950075
20
0.579161939329
11
3.41861005504
21
0.596484468976
0
LINE
5
39A
100
AcDbEntity
8
cc_carriage_bracket
6
ByLayer
62
256
370
-1
100
AcDbLine
10
3.40964325388
20
0.563019911451
11
3.41632950075
21
0.579161939329
0
LINE
5
39B
100
AcDbEntity
8
cc_carriage_bracket
6
ByLayer
62
256
370
-1
100
AcDbLine
10
3.39900697111
20
0.549158437865
11
3.40964325388
21
0.563019911451
0
LINE
5
39C
100
AcDbEntity
8
cc_carriage_bracket
6
ByLayer
62
256
370
-1
100
AcDbLine
10
3.38514549752
20
0.538522155089
11
3.39900697111
21
0.549158437865
0
LINE
5
39D
100
AcDbEntity
8
cc_carriage_bracket
6
ByLayer
62
256
370
-1
100
AcDbLine
10
3.36900346965
20
0.531835908217
11
3.38514549752
21
0.538522155089
0
LINE
5
39E
100
AcDbEntity
8
cc_carriage_bracket
6
ByLayer
62
256
370
-1
100
AcDbLine
10
2.38743502309
20
0.2507124986
11
1.86031902892
21
0.600406685113
0
LINE
5
39F
100
AcDbEntity
8
cc_carriage_bracket
6
ByLayer
62
256
370
-1
100
AcDbLine
10
2.38743502309
20
0.2507124986
11
1.33266885291
21
0.250712498234
0
LINE
5
3A0
100
AcDbEntity
8
cc_carriage_bracket
6
ByLayer
62
256
370
-1
100
AcDbLine
10
1.86031902892
20
0.600406685113
11
1.33266885291
21
0.250712498234
0
LINE
5
3A1
100
AcDbEntity
8
cc_carriage_bracket
6
ByLayer
62
256
370
-1
100
AcDbLine
10
1.76656903002
20
0.850398462759
11
0.861708679241
21
1.45069215022
0
LINE
5
3A2
100
AcDbEntity
8
cc_carriage_bracket
6
ByLayer
62
256
370
-1
100
AcDbLine
10
1.76656903002
20
0.850398462759
11
0.861708679241
21
0.250712498317
0
LINE
5
3A3
100
AcDbEntity
8
cc_carriage_bracket
6
ByLayer
62
256
370
-1
100
AcDbLine
10
0.861708679241
20
0.250712498317
11
0.861708679241
21
1.45069215022
0
LINE
5
3A4
100
AcDbEntity
8
cc_carriage_bracket
6
ByLayer
62
256
370
-1
100
AcDbLine
10
2.42481197349
20
1.45069215036
11
1.33231176199
21
1.45069215042
0
LINE
5
3A5
100
AcDbEntity
8
cc_carriage_bracket
6
ByLayer
62
256
370
-1
100
AcDbLine
10
1.86031902892
20
1.10040668511
11
2.42481197349
21
1.45069215036
0
LINE
5
3A6
100
AcDbEntity
8
cc_carriage_bracket
6
ByLayer
62
256
370
-1
100
AcDbLine
10
1.86031902892
20
1.10040668511
11
1.33231176199
21
1.45069215042
0
LINE
5
3A7
100
AcDbEntity
8
cc_carriage_bracket
6
ByLayer
62
256
370
-1
100
AcDbLine
10
1.95406902783
20
0.850414907467
11
2.92142937202
21
1.45069215018
0
LINE
5
3A8
100
AcDbEntity
8
cc_carriage_bracket
6
ByLayer
62
256
370
-1
100
AcDbLine
10
2.92142937202
20
1.20069215018
11
2.92142937202
21
1.45069215018
0
LINE
5
3A9
100
AcDbEntity
8
cc_carriage_bracket
6
ByLayer
62
256
370
-1
100
AcDbLine
10
2.92142937208
20
0.250712498272
11
2.92142937202
21
1.20069215018
0
LINE
5
3AA
100
AcDbEntity
8
cc_carriage_bracket
6
ByLayer
62
256
370
-1
100
AcDbLine
10
1.95406902783
20
0.850414907467
11
2.92142937208
21
0.250712498272
0
LINE
5
3AB
100
AcDbEntity
8
cc_carriage_bracket
6
ByLayer
62
256
370
-1
100
AcDbLine
10
0.505685546927
20
1.15916410213
11
0.505702961513
21
1.70005631732
0
LINE
5
3AC
100
AcDbEntity
8
0
6
ByLayer
62
256
370
-1
100
AcDbLine
10
-0.000175471911338
20
1.69999412871
11
3.80362976602
21
1.70092163564
0
LINE
5
3AD
100
AcDbEntity
8
0
6
ByLayer
62
256
370
-1
100
AcDbLine
10
3.80362976602
20
1.70092163564
11
3.80407354992
21
0.000927467239102
0
LINE
5
3AE
100
AcDbEntity
8
0
6
ByLayer
62
256
370
-1
100
AcDbLine
10
3.80407354992
20
0.000927467239102
11
1.11022302463e-16
21
0
0
LINE
5
3AF
100
AcDbEntity
8
0
6
ByLayer
62
256
370
-1
100
AcDbLine
10
1.11022302463e-16
20
0
11
-0.00020463969017
21
1.69999613694
0
LINE
5
3B0
100
AcDbEntity
8
0
6
ByLayer
62
256
370
-1
100
AcDbLine
10
4.05407466391
20
0.000924634935649
11
5.14462463726
21
0.000924634935649
0
LINE
5
3B1
100
AcDbEntity
8
0
6
ByLayer
62
256
370
-1
100
AcDbLine
10
5.14462463726
20
0.000924634935649
11
5.14462471575
21
0.500038351757
0
LINE
5
3B2
100
AcDbEntity
8
0
6
ByLayer
62
256
370
-1
100
AcDbLine
10
5.14462471575
20
0.500038351757
11
4.79190948371
21
0.719822729488
0
LINE
5
3B3
100
AcDbEntity
8
0
6
ByLayer
62
256
370
-1
100
AcDbLine
10
4.79190948371
20
0.719822729488
11
5.81119586808
21
0.719817048207
0
LINE
5
3B4
100
AcDbEntity
8
0
6
ByLayer
62
256
370
-1
100
AcDbLine
10
5.93619640679
20
0.844816509494
11
5.93620454708
21
2.15802617769
0
LINE
5
3B5
100
AcDbEntity
8
0
6
ByLayer
62
256
370
-1
100
AcDbLine
10
5.93620454708
20
2.15802617769
11
4.26908506243
21
2.15804154342
0
LINE
5
3B6
100
AcDbEntity
8
0
6
ByLayer
62
256
370
-1
100
AcDbLine
10
4.26908506243
20
2.15804154342
11
4.26908506243
21
1.71982444911
0
LINE
5
3B7
100
AcDbEntity
8
0
6
ByLayer
62
256
370
-1
100
AcDbLine
10
4.26908506243
20
1.71982444911
11
4.05406695982
21
1.03914091393
0
LINE
5
3B8
100
AcDbEntity
8
0
6
ByLayer
62
256
370
-1
100
AcDbLine
10
4.05406695982
20
1.03914091393
11
4.05407354992
21
0.000927467239102
0
ARC
5
3B9
100
AcDbEntity
8
0
6
ByLayer
62
256
370
-1
100
AcDbCircle
10
5.81039641175
20
0.845617052665
40
0.1258
100
AcDbArc
50
269.999680646
51
359.999644836
0
LINE
5
3BA
100
AcDbEntity
8
cutout
6
ByLayer
62
256
370
-1
100
AcDbLine
10
0.861708045276
20
1.45069222791
11
1.76656839605
21
0.850398540443
0
LINE
5
3BB
100
AcDbEntity
8
cutout
6
ByLayer
62
256
370
-1
100
AcDbLine
10
1.76656839605
20
0.850398540443
11
0.861708045276
21
0.250712576001
0
LINE
5
3BC
100
AcDbEntity
8
cutout
6
ByLayer
62
256
370
-1
100
AcDbLine
10
0.861708045276
20
0.250712576001
11
0.861708045276
21
1.45069222791
0
LINE
5
3BD
100
AcDbEntity
8
cutout
6
ByLayer
62
256
370
-1
100
AcDbLine
10
1.33231176199
20
1.45069215042
11
2.42481197349
21
1.45069215036
0
LINE
5
3BE
100
AcDbEntity
8
cutout
6
ByLayer
62
256
370
-1
100
AcDbLine
10
2.42481197349
20
1.45069215036
11
1.86031902892
21
1.10040668511
0
LINE
5
3BF
100
AcDbEntity
8
cutout
6
ByLayer
62
256
370
-1
100
AcDbLine
10
1.86031902892
20
1.10040668511
11
1.33231094552
21
1.45068969489
0
LINE
5
3C0
100
AcDbEntity
8
cutout
6
ByLayer
62
256
370
-1
100
AcDbLine
10
1.95406902783
20
0.850414907467
11
2.92142937202
21
1.45069215018
0
LINE
5
3C1
100
AcDbEntity
8
cutout
6
ByLayer
62
256
370
-1
100
AcDbLine
10
2.92142937202
20
1.45069215018
11
2.92142735208
21
0.25071255906
0
LINE
5
3C2
100
AcDbEntity
8
cutout
6
ByLayer
62
256
370
-1
100
AcDbLine
10
2.92142735208
20
0.25071255906
11
1.95406902783
21
0.850414907467
0
LINE
5
3C3
100
AcDbEntity
8
cutout
6
ByLayer
62
256
370
-1
100
AcDbLine
10
1.33266833969
20
0.250713807453
11
1.86031851571
21
0.600407994333
0
LINE
5
3C4
100
AcDbEntity
8
cutout
6
ByLayer
62
256
370
-1
100
AcDbLine
10
1.86031851571
20
0.600407994333
11
2.38743450988
21
0.25071380782
0
LINE
5
3C5
100
AcDbEntity
8
cutout
6
ByLayer
62
256
370
-1
100
AcDbLine
10
2.38743450988
20
0.25071380782
11
1.33266833969
21
0.250713807453
0
CIRCLE
5
3C6
100
AcDbEntity
8
cutout
6
ByLayer
62
256
370
-1
100
AcDbCircle
10
4.27749854701
20
0.224456394092
40
0.0984238831342
0
CIRCLE
5
3C7
100
AcDbEntity
8
cutout
6
ByLayer
62
256
370
-1
100
AcDbCircle
10
4.92119851943
20
0.224352470036
40
0.0984238898871
0
CIRCLE
5
3C8
100
AcDbEntity
8
cutout
6
ByLayer
62
256
370
-1
100
AcDbCircle
10
0.208603351408
20
0.33821241055
40
0.0984397782672
0
CIRCLE
5
3C9
100
AcDbEntity
8
cutout
6
ByLayer
62
256
370
-1
100
AcDbCircle
10
0.208480131308
20
1.36183443988
40
0.0984397782672
0
CIRCLE
5
3CA
100
AcDbEntity
8
drill
6
ByLayer
62
256
370
-1
100
AcDbCircle
10
4.50157847347
20
1.25252785166
40
0.065
0
CIRCLE
5
3CB
100
AcDbEntity
8
drill
6
ByLayer
62
256
370
-1
100
AcDbCircle
10
4.50092758076
20
1.64622965405
40
0.065
0
CIRCLE
5
3CC
100
AcDbEntity
8
drill
6
ByLayer
62
256
370
-1
100
AcDbCircle
10
5.48360855111
20
1.25255846646
40
0.065
0
CIRCLE
5
3CD
100
AcDbEntity
8
drill
6
ByLayer
62
256
370
-1
100
AcDbCircle
10
5.48360993312
20
1.6462589957
40
0.065
0
LINE
5
3CE
100
AcDbEntity
8
bend
6
ByLayer
62
256
370
-1
100
AcDbLine
10
0.505759688375
20
6.73856573687e-05
11
0.505702961513
21
1.70005631732
0
LINE
5
3CF
100
AcDbEntity
8
bend
6
ByLayer
62
256
370
-1
100
AcDbLine
10
4.79190948371
20
0.719822729488
11
4.79191734367
21
2.1580327735
0
CIRCLE
5
3D0
100
AcDbEntity
8
drill
6
ByLayer
62
256
370
-1
100
AcDbCircle
10
0.505759688773
20
6.38923867631e-05
40
0.065
0
CIRCLE
5
3D1
100
AcDbEntity
8
drill
6
ByLayer
62
256
370
-1
100
AcDbCircle
10
0.505702961513
20
1.70005631732
40
0.065
0
CIRCLE
5
3D2
100
AcDbEntity
8
drill
6
ByLayer
62
256
370
-1
100
AcDbCircle
10
4.79190948371
20
0.719822729488
40
0.065
0
CIRCLE
5
3D3
100
AcDbEntity
8
drill
6
ByLayer
62
256
370
-1
100
AcDbCircle
10
4.79191836248
20
2.1580330537
40
0.065
0
CIRCLE
5
3D4
100
AcDbEntity
8
drill
6
ByLayer
62
256
370
-1
100
AcDbCircle
10
3.35168027838
20
0.596484572071
40
0.065
0
CIRCLE
5
3D5
100
AcDbEntity
8
drill
6
ByLayer
62
256
370
-1
100
AcDbCircle
10
3.35168090538
20
0.202783749574
40
0.065
0
ENDSEC
0
SECTION
2
OBJECTS
0
DICTIONARY
5
C
330
0
100
AcDbDictionary
281
1
3
ACAD_GROUP
350
D
0
DICTIONARY
5
D
330
C
100
AcDbDictionary
281
1
0
ENDSEC
0
EOF
