999
dxfrw 0.5.10
0
SECTION
2
HEADER
9
$ACADVER
1
AC1021
9
$HANDSEED
5
20000
9
$DWGCODEPAGE
3
ANSI_1252
9
$INSBASE
10
0
20
0
30
0
9
$EXTMIN
10
-1.37543515578
20
-1.56207505757
30
0
9
$EXTMAX
10
2.32980968903
20
11.2947618175
30
0
9
$LIMMIN
10
0
20
0
9
$LIMMAX
10
420
20
297
9
$ORTHOMODE
70
0
9
$LTSCALE
40
1
9
$TEXTSTYLE
7
STANDARD
9
$CLAYER
8
holes
9
$DIMASZ
40
0.1
9
$DIMLFAC
40
1
9
$DIMSCALE
40
1
9
$DIMEXO
40
0.025
9
$DIMEXE
40
0.05
9
$DIMTXT
40
0.1
9
$DIMTSZ
40
0
9
$DIMAUNIT
70
0
9
$DIMADEC
70
0
9
$DIMLUNIT
70
2
9
$DIMSTYLE
2
Standard
9
$DIMGAP
40
0.025
9
$DIMTIH
70
0
9
$LUNITS
70
2
9
$LUPREC
70
4
9
$AUNITS
70
0
9
$AUPREC
70
2
9
$SPLINESEGS
70
8
9
$SNAPSTYLE
70
0
9
$PINSBASE
10
0
20
0
30
0
9
$PLIMMIN
10
0
20
0
9
$PLIMMAX
10
3.07881276418e-08
20
4.35432090934e-08
9
$INSUNITS
70
1
9
$PSVPSCALE
40
1
0
ENDSEC
0
SECTION
2
CLASSES
0
ENDSEC
0
SECTION
2
TABLES
0
TABLE
2
VPORT
5
8
330
0
100
AcDbSymbolTable
70
1
0
VPORT
5
31
330
2
100
AcDbSymbolTableRecord
100
AcDbViewportTableRecord
2
*ACTIVE
70
0
10
0
20
0
11
1
21
1
12
9.9589554176
22
8.8449482752
13
0
23
0
14
10
24
10
15
10
25
10
16
0
26
0
36
1
17
0
27
0
37
0
40
19.8373801984
41
1.79972936401
42
50
43
0
44
0
50
0
51
0
71
0
72
100
73
1
74
3
75
0
76
1
77
0
78
0
281
0
65
1
110
0
120
0
130
0
111
1
121
0
131
0
112
0
122
1
132
0
79
0
146
0
348
10020
60
7
61
5
292
1
282
1
141
0
142
0
63
250
421
3358443
0
ENDTAB
0
TABLE
2
LTYPE
5
5
330
0
100
AcDbSymbolTable
70
4
0
LTYPE
5
14
330
5
100
AcDbSymbolTableRecord
100
AcDbLinetypeTableRecord
2
ByBlock
70
0
3

72
65
73
0
40
0
0
LTYPE
5
15
330
5
100
AcDbSymbolTableRecord
100
AcDbLinetypeTableRecord
2
ByLayer
70
0
3

72
65
73
0
40
0
0
LTYPE
5
16
330
5
100
AcDbSymbolTableRecord
100
AcDbLinetypeTableRecord
2
Continuous
70
0
3
Solid line
72
65
73
0
40
0
0
LTYPE
5
32
330
5
100
AcDbSymbolTableRecord
100
AcDbLinetypeTableRecord
2
DOT
70
0
3
Dot . . . . . . . . . . . . . . . . . . . . . .
72
65
73
2
40
6.35
49
0
74
0
49
-6.35
74
0
0
LTYPE
5
33
330
5
100
AcDbSymbolTableRecord
100
AcDbLinetypeTableRecord
2
DOT2
70
0
3
Dot (.5x) .....................................
72
65
73
2
40
3.175
49
0
74
0
49
-3.175
74
0
0
LTYPE
5
34
330
5
100
AcDbSymbolTableRecord
100
AcDbLinetypeTableRecord
2
DOTX2
70
0
3
Dot (2x) .  .  .  .  .  .  .  .  .  .  .  .  .
72
65
73
2
40
12.7
49
0
74
0
49
-12.7
74
0
0
LTYPE
5
35
330
5
100
AcDbSymbolTableRecord
100
AcDbLinetypeTableRecord
2
DASHED
70
0
3
Dot . . . . . . . . . . . . . . . . . . . . . .
72
65
73
2
40
19.05
49
12.7
74
0
49
-6.35
74
0
0
LTYPE
5
36
330
5
100
AcDbSymbolTableRecord
100
AcDbLinetypeTableRecord
2
DASHED2
70
0
3
Dashed (.5x) _ _ _ _ _ _ _ _ _ _ _ _ _ _ _ _ _
72
65
73
2
40
9.525
49
6.35
74
0
49
-3.175
74
0
0
LTYPE
5
37
330
5
100
AcDbSymbolTableRecord
100
AcDbLinetypeTableRecord
2
DASHEDX2
70
0
3
Dashed (2x) ____  ____  ____  ____  ____  ___
72
65
73
2
40
38.1
49
25.4
74
0
49
-12.7
74
0
0
LTYPE
5
38
330
5
100
AcDbSymbolTableRecord
100
AcDbLinetypeTableRecord
2
DASHDOT
70
0
3
Dash dot __ . __ . __ . __ . __ . __ . __ . __
72
65
73
4
40
25.4
49
12.7
74
0
49
-6.35
74
0
49
0
74
0
49
-6.35
74
0
0
LTYPE
5
39
330
5
100
AcDbSymbolTableRecord
100
AcDbLinetypeTableRecord
2
DASHDOT2
70
0
3
Dash dot (.5x) _._._._._._._._._._._._._._._.
72
65
73
4
40
12.7
49
6.35
74
0
49
-3.175
74
0
49
0
74
0
49
-3.175
74
0
0
LTYPE
5
3A
330
5
100
AcDbSymbolTableRecord
100
AcDbLinetypeTableRecord
2
DASHDOTX2
70
0
3
Dash dot (2x) ____  .  ____  .  ____  .  ___
72
65
73
4
40
50.8
49
25.4
74
0
49
-12.7
74
0
49
0
74
0
49
-12.7
74
0
0
LTYPE
5
3B
330
5
100
AcDbSymbolTableRecord
100
AcDbLinetypeTableRecord
2
DIVIDE
70
0
3
Divide ____ . . ____ . . ____ . . ____ . . ____
72
65
73
6
40
31.75
49
12.7
74
0
49
-6.35
74
0
49
0
74
0
49
-6.35
74
0
49
0
74
0
49
-6.35
74
0
0
LTYPE
5
3C
330
5
100
AcDbSymbolTableRecord
100
AcDbLinetypeTableRecord
2
DIVIDE2
70
0
3
Divide (.5x) __..__..__..__..__..__..__..__.._
72
65
73
6
40
15.875
49
6.35
74
0
49
-3.175
74
0
49
0
74
0
49
-3.175
74
0
49
0
74
0
49
-3.175
74
0
0
LTYPE
5
3D
330
5
100
AcDbSymbolTableRecord
100
AcDbLinetypeTableRecord
2
DIVIDEX2
70
0
3
Divide (2x) ________  .  .  ________  .  .  _
72
65
73
6
40
63.5
49
25.4
74
0
49
-12.7
74
0
49
0
74
0
49
-12.7
74
0
49
0
74
0
49
-12.7
74
0
0
LTYPE
5
3E
330
5
100
AcDbSymbolTableRecord
100
AcDbLinetypeTableRecord
2
BORDER
70
0
3
Border __ __ . __ __ . __ __ . __ __ . __ __ .
72
65
73
6
40
44.45
49
12.7
74
0
49
-6.35
74
0
49
12.7
74
0
49
-6.35
74
0
49
0
74
0
49
-6.35
74
0
0
LTYPE
5
3F
330
5
100
AcDbSymbolTableRecord
100
AcDbLinetypeTableRecord
2
BORDER2
70
0
3
Border (.5x) __.__.__.__.__.__.__.__.__.__.__.
72
65
73
6
40
22.225
49
6.35
74
0
49
-3.175
74
0
49
6.35
74
0
49
-3.175
74
0
49
0
74
0
49
-3.175
74
0
0
LTYPE
5
40
330
5
100
AcDbSymbolTableRecord
100
AcDbLinetypeTableRecord
2
BORDERX2
70
0
3
Border (2x) ____  ____  .  ____  ____  .  ___
72
65
73
6
40
88.9
49
25.4
74
0
49
-12.7
74
0
49
25.4
74
0
49
-12.7
74
0
49
0
74
0
49
-12.7
74
0
0
LTYPE
5
41
330
5
100
AcDbSymbolTableRecord
100
AcDbLinetypeTableRecord
2
CENTER
70
0
3
Center ____ _ ____ _ ____ _ ____ _ ____ _ ____
72
65
73
4
40
50.8
49
31.75
74
0
49
-6.35
74
0
49
6.35
74
0
49
-6.35
74
0
0
LTYPE
5
42
330
5
100
AcDbSymbolTableRecord
100
AcDbLinetypeTableRecord
2
CENTER2
70
0
3
Center (.5x) ___ _ ___ _ ___ _ ___ _ ___ _ ___
72
65
73
4
40
28.575
49
19.05
74
0
49
-3.175
74
0
49
3.175
74
0
49
-3.175
74
0
0
LTYPE
5
43
330
5
100
AcDbSymbolTableRecord
100
AcDbLinetypeTableRecord
2
CENTERX2
70
0
3
Center (2x) ________  __  ________  __  _____
72
65
73
4
40
101.6
49
63.5
74
0
49
-12.7
74
0
49
12.7
74
0
49
-12.7
74
0
0
ENDTAB
0
TABLE
2
LAYER
5
2
330
0
100
AcDbSymbolTable
70
1
0
LAYER
5
10
330
2
100
AcDbSymbolTableRecord
100
AcDbLayerTableRecord
2
0
70
1
62
7
6
CONTINUOUS
370
0
390
F
0
LAYER
5
44
330
2
100
AcDbSymbolTableRecord
100
AcDbLayerTableRecord
2
holes
70
1
62
7
6
CONTINUOUS
370
0
390
F
0
LAYER
5
45
330
2
100
AcDbSymbolTableRecord
100
AcDbLayerTableRecord
2
spacer_outline
70
1
62
7
6
CONTINUOUS
370
0
390
F
0
LAYER
5
46
330
2
100
AcDbSymbolTableRecord
100
AcDbLayerTableRecord
2
y_tensiioner_outline
70
1
62
7
6
CONTINUOUS
370
0
390
F
0
ENDTAB
0
TABLE
2
STYLE
5
3
330
0
100
AcDbSymbolTable
70
3
0
STYLE
5
47
330
2
100
AcDbSymbolTableRecord
100
AcDbTextStyleTableRecord
2
Standard
70
0
40
0
41
1
50
0
71
0
42
1
3
txt
4

0
ENDTAB
0
TABLE
2
VIEW
5
6
330
0
100
AcDbSymbolTable
70
0
0
ENDTAB
0
TABLE
2
UCS
5
7
330
0
100
AcDbSymbolTable
70
0
0
ENDTAB
0
TABLE
2
APPID
5
9
330
0
100
AcDbSymbolTable
70
1
0
APPID
5
12
330
9
100
AcDbSymbolTableRecord
100
AcDbRegAppTableRecord
2
ACAD
70
0
0
ENDTAB
0
TABLE
2
DIMSTYLE
5
A
330
0
100
AcDbSymbolTable
70
1
100
AcDbDimStyleTable
71
1
0
DIMSTYLE
105
48
330
A
100
AcDbSymbolTableRecord
100
AcDbDimStyleTableRecord
2
Standard
70
0
40
1
41
0.1
42
0.025
43
0.38
44
0.05
45
0
46
0
47
0
48
0
140
0.1
141
0.09
142
0
143
25.4
144
1
145
0
146
1
147
0.025
148
0
71
0
72
0
73
0
74
1
75
0
76
0
77
0
78
0
79
0
170
0
171
2
172
0
173
0
174
0
175
0
176
0
177
0
178
0
179
0
271
4
272
4
273
2
274
2
275
0
276
0
277
2
278
46
279
0
280
0
281
0
282
0
283
1
284
0
285
0
286
0
288
0
289
3
340
Standard
341

371
-2
372
-2
0
ENDTAB
0
TABLE
2
BLOCK_RECORD
5
1
330
0
100
AcDbSymbolTable
70
2
0
BLOCK_RECORD
5
1F
330
1
100
AcDbSymbolTableRecord
100
AcDbBlockTableRecord
2
*Model_Space
70
0
280
1
281
0
0
BLOCK_RECORD
5
1E
330
1
100
AcDbSymbolTableRecord
100
AcDbBlockTableRecord
2
*Paper_Space
70
0
280
1
281
0
0
ENDTAB
0
ENDSEC
0
SECTION
2
BLOCKS
0
BLOCK
5
20
330
1F
100
AcDbEntity
8
0
100
AcDbBlockBegin
2
*Model_Space
70
0
10
0
20
0
30
0
3
*Model_Space
1

0
ENDBLK
5
21
330
1F
100
AcDbEntity
8
0
100
AcDbBlockEnd
0
BLOCK
5
1C
330
1B
100
AcDbEntity
8
0
100
AcDbBlockBegin
2
*Paper_Space
70
0
10
0
20
0
30
0
3
*Paper_Space
1

0
ENDBLK
5
1D
330
1F
100
AcDbEntity
8
0
100
AcDbBlockEnd
0
ENDSEC
0
SECTION
2
ENTITIES
0
ARC
5
49
100
AcDbEntity
8
y_tensiioner_outline
6
ByLayer
62
256
370
-1
100
AcDbCircle
10
0.0798096888822
20
0.24448251801
40
0
100
AcDbArc
50
0
51
0
0
ARC
5
4A
100
AcDbEntity
8
y_tensiioner_outline
6
ByLayer
62
256
370
-1
100
AcDbCircle
10
0.68275
20
0.682407460443
40
0.68275
100
AcDbArc
50
180
51
46.4093396154
0
ARC
5
4B
100
AcDbEntity
8
y_tensiioner_outline
6
ByLayer
62
256
370
-1
100
AcDbCircle
10
0.249999999848
20
2.68240745934
40
0.250000000151
100
AcDbArc
50
2.52248010676e-07
51
180.000000252
0
LINE
5
4C
100
AcDbEntity
8
y_tensiioner_outline
6
ByLayer
62
256
370
-1
100
AcDbLine
10
-3.03426603288e-10
20
2.68240745824
11
1.38777878078e-17
21
0.682407460443
0
LINE
5
4D
100
AcDbEntity
8
y_tensiioner_outline
6
ByLayer
62
256
370
-1
100
AcDbLine
10
0.499999999999
20
2.68240746044
11
1.15350714193
21
1.17691254214
0
CIRCLE
5
4E
100
AcDbEntity
8
holes
6
ByLayer
62
256
370
-1
100
AcDbCircle
10
0.68275
20
0.682407460443
40
0.15725
0
CIRCLE
5
4F
100
AcDbEntity
8
holes
6
ByLayer
62
256
370
-1
100
AcDbCircle
10
0.249999999848
20
2.68240745934
40
0.108999998899
0
ARC
5
50
100
AcDbEntity
8
holes
6
ByLayer
62
256
370
-1
100
AcDbCircle
10
0.250000432251
20
2.68248572764
40
1.21362674522
100
AcDbArc
50
269.740104369
51
294.311503705
0
ARC
5
51
100
AcDbEntity
8
holes
6
ByLayer
62
256
370
-1
100
AcDbCircle
10
0.694089599341
20
1.67112945074
40
0.10974826844
100
AcDbArc
50
300.412957448
51
107.003153697
0
LINE
5
52
100
AcDbEntity
8
holes
6
ByLayer
62
256
370
-1
100
AcDbLine
10
0.638531864144
20
1.76577627047
11
0.661996534203
21
1.77608047549
0
LINE
5
53
100
AcDbEntity
8
holes
6
ByLayer
62
256
370
-1
100
AcDbLine
10
0.242178610485
20
1.6868630973
11
0.244495398017
21
1.68684759178
0
ARC
5
54
100
AcDbEntity
8
holes
6
ByLayer
62
256
370
-1
100
AcDbCircle
10
0.244495398201
20
1.57785952986
40
0.109028185439
100
AcDbArc
50
91.2175947837
51
268.06027287
0
LINE
5
55
100
AcDbEntity
8
holes
6
ByLayer
62
256
370
-1
100
AcDbLine
10
0.629456487688
20
1.76197570327
11
0.638531864144
21
1.76577627047
0
LINE
5
56
100
AcDbEntity
8
holes
6
ByLayer
62
256
370
-1
100
AcDbLine
10
0.244495398384
20
1.46887146795
11
0.240804994913
21
1.468893819
0
ARC
5
57
100
AcDbEntity
8
holes
6
ByLayer
62
256
370
-1
100
AcDbCircle
10
0.250000432251
20
2.68248572764
40
0.995653354826
100
AcDbArc
50
269.683206175
51
292.402617738
0
ARC
5
58
100
AcDbEntity
8
y_tensiioner_outline
6
ByLayer
62
256
370
-1
100
AcDbCircle
10
0.979276188488
20
4.06878533458
40
0.68275
100
AcDbArc
50
0.00897879188914
51
226.418318407
0
ARC
5
59
100
AcDbEntity
8
y_tensiioner_outline
6
ByLayer
62
256
370
-1
100
AcDbCircle
10
1.41233960229
20
2.06885317627
40
0.250000000151
100
AcDbArc
50
180.008979044
51
0.0089790441172
0
LINE
5
5A
100
AcDbEntity
8
y_tensiioner_outline
6
ByLayer
62
256
370
-1
100
AcDbLine
10
1.66233959937
20
2.06889235474
11
1.6620261801
21
4.06889232798
0
LINE
5
5B
100
AcDbEntity
8
y_tensiioner_outline
6
ByLayer
62
256
370
-1
100
AcDbLine
10
1.16233960521
20
2.0688139978
11
0.508596545972
21
3.57420648685
0
LINE
5
5C
100
AcDbEntity
8
holes
6
ByLayer
62
256
370
-1
100
AcDbLine
10
1.41765403109
20
3.28239001539
11
1.42134443802
21
3.28236824265
0
ARC
5
5D
100
AcDbEntity
8
holes
6
ByLayer
62
256
370
-1
100
AcDbCircle
10
1.41233960229
20
2.06885317627
40
0.995575083048
100
AcDbArc
50
112.406482262
51
112.979577883
0
CIRCLE
5
5E
100
AcDbEntity
8
holes
6
ByLayer
62
256
370
-1
100
AcDbCircle
10
0.979276188488
20
4.06878533458
40
0.15725
0
CIRCLE
5
5F
100
AcDbEntity
8
holes
6
ByLayer
62
256
370
-1
100
AcDbCircle
10
1.41233960229
20
2.06885317627
40
0.108999998899
0
ARC
5
60
100
AcDbEntity
8
holes
6
ByLayer
62
256
370
-1
100
AcDbCircle
10
1.41233918215
20
2.06877490791
40
1.21362674522
100
AcDbArc
50
89.7490831612
51
114.320482497
0
ARC
5
61
100
AcDbEntity
8
holes
6
ByLayer
62
256
370
-1
100
AcDbCircle
10
1.41233918215
20
2.06877490791
40
0.995653354826
100
AcDbArc
50
89.6921849668
51
112.41159653
0
ARC
5
62
100
AcDbEntity
8
holes
6
ByLayer
62
256
370
-1
100
AcDbCircle
10
0.968091531395
20
3.0800615794
40
0.10974826844
100
AcDbArc
50
120.42193624
51
287.012132488
0
LINE
5
63
100
AcDbEntity
8
holes
6
ByLayer
62
256
370
-1
100
AcDbLine
10
1.02366409796
20
2.98542346726
11
1.00020104296
21
2.97511558523
0
LINE
5
64
100
AcDbEntity
8
holes
6
ByLayer
62
256
370
-1
100
AcDbLine
10
1.42000498031
20
3.06439875177
11
1.41768819038
21
3.06441389423
0
ARC
5
65
100
AcDbEntity
8
holes
6
ByLayer
62
256
370
-1
100
AcDbCircle
10
1.41767111073
20
3.17340195481
40
0.109028185439
100
AcDbArc
50
271.226573576
51
88.0692516623
0
CIRCLE
5
66
100
AcDbEntity
8
holes
6
ByLayer
62
256
370
-1
100
AcDbCircle
10
0.347806855283
20
5.30519081364
40
0.109
0
CIRCLE
5
67
100
AcDbEntity
8
holes
6
ByLayer
62
256
370
-1
100
AcDbCircle
10
0.313583636827
20
6.40929607054
40
0.10899973593
0
ARC
5
68
100
AcDbEntity
8
spacer_outline
6
ByLayer
62
256
370
-1
100
AcDbCircle
10
0.347806855283
20
5.30519081364
40
0.247861215343
100
AcDbArc
50
181.2
51
1.19999999998
0
ARC
5
69
100
AcDbEntity
8
spacer_outline
6
ByLayer
62
256
370
-1
100
AcDbCircle
10
0.313583636827
20
6.40929607054
40
0.241911042638
100
AcDbArc
50
3.4720289419
51
183.472028942
0
LINE
5
6A
100
AcDbEntity
8
spacer_outline
6
ByLayer
62
256
370
-1
100
AcDbLine
10
0.0721166261201
20
6.394645634
11
0.1
21
5.3
0
LINE
5
6B
100
AcDbEntity
8
spacer_outline
6
ByLayer
62
256
370
-1
100
AcDbLine
10
0.555050647533
20
6.42394650707
11
0.595613710566
21
5.31038162729
0
CIRCLE
5
6C
100
AcDbEntity
8
holes
6
ByLayer
62
256
370
-1
100
AcDbCircle
10
1.24780685528
20
5.40519081364
40
0.109
0
CIRCLE
5
6D
100
AcDbEntity
8
holes
6
ByLayer
62
256
370
-1
100
AcDbCircle
10
1.21358363683
20
6.50929607054
40
0.10899973593
0
ARC
5
6E
100
AcDbEntity
8
spacer_outline
6
ByLayer
62
256
370
-1
100
AcDbCircle
10
1.24780685528
20
5.40519081364
40
0.247861215343
100
AcDbArc
50
181.2
51
1.19999999998
0
ARC
5
6F
100
AcDbEntity
8
spacer_outline
6
ByLayer
62
256
370
-1
100
AcDbCircle
10
1.21358363683
20
6.50929607054
40
0.241911042638
100
AcDbArc
50
3.4720289419
51
183.472028942
0
LINE
5
70
100
AcDbEntity
8
spacer_outline
6
ByLayer
62
256
370
-1
100
AcDbLine
10
0.97211662612
20
6.494645634
11
1
21
5.4
0
LINE
5
71
100
AcDbEntity
8
spacer_outline
6
ByLayer
62
256
370
-1
100
AcDbLine
10
1.45505064753
20
6.52394650707
11
1.49561371057
21
5.41038162729
0
ENDSEC
0
SECTION
2
OBJECTS
0
DICTIONARY
5
C
330
0
100
AcDbDictionary
281
1
3
ACAD_GROUP
350
D
0
DICTIONARY
5
D
330
C
100
AcDbDictionary
281
1
0
ENDSEC
0
EOF
