999
dxfrw 0.5.10
0
SECTION
2
HEADER
9
$ACADVER
1
AC1021
9
$HANDSEED
5
20000
9
$DWGCODEPAGE
3
ANSI_1252
9
$INSBASE
10
0
20
0
30
0
9
$EXTMIN
10
-7.16586291638e-07
20
-0.0649994958894
30
0
9
$EXTMAX
10
4.16022496203
20
3.88739279926
30
0
9
$LIMMIN
10
0
20
0
9
$LIMMAX
10
420
20
297
9
$ORTHOMODE
70
0
9
$LTSCALE
40
1
9
$TEXTSTYLE
7
STANDARD
9
$DIMASZ
40
0.1
9
$DIMSCALE
40
1
9
$DIMEXO
40
0.025
9
$DIMEXE
40
0.05
9
$DIMTXT
40
0.1
9
$DIMTSZ
40
0
9
$DIMAUNIT
70
0
9
$DIMADEC
70
0
9
$DIMLUNIT
70
2
9
$DIMSTYLE
2
Standard
9
$DIMGAP
40
0.025
9
$DIMTIH
70
0
9
$LUNITS
70
2
9
$LUPREC
70
4
9
$AUNITS
70
0
9
$AUPREC
70
2
9
$SPLINESEGS
70
8
9
$GRIDMODE
70
1
9
$SNAPSTYLE
70
0
9
$PINSBASE
10
0
20
0
30
0
9
$PLIMMIN
10
0
20
0
9
$PLIMMAX
10
8.26771653543
20
11.6929133858
9
$INSUNITS
70
1
9
$PSVPSCALE
40
1
0
ENDSEC
0
SECTION
2
CLASSES
0
ENDSEC
0
SECTION
2
TABLES
0
TABLE
2
VPORT
5
8
330
0
100
AcDbSymbolTable
70
1
0
VPORT
5
31
330
2
100
AcDbSymbolTableRecord
100
AcDbViewportTableRecord
2
*ACTIVE
70
0
10
0
20
0
11
1
21
1
12
6.45963081317
22
3.53905305189
13
0
23
0
14
10
24
10
15
10
25
10
16
0
26
0
36
1
17
0
27
0
37
0
40
12.7131031961
41
1.42972972973
42
50
43
0
44
0
50
0
51
0
71
0
72
100
73
1
74
3
75
0
76
1
77
0
78
0
281
0
65
1
110
0
120
0
130
0
111
1
121
0
131
0
112
0
122
1
132
0
79
0
146
0
348
10020
60
7
61
5
292
1
282
1
141
0
142
0
63
250
421
3358443
0
ENDTAB
0
TABLE
2
LTYPE
5
5
330
0
100
AcDbSymbolTable
70
4
0
LTYPE
5
14
330
5
100
AcDbSymbolTableRecord
100
AcDbLinetypeTableRecord
2
ByBlock
70
0
3

72
65
73
0
40
0
0
LTYPE
5
15
330
5
100
AcDbSymbolTableRecord
100
AcDbLinetypeTableRecord
2
ByLayer
70
0
3

72
65
73
0
40
0
0
LTYPE
5
16
330
5
100
AcDbSymbolTableRecord
100
AcDbLinetypeTableRecord
2
Continuous
70
0
3
Solid line
72
65
73
0
40
0
0
LTYPE
5
32
330
5
100
AcDbSymbolTableRecord
100
AcDbLinetypeTableRecord
2
DOT
70
0
3
Dot . . . . . . . . . . . . . . . . . . . . . .
72
65
73
2
40
6.35
49
0
74
0
49
-6.35
74
0
0
LTYPE
5
33
330
5
100
AcDbSymbolTableRecord
100
AcDbLinetypeTableRecord
2
DOT2
70
0
3
Dot (.5x) .....................................
72
65
73
2
40
3.175
49
0
74
0
49
-3.175
74
0
0
LTYPE
5
34
330
5
100
AcDbSymbolTableRecord
100
AcDbLinetypeTableRecord
2
DOTX2
70
0
3
Dot (2x) .  .  .  .  .  .  .  .  .  .  .  .  .
72
65
73
2
40
12.7
49
0
74
0
49
-12.7
74
0
0
LTYPE
5
35
330
5
100
AcDbSymbolTableRecord
100
AcDbLinetypeTableRecord
2
DASHED
70
0
3
Dot . . . . . . . . . . . . . . . . . . . . . .
72
65
73
2
40
19.05
49
12.7
74
0
49
-6.35
74
0
0
LTYPE
5
36
330
5
100
AcDbSymbolTableRecord
100
AcDbLinetypeTableRecord
2
DASHED2
70
0
3
Dashed (.5x) _ _ _ _ _ _ _ _ _ _ _ _ _ _ _ _ _
72
65
73
2
40
9.525
49
6.35
74
0
49
-3.175
74
0
0
LTYPE
5
37
330
5
100
AcDbSymbolTableRecord
100
AcDbLinetypeTableRecord
2
DASHEDX2
70
0
3
Dashed (2x) ____  ____  ____  ____  ____  ___
72
65
73
2
40
38.1
49
25.4
74
0
49
-12.7
74
0
0
LTYPE
5
38
330
5
100
AcDbSymbolTableRecord
100
AcDbLinetypeTableRecord
2
DASHDOT
70
0
3
Dash dot __ . __ . __ . __ . __ . __ . __ . __
72
65
73
4
40
25.4
49
12.7
74
0
49
-6.35
74
0
49
0
74
0
49
-6.35
74
0
0
LTYPE
5
39
330
5
100
AcDbSymbolTableRecord
100
AcDbLinetypeTableRecord
2
DASHDOT2
70
0
3
Dash dot (.5x) _._._._._._._._._._._._._._._.
72
65
73
4
40
12.7
49
6.35
74
0
49
-3.175
74
0
49
0
74
0
49
-3.175
74
0
0
LTYPE
5
3A
330
5
100
AcDbSymbolTableRecord
100
AcDbLinetypeTableRecord
2
DASHDOTX2
70
0
3
Dash dot (2x) ____  .  ____  .  ____  .  ___
72
65
73
4
40
50.8
49
25.4
74
0
49
-12.7
74
0
49
0
74
0
49
-12.7
74
0
0
LTYPE
5
3B
330
5
100
AcDbSymbolTableRecord
100
AcDbLinetypeTableRecord
2
DIVIDE
70
0
3
Divide ____ . . ____ . . ____ . . ____ . . ____
72
65
73
6
40
31.75
49
12.7
74
0
49
-6.35
74
0
49
0
74
0
49
-6.35
74
0
49
0
74
0
49
-6.35
74
0
0
LTYPE
5
3C
330
5
100
AcDbSymbolTableRecord
100
AcDbLinetypeTableRecord
2
DIVIDE2
70
0
3
Divide (.5x) __..__..__..__..__..__..__..__.._
72
65
73
6
40
15.875
49
6.35
74
0
49
-3.175
74
0
49
0
74
0
49
-3.175
74
0
49
0
74
0
49
-3.175
74
0
0
LTYPE
5
3D
330
5
100
AcDbSymbolTableRecord
100
AcDbLinetypeTableRecord
2
DIVIDEX2
70
0
3
Divide (2x) ________  .  .  ________  .  .  _
72
65
73
6
40
63.5
49
25.4
74
0
49
-12.7
74
0
49
0
74
0
49
-12.7
74
0
49
0
74
0
49
-12.7
74
0
0
LTYPE
5
3E
330
5
100
AcDbSymbolTableRecord
100
AcDbLinetypeTableRecord
2
BORDER
70
0
3
Border __ __ . __ __ . __ __ . __ __ . __ __ .
72
65
73
6
40
44.45
49
12.7
74
0
49
-6.35
74
0
49
12.7
74
0
49
-6.35
74
0
49
0
74
0
49
-6.35
74
0
0
LTYPE
5
3F
330
5
100
AcDbSymbolTableRecord
100
AcDbLinetypeTableRecord
2
BORDER2
70
0
3
Border (.5x) __.__.__.__.__.__.__.__.__.__.__.
72
65
73
6
40
22.225
49
6.35
74
0
49
-3.175
74
0
49
6.35
74
0
49
-3.175
74
0
49
0
74
0
49
-3.175
74
0
0
LTYPE
5
40
330
5
100
AcDbSymbolTableRecord
100
AcDbLinetypeTableRecord
2
BORDERX2
70
0
3
Border (2x) ____  ____  .  ____  ____  .  ___
72
65
73
6
40
88.9
49
25.4
74
0
49
-12.7
74
0
49
25.4
74
0
49
-12.7
74
0
49
0
74
0
49
-12.7
74
0
0
LTYPE
5
41
330
5
100
AcDbSymbolTableRecord
100
AcDbLinetypeTableRecord
2
CENTER
70
0
3
Center ____ _ ____ _ ____ _ ____ _ ____ _ ____
72
65
73
4
40
50.8
49
31.75
74
0
49
-6.35
74
0
49
6.35
74
0
49
-6.35
74
0
0
LTYPE
5
42
330
5
100
AcDbSymbolTableRecord
100
AcDbLinetypeTableRecord
2
CENTER2
70
0
3
Center (.5x) ___ _ ___ _ ___ _ ___ _ ___ _ ___
72
65
73
4
40
28.575
49
19.05
74
0
49
-3.175
74
0
49
3.175
74
0
49
-3.175
74
0
0
LTYPE
5
43
330
5
100
AcDbSymbolTableRecord
100
AcDbLinetypeTableRecord
2
CENTERX2
70
0
3
Center (2x) ________  __  ________  __  _____
72
65
73
4
40
101.6
49
63.5
74
0
49
-12.7
74
0
49
12.7
74
0
49
-12.7
74
0
0
ENDTAB
0
TABLE
2
LAYER
5
2
330
0
100
AcDbSymbolTable
70
1
0
LAYER
5
10
330
2
100
AcDbSymbolTableRecord
100
AcDbLayerTableRecord
2
0
70
0
62
7
6
CONTINUOUS
370
0
390
F
0
LAYER
5
44
330
2
100
AcDbSymbolTableRecord
100
AcDbLayerTableRecord
2
cc_z_bracket
70
1
62
7
6
CONTINUOUS
370
-3
390
F
0
LAYER
5
45
330
2
100
AcDbSymbolTableRecord
100
AcDbLayerTableRecord
2
bend
70
0
62
7
6
CONTINUOUS
370
0
390
F
0
LAYER
5
46
330
2
100
AcDbSymbolTableRecord
100
AcDbLayerTableRecord
2
cutout
70
0
62
7
6
CONTINUOUS
370
0
390
F
0
LAYER
5
47
330
2
100
AcDbSymbolTableRecord
100
AcDbLayerTableRecord
2
drill
70
0
62
7
6
CONTINUOUS
370
0
390
F
0
ENDTAB
0
TABLE
2
STYLE
5
3
330
0
100
AcDbSymbolTable
70
3
0
STYLE
5
48
330
2
100
AcDbSymbolTableRecord
100
AcDbTextStyleTableRecord
2
Standard
70
0
40
0
41
1
50
0
71
0
42
1
3
txt
4

0
ENDTAB
0
TABLE
2
VIEW
5
6
330
0
100
AcDbSymbolTable
70
0
0
ENDTAB
0
TABLE
2
UCS
5
7
330
0
100
AcDbSymbolTable
70
0
0
ENDTAB
0
TABLE
2
APPID
5
9
330
0
100
AcDbSymbolTable
70
1
0
APPID
5
12
330
9
100
AcDbSymbolTableRecord
100
AcDbRegAppTableRecord
2
ACAD
70
0
0
ENDTAB
0
TABLE
2
DIMSTYLE
5
A
330
0
100
AcDbSymbolTable
70
1
100
AcDbDimStyleTable
71
1
0
DIMSTYLE
105
49
330
A
100
AcDbSymbolTableRecord
100
AcDbDimStyleTableRecord
2
Standard
70
0
40
1
41
0.1
42
0.025
43
0.38
44
0.05
45
0
46
0
47
0
48
0
140
0.1
141
0.09
142
0
143
25.4
144
1
145
0
146
1
147
0.025
148
0
71
0
72
0
73
0
74
1
75
0
76
0
77
0
78
0
79
0
170
0
171
2
172
0
173
0
174
0
175
0
176
0
177
0
178
0
179
0
271
4
272
4
273
2
274
2
275
0
276
0
277
2
278
46
279
0
280
0
281
0
282
0
283
1
284
0
285
0
286
0
288
0
289
3
340
Standard
341

371
-2
372
-2
0
ENDTAB
0
TABLE
2
BLOCK_RECORD
5
1
330
0
100
AcDbSymbolTable
70
2
0
BLOCK_RECORD
5
1F
330
1
100
AcDbSymbolTableRecord
100
AcDbBlockTableRecord
2
*Model_Space
70
0
280
1
281
0
0
BLOCK_RECORD
5
1E
330
1
100
AcDbSymbolTableRecord
100
AcDbBlockTableRecord
2
*Paper_Space
70
0
280
1
281
0
0
ENDTAB
0
ENDSEC
0
SECTION
2
BLOCKS
0
BLOCK
5
20
330
1F
100
AcDbEntity
8
0
100
AcDbBlockBegin
2
*Model_Space
70
0
10
0
20
0
30
0
3
*Model_Space
1

0
ENDBLK
5
21
330
1F
100
AcDbEntity
8
0
100
AcDbBlockEnd
0
BLOCK
5
1C
330
1B
100
AcDbEntity
8
0
100
AcDbBlockBegin
2
*Paper_Space
70
0
10
0
20
0
30
0
3
*Paper_Space
1

0
ENDBLK
5
1D
330
1F
100
AcDbEntity
8
0
100
AcDbBlockEnd
0
ENDSEC
0
SECTION
2
ENTITIES
0
LINE
5
4A
100
AcDbEntity
8
cc_z_bracket
6
ByLayer
62
256
370
-1
100
AcDbLine
10
0.27676321719
20
0.888299246247
11
0.260808788543
21
0.867507030025
0
LINE
5
4B
100
AcDbEntity
8
cc_z_bracket
6
ByLayer
62
256
370
-1
100
AcDbLine
10
0.448145984592
20
0.817310179632
11
0.448146188993
21
0.817310262003
0
LINE
5
4C
100
AcDbEntity
8
cc_z_bracket
6
ByLayer
62
256
370
-1
100
AcDbLine
10
0.3979490495
20
0.139815435491
11
0.418741265721
21
0.155769864138
0
LINE
5
4D
100
AcDbEntity
8
cc_z_bracket
6
ByLayer
62
256
370
-1
100
AcDbLine
10
0.41874135042
20
0.297748065144
11
0.41874126572
21
0.297747997367
0
LINE
5
4E
100
AcDbEntity
8
cc_z_bracket
6
ByLayer
62
256
370
-1
100
AcDbLine
10
0.397949134199
20
0.31370249379
11
0.397949049499
21
0.313702426013
0
LINE
5
4F
100
AcDbEntity
8
cc_z_bracket
6
ByLayer
62
256
370
-1
100
AcDbLine
10
0.444725152192
20
0.200775196758
11
0.448145984592
21
0.226758998529
0
LINE
5
50
100
AcDbEntity
8
cc_z_bracket
6
ByLayer
62
256
370
-1
100
AcDbLine
10
0.373736000878
20
0.323731799139
11
0.347752199106
21
0.327152631539
0
LINE
5
51
100
AcDbEntity
8
cc_z_bracket
6
ByLayer
62
256
370
-1
100
AcDbLine
10
0.25077933072
20
0.252742732524
11
0.24735849832
21
0.226758930752
0
LINE
5
52
100
AcDbEntity
8
cc_z_bracket
6
ByLayer
62
256
370
-1
100
AcDbLine
10
0.434695694367
20
0.276955781146
11
0.41874126572
21
0.297747997367
0
LINE
5
53
100
AcDbEntity
8
cc_z_bracket
6
ByLayer
62
256
370
-1
100
AcDbLine
10
0.297555433412
20
0.31370249379
11
0.297555348713
21
0.313702426013
0
LINE
5
54
100
AcDbEntity
8
cc_z_bracket
6
ByLayer
62
256
370
-1
100
AcDbLine
10
0.247358583019
20
0.226758998529
11
0.250779415419
21
0.200775196757
0
LINE
5
55
100
AcDbEntity
8
cc_z_bracket
6
ByLayer
62
256
370
-1
100
AcDbLine
10
0.183800424482
20
0.973762860001
11
0.227769056512
21
1.04401095043
0
LINE
5
56
100
AcDbEntity
8
cc_z_bracket
6
ByLayer
62
256
370
-1
100
AcDbLine
10
0.183800424482
20
0.973762860001
11
0.183799674313
21
0.973763534506
0
LINE
5
57
100
AcDbEntity
8
cc_z_bracket
6
ByLayer
62
256
370
-1
100
AcDbLine
10
0.183799674313
20
0.973763534506
11
0.227768306344
21
1.04401162493
0
LINE
5
58
100
AcDbEntity
8
cc_z_bracket
6
ByLayer
62
256
370
-1
100
AcDbLine
10
0.227769056512
20
1.04401095043
11
0.227768306344
21
1.04401162493
0
LINE
5
59
100
AcDbEntity
8
cc_z_bracket
6
ByLayer
62
256
370
-1
100
AcDbLine
10
0.448145984592
20
0.226758998529
11
0.444725152192
21
0.252742800301
0
LINE
5
5A
100
AcDbEntity
8
cc_z_bracket
6
ByLayer
62
256
370
-1
100
AcDbLine
10
0.41874155482
20
0.888299328618
11
0.397949338599
21
0.904253757265
0
LINE
5
5B
100
AcDbEntity
8
cc_z_bracket
6
ByLayer
62
256
370
-1
100
AcDbLine
10
0.250779619819
20
0.791326460231
11
0.260808992945
21
0.76711341161
0
LINE
5
5C
100
AcDbEntity
8
cc_z_bracket
6
ByLayer
62
256
370
-1
100
AcDbLine
10
0.373736289978
20
0.720337393616
11
0.3979493386
21
0.730366766742
0
LINE
5
5D
100
AcDbEntity
8
cc_z_bracket
6
ByLayer
62
256
370
-1
100
AcDbLine
10
0.373736085577
20
0.323731866916
11
0.373736000878
21
0.323731799139
0
LINE
5
5E
100
AcDbEntity
8
cc_z_bracket
6
ByLayer
62
256
370
-1
100
AcDbLine
10
0.397949134198
20
0.904253674893
11
0.397949338599
21
0.904253757265
0
LINE
5
5F
100
AcDbEntity
8
cc_z_bracket
6
ByLayer
62
256
370
-1
100
AcDbLine
10
0.448146188993
20
0.817310262003
11
0.444725356592
21
0.843294063775
0
LINE
5
60
100
AcDbEntity
8
cc_z_bracket
6
ByLayer
62
256
370
-1
100
AcDbLine
10
0.347752199106
20
0.327152631539
11
0.321768397334
21
0.323731799139
0
LINE
5
61
100
AcDbEntity
8
cc_z_bracket
6
ByLayer
62
256
370
-1
100
AcDbLine
10
0.397949338599
20
0.904253757265
11
0.373736289977
21
0.91428313039
0
LINE
5
62
100
AcDbEntity
8
cc_z_bracket
6
ByLayer
62
256
370
-1
100
AcDbLine
10
0.260808788544
20
0.767113329238
11
0.260808992945
21
0.76711341161
0
LINE
5
63
100
AcDbEntity
8
cc_z_bracket
6
ByLayer
62
256
370
-1
100
AcDbLine
10
0.276763132491
20
0.297747997367
11
0.260808703845
21
0.276955781146
0
LINE
5
64
100
AcDbEntity
8
cc_z_bracket
6
ByLayer
62
256
370
-1
100
AcDbLine
10
0.397949134199
20
0.139815503268
11
0.41874135042
21
0.155769931915
0
LINE
5
65
100
AcDbEntity
8
cc_z_bracket
6
ByLayer
62
256
370
-1
100
AcDbLine
10
1.39054498579
20
1.13739270176
11
0.753925552987
21
1.13739102175
0
LINE
5
66
100
AcDbEntity
8
cc_z_bracket
6
ByLayer
62
256
370
-1
100
AcDbLine
10
0.444725152192
20
0.79132637786
11
0.444725356593
21
0.791326460231
0
LINE
5
67
100
AcDbEntity
8
cc_z_bracket
6
ByLayer
62
256
370
-1
100
AcDbLine
10
0.321768482033
20
0.323731866916
11
0.297555433412
21
0.31370249379
0
LINE
5
68
100
AcDbEntity
8
cc_z_bracket
6
ByLayer
62
256
370
-1
100
AcDbLine
10
0.321768482033
20
0.323731866916
11
0.321768397334
21
0.323731799139
0
LINE
5
69
100
AcDbEntity
8
cc_z_bracket
6
ByLayer
62
256
370
-1
100
AcDbLine
10
0.321768397334
20
0.323731799139
11
0.297555348713
21
0.313702426013
0
LINE
5
6A
100
AcDbEntity
8
cc_z_bracket
6
ByLayer
62
256
370
-1
100
AcDbLine
10
0.276763217191
20
0.297748065144
11
0.260808788544
21
0.276955848922
0
LINE
5
6B
100
AcDbEntity
8
cc_z_bracket
6
ByLayer
62
256
370
-1
100
AcDbLine
10
0.347752283806
20
0.126365297743
11
0.373736085578
21
0.129786130143
0
LINE
5
6C
100
AcDbEntity
8
cc_z_bracket
6
ByLayer
62
256
370
-1
100
AcDbLine
10
0.373736085578
20
0.720337311245
11
0.397949134199
21
0.73036668437
0
LINE
5
6D
100
AcDbEntity
8
cc_z_bracket
6
ByLayer
62
256
370
-1
100
AcDbLine
10
0.397949134199
20
0.73036668437
11
0.41874135042
21
0.746321113017
0
LINE
5
6E
100
AcDbEntity
8
cc_z_bracket
6
ByLayer
62
256
370
-1
100
AcDbLine
10
0.397949134199
20
0.73036668437
11
0.3979493386
21
0.730366766742
0
LINE
5
6F
100
AcDbEntity
8
cc_z_bracket
6
ByLayer
62
256
370
-1
100
AcDbLine
10
0.3979493386
20
0.730366766742
11
0.418741554821
21
0.746321195388
0
LINE
5
70
100
AcDbEntity
8
cc_z_bracket
6
ByLayer
62
256
370
-1
100
AcDbLine
10
0.41874135042
20
0.746321113017
11
0.418741554821
21
0.746321195388
0
LINE
5
71
100
AcDbEntity
8
cc_z_bracket
6
ByLayer
62
256
370
-1
100
AcDbLine
10
0.434695983467
20
0.76711341161
11
0.444725356593
21
0.791326460231
0
LINE
5
72
100
AcDbEntity
8
cc_z_bracket
6
ByLayer
62
256
370
-1
100
AcDbLine
10
-5.76312713108e-08
20
0.116367863045
11
0.144588045021
21
0.886448262334
0
LINE
5
73
100
AcDbEntity
8
cc_z_bracket
6
ByLayer
62
256
370
-1
100
AcDbLine
10
0.144588045021
20
0.886448262334
11
0.183800424482
21
0.973762860001
0
LINE
5
74
100
AcDbEntity
8
cc_z_bracket
6
ByLayer
62
256
370
-1
100
AcDbLine
10
0.227769056512
20
1.04401095043
11
0.275411384409
21
1.0954581961
0
LINE
5
75
100
AcDbEntity
8
cc_z_bracket
6
ByLayer
62
256
370
-1
100
AcDbLine
10
0.275411384409
20
1.0954581961
11
0.325554181264
21
1.12684465896
0
LINE
5
76
100
AcDbEntity
8
cc_z_bracket
6
ByLayer
62
256
370
-1
100
AcDbLine
10
0.325554181264
20
1.12684465896
11
0.376962945328
21
1.13739316582
0
LINE
5
77
100
AcDbEntity
8
cc_z_bracket
6
ByLayer
62
256
370
-1
100
AcDbLine
10
0.753925622172
20
1.13739102175
11
0.376962945328
21
1.13739316582
0
LINE
5
78
100
AcDbEntity
8
cc_z_bracket
6
ByLayer
62
256
370
-1
100
AcDbLine
10
1.39054548937
20
5.04110617472e-07
11
-8.881784197e-16
21
-2.22044604925e-16
0
LINE
5
79
100
AcDbEntity
8
cc_z_bracket
6
ByLayer
62
256
370
-1
100
AcDbLine
10
-5.76312713108e-08
20
0.116367863045
11
-8.881784197e-16
21
-2.22044604925e-16
0
LINE
5
7A
100
AcDbEntity
8
cc_z_bracket
6
ByLayer
62
256
370
-1
100
AcDbLine
10
0.373736085577
20
0.323731866916
11
0.347752283805
21
0.327152699316
0
LINE
5
7B
100
AcDbEntity
8
cc_z_bracket
6
ByLayer
62
256
370
-1
100
AcDbLine
10
0.347752283805
20
0.327152699316
11
0.321768482033
21
0.323731866916
0
LINE
5
7C
100
AcDbEntity
8
cc_z_bracket
6
ByLayer
62
256
370
-1
100
AcDbLine
10
0.297555433412
20
0.31370249379
11
0.276763217191
21
0.297748065144
0
LINE
5
7D
100
AcDbEntity
8
cc_z_bracket
6
ByLayer
62
256
370
-1
100
AcDbLine
10
0.260808788544
20
0.276955848922
11
0.250779415419
21
0.252742800301
0
LINE
5
7E
100
AcDbEntity
8
cc_z_bracket
6
ByLayer
62
256
370
-1
100
AcDbLine
10
0.250779415419
20
0.252742800301
11
0.247358583019
21
0.226758998529
0
LINE
5
7F
100
AcDbEntity
8
cc_z_bracket
6
ByLayer
62
256
370
-1
100
AcDbLine
10
0.250779415419
20
0.200775196757
11
0.260808788545
21
0.176562148136
0
LINE
5
80
100
AcDbEntity
8
cc_z_bracket
6
ByLayer
62
256
370
-1
100
AcDbLine
10
0.260808788545
20
0.176562148136
11
0.276763217191
21
0.155769931915
0
LINE
5
81
100
AcDbEntity
8
cc_z_bracket
6
ByLayer
62
256
370
-1
100
AcDbLine
10
0.276763217191
20
0.155769931915
11
0.297555433412
21
0.139815503268
0
LINE
5
82
100
AcDbEntity
8
cc_z_bracket
6
ByLayer
62
256
370
-1
100
AcDbLine
10
0.297555433412
20
0.139815503268
11
0.321768482034
21
0.129786130143
0
LINE
5
83
100
AcDbEntity
8
cc_z_bracket
6
ByLayer
62
256
370
-1
100
AcDbLine
10
0.321768482034
20
0.129786130143
11
0.347752283806
21
0.126365297743
0
LINE
5
84
100
AcDbEntity
8
cc_z_bracket
6
ByLayer
62
256
370
-1
100
AcDbLine
10
0.373736085578
20
0.129786130143
11
0.397949134199
21
0.139815503268
0
LINE
5
85
100
AcDbEntity
8
cc_z_bracket
6
ByLayer
62
256
370
-1
100
AcDbLine
10
0.41874135042
20
0.155769931915
11
0.434695779067
21
0.176562148136
0
LINE
5
86
100
AcDbEntity
8
cc_z_bracket
6
ByLayer
62
256
370
-1
100
AcDbLine
10
0.434695779067
20
0.176562148136
11
0.444725152192
21
0.200775196758
0
LINE
5
87
100
AcDbEntity
8
cc_z_bracket
6
ByLayer
62
256
370
-1
100
AcDbLine
10
0.444725152192
20
0.252742800301
11
0.434695779066
21
0.276955848923
0
LINE
5
88
100
AcDbEntity
8
cc_z_bracket
6
ByLayer
62
256
370
-1
100
AcDbLine
10
0.434695779066
20
0.276955848923
11
0.41874135042
21
0.297748065144
0
LINE
5
89
100
AcDbEntity
8
cc_z_bracket
6
ByLayer
62
256
370
-1
100
AcDbLine
10
0.41874135042
20
0.297748065144
11
0.397949134199
21
0.31370249379
0
LINE
5
8A
100
AcDbEntity
8
cc_z_bracket
6
ByLayer
62
256
370
-1
100
AcDbLine
10
0.397949134199
20
0.31370249379
11
0.373736085577
21
0.323731866916
0
LINE
5
8B
100
AcDbEntity
8
cc_z_bracket
6
ByLayer
62
256
370
-1
100
AcDbLine
10
0.321768482034
20
0.720337311245
11
0.347752283805
21
0.716916478844
0
LINE
5
8C
100
AcDbEntity
8
cc_z_bracket
6
ByLayer
62
256
370
-1
100
AcDbLine
10
0.347752283805
20
0.716916478844
11
0.373736085578
21
0.720337311245
0
LINE
5
8D
100
AcDbEntity
8
cc_z_bracket
6
ByLayer
62
256
370
-1
100
AcDbLine
10
0.41874135042
20
0.746321113017
11
0.434695779067
21
0.767113329238
0
LINE
5
8E
100
AcDbEntity
8
cc_z_bracket
6
ByLayer
62
256
370
-1
100
AcDbLine
10
0.434695779067
20
0.767113329238
11
0.444725152192
21
0.79132637786
0
LINE
5
8F
100
AcDbEntity
8
cc_z_bracket
6
ByLayer
62
256
370
-1
100
AcDbLine
10
0.444725152192
20
0.79132637786
11
0.448145984592
21
0.817310179632
0
LINE
5
90
100
AcDbEntity
8
cc_z_bracket
6
ByLayer
62
256
370
-1
100
AcDbLine
10
0.448145984592
20
0.817310179632
11
0.444725152192
21
0.843293981404
0
LINE
5
91
100
AcDbEntity
8
cc_z_bracket
6
ByLayer
62
256
370
-1
100
AcDbLine
10
0.444725152192
20
0.843293981404
11
0.434695779066
21
0.867507030025
0
LINE
5
92
100
AcDbEntity
8
cc_z_bracket
6
ByLayer
62
256
370
-1
100
AcDbLine
10
0.434695779066
20
0.867507030025
11
0.418741350419
21
0.888299246247
0
LINE
5
93
100
AcDbEntity
8
cc_z_bracket
6
ByLayer
62
256
370
-1
100
AcDbLine
10
0.418741350419
20
0.888299246247
11
0.397949134198
21
0.904253674893
0
LINE
5
94
100
AcDbEntity
8
cc_z_bracket
6
ByLayer
62
256
370
-1
100
AcDbLine
10
0.397949134198
20
0.904253674893
11
0.373736085576
21
0.914283048019
0
LINE
5
95
100
AcDbEntity
8
cc_z_bracket
6
ByLayer
62
256
370
-1
100
AcDbLine
10
0.373736085576
20
0.914283048019
11
0.347752283805
21
0.917703880419
0
LINE
5
96
100
AcDbEntity
8
cc_z_bracket
6
ByLayer
62
256
370
-1
100
AcDbLine
10
0.347752283805
20
0.917703880419
11
0.321768482033
21
0.914283048019
0
LINE
5
97
100
AcDbEntity
8
cc_z_bracket
6
ByLayer
62
256
370
-1
100
AcDbLine
10
0.321768482033
20
0.914283048019
11
0.297555433411
21
0.904253674893
0
LINE
5
98
100
AcDbEntity
8
cc_z_bracket
6
ByLayer
62
256
370
-1
100
AcDbLine
10
0.297555433411
20
0.904253674893
11
0.27676321719
21
0.888299246247
0
LINE
5
99
100
AcDbEntity
8
cc_z_bracket
6
ByLayer
62
256
370
-1
100
AcDbLine
10
0.260808788543
20
0.867507030025
11
0.250779415418
21
0.843293981404
0
LINE
5
9A
100
AcDbEntity
8
cc_z_bracket
6
ByLayer
62
256
370
-1
100
AcDbLine
10
0.250779415418
20
0.843293981404
11
0.247358583018
21
0.817310179632
0
LINE
5
9B
100
AcDbEntity
8
cc_z_bracket
6
ByLayer
62
256
370
-1
100
AcDbLine
10
0.247358583018
20
0.817310179632
11
0.250779415419
21
0.79132637786
0
LINE
5
9C
100
AcDbEntity
8
cc_z_bracket
6
ByLayer
62
256
370
-1
100
AcDbLine
10
0.250779415419
20
0.79132637786
11
0.260808788544
21
0.767113329238
0
LINE
5
9D
100
AcDbEntity
8
cc_z_bracket
6
ByLayer
62
256
370
-1
100
AcDbLine
10
0.260808788544
20
0.767113329238
11
0.276763217191
21
0.746321113017
0
LINE
5
9E
100
AcDbEntity
8
cc_z_bracket
6
ByLayer
62
256
370
-1
100
AcDbLine
10
0.276763217191
20
0.746321113017
11
0.297555433412
21
0.73036668437
0
LINE
5
9F
100
AcDbEntity
8
cc_z_bracket
6
ByLayer
62
256
370
-1
100
AcDbLine
10
0.297555433412
20
0.73036668437
11
0.321768482034
21
0.720337311245
0
LINE
5
A0
100
AcDbEntity
8
cc_z_bracket
6
ByLayer
62
256
370
-1
100
AcDbLine
10
0.41874126572
20
0.297747997367
11
0.397949049499
21
0.313702426013
0
LINE
5
A1
100
AcDbEntity
8
cc_z_bracket
6
ByLayer
62
256
370
-1
100
AcDbLine
10
0.247358583018
20
0.817310179632
11
0.247358787419
21
0.817310262003
0
LINE
5
A2
100
AcDbEntity
8
cc_z_bracket
6
ByLayer
62
256
370
-1
100
AcDbLine
10
0.444725356592
20
0.843294063775
11
0.434695983467
21
0.867507112397
0
LINE
5
A3
100
AcDbEntity
8
cc_z_bracket
6
ByLayer
62
256
370
-1
100
AcDbLine
10
0.434695779066
20
0.276955848923
11
0.434695694367
21
0.276955781146
0
LINE
5
A4
100
AcDbEntity
8
cc_z_bracket
6
ByLayer
62
256
370
-1
100
AcDbLine
10
0.373736085576
20
0.914283048019
11
0.373736289977
21
0.91428313039
0
LINE
5
A5
100
AcDbEntity
8
cc_z_bracket
6
ByLayer
62
256
370
-1
100
AcDbLine
10
0.260808788545
20
0.176562148136
11
0.260808703845
21
0.176562080359
0
LINE
5
A6
100
AcDbEntity
8
cc_z_bracket
6
ByLayer
62
256
370
-1
100
AcDbLine
10
0.260808703845
20
0.176562080359
11
0.276763132492
21
0.155769864138
0
LINE
5
A7
100
AcDbEntity
8
cc_z_bracket
6
ByLayer
62
256
370
-1
100
AcDbLine
10
0.276763217191
20
0.155769931915
11
0.276763132492
21
0.155769864138
0
LINE
5
A8
100
AcDbEntity
8
cc_z_bracket
6
ByLayer
62
256
370
-1
100
AcDbLine
10
0.418741265721
20
0.155769864138
11
0.434695694367
21
0.176562080359
0
LINE
5
A9
100
AcDbEntity
8
cc_z_bracket
6
ByLayer
62
256
370
-1
100
AcDbLine
10
0.297555637813
20
0.730366766742
11
0.321768686435
21
0.720337393616
0
LINE
5
AA
100
AcDbEntity
8
cc_z_bracket
6
ByLayer
62
256
370
-1
100
AcDbLine
10
0.297555433411
20
0.904253674893
11
0.297555637812
21
0.904253757265
0
LINE
5
AB
100
AcDbEntity
8
cc_z_bracket
6
ByLayer
62
256
370
-1
100
AcDbLine
10
0.297555433412
20
0.139815503268
11
0.297555348713
21
0.139815435491
0
LINE
5
AC
100
AcDbEntity
8
cc_z_bracket
6
ByLayer
62
256
370
-1
100
AcDbLine
10
0.297555348713
20
0.139815435491
11
0.321768397335
21
0.129786062366
0
LINE
5
AD
100
AcDbEntity
8
cc_z_bracket
6
ByLayer
62
256
370
-1
100
AcDbLine
10
0.321768482034
20
0.129786130143
11
0.321768397335
21
0.129786062366
0
LINE
5
AE
100
AcDbEntity
8
cc_z_bracket
6
ByLayer
62
256
370
-1
100
AcDbLine
10
0.347752283806
20
0.126365297743
11
0.347752199106
21
0.126365229966
0
LINE
5
AF
100
AcDbEntity
8
cc_z_bracket
6
ByLayer
62
256
370
-1
100
AcDbLine
10
0.347752199106
20
0.126365229966
11
0.373736000878
21
0.129786062366
0
LINE
5
B0
100
AcDbEntity
8
cc_z_bracket
6
ByLayer
62
256
370
-1
100
AcDbLine
10
0.373736085578
20
0.129786130143
11
0.373736000878
21
0.129786062366
0
LINE
5
B1
100
AcDbEntity
8
cc_z_bracket
6
ByLayer
62
256
370
-1
100
AcDbLine
10
0.144588045021
20
0.886448262334
11
0.144587294853
21
0.886448936839
0
LINE
5
B2
100
AcDbEntity
8
cc_z_bracket
6
ByLayer
62
256
370
-1
100
AcDbLine
10
-5.76312713108e-08
20
0.116367863045
11
-7.16586291638e-07
21
0.116368131482
0
LINE
5
B3
100
AcDbEntity
8
cc_z_bracket
6
ByLayer
62
256
370
-1
100
AcDbLine
10
-7.16586291638e-07
20
0.116368131482
11
0.144587294853
21
0.886448936839
0
LINE
5
B4
100
AcDbEntity
8
cc_z_bracket
6
ByLayer
62
256
370
-1
100
AcDbLine
10
0.276763132492
20
0.155769864138
11
0.297555348713
21
0.139815435491
0
LINE
5
B5
100
AcDbEntity
8
cc_z_bracket
6
ByLayer
62
256
370
-1
100
AcDbLine
10
0.250779415419
20
0.200775196757
11
0.25077933072
21
0.20077512898
0
LINE
5
B6
100
AcDbEntity
8
cc_z_bracket
6
ByLayer
62
256
370
-1
100
AcDbLine
10
0.41874135042
20
0.155769931915
11
0.418741265721
21
0.155769864138
0
LINE
5
B7
100
AcDbEntity
8
cc_z_bracket
6
ByLayer
62
256
370
-1
100
AcDbLine
10
0.434695779067
20
0.176562148136
11
0.434695694367
21
0.176562080359
0
LINE
5
B8
100
AcDbEntity
8
cc_z_bracket
6
ByLayer
62
256
370
-1
100
AcDbLine
10
0.753925622172
20
1.13739102175
11
0.75392053764
21
3.88739102174
0
LINE
5
B9
100
AcDbEntity
8
cc_z_bracket
6
ByLayer
62
256
370
-1
100
AcDbLine
10
1.39054022267
20
3.88739279926
11
0.75392053764
21
3.88739102174
0
LINE
5
BA
100
AcDbEntity
8
cc_z_bracket
6
ByLayer
62
256
370
-1
100
AcDbLine
10
1.3905453072
20
1.13739279927
11
1.39054022267
21
3.88739279926
0
LINE
5
BB
100
AcDbEntity
8
cc_z_bracket
6
ByLayer
62
256
370
-1
100
AcDbLine
10
1.39054512419
20
9.28950994128e-07
11
1.39054548937
21
5.04110617472e-07
0
LINE
5
BC
100
AcDbEntity
8
cc_z_bracket
6
ByLayer
62
256
370
-1
100
AcDbLine
10
0.276763217191
20
0.746321113017
11
0.276763421592
21
0.746321195388
0
LINE
5
BD
100
AcDbEntity
8
cc_z_bracket
6
ByLayer
62
256
370
-1
100
AcDbLine
10
0.276763421592
20
0.746321195388
11
0.297555637813
21
0.730366766742
0
LINE
5
BE
100
AcDbEntity
8
cc_z_bracket
6
ByLayer
62
256
370
-1
100
AcDbLine
10
0.297555433412
20
0.73036668437
11
0.297555637813
21
0.730366766742
0
LINE
5
BF
100
AcDbEntity
8
cc_z_bracket
6
ByLayer
62
256
370
-1
100
AcDbLine
10
0.373736289977
20
0.91428313039
11
0.347752488206
21
0.917703962791
0
LINE
5
C0
100
AcDbEntity
8
cc_z_bracket
6
ByLayer
62
256
370
-1
100
AcDbLine
10
0.347752283805
20
0.917703880419
11
0.347752488206
21
0.917703962791
0
LINE
5
C1
100
AcDbEntity
8
cc_z_bracket
6
ByLayer
62
256
370
-1
100
AcDbLine
10
0.444725356593
20
0.791326460231
11
0.448146188993
21
0.817310262003
0
LINE
5
C2
100
AcDbEntity
8
cc_z_bracket
6
ByLayer
62
256
370
-1
100
AcDbLine
10
0.444725152192
20
0.843293981404
11
0.444725356592
21
0.843294063775
0
LINE
5
C3
100
AcDbEntity
8
cc_z_bracket
6
ByLayer
62
256
370
-1
100
AcDbLine
10
0.434695779066
20
0.867507030025
11
0.434695983467
21
0.867507112397
0
LINE
5
C4
100
AcDbEntity
8
cc_z_bracket
6
ByLayer
62
256
370
-1
100
AcDbLine
10
1.39054022267
20
3.88739279926
11
1.39053997481
21
3.88739214507
0
LINE
5
C5
100
AcDbEntity
8
cc_z_bracket
6
ByLayer
62
256
370
-1
100
AcDbLine
10
0.418741350419
20
0.888299246247
11
0.41874155482
21
0.888299328618
0
LINE
5
C6
100
AcDbEntity
8
cc_z_bracket
6
ByLayer
62
256
370
-1
100
AcDbLine
10
0.75392053764
20
3.88739102174
11
0.753920289789
21
3.88739156847
0
LINE
5
C7
100
AcDbEntity
8
cc_z_bracket
6
ByLayer
62
256
370
-1
100
AcDbLine
10
1.39053997481
20
3.88739214507
11
0.753920289789
21
3.88739156847
0
LINE
5
C8
100
AcDbEntity
8
cc_z_bracket
6
ByLayer
62
256
370
-1
100
AcDbLine
10
0.260808992945
20
0.76711341161
11
0.276763421592
21
0.746321195388
0
LINE
5
C9
100
AcDbEntity
8
cc_z_bracket
6
ByLayer
62
256
370
-1
100
AcDbLine
10
0.27676321719
20
0.888299246247
11
0.276763421591
21
0.888299328618
0
LINE
5
CA
100
AcDbEntity
8
cc_z_bracket
6
ByLayer
62
256
370
-1
100
AcDbLine
10
0.276763421591
20
0.888299328618
11
0.260808992944
21
0.867507112397
0
LINE
5
CB
100
AcDbEntity
8
cc_z_bracket
6
ByLayer
62
256
370
-1
100
AcDbLine
10
0.260808788543
20
0.867507030025
11
0.260808992944
21
0.867507112397
0
LINE
5
CC
100
AcDbEntity
8
cc_z_bracket
6
ByLayer
62
256
370
-1
100
AcDbLine
10
0.397949049499
20
0.313702426013
11
0.373736000878
21
0.323731799139
0
LINE
5
CD
100
AcDbEntity
8
cc_z_bracket
6
ByLayer
62
256
370
-1
100
AcDbLine
10
0.376962945328
20
1.13739316582
11
0.37696219516
21
1.13739384032
0
LINE
5
CE
100
AcDbEntity
8
cc_z_bracket
6
ByLayer
62
256
370
-1
100
AcDbLine
10
0.347752283805
20
0.327152699316
11
0.347752199106
21
0.327152631539
0
LINE
5
CF
100
AcDbEntity
8
cc_z_bracket
6
ByLayer
62
256
370
-1
100
AcDbLine
10
0.247358583019
20
0.226758998529
11
0.24735849832
21
0.226758930752
0
LINE
5
D0
100
AcDbEntity
8
cc_z_bracket
6
ByLayer
62
256
370
-1
100
AcDbLine
10
0.24735849832
20
0.226758930752
11
0.25077933072
21
0.20077512898
0
LINE
5
D1
100
AcDbEntity
8
cc_z_bracket
6
ByLayer
62
256
370
-1
100
AcDbLine
10
0.250779415419
20
0.252742800301
11
0.25077933072
21
0.252742732524
0
LINE
5
D2
100
AcDbEntity
8
cc_z_bracket
6
ByLayer
62
256
370
-1
100
AcDbLine
10
0.260808992944
20
0.867507112397
11
0.250779619819
21
0.843294063775
0
LINE
5
D3
100
AcDbEntity
8
cc_z_bracket
6
ByLayer
62
256
370
-1
100
AcDbLine
10
0.250779415418
20
0.843293981404
11
0.250779619819
21
0.843294063775
0
LINE
5
D4
100
AcDbEntity
8
cc_z_bracket
6
ByLayer
62
256
370
-1
100
AcDbLine
10
0.247358787419
20
0.817310262003
11
0.250779619819
21
0.791326460231
0
LINE
5
D5
100
AcDbEntity
8
cc_z_bracket
6
ByLayer
62
256
370
-1
100
AcDbLine
10
0.250779415419
20
0.79132637786
11
0.250779619819
21
0.791326460231
0
LINE
5
D6
100
AcDbEntity
8
cc_z_bracket
6
ByLayer
62
256
370
-1
100
AcDbLine
10
0.321768482034
20
0.720337311245
11
0.321768686435
21
0.720337393616
0
LINE
5
D7
100
AcDbEntity
8
cc_z_bracket
6
ByLayer
62
256
370
-1
100
AcDbLine
10
0.753920289789
20
3.88739156847
11
0.753925552987
21
1.13739102175
0
LINE
5
D8
100
AcDbEntity
8
cc_z_bracket
6
ByLayer
62
256
370
-1
100
AcDbLine
10
0.297555637812
20
0.904253757265
11
0.276763421591
21
0.888299328618
0
LINE
5
D9
100
AcDbEntity
8
cc_z_bracket
6
ByLayer
62
256
370
-1
100
AcDbLine
10
0.276763217191
20
0.297748065144
11
0.276763132491
21
0.297747997367
0
LINE
5
DA
100
AcDbEntity
8
cc_z_bracket
6
ByLayer
62
256
370
-1
100
AcDbLine
10
0.373736085578
20
0.720337311245
11
0.373736289978
21
0.720337393616
0
LINE
5
DB
100
AcDbEntity
8
cc_z_bracket
6
ByLayer
62
256
370
-1
100
AcDbLine
10
0.434695694367
20
0.176562080359
11
0.444725067493
21
0.200775128981
0
LINE
5
DC
100
AcDbEntity
8
cc_z_bracket
6
ByLayer
62
256
370
-1
100
AcDbLine
10
0.444725152192
20
0.200775196758
11
0.444725067493
21
0.200775128981
0
LINE
5
DD
100
AcDbEntity
8
cc_z_bracket
6
ByLayer
62
256
370
-1
100
AcDbLine
10
0.250779619819
20
0.843294063775
11
0.247358787419
21
0.817310262003
0
LINE
5
DE
100
AcDbEntity
8
cc_z_bracket
6
ByLayer
62
256
370
-1
100
AcDbLine
10
-8.881784197e-16
20
-3.33066907388e-15
11
1.39054512419
21
9.28950994128e-07
0
LINE
5
DF
100
AcDbEntity
8
cc_z_bracket
6
ByLayer
62
256
370
-1
100
AcDbLine
10
0.321768686435
20
0.720337393616
11
0.347752488206
21
0.716916561216
0
LINE
5
E0
100
AcDbEntity
8
cc_z_bracket
6
ByLayer
62
256
370
-1
100
AcDbLine
10
0.347752283805
20
0.716916478844
11
0.347752488206
21
0.716916561216
0
LINE
5
E1
100
AcDbEntity
8
cc_z_bracket
6
ByLayer
62
256
370
-1
100
AcDbLine
10
0.275411384409
20
1.0954581961
11
0.275410634241
21
1.0954588706
0
LINE
5
E2
100
AcDbEntity
8
cc_z_bracket
6
ByLayer
62
256
370
-1
100
AcDbLine
10
0.275410634241
20
1.0954588706
11
0.325553431096
21
1.12684533346
0
LINE
5
E3
100
AcDbEntity
8
cc_z_bracket
6
ByLayer
62
256
370
-1
100
AcDbLine
10
0.325554181264
20
1.12684465896
11
0.325553431096
21
1.12684533346
0
LINE
5
E4
100
AcDbEntity
8
cc_z_bracket
6
ByLayer
62
256
370
-1
100
AcDbLine
10
0.347752488206
20
0.716916561216
11
0.373736289978
21
0.720337393616
0
LINE
5
E5
100
AcDbEntity
8
cc_z_bracket
6
ByLayer
62
256
370
-1
100
AcDbLine
10
0.321768397335
20
0.129786062366
11
0.347752199106
21
0.126365229966
0
LINE
5
E6
100
AcDbEntity
8
cc_z_bracket
6
ByLayer
62
256
370
-1
100
AcDbLine
10
0.144587294853
20
0.886448936839
11
0.183799674313
21
0.973763534506
0
LINE
5
E7
100
AcDbEntity
8
cc_z_bracket
6
ByLayer
62
256
370
-1
100
AcDbLine
10
-7.16586291638e-07
20
0.116368131482
11
-8.881784197e-16
21
-3.33066907388e-15
0
LINE
5
E8
100
AcDbEntity
8
cc_z_bracket
6
ByLayer
62
256
370
-1
100
AcDbLine
10
-8.881784197e-16
20
-2.22044604925e-16
11
-8.881784197e-16
21
-3.33066907388e-15
0
LINE
5
E9
100
AcDbEntity
8
cc_z_bracket
6
ByLayer
62
256
370
-1
100
AcDbLine
10
0.260808788544
20
0.276955848922
11
0.260808703845
21
0.276955781146
0
LINE
5
EA
100
AcDbEntity
8
cc_z_bracket
6
ByLayer
62
256
370
-1
100
AcDbLine
10
0.321768686433
20
0.91428313039
11
0.297555637812
21
0.904253757265
0
LINE
5
EB
100
AcDbEntity
8
cc_z_bracket
6
ByLayer
62
256
370
-1
100
AcDbLine
10
0.444725152192
20
0.252742800301
11
0.444725067492
21
0.252742732524
0
LINE
5
EC
100
AcDbEntity
8
cc_z_bracket
6
ByLayer
62
256
370
-1
100
AcDbLine
10
0.444725067492
20
0.252742732524
11
0.434695694367
21
0.276955781146
0
LINE
5
ED
100
AcDbEntity
8
cc_z_bracket
6
ByLayer
62
256
370
-1
100
AcDbLine
10
0.227768306344
20
1.04401162493
11
0.275410634241
21
1.0954588706
0
LINE
5
EE
100
AcDbEntity
8
cc_z_bracket
6
ByLayer
62
256
370
-1
100
AcDbLine
10
0.325553431096
20
1.12684533346
11
0.37696219516
21
1.13739384032
0
LINE
5
EF
100
AcDbEntity
8
cc_z_bracket
6
ByLayer
62
256
370
-1
100
AcDbLine
10
0.347752488206
20
0.917703962791
11
0.321768686433
21
0.91428313039
0
LINE
5
F0
100
AcDbEntity
8
cc_z_bracket
6
ByLayer
62
256
370
-1
100
AcDbLine
10
0.434695983467
20
0.867507112397
11
0.41874155482
21
0.888299328618
0
LINE
5
F1
100
AcDbEntity
8
cc_z_bracket
6
ByLayer
62
256
370
-1
100
AcDbLine
10
0.418741554821
20
0.746321195388
11
0.434695983467
21
0.76711341161
0
LINE
5
F2
100
AcDbEntity
8
cc_z_bracket
6
ByLayer
62
256
370
-1
100
AcDbLine
10
0.25077933072
20
0.20077512898
11
0.260808703845
21
0.176562080359
0
LINE
5
F3
100
AcDbEntity
8
cc_z_bracket
6
ByLayer
62
256
370
-1
100
AcDbLine
10
0.260808703845
20
0.276955781146
11
0.25077933072
21
0.252742732524
0
LINE
5
F4
100
AcDbEntity
8
cc_z_bracket
6
ByLayer
62
256
370
-1
100
AcDbLine
10
0.297555348713
20
0.313702426013
11
0.276763132491
21
0.297747997367
0
LINE
5
F5
100
AcDbEntity
8
cc_z_bracket
6
ByLayer
62
256
370
-1
100
AcDbLine
10
0.448145899893
20
0.226758930752
11
0.444725067492
21
0.252742732524
0
LINE
5
F6
100
AcDbEntity
8
cc_z_bracket
6
ByLayer
62
256
370
-1
100
AcDbLine
10
0.444725067493
20
0.200775128981
11
0.448145899893
21
0.226758930752
0
LINE
5
F7
100
AcDbEntity
8
cc_z_bracket
6
ByLayer
62
256
370
-1
100
AcDbLine
10
0.373736000878
20
0.129786062366
11
0.3979490495
21
0.139815435491
0
LINE
5
F8
100
AcDbEntity
8
cc_z_bracket
6
ByLayer
62
256
370
-1
100
AcDbLine
10
0.448145984592
20
0.226758998529
11
0.448145899893
21
0.226758930752
0
LINE
5
F9
100
AcDbEntity
8
cc_z_bracket
6
ByLayer
62
256
370
-1
100
AcDbLine
10
0.321768482033
20
0.914283048019
11
0.321768686433
21
0.91428313039
0
LINE
5
FA
100
AcDbEntity
8
cc_z_bracket
6
ByLayer
62
256
370
-1
100
AcDbLine
10
0.434695779067
20
0.767113329238
11
0.434695983467
21
0.76711341161
0
LINE
5
FB
100
AcDbEntity
8
cc_z_bracket
6
ByLayer
62
256
370
-1
100
AcDbLine
10
0.397949134199
20
0.139815503268
11
0.3979490495
21
0.139815435491
0
LINE
5
FC
100
AcDbEntity
8
cc_z_bracket
6
ByLayer
62
256
370
-1
100
AcDbLine
10
0.753925622172
20
1.13739102175
11
0.753925552987
21
1.13739102175
0
LINE
5
FD
100
AcDbEntity
8
cc_z_bracket
6
ByLayer
62
256
370
-1
100
AcDbLine
10
1.3905453072
20
1.13739279927
11
1.39054498579
21
1.13739270176
0
LINE
5
FE
100
AcDbEntity
8
cc_z_bracket
6
ByLayer
62
256
370
-1
100
AcDbLine
10
0.753925622172
20
1.13739102175
11
1.3905453072
21
1.13739279927
0
LINE
5
FF
100
AcDbEntity
8
cc_z_bracket
6
ByLayer
62
256
370
-1
100
AcDbLine
10
1.39054498579
20
1.13739270176
11
1.39053997481
21
3.88739214507
0
LINE
5
100
100
AcDbEntity
8
cc_z_bracket
6
ByLayer
62
256
370
-1
100
AcDbLine
10
0.753925552987
20
1.13739102175
11
0.37696219516
21
1.13739384032
0
LINE
5
101
100
AcDbEntity
8
cc_z_bracket
6
ByLayer
62
256
370
-1
100
AcDbLine
10
1.39054512419
20
9.28950994128e-07
11
2.39049847846
21
1.59037394032e-06
0
LINE
5
102
100
AcDbEntity
8
cc_z_bracket
6
ByLayer
62
256
370
-1
100
AcDbLine
10
4.16022242926
20
0.646880289498
11
4.16022496203
21
0.382178443603
0
LINE
5
103
100
AcDbEntity
8
cc_z_bracket
6
ByLayer
62
256
370
-1
100
AcDbLine
10
2.76465440339
20
0.508315543542
11
2.75251662335
21
0.517629250928
0
LINE
5
104
100
AcDbEntity
8
cc_z_bracket
6
ByLayer
62
256
370
-1
100
AcDbLine
10
2.76465440339
20
0.508315543542
11
2.76466078218
21
0.508316924771
0
LINE
5
105
100
AcDbEntity
8
cc_z_bracket
6
ByLayer
62
256
370
-1
100
AcDbLine
10
2.76466078218
20
0.508316924771
11
2.75252300214
21
0.517630632157
0
LINE
5
106
100
AcDbEntity
8
cc_z_bracket
6
ByLayer
62
256
370
-1
100
AcDbLine
10
2.75251662335
20
0.517629250928
11
2.75252300214
21
0.517630632157
0
LINE
5
107
100
AcDbEntity
8
cc_z_bracket
6
ByLayer
62
256
370
-1
100
AcDbLine
10
3.97321303134
20
0.415278809318
11
3.98544377519
21
0.42466372759
0
LINE
5
108
100
AcDbEntity
8
cc_z_bracket
6
ByLayer
62
256
370
-1
100
AcDbLine
10
3.97321303134
20
0.415278809318
11
3.97321941013
21
0.415280190547
0
LINE
5
109
100
AcDbEntity
8
cc_z_bracket
6
ByLayer
62
256
370
-1
100
AcDbLine
10
3.97321941013
20
0.415280190547
11
3.98545015398
21
0.42466510882
0
LINE
5
10A
100
AcDbEntity
8
cc_z_bracket
6
ByLayer
62
256
370
-1
100
AcDbLine
10
3.98544377519
20
0.42466372759
11
3.98545015398
21
0.42466510882
0
LINE
5
10B
100
AcDbEntity
8
cc_z_bracket
6
ByLayer
62
256
370
-1
100
AcDbLine
10
2.66460666913
20
0.466874786644
11
2.66461304792
21
0.466876167873
0
LINE
5
10C
100
AcDbEntity
8
cc_z_bracket
6
ByLayer
62
256
370
-1
100
AcDbLine
10
2.66461304792
20
0.466876167873
11
2.66660996889
21
0.451707675623
0
LINE
5
10D
100
AcDbEntity
8
cc_z_bracket
6
ByLayer
62
256
370
-1
100
AcDbLine
10
2.6666035901
20
0.451706294394
11
2.66660996889
21
0.451707675623
0
LINE
5
10E
100
AcDbEntity
8
cc_z_bracket
6
ByLayer
62
256
370
-1
100
AcDbLine
10
2.69391615151
20
0.416121331849
11
2.70805091156
21
0.410266469995
0
LINE
5
10F
100
AcDbEntity
8
cc_z_bracket
6
ByLayer
62
256
370
-1
100
AcDbLine
10
2.70804453277
20
0.410265088765
11
2.70805091156
21
0.410266469995
0
LINE
5
110
100
AcDbEntity
8
cc_z_bracket
6
ByLayer
62
256
370
-1
100
AcDbLine
10
2.73838150446
20
0.410264992552
11
2.75251630162
21
0.416119764749
0
LINE
5
111
100
AcDbEntity
8
cc_z_bracket
6
ByLayer
62
256
370
-1
100
AcDbLine
10
2.73838150446
20
0.410264992552
11
2.73838788325
21
0.410266373781
0
LINE
5
112
100
AcDbEntity
8
cc_z_bracket
6
ByLayer
62
256
370
-1
100
AcDbLine
10
2.73838788325
20
0.410266373781
11
2.75252268041
21
0.416121145979
0
LINE
5
113
100
AcDbEntity
8
cc_z_bracket
6
ByLayer
62
256
370
-1
100
AcDbLine
10
2.75251630162
20
0.416119764749
11
2.75252268041
21
0.416121145979
0
LINE
5
114
100
AcDbEntity
8
cc_z_bracket
6
ByLayer
62
256
370
-1
100
AcDbLine
10
2.75251662335
20
0.517629250928
11
2.7383818633
21
0.523484112782
0
LINE
5
115
100
AcDbEntity
8
cc_z_bracket
6
ByLayer
62
256
370
-1
100
AcDbLine
10
2.75252300214
20
0.517630632157
11
2.73838824209
21
0.523485494011
0
LINE
5
116
100
AcDbEntity
8
cc_z_bracket
6
ByLayer
62
256
370
-1
100
AcDbLine
10
2.7383818633
20
0.523484112782
11
2.73838824209
21
0.523485494011
0
LINE
5
117
100
AcDbEntity
8
cc_z_bracket
6
ByLayer
62
256
370
-1
100
AcDbLine
10
3.90192749991
20
0.508180532831
11
3.9019338787
21
0.50818191406
0
LINE
5
118
100
AcDbEntity
8
cc_z_bracket
6
ByLayer
62
256
370
-1
100
AcDbLine
10
2.77396803376
20
0.496177704391
11
2.76465440339
21
0.508315543542
0
LINE
5
119
100
AcDbEntity
8
cc_z_bracket
6
ByLayer
62
256
370
-1
100
AcDbLine
10
2.77396803376
20
0.496177704391
11
2.77397441255
21
0.49617908562
0
LINE
5
11A
100
AcDbEntity
8
cc_z_bracket
6
ByLayer
62
256
370
-1
100
AcDbLine
10
2.77397441255
20
0.49617908562
11
2.76466078218
21
0.508316924771
0
LINE
5
11B
100
AcDbEntity
8
cc_z_bracket
6
ByLayer
62
256
370
-1
100
AcDbLine
10
2.68177199268
20
0.425433658005
11
2.69390977272
21
0.416119950619
0
LINE
5
11C
100
AcDbEntity
8
cc_z_bracket
6
ByLayer
62
256
370
-1
100
AcDbLine
10
2.68177199268
20
0.425433658005
11
2.68177837147
21
0.425435039235
0
LINE
5
11D
100
AcDbEntity
8
cc_z_bracket
6
ByLayer
62
256
370
-1
100
AcDbLine
10
2.68177837147
20
0.425435039235
11
2.69391615151
21
0.416121331849
0
LINE
5
11E
100
AcDbEntity
8
cc_z_bracket
6
ByLayer
62
256
370
-1
100
AcDbLine
10
2.69390977272
20
0.416119950619
11
2.69391615151
21
0.416121331849
0
LINE
5
11F
100
AcDbEntity
8
cc_z_bracket
6
ByLayer
62
256
370
-1
100
AcDbLine
10
3.91415791957
20
0.415278996611
11
3.92840086912
21
0.409379320796
0
LINE
5
120
100
AcDbEntity
8
cc_z_bracket
6
ByLayer
62
256
370
-1
100
AcDbLine
10
3.91415791957
20
0.415278996611
11
3.91416429836
21
0.41528037784
0
LINE
5
121
100
AcDbEntity
8
cc_z_bracket
6
ByLayer
62
256
370
-1
100
AcDbLine
10
3.91416429836
20
0.41528037784
11
3.92840724791
21
0.409380702025
0
LINE
5
122
100
AcDbEntity
8
cc_z_bracket
6
ByLayer
62
256
370
-1
100
AcDbLine
10
3.92840086912
20
0.409379320796
11
3.92840724791
21
0.409380702025
0
LINE
5
123
100
AcDbEntity
8
cc_z_bracket
6
ByLayer
62
256
370
-1
100
AcDbLine
10
3.90192723521
20
0.424663992462
11
3.91415791957
21
0.415278996611
0
LINE
5
124
100
AcDbEntity
8
cc_z_bracket
6
ByLayer
62
256
370
-1
100
AcDbLine
10
3.90192723521
20
0.424663992462
11
3.901933614
21
0.424665373692
0
LINE
5
125
100
AcDbEntity
8
cc_z_bracket
6
ByLayer
62
256
370
-1
100
AcDbLine
10
3.901933614
20
0.424665373692
11
3.91416429836
21
0.41528037784
0
LINE
5
126
100
AcDbEntity
8
cc_z_bracket
6
ByLayer
62
256
370
-1
100
AcDbLine
10
2.72321976257
20
0.525482511174
11
2.70805127039
21
0.523485590225
0
LINE
5
127
100
AcDbEntity
8
cc_z_bracket
6
ByLayer
62
256
370
-1
100
AcDbLine
10
2.72321338378
20
0.525481129944
11
2.72321976257
21
0.525482511174
0
LINE
5
128
100
AcDbEntity
8
cc_z_bracket
6
ByLayer
62
256
370
-1
100
AcDbLine
10
4.00072854362
20
0.481706537005
11
3.99482895815
21
0.495949524028
0
LINE
5
129
100
AcDbEntity
8
cc_z_bracket
6
ByLayer
62
256
370
-1
100
AcDbLine
10
4.00072844674
20
0.451137361594
11
4.00073482552
21
0.451138742824
0
LINE
5
12A
100
AcDbEntity
8
cc_z_bracket
6
ByLayer
62
256
370
-1
100
AcDbLine
10
3.99482877098
20
0.436894411992
11
3.99483514977
21
0.436895793222
0
LINE
5
12B
100
AcDbEntity
8
cc_z_bracket
6
ByLayer
62
256
370
-1
100
AcDbLine
10
2.77982270981
20
0.45170593532
11
2.7798290886
21
0.45170731655
0
LINE
5
12C
100
AcDbEntity
8
cc_z_bracket
6
ByLayer
62
256
370
-1
100
AcDbLine
10
2.7798290886
20
0.45170731655
11
2.78182610572
21
0.466875796133
0
LINE
5
12D
100
AcDbEntity
8
cc_z_bracket
6
ByLayer
62
256
370
-1
100
AcDbLine
10
2.78181972694
20
0.466874414904
11
2.78182610572
21
0.466875796133
0
LINE
5
12E
100
AcDbEntity
8
cc_z_bracket
6
ByLayer
62
256
370
-1
100
AcDbLine
10
2.69390977272
20
0.416119950619
11
2.70804453277
21
0.410265088765
0
LINE
5
12F
100
AcDbEntity
8
cc_z_bracket
6
ByLayer
62
256
370
-1
100
AcDbLine
10
3.98544403989
20
0.508180267959
11
3.98545041868
21
0.508181649188
0
LINE
5
130
100
AcDbEntity
8
cc_z_bracket
6
ByLayer
62
256
370
-1
100
AcDbLine
10
3.99482895815
20
0.495949524028
11
3.98544403989
21
0.508180267959
0
LINE
5
131
100
AcDbEntity
8
cc_z_bracket
6
ByLayer
62
256
370
-1
100
AcDbLine
10
3.99482895815
20
0.495949524028
11
3.99483533694
21
0.495950905258
0
LINE
5
132
100
AcDbEntity
8
cc_z_bracket
6
ByLayer
62
256
370
-1
100
AcDbLine
10
3.99483533694
20
0.495950905258
11
3.98545041868
21
0.508181649188
0
LINE
5
133
100
AcDbEntity
8
cc_z_bracket
6
ByLayer
62
256
370
-1
100
AcDbLine
10
3.99482877098
20
0.436894411992
11
4.00072844674
21
0.451137361594
0
LINE
5
134
100
AcDbEntity
8
cc_z_bracket
6
ByLayer
62
256
370
-1
100
AcDbLine
10
3.99483514977
20
0.436895793222
11
4.00073482552
21
0.451138742824
0
LINE
5
135
100
AcDbEntity
8
cc_z_bracket
6
ByLayer
62
256
370
-1
100
AcDbLine
10
3.90192749991
20
0.508180532831
11
3.89254250412
21
0.495949848429
0
LINE
5
136
100
AcDbEntity
8
cc_z_bracket
6
ByLayer
62
256
370
-1
100
AcDbLine
10
3.9019338787
20
0.50818191406
11
3.89254888291
21
0.495951229658
0
LINE
5
137
100
AcDbEntity
8
cc_z_bracket
6
ByLayer
62
256
370
-1
100
AcDbLine
10
3.89254250412
20
0.495949848429
11
3.89254888291
21
0.495951229658
0
LINE
5
138
100
AcDbEntity
8
cc_z_bracket
6
ByLayer
62
256
370
-1
100
AcDbLine
10
2.77397422681
20
0.43757255645
11
2.7798290886
21
0.45170731655
0
LINE
5
139
100
AcDbEntity
8
cc_z_bracket
6
ByLayer
62
256
370
-1
100
AcDbLine
10
2.7646541407
20
0.425433395145
11
2.77396784802
21
0.43757117522
0
LINE
5
13A
100
AcDbEntity
8
cc_z_bracket
6
ByLayer
62
256
370
-1
100
AcDbLine
10
2.7646541407
20
0.425433395145
11
2.76466051949
21
0.425434776375
0
LINE
5
13B
100
AcDbEntity
8
cc_z_bracket
6
ByLayer
62
256
370
-1
100
AcDbLine
10
2.76466051949
20
0.425434776375
11
2.77397422681
21
0.43757255645
0
LINE
5
13C
100
AcDbEntity
8
cc_z_bracket
6
ByLayer
62
256
370
-1
100
AcDbLine
10
2.77396784802
20
0.43757117522
11
2.77397422681
21
0.43757255645
0
LINE
5
13D
100
AcDbEntity
8
cc_z_bracket
6
ByLayer
62
256
370
-1
100
AcDbLine
10
2.78182610572
20
0.466875796133
11
2.77982918475
21
0.482044288383
0
LINE
5
13E
100
AcDbEntity
8
cc_z_bracket
6
ByLayer
62
256
370
-1
100
AcDbLine
10
2.77982270981
20
0.45170593532
11
2.78181972694
21
0.466874414904
0
LINE
5
13F
100
AcDbEntity
8
cc_z_bracket
6
ByLayer
62
256
370
-1
100
AcDbLine
10
2.69391009445
20
0.517629436798
11
2.68177225537
21
0.508315806402
0
LINE
5
140
100
AcDbEntity
8
cc_z_bracket
6
ByLayer
62
256
370
-1
100
AcDbLine
10
2.67245854805
20
0.496178026327
11
2.66660368625
21
0.482043266227
0
LINE
5
141
100
AcDbEntity
8
cc_z_bracket
6
ByLayer
62
256
370
-1
100
AcDbLine
10
2.66660368625
20
0.482043266227
11
2.66460666913
21
0.466874786644
0
LINE
5
142
100
AcDbEntity
8
cc_z_bracket
6
ByLayer
62
256
370
-1
100
AcDbLine
10
2.66460666913
20
0.466874786644
11
2.6666035901
21
0.451706294394
0
LINE
5
143
100
AcDbEntity
8
cc_z_bracket
6
ByLayer
62
256
370
-1
100
AcDbLine
10
2.6666035901
20
0.451706294394
11
2.6724583623
21
0.437571497156
0
LINE
5
144
100
AcDbEntity
8
cc_z_bracket
6
ByLayer
62
256
370
-1
100
AcDbLine
10
2.66660996889
20
0.451707675623
11
2.67246474109
21
0.437572878386
0
LINE
5
145
100
AcDbEntity
8
cc_z_bracket
6
ByLayer
62
256
370
-1
100
AcDbLine
10
2.6724583623
20
0.437571497156
11
2.67246474109
21
0.437572878386
0
LINE
5
146
100
AcDbEntity
8
cc_z_bracket
6
ByLayer
62
256
370
-1
100
AcDbLine
10
2.66660368625
20
0.482043266227
11
2.66661006504
21
0.482044647457
0
LINE
5
147
100
AcDbEntity
8
cc_z_bracket
6
ByLayer
62
256
370
-1
100
AcDbLine
10
2.66661006504
20
0.482044647457
11
2.66461304792
21
0.466876167873
0
LINE
5
148
100
AcDbEntity
8
cc_z_bracket
6
ByLayer
62
256
370
-1
100
AcDbLine
10
2.67245854805
20
0.496178026327
11
2.67246492684
21
0.496179407557
0
LINE
5
149
100
AcDbEntity
8
cc_z_bracket
6
ByLayer
62
256
370
-1
100
AcDbLine
10
2.67246492684
20
0.496179407557
11
2.66661006504
21
0.482044647457
0
LINE
5
14A
100
AcDbEntity
8
cc_z_bracket
6
ByLayer
62
256
370
-1
100
AcDbLine
10
2.70805091156
20
0.410266469995
11
2.72321939108
21
0.408269452832
0
LINE
5
14B
100
AcDbEntity
8
cc_z_bracket
6
ByLayer
62
256
370
-1
100
AcDbLine
10
3.98545041868
20
0.508181649188
11
3.97321973432
21
0.51756664504
0
LINE
5
14C
100
AcDbEntity
8
cc_z_bracket
6
ByLayer
62
256
370
-1
100
AcDbLine
10
4.16021858324
20
0.382177062373
11
4.02792115498
21
0.249954126619
0
LINE
5
14D
100
AcDbEntity
8
cc_z_bracket
6
ByLayer
62
256
370
-1
100
AcDbLine
10
4.16021858324
20
0.382177062373
11
4.16022496203
21
0.382178443603
0
LINE
5
14E
100
AcDbEntity
8
cc_z_bracket
6
ByLayer
62
256
370
-1
100
AcDbLine
10
4.16022496203
20
0.382178443603
11
4.02792753377
21
0.249955507848
0
LINE
5
14F
100
AcDbEntity
8
cc_z_bracket
6
ByLayer
62
256
370
-1
100
AcDbLine
10
4.02792115498
20
0.249954126619
11
4.02792753377
21
0.249955507848
0
LINE
5
150
100
AcDbEntity
8
cc_z_bracket
6
ByLayer
62
256
370
-1
100
AcDbLine
10
4.16021605047
20
0.646878908268
11
4.16021858324
21
0.382177062373
0
LINE
5
151
100
AcDbEntity
8
cc_z_bracket
6
ByLayer
62
256
370
-1
100
AcDbLine
10
4.16021605047
20
0.646878908268
11
4.16022242926
21
0.646880289498
0
LINE
5
152
100
AcDbEntity
8
cc_z_bracket
6
ByLayer
62
256
370
-1
100
AcDbLine
10
2.70804453277
20
0.410265088765
11
2.72321301229
21
0.408268071603
0
LINE
5
153
100
AcDbEntity
8
cc_z_bracket
6
ByLayer
62
256
370
-1
100
AcDbLine
10
2.72321301229
20
0.408268071603
11
2.72321939108
21
0.408269452832
0
LINE
5
154
100
AcDbEntity
8
cc_z_bracket
6
ByLayer
62
256
370
-1
100
AcDbLine
10
3.67527725522
20
-3.85123962565e-06
11
3.67529789554
21
-4.231799277e-06
0
LINE
5
155
100
AcDbEntity
8
cc_z_bracket
6
ByLayer
62
256
370
-1
100
AcDbLine
10
4.02792115498
20
0.249954126619
11
3.67527725522
21
-3.85123962565e-06
0
LINE
5
156
100
AcDbEntity
8
cc_z_bracket
6
ByLayer
62
256
370
-1
100
AcDbLine
10
3.94368545038
20
0.407367018175
11
3.95897004439
21
0.409379223846
0
LINE
5
157
100
AcDbEntity
8
cc_z_bracket
6
ByLayer
62
256
370
-1
100
AcDbLine
10
3.94368545038
20
0.407367018175
11
3.94369182917
21
0.407368399404
0
LINE
5
158
100
AcDbEntity
8
cc_z_bracket
6
ByLayer
62
256
370
-1
100
AcDbLine
10
4.00274074932
20
0.466421942918
11
4.00072854362
21
0.481706537005
0
LINE
5
159
100
AcDbEntity
8
cc_z_bracket
6
ByLayer
62
256
370
-1
100
AcDbLine
10
3.95897004439
20
0.409379223846
11
3.97321303134
21
0.415278809318
0
LINE
5
15A
100
AcDbEntity
8
cc_z_bracket
6
ByLayer
62
256
370
-1
100
AcDbLine
10
3.95897004439
20
0.409379223846
11
3.95897642318
21
0.409380605075
0
LINE
5
15B
100
AcDbEntity
8
cc_z_bracket
6
ByLayer
62
256
370
-1
100
AcDbLine
10
3.95897642318
20
0.409380605075
11
3.97321941013
21
0.415280190547
0
LINE
5
15C
100
AcDbEntity
8
cc_z_bracket
6
ByLayer
62
256
370
-1
100
AcDbLine
10
2.77396784802
20
0.43757117522
11
2.77982270981
21
0.45170593532
0
LINE
5
15D
100
AcDbEntity
8
cc_z_bracket
6
ByLayer
62
256
370
-1
100
AcDbLine
10
3.88463052579
20
0.466422317503
11
3.88463690458
21
0.466423698733
0
LINE
5
15E
100
AcDbEntity
8
cc_z_bracket
6
ByLayer
62
256
370
-1
100
AcDbLine
10
2.72321939108
20
0.408269452832
11
2.73838788325
21
0.410266373781
0
LINE
5
15F
100
AcDbEntity
8
cc_z_bracket
6
ByLayer
62
256
370
-1
100
AcDbLine
10
3.33344963511
20
0.64688152834
11
2.57549416166
21
0.64688393035
0
LINE
5
160
100
AcDbEntity
8
cc_z_bracket
6
ByLayer
62
256
370
-1
100
AcDbLine
10
2.57549416166
20
0.64688393035
11
2.42769555397
21
0.64688482879
0
LINE
5
161
100
AcDbEntity
8
cc_z_bracket
6
ByLayer
62
256
370
-1
100
AcDbLine
10
2.42769555397
20
0.64688482879
11
2.39049769627
21
0.646884738735
0
LINE
5
162
100
AcDbEntity
8
cc_z_bracket
6
ByLayer
62
256
370
-1
100
AcDbLine
10
2.39050054045
20
0.646885902424
11
2.39049769627
21
0.646884738735
0
LINE
5
163
100
AcDbEntity
8
cc_z_bracket
6
ByLayer
62
256
370
-1
100
AcDbLine
10
3.3334560139
20
0.646882909569
11
2.39050054045
21
0.646885902424
0
LINE
5
164
100
AcDbEntity
8
cc_z_bracket
6
ByLayer
62
256
370
-1
100
AcDbLine
10
3.33344963511
20
0.64688152834
11
3.3334560139
21
0.646882909569
0
LINE
5
165
100
AcDbEntity
8
cc_z_bracket
6
ByLayer
62
256
370
-1
100
AcDbLine
10
2.7383818633
20
0.523484112782
11
2.72321338378
21
0.525481129944
0
LINE
5
166
100
AcDbEntity
8
cc_z_bracket
6
ByLayer
62
256
370
-1
100
AcDbLine
10
2.73838824209
20
0.523485494011
11
2.72321976257
21
0.525482511174
0
LINE
5
167
100
AcDbEntity
8
cc_z_bracket
6
ByLayer
62
256
370
-1
100
AcDbLine
10
4.00072844674
20
0.451137361594
11
4.00274074932
21
0.466421942918
0
LINE
5
168
100
AcDbEntity
8
cc_z_bracket
6
ByLayer
62
256
370
-1
100
AcDbLine
10
4.00073482552
20
0.451138742824
11
4.0027471281
21
0.466423324147
0
LINE
5
169
100
AcDbEntity
8
cc_z_bracket
6
ByLayer
62
256
370
-1
100
AcDbLine
10
4.00274074932
20
0.466421942918
11
4.0027471281
21
0.466423324147
0
LINE
5
16A
100
AcDbEntity
8
cc_z_bracket
6
ByLayer
62
256
370
-1
100
AcDbLine
10
3.97321335553
20
0.51756526381
11
3.95897040598
21
0.523464939625
0
LINE
5
16B
100
AcDbEntity
8
cc_z_bracket
6
ByLayer
62
256
370
-1
100
AcDbLine
10
3.89254231695
20
0.436894736393
11
3.90192723521
21
0.424663992462
0
LINE
5
16C
100
AcDbEntity
8
cc_z_bracket
6
ByLayer
62
256
370
-1
100
AcDbLine
10
3.89254231695
20
0.436894736393
11
3.89254869574
21
0.436896117622
0
LINE
5
16D
100
AcDbEntity
8
cc_z_bracket
6
ByLayer
62
256
370
-1
100
AcDbLine
10
3.89254869574
20
0.436896117622
11
3.901933614
21
0.424665373692
0
LINE
5
16E
100
AcDbEntity
8
cc_z_bracket
6
ByLayer
62
256
370
-1
100
AcDbLine
10
2.39050054045
20
0.646885902424
11
1.39054545287
21
0.646885331339
0
LINE
5
16F
100
AcDbEntity
8
cc_z_bracket
6
ByLayer
62
256
370
-1
100
AcDbLine
10
1.39054545287
20
0.64688516289
11
2.39049769627
21
0.646884738735
0
LINE
5
170
100
AcDbEntity
8
cc_z_bracket
6
ByLayer
62
256
370
-1
100
AcDbLine
10
3.97321335553
20
0.51756526381
11
3.97321973432
21
0.51756664504
0
LINE
5
171
100
AcDbEntity
8
cc_z_bracket
6
ByLayer
62
256
370
-1
100
AcDbLine
10
3.97321973432
20
0.51756664504
11
3.95897678477
21
0.523466320855
0
LINE
5
172
100
AcDbEntity
8
cc_z_bracket
6
ByLayer
62
256
370
-1
100
AcDbLine
10
3.95897040598
20
0.523464939625
11
3.95897678477
21
0.523466320855
0
LINE
5
173
100
AcDbEntity
8
cc_z_bracket
6
ByLayer
62
256
370
-1
100
AcDbLine
10
3.98544403989
20
0.508180267959
11
3.97321335553
21
0.51756526381
0
LINE
5
174
100
AcDbEntity
8
cc_z_bracket
6
ByLayer
62
256
370
-1
100
AcDbLine
10
2.75251630162
20
0.416119764749
11
2.7646541407
21
0.425433395145
0
LINE
5
175
100
AcDbEntity
8
cc_z_bracket
6
ByLayer
62
256
370
-1
100
AcDbLine
10
2.75252268041
20
0.416121145979
11
2.76466051949
21
0.425434776375
0
LINE
5
176
100
AcDbEntity
8
cc_z_bracket
6
ByLayer
62
256
370
-1
100
AcDbLine
10
4.02792753377
20
0.249955507848
11
3.67529789554
21
-4.231799277e-06
0
LINE
5
177
100
AcDbEntity
8
cc_z_bracket
6
ByLayer
62
256
370
-1
100
AcDbLine
10
3.95897040598
20
0.523464939625
11
3.94368582472
21
0.525477242246
0
LINE
5
178
100
AcDbEntity
8
cc_z_bracket
6
ByLayer
62
256
370
-1
100
AcDbLine
10
3.95897678477
20
0.523466320855
11
3.94369220351
21
0.525478623476
0
LINE
5
179
100
AcDbEntity
8
cc_z_bracket
6
ByLayer
62
256
370
-1
100
AcDbLine
10
3.94368582472
20
0.525477242246
11
3.94369220351
21
0.525478623476
0
LINE
5
17A
100
AcDbEntity
8
cc_z_bracket
6
ByLayer
62
256
370
-1
100
AcDbLine
10
3.3334560139
20
0.646882909569
11
4.16022242926
21
0.646880289498
0
LINE
5
17B
100
AcDbEntity
8
cc_z_bracket
6
ByLayer
62
256
370
-1
100
AcDbLine
10
2.39049847846
20
1.59037394032e-06
11
2.39050054045
21
0.646885902424
0
LINE
5
17C
100
AcDbEntity
8
cc_z_bracket
6
ByLayer
62
256
370
-1
100
AcDbLine
10
2.67246474109
20
0.437572878386
11
2.68177837147
21
0.425435039235
0
LINE
5
17D
100
AcDbEntity
8
cc_z_bracket
6
ByLayer
62
256
370
-1
100
AcDbLine
10
2.68177863416
20
0.508317187631
11
2.67246492684
21
0.496179407557
0
LINE
5
17E
100
AcDbEntity
8
cc_z_bracket
6
ByLayer
62
256
370
-1
100
AcDbLine
10
2.69391647323
20
0.517630818028
11
2.68177863416
21
0.508317187631
0
LINE
5
17F
100
AcDbEntity
8
cc_z_bracket
6
ByLayer
62
256
370
-1
100
AcDbLine
10
2.70805127039
20
0.523485590225
11
2.69391647323
21
0.517630818028
0
LINE
5
180
100
AcDbEntity
8
cc_z_bracket
6
ByLayer
62
256
370
-1
100
AcDbLine
10
2.77982918475
20
0.482044288383
11
2.77397441255
21
0.49617908562
0
LINE
5
181
100
AcDbEntity
8
cc_z_bracket
6
ByLayer
62
256
370
-1
100
AcDbLine
10
3.88664911027
20
0.451139104645
11
3.89254869574
21
0.436896117622
0
LINE
5
182
100
AcDbEntity
8
cc_z_bracket
6
ByLayer
62
256
370
-1
100
AcDbLine
10
3.88463690458
20
0.466423698733
11
3.88664911027
21
0.451139104645
0
LINE
5
183
100
AcDbEntity
8
cc_z_bracket
6
ByLayer
62
256
370
-1
100
AcDbLine
10
3.88664920716
20
0.481708280056
11
3.88463690458
21
0.466423698733
0
LINE
5
184
100
AcDbEntity
8
cc_z_bracket
6
ByLayer
62
256
370
-1
100
AcDbLine
10
3.89254888291
20
0.495951229658
11
3.88664920716
21
0.481708280056
0
LINE
5
185
100
AcDbEntity
8
cc_z_bracket
6
ByLayer
62
256
370
-1
100
AcDbLine
10
3.91416462255
20
0.517566832333
11
3.9019338787
21
0.50818191406
0
LINE
5
186
100
AcDbEntity
8
cc_z_bracket
6
ByLayer
62
256
370
-1
100
AcDbLine
10
3.9284076095
20
0.523466417804
11
3.91416462255
21
0.517566832333
0
LINE
5
187
100
AcDbEntity
8
cc_z_bracket
6
ByLayer
62
256
370
-1
100
AcDbLine
10
3.94369220351
20
0.525478623476
11
3.9284076095
21
0.523466417804
0
LINE
5
188
100
AcDbEntity
8
cc_z_bracket
6
ByLayer
62
256
370
-1
100
AcDbLine
10
4.00073492241
20
0.481707918235
11
3.99483533694
21
0.495950905258
0
LINE
5
189
100
AcDbEntity
8
cc_z_bracket
6
ByLayer
62
256
370
-1
100
AcDbLine
10
4.0027471281
20
0.466423324147
11
4.00073492241
21
0.481707918235
0
LINE
5
18A
100
AcDbEntity
8
cc_z_bracket
6
ByLayer
62
256
370
-1
100
AcDbLine
10
3.98545015398
20
0.42466510882
11
3.99483514977
21
0.436895793222
0
LINE
5
18B
100
AcDbEntity
8
cc_z_bracket
6
ByLayer
62
256
370
-1
100
AcDbLine
10
3.94369182917
20
0.407368399404
11
3.95897642318
21
0.409380605075
0
LINE
5
18C
100
AcDbEntity
8
cc_z_bracket
6
ByLayer
62
256
370
-1
100
AcDbLine
10
3.92840724791
20
0.409380702025
11
3.94369182917
21
0.407368399404
0
LINE
5
18D
100
AcDbEntity
8
cc_z_bracket
6
ByLayer
62
256
370
-1
100
AcDbLine
10
2.39049847846
20
1.21538529663e-06
11
3.67527725522
21
-3.85123962565e-06
0
LINE
5
18E
100
AcDbEntity
8
cc_z_bracket
6
ByLayer
62
256
370
-1
100
AcDbLine
10
2.39049847846
20
1.21538529663e-06
11
2.39049882609
21
0.0097089489035
0
LINE
5
18F
100
AcDbEntity
8
cc_z_bracket
6
ByLayer
62
256
370
-1
100
AcDbLine
10
2.39049882609
20
0.0097089489035
11
2.39049769627
21
0.646884738735
0
LINE
5
190
100
AcDbEntity
8
cc_z_bracket
6
ByLayer
62
256
370
-1
100
AcDbLine
10
3.33344963511
20
0.64688152834
11
4.16021605047
21
0.646878908268
0
LINE
5
191
100
AcDbEntity
8
cc_z_bracket
6
ByLayer
62
256
370
-1
100
AcDbLine
10
3.88664273148
20
0.451137723416
11
3.89254231695
21
0.436894736393
0
LINE
5
192
100
AcDbEntity
8
cc_z_bracket
6
ByLayer
62
256
370
-1
100
AcDbLine
10
3.92840086912
20
0.409379320796
11
3.94368545038
21
0.407367018175
0
LINE
5
193
100
AcDbEntity
8
cc_z_bracket
6
ByLayer
62
256
370
-1
100
AcDbLine
10
3.98544377519
20
0.42466372759
11
3.99482877098
21
0.436894411992
0
LINE
5
194
100
AcDbEntity
8
cc_z_bracket
6
ByLayer
62
256
370
-1
100
AcDbLine
10
3.94368582472
20
0.525477242246
11
3.92840123071
21
0.523465036575
0
LINE
5
195
100
AcDbEntity
8
cc_z_bracket
6
ByLayer
62
256
370
-1
100
AcDbLine
10
3.92840123071
20
0.523465036575
11
3.91415824376
21
0.517565451103
0
LINE
5
196
100
AcDbEntity
8
cc_z_bracket
6
ByLayer
62
256
370
-1
100
AcDbLine
10
3.91415824376
20
0.517565451103
11
3.90192749991
21
0.508180532831
0
LINE
5
197
100
AcDbEntity
8
cc_z_bracket
6
ByLayer
62
256
370
-1
100
AcDbLine
10
3.89254250412
20
0.495949848429
11
3.88664282837
21
0.481706898827
0
LINE
5
198
100
AcDbEntity
8
cc_z_bracket
6
ByLayer
62
256
370
-1
100
AcDbLine
10
3.88664282837
20
0.481706898827
11
3.88463052579
21
0.466422317503
0
LINE
5
199
100
AcDbEntity
8
cc_z_bracket
6
ByLayer
62
256
370
-1
100
AcDbLine
10
3.88463052579
20
0.466422317503
11
3.88664273148
21
0.451137723416
0
LINE
5
19A
100
AcDbEntity
8
cc_z_bracket
6
ByLayer
62
256
370
-1
100
AcDbLine
10
2.78181972694
20
0.466874414904
11
2.77982280596
21
0.482042907154
0
LINE
5
19B
100
AcDbEntity
8
cc_z_bracket
6
ByLayer
62
256
370
-1
100
AcDbLine
10
2.77982280596
20
0.482042907154
11
2.77396803376
21
0.496177704391
0
LINE
5
19C
100
AcDbEntity
8
cc_z_bracket
6
ByLayer
62
256
370
-1
100
AcDbLine
10
2.72321338378
20
0.525481129944
11
2.70804489161
21
0.523484208995
0
LINE
5
19D
100
AcDbEntity
8
cc_z_bracket
6
ByLayer
62
256
370
-1
100
AcDbLine
10
2.70804489161
20
0.523484208995
11
2.69391009445
21
0.517629436798
0
LINE
5
19E
100
AcDbEntity
8
cc_z_bracket
6
ByLayer
62
256
370
-1
100
AcDbLine
10
2.68177225537
20
0.508315806402
11
2.67245854805
21
0.496178026327
0
LINE
5
19F
100
AcDbEntity
8
cc_z_bracket
6
ByLayer
62
256
370
-1
100
AcDbLine
10
2.6724583623
20
0.437571497156
11
2.68177199268
21
0.425433658005
0
LINE
5
1A0
100
AcDbEntity
8
cc_z_bracket
6
ByLayer
62
256
370
-1
100
AcDbLine
10
2.72321301229
20
0.408268071603
11
2.73838150446
21
0.410264992552
0
LINE
5
1A1
100
AcDbEntity
8
cc_z_bracket
6
ByLayer
62
256
370
-1
100
AcDbLine
10
2.68177225537
20
0.508315806402
11
2.68177863416
21
0.508317187631
0
LINE
5
1A2
100
AcDbEntity
8
cc_z_bracket
6
ByLayer
62
256
370
-1
100
AcDbLine
10
3.88664273148
20
0.451137723416
11
3.88664911027
21
0.451139104645
0
LINE
5
1A3
100
AcDbEntity
8
cc_z_bracket
6
ByLayer
62
256
370
-1
100
AcDbLine
10
3.88664282837
20
0.481706898827
11
3.88664920716
21
0.481708280056
0
LINE
5
1A4
100
AcDbEntity
8
cc_z_bracket
6
ByLayer
62
256
370
-1
100
AcDbLine
10
2.39049847846
20
1.59037394032e-06
11
2.39049847846
21
1.21538529663e-06
0
LINE
5
1A5
100
AcDbEntity
8
cc_z_bracket
6
ByLayer
62
256
370
-1
100
AcDbLine
10
2.69391009445
20
0.517629436798
11
2.69391647323
21
0.517630818028
0
LINE
5
1A6
100
AcDbEntity
8
cc_z_bracket
6
ByLayer
62
256
370
-1
100
AcDbLine
10
4.00072854362
20
0.481706537005
11
4.00073492241
21
0.481707918235
0
LINE
5
1A7
100
AcDbEntity
8
cc_z_bracket
6
ByLayer
62
256
370
-1
100
AcDbLine
10
2.77982280596
20
0.482042907154
11
2.77982918475
21
0.482044288383
0
LINE
5
1A8
100
AcDbEntity
8
cc_z_bracket
6
ByLayer
62
256
370
-1
100
AcDbLine
10
2.70804489161
20
0.523484208995
11
2.70805127039
21
0.523485590225
0
LINE
5
1A9
100
AcDbEntity
8
cc_z_bracket
6
ByLayer
62
256
370
-1
100
AcDbLine
10
3.92840123071
20
0.523465036575
11
3.9284076095
21
0.523466417804
0
LINE
5
1AA
100
AcDbEntity
8
cc_z_bracket
6
ByLayer
62
256
370
-1
100
AcDbLine
10
3.91415824376
20
0.517565451103
11
3.91416462255
21
0.517566832333
0
LINE
5
1AB
100
AcDbEntity
8
cc_z_bracket
6
ByLayer
62
256
370
-1
100
AcDbLine
10
2.39049847846
20
1.21538529663e-06
11
1.39054548937
21
5.04110617472e-07
0
LINE
5
1AC
100
AcDbEntity
8
cc_z_bracket
6
ByLayer
62
256
370
-1
100
AcDbLine
10
2.39049847846
20
1.59037394032e-06
11
2.41287025737
21
1.31075927956e-06
0
LINE
5
1AD
100
AcDbEntity
8
cc_z_bracket
6
ByLayer
62
256
370
-1
100
AcDbLine
10
2.41287025737
20
1.31075927956e-06
11
3.67529789554
21
-4.231799277e-06
0
LINE
5
1AE
100
AcDbEntity
8
cc_z_bracket
6
ByLayer
62
256
370
-1
100
AcDbLine
10
1.39054512419
20
9.28950994128e-07
11
1.39054545287
21
0.646885331339
0
LINE
5
1AF
100
AcDbEntity
8
cc_z_bracket
6
ByLayer
62
256
370
-1
100
AcDbLine
10
1.39054548937
20
5.04110617472e-07
11
1.39054545287
21
0.64688516289
0
LINE
5
1B0
100
AcDbEntity
8
cc_z_bracket
6
ByLayer
62
256
370
-1
100
AcDbLine
10
1.39054545287
20
0.646885331339
11
1.39054545287
21
0.64688516289
0
LINE
5
1B1
100
AcDbEntity
8
cc_z_bracket
6
ByLayer
62
256
370
-1
100
AcDbLine
10
1.39054545287
20
0.646885331339
11
1.39054498579
21
1.13739270176
0
LINE
5
1B2
100
AcDbEntity
8
cc_z_bracket
6
ByLayer
62
256
370
-1
100
AcDbLine
10
1.39054545287
20
0.64688516289
11
1.3905453072
21
1.13739279927
0
LINE
5
1B3
100
AcDbEntity
8
0
6
ByLayer
62
256
370
-1
100
AcDbLine
10
0.753920289789
20
3.88739156847
11
1.39054022267
21
3.88739279926
0
LINE
5
1B4
100
AcDbEntity
8
0
6
ByLayer
62
256
370
-1
100
AcDbLine
10
1.39054022267
20
3.88739279926
11
1.3905453072
21
1.13739279927
0
LINE
5
1B5
100
AcDbEntity
8
0
6
ByLayer
62
256
370
-1
100
AcDbLine
10
1.3905453072
20
1.13739279927
11
1.39054545287
21
0.646885331339
0
LINE
5
1B6
100
AcDbEntity
8
0
6
ByLayer
62
256
370
-1
100
AcDbLine
10
1.39054545287
20
0.646885331339
11
4.16022242926
21
0.646880289498
0
LINE
5
1B7
100
AcDbEntity
8
0
6
ByLayer
62
256
370
-1
100
AcDbLine
10
4.16022242926
20
0.646880289498
11
4.16022496203
21
0.382178443603
0
LINE
5
1B8
100
AcDbEntity
8
0
6
ByLayer
62
256
370
-1
100
AcDbLine
10
4.16022496203
20
0.382178443603
11
4.02792753377
21
0.249955507848
0
LINE
5
1B9
100
AcDbEntity
8
0
6
ByLayer
62
256
370
-1
100
AcDbLine
10
4.02792753377
20
0.249955507848
11
3.67529789554
21
-4.231799277e-06
0
LINE
5
1BA
100
AcDbEntity
8
0
6
ByLayer
62
256
370
-1
100
AcDbLine
10
3.67529789554
20
-4.231799277e-06
11
1.39054548937
21
5.04110617472e-07
0
LINE
5
1BB
100
AcDbEntity
8
0
6
ByLayer
62
256
370
-1
100
AcDbLine
10
-8.881784197e-16
20
-3.33066907388e-15
11
-5.76312713108e-08
21
0.116367863045
0
LINE
5
1BC
100
AcDbEntity
8
0
6
ByLayer
62
256
370
-1
100
AcDbLine
10
-5.76312713108e-08
20
0.116367863045
11
0.144587294853
21
0.886448936839
0
LINE
5
1BD
100
AcDbEntity
8
0
6
ByLayer
62
256
370
-1
100
AcDbLine
10
0.144587294853
20
0.886448936839
11
0.183799674313
21
0.973763534506
0
LINE
5
1BE
100
AcDbEntity
8
0
6
ByLayer
62
256
370
-1
100
AcDbLine
10
0.183799674313
20
0.973763534506
11
0.227768306344
21
1.04401162493
0
LINE
5
1BF
100
AcDbEntity
8
0
6
ByLayer
62
256
370
-1
100
AcDbLine
10
0.227768306344
20
1.04401162493
11
0.275410634241
21
1.0954588706
0
LINE
5
1C0
100
AcDbEntity
8
0
6
ByLayer
62
256
370
-1
100
AcDbLine
10
0.275410634241
20
1.0954588706
11
0.325553431096
21
1.12684533346
0
LINE
5
1C1
100
AcDbEntity
8
0
6
ByLayer
62
256
370
-1
100
AcDbLine
10
0.325553431096
20
1.12684533346
11
0.37696219516
21
1.13739384032
0
LINE
5
1C2
100
AcDbEntity
8
0
6
ByLayer
62
256
370
-1
100
AcDbLine
10
0.37696219516
20
1.13739384032
11
0.753925622172
21
1.13739102175
0
LINE
5
1C3
100
AcDbEntity
8
0
6
ByLayer
62
256
370
-1
100
AcDbLine
10
0.753925622172
20
1.13739102175
11
0.75392053764
21
3.88739102174
0
LINE
5
1C4
100
AcDbEntity
8
0
6
ByLayer
62
256
370
-1
100
AcDbLine
10
1.39054548937
20
5.04110617472e-07
11
-8.881784197e-16
21
-3.33066907388e-15
0
LINE
5
1C5
100
AcDbEntity
8
bend
6
ByLayer
62
256
370
-1
100
AcDbLine
10
0.753925552987
20
1.13739102175
11
1.3905453072
21
1.13739279927
0
LINE
5
1C6
100
AcDbEntity
8
bend
6
ByLayer
62
256
370
-1
100
AcDbLine
10
1.39054545287
20
0.64688516289
11
1.39054548937
21
5.04110617472e-07
0
LINE
5
1C7
100
AcDbEntity
8
bend
6
ByLayer
62
256
370
-1
100
AcDbLine
10
2.39049769627
20
0.646884738735
11
2.39049847846
21
1.21538529663e-06
0
CIRCLE
5
1C8
100
AcDbEntity
8
cutout
6
ByLayer
62
256
370
-1
100
AcDbCircle
10
0.347752386005
20
0.817310220817
40
0.100393659602
0
CIRCLE
5
1C9
100
AcDbEntity
8
cutout
6
ByLayer
62
256
370
-1
100
AcDbCircle
10
0.347752199106
20
0.226758930752
40
0.100393768564
0
CIRCLE
5
1CA
100
AcDbEntity
8
drill
6
ByLayer
62
256
370
-1
100
AcDbCircle
10
0.753925622172
20
1.13739102175
40
0.065
0
CIRCLE
5
1CB
100
AcDbEntity
8
drill
6
ByLayer
62
256
370
-1
100
AcDbCircle
10
1.3905453072
20
1.13739279927
40
0.065
0
CIRCLE
5
1CC
100
AcDbEntity
8
drill
6
ByLayer
62
256
370
-1
100
AcDbCircle
10
1.39054545287
20
0.646885331339
40
0.065
0
CIRCLE
5
1CD
100
AcDbEntity
8
drill
6
ByLayer
62
256
370
-1
100
AcDbCircle
10
1.39054548937
20
5.04110617472e-07
40
0.065
0
CIRCLE
5
1CE
100
AcDbEntity
8
drill
6
ByLayer
62
256
370
-1
100
AcDbCircle
10
2.39049769627
20
0.646884738735
40
0.065
0
CIRCLE
5
1CF
100
AcDbEntity
8
drill
6
ByLayer
62
256
370
-1
100
AcDbCircle
10
2.39049847846
20
1.21538529663e-06
40
0.065
0
CIRCLE
5
1D0
100
AcDbEntity
8
drill
6
ByLayer
62
256
370
-1
100
AcDbCircle
10
2.72321319804
20
0.466874600773
40
0.065
0
CIRCLE
5
1D1
100
AcDbEntity
8
drill
6
ByLayer
62
256
370
-1
100
AcDbCircle
10
3.94368563755
20
0.46642213021
40
0.065
0
ENDSEC
0
SECTION
2
OBJECTS
0
DICTIONARY
5
C
330
0
100
AcDbDictionary
281
1
3
ACAD_GROUP
350
D
0
DICTIONARY
5
D
330
C
100
AcDbDictionary
281
1
0
ENDSEC
0
EOF
