solid bottom
facet normal 0.9892216605512918 -0.14642577060116557 0.0
outer loop
vertex 19.029640433483944 5.40267086915322 0.0
vertex 19.023175226384275 5.000000000000013 3.000000000000002
vertex 19.023175226384275 5.000000000000013 0.0
endloop
endfacet
facet normal 0.9998711303927029 -0.016053741221864173 0.0
outer loop
vertex 19.023175226384275 5.000000000000013 3.000000000000002
vertex 19.029640433483944 5.40267086915322 0.0
vertex 19.029640433483944 5.40267086915322 3.000000000000002
endloop
endfacet
facet normal 0.9938779263429949 0.11048378853093666 0.0
outer loop
vertex 56.50673214334267 5.000000000000013 3.524958103184872e-16
vertex 56.579876129611755 4.342019364431687 3.000000000000002
vertex 56.579876129611755 4.342019364431687 3.524958103184872e-16
endloop
endfacet
facet normal 0.9709541346866344 0.23926568566120993 0.0
outer loop
vertex 56.579876129611755 4.342019364431687 3.000000000000002
vertex 56.50673214334267 5.000000000000013 3.524958103184872e-16
vertex 56.50673214334267 5.000000000000013 3.000000000000002
endloop
endfacet
facet normal 0.0 0.0 -1.0
outer loop
vertex 3.0 10.000000000000027 2.46747067222941e-15
vertex 20.73854341879261 7.557235926607546 0.0
vertex 3.0 2.255973186038318e-14 2.46747067222941e-15
endloop
endfacet
facet normal 0.0 0.0 -1.0
outer loop
vertex 20.73854341879261 7.557235926607546 0.0
vertex 3.0 10.000000000000027 2.46747067222941e-15
vertex 21.434869326668153 7.73188445193525 0.0
endloop
endfacet
facet normal 0.0 0.0 -1.0
outer loop
vertex 21.434869326668153 7.73188445193525 0.0
vertex 3.0 10.000000000000027 2.46747067222941e-15
vertex 77.99999999999999 10.000000000000027 2.46747067222941e-15
endloop
endfacet
facet normal 0.0 0.0 -1.0
outer loop
vertex 3.0 2.255973186038318e-14 2.46747067222941e-15
vertex 20.73854341879261 7.557235926607546 0.0
vertex 20.111146605415314 7.2083159989137355 0.0
endloop
endfacet
facet normal 0.0 0.0 -1.0
outer loop
vertex 3.0 2.255973186038318e-14 2.46747067222941e-15
vertex 20.111146605415314 7.2083159989137355 0.0
vertex 19.595434942545673 6.708902985308679 0.0
endloop
endfacet
facet normal 0.0 0.0 -1.0
outer loop
vertex 3.0 2.255973186038318e-14 2.46747067222941e-15
vertex 19.595434942545673 6.708902985308679 0.0
vertex 19.226553327754445 6.093031057350548 0.0
endloop
endfacet
facet normal 0.0 0.0 -1.0
outer loop
vertex 3.0 2.255973186038318e-14 2.46747067222941e-15
vertex 19.226553327754445 6.093031057350548 0.0
vertex 19.029640433483944 5.40267086915322 0.0
endloop
endfacet
facet normal 0.0 0.0 -1.0
outer loop
vertex 3.0 2.255973186038318e-14 2.46747067222941e-15
vertex 19.029640433483944 5.40267086915322 0.0
vertex 19.018115548064774 4.684869326668171 0.0
endloop
endfacet
facet normal 0.0 0.0 -1.0
outer loop
vertex 19.018115548064774 4.684869326668171 0.0
vertex 19.029640433483944 5.40267086915322 0.0
vertex 19.023175226384275 5.000000000000013 0.0
endloop
endfacet
facet normal 0.0 0.0 -1.0
outer loop
vertex 21.434869326668153 7.73188445193525 0.0
vertex 77.99999999999999 10.000000000000027 2.46747067222941e-15
vertex 21.75 7.726824773615748 0.0
endloop
endfacet
facet normal 0.0 0.0 -1.0
outer loop
vertex 21.75 7.726824773615748 0.0
vertex 77.99999999999999 10.000000000000027 2.46747067222941e-15
vertex 22.152670869153205 7.720359566516068 0.0
endloop
endfacet
facet normal 0.0 0.0 -1.0
outer loop
vertex 22.152670869153205 7.720359566516068 0.0
vertex 77.99999999999999 10.000000000000027 2.46747067222941e-15
vertex 22.843031057350533 7.523446672245567 0.0
endloop
endfacet
facet normal 0.0 0.0 -1.0
outer loop
vertex 22.843031057350533 7.523446672245567 0.0
vertex 77.99999999999999 10.000000000000027 2.46747067222941e-15
vertex 23.458902985308658 7.154565057454339 0.0
endloop
endfacet
facet normal 0.0 0.0 -1.0
outer loop
vertex 23.458902985308658 7.154565057454339 0.0
vertex 77.99999999999999 10.000000000000027 2.46747067222941e-15
vertex 23.95831599891371 6.638853394584704 0.0
endloop
endfacet
facet normal 0.0 0.0 -1.0
outer loop
vertex 23.95831599891371 6.638853394584704 0.0
vertex 77.99999999999999 10.000000000000027 2.46747067222941e-15
vertex 24.307235926607525 6.011456581207403 0.0
endloop
endfacet
facet normal 0.0 0.0 -1.0
outer loop
vertex 24.307235926607525 6.011456581207403 0.0
vertex 77.99999999999999 10.000000000000027 2.46747067222941e-15
vertex 24.481884451935226 5.315130673331867 0.0
endloop
endfacet
facet normal 0.0 0.0 -1.0
outer loop
vertex 24.481884451935226 5.315130673331867 0.0
vertex 77.99999999999999 10.000000000000027 2.46747067222941e-15
vertex 58.592019364431664 7.670123870388261 3.524958103184872e-16
endloop
endfacet
facet normal 0.0 0.0 -1.0
outer loop
vertex 24.481884451935226 5.315130673331867 0.0
vertex 58.592019364431664 7.670123870388261 3.524958103184872e-16
vertex 57.923360600467106 7.408843686005199 3.524958103184872e-16
endloop
endfacet
facet normal 0.0 0.0 -1.0
outer loop
vertex 24.481884451935226 5.315130673331867 0.0
vertex 57.923360600467106 7.408843686005199 3.524958103184872e-16
vertex 57.345110119205465 6.983404785223297 3.524958103184872e-16
endloop
endfacet
facet normal 0.0 0.0 -1.0
outer loop
vertex 24.481884451935226 5.315130673331867 0.0
vertex 57.345110119205465 6.983404785223297 3.524958103184872e-16
vertex 56.89667473534059 6.422800126059806 3.524958103184872e-16
endloop
endfacet
facet normal 0.0 0.0 -1.0
outer loop
vertex 24.481884451935226 5.315130673331867 0.0
vertex 56.89667473534059 6.422800126059806 3.524958103184872e-16
vertex 56.608614579208385 5.765233989593723 3.524958103184872e-16
endloop
endfacet
facet normal 0.0 0.0 -1.0
outer loop
vertex 24.481884451935226 5.315130673331867 0.0
vertex 56.608614579208385 5.765233989593723 3.524958103184872e-16
vertex 56.50056047440732 5.055518421345805 3.524958103184872e-16
endloop
endfacet
facet normal 0.0 0.0 -1.0
outer loop
vertex 58.592019364431664 7.670123870388261 3.524958103184872e-16
vertex 77.99999999999999 10.000000000000027 2.46747067222941e-15
vertex 59.30551842134579 7.749439525592695 3.524958103184872e-16
endloop
endfacet
facet normal 0.0 0.0 -1.0
outer loop
vertex 59.30551842134579 7.749439525592695 3.524958103184872e-16
vertex 77.99999999999999 10.000000000000027 2.46747067222941e-15
vertex 60.0152339895937 7.641385420791635 3.524958103184872e-16
endloop
endfacet
facet normal 0.0 0.0 -1.0
outer loop
vertex 60.0152339895937 7.641385420791635 3.524958103184872e-16
vertex 77.99999999999999 10.000000000000027 2.46747067222941e-15
vertex 60.6728001260598 7.35332526465942 3.524958103184872e-16
endloop
endfacet
facet normal 0.0 0.0 -1.0
outer loop
vertex 60.6728001260598 7.35332526465942 3.524958103184872e-16
vertex 77.99999999999999 10.000000000000027 2.46747067222941e-15
vertex 61.23340478522328 6.904889880794552 3.524958103184872e-16
endloop
endfacet
facet normal 0.0 0.0 -1.0
outer loop
vertex 61.23340478522328 6.904889880794552 3.524958103184872e-16
vertex 77.99999999999999 10.000000000000027 2.46747067222941e-15
vertex 61.65884368600519 6.326639399532903 3.524958103184872e-16
endloop
endfacet
facet normal 0.0 0.0 -1.0
outer loop
vertex 61.65884368600519 6.326639399532903 3.524958103184872e-16
vertex 77.99999999999999 10.000000000000027 2.46747067222941e-15
vertex 61.92012387038823 5.657980635568362 3.524958103184872e-16
endloop
endfacet
facet normal 0.0 0.0 -1.0
outer loop
vertex 61.92012387038823 5.657980635568362 3.524958103184872e-16
vertex 77.99999999999999 10.000000000000027 2.46747067222941e-15
vertex 61.99326785665732 5.000000000000013 3.524958103184872e-16
endloop
endfacet
facet normal 0.0 0.0 -1.0
outer loop
vertex 61.99326785665732 5.000000000000013 3.524958103184872e-16
vertex 77.99999999999999 10.000000000000027 2.46747067222941e-15
vertex 61.99943952559266 4.944481578654244 3.524958103184872e-16
endloop
endfacet
facet normal 0.0 0.0 -1.0
outer loop
vertex 3.0 2.255973186038318e-14 2.46747067222941e-15
vertex 21.34732913084679 2.2796404334839697 0.0
vertex 77.99999999999999 2.255973186038318e-14 2.46747067222941e-15
endloop
endfacet
facet normal 0.0 0.0 -1.0
outer loop
vertex 21.34732913084679 2.2796404334839697 0.0
vertex 3.0 2.255973186038318e-14 2.46747067222941e-15
vertex 20.656968942649463 2.47655332775446 0.0
endloop
endfacet
facet normal 0.0 0.0 -1.0
outer loop
vertex 20.656968942649463 2.47655332775446 0.0
vertex 3.0 2.255973186038318e-14 2.46747067222941e-15
vertex 20.04109701469134 2.8454349425456993 0.0
endloop
endfacet
facet normal 0.0 0.0 -1.0
outer loop
vertex 20.04109701469134 2.8454349425456993 0.0
vertex 3.0 2.255973186038318e-14 2.46747067222941e-15
vertex 19.54168400108629 3.361146605415334 0.0
endloop
endfacet
facet normal 0.0 0.0 -1.0
outer loop
vertex 19.54168400108629 3.361146605415334 0.0
vertex 3.0 2.255973186038318e-14 2.46747067222941e-15
vertex 19.192764073392475 3.988543418792624 0.0
endloop
endfacet
facet normal 0.0 0.0 -1.0
outer loop
vertex 19.192764073392475 3.988543418792624 0.0
vertex 3.0 2.255973186038318e-14 2.46747067222941e-15
vertex 19.018115548064774 4.684869326668171 0.0
endloop
endfacet
facet normal 0.0 0.0 -1.0
outer loop
vertex 77.99999999999999 2.255973186038318e-14 2.46747067222941e-15
vertex 21.34732913084679 2.2796404334839697 0.0
vertex 22.065130673331847 2.268115548064799 0.0
endloop
endfacet
facet normal 0.0 0.0 -1.0
outer loop
vertex 77.99999999999999 2.255973186038318e-14 2.46747067222941e-15
vertex 22.065130673331847 2.268115548064799 0.0
vertex 22.76145658120739 2.442764073392504 0.0
endloop
endfacet
facet normal 0.0 0.0 -1.0
outer loop
vertex 77.99999999999999 2.255973186038318e-14 2.46747067222941e-15
vertex 22.76145658120739 2.442764073392504 0.0
vertex 23.388853394584686 2.7916840010863133 0.0
endloop
endfacet
facet normal 0.0 0.0 -1.0
outer loop
vertex 77.99999999999999 2.255973186038318e-14 2.46747067222941e-15
vertex 23.388853394584686 2.7916840010863133 0.0
vertex 23.90456505745432 3.291097014691359 0.0
endloop
endfacet
facet normal 0.0 0.0 -1.0
outer loop
vertex 77.99999999999999 2.255973186038318e-14 2.46747067222941e-15
vertex 23.90456505745432 3.291097014691359 0.0
vertex 24.27344667224555 3.9069689426494785 0.0
endloop
endfacet
facet normal 0.0 0.0 -1.0
outer loop
vertex 77.99999999999999 2.255973186038318e-14 2.46747067222941e-15
vertex 24.27344667224555 3.9069689426494785 0.0
vertex 24.470359566516056 4.5973291308468065 0.0
endloop
endfacet
facet normal 0.0 0.0 -1.0
outer loop
vertex 77.99999999999999 2.255973186038318e-14 2.46747067222941e-15
vertex 24.470359566516056 4.5973291308468065 0.0
vertex 24.476824773615725 5.000000000000013 0.0
endloop
endfacet
facet normal 0.0 0.0 -1.0
outer loop
vertex 77.99999999999999 2.255973186038318e-14 2.46747067222941e-15
vertex 24.476824773615725 5.000000000000013 0.0
vertex 24.481884451935226 5.315130673331867 0.0
endloop
endfacet
facet normal 0.0 0.0 -1.0
outer loop
vertex 77.99999999999999 2.255973186038318e-14 2.46747067222941e-15
vertex 24.481884451935226 5.315130673331867 0.0
vertex 59.194481578654226 2.2505604744073424 3.524958103184872e-16
endloop
endfacet
facet normal 0.0 0.0 -1.0
outer loop
vertex 59.194481578654226 2.2505604744073424 3.524958103184872e-16
vertex 24.481884451935226 5.315130673331867 0.0
vertex 58.48476601040628 2.3586145792084032 3.524958103184872e-16
endloop
endfacet
facet normal 0.0 0.0 -1.0
outer loop
vertex 58.48476601040628 2.3586145792084032 3.524958103184872e-16
vertex 24.481884451935226 5.315130673331867 0.0
vertex 57.82719987394021 2.6466747353406186 3.524958103184872e-16
endloop
endfacet
facet normal 0.0 0.0 -1.0
outer loop
vertex 57.82719987394021 2.6466747353406186 3.524958103184872e-16
vertex 24.481884451935226 5.315130673331867 0.0
vertex 57.26659521477673 3.0951101192054864 3.524958103184872e-16
endloop
endfacet
facet normal 0.0 0.0 -1.0
outer loop
vertex 57.26659521477673 3.0951101192054864 3.524958103184872e-16
vertex 24.481884451935226 5.315130673331867 0.0
vertex 56.841156313994816 3.673360600467135 3.524958103184872e-16
endloop
endfacet
facet normal 0.0 0.0 -1.0
outer loop
vertex 56.841156313994816 3.673360600467135 3.524958103184872e-16
vertex 24.481884451935226 5.315130673331867 0.0
vertex 56.579876129611755 4.342019364431687 3.524958103184872e-16
endloop
endfacet
facet normal 0.0 0.0 -1.0
outer loop
vertex 56.579876129611755 4.342019364431687 3.524958103184872e-16
vertex 24.481884451935226 5.315130673331867 0.0
vertex 56.50673214334267 5.000000000000013 3.524958103184872e-16
endloop
endfacet
facet normal 0.0 0.0 -1.0
outer loop
vertex 56.50673214334267 5.000000000000013 3.524958103184872e-16
vertex 24.481884451935226 5.315130673331867 0.0
vertex 56.50056047440732 5.055518421345805 3.524958103184872e-16
endloop
endfacet
facet normal 0.0 0.0 -1.0
outer loop
vertex 77.99999999999999 2.255973186038318e-14 2.46747067222941e-15
vertex 59.194481578654226 2.2505604744073424 3.524958103184872e-16
vertex 59.90798063556834 2.329876129611777 3.524958103184872e-16
endloop
endfacet
facet normal 0.0 0.0 -1.0
outer loop
vertex 77.99999999999999 2.255973186038318e-14 2.46747067222941e-15
vertex 59.90798063556834 2.329876129611777 3.524958103184872e-16
vertex 60.57663939953288 2.5911563139948384 3.524958103184872e-16
endloop
endfacet
facet normal 0.0 0.0 -1.0
outer loop
vertex 77.99999999999999 2.255973186038318e-14 2.46747067222941e-15
vertex 60.57663939953288 2.5911563139948384 3.524958103184872e-16
vertex 61.15488988079452 3.0165952147767405 3.524958103184872e-16
endloop
endfacet
facet normal 0.0 0.0 -1.0
outer loop
vertex 77.99999999999999 2.255973186038318e-14 2.46747067222941e-15
vertex 61.15488988079452 3.0165952147767405 3.524958103184872e-16
vertex 61.6033252646594 3.577199873940232 3.524958103184872e-16
endloop
endfacet
facet normal 0.0 0.0 -1.0
outer loop
vertex 77.99999999999999 2.255973186038318e-14 2.46747067222941e-15
vertex 61.6033252646594 3.577199873940232 3.524958103184872e-16
vertex 61.8913854207916 4.234766010406304 3.524958103184872e-16
endloop
endfacet
facet normal 0.0 0.0 -1.0
outer loop
vertex 77.99999999999999 2.255973186038318e-14 2.46747067222941e-15
vertex 61.8913854207916 4.234766010406304 3.524958103184872e-16
vertex 61.99943952559266 4.944481578654244 3.524958103184872e-16
endloop
endfacet
facet normal 0.0 0.0 -1.0
outer loop
vertex 77.99999999999999 2.255973186038318e-14 2.46747067222941e-15
vertex 61.99943952559266 4.944481578654244 3.524958103184872e-16
vertex 77.99999999999999 10.000000000000027 2.46747067222941e-15
endloop
endfacet
facet normal 0.9934125279764451 0.11459297212067181 0.0
outer loop
vertex 19.018115548064774 4.684869326668171 0.0
vertex 19.192764073392475 3.988543418792624 3.000000000000002
vertex 19.192764073392475 3.988543418792624 0.0
endloop
endfacet
facet normal 0.929903973311828 0.36780239316632446 0.0
outer loop
vertex 19.192764073392475 3.988543418792624 3.000000000000002
vertex 19.018115548064774 4.684869326668171 0.0
vertex 19.018115548064774 4.684869326668171 3.000000000000002
endloop
endfacet
facet normal 0.929903973311828 0.36780239316632446 0.0
outer loop
vertex 19.192764073392475 3.988543418792624 0.0
vertex 19.54168400108629 3.361146605415334 3.000000000000002
vertex 19.54168400108629 3.361146605415334 0.0
endloop
endfacet
facet normal 0.8030239996049849 0.5959466889398862 0.0
outer loop
vertex 19.54168400108629 3.361146605415334 3.000000000000002
vertex 19.192764073392475 3.988543418792624 0.0
vertex 19.192764073392475 3.988543418792624 3.000000000000002
endloop
endfacet
facet normal 0.8030239996049849 0.5959466889398862 0.0
outer loop
vertex 19.54168400108629 3.361146605415334 0.0
vertex 20.04109701469134 2.8454349425456993 3.000000000000002
vertex 20.04109701469134 2.8454349425456993 0.0
endloop
endfacet
facet normal 0.6214192673849657 0.7834782027106643 0.0
outer loop
vertex 20.04109701469134 2.8454349425456993 3.000000000000002
vertex 19.54168400108629 3.361146605415334 0.0
vertex 19.54168400108629 3.361146605415334 3.000000000000002
endloop
endfacet
facet normal 0.9997961911246086 -0.020188516853031607 0.0
outer loop
vertex 56.50056047440732 5.055518421345805 3.524958103184872e-16
vertex 56.50673214334267 5.000000000000013 3.000000000000002
vertex 56.50673214334267 5.000000000000013 3.524958103184872e-16
endloop
endfacet
facet normal 0.9938779263430001 0.11048378853088939 0.0
outer loop
vertex 56.50673214334267 5.000000000000013 3.000000000000002
vertex 56.50056047440732 5.055518421345805 3.524958103184872e-16
vertex 56.50056047440732 5.055518421345805 3.000000000000002
endloop
endfacet
facet normal 0.6214192673849657 0.7834782027106643 0.0
outer loop
vertex 20.04109701469134 2.8454349425456993 3.000000000000002
vertex 20.656968942649463 2.47655332775446 0.0
vertex 20.04109701469134 2.8454349425456993 0.0
endloop
endfacet
facet normal 0.39746583903656274 0.9176169717256549 0.0
outer loop
vertex 20.656968942649463 2.47655332775446 0.0
vertex 20.04109701469134 2.8454349425456993 3.000000000000002
vertex 20.656968942649463 2.47655332775446 3.000000000000002
endloop
endfacet
facet normal 0.39746583903656274 0.9176169717256549 0.0
outer loop
vertex 20.656968942649463 2.47655332775446 3.000000000000002
vertex 21.34732913084679 2.2796404334839697 0.0
vertex 20.656968942649463 2.47655332775446 0.0
endloop
endfacet
facet normal 0.14642577060116826 0.9892216605512913 0.0
outer loop
vertex 21.34732913084679 2.2796404334839697 0.0
vertex 20.656968942649463 2.47655332775446 3.000000000000002
vertex 21.34732913084679 2.2796404334839697 3.000000000000002
endloop
endfacet
facet normal 0.14642577060116826 0.9892216605512913 0.0
outer loop
vertex 21.34732913084679 2.2796404334839697 3.000000000000002
vertex 22.065130673331847 2.268115548064799 0.0
vertex 21.34732913084679 2.2796404334839697 0.0
endloop
endfacet
facet normal -0.11459297212067404 0.9934125279764446 0.0
outer loop
vertex 22.065130673331847 2.268115548064799 0.0
vertex 21.34732913084679 2.2796404334839697 3.000000000000002
vertex 22.065130673331847 2.268115548064799 3.000000000000002
endloop
endfacet
facet normal -0.11459297212067404 0.9934125279764446 0.0
outer loop
vertex 22.065130673331847 2.268115548064799 3.000000000000002
vertex 22.76145658120739 2.442764073392504 0.0
vertex 22.065130673331847 2.268115548064799 0.0
endloop
endfacet
facet normal -0.36780239316632446 0.929903973311828 0.0
outer loop
vertex 22.76145658120739 2.442764073392504 0.0
vertex 22.065130673331847 2.268115548064799 3.000000000000002
vertex 22.76145658120739 2.442764073392504 3.000000000000002
endloop
endfacet
facet normal -0.36780239316632446 0.929903973311828 0.0
outer loop
vertex 22.76145658120739 2.442764073392504 3.000000000000002
vertex 23.388853394584686 2.7916840010863133 0.0
vertex 22.76145658120739 2.442764073392504 0.0
endloop
endfacet
facet normal -0.5959466889398862 0.8030239996049849 0.0
outer loop
vertex 23.388853394584686 2.7916840010863133 0.0
vertex 22.76145658120739 2.442764073392504 3.000000000000002
vertex 23.388853394584686 2.7916840010863133 3.000000000000002
endloop
endfacet
facet normal -0.5959466889398862 0.8030239996049849 0.0
outer loop
vertex 23.388853394584686 2.7916840010863133 3.000000000000002
vertex 23.90456505745432 3.291097014691359 0.0
vertex 23.388853394584686 2.7916840010863133 0.0
endloop
endfacet
facet normal -0.7834782027106632 0.6214192673849672 0.0
outer loop
vertex 23.90456505745432 3.291097014691359 0.0
vertex 23.388853394584686 2.7916840010863133 3.000000000000002
vertex 23.90456505745432 3.291097014691359 3.000000000000002
endloop
endfacet
facet normal -0.9176169717256546 0.3974658390365637 0.0
outer loop
vertex 24.27344667224555 3.9069689426494785 3.000000000000002
vertex 23.90456505745432 3.291097014691359 0.0
vertex 23.90456505745432 3.291097014691359 3.000000000000002
endloop
endfacet
facet normal -0.7834782027106632 0.6214192673849672 0.0
outer loop
vertex 23.90456505745432 3.291097014691359 0.0
vertex 24.27344667224555 3.9069689426494785 3.000000000000002
vertex 24.27344667224555 3.9069689426494785 0.0
endloop
endfacet
facet normal -0.9892216605512918 0.1464257706011654 0.0
outer loop
vertex 24.470359566516056 4.5973291308468065 3.000000000000002
vertex 24.27344667224555 3.9069689426494785 0.0
vertex 24.27344667224555 3.9069689426494785 3.000000000000002
endloop
endfacet
facet normal -0.9176169717256546 0.3974658390365637 0.0
outer loop
vertex 24.27344667224555 3.9069689426494785 0.0
vertex 24.470359566516056 4.5973291308468065 3.000000000000002
vertex 24.470359566516056 4.5973291308468065 0.0
endloop
endfacet
facet normal -0.9998711303927029 0.016053741221863947 0.0
outer loop
vertex 24.476824773615725 5.000000000000013 3.000000000000002
vertex 24.470359566516056 4.5973291308468065 0.0
vertex 24.470359566516056 4.5973291308468065 3.000000000000002
endloop
endfacet
facet normal -0.9892216605512918 0.1464257706011654 0.0
outer loop
vertex 24.470359566516056 4.5973291308468065 0.0
vertex 24.476824773615725 5.000000000000013 3.000000000000002
vertex 24.476824773615725 5.000000000000013 0.0
endloop
endfacet
facet normal -0.9934125279764451 -0.11459297212067181 0.0
outer loop
vertex 24.481884451935226 5.315130673331867 3.000000000000002
vertex 24.476824773615725 5.000000000000013 0.0
vertex 24.476824773615725 5.000000000000013 3.000000000000002
endloop
endfacet
facet normal -0.9998711303927028 0.016053741221872055 0.0
outer loop
vertex 24.476824773615725 5.000000000000013 0.0
vertex 24.481884451935226 5.315130673331867 3.000000000000002
vertex 24.481884451935226 5.315130673331867 0.0
endloop
endfacet
facet normal -0.929903973311828 -0.36780239316632446 0.0
outer loop
vertex 24.307235926607525 6.011456581207403 3.000000000000002
vertex 24.481884451935226 5.315130673331867 0.0
vertex 24.481884451935226 5.315130673331867 3.000000000000002
endloop
endfacet
facet normal -0.9934125279764451 -0.11459297212067181 0.0
outer loop
vertex 24.481884451935226 5.315130673331867 0.0
vertex 24.307235926607525 6.011456581207403 3.000000000000002
vertex 24.307235926607525 6.011456581207403 0.0
endloop
endfacet
facet normal -0.8030239996049866 -0.595946688939884 0.0
outer loop
vertex 23.95831599891371 6.638853394584704 3.000000000000002
vertex 24.307235926607525 6.011456581207403 0.0
vertex 24.307235926607525 6.011456581207403 3.000000000000002
endloop
endfacet
facet normal -0.929903973311828 -0.36780239316632446 0.0
outer loop
vertex 24.307235926607525 6.011456581207403 0.0
vertex 23.95831599891371 6.638853394584704 3.000000000000002
vertex 23.95831599891371 6.638853394584704 0.0
endloop
endfacet
facet normal -0.6214192673849651 -0.7834782027106646 0.0
outer loop
vertex 23.458902985308658 7.154565057454339 3.000000000000002
vertex 23.95831599891371 6.638853394584704 0.0
vertex 23.95831599891371 6.638853394584704 3.000000000000002
endloop
endfacet
facet normal -0.8030239996049866 -0.595946688939884 0.0
outer loop
vertex 23.95831599891371 6.638853394584704 0.0
vertex 23.458902985308658 7.154565057454339 3.000000000000002
vertex 23.458902985308658 7.154565057454339 0.0
endloop
endfacet
facet normal -0.6214192673849651 -0.7834782027106646 0.0
outer loop
vertex 23.458902985308658 7.154565057454339 3.000000000000002
vertex 22.843031057350533 7.523446672245567 0.0
vertex 23.458902985308658 7.154565057454339 0.0
endloop
endfacet
facet normal -0.39746583903655613 -0.9176169717256576 0.0
outer loop
vertex 22.843031057350533 7.523446672245567 0.0
vertex 23.458902985308658 7.154565057454339 3.000000000000002
vertex 22.843031057350533 7.523446672245567 3.000000000000002
endloop
endfacet
facet normal -0.39746583903655613 -0.9176169717256576 0.0
outer loop
vertex 22.843031057350533 7.523446672245567 3.000000000000002
vertex 22.152670869153205 7.720359566516068 0.0
vertex 22.843031057350533 7.523446672245567 0.0
endloop
endfacet
facet normal -0.14642577060116968 -0.989221660551291 0.0
outer loop
vertex 22.152670869153205 7.720359566516068 0.0
vertex 22.843031057350533 7.523446672245567 3.000000000000002
vertex 22.152670869153205 7.720359566516068 3.000000000000002
endloop
endfacet
facet normal -0.14642577060116968 -0.989221660551291 0.0
outer loop
vertex 22.152670869153205 7.720359566516068 3.000000000000002
vertex 21.75 7.726824773615748 0.0
vertex 22.152670869153205 7.720359566516068 0.0
endloop
endfacet
facet normal -0.01605374122187795 -0.9998711303927027 -0.0
outer loop
vertex 21.75 7.726824773615748 0.0
vertex 22.152670869153205 7.720359566516068 3.000000000000002
vertex 21.75 7.726824773615748 3.000000000000002
endloop
endfacet
facet normal -0.016053741221872055 -0.9998711303927028 -0.0
outer loop
vertex 21.75 7.726824773615748 3.000000000000002
vertex 21.434869326668153 7.73188445193525 0.0
vertex 21.75 7.726824773615748 0.0
endloop
endfacet
facet normal 0.11459297212067181 -0.9934125279764451 0.0
outer loop
vertex 21.434869326668153 7.73188445193525 0.0
vertex 21.75 7.726824773615748 3.000000000000002
vertex 21.434869326668153 7.73188445193525 3.000000000000002
endloop
endfacet
facet normal 0.11459297212067181 -0.9934125279764451 0.0
outer loop
vertex 21.434869326668153 7.73188445193525 3.000000000000002
vertex 20.73854341879261 7.557235926607546 0.0
vertex 21.434869326668153 7.73188445193525 0.0
endloop
endfacet
facet normal 0.36780239316632446 -0.929903973311828 0.0
outer loop
vertex 20.73854341879261 7.557235926607546 0.0
vertex 21.434869326668153 7.73188445193525 3.000000000000002
vertex 20.73854341879261 7.557235926607546 3.000000000000002
endloop
endfacet
facet normal 0.36780239316632446 -0.929903973311828 0.0
outer loop
vertex 20.73854341879261 7.557235926607546 3.000000000000002
vertex 20.111146605415314 7.2083159989137355 0.0
vertex 20.73854341879261 7.557235926607546 0.0
endloop
endfacet
facet normal 0.595946688939884 -0.8030239996049866 0.0
outer loop
vertex 20.111146605415314 7.2083159989137355 0.0
vertex 20.73854341879261 7.557235926607546 3.000000000000002
vertex 20.111146605415314 7.2083159989137355 3.000000000000002
endloop
endfacet
facet normal 0.595946688939884 -0.8030239996049866 0.0
outer loop
vertex 20.111146605415314 7.2083159989137355 3.000000000000002
vertex 19.595434942545673 6.708902985308679 0.0
vertex 20.111146605415314 7.2083159989137355 0.0
endloop
endfacet
facet normal 0.7834782027106646 -0.6214192673849651 0.0
outer loop
vertex 19.595434942545673 6.708902985308679 0.0
vertex 20.111146605415314 7.2083159989137355 3.000000000000002
vertex 19.595434942545673 6.708902985308679 3.000000000000002
endloop
endfacet
facet normal 0.7834782027106646 -0.6214192673849651 0.0
outer loop
vertex 19.595434942545673 6.708902985308679 0.0
vertex 19.226553327754445 6.093031057350548 3.000000000000002
vertex 19.226553327754445 6.093031057350548 0.0
endloop
endfacet
facet normal 0.9176169717256566 -0.3974658390365587 0.0
outer loop
vertex 19.226553327754445 6.093031057350548 3.000000000000002
vertex 19.595434942545673 6.708902985308679 0.0
vertex 19.595434942545673 6.708902985308679 3.000000000000002
endloop
endfacet
facet normal 0.9176169717256566 -0.3974658390365587 0.0
outer loop
vertex 19.226553327754445 6.093031057350548 0.0
vertex 19.029640433483944 5.40267086915322 3.000000000000002
vertex 19.029640433483944 5.40267086915322 0.0
endloop
endfacet
facet normal 0.9892216605512918 -0.14642577060116557 0.0
outer loop
vertex 19.029640433483944 5.40267086915322 3.000000000000002
vertex 19.226553327754445 6.093031057350548 0.0
vertex 19.226553327754445 6.093031057350548 3.000000000000002
endloop
endfacet
facet normal -0.8759431585473397 -0.4824143271028652 0.0
outer loop
vertex 61.65884368600519 6.326639399532903 3.000000000000002
vertex 61.92012387038823 5.657980635568362 3.524958103184872e-16
vertex 61.92012387038823 5.657980635568362 3.000000000000002
endloop
endfacet
facet normal -0.9709541346866344 -0.23926568566120993 0.0
outer loop
vertex 61.92012387038823 5.657980635568362 3.524958103184872e-16
vertex 61.65884368600519 6.326639399532903 3.000000000000002
vertex 61.65884368600519 6.326639399532903 3.524958103184872e-16
endloop
endfacet
facet normal -0.7212381037175531 -0.6926872293798321 0.0
outer loop
vertex 61.23340478522328 6.904889880794552 3.000000000000002
vertex 61.65884368600519 6.326639399532903 3.524958103184872e-16
vertex 61.65884368600519 6.326639399532903 3.000000000000002
endloop
endfacet
facet normal -0.8759431585473397 -0.4824143271028652 0.0
outer loop
vertex 61.65884368600519 6.326639399532903 3.524958103184872e-16
vertex 61.23340478522328 6.904889880794552 3.000000000000002
vertex 61.23340478522328 6.904889880794552 3.524958103184872e-16
endloop
endfacet
facet normal -0.7212381037175531 -0.6926872293798321 0.0
outer loop
vertex 61.23340478522328 6.904889880794552 3.000000000000002
vertex 60.6728001260598 7.35332526465942 3.524958103184872e-16
vertex 61.23340478522328 6.904889880794552 3.524958103184872e-16
endloop
endfacet
facet normal -0.5173818640217444 -0.8557546416943266 0.0
outer loop
vertex 60.6728001260598 7.35332526465942 3.524958103184872e-16
vertex 61.23340478522328 6.904889880794552 3.000000000000002
vertex 60.6728001260598 7.35332526465942 3.000000000000002
endloop
endfacet
facet normal -0.5173818640217444 -0.8557546416943266 0.0
outer loop
vertex 60.6728001260598 7.35332526465942 3.000000000000002
vertex 60.0152339895937 7.641385420791635 3.524958103184872e-16
vertex 60.6728001260598 7.35332526465942 3.524958103184872e-16
endloop
endfacet
facet normal -0.2782669053068052 -0.9605037893787685 0.0
outer loop
vertex 60.0152339895937 7.641385420791635 3.524958103184872e-16
vertex 60.6728001260598 7.35332526465942 3.000000000000002
vertex 60.0152339895937 7.641385420791635 3.000000000000002
endloop
endfacet
facet normal 0.9998711303927028 -0.016053741221872055 0.0
outer loop
vertex 19.023175226384275 5.000000000000013 0.0
vertex 19.018115548064774 4.684869326668171 3.000000000000002
vertex 19.018115548064774 4.684869326668171 0.0
endloop
endfacet
facet normal 0.9934125279764451 0.11459297212067181 0.0
outer loop
vertex 19.018115548064774 4.684869326668171 3.000000000000002
vertex 19.023175226384275 5.000000000000013 0.0
vertex 19.023175226384275 5.000000000000013 3.000000000000002
endloop
endfacet
facet normal -0.48241432710286897 0.8759431585473377 0.0
outer loop
vertex 60.57663939953288 2.5911563139948384 3.000000000000002
vertex 61.15488988079452 3.0165952147767405 3.524958103184872e-16
vertex 60.57663939953288 2.5911563139948384 3.524958103184872e-16
endloop
endfacet
facet normal -0.6926872293798283 0.7212381037175569 0.0
outer loop
vertex 61.15488988079452 3.0165952147767405 3.524958103184872e-16
vertex 60.57663939953288 2.5911563139948384 3.000000000000002
vertex 61.15488988079452 3.0165952147767405 3.000000000000002
endloop
endfacet
facet normal -0.8557546416943284 0.5173818640217414 0.0
outer loop
vertex 61.6033252646594 3.577199873940232 3.000000000000002
vertex 61.15488988079452 3.0165952147767405 3.524958103184872e-16
vertex 61.15488988079452 3.0165952147767405 3.000000000000002
endloop
endfacet
facet normal -0.6926872293798283 0.7212381037175569 0.0
outer loop
vertex 61.15488988079452 3.0165952147767405 3.524958103184872e-16
vertex 61.6033252646594 3.577199873940232 3.000000000000002
vertex 61.6033252646594 3.577199873940232 3.524958103184872e-16
endloop
endfacet
facet normal -0.9605037893787703 0.2782669053067983 0.0
outer loop
vertex 61.8913854207916 4.234766010406304 3.000000000000002
vertex 61.6033252646594 3.577199873940232 3.524958103184872e-16
vertex 61.6033252646594 3.577199873940232 3.000000000000002
endloop
endfacet
facet normal -0.8557546416943284 0.5173818640217414 0.0
outer loop
vertex 61.6033252646594 3.577199873940232 3.524958103184872e-16
vertex 61.8913854207916 4.234766010406304 3.000000000000002
vertex 61.8913854207916 4.234766010406304 3.524958103184872e-16
endloop
endfacet
facet normal -0.9997961911246086 0.020188516853031607 0.0
outer loop
vertex 61.99943952559266 4.944481578654244 3.000000000000002
vertex 61.8913854207916 4.234766010406304 3.524958103184872e-16
vertex 61.8913854207916 4.234766010406304 3.000000000000002
endloop
endfacet
facet normal -0.9605037893787703 0.2782669053067983 0.0
outer loop
vertex 61.8913854207916 4.234766010406304 3.524958103184872e-16
vertex 61.99943952559266 4.944481578654244 3.000000000000002
vertex 61.99943952559266 4.944481578654244 3.524958103184872e-16
endloop
endfacet
facet normal -0.9938779263430001 -0.11048378853088939 -0.0
outer loop
vertex 61.99326785665732 5.000000000000013 3.000000000000002
vertex 61.99943952559266 4.944481578654244 3.524958103184872e-16
vertex 61.99943952559266 4.944481578654244 3.000000000000002
endloop
endfacet
facet normal -0.9997961911246086 0.020188516853031607 0.0
outer loop
vertex 61.99943952559266 4.944481578654244 3.524958103184872e-16
vertex 61.99326785665732 5.000000000000013 3.000000000000002
vertex 61.99326785665732 5.000000000000013 3.524958103184872e-16
endloop
endfacet
facet normal -0.9709541346866344 -0.23926568566120993 0.0
outer loop
vertex 61.92012387038823 5.657980635568362 3.000000000000002
vertex 61.99326785665732 5.000000000000013 3.524958103184872e-16
vertex 61.99326785665732 5.000000000000013 3.000000000000002
endloop
endfacet
facet normal -0.9938779263429949 -0.11048378853093666 -0.0
outer loop
vertex 61.99326785665732 5.000000000000013 3.524958103184872e-16
vertex 61.92012387038823 5.657980635568362 3.000000000000002
vertex 61.92012387038823 5.657980635568362 3.524958103184872e-16
endloop
endfacet
facet normal 0.7212381037175531 0.6926872293798321 0.0
outer loop
vertex 57.26659521477673 3.0951101192054864 3.000000000000002
vertex 57.82719987394021 2.6466747353406186 3.524958103184872e-16
vertex 57.26659521477673 3.0951101192054864 3.524958103184872e-16
endloop
endfacet
facet normal 0.5173818640217444 0.8557546416943266 0.0
outer loop
vertex 57.82719987394021 2.6466747353406186 3.524958103184872e-16
vertex 57.26659521477673 3.0951101192054864 3.000000000000002
vertex 57.82719987394021 2.6466747353406186 3.000000000000002
endloop
endfacet
facet normal 0.5173818640217444 0.8557546416943266 0.0
outer loop
vertex 57.82719987394021 2.6466747353406186 3.000000000000002
vertex 58.48476601040628 2.3586145792084032 3.524958103184872e-16
vertex 57.82719987394021 2.6466747353406186 3.524958103184872e-16
endloop
endfacet
facet normal 0.2782669053068052 0.9605037893787685 0.0
outer loop
vertex 58.48476601040628 2.3586145792084032 3.524958103184872e-16
vertex 57.82719987394021 2.6466747353406186 3.000000000000002
vertex 58.48476601040628 2.3586145792084032 3.000000000000002
endloop
endfacet
facet normal -0.2782669053068052 -0.9605037893787685 0.0
outer loop
vertex 60.0152339895937 7.641385420791635 3.000000000000002
vertex 59.30551842134579 7.749439525592695 3.524958103184872e-16
vertex 60.0152339895937 7.641385420791635 3.524958103184872e-16
endloop
endfacet
facet normal -0.020188516853009694 -0.999796191124609 0.0
outer loop
vertex 59.30551842134579 7.749439525592695 3.524958103184872e-16
vertex 60.0152339895937 7.641385420791635 3.000000000000002
vertex 59.30551842134579 7.749439525592695 3.000000000000002
endloop
endfacet
facet normal -0.020188516853009694 -0.999796191124609 0.0
outer loop
vertex 59.30551842134579 7.749439525592695 3.000000000000002
vertex 58.592019364431664 7.670123870388261 3.524958103184872e-16
vertex 59.30551842134579 7.749439525592695 3.524958103184872e-16
endloop
endfacet
facet normal 0.23926568566121392 -0.9709541346866336 0.0
outer loop
vertex 58.592019364431664 7.670123870388261 3.524958103184872e-16
vertex 59.30551842134579 7.749439525592695 3.000000000000002
vertex 58.592019364431664 7.670123870388261 3.000000000000002
endloop
endfacet
facet normal 0.23926568566121392 -0.9709541346866336 0.0
outer loop
vertex 58.592019364431664 7.670123870388261 3.000000000000002
vertex 57.923360600467106 7.408843686005199 3.524958103184872e-16
vertex 58.592019364431664 7.670123870388261 3.524958103184872e-16
endloop
endfacet
facet normal 0.48241432710286486 -0.8759431585473401 0.0
outer loop
vertex 57.923360600467106 7.408843686005199 3.524958103184872e-16
vertex 58.592019364431664 7.670123870388261 3.000000000000002
vertex 57.923360600467106 7.408843686005199 3.000000000000002
endloop
endfacet
facet normal 0.48241432710286486 -0.8759431585473401 0.0
outer loop
vertex 57.923360600467106 7.408843686005199 3.000000000000002
vertex 57.345110119205465 6.983404785223297 3.524958103184872e-16
vertex 57.923360600467106 7.408843686005199 3.524958103184872e-16
endloop
endfacet
facet normal 0.6926872293798311 -0.7212381037175541 0.0
outer loop
vertex 57.345110119205465 6.983404785223297 3.524958103184872e-16
vertex 57.923360600467106 7.408843686005199 3.000000000000002
vertex 57.345110119205465 6.983404785223297 3.000000000000002
endloop
endfacet
facet normal 0.6926872293798311 -0.7212381037175541 0.0
outer loop
vertex 57.345110119205465 6.983404785223297 3.524958103184872e-16
vertex 56.89667473534059 6.422800126059806 3.000000000000002
vertex 56.89667473534059 6.422800126059806 3.524958103184872e-16
endloop
endfacet
facet normal 0.8557546416943319 -0.5173818640217355 0.0
outer loop
vertex 56.89667473534059 6.422800126059806 3.000000000000002
vertex 57.345110119205465 6.983404785223297 3.524958103184872e-16
vertex 57.345110119205465 6.983404785223297 3.000000000000002
endloop
endfacet
facet normal 0.8557546416943319 -0.5173818640217355 0.0
outer loop
vertex 56.89667473534059 6.422800126059806 3.524958103184872e-16
vertex 56.608614579208385 5.765233989593723 3.000000000000002
vertex 56.608614579208385 5.765233989593723 3.524958103184872e-16
endloop
endfacet
facet normal 0.96050378937877 -0.2782669053067998 0.0
outer loop
vertex 56.608614579208385 5.765233989593723 3.000000000000002
vertex 56.89667473534059 6.422800126059806 3.524958103184872e-16
vertex 56.89667473534059 6.422800126059806 3.000000000000002
endloop
endfacet
facet normal 0.96050378937877 -0.2782669053067998 0.0
outer loop
vertex 56.608614579208385 5.765233989593723 3.524958103184872e-16
vertex 56.50056047440732 5.055518421345805 3.000000000000002
vertex 56.50056047440732 5.055518421345805 3.524958103184872e-16
endloop
endfacet
facet normal 0.9997961911246086 -0.020188516853031607 0.0
outer loop
vertex 56.50056047440732 5.055518421345805 3.000000000000002
vertex 56.608614579208385 5.765233989593723 3.524958103184872e-16
vertex 56.608614579208385 5.765233989593723 3.000000000000002
endloop
endfacet
facet normal 0.9709541346866344 0.23926568566120993 0.0
outer loop
vertex 56.579876129611755 4.342019364431687 3.524958103184872e-16
vertex 56.841156313994816 3.673360600467135 3.000000000000002
vertex 56.841156313994816 3.673360600467135 3.524958103184872e-16
endloop
endfacet
facet normal 0.8759431585473397 0.4824143271028652 0.0
outer loop
vertex 56.841156313994816 3.673360600467135 3.000000000000002
vertex 56.579876129611755 4.342019364431687 3.524958103184872e-16
vertex 56.579876129611755 4.342019364431687 3.000000000000002
endloop
endfacet
facet normal 0.2782669053068052 0.9605037893787685 0.0
outer loop
vertex 58.48476601040628 2.3586145792084032 3.000000000000002
vertex 59.194481578654226 2.2505604744073424 3.524958103184872e-16
vertex 58.48476601040628 2.3586145792084032 3.524958103184872e-16
endloop
endfacet
facet normal 0.020188516853009694 0.999796191124609 0.0
outer loop
vertex 59.194481578654226 2.2505604744073424 3.524958103184872e-16
vertex 58.48476601040628 2.3586145792084032 3.000000000000002
vertex 59.194481578654226 2.2505604744073424 3.000000000000002
endloop
endfacet
facet normal 0.020188516853009694 0.999796191124609 0.0
outer loop
vertex 59.194481578654226 2.2505604744073424 3.000000000000002
vertex 59.90798063556834 2.329876129611777 3.524958103184872e-16
vertex 59.194481578654226 2.2505604744073424 3.524958103184872e-16
endloop
endfacet
facet normal -0.23926568566121392 0.9709541346866336 0.0
outer loop
vertex 59.90798063556834 2.329876129611777 3.524958103184872e-16
vertex 59.194481578654226 2.2505604744073424 3.000000000000002
vertex 59.90798063556834 2.329876129611777 3.000000000000002
endloop
endfacet
facet normal -0.23926568566121392 0.9709541346866336 0.0
outer loop
vertex 59.90798063556834 2.329876129611777 3.000000000000002
vertex 60.57663939953288 2.5911563139948384 3.524958103184872e-16
vertex 59.90798063556834 2.329876129611777 3.524958103184872e-16
endloop
endfacet
facet normal -0.48241432710286897 0.8759431585473377 0.0
outer loop
vertex 60.57663939953288 2.5911563139948384 3.524958103184872e-16
vertex 59.90798063556834 2.329876129611777 3.000000000000002
vertex 60.57663939953288 2.5911563139948384 3.000000000000002
endloop
endfacet
facet normal 0.8759431585473397 0.4824143271028652 0.0
outer loop
vertex 56.841156313994816 3.673360600467135 3.524958103184872e-16
vertex 57.26659521477673 3.0951101192054864 3.000000000000002
vertex 57.26659521477673 3.0951101192054864 3.524958103184872e-16
endloop
endfacet
facet normal 0.7212381037175531 0.6926872293798321 0.0
outer loop
vertex 57.26659521477673 3.0951101192054864 3.000000000000002
vertex 56.841156313994816 3.673360600467135 3.524958103184872e-16
vertex 56.841156313994816 3.673360600467135 3.000000000000002
endloop
endfacet
facet normal 0.0 0.0 -1.0
outer loop
vertex 80.99999999999999 10.000000000000027 2.46747067222941e-15
vertex 77.99999999999999 2.255973186038318e-14 2.46747067222941e-15
vertex 77.99999999999999 10.000000000000027 2.46747067222941e-15
endloop
endfacet
facet normal 0.0 0.0 -1.0
outer loop
vertex 77.99999999999999 2.255973186038318e-14 2.46747067222941e-15
vertex 80.99999999999999 10.000000000000027 2.46747067222941e-15
vertex 80.99999999999999 0.0 2.46747067222941e-15
endloop
endfacet
facet normal 1.0 0.0 0.0
outer loop
vertex 80.99999999999999 10.000000000000027 2.46747067222941e-15
vertex 80.99999999999999 0.0 8.000000000000002
vertex 80.99999999999999 0.0 2.46747067222941e-15
endloop
endfacet
facet normal 1.0 0.0 0.0
outer loop
vertex 80.99999999999999 0.0 8.000000000000002
vertex 80.99999999999999 10.000000000000027 2.46747067222941e-15
vertex 80.99999999999999 10.000000000000027 8.000000000000002
endloop
endfacet
facet normal 0.0 0.0 1.0
outer loop
vertex 80.99999999999999 0.0 8.000000000000002
vertex 77.99999999999999 10.000000000000027 8.000000000000002
vertex 77.99999999999999 0.0 8.000000000000002
endloop
endfacet
facet normal 0.0 0.0 1.0
outer loop
vertex 77.99999999999999 10.000000000000027 8.000000000000002
vertex 80.99999999999999 0.0 8.000000000000002
vertex 80.99999999999999 10.000000000000027 8.000000000000002
endloop
endfacet
facet normal 0.0 0.0 -1.0
outer loop
vertex 3.0 10.000000000000027 2.46747067222941e-15
vertex 0.0 2.255973186038318e-14 2.46747067222941e-15
vertex 0.0 10.000000000000027 2.46747067222941e-15
endloop
endfacet
facet normal 0.0 0.0 -1.0
outer loop
vertex 0.0 2.255973186038318e-14 2.46747067222941e-15
vertex 3.0 10.000000000000027 2.46747067222941e-15
vertex 3.0 2.255973186038318e-14 2.46747067222941e-15
endloop
endfacet
facet normal -1.0 0.0 0.0
outer loop
vertex 0.0 10.000000000000027 8.000000000000002
vertex 0.0 2.255973186038318e-14 2.46747067222941e-15
vertex 0.0 2.255973186038318e-14 8.000000000000002
endloop
endfacet
facet normal -1.0 0.0 0.0
outer loop
vertex 0.0 2.255973186038318e-14 2.46747067222941e-15
vertex 0.0 10.000000000000027 8.000000000000002
vertex 0.0 10.000000000000027 2.46747067222941e-15
endloop
endfacet
facet normal 0.0 0.0 1.0
outer loop
vertex 3.0 2.255973186038318e-14 8.000000000000002
vertex 0.0 10.000000000000027 8.000000000000002
vertex 0.0 2.255973186038318e-14 8.000000000000002
endloop
endfacet
facet normal 0.0 0.0 1.0
outer loop
vertex 0.0 10.000000000000027 8.000000000000002
vertex 3.0 2.255973186038318e-14 8.000000000000002
vertex 3.0 10.000000000000027 8.000000000000002
endloop
endfacet
facet normal -1.0 0.0 0.0
outer loop
vertex 77.99999999999999 10.000000000000027 8.000000000000002
vertex 77.99999999999999 2.255973186038318e-14 3.000000000000002
vertex 77.99999999999999 0.0 8.000000000000002
endloop
endfacet
facet normal -1.0 0.0 0.0
outer loop
vertex 77.99999999999999 2.255973186038318e-14 3.000000000000002
vertex 77.99999999999999 10.000000000000027 8.000000000000002
vertex 77.99999999999999 10.000000000000027 3.000000000000002
endloop
endfacet
facet normal -4.4831773579016314e-32 1.0 2.892547867492459e-31
outer loop
vertex 0.0 10.000000000000027 8.000000000000002
vertex 3.0 10.000000000000027 2.46747067222941e-15
vertex 0.0 10.000000000000027 2.46747067222941e-15
endloop
endfacet
facet normal -4.4831773579016314e-32 1.0 2.892547867492459e-31
outer loop
vertex 3.0 10.000000000000027 2.46747067222941e-15
vertex 0.0 10.000000000000027 8.000000000000002
vertex 3.0 10.000000000000027 3.000000000000002
endloop
endfacet
facet normal -4.4831773579016314e-32 1.0 2.892547867492459e-31
outer loop
vertex 3.0 10.000000000000027 2.46747067222941e-15
vertex 3.0 10.000000000000027 3.000000000000002
vertex 77.99999999999999 10.000000000000027 2.46747067222941e-15
endloop
endfacet
facet normal -4.4831773579016314e-32 1.0 2.892547867492459e-31
outer loop
vertex 77.99999999999999 10.000000000000027 2.46747067222941e-15
vertex 3.0 10.000000000000027 3.000000000000002
vertex 80.99999999999999 10.000000000000027 2.46747067222941e-15
endloop
endfacet
facet normal -4.4831773579016314e-32 1.0 2.892547867492459e-31
outer loop
vertex 3.0 10.000000000000027 3.000000000000002
vertex 0.0 10.000000000000027 8.000000000000002
vertex 3.0 10.000000000000027 8.000000000000002
endloop
endfacet
facet normal -4.4831773579016314e-32 1.0 2.892547867492459e-31
outer loop
vertex 7.999999999999999 10.000000000000027 8.000000000000007
vertex 11.0 10.000000000000027 3.000000000000002
vertex 7.999999999999999 10.000000000000027 3.000000000000002
endloop
endfacet
facet normal -4.4831773579016314e-32 1.0 2.892547867492459e-31
outer loop
vertex 11.0 10.000000000000027 3.000000000000002
vertex 7.999999999999999 10.000000000000027 8.000000000000007
vertex 11.0 10.000000000000027 8.000000000000007
endloop
endfacet
facet normal -4.4831773579016314e-32 1.0 2.892547867492459e-31
outer loop
vertex 69.99999999999999 10.000000000000027 8.000000000000004
vertex 72.99999999999999 10.000000000000027 3.000000000000002
vertex 69.99999999999999 10.000000000000027 3.000000000000002
endloop
endfacet
facet normal -4.4831773579016314e-32 1.0 2.892547867492459e-31
outer loop
vertex 72.99999999999999 10.000000000000027 3.000000000000002
vertex 69.99999999999999 10.000000000000027 8.000000000000004
vertex 72.99999999999999 10.000000000000027 8.000000000000004
endloop
endfacet
facet normal -4.4831773579016314e-32 1.0 2.892547867492459e-31
outer loop
vertex 80.99999999999999 10.000000000000027 2.46747067222941e-15
vertex 77.99999999999999 10.000000000000027 3.000000000000002
vertex 80.99999999999999 10.000000000000027 8.000000000000002
endloop
endfacet
facet normal -4.4831773579016314e-32 1.0 2.892547867492459e-31
outer loop
vertex 77.99999999999999 10.000000000000027 3.000000000000002
vertex 80.99999999999999 10.000000000000027 2.46747067222941e-15
vertex 3.0 10.000000000000027 3.000000000000002
endloop
endfacet
facet normal -4.4831773579016314e-32 1.0 2.892547867492459e-31
outer loop
vertex 77.99999999999999 10.000000000000027 3.000000000000002
vertex 3.0 10.000000000000027 3.000000000000002
vertex 7.999999999999999 10.000000000000027 3.000000000000002
endloop
endfacet
facet normal -4.4831773579016314e-32 1.0 2.892547867492459e-31
outer loop
vertex 77.99999999999999 10.000000000000027 3.000000000000002
vertex 7.999999999999999 10.000000000000027 3.000000000000002
vertex 11.0 10.000000000000027 3.000000000000002
endloop
endfacet
facet normal -4.4831773579016314e-32 1.0 2.892547867492459e-31
outer loop
vertex 77.99999999999999 10.000000000000027 3.000000000000002
vertex 11.0 10.000000000000027 3.000000000000002
vertex 69.99999999999999 10.000000000000027 3.000000000000002
endloop
endfacet
facet normal -4.4831773579016314e-32 1.0 2.892547867492459e-31
outer loop
vertex 77.99999999999999 10.000000000000027 3.000000000000002
vertex 69.99999999999999 10.000000000000027 3.000000000000002
vertex 72.99999999999999 10.000000000000027 3.000000000000002
endloop
endfacet
facet normal -4.4831773579016314e-32 1.0 2.892547867492459e-31
outer loop
vertex 80.99999999999999 10.000000000000027 8.000000000000002
vertex 77.99999999999999 10.000000000000027 3.000000000000002
vertex 77.99999999999999 10.000000000000027 8.000000000000002
endloop
endfacet
facet normal -1.1774442183071227e-16 -1.0 -2.7353023618247473e-16
outer loop
vertex 80.99999999999999 0.0 8.000000000000002
vertex 77.99999999999999 2.255973186038318e-14 2.46747067222941e-15
vertex 80.99999999999999 0.0 2.46747067222941e-15
endloop
endfacet
facet normal -1.1774442183071227e-16 -1.0 -2.7353023618247473e-16
outer loop
vertex 77.99999999999999 2.255973186038318e-14 2.46747067222941e-15
vertex 80.99999999999999 0.0 8.000000000000002
vertex 77.99999999999999 2.255973186038318e-14 3.000000000000002
endloop
endfacet
facet normal -1.1774442183071227e-16 -1.0 -2.7353023618247473e-16
outer loop
vertex 77.99999999999999 2.255973186038318e-14 2.46747067222941e-15
vertex 77.99999999999999 2.255973186038318e-14 3.000000000000002
vertex 3.0 2.255973186038318e-14 2.46747067222941e-15
endloop
endfacet
facet normal -1.1774442183071227e-16 -1.0 -2.7353023618247473e-16
outer loop
vertex 3.0 2.255973186038318e-14 2.46747067222941e-15
vertex 77.99999999999999 2.255973186038318e-14 3.000000000000002
vertex 0.0 2.255973186038318e-14 2.46747067222941e-15
endloop
endfacet
facet normal -1.1774442183071227e-16 -1.0 -2.7353023618247473e-16
outer loop
vertex 77.99999999999999 2.255973186038318e-14 3.000000000000002
vertex 80.99999999999999 0.0 8.000000000000002
vertex 77.99999999999999 0.0 8.000000000000002
endloop
endfacet
facet normal -1.1774442183071227e-16 -1.0 -2.7353023618247473e-16
outer loop
vertex 72.99999999999999 2.255973186038318e-14 8.000000000000004
vertex 69.99999999999999 2.255973186038318e-14 3.000000000000002
vertex 72.99999999999999 2.255973186038318e-14 3.000000000000002
endloop
endfacet
facet normal -1.1774442183071227e-16 -1.0 -2.7353023618247473e-16
outer loop
vertex 69.99999999999999 2.255973186038318e-14 3.000000000000002
vertex 72.99999999999999 2.255973186038318e-14 8.000000000000004
vertex 69.99999999999999 2.255973186038318e-14 8.000000000000004
endloop
endfacet
facet normal -1.1774442183071227e-16 -1.0 -2.7353023618247473e-16
outer loop
vertex 11.000000000000002 2.255973186038318e-14 8.000000000000007
vertex 7.9999999999999964 2.255973186038318e-14 3.000000000000002
vertex 11.000000000000002 2.255973186038318e-14 3.000000000000002
endloop
endfacet
facet normal -1.1774442183071227e-16 -1.0 -2.7353023618247473e-16
outer loop
vertex 7.9999999999999964 2.255973186038318e-14 3.000000000000002
vertex 11.000000000000002 2.255973186038318e-14 8.000000000000007
vertex 7.9999999999999964 2.255973186038318e-14 8.000000000000007
endloop
endfacet
facet normal -1.1774442183071227e-16 -1.0 -2.7353023618247473e-16
outer loop
vertex 0.0 2.255973186038318e-14 2.46747067222941e-15
vertex 3.0 2.255973186038318e-14 3.000000000000002
vertex 0.0 2.255973186038318e-14 8.000000000000002
endloop
endfacet
facet normal -1.1774442183071227e-16 -1.0 -2.7353023618247473e-16
outer loop
vertex 3.0 2.255973186038318e-14 3.000000000000002
vertex 0.0 2.255973186038318e-14 2.46747067222941e-15
vertex 77.99999999999999 2.255973186038318e-14 3.000000000000002
endloop
endfacet
facet normal -1.1774442183071227e-16 -1.0 -2.7353023618247473e-16
outer loop
vertex 3.0 2.255973186038318e-14 3.000000000000002
vertex 77.99999999999999 2.255973186038318e-14 3.000000000000002
vertex 72.99999999999999 2.255973186038318e-14 3.000000000000002
endloop
endfacet
facet normal -1.1774442183071227e-16 -1.0 -2.7353023618247473e-16
outer loop
vertex 3.0 2.255973186038318e-14 3.000000000000002
vertex 72.99999999999999 2.255973186038318e-14 3.000000000000002
vertex 69.99999999999999 2.255973186038318e-14 3.000000000000002
endloop
endfacet
facet normal -1.1774442183071227e-16 -1.0 -2.7353023618247473e-16
outer loop
vertex 3.0 2.255973186038318e-14 3.000000000000002
vertex 69.99999999999999 2.255973186038318e-14 3.000000000000002
vertex 11.000000000000002 2.255973186038318e-14 3.000000000000002
endloop
endfacet
facet normal -1.1774442183071227e-16 -1.0 -2.7353023618247473e-16
outer loop
vertex 3.0 2.255973186038318e-14 3.000000000000002
vertex 11.000000000000002 2.255973186038318e-14 3.000000000000002
vertex 7.9999999999999964 2.255973186038318e-14 3.000000000000002
endloop
endfacet
facet normal -1.1774442183071227e-16 -1.0 -2.7353023618247473e-16
outer loop
vertex 0.0 2.255973186038318e-14 8.000000000000002
vertex 3.0 2.255973186038318e-14 3.000000000000002
vertex 3.0 2.255973186038318e-14 8.000000000000002
endloop
endfacet
facet normal 1.0 0.0 0.0
outer loop
vertex 3.0 10.000000000000027 3.000000000000002
vertex 3.0 2.255973186038318e-14 8.000000000000002
vertex 3.0 2.255973186038318e-14 3.000000000000002
endloop
endfacet
facet normal 1.0 0.0 0.0
outer loop
vertex 3.0 2.255973186038318e-14 8.000000000000002
vertex 3.0 10.000000000000027 3.000000000000002
vertex 3.0 10.000000000000027 8.000000000000002
endloop
endfacet
facet normal 0.0 0.0 1.0
outer loop
vertex 11.000000000000002 2.255973186038318e-14 8.000000000000007
vertex 7.999999999999999 10.000000000000027 8.000000000000007
vertex 7.9999999999999964 2.255973186038318e-14 8.000000000000007
endloop
endfacet
facet normal 0.0 0.0 1.0
outer loop
vertex 7.999999999999999 10.000000000000027 8.000000000000007
vertex 11.000000000000002 2.255973186038318e-14 8.000000000000007
vertex 11.0 10.000000000000027 8.000000000000007
endloop
endfacet
facet normal 0.0 0.0 1.0
outer loop
vertex 72.99999999999999 2.255973186038318e-14 8.000000000000004
vertex 69.99999999999999 10.000000000000027 8.000000000000004
vertex 69.99999999999999 2.255973186038318e-14 8.000000000000004
endloop
endfacet
facet normal 0.0 0.0 1.0
outer loop
vertex 69.99999999999999 10.000000000000027 8.000000000000004
vertex 72.99999999999999 2.255973186038318e-14 8.000000000000004
vertex 72.99999999999999 10.000000000000027 8.000000000000004
endloop
endfacet
facet normal 0.0 0.0 1.0
outer loop
vertex 11.000000000000002 2.255973186038318e-14 3.000000000000002
vertex 19.192764073392475 3.988543418792624 3.000000000000002
vertex 19.018115548064774 4.684869326668171 3.000000000000002
endloop
endfacet
facet normal 0.0 0.0 1.0
outer loop
vertex 19.192764073392475 3.988543418792624 3.000000000000002
vertex 11.000000000000002 2.255973186038318e-14 3.000000000000002
vertex 19.54168400108629 3.361146605415334 3.000000000000002
endloop
endfacet
facet normal 0.0 0.0 1.0
outer loop
vertex 19.54168400108629 3.361146605415334 3.000000000000002
vertex 11.000000000000002 2.255973186038318e-14 3.000000000000002
vertex 20.04109701469134 2.8454349425456993 3.000000000000002
endloop
endfacet
facet normal 0.0 0.0 1.0
outer loop
vertex 20.04109701469134 2.8454349425456993 3.000000000000002
vertex 11.000000000000002 2.255973186038318e-14 3.000000000000002
vertex 20.656968942649463 2.47655332775446 3.000000000000002
endloop
endfacet
facet normal 0.0 0.0 1.0
outer loop
vertex 20.656968942649463 2.47655332775446 3.000000000000002
vertex 11.000000000000002 2.255973186038318e-14 3.000000000000002
vertex 21.34732913084679 2.2796404334839697 3.000000000000002
endloop
endfacet
facet normal 0.0 0.0 1.0
outer loop
vertex 21.34732913084679 2.2796404334839697 3.000000000000002
vertex 11.000000000000002 2.255973186038318e-14 3.000000000000002
vertex 69.99999999999999 2.255973186038318e-14 3.000000000000002
endloop
endfacet
facet normal 0.0 0.0 1.0
outer loop
vertex 21.34732913084679 2.2796404334839697 3.000000000000002
vertex 69.99999999999999 2.255973186038318e-14 3.000000000000002
vertex 22.065130673331847 2.268115548064799 3.000000000000002
endloop
endfacet
facet normal 0.0 0.0 1.0
outer loop
vertex 22.065130673331847 2.268115548064799 3.000000000000002
vertex 69.99999999999999 2.255973186038318e-14 3.000000000000002
vertex 22.76145658120739 2.442764073392504 3.000000000000002
endloop
endfacet
facet normal 0.0 0.0 1.0
outer loop
vertex 22.76145658120739 2.442764073392504 3.000000000000002
vertex 69.99999999999999 2.255973186038318e-14 3.000000000000002
vertex 23.388853394584686 2.7916840010863133 3.000000000000002
endloop
endfacet
facet normal 0.0 0.0 1.0
outer loop
vertex 23.388853394584686 2.7916840010863133 3.000000000000002
vertex 69.99999999999999 2.255973186038318e-14 3.000000000000002
vertex 23.90456505745432 3.291097014691359 3.000000000000002
endloop
endfacet
facet normal 0.0 0.0 1.0
outer loop
vertex 23.90456505745432 3.291097014691359 3.000000000000002
vertex 69.99999999999999 2.255973186038318e-14 3.000000000000002
vertex 24.27344667224555 3.9069689426494785 3.000000000000002
endloop
endfacet
facet normal 0.0 0.0 1.0
outer loop
vertex 24.27344667224555 3.9069689426494785 3.000000000000002
vertex 69.99999999999999 2.255973186038318e-14 3.000000000000002
vertex 24.470359566516056 4.5973291308468065 3.000000000000002
endloop
endfacet
facet normal 0.0 0.0 1.0
outer loop
vertex 24.470359566516056 4.5973291308468065 3.000000000000002
vertex 69.99999999999999 2.255973186038318e-14 3.000000000000002
vertex 24.476824773615725 5.000000000000013 3.000000000000002
endloop
endfacet
facet normal 0.0 0.0 1.0
outer loop
vertex 24.476824773615725 5.000000000000013 3.000000000000002
vertex 69.99999999999999 2.255973186038318e-14 3.000000000000002
vertex 24.481884451935226 5.315130673331867 3.000000000000002
endloop
endfacet
facet normal 0.0 0.0 1.0
outer loop
vertex 24.481884451935226 5.315130673331867 3.000000000000002
vertex 69.99999999999999 2.255973186038318e-14 3.000000000000002
vertex 58.48476601040628 2.3586145792084032 3.000000000000002
endloop
endfacet
facet normal 0.0 0.0 1.0
outer loop
vertex 24.481884451935226 5.315130673331867 3.000000000000002
vertex 58.48476601040628 2.3586145792084032 3.000000000000002
vertex 57.82719987394021 2.6466747353406186 3.000000000000002
endloop
endfacet
facet normal 0.0 0.0 1.0
outer loop
vertex 24.481884451935226 5.315130673331867 3.000000000000002
vertex 57.82719987394021 2.6466747353406186 3.000000000000002
vertex 57.26659521477673 3.0951101192054864 3.000000000000002
endloop
endfacet
facet normal 0.0 0.0 1.0
outer loop
vertex 24.481884451935226 5.315130673331867 3.000000000000002
vertex 57.26659521477673 3.0951101192054864 3.000000000000002
vertex 56.841156313994816 3.673360600467135 3.000000000000002
endloop
endfacet
facet normal 0.0 0.0 1.0
outer loop
vertex 24.481884451935226 5.315130673331867 3.000000000000002
vertex 56.841156313994816 3.673360600467135 3.000000000000002
vertex 56.579876129611755 4.342019364431687 3.000000000000002
endloop
endfacet
facet normal 0.0 0.0 1.0
outer loop
vertex 24.481884451935226 5.315130673331867 3.000000000000002
vertex 56.579876129611755 4.342019364431687 3.000000000000002
vertex 56.50673214334267 5.000000000000013 3.000000000000002
endloop
endfacet
facet normal 0.0 0.0 1.0
outer loop
vertex 24.481884451935226 5.315130673331867 3.000000000000002
vertex 56.50673214334267 5.000000000000013 3.000000000000002
vertex 56.50056047440732 5.055518421345805 3.000000000000002
endloop
endfacet
facet normal 0.0 0.0 1.0
outer loop
vertex 58.48476601040628 2.3586145792084032 3.000000000000002
vertex 69.99999999999999 2.255973186038318e-14 3.000000000000002
vertex 59.194481578654226 2.2505604744073424 3.000000000000002
endloop
endfacet
facet normal 0.0 0.0 1.0
outer loop
vertex 59.194481578654226 2.2505604744073424 3.000000000000002
vertex 69.99999999999999 2.255973186038318e-14 3.000000000000002
vertex 59.90798063556834 2.329876129611777 3.000000000000002
endloop
endfacet
facet normal 0.0 0.0 1.0
outer loop
vertex 59.90798063556834 2.329876129611777 3.000000000000002
vertex 69.99999999999999 2.255973186038318e-14 3.000000000000002
vertex 60.57663939953288 2.5911563139948384 3.000000000000002
endloop
endfacet
facet normal 0.0 0.0 1.0
outer loop
vertex 60.57663939953288 2.5911563139948384 3.000000000000002
vertex 69.99999999999999 2.255973186038318e-14 3.000000000000002
vertex 61.15488988079452 3.0165952147767405 3.000000000000002
endloop
endfacet
facet normal 0.0 0.0 1.0
outer loop
vertex 61.15488988079452 3.0165952147767405 3.000000000000002
vertex 69.99999999999999 2.255973186038318e-14 3.000000000000002
vertex 61.6033252646594 3.577199873940232 3.000000000000002
endloop
endfacet
facet normal 0.0 0.0 1.0
outer loop
vertex 61.6033252646594 3.577199873940232 3.000000000000002
vertex 69.99999999999999 2.255973186038318e-14 3.000000000000002
vertex 61.8913854207916 4.234766010406304 3.000000000000002
endloop
endfacet
facet normal 0.0 0.0 1.0
outer loop
vertex 61.8913854207916 4.234766010406304 3.000000000000002
vertex 69.99999999999999 2.255973186038318e-14 3.000000000000002
vertex 61.99943952559266 4.944481578654244 3.000000000000002
endloop
endfacet
facet normal 0.0 0.0 1.0
outer loop
vertex 11.0 10.000000000000027 3.000000000000002
vertex 21.434869326668153 7.73188445193525 3.000000000000002
vertex 69.99999999999999 10.000000000000027 3.000000000000002
endloop
endfacet
facet normal 0.0 0.0 1.0
outer loop
vertex 21.434869326668153 7.73188445193525 3.000000000000002
vertex 11.0 10.000000000000027 3.000000000000002
vertex 20.73854341879261 7.557235926607546 3.000000000000002
endloop
endfacet
facet normal 0.0 0.0 1.0
outer loop
vertex 20.73854341879261 7.557235926607546 3.000000000000002
vertex 11.0 10.000000000000027 3.000000000000002
vertex 20.111146605415314 7.2083159989137355 3.000000000000002
endloop
endfacet
facet normal 0.0 0.0 1.0
outer loop
vertex 20.111146605415314 7.2083159989137355 3.000000000000002
vertex 11.0 10.000000000000027 3.000000000000002
vertex 11.000000000000002 2.255973186038318e-14 3.000000000000002
endloop
endfacet
facet normal 0.0 0.0 1.0
outer loop
vertex 20.111146605415314 7.2083159989137355 3.000000000000002
vertex 11.000000000000002 2.255973186038318e-14 3.000000000000002
vertex 19.595434942545673 6.708902985308679 3.000000000000002
endloop
endfacet
facet normal 0.0 0.0 1.0
outer loop
vertex 19.595434942545673 6.708902985308679 3.000000000000002
vertex 11.000000000000002 2.255973186038318e-14 3.000000000000002
vertex 19.226553327754445 6.093031057350548 3.000000000000002
endloop
endfacet
facet normal 0.0 0.0 1.0
outer loop
vertex 19.226553327754445 6.093031057350548 3.000000000000002
vertex 11.000000000000002 2.255973186038318e-14 3.000000000000002
vertex 19.029640433483944 5.40267086915322 3.000000000000002
endloop
endfacet
facet normal 0.0 0.0 1.0
outer loop
vertex 19.029640433483944 5.40267086915322 3.000000000000002
vertex 11.000000000000002 2.255973186038318e-14 3.000000000000002
vertex 19.018115548064774 4.684869326668171 3.000000000000002
endloop
endfacet
facet normal 0.0 0.0 1.0
outer loop
vertex 19.029640433483944 5.40267086915322 3.000000000000002
vertex 19.018115548064774 4.684869326668171 3.000000000000002
vertex 19.023175226384275 5.000000000000013 3.000000000000002
endloop
endfacet
facet normal 0.0 0.0 1.0
outer loop
vertex 69.99999999999999 10.000000000000027 3.000000000000002
vertex 21.434869326668153 7.73188445193525 3.000000000000002
vertex 21.75 7.726824773615748 3.000000000000002
endloop
endfacet
facet normal 0.0 0.0 1.0
outer loop
vertex 69.99999999999999 10.000000000000027 3.000000000000002
vertex 21.75 7.726824773615748 3.000000000000002
vertex 22.152670869153205 7.720359566516068 3.000000000000002
endloop
endfacet
facet normal 0.0 0.0 1.0
outer loop
vertex 69.99999999999999 10.000000000000027 3.000000000000002
vertex 22.152670869153205 7.720359566516068 3.000000000000002
vertex 22.843031057350533 7.523446672245567 3.000000000000002
endloop
endfacet
facet normal 0.0 0.0 1.0
outer loop
vertex 69.99999999999999 10.000000000000027 3.000000000000002
vertex 22.843031057350533 7.523446672245567 3.000000000000002
vertex 23.458902985308658 7.154565057454339 3.000000000000002
endloop
endfacet
facet normal 0.0 0.0 1.0
outer loop
vertex 69.99999999999999 10.000000000000027 3.000000000000002
vertex 23.458902985308658 7.154565057454339 3.000000000000002
vertex 23.95831599891371 6.638853394584704 3.000000000000002
endloop
endfacet
facet normal 0.0 0.0 1.0
outer loop
vertex 69.99999999999999 10.000000000000027 3.000000000000002
vertex 23.95831599891371 6.638853394584704 3.000000000000002
vertex 24.307235926607525 6.011456581207403 3.000000000000002
endloop
endfacet
facet normal 0.0 0.0 1.0
outer loop
vertex 69.99999999999999 10.000000000000027 3.000000000000002
vertex 24.307235926607525 6.011456581207403 3.000000000000002
vertex 24.481884451935226 5.315130673331867 3.000000000000002
endloop
endfacet
facet normal 0.0 0.0 1.0
outer loop
vertex 69.99999999999999 10.000000000000027 3.000000000000002
vertex 24.481884451935226 5.315130673331867 3.000000000000002
vertex 58.592019364431664 7.670123870388261 3.000000000000002
endloop
endfacet
facet normal 0.0 0.0 1.0
outer loop
vertex 58.592019364431664 7.670123870388261 3.000000000000002
vertex 24.481884451935226 5.315130673331867 3.000000000000002
vertex 57.923360600467106 7.408843686005199 3.000000000000002
endloop
endfacet
facet normal 0.0 0.0 1.0
outer loop
vertex 57.923360600467106 7.408843686005199 3.000000000000002
vertex 24.481884451935226 5.315130673331867 3.000000000000002
vertex 57.345110119205465 6.983404785223297 3.000000000000002
endloop
endfacet
facet normal 0.0 0.0 1.0
outer loop
vertex 57.345110119205465 6.983404785223297 3.000000000000002
vertex 24.481884451935226 5.315130673331867 3.000000000000002
vertex 56.89667473534059 6.422800126059806 3.000000000000002
endloop
endfacet
facet normal 0.0 0.0 1.0
outer loop
vertex 56.89667473534059 6.422800126059806 3.000000000000002
vertex 24.481884451935226 5.315130673331867 3.000000000000002
vertex 56.608614579208385 5.765233989593723 3.000000000000002
endloop
endfacet
facet normal 0.0 0.0 1.0
outer loop
vertex 56.608614579208385 5.765233989593723 3.000000000000002
vertex 24.481884451935226 5.315130673331867 3.000000000000002
vertex 56.50056047440732 5.055518421345805 3.000000000000002
endloop
endfacet
facet normal 0.0 0.0 1.0
outer loop
vertex 69.99999999999999 10.000000000000027 3.000000000000002
vertex 58.592019364431664 7.670123870388261 3.000000000000002
vertex 59.30551842134579 7.749439525592695 3.000000000000002
endloop
endfacet
facet normal 0.0 0.0 1.0
outer loop
vertex 69.99999999999999 10.000000000000027 3.000000000000002
vertex 59.30551842134579 7.749439525592695 3.000000000000002
vertex 60.0152339895937 7.641385420791635 3.000000000000002
endloop
endfacet
facet normal 0.0 0.0 1.0
outer loop
vertex 69.99999999999999 10.000000000000027 3.000000000000002
vertex 60.0152339895937 7.641385420791635 3.000000000000002
vertex 60.6728001260598 7.35332526465942 3.000000000000002
endloop
endfacet
facet normal 0.0 0.0 1.0
outer loop
vertex 69.99999999999999 10.000000000000027 3.000000000000002
vertex 60.6728001260598 7.35332526465942 3.000000000000002
vertex 61.23340478522328 6.904889880794552 3.000000000000002
endloop
endfacet
facet normal 0.0 0.0 1.0
outer loop
vertex 69.99999999999999 10.000000000000027 3.000000000000002
vertex 61.23340478522328 6.904889880794552 3.000000000000002
vertex 61.65884368600519 6.326639399532903 3.000000000000002
endloop
endfacet
facet normal 0.0 0.0 1.0
outer loop
vertex 69.99999999999999 10.000000000000027 3.000000000000002
vertex 61.65884368600519 6.326639399532903 3.000000000000002
vertex 61.92012387038823 5.657980635568362 3.000000000000002
endloop
endfacet
facet normal 0.0 0.0 1.0
outer loop
vertex 69.99999999999999 10.000000000000027 3.000000000000002
vertex 61.92012387038823 5.657980635568362 3.000000000000002
vertex 61.99326785665732 5.000000000000013 3.000000000000002
endloop
endfacet
facet normal 0.0 0.0 1.0
outer loop
vertex 69.99999999999999 10.000000000000027 3.000000000000002
vertex 61.99326785665732 5.000000000000013 3.000000000000002
vertex 61.99943952559266 4.944481578654244 3.000000000000002
endloop
endfacet
facet normal 0.0 0.0 1.0
outer loop
vertex 69.99999999999999 10.000000000000027 3.000000000000002
vertex 61.99943952559266 4.944481578654244 3.000000000000002
vertex 69.99999999999999 2.255973186038318e-14 3.000000000000002
endloop
endfacet
facet normal -1.0 -0.0 -0.0
outer loop
vertex 69.99999999999999 10.000000000000027 8.000000000000004
vertex 69.99999999999999 2.255973186038318e-14 3.000000000000002
vertex 69.99999999999999 2.255973186038318e-14 8.000000000000004
endloop
endfacet
facet normal -1.0 -0.0 -0.0
outer loop
vertex 69.99999999999999 2.255973186038318e-14 3.000000000000002
vertex 69.99999999999999 10.000000000000027 8.000000000000004
vertex 69.99999999999999 10.000000000000027 3.000000000000002
endloop
endfacet
facet normal 1.0 2.819966482547896e-16 0.0
outer loop
vertex 11.0 10.000000000000027 3.000000000000002
vertex 11.000000000000002 2.255973186038318e-14 8.000000000000007
vertex 11.000000000000002 2.255973186038318e-14 3.000000000000002
endloop
endfacet
facet normal 1.0 2.819966482547896e-16 0.0
outer loop
vertex 11.000000000000002 2.255973186038318e-14 8.000000000000007
vertex 11.0 10.000000000000027 3.000000000000002
vertex 11.0 10.000000000000027 8.000000000000007
endloop
endfacet
facet normal 0.0 0.0 1.0
outer loop
vertex 7.9999999999999964 2.255973186038318e-14 3.000000000000002
vertex 3.0 10.000000000000027 3.000000000000002
vertex 3.0 2.255973186038318e-14 3.000000000000002
endloop
endfacet
facet normal 0.0 0.0 1.0
outer loop
vertex 3.0 10.000000000000027 3.000000000000002
vertex 7.9999999999999964 2.255973186038318e-14 3.000000000000002
vertex 7.999999999999999 10.000000000000027 3.000000000000002
endloop
endfacet
facet normal -1.0 2.819966482547896e-16 0.0
outer loop
vertex 7.999999999999999 10.000000000000027 8.000000000000007
vertex 7.9999999999999964 2.255973186038318e-14 3.000000000000002
vertex 7.9999999999999964 2.255973186038318e-14 8.000000000000007
endloop
endfacet
facet normal -1.0 2.819966482547896e-16 0.0
outer loop
vertex 7.9999999999999964 2.255973186038318e-14 3.000000000000002
vertex 7.999999999999999 10.000000000000027 8.000000000000007
vertex 7.999999999999999 10.000000000000027 3.000000000000002
endloop
endfacet
facet normal 0.0 0.0 1.0
outer loop
vertex 77.99999999999999 2.255973186038318e-14 3.000000000000002
vertex 72.99999999999999 10.000000000000027 3.000000000000002
vertex 72.99999999999999 2.255973186038318e-14 3.000000000000002
endloop
endfacet
facet normal 0.0 0.0 1.0
outer loop
vertex 72.99999999999999 10.000000000000027 3.000000000000002
vertex 77.99999999999999 2.255973186038318e-14 3.000000000000002
vertex 77.99999999999999 10.000000000000027 3.000000000000002
endloop
endfacet
facet normal 1.0 0.0 0.0
outer loop
vertex 72.99999999999999 10.000000000000027 3.000000000000002
vertex 72.99999999999999 2.255973186038318e-14 8.000000000000004
vertex 72.99999999999999 2.255973186038318e-14 3.000000000000002
endloop
endfacet
facet normal 1.0 0.0 0.0
outer loop
vertex 72.99999999999999 2.255973186038318e-14 8.000000000000004
vertex 72.99999999999999 10.000000000000027 3.000000000000002
vertex 72.99999999999999 10.000000000000027 8.000000000000004
endloop
endfacet
endsolid bottom
