solid side
facet normal -0.7071067811865471 -0.707106781186548 -0.0
outer loop
vertex 64.19595949289341 15.000000000000114 5.0
vertex 15.000000000000007 64.19595949289345 0.0
vertex 64.19595949289341 15.000000000000114 0.0
endloop
endfacet
facet normal -0.7071067811865471 -0.707106781186548 -0.0
outer loop
vertex 15.000000000000007 64.19595949289345 0.0
vertex 64.19595949289341 15.000000000000114 5.0
vertex 15.000000000000007 64.19595949289345 5.0
endloop
endfacet
facet normal -5.732109936701724e-17 1.0 0.0
outer loop
vertex 15.000000000000007 15.00000000000011 5.0
vertex 64.19595949289341 15.000000000000114 0.0
vertex 15.000000000000007 15.00000000000011 0.0
endloop
endfacet
facet normal -5.732109936701724e-17 1.0 0.0
outer loop
vertex 64.19595949289341 15.000000000000114 0.0
vertex 15.000000000000007 15.00000000000011 5.0
vertex 64.19595949289341 15.000000000000114 5.0
endloop
endfacet
facet normal 1.0 0.0 0.0
outer loop
vertex 15.000000000000007 64.19595949289345 0.0
vertex 15.000000000000007 15.00000000000011 5.0
vertex 15.000000000000007 15.00000000000011 0.0
endloop
endfacet
facet normal 1.0 0.0 0.0
outer loop
vertex 15.000000000000007 15.00000000000011 5.0
vertex 15.000000000000007 64.19595949289345 0.0
vertex 15.000000000000007 64.19595949289345 5.0
endloop
endfacet
facet normal 0.2588190451025205 -0.9659258262890684 0.0
outer loop
vertex 95.65540963570643 0.511112605663982 5.0
vertex 93.7310168424694 0.12832707939284962 0.0
vertex 95.65540963570643 0.511112605663982 0.0
endloop
endfacet
facet normal 0.13052619222005327 -0.9914448613738103 0.0
outer loop
vertex 93.7310168424694 0.12832707939284962 0.0
vertex 95.65540963570643 0.511112605663982 5.0
vertex 93.7310168424694 0.12832707939284962 5.0
endloop
endfacet
facet normal 0.3826834323650899 -0.9238795325112866 0.0
outer loop
vertex 97.51337544464498 1.141807012330704 5.0
vertex 95.65540963570643 0.511112605663982 0.0
vertex 97.51337544464498 1.141807012330704 0.0
endloop
endfacet
facet normal 0.2588190451025205 -0.9659258262890684 0.0
outer loop
vertex 95.65540963570643 0.511112605663982 0.0
vertex 97.51337544464498 1.141807012330704 5.0
vertex 95.65540963570643 0.511112605663982 5.0
endloop
endfacet
facet normal 0.5000000000000003 -0.8660254037844385 0.0
outer loop
vertex 99.27312395916863 2.009618943233427 5.0
vertex 97.51337544464498 1.141807012330704 0.0
vertex 99.27312395916863 2.009618943233427 0.0
endloop
endfacet
facet normal 0.3826834323650899 -0.9238795325112866 0.0
outer loop
vertex 97.51337544464498 1.141807012330704 0.0
vertex 99.27312395916863 2.009618943233427 5.0
vertex 97.51337544464498 1.141807012330704 5.0
endloop
endfacet
facet normal 0.6087614290087194 -0.793353340291236 0.0
outer loop
vertex 100.90454539429943 3.099699895631479 5.0
vertex 99.27312395916863 2.009618943233427 0.0
vertex 100.90454539429943 3.099699895631479 0.0
endloop
endfacet
facet normal 0.5000000000000003 -0.8660254037844385 0.0
outer loop
vertex 99.27312395916863 2.009618943233427 0.0
vertex 100.90454539429943 3.099699895631479 5.0
vertex 99.27312395916863 2.009618943233427 5.0
endloop
endfacet
facet normal 0.7071067811865479 -0.7071067811865471 0.0
outer loop
vertex 102.37972567696684 4.393398282201792 5.0
vertex 100.90454539429943 3.099699895631479 0.0
vertex 102.37972567696684 4.393398282201792 0.0
endloop
endfacet
facet normal 0.6087614290087194 -0.793353340291236 0.0
outer loop
vertex 100.90454539429943 3.099699895631479 0.0
vertex 102.37972567696684 4.393398282201792 5.0
vertex 100.90454539429943 3.099699895631479 5.0
endloop
endfacet
facet normal 0.7933533402912366 -0.6087614290087187 0.0
outer loop
vertex 103.67342406353715 5.868578564869196 0.0
vertex 102.37972567696684 4.393398282201792 5.0
vertex 102.37972567696684 4.393398282201792 0.0
endloop
endfacet
facet normal 0.7071067811865479 -0.7071067811865471 0.0
outer loop
vertex 102.37972567696684 4.393398282201792 5.0
vertex 103.67342406353715 5.868578564869196 0.0
vertex 103.67342406353715 5.868578564869196 5.0
endloop
endfacet
facet normal 0.8660254037844387 -0.49999999999999983 0.0
outer loop
vertex 104.76350501593521 7.500000000000004 0.0
vertex 103.67342406353715 5.868578564869196 5.0
vertex 103.67342406353715 5.868578564869196 0.0
endloop
endfacet
facet normal 0.7933533402912366 -0.6087614290087187 0.0
outer loop
vertex 103.67342406353715 5.868578564869196 5.0
vertex 104.76350501593521 7.500000000000004 0.0
vertex 104.76350501593521 7.500000000000004 5.0
endloop
endfacet
facet normal 0.0 -1.0 0.0
outer loop
vertex 5.000000000000002 25.0 5.0
vertex 2.33570372744802e-15 25.0 0.0
vertex 5.000000000000002 25.0 0.0
endloop
endfacet
facet normal 0.0 -1.0 0.0
outer loop
vertex 2.33570372744802e-15 25.0 0.0
vertex 5.000000000000002 25.0 5.0
vertex 2.33570372744802e-15 25.0 5.0
endloop
endfacet
facet normal 0.9238795325112857 -0.38268343236509206 0.0
outer loop
vertex 105.63131694683793 9.259748514523656 0.0
vertex 104.76350501593521 7.500000000000004 5.0
vertex 104.76350501593521 7.500000000000004 0.0
endloop
endfacet
facet normal 0.8660254037844387 -0.49999999999999983 0.0
outer loop
vertex 104.76350501593521 7.500000000000004 5.0
vertex 105.63131694683793 9.259748514523656 0.0
vertex 105.63131694683793 9.259748514523656 5.0
endloop
endfacet
facet normal 0.9659258262890686 -0.2588190451025193 0.0
outer loop
vertex 106.26201135350466 11.11771432346219 0.0
vertex 105.63131694683793 9.259748514523656 5.0
vertex 105.63131694683793 9.259748514523656 0.0
endloop
endfacet
facet normal 0.9238795325112857 -0.38268343236509206 0.0
outer loop
vertex 105.63131694683793 9.259748514523656 5.0
vertex 106.26201135350466 11.11771432346219 0.0
vertex 106.26201135350466 11.11771432346219 5.0
endloop
endfacet
facet normal 0.9914448613738106 -0.13052619222005035 0.0
outer loop
vertex 106.64479687977577 13.04210711669923 0.0
vertex 106.26201135350466 11.11771432346219 5.0
vertex 106.26201135350466 11.11771432346219 0.0
endloop
endfacet
facet normal 0.9659258262890686 -0.2588190451025193 0.0
outer loop
vertex 106.26201135350466 11.11771432346219 5.0
vertex 106.64479687977577 13.04210711669923 0.0
vertex 106.64479687977577 13.04210711669923 5.0
endloop
endfacet
facet normal 0.9978589232386033 -0.0654031292301475 0.0
outer loop
vertex 106.77312395916863 15.0 0.0
vertex 106.64479687977577 13.04210711669923 5.0
vertex 106.64479687977577 13.04210711669923 0.0
endloop
endfacet
facet normal 0.9914448613738106 -0.13052619222005035 0.0
outer loop
vertex 106.64479687977577 13.04210711669923 5.0
vertex 106.77312395916863 15.0 0.0
vertex 106.77312395916863 15.0 5.0
endloop
endfacet
facet normal 1.0 0.0 0.0
outer loop
vertex 106.77312395916863 27.57716446627552 0.0
vertex 106.77312395916863 15.0 5.0
vertex 106.77312395916863 15.0 0.0
endloop
endfacet
facet normal 1.0 0.0 0.0
outer loop
vertex 106.77312395916863 15.0 5.0
vertex 106.77312395916863 27.57716446627552 0.0
vertex 106.77312395916863 27.57716446627552 5.0
endloop
endfacet
facet normal 0.7071067811865481 0.707106781186547 0.0
outer loop
vertex 99.70205614730315 34.648232278141 0.0
vertex 106.77312395916863 27.57716446627552 5.0
vertex 106.77312395916863 27.57716446627552 0.0
endloop
endfacet
facet normal 0.7071067811865481 0.707106781186547 0.0
outer loop
vertex 106.77312395916863 27.57716446627552 5.0
vertex 99.70205614730315 34.648232278141 0.0
vertex 99.70205614730315 34.648232278141 5.0
endloop
endfacet
facet normal -0.7071067811865482 0.707106781186547 0.0
outer loop
vertex 99.70205614730315 34.648232278141 5.0
vertex 82.73149339882606 17.677669529663877 0.0
vertex 82.73149339882606 17.677669529663877 5.0
endloop
endfacet
facet normal -0.7071067811865482 0.707106781186547 0.0
outer loop
vertex 82.73149339882606 17.677669529663877 0.0
vertex 99.70205614730315 34.648232278141 5.0
vertex 99.70205614730315 34.648232278141 0.0
endloop
endfacet
facet normal 0.0 1.0 0.0
outer loop
vertex 9.173931316197923e-15 90.30865786510155 5.0
vertex 5.000000000000002 90.30865786510155 7.049916206369744e-16
vertex 9.173931316197923e-15 90.30865786510155 7.049916206369744e-16
endloop
endfacet
facet normal 0.0 1.0 0.0
outer loop
vertex 5.000000000000002 90.30865786510155 7.049916206369744e-16
vertex 9.173931316197923e-15 90.30865786510155 5.0
vertex 5.000000000000002 90.30865786510155 5.0
endloop
endfacet
facet normal 0.0 0.0 1.0
outer loop
vertex 91.77312395916863 0.0 5.0
vertex 1.5338595557910704e-15 15.0 5.0
vertex 0.0 0.0 5.0
endloop
endfacet
facet normal 0.0 0.0 1.0
outer loop
vertex 1.5338595557910704e-15 15.0 5.0
vertex 91.77312395916863 0.0 5.0
vertex 5.000000000000002 15.0 5.0
endloop
endfacet
facet normal 0.0 0.0 1.0
outer loop
vertex 5.000000000000002 15.0 5.0
vertex 91.77312395916863 0.0 5.0
vertex 15.000000000000007 15.00000000000011 5.0
endloop
endfacet
facet normal 0.0 0.0 1.0
outer loop
vertex 5.000000000000002 15.0 5.0
vertex 15.000000000000007 15.00000000000011 5.0
vertex 5.000000000000002 25.0 5.0
endloop
endfacet
facet normal 0.0 0.0 1.0
outer loop
vertex 5.000000000000002 25.0 5.0
vertex 15.000000000000007 15.00000000000011 5.0
vertex 5.000000000000002 90.30865786510155 5.0
endloop
endfacet
facet normal 0.0 0.0 1.0
outer loop
vertex 5.000000000000002 90.30865786510155 5.0
vertex 15.000000000000007 15.00000000000011 5.0
vertex 5.000000000000002 100.30865786510155 5.0
endloop
endfacet
facet normal 0.0 0.0 1.0
outer loop
vertex 5.000000000000002 100.30865786510155 5.0
vertex 15.000000000000007 15.00000000000011 5.0
vertex 14.142135623730969 86.26702730475893 5.0
endloop
endfacet
facet normal 0.0 0.0 1.0
outer loop
vertex 15.000000000000007 15.00000000000011 5.0
vertex 91.77312395916863 0.0 5.0
vertex 64.19595949289341 15.000000000000114 5.0
endloop
endfacet
facet normal 0.0 0.0 1.0
outer loop
vertex 64.19595949289341 15.000000000000114 5.0
vertex 91.77312395916863 0.0 5.0
vertex 82.73149339882606 17.677669529663877 5.0
endloop
endfacet
facet normal 0.0 0.0 1.0
outer loop
vertex 82.73149339882606 17.677669529663877 5.0
vertex 91.77312395916863 0.0 5.0
vertex 99.70205614730315 34.648232278141 5.0
endloop
endfacet
facet normal 0.0 0.0 1.0
outer loop
vertex 99.70205614730315 34.648232278141 5.0
vertex 91.77312395916863 0.0 5.0
vertex 93.7310168424694 0.12832707939284962 5.0
endloop
endfacet
facet normal 0.0 0.0 1.0
outer loop
vertex 99.70205614730315 34.648232278141 5.0
vertex 93.7310168424694 0.12832707939284962 5.0
vertex 95.65540963570643 0.511112605663982 5.0
endloop
endfacet
facet normal 0.0 0.0 1.0
outer loop
vertex 99.70205614730315 34.648232278141 5.0
vertex 95.65540963570643 0.511112605663982 5.0
vertex 97.51337544464498 1.141807012330704 5.0
endloop
endfacet
facet normal 0.0 0.0 1.0
outer loop
vertex 99.70205614730315 34.648232278141 5.0
vertex 97.51337544464498 1.141807012330704 5.0
vertex 99.27312395916863 2.009618943233427 5.0
endloop
endfacet
facet normal 0.0 0.0 1.0
outer loop
vertex 99.70205614730315 34.648232278141 5.0
vertex 99.27312395916863 2.009618943233427 5.0
vertex 100.90454539429943 3.099699895631479 5.0
endloop
endfacet
facet normal 0.0 0.0 1.0
outer loop
vertex 99.70205614730315 34.648232278141 5.0
vertex 100.90454539429943 3.099699895631479 5.0
vertex 106.77312395916863 27.57716446627552 5.0
endloop
endfacet
facet normal 0.0 0.0 1.0
outer loop
vertex 106.77312395916863 27.57716446627552 5.0
vertex 100.90454539429943 3.099699895631479 5.0
vertex 102.37972567696684 4.393398282201792 5.0
endloop
endfacet
facet normal 0.0 0.0 1.0
outer loop
vertex 106.77312395916863 27.57716446627552 5.0
vertex 102.37972567696684 4.393398282201792 5.0
vertex 103.67342406353715 5.868578564869196 5.0
endloop
endfacet
facet normal 0.0 0.0 1.0
outer loop
vertex 106.77312395916863 27.57716446627552 5.0
vertex 103.67342406353715 5.868578564869196 5.0
vertex 104.76350501593521 7.500000000000004 5.0
endloop
endfacet
facet normal 0.0 0.0 1.0
outer loop
vertex 106.77312395916863 27.57716446627552 5.0
vertex 104.76350501593521 7.500000000000004 5.0
vertex 105.63131694683793 9.259748514523656 5.0
endloop
endfacet
facet normal 0.0 0.0 1.0
outer loop
vertex 106.77312395916863 27.57716446627552 5.0
vertex 105.63131694683793 9.259748514523656 5.0
vertex 106.26201135350466 11.11771432346219 5.0
endloop
endfacet
facet normal 0.0 0.0 1.0
outer loop
vertex 106.77312395916863 27.57716446627552 5.0
vertex 106.26201135350466 11.11771432346219 5.0
vertex 106.64479687977577 13.04210711669923 5.0
endloop
endfacet
facet normal 0.0 0.0 1.0
outer loop
vertex 106.77312395916863 27.57716446627552 5.0
vertex 106.64479687977577 13.04210711669923 5.0
vertex 106.77312395916863 15.0 5.0
endloop
endfacet
facet normal 0.0 0.0 1.0
outer loop
vertex 14.142135623730969 86.26702730475893 5.0
vertex 15.000000000000007 64.19595949289345 5.0
vertex 82.73149339882606 17.677669529663877 5.0
endloop
endfacet
facet normal 0.0 0.0 1.0
outer loop
vertex 15.000000000000007 64.19595949289345 5.0
vertex 14.142135623730969 86.26702730475893 5.0
vertex 15.000000000000007 15.00000000000011 5.0
endloop
endfacet
facet normal 0.0 0.0 1.0
outer loop
vertex 82.73149339882606 17.677669529663877 5.0
vertex 15.000000000000007 64.19595949289345 5.0
vertex 64.19595949289341 15.000000000000114 5.0
endloop
endfacet
facet normal 0.0 0.0 1.0
outer loop
vertex 5.000000000000002 100.30865786510155 5.0
vertex 1.127986593019159e-14 110.30865786510155 5.0
vertex 1.0231418747153387e-14 100.30865786510155 5.0
endloop
endfacet
facet normal 0.0 0.0 1.0
outer loop
vertex 1.127986593019159e-14 110.30865786510155 5.0
vertex 5.000000000000002 100.30865786510155 5.0
vertex 24.041630560342647 110.30865786510155 5.0
endloop
endfacet
facet normal 0.0 0.0 1.0
outer loop
vertex 24.041630560342647 110.30865786510155 5.0
vertex 5.000000000000002 100.30865786510155 5.0
vertex 14.142135623730969 86.26702730475893 5.0
endloop
endfacet
facet normal 0.0 0.0 1.0
outer loop
vertex 24.041630560342647 110.30865786510155 5.0
vertex 14.142135623730969 86.26702730475893 5.0
vertex 31.112698372208147 103.23759005323609 5.0
endloop
endfacet
facet normal 0.0 0.0 1.0
outer loop
vertex 5.000000000000002 25.0 5.0
vertex 9.173931316197923e-15 90.30865786510155 5.0
vertex 2.33570372744802e-15 25.0 5.0
endloop
endfacet
facet normal 0.0 0.0 1.0
outer loop
vertex 9.173931316197923e-15 90.30865786510155 5.0
vertex 5.000000000000002 25.0 5.0
vertex 5.000000000000002 90.30865786510155 5.0
endloop
endfacet
facet normal 0.7071067811865472 0.7071067811865478 0.0
outer loop
vertex 14.142135623730969 86.26702730475893 5.0
vertex 82.73149339882606 17.677669529663877 0.0
vertex 14.142135623730969 86.26702730475893 0.0
endloop
endfacet
facet normal 0.7071067811865472 0.7071067811865478 0.0
outer loop
vertex 82.73149339882606 17.677669529663877 0.0
vertex 14.142135623730969 86.26702730475893 5.0
vertex 82.73149339882606 17.677669529663877 5.0
endloop
endfacet
facet normal 0.7071067811865472 -0.7071067811865479 0.0
outer loop
vertex 31.112698372208147 103.23759005323609 5.0
vertex 14.142135623730969 86.26702730475893 0.0
vertex 31.112698372208147 103.23759005323609 0.0
endloop
endfacet
facet normal 0.7071067811865472 -0.7071067811865479 0.0
outer loop
vertex 14.142135623730969 86.26702730475893 0.0
vertex 31.112698372208147 103.23759005323609 5.0
vertex 14.142135623730969 86.26702730475893 5.0
endloop
endfacet
facet normal -1.0 0.0 0.0
outer loop
vertex 5.000000000000002 25.0 5.0
vertex 5.000000000000002 15.0 0.0
vertex 5.000000000000002 15.0 5.0
endloop
endfacet
facet normal -1.0 0.0 0.0
outer loop
vertex 5.000000000000002 15.0 0.0
vertex 5.000000000000002 25.0 5.0
vertex 5.000000000000002 25.0 0.0
endloop
endfacet
facet normal 0.7071067811865461 0.7071067811865489 0.0
outer loop
vertex 24.041630560342647 110.30865786510155 5.0
vertex 31.112698372208147 103.23759005323609 0.0
vertex 24.041630560342647 110.30865786510155 0.0
endloop
endfacet
facet normal 0.7071067811865461 0.7071067811865489 0.0
outer loop
vertex 31.112698372208147 103.23759005323609 0.0
vertex 24.041630560342647 110.30865786510155 5.0
vertex 31.112698372208147 103.23759005323609 5.0
endloop
endfacet
facet normal 0.0 1.0 0.0
outer loop
vertex 1.127986593019159e-14 110.30865786510155 5.0
vertex 24.041630560342647 110.30865786510155 0.0
vertex 1.127986593019159e-14 110.30865786510155 0.0
endloop
endfacet
facet normal 0.0 1.0 0.0
outer loop
vertex 24.041630560342647 110.30865786510155 0.0
vertex 1.127986593019159e-14 110.30865786510155 5.0
vertex 24.041630560342647 110.30865786510155 5.0
endloop
endfacet
facet normal -1.0 1.0484471830382029e-16 -1.106206847185575e-33
outer loop
vertex 1.127986593019159e-14 110.30865786510155 5.0
vertex 1.0231418747153387e-14 100.30865786510155 7.049916206369744e-16
vertex 1.0231418747153387e-14 100.30865786510155 5.0
endloop
endfacet
facet normal -1.0 1.0484471830382029e-16 -1.106206847185575e-33
outer loop
vertex 1.0231418747153387e-14 100.30865786510155 7.049916206369744e-16
vertex 1.127986593019159e-14 110.30865786510155 5.0
vertex 1.127986593019159e-14 110.30865786510155 0.0
endloop
endfacet
facet normal -1.0 1.0225730371940468e-16 0.0
outer loop
vertex 1.5338595557910704e-15 15.0 5.0
vertex 0.0 0.0 0.0
vertex 0.0 0.0 5.0
endloop
endfacet
facet normal -1.0 1.0225730371940468e-16 0.0
outer loop
vertex 0.0 0.0 0.0
vertex 1.5338595557910704e-15 15.0 5.0
vertex 1.5338595557910704e-15 15.0 0.0
endloop
endfacet
facet normal -0.0 -1.0 -0.0
outer loop
vertex 91.77312395916863 0.0 5.0
vertex 0.0 0.0 0.0
vertex 91.77312395916863 0.0 0.0
endloop
endfacet
facet normal -0.0 -1.0 -0.0
outer loop
vertex 0.0 0.0 0.0
vertex 91.77312395916863 0.0 5.0
vertex 0.0 0.0 5.0
endloop
endfacet
facet normal 0.13052619222005327 -0.9914448613738103 0.0
outer loop
vertex 93.7310168424694 0.12832707939284962 5.0
vertex 91.77312395916863 0.0 0.0
vertex 93.7310168424694 0.12832707939284962 0.0
endloop
endfacet
facet normal 0.06540312923014609 -0.9978589232386035 0.0
outer loop
vertex 91.77312395916863 0.0 0.0
vertex 93.7310168424694 0.12832707939284962 5.0
vertex 91.77312395916863 0.0 5.0
endloop
endfacet
facet normal 0.0 -1.0 0.0
outer loop
vertex 5.000000000000002 100.30865786510155 5.0
vertex 1.0231418747153387e-14 100.30865786510155 7.049916206369744e-16
vertex 5.000000000000002 100.30865786510155 7.049916206369744e-16
endloop
endfacet
facet normal 0.0 -1.0 0.0
outer loop
vertex 1.0231418747153387e-14 100.30865786510155 7.049916206369744e-16
vertex 5.000000000000002 100.30865786510155 5.0
vertex 1.0231418747153387e-14 100.30865786510155 5.0
endloop
endfacet
facet normal 0.0 1.0 0.0
outer loop
vertex 1.5338595557910704e-15 15.0 5.0
vertex 5.000000000000002 15.0 0.0
vertex 1.5338595557910704e-15 15.0 0.0
endloop
endfacet
facet normal 0.0 1.0 0.0
outer loop
vertex 5.000000000000002 15.0 0.0
vertex 1.5338595557910704e-15 15.0 5.0
vertex 5.000000000000002 15.0 5.0
endloop
endfacet
facet normal -1.2518029317394154e-18 2.5331308548000057e-18 -1.0
outer loop
vertex 1.127986593019159e-14 110.30865786510155 0.0
vertex 5.000000000000002 100.30865786510155 7.049916206369744e-16
vertex 1.0231418747153387e-14 100.30865786510155 7.049916206369744e-16
endloop
endfacet
facet normal -1.2518029317394154e-18 2.5331308548000057e-18 -1.0
outer loop
vertex 5.000000000000002 100.30865786510155 7.049916206369744e-16
vertex 1.127986593019159e-14 110.30865786510155 0.0
vertex 24.041630560342647 110.30865786510155 0.0
endloop
endfacet
facet normal -1.2518029317394154e-18 2.5331308548000057e-18 -1.0
outer loop
vertex 5.000000000000002 100.30865786510155 7.049916206369744e-16
vertex 24.041630560342647 110.30865786510155 0.0
vertex 5.000000000000002 90.30865786510155 7.049916206369744e-16
endloop
endfacet
facet normal -1.2518029317394154e-18 2.5331308548000057e-18 -1.0
outer loop
vertex 5.000000000000002 90.30865786510155 7.049916206369744e-16
vertex 24.041630560342647 110.30865786510155 0.0
vertex 14.142135623730969 86.26702730475893 0.0
endloop
endfacet
facet normal -1.2518029317394154e-18 2.5331308548000057e-18 -1.0
outer loop
vertex 5.000000000000002 90.30865786510155 7.049916206369744e-16
vertex 14.142135623730969 86.26702730475893 0.0
vertex 5.000000000000002 25.0 0.0
endloop
endfacet
facet normal -1.2518029317394154e-18 2.5331308548000057e-18 -1.0
outer loop
vertex 5.000000000000002 25.0 0.0
vertex 14.142135623730969 86.26702730475893 0.0
vertex 5.000000000000002 15.0 0.0
endloop
endfacet
facet normal -1.2518029317394154e-18 2.5331308548000057e-18 -1.0
outer loop
vertex 14.142135623730969 86.26702730475893 0.0
vertex 24.041630560342647 110.30865786510155 0.0
vertex 31.112698372208147 103.23759005323609 0.0
endloop
endfacet
facet normal -1.2518029317394154e-18 2.5331308548000057e-18 -1.0
outer loop
vertex 82.73149339882606 17.677669529663877 0.0
vertex 15.000000000000007 64.19595949289345 0.0
vertex 14.142135623730969 86.26702730475893 0.0
endloop
endfacet
facet normal -1.2518029317394154e-18 2.5331308548000057e-18 -1.0
outer loop
vertex 15.000000000000007 64.19595949289345 0.0
vertex 82.73149339882606 17.677669529663877 0.0
vertex 64.19595949289341 15.000000000000114 0.0
endloop
endfacet
facet normal -1.2518029317394154e-18 2.5331308548000057e-18 -1.0
outer loop
vertex 1.5338595557910704e-15 15.0 0.0
vertex 91.77312395916863 0.0 0.0
vertex 0.0 0.0 0.0
endloop
endfacet
facet normal -1.2518029317394154e-18 2.5331308548000057e-18 -1.0
outer loop
vertex 91.77312395916863 0.0 0.0
vertex 1.5338595557910704e-15 15.0 0.0
vertex 5.000000000000002 15.0 0.0
endloop
endfacet
facet normal -1.2518029317394154e-18 2.5331308548000057e-18 -1.0
outer loop
vertex 91.77312395916863 0.0 0.0
vertex 5.000000000000002 15.0 0.0
vertex 15.000000000000007 15.00000000000011 0.0
endloop
endfacet
facet normal -1.2518029317394154e-18 2.5331308548000057e-18 -1.0
outer loop
vertex 15.000000000000007 15.00000000000011 0.0
vertex 5.000000000000002 15.0 0.0
vertex 14.142135623730969 86.26702730475893 0.0
endloop
endfacet
facet normal -1.2518029317394154e-18 2.5331308548000057e-18 -1.0
outer loop
vertex 15.000000000000007 15.00000000000011 0.0
vertex 14.142135623730969 86.26702730475893 0.0
vertex 15.000000000000007 64.19595949289345 0.0
endloop
endfacet
facet normal -1.2518029317394154e-18 2.5331308548000057e-18 -1.0
outer loop
vertex 91.77312395916863 0.0 0.0
vertex 15.000000000000007 15.00000000000011 0.0
vertex 64.19595949289341 15.000000000000114 0.0
endloop
endfacet
facet normal -1.2518029317394154e-18 2.5331308548000057e-18 -1.0
outer loop
vertex 91.77312395916863 0.0 0.0
vertex 64.19595949289341 15.000000000000114 0.0
vertex 82.73149339882606 17.677669529663877 0.0
endloop
endfacet
facet normal -1.2518029317394154e-18 2.5331308548000057e-18 -1.0
outer loop
vertex 91.77312395916863 0.0 0.0
vertex 82.73149339882606 17.677669529663877 0.0
vertex 99.70205614730315 34.648232278141 0.0
endloop
endfacet
facet normal -1.2518029317394154e-18 2.5331308548000057e-18 -1.0
outer loop
vertex 91.77312395916863 0.0 0.0
vertex 99.70205614730315 34.648232278141 0.0
vertex 93.7310168424694 0.12832707939284962 0.0
endloop
endfacet
facet normal -1.2518029317394154e-18 2.5331308548000057e-18 -1.0
outer loop
vertex 93.7310168424694 0.12832707939284962 0.0
vertex 99.70205614730315 34.648232278141 0.0
vertex 95.65540963570643 0.511112605663982 0.0
endloop
endfacet
facet normal -1.2518029317394154e-18 2.5331308548000057e-18 -1.0
outer loop
vertex 95.65540963570643 0.511112605663982 0.0
vertex 99.70205614730315 34.648232278141 0.0
vertex 97.51337544464498 1.141807012330704 0.0
endloop
endfacet
facet normal -1.2518029317394154e-18 2.5331308548000057e-18 -1.0
outer loop
vertex 97.51337544464498 1.141807012330704 0.0
vertex 99.70205614730315 34.648232278141 0.0
vertex 99.27312395916863 2.009618943233427 0.0
endloop
endfacet
facet normal -1.2518029317394154e-18 2.5331308548000057e-18 -1.0
outer loop
vertex 99.27312395916863 2.009618943233427 0.0
vertex 99.70205614730315 34.648232278141 0.0
vertex 100.90454539429943 3.099699895631479 0.0
endloop
endfacet
facet normal -1.2518029317394154e-18 2.5331308548000057e-18 -1.0
outer loop
vertex 100.90454539429943 3.099699895631479 0.0
vertex 99.70205614730315 34.648232278141 0.0
vertex 106.77312395916863 27.57716446627552 0.0
endloop
endfacet
facet normal -1.2518029317394154e-18 2.5331308548000057e-18 -1.0
outer loop
vertex 100.90454539429943 3.099699895631479 0.0
vertex 106.77312395916863 27.57716446627552 0.0
vertex 102.37972567696684 4.393398282201792 0.0
endloop
endfacet
facet normal -1.2518029317394154e-18 2.5331308548000057e-18 -1.0
outer loop
vertex 102.37972567696684 4.393398282201792 0.0
vertex 106.77312395916863 27.57716446627552 0.0
vertex 103.67342406353715 5.868578564869196 0.0
endloop
endfacet
facet normal -1.2518029317394154e-18 2.5331308548000057e-18 -1.0
outer loop
vertex 103.67342406353715 5.868578564869196 0.0
vertex 106.77312395916863 27.57716446627552 0.0
vertex 104.76350501593521 7.500000000000004 0.0
endloop
endfacet
facet normal -1.2518029317394154e-18 2.5331308548000057e-18 -1.0
outer loop
vertex 104.76350501593521 7.500000000000004 0.0
vertex 106.77312395916863 27.57716446627552 0.0
vertex 105.63131694683793 9.259748514523656 0.0
endloop
endfacet
facet normal -1.2518029317394154e-18 2.5331308548000057e-18 -1.0
outer loop
vertex 105.63131694683793 9.259748514523656 0.0
vertex 106.77312395916863 27.57716446627552 0.0
vertex 106.26201135350466 11.11771432346219 0.0
endloop
endfacet
facet normal -1.2518029317394154e-18 2.5331308548000057e-18 -1.0
outer loop
vertex 106.26201135350466 11.11771432346219 0.0
vertex 106.77312395916863 27.57716446627552 0.0
vertex 106.64479687977577 13.04210711669923 0.0
endloop
endfacet
facet normal -1.2518029317394154e-18 2.5331308548000057e-18 -1.0
outer loop
vertex 106.64479687977577 13.04210711669923 0.0
vertex 106.77312395916863 27.57716446627552 0.0
vertex 106.77312395916863 15.0 0.0
endloop
endfacet
facet normal -1.2518029317394154e-18 2.5331308548000057e-18 -1.0
outer loop
vertex 9.173931316197923e-15 90.30865786510155 7.049916206369744e-16
vertex 5.000000000000002 25.0 0.0
vertex 2.33570372744802e-15 25.0 0.0
endloop
endfacet
facet normal -1.2518029317394154e-18 2.5331308548000057e-18 -1.0
outer loop
vertex 5.000000000000002 25.0 0.0
vertex 9.173931316197923e-15 90.30865786510155 7.049916206369744e-16
vertex 5.000000000000002 90.30865786510155 7.049916206369744e-16
endloop
endfacet
facet normal -1.0 0.0 0.0
outer loop
vertex 5.000000000000002 100.30865786510155 5.0
vertex 5.000000000000002 90.30865786510155 7.049916206369744e-16
vertex 5.000000000000002 90.30865786510155 5.0
endloop
endfacet
facet normal -1.0 0.0 0.0
outer loop
vertex 5.000000000000002 90.30865786510155 7.049916206369744e-16
vertex 5.000000000000002 100.30865786510155 5.0
vertex 5.000000000000002 100.30865786510155 7.049916206369744e-16
endloop
endfacet
facet normal -1.0 1.0470629488167743e-16 4.5239761390965196e-33
outer loop
vertex 9.173931316197923e-15 90.30865786510155 5.0
vertex 2.33570372744802e-15 25.0 0.0
vertex 2.33570372744802e-15 25.0 5.0
endloop
endfacet
facet normal -1.0 1.0470629488167743e-16 4.5239761390965196e-33
outer loop
vertex 2.33570372744802e-15 25.0 0.0
vertex 9.173931316197923e-15 90.30865786510155 5.0
vertex 9.173931316197923e-15 90.30865786510155 7.049916206369744e-16
endloop
endfacet
endsolid side
