solid support
facet normal 1.0 0.0 0.0
outer loop
vertex 75.0 9.999999999999998 2.46747067222941e-15
vertex 75.0 0.0 5.000000000000002
vertex 75.0 0.0 2.46747067222941e-15
endloop
endfacet
facet normal 1.0 0.0 0.0
outer loop
vertex 75.0 0.0 5.000000000000002
vertex 75.0 9.999999999999998 2.46747067222941e-15
vertex 75.0 9.999999999999998 5.000000000000002
endloop
endfacet
facet normal 0.9892216605512916 -0.14642577060116554 0.0
outer loop
vertex 16.029640433483944 5.402670869153197 0.0
vertex 16.023175226384275 4.9999999999999964 5.000000000000002
vertex 16.023175226384275 4.9999999999999964 0.0
endloop
endfacet
facet normal 0.9998711303927029 -0.016053741221864173 0.0
outer loop
vertex 16.023175226384275 4.9999999999999964 5.000000000000002
vertex 16.029640433483944 5.402670869153197 0.0
vertex 16.029640433483944 5.402670869153197 5.000000000000002
endloop
endfacet
facet normal 0.0 1.0 0.0
outer loop
vertex 0.0 9.999999999999998 5.000000000000002
vertex 75.0 9.999999999999998 2.46747067222941e-15
vertex 0.0 9.999999999999998 2.46747067222941e-15
endloop
endfacet
facet normal 0.0 1.0 0.0
outer loop
vertex 75.0 9.999999999999998 2.46747067222941e-15
vertex 0.0 9.999999999999998 5.000000000000002
vertex 75.0 9.999999999999998 5.000000000000002
endloop
endfacet
facet normal 0.9938779263429949 0.11048378853093666 0.0
outer loop
vertex 53.506732143342674 4.9999999999999964 3.524958103184872e-16
vertex 53.57987612961176 4.34201936443166 5.000000000000002
vertex 53.57987612961176 4.34201936443166 3.524958103184872e-16
endloop
endfacet
facet normal 0.9709541346866346 0.23926568566120998 0.0
outer loop
vertex 53.57987612961176 4.34201936443166 5.000000000000002
vertex 53.506732143342674 4.9999999999999964 3.524958103184872e-16
vertex 53.506732143342674 4.9999999999999964 5.000000000000002
endloop
endfacet
facet normal 0.0 0.0 1.0
outer loop
vertex 0.0 0.0 5.000000000000002
vertex 17.656968942649463 2.476553327754443 5.000000000000002
vertex 0.0 9.999999999999998 5.000000000000002
endloop
endfacet
facet normal 0.0 0.0 1.0
outer loop
vertex 17.656968942649463 2.476553327754443 5.000000000000002
vertex 0.0 0.0 5.000000000000002
vertex 18.34732913084679 2.2796404334839413 5.000000000000002
endloop
endfacet
facet normal 0.0 0.0 1.0
outer loop
vertex 18.34732913084679 2.2796404334839413 5.000000000000002
vertex 0.0 0.0 5.000000000000002
vertex 75.0 0.0 5.000000000000002
endloop
endfacet
facet normal 0.0 0.0 1.0
outer loop
vertex 0.0 9.999999999999998 5.000000000000002
vertex 17.656968942649463 2.476553327754443 5.000000000000002
vertex 17.04109701469134 2.8454349425456766 5.000000000000002
endloop
endfacet
facet normal 0.0 0.0 1.0
outer loop
vertex 0.0 9.999999999999998 5.000000000000002
vertex 17.04109701469134 2.8454349425456766 5.000000000000002
vertex 16.54168400108629 3.3611466054153114 5.000000000000002
endloop
endfacet
facet normal 0.0 0.0 1.0
outer loop
vertex 0.0 9.999999999999998 5.000000000000002
vertex 16.54168400108629 3.3611466054153114 5.000000000000002
vertex 16.192764073392475 3.988543418792607 5.000000000000002
endloop
endfacet
facet normal 0.0 0.0 1.0
outer loop
vertex 0.0 9.999999999999998 5.000000000000002
vertex 16.192764073392475 3.988543418792607 5.000000000000002
vertex 16.018115548064774 4.6848693266681485 5.000000000000002
endloop
endfacet
facet normal 0.0 0.0 1.0
outer loop
vertex 18.34732913084679 2.2796404334839413 5.000000000000002
vertex 75.0 0.0 5.000000000000002
vertex 19.065130673331847 2.268115548064771 5.000000000000002
endloop
endfacet
facet normal 0.0 0.0 1.0
outer loop
vertex 19.065130673331847 2.268115548064771 5.000000000000002
vertex 75.0 0.0 5.000000000000002
vertex 19.76145658120739 2.44276407339247 5.000000000000002
endloop
endfacet
facet normal 0.0 0.0 1.0
outer loop
vertex 19.76145658120739 2.44276407339247 5.000000000000002
vertex 75.0 0.0 5.000000000000002
vertex 20.388853394584686 2.7916840010862853 5.000000000000002
endloop
endfacet
facet normal 0.0 0.0 1.0
outer loop
vertex 20.388853394584686 2.7916840010862853 5.000000000000002
vertex 75.0 0.0 5.000000000000002
vertex 20.90456505745432 3.2910970146913368 5.000000000000002
endloop
endfacet
facet normal 0.0 0.0 1.0
outer loop
vertex 20.90456505745432 3.2910970146913368 5.000000000000002
vertex 75.0 0.0 5.000000000000002
vertex 21.27344667224555 3.906968942649456 5.000000000000002
endloop
endfacet
facet normal 0.0 0.0 1.0
outer loop
vertex 21.27344667224555 3.906968942649456 5.000000000000002
vertex 75.0 0.0 5.000000000000002
vertex 21.470359566516056 4.59732913084679 5.000000000000002
endloop
endfacet
facet normal 0.0 0.0 1.0
outer loop
vertex 21.470359566516056 4.59732913084679 5.000000000000002
vertex 75.0 0.0 5.000000000000002
vertex 21.47682477361572 4.9999999999999964 5.000000000000002
endloop
endfacet
facet normal 0.0 0.0 1.0
outer loop
vertex 21.47682477361572 4.9999999999999964 5.000000000000002
vertex 75.0 0.0 5.000000000000002
vertex 21.481884451935226 5.315130673331844 5.000000000000002
endloop
endfacet
facet normal 0.0 0.0 1.0
outer loop
vertex 21.481884451935226 5.315130673331844 5.000000000000002
vertex 75.0 0.0 5.000000000000002
vertex 56.19448157865422 2.2505604744073198 5.000000000000002
endloop
endfacet
facet normal 0.0 0.0 1.0
outer loop
vertex 21.481884451935226 5.315130673331844 5.000000000000002
vertex 56.19448157865422 2.2505604744073198 5.000000000000002
vertex 55.48476601040629 2.3586145792083806 5.000000000000002
endloop
endfacet
facet normal 0.0 0.0 1.0
outer loop
vertex 21.481884451935226 5.315130673331844 5.000000000000002
vertex 55.48476601040629 2.3586145792083806 5.000000000000002
vertex 54.82719987394021 2.646674735340596 5.000000000000002
endloop
endfacet
facet normal 0.0 0.0 1.0
outer loop
vertex 21.481884451935226 5.315130673331844 5.000000000000002
vertex 54.82719987394021 2.646674735340596 5.000000000000002
vertex 54.26659521477673 3.095110119205464 5.000000000000002
endloop
endfacet
facet normal 0.0 0.0 1.0
outer loop
vertex 21.481884451935226 5.315130673331844 5.000000000000002
vertex 54.26659521477673 3.095110119205464 5.000000000000002
vertex 53.841156313994816 3.6733606004671127 5.000000000000002
endloop
endfacet
facet normal 0.0 0.0 1.0
outer loop
vertex 21.481884451935226 5.315130673331844 5.000000000000002
vertex 53.841156313994816 3.6733606004671127 5.000000000000002
vertex 53.57987612961176 4.34201936443166 5.000000000000002
endloop
endfacet
facet normal 0.0 0.0 1.0
outer loop
vertex 21.481884451935226 5.315130673331844 5.000000000000002
vertex 53.57987612961176 4.34201936443166 5.000000000000002
vertex 53.506732143342674 4.9999999999999964 5.000000000000002
endloop
endfacet
facet normal 0.0 0.0 1.0
outer loop
vertex 21.481884451935226 5.315130673331844 5.000000000000002
vertex 53.506732143342674 4.9999999999999964 5.000000000000002
vertex 53.50056047440733 5.055518421345776 5.000000000000002
endloop
endfacet
facet normal 0.0 0.0 1.0
outer loop
vertex 56.19448157865422 2.2505604744073198 5.000000000000002
vertex 75.0 0.0 5.000000000000002
vertex 56.907980635568336 2.3298761296117543 5.000000000000002
endloop
endfacet
facet normal 0.0 0.0 1.0
outer loop
vertex 56.907980635568336 2.3298761296117543 5.000000000000002
vertex 75.0 0.0 5.000000000000002
vertex 57.57663939953289 2.5911563139948157 5.000000000000002
endloop
endfacet
facet normal 0.0 0.0 1.0
outer loop
vertex 57.57663939953289 2.5911563139948157 5.000000000000002
vertex 75.0 0.0 5.000000000000002
vertex 58.15488988079453 3.016595214776718 5.000000000000002
endloop
endfacet
facet normal 0.0 0.0 1.0
outer loop
vertex 58.15488988079453 3.016595214776718 5.000000000000002
vertex 75.0 0.0 5.000000000000002
vertex 58.603325264659404 3.577199873940204 5.000000000000002
endloop
endfacet
facet normal 0.0 0.0 1.0
outer loop
vertex 58.603325264659404 3.577199873940204 5.000000000000002
vertex 75.0 0.0 5.000000000000002
vertex 58.89138542079161 4.234766010406287 5.000000000000002
endloop
endfacet
facet normal 0.0 0.0 1.0
outer loop
vertex 58.89138542079161 4.234766010406287 5.000000000000002
vertex 75.0 0.0 5.000000000000002
vertex 58.99943952559267 4.944481578654217 5.000000000000002
endloop
endfacet
facet normal 0.0 0.0 1.0
outer loop
vertex 0.0 9.999999999999998 5.000000000000002
vertex 18.434869326668153 7.731884451935222 5.000000000000002
vertex 75.0 9.999999999999998 5.000000000000002
endloop
endfacet
facet normal 0.0 0.0 1.0
outer loop
vertex 18.434869326668153 7.731884451935222 5.000000000000002
vertex 0.0 9.999999999999998 5.000000000000002
vertex 17.73854341879261 7.557235926607523 5.000000000000002
endloop
endfacet
facet normal 0.0 0.0 1.0
outer loop
vertex 17.73854341879261 7.557235926607523 5.000000000000002
vertex 0.0 9.999999999999998 5.000000000000002
vertex 17.111146605415314 7.208315998913708 5.000000000000002
endloop
endfacet
facet normal 0.0 0.0 1.0
outer loop
vertex 17.111146605415314 7.208315998913708 5.000000000000002
vertex 0.0 9.999999999999998 5.000000000000002
vertex 16.595434942545673 6.708902985308656 5.000000000000002
endloop
endfacet
facet normal 0.0 0.0 1.0
outer loop
vertex 16.595434942545673 6.708902985308656 5.000000000000002
vertex 0.0 9.999999999999998 5.000000000000002
vertex 16.226553327754445 6.093031057350531 5.000000000000002
endloop
endfacet
facet normal 0.0 0.0 1.0
outer loop
vertex 16.226553327754445 6.093031057350531 5.000000000000002
vertex 0.0 9.999999999999998 5.000000000000002
vertex 16.029640433483944 5.402670869153197 5.000000000000002
endloop
endfacet
facet normal 0.0 0.0 1.0
outer loop
vertex 16.029640433483944 5.402670869153197 5.000000000000002
vertex 0.0 9.999999999999998 5.000000000000002
vertex 16.018115548064774 4.6848693266681485 5.000000000000002
endloop
endfacet
facet normal 0.0 0.0 1.0
outer loop
vertex 16.029640433483944 5.402670869153197 5.000000000000002
vertex 16.018115548064774 4.6848693266681485 5.000000000000002
vertex 16.023175226384275 4.9999999999999964 5.000000000000002
endloop
endfacet
facet normal 0.0 0.0 1.0
outer loop
vertex 75.0 9.999999999999998 5.000000000000002
vertex 18.434869326668153 7.731884451935222 5.000000000000002
vertex 18.75 7.7268247736157205 5.000000000000002
endloop
endfacet
facet normal 0.0 0.0 1.0
outer loop
vertex 75.0 9.999999999999998 5.000000000000002
vertex 18.75 7.7268247736157205 5.000000000000002
vertex 19.152670869153205 7.720359566516046 5.000000000000002
endloop
endfacet
facet normal 0.0 0.0 1.0
outer loop
vertex 75.0 9.999999999999998 5.000000000000002
vertex 19.152670869153205 7.720359566516046 5.000000000000002
vertex 19.843031057350533 7.52344667224555 5.000000000000002
endloop
endfacet
facet normal 0.0 0.0 1.0
outer loop
vertex 75.0 9.999999999999998 5.000000000000002
vertex 19.843031057350533 7.52344667224555 5.000000000000002
vertex 20.458902985308658 7.154565057454322 5.000000000000002
endloop
endfacet
facet normal 0.0 0.0 1.0
outer loop
vertex 75.0 9.999999999999998 5.000000000000002
vertex 20.458902985308658 7.154565057454322 5.000000000000002
vertex 20.95831599891371 6.6388533945846815 5.000000000000002
endloop
endfacet
facet normal 0.0 0.0 1.0
outer loop
vertex 75.0 9.999999999999998 5.000000000000002
vertex 20.95831599891371 6.6388533945846815 5.000000000000002
vertex 21.307235926607525 6.011456581207386 5.000000000000002
endloop
endfacet
facet normal 0.0 0.0 1.0
outer loop
vertex 75.0 9.999999999999998 5.000000000000002
vertex 21.307235926607525 6.011456581207386 5.000000000000002
vertex 21.481884451935226 5.315130673331844 5.000000000000002
endloop
endfacet
facet normal 0.0 0.0 1.0
outer loop
vertex 75.0 9.999999999999998 5.000000000000002
vertex 21.481884451935226 5.315130673331844 5.000000000000002
vertex 55.592019364431664 7.670123870388238 5.000000000000002
endloop
endfacet
facet normal 0.0 0.0 1.0
outer loop
vertex 55.592019364431664 7.670123870388238 5.000000000000002
vertex 21.481884451935226 5.315130673331844 5.000000000000002
vertex 54.923360600467106 7.408843686005177 5.000000000000002
endloop
endfacet
facet normal 0.0 0.0 1.0
outer loop
vertex 54.923360600467106 7.408843686005177 5.000000000000002
vertex 21.481884451935226 5.315130673331844 5.000000000000002
vertex 54.34511011920546 6.983404785223275 5.000000000000002
endloop
endfacet
facet normal 0.0 0.0 1.0
outer loop
vertex 54.34511011920546 6.983404785223275 5.000000000000002
vertex 21.481884451935226 5.315130673331844 5.000000000000002
vertex 53.89667473534059 6.422800126059784 5.000000000000002
endloop
endfacet
facet normal 0.0 0.0 1.0
outer loop
vertex 53.89667473534059 6.422800126059784 5.000000000000002
vertex 21.481884451935226 5.315130673331844 5.000000000000002
vertex 53.608614579208385 5.765233989593706 5.000000000000002
endloop
endfacet
facet normal 0.0 0.0 1.0
outer loop
vertex 53.608614579208385 5.765233989593706 5.000000000000002
vertex 21.481884451935226 5.315130673331844 5.000000000000002
vertex 53.50056047440733 5.055518421345776 5.000000000000002
endloop
endfacet
facet normal 0.0 0.0 1.0
outer loop
vertex 75.0 9.999999999999998 5.000000000000002
vertex 55.592019364431664 7.670123870388238 5.000000000000002
vertex 56.30551842134578 7.749439525592673 5.000000000000002
endloop
endfacet
facet normal 0.0 0.0 1.0
outer loop
vertex 75.0 9.999999999999998 5.000000000000002
vertex 56.30551842134578 7.749439525592673 5.000000000000002
vertex 57.01523398959371 7.641385420791612 5.000000000000002
endloop
endfacet
facet normal 0.0 0.0 1.0
outer loop
vertex 75.0 9.999999999999998 5.000000000000002
vertex 57.01523398959371 7.641385420791612 5.000000000000002
vertex 57.67280012605979 7.353325264659397 5.000000000000002
endloop
endfacet
facet normal 0.0 0.0 1.0
outer loop
vertex 75.0 9.999999999999998 5.000000000000002
vertex 57.67280012605979 7.353325264659397 5.000000000000002
vertex 58.23340478522327 6.904889880794529 5.000000000000002
endloop
endfacet
facet normal 0.0 0.0 1.0
outer loop
vertex 75.0 9.999999999999998 5.000000000000002
vertex 58.23340478522327 6.904889880794529 5.000000000000002
vertex 58.658843686005184 6.326639399532881 5.000000000000002
endloop
endfacet
facet normal 0.0 0.0 1.0
outer loop
vertex 75.0 9.999999999999998 5.000000000000002
vertex 58.658843686005184 6.326639399532881 5.000000000000002
vertex 58.92012387038824 5.657980635568333 5.000000000000002
endloop
endfacet
facet normal 0.0 0.0 1.0
outer loop
vertex 75.0 9.999999999999998 5.000000000000002
vertex 58.92012387038824 5.657980635568333 5.000000000000002
vertex 58.993267856657326 4.9999999999999964 5.000000000000002
endloop
endfacet
facet normal 0.0 0.0 1.0
outer loop
vertex 75.0 9.999999999999998 5.000000000000002
vertex 58.993267856657326 4.9999999999999964 5.000000000000002
vertex 58.99943952559267 4.944481578654217 5.000000000000002
endloop
endfacet
facet normal 0.0 0.0 1.0
outer loop
vertex 75.0 9.999999999999998 5.000000000000002
vertex 58.99943952559267 4.944481578654217 5.000000000000002
vertex 75.0 0.0 5.000000000000002
endloop
endfacet
facet normal -1.0 0.0 0.0
outer loop
vertex 0.0 9.999999999999998 5.000000000000002
vertex 0.0 0.0 2.46747067222941e-15
vertex 0.0 0.0 5.000000000000002
endloop
endfacet
facet normal -1.0 0.0 0.0
outer loop
vertex 0.0 0.0 2.46747067222941e-15
vertex 0.0 9.999999999999998 5.000000000000002
vertex 0.0 9.999999999999998 2.46747067222941e-15
endloop
endfacet
facet normal 0.0 0.0 -1.0
outer loop
vertex 0.0 9.999999999999998 2.46747067222941e-15
vertex 17.73854341879261 7.557235926607523 0.0
vertex 0.0 0.0 2.46747067222941e-15
endloop
endfacet
facet normal 0.0 0.0 -1.0
outer loop
vertex 17.73854341879261 7.557235926607523 0.0
vertex 0.0 9.999999999999998 2.46747067222941e-15
vertex 18.434869326668153 7.731884451935222 0.0
endloop
endfacet
facet normal 0.0 0.0 -1.0
outer loop
vertex 18.434869326668153 7.731884451935222 0.0
vertex 0.0 9.999999999999998 2.46747067222941e-15
vertex 75.0 9.999999999999998 2.46747067222941e-15
endloop
endfacet
facet normal 0.0 0.0 -1.0
outer loop
vertex 0.0 0.0 2.46747067222941e-15
vertex 17.73854341879261 7.557235926607523 0.0
vertex 17.111146605415314 7.208315998913708 0.0
endloop
endfacet
facet normal 0.0 0.0 -1.0
outer loop
vertex 0.0 0.0 2.46747067222941e-15
vertex 17.111146605415314 7.208315998913708 0.0
vertex 16.595434942545673 6.708902985308656 0.0
endloop
endfacet
facet normal 0.0 0.0 -1.0
outer loop
vertex 0.0 0.0 2.46747067222941e-15
vertex 16.595434942545673 6.708902985308656 0.0
vertex 16.226553327754445 6.093031057350531 0.0
endloop
endfacet
facet normal 0.0 0.0 -1.0
outer loop
vertex 0.0 0.0 2.46747067222941e-15
vertex 16.226553327754445 6.093031057350531 0.0
vertex 16.029640433483944 5.402670869153197 0.0
endloop
endfacet
facet normal 0.0 0.0 -1.0
outer loop
vertex 0.0 0.0 2.46747067222941e-15
vertex 16.029640433483944 5.402670869153197 0.0
vertex 16.018115548064774 4.6848693266681485 0.0
endloop
endfacet
facet normal 0.0 0.0 -1.0
outer loop
vertex 16.018115548064774 4.6848693266681485 0.0
vertex 16.029640433483944 5.402670869153197 0.0
vertex 16.023175226384275 4.9999999999999964 0.0
endloop
endfacet
facet normal 0.0 0.0 -1.0
outer loop
vertex 18.434869326668153 7.731884451935222 0.0
vertex 75.0 9.999999999999998 2.46747067222941e-15
vertex 18.75 7.7268247736157205 0.0
endloop
endfacet
facet normal 0.0 0.0 -1.0
outer loop
vertex 18.75 7.7268247736157205 0.0
vertex 75.0 9.999999999999998 2.46747067222941e-15
vertex 19.152670869153205 7.720359566516046 0.0
endloop
endfacet
facet normal 0.0 0.0 -1.0
outer loop
vertex 19.152670869153205 7.720359566516046 0.0
vertex 75.0 9.999999999999998 2.46747067222941e-15
vertex 19.843031057350533 7.52344667224555 0.0
endloop
endfacet
facet normal 0.0 0.0 -1.0
outer loop
vertex 19.843031057350533 7.52344667224555 0.0
vertex 75.0 9.999999999999998 2.46747067222941e-15
vertex 20.458902985308658 7.154565057454322 0.0
endloop
endfacet
facet normal 0.0 0.0 -1.0
outer loop
vertex 20.458902985308658 7.154565057454322 0.0
vertex 75.0 9.999999999999998 2.46747067222941e-15
vertex 20.95831599891371 6.6388533945846815 0.0
endloop
endfacet
facet normal 0.0 0.0 -1.0
outer loop
vertex 20.95831599891371 6.6388533945846815 0.0
vertex 75.0 9.999999999999998 2.46747067222941e-15
vertex 21.307235926607525 6.011456581207386 0.0
endloop
endfacet
facet normal 0.0 0.0 -1.0
outer loop
vertex 21.307235926607525 6.011456581207386 0.0
vertex 75.0 9.999999999999998 2.46747067222941e-15
vertex 21.481884451935226 5.315130673331844 0.0
endloop
endfacet
facet normal 0.0 0.0 -1.0
outer loop
vertex 21.481884451935226 5.315130673331844 0.0
vertex 75.0 9.999999999999998 2.46747067222941e-15
vertex 55.592019364431664 7.670123870388238 3.524958103184872e-16
endloop
endfacet
facet normal 0.0 0.0 -1.0
outer loop
vertex 21.481884451935226 5.315130673331844 0.0
vertex 55.592019364431664 7.670123870388238 3.524958103184872e-16
vertex 54.923360600467106 7.408843686005177 3.524958103184872e-16
endloop
endfacet
facet normal 0.0 0.0 -1.0
outer loop
vertex 21.481884451935226 5.315130673331844 0.0
vertex 54.923360600467106 7.408843686005177 3.524958103184872e-16
vertex 54.34511011920546 6.983404785223275 3.524958103184872e-16
endloop
endfacet
facet normal 0.0 0.0 -1.0
outer loop
vertex 21.481884451935226 5.315130673331844 0.0
vertex 54.34511011920546 6.983404785223275 3.524958103184872e-16
vertex 53.89667473534059 6.422800126059784 3.524958103184872e-16
endloop
endfacet
facet normal 0.0 0.0 -1.0
outer loop
vertex 21.481884451935226 5.315130673331844 0.0
vertex 53.89667473534059 6.422800126059784 3.524958103184872e-16
vertex 53.608614579208385 5.765233989593706 3.524958103184872e-16
endloop
endfacet
facet normal 0.0 0.0 -1.0
outer loop
vertex 21.481884451935226 5.315130673331844 0.0
vertex 53.608614579208385 5.765233989593706 3.524958103184872e-16
vertex 53.50056047440733 5.055518421345776 3.524958103184872e-16
endloop
endfacet
facet normal 0.0 0.0 -1.0
outer loop
vertex 55.592019364431664 7.670123870388238 3.524958103184872e-16
vertex 75.0 9.999999999999998 2.46747067222941e-15
vertex 56.30551842134578 7.749439525592673 3.524958103184872e-16
endloop
endfacet
facet normal 0.0 0.0 -1.0
outer loop
vertex 56.30551842134578 7.749439525592673 3.524958103184872e-16
vertex 75.0 9.999999999999998 2.46747067222941e-15
vertex 57.01523398959371 7.641385420791612 3.524958103184872e-16
endloop
endfacet
facet normal 0.0 0.0 -1.0
outer loop
vertex 57.01523398959371 7.641385420791612 3.524958103184872e-16
vertex 75.0 9.999999999999998 2.46747067222941e-15
vertex 57.67280012605979 7.353325264659397 3.524958103184872e-16
endloop
endfacet
facet normal 0.0 0.0 -1.0
outer loop
vertex 57.67280012605979 7.353325264659397 3.524958103184872e-16
vertex 75.0 9.999999999999998 2.46747067222941e-15
vertex 58.23340478522327 6.904889880794529 3.524958103184872e-16
endloop
endfacet
facet normal 0.0 0.0 -1.0
outer loop
vertex 58.23340478522327 6.904889880794529 3.524958103184872e-16
vertex 75.0 9.999999999999998 2.46747067222941e-15
vertex 58.658843686005184 6.326639399532881 3.524958103184872e-16
endloop
endfacet
facet normal 0.0 0.0 -1.0
outer loop
vertex 58.658843686005184 6.326639399532881 3.524958103184872e-16
vertex 75.0 9.999999999999998 2.46747067222941e-15
vertex 58.92012387038824 5.657980635568333 3.524958103184872e-16
endloop
endfacet
facet normal 0.0 0.0 -1.0
outer loop
vertex 58.92012387038824 5.657980635568333 3.524958103184872e-16
vertex 75.0 9.999999999999998 2.46747067222941e-15
vertex 58.993267856657326 4.9999999999999964 3.524958103184872e-16
endloop
endfacet
facet normal 0.0 0.0 -1.0
outer loop
vertex 58.993267856657326 4.9999999999999964 3.524958103184872e-16
vertex 75.0 9.999999999999998 2.46747067222941e-15
vertex 58.99943952559267 4.944481578654217 3.524958103184872e-16
endloop
endfacet
facet normal 0.0 0.0 -1.0
outer loop
vertex 0.0 0.0 2.46747067222941e-15
vertex 18.34732913084679 2.2796404334839413 0.0
vertex 75.0 0.0 2.46747067222941e-15
endloop
endfacet
facet normal 0.0 0.0 -1.0
outer loop
vertex 18.34732913084679 2.2796404334839413 0.0
vertex 0.0 0.0 2.46747067222941e-15
vertex 17.656968942649463 2.476553327754443 0.0
endloop
endfacet
facet normal 0.0 0.0 -1.0
outer loop
vertex 17.656968942649463 2.476553327754443 0.0
vertex 0.0 0.0 2.46747067222941e-15
vertex 17.04109701469134 2.8454349425456766 0.0
endloop
endfacet
facet normal 0.0 0.0 -1.0
outer loop
vertex 17.04109701469134 2.8454349425456766 0.0
vertex 0.0 0.0 2.46747067222941e-15
vertex 16.54168400108629 3.3611466054153114 0.0
endloop
endfacet
facet normal 0.0 0.0 -1.0
outer loop
vertex 16.54168400108629 3.3611466054153114 0.0
vertex 0.0 0.0 2.46747067222941e-15
vertex 16.192764073392475 3.988543418792607 0.0
endloop
endfacet
facet normal 0.0 0.0 -1.0
outer loop
vertex 16.192764073392475 3.988543418792607 0.0
vertex 0.0 0.0 2.46747067222941e-15
vertex 16.018115548064774 4.6848693266681485 0.0
endloop
endfacet
facet normal 0.0 0.0 -1.0
outer loop
vertex 75.0 0.0 2.46747067222941e-15
vertex 18.34732913084679 2.2796404334839413 0.0
vertex 19.065130673331847 2.268115548064771 0.0
endloop
endfacet
facet normal 0.0 0.0 -1.0
outer loop
vertex 75.0 0.0 2.46747067222941e-15
vertex 19.065130673331847 2.268115548064771 0.0
vertex 19.76145658120739 2.44276407339247 0.0
endloop
endfacet
facet normal 0.0 0.0 -1.0
outer loop
vertex 75.0 0.0 2.46747067222941e-15
vertex 19.76145658120739 2.44276407339247 0.0
vertex 20.388853394584686 2.7916840010862853 0.0
endloop
endfacet
facet normal 0.0 0.0 -1.0
outer loop
vertex 75.0 0.0 2.46747067222941e-15
vertex 20.388853394584686 2.7916840010862853 0.0
vertex 20.90456505745432 3.2910970146913368 0.0
endloop
endfacet
facet normal 0.0 0.0 -1.0
outer loop
vertex 75.0 0.0 2.46747067222941e-15
vertex 20.90456505745432 3.2910970146913368 0.0
vertex 21.27344667224555 3.906968942649456 0.0
endloop
endfacet
facet normal 0.0 0.0 -1.0
outer loop
vertex 75.0 0.0 2.46747067222941e-15
vertex 21.27344667224555 3.906968942649456 0.0
vertex 21.470359566516056 4.59732913084679 0.0
endloop
endfacet
facet normal 0.0 0.0 -1.0
outer loop
vertex 75.0 0.0 2.46747067222941e-15
vertex 21.470359566516056 4.59732913084679 0.0
vertex 21.47682477361572 4.9999999999999964 0.0
endloop
endfacet
facet normal 0.0 0.0 -1.0
outer loop
vertex 75.0 0.0 2.46747067222941e-15
vertex 21.47682477361572 4.9999999999999964 0.0
vertex 21.481884451935226 5.315130673331844 0.0
endloop
endfacet
facet normal 0.0 0.0 -1.0
outer loop
vertex 75.0 0.0 2.46747067222941e-15
vertex 21.481884451935226 5.315130673331844 0.0
vertex 56.19448157865422 2.2505604744073198 3.524958103184872e-16
endloop
endfacet
facet normal 0.0 0.0 -1.0
outer loop
vertex 56.19448157865422 2.2505604744073198 3.524958103184872e-16
vertex 21.481884451935226 5.315130673331844 0.0
vertex 55.48476601040629 2.3586145792083806 3.524958103184872e-16
endloop
endfacet
facet normal 0.0 0.0 -1.0
outer loop
vertex 55.48476601040629 2.3586145792083806 3.524958103184872e-16
vertex 21.481884451935226 5.315130673331844 0.0
vertex 54.82719987394021 2.646674735340596 3.524958103184872e-16
endloop
endfacet
facet normal 0.0 0.0 -1.0
outer loop
vertex 54.82719987394021 2.646674735340596 3.524958103184872e-16
vertex 21.481884451935226 5.315130673331844 0.0
vertex 54.26659521477673 3.095110119205464 3.524958103184872e-16
endloop
endfacet
facet normal 0.0 0.0 -1.0
outer loop
vertex 54.26659521477673 3.095110119205464 3.524958103184872e-16
vertex 21.481884451935226 5.315130673331844 0.0
vertex 53.841156313994816 3.6733606004671127 3.524958103184872e-16
endloop
endfacet
facet normal 0.0 0.0 -1.0
outer loop
vertex 53.841156313994816 3.6733606004671127 3.524958103184872e-16
vertex 21.481884451935226 5.315130673331844 0.0
vertex 53.57987612961176 4.34201936443166 3.524958103184872e-16
endloop
endfacet
facet normal 0.0 0.0 -1.0
outer loop
vertex 53.57987612961176 4.34201936443166 3.524958103184872e-16
vertex 21.481884451935226 5.315130673331844 0.0
vertex 53.506732143342674 4.9999999999999964 3.524958103184872e-16
endloop
endfacet
facet normal 0.0 0.0 -1.0
outer loop
vertex 53.506732143342674 4.9999999999999964 3.524958103184872e-16
vertex 21.481884451935226 5.315130673331844 0.0
vertex 53.50056047440733 5.055518421345776 3.524958103184872e-16
endloop
endfacet
facet normal 0.0 0.0 -1.0
outer loop
vertex 75.0 0.0 2.46747067222941e-15
vertex 56.19448157865422 2.2505604744073198 3.524958103184872e-16
vertex 56.907980635568336 2.3298761296117543 3.524958103184872e-16
endloop
endfacet
facet normal 0.0 0.0 -1.0
outer loop
vertex 75.0 0.0 2.46747067222941e-15
vertex 56.907980635568336 2.3298761296117543 3.524958103184872e-16
vertex 57.57663939953289 2.5911563139948157 3.524958103184872e-16
endloop
endfacet
facet normal 0.0 0.0 -1.0
outer loop
vertex 75.0 0.0 2.46747067222941e-15
vertex 57.57663939953289 2.5911563139948157 3.524958103184872e-16
vertex 58.15488988079453 3.016595214776718 3.524958103184872e-16
endloop
endfacet
facet normal 0.0 0.0 -1.0
outer loop
vertex 75.0 0.0 2.46747067222941e-15
vertex 58.15488988079453 3.016595214776718 3.524958103184872e-16
vertex 58.603325264659404 3.577199873940204 3.524958103184872e-16
endloop
endfacet
facet normal 0.0 0.0 -1.0
outer loop
vertex 75.0 0.0 2.46747067222941e-15
vertex 58.603325264659404 3.577199873940204 3.524958103184872e-16
vertex 58.89138542079161 4.234766010406287 3.524958103184872e-16
endloop
endfacet
facet normal 0.0 0.0 -1.0
outer loop
vertex 75.0 0.0 2.46747067222941e-15
vertex 58.89138542079161 4.234766010406287 3.524958103184872e-16
vertex 58.99943952559267 4.944481578654217 3.524958103184872e-16
endloop
endfacet
facet normal 0.0 0.0 -1.0
outer loop
vertex 75.0 0.0 2.46747067222941e-15
vertex 58.99943952559267 4.944481578654217 3.524958103184872e-16
vertex 75.0 9.999999999999998 2.46747067222941e-15
endloop
endfacet
facet normal 0.9934125279764449 0.11459297212067178 0.0
outer loop
vertex 16.018115548064774 4.6848693266681485 0.0
vertex 16.192764073392475 3.988543418792607 5.000000000000002
vertex 16.192764073392475 3.988543418792607 0.0
endloop
endfacet
facet normal 0.9299039733118277 0.3678023931663244 0.0
outer loop
vertex 16.192764073392475 3.988543418792607 5.000000000000002
vertex 16.018115548064774 4.6848693266681485 0.0
vertex 16.018115548064774 4.6848693266681485 5.000000000000002
endloop
endfacet
facet normal 0.9299039733118277 0.3678023931663244 0.0
outer loop
vertex 16.192764073392475 3.988543418792607 0.0
vertex 16.54168400108629 3.3611466054153114 5.000000000000002
vertex 16.54168400108629 3.3611466054153114 0.0
endloop
endfacet
facet normal 0.8030239996049847 0.5959466889398861 0.0
outer loop
vertex 16.54168400108629 3.3611466054153114 5.000000000000002
vertex 16.192764073392475 3.988543418792607 0.0
vertex 16.192764073392475 3.988543418792607 5.000000000000002
endloop
endfacet
facet normal 0.8030239996049847 0.5959466889398861 0.0
outer loop
vertex 16.54168400108629 3.3611466054153114 0.0
vertex 17.04109701469134 2.8454349425456766 5.000000000000002
vertex 17.04109701469134 2.8454349425456766 0.0
endloop
endfacet
facet normal 0.6214192673849657 0.7834782027106643 0.0
outer loop
vertex 17.04109701469134 2.8454349425456766 5.000000000000002
vertex 16.54168400108629 3.3611466054153114 0.0
vertex 16.54168400108629 3.3611466054153114 5.000000000000002
endloop
endfacet
facet normal 0.9997961911246086 -0.020188516853031607 0.0
outer loop
vertex 53.50056047440733 5.055518421345776 3.524958103184872e-16
vertex 53.506732143342674 4.9999999999999964 5.000000000000002
vertex 53.506732143342674 4.9999999999999964 3.524958103184872e-16
endloop
endfacet
facet normal 0.9938779263430001 0.11048378853088939 0.0
outer loop
vertex 53.506732143342674 4.9999999999999964 5.000000000000002
vertex 53.50056047440733 5.055518421345776 3.524958103184872e-16
vertex 53.50056047440733 5.055518421345776 5.000000000000002
endloop
endfacet
facet normal 0.6214192673849657 0.7834782027106643 0.0
outer loop
vertex 17.04109701469134 2.8454349425456766 5.000000000000002
vertex 17.656968942649463 2.476553327754443 0.0
vertex 17.04109701469134 2.8454349425456766 0.0
endloop
endfacet
facet normal 0.39746583903656274 0.9176169717256549 0.0
outer loop
vertex 17.656968942649463 2.476553327754443 0.0
vertex 17.04109701469134 2.8454349425456766 5.000000000000002
vertex 17.656968942649463 2.476553327754443 5.000000000000002
endloop
endfacet
facet normal 0.39746583903656274 0.9176169717256549 0.0
outer loop
vertex 17.656968942649463 2.476553327754443 5.000000000000002
vertex 18.34732913084679 2.2796404334839413 0.0
vertex 17.656968942649463 2.476553327754443 0.0
endloop
endfacet
facet normal 0.14642577060116826 0.9892216605512913 0.0
outer loop
vertex 18.34732913084679 2.2796404334839413 0.0
vertex 17.656968942649463 2.476553327754443 5.000000000000002
vertex 18.34732913084679 2.2796404334839413 5.000000000000002
endloop
endfacet
facet normal 0.14642577060116826 0.9892216605512913 0.0
outer loop
vertex 18.34732913084679 2.2796404334839413 5.000000000000002
vertex 19.065130673331847 2.268115548064771 0.0
vertex 18.34732913084679 2.2796404334839413 0.0
endloop
endfacet
facet normal -0.11459297212067404 0.9934125279764446 0.0
outer loop
vertex 19.065130673331847 2.268115548064771 0.0
vertex 18.34732913084679 2.2796404334839413 5.000000000000002
vertex 19.065130673331847 2.268115548064771 5.000000000000002
endloop
endfacet
facet normal -0.11459297212067404 0.9934125279764446 0.0
outer loop
vertex 19.065130673331847 2.268115548064771 5.000000000000002
vertex 19.76145658120739 2.44276407339247 0.0
vertex 19.065130673331847 2.268115548064771 0.0
endloop
endfacet
facet normal -0.3678023931663244 0.9299039733118277 0.0
outer loop
vertex 19.76145658120739 2.44276407339247 0.0
vertex 19.065130673331847 2.268115548064771 5.000000000000002
vertex 19.76145658120739 2.44276407339247 5.000000000000002
endloop
endfacet
facet normal -0.3678023931663244 0.9299039733118277 0.0
outer loop
vertex 19.76145658120739 2.44276407339247 5.000000000000002
vertex 20.388853394584686 2.7916840010862853 0.0
vertex 19.76145658120739 2.44276407339247 0.0
endloop
endfacet
facet normal -0.5959466889398861 0.8030239996049847 0.0
outer loop
vertex 20.388853394584686 2.7916840010862853 0.0
vertex 19.76145658120739 2.44276407339247 5.000000000000002
vertex 20.388853394584686 2.7916840010862853 5.000000000000002
endloop
endfacet
facet normal -0.5959466889398861 0.8030239996049847 0.0
outer loop
vertex 20.388853394584686 2.7916840010862853 5.000000000000002
vertex 20.90456505745432 3.2910970146913368 0.0
vertex 20.388853394584686 2.7916840010862853 0.0
endloop
endfacet
facet normal -0.7834782027106629 0.6214192673849671 0.0
outer loop
vertex 20.90456505745432 3.2910970146913368 0.0
vertex 20.388853394584686 2.7916840010862853 5.000000000000002
vertex 20.90456505745432 3.2910970146913368 5.000000000000002
endloop
endfacet
facet normal -0.9176169717256544 0.3974658390365636 0.0
outer loop
vertex 21.27344667224555 3.906968942649456 5.000000000000002
vertex 20.90456505745432 3.2910970146913368 0.0
vertex 20.90456505745432 3.2910970146913368 5.000000000000002
endloop
endfacet
facet normal -0.7834782027106629 0.6214192673849671 0.0
outer loop
vertex 20.90456505745432 3.2910970146913368 0.0
vertex 21.27344667224555 3.906968942649456 5.000000000000002
vertex 21.27344667224555 3.906968942649456 0.0
endloop
endfacet
facet normal -0.9892216605512916 0.14642577060116538 0.0
outer loop
vertex 21.470359566516056 4.59732913084679 5.000000000000002
vertex 21.27344667224555 3.906968942649456 0.0
vertex 21.27344667224555 3.906968942649456 5.000000000000002
endloop
endfacet
facet normal -0.9176169717256544 0.3974658390365636 0.0
outer loop
vertex 21.27344667224555 3.906968942649456 0.0
vertex 21.470359566516056 4.59732913084679 5.000000000000002
vertex 21.470359566516056 4.59732913084679 0.0
endloop
endfacet
facet normal -0.9998711303927029 0.016053741221863947 0.0
outer loop
vertex 21.47682477361572 4.9999999999999964 5.000000000000002
vertex 21.470359566516056 4.59732913084679 0.0
vertex 21.470359566516056 4.59732913084679 5.000000000000002
endloop
endfacet
facet normal -0.9892216605512916 0.14642577060116538 0.0
outer loop
vertex 21.470359566516056 4.59732913084679 0.0
vertex 21.47682477361572 4.9999999999999964 5.000000000000002
vertex 21.47682477361572 4.9999999999999964 0.0
endloop
endfacet
facet normal -0.9934125279764449 -0.11459297212067178 0.0
outer loop
vertex 21.481884451935226 5.315130673331844 5.000000000000002
vertex 21.47682477361572 4.9999999999999964 0.0
vertex 21.47682477361572 4.9999999999999964 5.000000000000002
endloop
endfacet
facet normal -0.9998711303927028 0.016053741221872055 0.0
outer loop
vertex 21.47682477361572 4.9999999999999964 0.0
vertex 21.481884451935226 5.315130673331844 5.000000000000002
vertex 21.481884451935226 5.315130673331844 0.0
endloop
endfacet
facet normal -0.9299039733118277 -0.3678023931663244 0.0
outer loop
vertex 21.307235926607525 6.011456581207386 5.000000000000002
vertex 21.481884451935226 5.315130673331844 0.0
vertex 21.481884451935226 5.315130673331844 5.000000000000002
endloop
endfacet
facet normal -0.9934125279764449 -0.11459297212067178 0.0
outer loop
vertex 21.481884451935226 5.315130673331844 0.0
vertex 21.307235926607525 6.011456581207386 5.000000000000002
vertex 21.307235926607525 6.011456581207386 0.0
endloop
endfacet
facet normal -0.8030239996049864 -0.5959466889398839 0.0
outer loop
vertex 20.95831599891371 6.6388533945846815 5.000000000000002
vertex 21.307235926607525 6.011456581207386 0.0
vertex 21.307235926607525 6.011456581207386 5.000000000000002
endloop
endfacet
facet normal -0.9299039733118277 -0.3678023931663244 0.0
outer loop
vertex 21.307235926607525 6.011456581207386 0.0
vertex 20.95831599891371 6.6388533945846815 5.000000000000002
vertex 20.95831599891371 6.6388533945846815 0.0
endloop
endfacet
facet normal -0.6214192673849651 -0.7834782027106646 0.0
outer loop
vertex 20.458902985308658 7.154565057454322 5.000000000000002
vertex 20.95831599891371 6.6388533945846815 0.0
vertex 20.95831599891371 6.6388533945846815 5.000000000000002
endloop
endfacet
facet normal -0.8030239996049864 -0.5959466889398839 0.0
outer loop
vertex 20.95831599891371 6.6388533945846815 0.0
vertex 20.458902985308658 7.154565057454322 5.000000000000002
vertex 20.458902985308658 7.154565057454322 0.0
endloop
endfacet
facet normal -0.6214192673849651 -0.7834782027106646 0.0
outer loop
vertex 20.458902985308658 7.154565057454322 5.000000000000002
vertex 19.843031057350533 7.52344667224555 0.0
vertex 20.458902985308658 7.154565057454322 0.0
endloop
endfacet
facet normal -0.39746583903655625 -0.9176169717256578 0.0
outer loop
vertex 19.843031057350533 7.52344667224555 0.0
vertex 20.458902985308658 7.154565057454322 5.000000000000002
vertex 19.843031057350533 7.52344667224555 5.000000000000002
endloop
endfacet
facet normal -0.39746583903655625 -0.9176169717256578 0.0
outer loop
vertex 19.843031057350533 7.52344667224555 5.000000000000002
vertex 19.152670869153205 7.720359566516046 0.0
vertex 19.843031057350533 7.52344667224555 0.0
endloop
endfacet
facet normal -0.14642577060116968 -0.989221660551291 0.0
outer loop
vertex 19.152670869153205 7.720359566516046 0.0
vertex 19.843031057350533 7.52344667224555 5.000000000000002
vertex 19.152670869153205 7.720359566516046 5.000000000000002
endloop
endfacet
facet normal -0.14642577060116968 -0.989221660551291 0.0
outer loop
vertex 19.152670869153205 7.720359566516046 5.000000000000002
vertex 18.75 7.7268247736157205 0.0
vertex 19.152670869153205 7.720359566516046 0.0
endloop
endfacet
facet normal -0.01605374122187795 -0.9998711303927027 -0.0
outer loop
vertex 18.75 7.7268247736157205 0.0
vertex 19.152670869153205 7.720359566516046 5.000000000000002
vertex 18.75 7.7268247736157205 5.000000000000002
endloop
endfacet
facet normal -0.016053741221872055 -0.9998711303927028 -0.0
outer loop
vertex 18.75 7.7268247736157205 5.000000000000002
vertex 18.434869326668153 7.731884451935222 0.0
vertex 18.75 7.7268247736157205 0.0
endloop
endfacet
facet normal 0.11459297212067178 -0.9934125279764449 0.0
outer loop
vertex 18.434869326668153 7.731884451935222 0.0
vertex 18.75 7.7268247736157205 5.000000000000002
vertex 18.434869326668153 7.731884451935222 5.000000000000002
endloop
endfacet
facet normal 0.11459297212067178 -0.9934125279764449 0.0
outer loop
vertex 18.434869326668153 7.731884451935222 5.000000000000002
vertex 17.73854341879261 7.557235926607523 0.0
vertex 18.434869326668153 7.731884451935222 0.0
endloop
endfacet
facet normal 0.3678023931663244 -0.9299039733118277 0.0
outer loop
vertex 17.73854341879261 7.557235926607523 0.0
vertex 18.434869326668153 7.731884451935222 5.000000000000002
vertex 17.73854341879261 7.557235926607523 5.000000000000002
endloop
endfacet
facet normal 0.3678023931663244 -0.9299039733118277 0.0
outer loop
vertex 17.73854341879261 7.557235926607523 5.000000000000002
vertex 17.111146605415314 7.208315998913708 0.0
vertex 17.73854341879261 7.557235926607523 0.0
endloop
endfacet
facet normal 0.5959466889398839 -0.8030239996049864 0.0
outer loop
vertex 17.111146605415314 7.208315998913708 0.0
vertex 17.73854341879261 7.557235926607523 5.000000000000002
vertex 17.111146605415314 7.208315998913708 5.000000000000002
endloop
endfacet
facet normal 0.5959466889398839 -0.8030239996049864 0.0
outer loop
vertex 17.111146605415314 7.208315998913708 5.000000000000002
vertex 16.595434942545673 6.708902985308656 0.0
vertex 17.111146605415314 7.208315998913708 0.0
endloop
endfacet
facet normal 0.7834782027106646 -0.6214192673849651 0.0
outer loop
vertex 16.595434942545673 6.708902985308656 0.0
vertex 17.111146605415314 7.208315998913708 5.000000000000002
vertex 16.595434942545673 6.708902985308656 5.000000000000002
endloop
endfacet
facet normal 0.7834782027106646 -0.6214192673849651 0.0
outer loop
vertex 16.595434942545673 6.708902985308656 0.0
vertex 16.226553327754445 6.093031057350531 5.000000000000002
vertex 16.226553327754445 6.093031057350531 0.0
endloop
endfacet
facet normal 0.9176169717256566 -0.3974658390365587 0.0
outer loop
vertex 16.226553327754445 6.093031057350531 5.000000000000002
vertex 16.595434942545673 6.708902985308656 0.0
vertex 16.595434942545673 6.708902985308656 5.000000000000002
endloop
endfacet
facet normal 0.9176169717256566 -0.3974658390365587 0.0
outer loop
vertex 16.226553327754445 6.093031057350531 0.0
vertex 16.029640433483944 5.402670869153197 5.000000000000002
vertex 16.029640433483944 5.402670869153197 0.0
endloop
endfacet
facet normal 0.9892216605512916 -0.14642577060116554 0.0
outer loop
vertex 16.029640433483944 5.402670869153197 5.000000000000002
vertex 16.226553327754445 6.093031057350531 0.0
vertex 16.226553327754445 6.093031057350531 5.000000000000002
endloop
endfacet
facet normal -0.8759431585473397 -0.4824143271028652 0.0
outer loop
vertex 58.658843686005184 6.326639399532881 5.000000000000002
vertex 58.92012387038824 5.657980635568333 3.524958103184872e-16
vertex 58.92012387038824 5.657980635568333 5.000000000000002
endloop
endfacet
facet normal -0.9709541346866346 -0.23926568566120998 0.0
outer loop
vertex 58.92012387038824 5.657980635568333 3.524958103184872e-16
vertex 58.658843686005184 6.326639399532881 5.000000000000002
vertex 58.658843686005184 6.326639399532881 3.524958103184872e-16
endloop
endfacet
facet normal -0.7212381037175533 -0.6926872293798322 0.0
outer loop
vertex 58.23340478522327 6.904889880794529 5.000000000000002
vertex 58.658843686005184 6.326639399532881 3.524958103184872e-16
vertex 58.658843686005184 6.326639399532881 5.000000000000002
endloop
endfacet
facet normal -0.8759431585473397 -0.4824143271028652 0.0
outer loop
vertex 58.658843686005184 6.326639399532881 3.524958103184872e-16
vertex 58.23340478522327 6.904889880794529 5.000000000000002
vertex 58.23340478522327 6.904889880794529 3.524958103184872e-16
endloop
endfacet
facet normal -0.7212381037175533 -0.6926872293798322 0.0
outer loop
vertex 58.23340478522327 6.904889880794529 5.000000000000002
vertex 57.67280012605979 7.353325264659397 3.524958103184872e-16
vertex 58.23340478522327 6.904889880794529 3.524958103184872e-16
endloop
endfacet
facet normal -0.5173818640217444 -0.8557546416943266 0.0
outer loop
vertex 57.67280012605979 7.353325264659397 3.524958103184872e-16
vertex 58.23340478522327 6.904889880794529 5.000000000000002
vertex 57.67280012605979 7.353325264659397 5.000000000000002
endloop
endfacet
facet normal -0.5173818640217444 -0.8557546416943266 0.0
outer loop
vertex 57.67280012605979 7.353325264659397 5.000000000000002
vertex 57.01523398959371 7.641385420791612 3.524958103184872e-16
vertex 57.67280012605979 7.353325264659397 3.524958103184872e-16
endloop
endfacet
facet normal -0.2782669053068052 -0.9605037893787685 0.0
outer loop
vertex 57.01523398959371 7.641385420791612 3.524958103184872e-16
vertex 57.67280012605979 7.353325264659397 5.000000000000002
vertex 57.01523398959371 7.641385420791612 5.000000000000002
endloop
endfacet
facet normal 0.9998711303927028 -0.016053741221872055 0.0
outer loop
vertex 16.023175226384275 4.9999999999999964 0.0
vertex 16.018115548064774 4.6848693266681485 5.000000000000002
vertex 16.018115548064774 4.6848693266681485 0.0
endloop
endfacet
facet normal 0.9934125279764449 0.11459297212067178 0.0
outer loop
vertex 16.018115548064774 4.6848693266681485 5.000000000000002
vertex 16.023175226384275 4.9999999999999964 0.0
vertex 16.023175226384275 4.9999999999999964 5.000000000000002
endloop
endfacet
facet normal -0.48241432710286897 0.8759431585473377 0.0
outer loop
vertex 57.57663939953289 2.5911563139948157 5.000000000000002
vertex 58.15488988079453 3.016595214776718 3.524958103184872e-16
vertex 57.57663939953289 2.5911563139948157 3.524958103184872e-16
endloop
endfacet
facet normal -0.6926872293798283 0.7212381037175569 0.0
outer loop
vertex 58.15488988079453 3.016595214776718 3.524958103184872e-16
vertex 57.57663939953289 2.5911563139948157 5.000000000000002
vertex 58.15488988079453 3.016595214776718 5.000000000000002
endloop
endfacet
facet normal -0.8557546416943284 0.5173818640217414 0.0
outer loop
vertex 58.603325264659404 3.577199873940204 5.000000000000002
vertex 58.15488988079453 3.016595214776718 3.524958103184872e-16
vertex 58.15488988079453 3.016595214776718 5.000000000000002
endloop
endfacet
facet normal -0.6926872293798283 0.7212381037175569 0.0
outer loop
vertex 58.15488988079453 3.016595214776718 3.524958103184872e-16
vertex 58.603325264659404 3.577199873940204 5.000000000000002
vertex 58.603325264659404 3.577199873940204 3.524958103184872e-16
endloop
endfacet
facet normal -0.9605037893787706 0.2782669053067984 0.0
outer loop
vertex 58.89138542079161 4.234766010406287 5.000000000000002
vertex 58.603325264659404 3.577199873940204 3.524958103184872e-16
vertex 58.603325264659404 3.577199873940204 5.000000000000002
endloop
endfacet
facet normal -0.8557546416943284 0.5173818640217414 0.0
outer loop
vertex 58.603325264659404 3.577199873940204 3.524958103184872e-16
vertex 58.89138542079161 4.234766010406287 5.000000000000002
vertex 58.89138542079161 4.234766010406287 3.524958103184872e-16
endloop
endfacet
facet normal -0.9997961911246086 0.020188516853031607 0.0
outer loop
vertex 58.99943952559267 4.944481578654217 5.000000000000002
vertex 58.89138542079161 4.234766010406287 3.524958103184872e-16
vertex 58.89138542079161 4.234766010406287 5.000000000000002
endloop
endfacet
facet normal -0.9605037893787706 0.2782669053067984 0.0
outer loop
vertex 58.89138542079161 4.234766010406287 3.524958103184872e-16
vertex 58.99943952559267 4.944481578654217 5.000000000000002
vertex 58.99943952559267 4.944481578654217 3.524958103184872e-16
endloop
endfacet
facet normal -0.9938779263430001 -0.11048378853088939 -0.0
outer loop
vertex 58.993267856657326 4.9999999999999964 5.000000000000002
vertex 58.99943952559267 4.944481578654217 3.524958103184872e-16
vertex 58.99943952559267 4.944481578654217 5.000000000000002
endloop
endfacet
facet normal -0.9997961911246086 0.020188516853031607 0.0
outer loop
vertex 58.99943952559267 4.944481578654217 3.524958103184872e-16
vertex 58.993267856657326 4.9999999999999964 5.000000000000002
vertex 58.993267856657326 4.9999999999999964 3.524958103184872e-16
endloop
endfacet
facet normal -0.9709541346866346 -0.23926568566120998 0.0
outer loop
vertex 58.92012387038824 5.657980635568333 5.000000000000002
vertex 58.993267856657326 4.9999999999999964 3.524958103184872e-16
vertex 58.993267856657326 4.9999999999999964 5.000000000000002
endloop
endfacet
facet normal -0.9938779263429949 -0.11048378853093666 -0.0
outer loop
vertex 58.993267856657326 4.9999999999999964 3.524958103184872e-16
vertex 58.92012387038824 5.657980635568333 5.000000000000002
vertex 58.92012387038824 5.657980635568333 3.524958103184872e-16
endloop
endfacet
facet normal 0.7212381037175533 0.6926872293798322 0.0
outer loop
vertex 54.26659521477673 3.095110119205464 5.000000000000002
vertex 54.82719987394021 2.646674735340596 3.524958103184872e-16
vertex 54.26659521477673 3.095110119205464 3.524958103184872e-16
endloop
endfacet
facet normal 0.5173818640217444 0.8557546416943266 0.0
outer loop
vertex 54.82719987394021 2.646674735340596 3.524958103184872e-16
vertex 54.26659521477673 3.095110119205464 5.000000000000002
vertex 54.82719987394021 2.646674735340596 5.000000000000002
endloop
endfacet
facet normal 0.5173818640217444 0.8557546416943266 0.0
outer loop
vertex 54.82719987394021 2.646674735340596 5.000000000000002
vertex 55.48476601040629 2.3586145792083806 3.524958103184872e-16
vertex 54.82719987394021 2.646674735340596 3.524958103184872e-16
endloop
endfacet
facet normal 0.2782669053068052 0.9605037893787685 0.0
outer loop
vertex 55.48476601040629 2.3586145792083806 3.524958103184872e-16
vertex 54.82719987394021 2.646674735340596 5.000000000000002
vertex 55.48476601040629 2.3586145792083806 5.000000000000002
endloop
endfacet
facet normal 0.0 -1.0 0.0
outer loop
vertex 75.0 0.0 5.000000000000002
vertex 0.0 0.0 2.46747067222941e-15
vertex 75.0 0.0 2.46747067222941e-15
endloop
endfacet
facet normal 0.0 -1.0 0.0
outer loop
vertex 0.0 0.0 2.46747067222941e-15
vertex 75.0 0.0 5.000000000000002
vertex 0.0 0.0 5.000000000000002
endloop
endfacet
facet normal -0.2782669053068052 -0.9605037893787685 0.0
outer loop
vertex 57.01523398959371 7.641385420791612 5.000000000000002
vertex 56.30551842134578 7.749439525592673 3.524958103184872e-16
vertex 57.01523398959371 7.641385420791612 3.524958103184872e-16
endloop
endfacet
facet normal -0.020188516853009694 -0.999796191124609 0.0
outer loop
vertex 56.30551842134578 7.749439525592673 3.524958103184872e-16
vertex 57.01523398959371 7.641385420791612 5.000000000000002
vertex 56.30551842134578 7.749439525592673 5.000000000000002
endloop
endfacet
facet normal -0.020188516853009694 -0.999796191124609 0.0
outer loop
vertex 56.30551842134578 7.749439525592673 5.000000000000002
vertex 55.592019364431664 7.670123870388238 3.524958103184872e-16
vertex 56.30551842134578 7.749439525592673 3.524958103184872e-16
endloop
endfacet
facet normal 0.23926568566121387 -0.9709541346866334 0.0
outer loop
vertex 55.592019364431664 7.670123870388238 3.524958103184872e-16
vertex 56.30551842134578 7.749439525592673 5.000000000000002
vertex 55.592019364431664 7.670123870388238 5.000000000000002
endloop
endfacet
facet normal 0.23926568566121387 -0.9709541346866334 0.0
outer loop
vertex 55.592019364431664 7.670123870388238 5.000000000000002
vertex 54.923360600467106 7.408843686005177 3.524958103184872e-16
vertex 55.592019364431664 7.670123870388238 3.524958103184872e-16
endloop
endfacet
facet normal 0.48241432710286475 -0.8759431585473398 0.0
outer loop
vertex 54.923360600467106 7.408843686005177 3.524958103184872e-16
vertex 55.592019364431664 7.670123870388238 5.000000000000002
vertex 54.923360600467106 7.408843686005177 5.000000000000002
endloop
endfacet
facet normal 0.48241432710286475 -0.8759431585473398 0.0
outer loop
vertex 54.923360600467106 7.408843686005177 5.000000000000002
vertex 54.34511011920546 6.983404785223275 3.524958103184872e-16
vertex 54.923360600467106 7.408843686005177 3.524958103184872e-16
endloop
endfacet
facet normal 0.692687229379831 -0.721238103717554 0.0
outer loop
vertex 54.34511011920546 6.983404785223275 3.524958103184872e-16
vertex 54.923360600467106 7.408843686005177 5.000000000000002
vertex 54.34511011920546 6.983404785223275 5.000000000000002
endloop
endfacet
facet normal 0.692687229379831 -0.721238103717554 0.0
outer loop
vertex 54.34511011920546 6.983404785223275 3.524958103184872e-16
vertex 53.89667473534059 6.422800126059784 5.000000000000002
vertex 53.89667473534059 6.422800126059784 3.524958103184872e-16
endloop
endfacet
facet normal 0.8557546416943319 -0.5173818640217355 0.0
outer loop
vertex 53.89667473534059 6.422800126059784 5.000000000000002
vertex 54.34511011920546 6.983404785223275 3.524958103184872e-16
vertex 54.34511011920546 6.983404785223275 5.000000000000002
endloop
endfacet
facet normal 0.8557546416943319 -0.5173818640217355 0.0
outer loop
vertex 53.89667473534059 6.422800126059784 3.524958103184872e-16
vertex 53.608614579208385 5.765233989593706 5.000000000000002
vertex 53.608614579208385 5.765233989593706 3.524958103184872e-16
endloop
endfacet
facet normal 0.96050378937877 -0.2782669053067998 0.0
outer loop
vertex 53.608614579208385 5.765233989593706 5.000000000000002
vertex 53.89667473534059 6.422800126059784 3.524958103184872e-16
vertex 53.89667473534059 6.422800126059784 5.000000000000002
endloop
endfacet
facet normal 0.96050378937877 -0.2782669053067998 0.0
outer loop
vertex 53.608614579208385 5.765233989593706 3.524958103184872e-16
vertex 53.50056047440733 5.055518421345776 5.000000000000002
vertex 53.50056047440733 5.055518421345776 3.524958103184872e-16
endloop
endfacet
facet normal 0.9997961911246086 -0.020188516853031607 0.0
outer loop
vertex 53.50056047440733 5.055518421345776 5.000000000000002
vertex 53.608614579208385 5.765233989593706 3.524958103184872e-16
vertex 53.608614579208385 5.765233989593706 5.000000000000002
endloop
endfacet
facet normal 0.9709541346866346 0.23926568566120998 0.0
outer loop
vertex 53.57987612961176 4.34201936443166 3.524958103184872e-16
vertex 53.841156313994816 3.6733606004671127 5.000000000000002
vertex 53.841156313994816 3.6733606004671127 3.524958103184872e-16
endloop
endfacet
facet normal 0.8759431585473397 0.4824143271028652 0.0
outer loop
vertex 53.841156313994816 3.6733606004671127 5.000000000000002
vertex 53.57987612961176 4.34201936443166 3.524958103184872e-16
vertex 53.57987612961176 4.34201936443166 5.000000000000002
endloop
endfacet
facet normal 0.2782669053068052 0.9605037893787685 0.0
outer loop
vertex 55.48476601040629 2.3586145792083806 5.000000000000002
vertex 56.19448157865422 2.2505604744073198 3.524958103184872e-16
vertex 55.48476601040629 2.3586145792083806 3.524958103184872e-16
endloop
endfacet
facet normal 0.020188516853009694 0.999796191124609 0.0
outer loop
vertex 56.19448157865422 2.2505604744073198 3.524958103184872e-16
vertex 55.48476601040629 2.3586145792083806 5.000000000000002
vertex 56.19448157865422 2.2505604744073198 5.000000000000002
endloop
endfacet
facet normal 0.020188516853009694 0.999796191124609 0.0
outer loop
vertex 56.19448157865422 2.2505604744073198 5.000000000000002
vertex 56.907980635568336 2.3298761296117543 3.524958103184872e-16
vertex 56.19448157865422 2.2505604744073198 3.524958103184872e-16
endloop
endfacet
facet normal -0.23926568566121387 0.9709541346866334 0.0
outer loop
vertex 56.907980635568336 2.3298761296117543 3.524958103184872e-16
vertex 56.19448157865422 2.2505604744073198 5.000000000000002
vertex 56.907980635568336 2.3298761296117543 5.000000000000002
endloop
endfacet
facet normal -0.23926568566121387 0.9709541346866334 0.0
outer loop
vertex 56.907980635568336 2.3298761296117543 5.000000000000002
vertex 57.57663939953289 2.5911563139948157 3.524958103184872e-16
vertex 56.907980635568336 2.3298761296117543 3.524958103184872e-16
endloop
endfacet
facet normal -0.48241432710286897 0.8759431585473377 0.0
outer loop
vertex 57.57663939953289 2.5911563139948157 3.524958103184872e-16
vertex 56.907980635568336 2.3298761296117543 5.000000000000002
vertex 57.57663939953289 2.5911563139948157 5.000000000000002
endloop
endfacet
facet normal 0.8759431585473397 0.4824143271028652 0.0
outer loop
vertex 53.841156313994816 3.6733606004671127 3.524958103184872e-16
vertex 54.26659521477673 3.095110119205464 5.000000000000002
vertex 54.26659521477673 3.095110119205464 3.524958103184872e-16
endloop
endfacet
facet normal 0.7212381037175533 0.6926872293798322 0.0
outer loop
vertex 54.26659521477673 3.095110119205464 5.000000000000002
vertex 53.841156313994816 3.6733606004671127 3.524958103184872e-16
vertex 53.841156313994816 3.6733606004671127 5.000000000000002
endloop
endfacet
facet normal 0.0 0.0 -1.0
outer loop
vertex 77.99999999999999 12.999999999999998 2.46747067222941e-15
vertex 75.0 9.999999999999998 2.46747067222941e-15
vertex 75.0 12.999999999999998 2.46747067222941e-15
endloop
endfacet
facet normal 0.0 0.0 -1.0
outer loop
vertex 75.0 9.999999999999998 2.46747067222941e-15
vertex 77.99999999999999 12.999999999999998 2.46747067222941e-15
vertex 75.0 0.0 2.46747067222941e-15
endloop
endfacet
facet normal 0.0 0.0 -1.0
outer loop
vertex 75.0 0.0 2.46747067222941e-15
vertex 77.99999999999999 12.999999999999998 2.46747067222941e-15
vertex 75.0 -3.0 2.46747067222941e-15
endloop
endfacet
facet normal 0.0 0.0 -1.0
outer loop
vertex 75.0 -3.0 2.46747067222941e-15
vertex 77.99999999999999 12.999999999999998 2.46747067222941e-15
vertex 77.99999999999999 -3.0 2.46747067222941e-15
endloop
endfacet
facet normal 1.0 0.0 0.0
outer loop
vertex 77.99999999999999 12.999999999999998 2.46747067222941e-15
vertex 77.99999999999999 -3.0 8.000000000000002
vertex 77.99999999999999 -3.0 2.46747067222941e-15
endloop
endfacet
facet normal 1.0 0.0 0.0
outer loop
vertex 77.99999999999999 -3.0 8.000000000000002
vertex 77.99999999999999 12.999999999999998 2.46747067222941e-15
vertex 77.99999999999999 12.999999999999998 8.000000000000002
endloop
endfacet
facet normal 0.0 0.0 1.0
outer loop
vertex 77.99999999999999 -3.0 8.000000000000002
vertex 75.0 12.999999999999998 8.000000000000002
vertex 75.0 -3.0 8.000000000000002
endloop
endfacet
facet normal 0.0 0.0 1.0
outer loop
vertex 75.0 12.999999999999998 8.000000000000002
vertex 77.99999999999999 -3.0 8.000000000000002
vertex 77.99999999999999 12.999999999999998 8.000000000000002
endloop
endfacet
facet normal 0.0 0.0 -1.0
outer loop
vertex 0.0 12.999999999999998 2.46747067222941e-15
vertex -3.0 -3.0 2.46747067222941e-15
vertex -3.0 12.999999999999998 2.46747067222941e-15
endloop
endfacet
facet normal 0.0 0.0 -1.0
outer loop
vertex -3.0 -3.0 2.46747067222941e-15
vertex 0.0 12.999999999999998 2.46747067222941e-15
vertex 0.0 -3.0 2.46747067222941e-15
endloop
endfacet
facet normal 0.0 0.0 -1.0
outer loop
vertex 0.0 -3.0 2.46747067222941e-15
vertex 0.0 12.999999999999998 2.46747067222941e-15
vertex 0.0 9.999999999999998 2.46747067222941e-15
endloop
endfacet
facet normal 0.0 0.0 -1.0
outer loop
vertex 0.0 -3.0 2.46747067222941e-15
vertex 0.0 9.999999999999998 2.46747067222941e-15
vertex 0.0 0.0 2.46747067222941e-15
endloop
endfacet
facet normal -1.0 0.0 0.0
outer loop
vertex -3.0 12.999999999999998 8.000000000000002
vertex -3.0 -3.0 2.46747067222941e-15
vertex -3.0 -3.0 8.000000000000002
endloop
endfacet
facet normal -1.0 0.0 0.0
outer loop
vertex -3.0 -3.0 2.46747067222941e-15
vertex -3.0 12.999999999999998 8.000000000000002
vertex -3.0 12.999999999999998 2.46747067222941e-15
endloop
endfacet
facet normal 0.0 0.0 1.0
outer loop
vertex 0.0 -3.0 8.000000000000002
vertex -3.0 12.999999999999998 8.000000000000002
vertex -3.0 -3.0 8.000000000000002
endloop
endfacet
facet normal 0.0 0.0 1.0
outer loop
vertex -3.0 12.999999999999998 8.000000000000002
vertex 0.0 -3.0 8.000000000000002
vertex 0.0 12.999999999999998 8.000000000000002
endloop
endfacet
facet normal 0.0 -1.0 0.0
outer loop
vertex 77.99999999999999 -3.0 8.000000000000002
vertex 75.0 -3.0 2.46747067222941e-15
vertex 77.99999999999999 -3.0 2.46747067222941e-15
endloop
endfacet
facet normal 0.0 -1.0 0.0
outer loop
vertex 75.0 -3.0 2.46747067222941e-15
vertex 77.99999999999999 -3.0 8.000000000000002
vertex 75.0 -3.0 8.000000000000002
endloop
endfacet
facet normal 0.0 1.0 0.0
outer loop
vertex 75.0 12.999999999999998 8.000000000000002
vertex 77.99999999999999 12.999999999999998 2.46747067222941e-15
vertex 75.0 12.999999999999998 2.46747067222941e-15
endloop
endfacet
facet normal 0.0 1.0 0.0
outer loop
vertex 77.99999999999999 12.999999999999998 2.46747067222941e-15
vertex 75.0 12.999999999999998 8.000000000000002
vertex 77.99999999999999 12.999999999999998 8.000000000000002
endloop
endfacet
facet normal -1.0 0.0 0.0
outer loop
vertex 75.0 -3.0 8.000000000000002
vertex 75.0 0.0 5.000000000000002
vertex 75.0 -3.0 2.46747067222941e-15
endloop
endfacet
facet normal -1.0 0.0 0.0
outer loop
vertex 75.0 0.0 5.000000000000002
vertex 75.0 -3.0 8.000000000000002
vertex 75.0 12.999999999999998 8.000000000000002
endloop
endfacet
facet normal -1.0 0.0 0.0
outer loop
vertex 75.0 0.0 5.000000000000002
vertex 75.0 12.999999999999998 8.000000000000002
vertex 75.0 9.999999999999998 5.000000000000002
endloop
endfacet
facet normal -1.0 0.0 0.0
outer loop
vertex 75.0 9.999999999999998 5.000000000000002
vertex 75.0 12.999999999999998 8.000000000000002
vertex 75.0 9.999999999999998 2.46747067222941e-15
endloop
endfacet
facet normal -1.0 0.0 0.0
outer loop
vertex 75.0 9.999999999999998 2.46747067222941e-15
vertex 75.0 12.999999999999998 8.000000000000002
vertex 75.0 12.999999999999998 2.46747067222941e-15
endloop
endfacet
facet normal -1.0 0.0 0.0
outer loop
vertex 75.0 0.0 2.46747067222941e-15
vertex 75.0 -3.0 2.46747067222941e-15
vertex 75.0 0.0 5.000000000000002
endloop
endfacet
facet normal 0.0 1.0 0.0
outer loop
vertex -3.0 12.999999999999998 8.000000000000002
vertex 0.0 12.999999999999998 2.46747067222941e-15
vertex -3.0 12.999999999999998 2.46747067222941e-15
endloop
endfacet
facet normal 0.0 1.0 0.0
outer loop
vertex 0.0 12.999999999999998 2.46747067222941e-15
vertex -3.0 12.999999999999998 8.000000000000002
vertex 0.0 12.999999999999998 8.000000000000002
endloop
endfacet
facet normal 0.0 -1.0 0.0
outer loop
vertex 0.0 -3.0 8.000000000000002
vertex -3.0 -3.0 2.46747067222941e-15
vertex 0.0 -3.0 2.46747067222941e-15
endloop
endfacet
facet normal 0.0 -1.0 0.0
outer loop
vertex -3.0 -3.0 2.46747067222941e-15
vertex 0.0 -3.0 8.000000000000002
vertex -3.0 -3.0 8.000000000000002
endloop
endfacet
facet normal 1.0 0.0 0.0
outer loop
vertex 0.0 12.999999999999998 2.46747067222941e-15
vertex 0.0 9.999999999999998 5.000000000000002
vertex 0.0 9.999999999999998 2.46747067222941e-15
endloop
endfacet
facet normal 1.0 0.0 0.0
outer loop
vertex 0.0 0.0 2.46747067222941e-15
vertex 0.0 -3.0 8.000000000000002
vertex 0.0 -3.0 2.46747067222941e-15
endloop
endfacet
facet normal 1.0 0.0 0.0
outer loop
vertex 0.0 -3.0 8.000000000000002
vertex 0.0 0.0 2.46747067222941e-15
vertex 0.0 0.0 5.000000000000002
endloop
endfacet
facet normal 1.0 0.0 0.0
outer loop
vertex 0.0 -3.0 8.000000000000002
vertex 0.0 0.0 5.000000000000002
vertex 0.0 12.999999999999998 8.000000000000002
endloop
endfacet
facet normal 1.0 0.0 0.0
outer loop
vertex 0.0 12.999999999999998 8.000000000000002
vertex 0.0 0.0 5.000000000000002
vertex 0.0 9.999999999999998 5.000000000000002
endloop
endfacet
facet normal 1.0 0.0 0.0
outer loop
vertex 0.0 12.999999999999998 8.000000000000002
vertex 0.0 9.999999999999998 5.000000000000002
vertex 0.0 12.999999999999998 2.46747067222941e-15
endloop
endfacet
endsolid support
